<svg width="16" height="16" viewBox="0 0 16 16" fill="none" xmlns="http://www.w3.org/2000/svg">
<path fill-rule="evenodd" clip-rule="evenodd" d="M11.3465 9.02584C11.5071 8.60487 12.1039 8.60487 12.2645 9.02584C12.647 10.028 13.4223 10.8268 14.4061 11.2417L14.6053 11.3198L14.6707 11.3432C15.1094 11.5006 15.1094 12.1204 14.6707 12.2778L14.4637 12.3588C13.4455 12.7897 12.6494 13.6267 12.2732 14.6723C12.1255 15.0829 11.5705 15.1086 11.3719 14.7495L11.3377 14.6723C10.9364 13.5567 10.0563 12.6786 8.93926 12.2778L8.86211 12.2436C8.5023 12.0454 8.52829 11.491 8.93926 11.3432L9.00469 11.3198C10.0156 10.957 10.8303 10.1977 11.2645 9.2231L11.3465 9.02584ZM11.8055 10.3149C11.4085 10.9235 10.8808 11.4366 10.2615 11.8178C10.8845 12.2126 11.412 12.7413 11.8055 13.3647C12.1989 12.7415 12.7257 12.2125 13.3484 11.8178C12.7293 11.4367 12.2024 10.9233 11.8055 10.3149Z" fill="#5D6A85"/>
<path fill-rule="evenodd" clip-rule="evenodd" d="M5.39434 1.53072C5.65212 0.823147 6.65424 0.82304 6.91191 1.53072C7.56487 3.324 8.97959 4.73699 10.7752 5.38912C11.4832 5.64674 11.4834 6.64731 10.7752 6.90474L10.4432 7.0356C8.80558 7.73461 7.5241 9.08174 6.91191 10.7631C6.67012 11.4261 5.77442 11.4673 5.45098 10.8872L5.39434 10.7631C4.74142 8.96987 3.32663 7.55685 1.53106 6.90474L1.40606 6.8481C0.824968 6.52512 0.866959 5.63048 1.53106 5.38912C3.2145 4.77768 4.56258 3.49711 5.2625 1.86177L5.39434 1.53072ZM6.15313 2.32076C5.40165 4.03047 4.03392 5.39535 2.32207 6.14595C4.034 6.8964 5.40155 8.26251 6.15313 9.97213C6.90465 8.26262 8.27143 6.89643 9.9832 6.14595C8.27159 5.39534 6.90456 4.03025 6.15313 2.32076Z" fill="#5D6A85"/>
<path d="M13.9998 2.99947H14.9998V3.99947H13.9998V4.99947H12.9998V3.99947H11.9998V2.99947H12.9998V1.99947H13.9998V2.99947Z" fill="#5D6A85"/>
</svg>
