<svg width="16" height="16" viewBox="0 0 16 16" fill="none" xmlns="http://www.w3.org/2000/svg">
<path d="M5 3H3V13H5V14H2.5C2.22386 14 2 13.7761 2 13.5V2.5C2 2.22386 2.22386 2 2.5 2H5V3Z" fill="#5D6A85"/>
<path d="M13.5 2C13.7761 2 14 2.22386 14 2.5V13.5C14 13.7761 13.7761 14 13.5 14H11V13H13V3H11V2H13.5Z" fill="#5D6A85"/>
<path d="M5 7C5.55229 7 6 7.44772 6 8C6 8.55228 5.55229 9 5 9C4.44771 9 4 8.55228 4 8C4 7.44772 4.44771 7 5 7Z" fill="#5D6A85"/>
<path d="M8 7C8.55229 7 9 7.44772 9 8C9 8.55228 8.55229 9 8 9C7.44771 9 7 8.55228 7 8C7 7.44772 7.44771 7 8 7Z" fill="#5D6A85"/>
<path d="M11 7C11.5523 7 12 7.44772 12 8C12 8.55228 11.5523 9 11 9C10.4477 9 10 8.55228 10 8C10 7.44772 10.4477 7 11 7Z" fill="#5D6A85"/>
</svg>
