<svg width="16" height="16" viewBox="0 0 16 16" fill="none" xmlns="http://www.w3.org/2000/svg">
<path d="M9 13H8V3H9V13Z" fill="#5D6A85"/>
<path fill-rule="evenodd" clip-rule="evenodd" d="M3.5 4C4.88071 4 6 5.11929 6 6.5V9.5C6 10.8807 4.88071 12 3.5 12C2.11929 12 1 10.8807 1 9.5V6.5C1 5.11929 2.11929 4 3.5 4ZM3.5 5C2.67157 5 2 5.67157 2 6.5V9.5C2 10.3284 2.67157 11 3.5 11C4.32843 11 5 10.3284 5 9.5V6.5C5 5.67157 4.32843 5 3.5 5Z" fill="#5D6A85"/>
<path d="M13.5 4C13.6325 4 13.7598 4.0528 13.8535 4.14648C13.9471 4.24018 13.9999 4.36755 14 4.5V11H15V12H12V11H13V5H12V4H13.5Z" fill="#5D6A85"/>
</svg>
