<svg width="16" height="16" viewBox="0 0 16 16" fill="none" xmlns="http://www.w3.org/2000/svg">
<path d="M11.5 10.5C12.0523 10.5 12.5 10.9477 12.5 11.5C12.5 12.0523 12.0523 12.5 11.5 12.5H8.5C7.94772 12.5 7.5 12.0523 7.5 11.5C7.5 10.9477 7.94772 10.5 8.5 10.5H11.5Z" fill="#5D6A85"/>
<path fill-rule="evenodd" clip-rule="evenodd" d="M11.5 9C12.8807 9 14 10.1193 14 11.5C14 12.8807 12.8807 14 11.5 14H4.5C3.11929 14 2 12.8807 2 11.5C2 10.1193 3.11929 9 4.5 9H11.5ZM4.5 10C3.67157 10 3 10.6716 3 11.5C3 12.3284 3.67157 13 4.5 13H11.5C12.3284 13 13 12.3284 13 11.5C13 10.6716 12.3284 10 11.5 10H4.5Z" fill="#5D6A85"/>
<path d="M7.5 3.5C8.05228 3.5 8.5 3.94772 8.5 4.5C8.5 5.05228 8.05228 5.5 7.5 5.5H4.5C3.94772 5.5 3.5 5.05228 3.5 4.5C3.5 3.94772 3.94772 3.5 4.5 3.5H7.5Z" fill="#5D6A85"/>
<path fill-rule="evenodd" clip-rule="evenodd" d="M11.5 2C12.8807 2 14 3.11929 14 4.5C14 5.88071 12.8807 7 11.5 7H4.5C3.11929 7 2 5.88071 2 4.5C2 3.11929 3.11929 2 4.5 2H11.5ZM4.5 3C3.67157 3 3 3.67157 3 4.5C3 5.32843 3.67157 6 4.5 6H11.5C12.3284 6 13 5.32843 13 4.5C13 3.67157 12.3284 3 11.5 3H4.5Z" fill="#5D6A85"/>
</svg>
