<svg width="16" height="16" viewBox="0 0 16 16" fill="none" xmlns="http://www.w3.org/2000/svg">
<path fill-rule="evenodd" clip-rule="evenodd" d="M10.5 2C11.3284 2 12 2.67157 12 3.5V5H12.5C13.3284 5 14 5.67157 14 6.5V12.5C14 13.3284 13.3284 14 12.5 14H6.5C5.67157 14 5 13.3284 5 12.5V12H3.5C2.67157 12 2 11.3284 2 10.5V3.5C2 2.67157 2.67157 2 3.5 2H10.5ZM6.5 6C6.22386 6 6 6.22386 6 6.5V12.5C6 12.7761 6.22386 13 6.5 13H12.5C12.7761 13 13 12.7761 13 12.5V6.5C13 6.22386 12.7761 6 12.5 6H6.5ZM3.5 3C3.22386 3 3 3.22386 3 3.5V10.5C3 10.7761 3.22386 11 3.5 11H5V6.5C5 5.67157 5.67157 5 6.5 5H11V3.5C11 3.22386 10.7761 3 10.5 3H3.5Z" fill="#5D6A85"/>
</svg>
