<svg width="16" height="16" viewBox="0 0 16 16" fill="none" xmlns="http://www.w3.org/2000/svg">
<path fill-rule="evenodd" clip-rule="evenodd" d="M8.00098 2C9.29663 2 10.4938 2.23258 11.3857 2.62891C11.831 2.82681 12.223 3.07566 12.5098 3.37695C12.7796 3.66055 12.9714 4.01102 12.9961 4.41309H13.001V5.07715C13.0012 5.08327 13.0019 5.09102 13.002 5.09961L13.001 5.12109V10.7598C13.0093 10.8284 13.0166 10.9077 13.0166 10.9922L13.0088 11.1738C12.9292 12.0664 12.269 12.7649 11.4307 13.2236C10.5237 13.7198 9.30758 14.001 8 14.001C6.6854 14.0009 5.47063 13.6938 4.56738 13.1719C3.67734 12.6575 2.99902 11.8724 2.99902 10.9004C2.99903 10.8918 2.99978 10.884 3 10.8779V10.4834C2.74926 10.195 2.62009 9.93374 2.55859 9.76465C2.50778 9.62485 2.50002 9.49394 2.5 9.40137V6.5C2.5 6.22386 2.72386 6 3 6V4.41309H3.00586C3.03058 4.01102 3.22237 3.66055 3.49219 3.37695C3.77896 3.07562 4.17089 2.82684 4.61621 2.62891C5.50813 2.23255 6.7053 2.00002 8.00098 2ZM4 7.06836C4.06035 7.11863 4.1271 7.17045 4.20215 7.22168C4.88367 7.6867 6.25126 8.19009 8.92969 8.03906C9.49901 8.00702 9.99975 8.45426 10 9.04297V11.04C9.99995 11.5599 9.59711 12.0001 9.06934 12.0322C6.61495 12.181 5.06503 11.8179 4.08301 11.3096C4.2227 11.653 4.54095 12.0024 5.06738 12.3066C5.79306 12.7259 6.8291 13.0009 8 13.001C9.17769 13.001 10.2204 12.7458 10.9502 12.3467C11.646 11.966 11.9742 11.5093 12.0127 11.0781L12.0166 10.9922C12.0166 10.9562 12.0125 10.9129 12.0049 10.8555L12.001 10.8232V6.04004C11.8132 6.16297 11.6059 6.27323 11.3857 6.37109C10.4938 6.76744 9.29668 7 8.00098 7C6.7053 6.99998 5.50813 6.76745 4.61621 6.37109C4.39555 6.27301 4.18812 6.16231 4 6.03906V7.06836ZM3.5 9.42871C3.54614 9.55217 3.75379 10.0004 4.49316 10.3975C5.25514 10.8066 6.61464 11.1777 9 11.0342V9.04395L8.99805 9.04102L8.99316 9.03809C8.99316 9.03809 8.9894 9.03699 8.98633 9.03711C6.17651 9.19555 4.56395 8.6792 3.63867 8.04785C3.59025 8.01481 3.54448 7.98068 3.5 7.94727V9.42871ZM8.00098 3C6.88203 3.00004 5.88508 3.25143 5.16504 3.64062C4.56188 3.96674 4.20821 4.35757 4.07031 4.73438C4.10382 4.79541 4.14948 4.86282 4.2168 4.93359C4.3854 5.11076 4.65357 5.29306 5.02246 5.45703C5.75912 5.78438 6.81174 5.99998 8.00098 6C9.19023 6 10.2428 5.78437 10.9795 5.45703C11.3485 5.29305 11.6165 5.11078 11.7852 4.93359C11.8523 4.86298 11.8971 4.7953 11.9307 4.73438C11.7926 4.35769 11.4399 3.96662 10.8369 3.64062C10.207 3.30018 9.36496 3.06522 8.41504 3.01172L8.00098 3Z" fill="#5D6A85"/>
</svg>
