<svg width="16" height="16" viewBox="0 0 16 16" fill="none" xmlns="http://www.w3.org/2000/svg">
<path fill-rule="evenodd" clip-rule="evenodd" d="M8.00098 2C9.30446 2.00001 10.5097 2.2626 11.4072 2.71094C12.2747 3.14435 13.0019 3.83649 13.002 4.74902C13.0019 4.80617 12.9997 4.86257 12.9941 4.91797C12.9994 4.97776 13.0019 5.03831 13.002 5.09961V10.9219L12.9961 11.0557L12.9951 11.0674L12.9941 11.0781C12.9133 12.0005 12.2271 12.7362 11.3477 13.2207C10.5661 13.6512 9.56526 13.9255 8.47363 13.9873L8.00098 14.001C6.68637 14.0009 5.47161 13.6938 4.56836 13.1719C3.67831 12.6575 3 11.8724 3 10.9004V5.09961C3.00002 5.037 3.0023 4.9751 3.00781 4.91406C3.0025 4.85993 3.00001 4.80482 3 4.74902C3.00004 3.83654 3.72731 3.14435 4.59473 2.71094C5.49219 2.26258 6.69749 2.00003 8.00098 2ZM12.002 6.42676C11.8172 6.56089 11.6166 6.68153 11.4072 6.78613C10.5097 7.23449 9.30449 7.49706 8.00098 7.49707C6.69744 7.49704 5.4922 7.23452 4.59473 6.78613C4.38534 6.6815 4.18478 6.56093 4 6.42676V10.9004C4 11.3642 4.32962 11.8797 5.06836 12.3066C5.79404 12.7259 6.83008 13.0009 8.00098 13.001L8.41992 12.9893C9.38241 12.9344 10.2332 12.6928 10.8652 12.3447C11.5975 11.9413 11.9537 11.4467 11.9961 10.9971L12.002 10.8789V6.42676ZM8.00098 3C6.83007 3.00004 5.79403 3.27521 5.06836 3.69434C4.43466 4.06041 4.10228 4.49154 4.02051 4.89941C4.09434 5.20354 4.39226 5.56693 5.04199 5.8916C5.77341 6.25697 6.81905 6.49704 8.00098 6.49707C9.18295 6.49706 10.2285 6.25698 10.96 5.8916C11.6096 5.56702 11.9065 5.20351 11.9805 4.89941C11.8986 4.4916 11.5672 4.06035 10.9336 3.69434C10.2986 3.32767 9.42603 3.07113 8.43359 3.0127L8.00098 3Z" fill="#5D6A85"/>
</svg>
