<svg width="16" height="16" viewBox="0 0 16 16" fill="none" xmlns="http://www.w3.org/2000/svg">
<path fill-rule="evenodd" clip-rule="evenodd" d="M11.5 2C12.3284 2 13 2.67157 13 3.5V6.29199L13.8545 7.14648C13.9479 7.24012 14.0009 7.36771 14.001 7.5V12.501C14.001 13.3293 13.3292 14.0008 12.501 14.001H8.49609C7.66767 14.001 6.99609 13.3294 6.99609 12.501V12H3.5C2.67157 12 2 11.3284 2 10.5V3.5C2 2.67157 2.67157 2 3.5 2H11.5ZM8.49609 5C8.22008 5 7.99631 5.22404 7.99609 5.5V12.501C7.99609 12.7771 8.21995 13.001 8.49609 13.001H12.501C12.7769 13.0008 13.001 12.777 13.001 12.501V8H11.5C10.7233 7.99987 10.0843 7.40901 10.0078 6.65234L10 6.49902V5H8.49609ZM3 6V10.5C3 10.7761 3.22386 11 3.5 11H6.99609V6H3ZM11 6.5C11.0002 6.77581 11.224 6.99986 11.5 7H12.2939L11 5.70605V6.5ZM3.5 3C3.22386 3 3 3.22386 3 3.5V5H7.08301C7.28915 4.41772 7.84328 4 8.49609 4H10.5C10.6325 4 10.7598 4.05287 10.8535 4.14648L12 5.29199V3.5C12 3.22386 11.7761 3 11.5 3H3.5Z" fill="#5D6A85"/>
</svg>
