<svg width="16" height="16" viewBox="0 0 16 16" fill="none" xmlns="http://www.w3.org/2000/svg">
<path d="M10.1465 10.8535L8.00002 8.70709L5.85358 10.8535L5.14647 10.1464L7.29291 7.99998L5.14645 5.85353L5.85356 5.14642L8.00002 7.29288L10.1465 5.14642L10.8536 5.85353L8.70712 7.99998L10.8536 10.1464L10.1465 10.8535Z" fill="#66000E"/>
<path fill-rule="evenodd" clip-rule="evenodd" d="M8 15C11.866 15 15 11.866 15 8C15 4.13401 11.866 1 8 1C4.13401 1 1 4.13401 1 8C1 11.866 4.13401 15 8 15ZM8 14C11.3137 14 14 11.3137 14 8C14 4.68629 11.3137 2 8 2C4.68629 2 2 4.68629 2 8C2 11.3137 4.68629 14 8 14Z" fill="#66000E"/>
</svg>
