<svg width="16" height="16" viewBox="0 0 16 16" fill="none" xmlns="http://www.w3.org/2000/svg">
<path fill-rule="evenodd" clip-rule="evenodd" d="M5 8C6.48647 8 7.71993 9.08118 7.95801 10.5H14V11.5H7.95801C7.71993 12.9188 6.48647 14 5 14C3.34315 14 2 12.6569 2 11C2 9.34315 3.34315 8 5 8ZM5 9C3.89543 9 3 9.89543 3 11C3 12.1046 3.89543 13 5 13C6.10457 13 7 12.1046 7 11C7 9.89543 6.10457 9 5 9Z" fill="#5D6A85"/>
<path fill-rule="evenodd" clip-rule="evenodd" d="M11 2C12.6569 2 14 3.34315 14 5C14 6.65685 12.6569 8 11 8C9.51353 8 8.28007 6.91882 8.04199 5.5H2V4.5H8.04199C8.28007 3.08118 9.51353 2 11 2ZM11 3C9.89543 3 9 3.89543 9 5C9 6.10457 9.89543 7 11 7C12.1046 7 13 6.10457 13 5C13 3.89543 12.1046 3 11 3Z" fill="#5D6A85"/>
</svg>
