<svg width="16" height="16" viewBox="0 0 16 16" fill="none" xmlns="http://www.w3.org/2000/svg">
<path d="M8.5 2C9.60457 2 10.5 2.89543 10.5 4H9.5C9.5 3.44772 9.05228 3 8.5 3H8.39844C7.84746 3 7.38109 3.4072 7.30664 3.95312L6.8916 7H8.5V8H6.75488L6.18457 12.1826C6.04239 13.2238 5.15248 14 4.10156 14H4C2.89543 14 2 13.1046 2 12H3C3 12.5523 3.44772 13 4 13H4.10156C4.65254 13 5.11891 12.5928 5.19336 12.0469L5.74512 8H4V7H5.88184L6.31543 3.81738C6.45761 2.77617 7.34752 2 8.39844 2H8.5Z" fill="#5D6A85"/>
<path d="M13.8535 8.85352L11.707 11L13.8535 13.1465L13.1465 13.8535L11 11.707L8.85352 13.8535L8.14648 13.1465L10.293 11L8.14648 8.85352L8.85352 8.14648L11 10.293L13.1465 8.14648L13.8535 8.85352Z" fill="#5D6A85"/>
</svg>
