<svg width="16" height="16" viewBox="0 0 16 16" fill="none" xmlns="http://www.w3.org/2000/svg">
<path fill-rule="evenodd" clip-rule="evenodd" d="M8 1C9.38071 1 10.5 2.11929 10.5 3.5C10.5 3.87786 10.4128 4.23455 10.2627 4.55566L11.4434 5.73633C11.7646 5.58613 12.122 5.5 12.5 5.5C13.8807 5.5 15 6.61929 15 8C15 9.38071 13.8807 10.5 12.5 10.5C12.1218 10.5 11.7647 10.413 11.4434 10.2627L10.2627 11.4434C10.413 11.7647 10.5 12.1218 10.5 12.5C10.5 13.8807 9.38071 15 8 15C6.61929 15 5.5 13.8807 5.5 12.5C5.5 12.122 5.58613 11.7646 5.73633 11.4434L4.55566 10.2627C4.23455 10.4128 3.87786 10.5 3.5 10.5C2.11929 10.5 1 9.38071 1 8C1 6.61929 2.11929 5.5 3.5 5.5C3.87771 5.5 4.23464 5.58636 4.55566 5.73633L5.73633 4.55566C5.58636 4.23464 5.5 3.87771 5.5 3.5C5.5 2.11929 6.61929 1 8 1ZM8 11C7.17157 11 6.5 11.6716 6.5 12.5C6.5 13.3284 7.17157 14 8 14C8.82843 14 9.5 13.3284 9.5 12.5C9.5 11.6716 8.82843 11 8 11ZM9.6582 5.36523C9.21658 5.75812 8.63759 6 8 6C7.36215 6 6.78251 5.75841 6.34082 5.36523L5.36523 6.34082C5.75841 6.78251 6 7.36215 6 8C6 8.63759 5.75812 9.21658 5.36523 9.6582L6.34082 10.6338C6.78245 10.2409 7.36238 10 8 10C8.63735 10 9.21664 10.2412 9.6582 10.6338L10.6338 9.6582C10.2412 9.21664 10 8.63735 10 8C10 7.36238 10.2409 6.78245 10.6338 6.34082L9.6582 5.36523ZM3.5 6.5C2.67157 6.5 2 7.17157 2 8C2 8.82843 2.67157 9.5 3.5 9.5C4.32843 9.5 5 8.82843 5 8C5 7.17157 4.32843 6.5 3.5 6.5ZM12.5 6.5C11.6716 6.5 11 7.17157 11 8C11 8.82843 11.6716 9.5 12.5 9.5C13.3284 9.5 14 8.82843 14 8C14 7.17157 13.3284 6.5 12.5 6.5ZM8 2C7.17157 2 6.5 2.67157 6.5 3.5C6.5 4.32843 7.17157 5 8 5C8.82843 5 9.5 4.32843 9.5 3.5C9.5 2.67157 8.82843 2 8 2Z" fill="#5D6A85"/>
</svg>
