<svg width="16" height="16" viewBox="0 0 16 16" fill="none" xmlns="http://www.w3.org/2000/svg">
<path d="M13 5.9098L8.5 8.77406V13.5885L12.7686 10.8727C12.9127 10.7809 13 10.6217 13 10.4508V5.9098ZM8.26855 2.26332C8.10477 2.15909 7.89523 2.15909 7.73145 2.26332L3.43066 4.99964L8 7.90687L12.5684 4.99964L8.26855 2.26332ZM3 10.4508C3 10.6217 3.08729 10.7809 3.23145 10.8727L7.5 13.5885V8.77406L3 5.9098V10.4508ZM14 10.4508C14 10.9636 13.7382 11.4411 13.3057 11.7164L8.26855 14.9215C8.10477 15.0257 7.89523 15.0257 7.73145 14.9215L2.69434 11.7164C2.26181 11.4411 2 10.9636 2 10.4508V4.99964C2.00008 4.82878 2.08729 4.66951 2.23145 4.57777L7.19434 1.41957C7.68569 1.10689 8.31431 1.10689 8.80566 1.41957L13.7686 4.57777C13.9127 4.66951 13.9999 4.82878 14 4.99964V10.4508Z" fill="#5D6A85"/>
</svg>
