<svg width="16" height="16" viewBox="0 0 16 16" fill="none" xmlns="http://www.w3.org/2000/svg">
<path d="M5.5 10C5.77614 10 6 10.2239 6 10.5V15H5V11.707L0.853516 15.8535L0.146484 15.1465L4.29297 11H1V10H5.5Z" fill="#5D6A85"/>
<path fill-rule="evenodd" clip-rule="evenodd" d="M8.59766 1.00977C8.69383 1.02893 8.78314 1.07614 8.85352 1.14648L12.8535 5.14648C12.9472 5.2402 13 5.36751 13 5.5V13.5C12.9999 14.3283 12.3283 15 11.5 15H7V14H11.5C11.7761 14 11.9999 13.776 12 13.5V6H9.5C8.67165 6 8.00013 5.32831 8 4.5V2H4.5C4.22391 2 4.00009 2.22393 4 2.5V9H3V2.5C3.00009 1.67165 3.67163 1 4.5 1H8.5L8.59766 1.00977ZM9 4.5C9.00013 4.77603 9.22394 5 9.5 5H11.293L9 2.70703V4.5Z" fill="#5D6A85"/>
<path d="M10.5 7C10.7761 7 10.9999 7.22391 11 7.5V12.5C10.9999 12.776 10.7761 13 10.5 13H7V12H10V10H7V9H10V8H6V9H5V7.5C5.00007 7.22391 5.2239 7 5.5 7H10.5Z" fill="#5D6A85"/>
</svg>
