<svg width="16" height="16" viewBox="0 0 16 16" fill="none" xmlns="http://www.w3.org/2000/svg">
<path fill-rule="evenodd" clip-rule="evenodd" d="M12 2.5C13.1046 2.5 14 3.39543 14 4.5C14 5.60457 13.1046 6.5 12 6.5C11.0683 6.5 10.2877 5.86232 10.0654 5H7C6.05721 5 5.21599 5.4351 4.66602 6.11523C4.66145 6.11362 4.65692 6.11193 4.65234 6.11035C5.43636 6.38096 6 7.12402 6 8C6 8.87075 5.44272 9.60918 4.66602 9.88379C5.21598 10.5643 6.05693 11 7 11H12.293L10.1465 8.85352L10.8535 8.14648L13.8535 11.1465C13.9471 11.2402 14 11.3675 14 11.5C14 11.6325 13.9471 11.7598 13.8535 11.8535L10.8535 14.8535L10.1465 14.1465L12.293 12H7C5.49232 12 4.17977 11.1655 3.49805 9.93359C2.63678 9.71065 2 8.93096 2 8C2 7.06052 2.64822 6.27419 3.52148 6.05957C3.51366 6.0615 3.50584 6.06341 3.49805 6.06543C4.17989 4.83388 5.49262 4 7 4H10.0654C10.2877 3.13768 11.0683 2.5 12 2.5ZM4 7C3.44772 7 3 7.44772 3 8C3 8.55228 3.44772 9 4 9C4.55228 9 5 8.55228 5 8C5 7.44772 4.55228 7 4 7ZM12 3.5C11.4546 3.5 11.0119 3.93668 11.001 4.47949V4.52051C11.0119 5.06332 11.4546 5.5 12 5.5C12.5523 5.5 13 5.05228 13 4.5C13 3.94772 12.5523 3.5 12 3.5Z" fill="#5D6A85"/>
</svg>
