<svg width="16" height="16" viewBox="0 0 16 16" fill="none" xmlns="http://www.w3.org/2000/svg">
<path fill-rule="evenodd" clip-rule="evenodd" d="M12.5 2C13.3284 2 14 2.67157 14 3.5V9.5C13.9999 10.3283 13.3283 11 12.5 11H11V12.5C10.9999 13.3283 10.3283 14 9.5 14H3.5C2.67165 14 2.00013 13.3283 2 12.5V6.5C2 5.67157 2.67157 5 3.5 5H5V3.5C5 2.67157 5.67157 2 6.5 2H12.5ZM3 9V12.5C3.00013 12.776 3.22394 13 3.5 13H9.5C9.77606 13 9.99987 12.776 10 12.5V9H3ZM6.5 3C6.22386 3 6 3.22386 6 3.5V5H9.5C10.3284 5 11 5.67157 11 6.5V10H12.5C12.7761 10 12.9999 9.77603 13 9.5V3.5C13 3.22386 12.7761 3 12.5 3H6.5ZM3.5 6C3.22386 6 3 6.22386 3 6.5V8H10V6.5C10 6.22386 9.77614 6 9.5 6H3.5Z" fill="#5D6A85"/>
</svg>
