<svg width="16" height="16" viewBox="0 0 16 16" fill="none" xmlns="http://www.w3.org/2000/svg">
<path fill-rule="evenodd" clip-rule="evenodd" d="M12.5 3C11.2905 3 10.2814 3.85886 10.0498 5H9C8.17157 5 7.5 5.67157 7.5 6.5V9.5C7.5 9.77614 7.27614 10 7 10H5.9502C5.71858 8.85886 4.70949 8 3.5 8C2.11929 8 1 9.11929 1 10.5C1 11.8807 2.11929 13 3.5 13C4.70949 13 5.71858 12.1411 5.9502 11H7C7.82843 11 8.5 10.3284 8.5 9.5V6.5C8.5 6.22386 8.72386 6 9 6H10.0498C10.2814 7.14114 11.2905 8 12.5 8C13.8807 8 15 6.88071 15 5.5C15 4.11929 13.8807 3 12.5 3ZM3.5 9C4.32843 9 5 9.67157 5 10.5C5 11.3284 4.32843 12 3.5 12C2.67157 12 2 11.3284 2 10.5C2 9.67157 2.67157 9 3.5 9Z" fill="#5D6A85"/>
</svg>
