<svg width="16" height="16" viewBox="0 0 16 16" fill="none" xmlns="http://www.w3.org/2000/svg">
<path d="M7.92363 10.4C7.48181 10.4 7.12363 10.7582 7.12363 11.2C7.12363 11.6418 7.48181 12 7.92363 12C8.36546 12 8.72363 11.6418 8.72363 11.2C8.72363 10.7582 8.36546 10.4 7.92363 10.4Z" fill="#66000E"/>
<path d="M7.42676 9.5L7.42676 5H8.42676L8.42676 9.5H7.42676Z" fill="#66000E"/>
<path fill-rule="evenodd" clip-rule="evenodd" d="M5.83225 2.75313C6.79432 1.08554 9.20111 1.08555 10.1632 2.75314L14.7773 10.7509C15.7388 12.4176 14.536 14.5002 12.6118 14.5002H3.38361C1.45946 14.5002 0.256608 12.4176 1.21815 10.7509L5.83225 2.75313ZM9.29699 3.25286C8.71975 2.2523 7.27568 2.2523 6.69843 3.25286L2.08433 11.2506C1.50741 12.2506 2.22912 13.5002 3.38361 13.5002H12.6118C13.7663 13.5002 14.488 12.2506 13.9111 11.2506L9.29699 3.25286Z" fill="#66000E"/>
</svg>
