<svg width="16" height="16" viewBox="0 0 16 16" fill="none" xmlns="http://www.w3.org/2000/svg">
<path d="M8.00063 11.5003C8.4147 11.5005 8.75063 11.8362 8.75063 12.2503C8.75052 12.6643 8.41463 13.0001 8.00063 13.0003C7.58649 13.0003 7.25075 12.6644 7.25063 12.2503C7.25063 11.8361 7.58642 11.5003 8.00063 11.5003Z" fill="#F3BE0F"/>
<path d="M8.50063 10.5003H7.50063V6.00028H8.50063V10.5003Z" fill="#F3BE0F"/>
<path fill-rule="evenodd" clip-rule="evenodd" d="M6.68032 2.89871C7.24668 1.84691 8.75459 1.84691 9.32095 2.89871L14.6471 12.7893C15.1846 13.7884 14.4612 14.9998 13.3268 15.0003H2.67446C1.53975 15 0.816294 13.7885 1.35415 12.7893L6.68032 2.89871ZM8.44106 3.37235C8.25227 3.02178 7.749 3.02178 7.5602 3.37235L2.23501 13.263C2.05573 13.596 2.29636 14 2.67446 14.0003H13.3268C13.7046 13.9998 13.9452 13.5958 13.7663 13.263L8.44106 3.37235Z" fill="#F3BE0F"/>
</svg>
