<svg width="16" height="16" viewBox="0 0 16 16" xmlns="http://www.w3.org/2000/svg">
<path fill-rule="evenodd" clip-rule="evenodd" d="M9.40002 4.5C9.40002 6.15685 8.05688 7.5 6.40002 7.5C4.74317 7.5 3.40002 6.15685 3.40002 4.5C3.40002 2.84315 4.74317 1.5 6.40002 1.5C8.05688 1.5 9.40002 2.84315 9.40002 4.5ZM10.08 14.44L9.93003 13.21C9.84737 13.1795 9.76715 13.1427 9.69003 13.1L9.48003 12.93L8.34003 13.4L7.28003 11.61L8.28003 10.87C8.27547 10.8268 8.27547 10.7832 8.28003 10.74V10.48C8.27547 10.4368 8.27547 10.3932 8.28003 10.35L7.28003 9.60003L8.34003 7.78003L9.48003 8.26003C9.54953 8.2076 9.6231 8.16078 9.70003 8.12003C9.77347 8.07413 9.85037 8.034 9.93003 8.00003L10.08 6.78003H12.19L12.34 8.00003L12.58 8.12003L12.79 8.26003L13.93 7.78003L14.98 9.60003L13.98 10.35V10.48V10.74C13.9841 10.7833 13.9841 10.8268 13.98 10.87L14.98 11.61L13.92 13.43L12.79 12.93L12.57 13.07L12.34 13.18L12.19 14.41L10.08 14.44ZM11.15 11.93C11.4549 11.9168 11.7459 11.7991 11.9742 11.5967C12.2026 11.3944 12.3544 11.1197 12.4043 10.8187C12.4542 10.5176 12.399 10.2086 12.2481 9.94346C12.0972 9.67828 11.8597 9.47305 11.5754 9.36219C11.2912 9.25132 10.9774 9.24157 10.6868 9.33456C10.3962 9.42756 10.1464 9.61764 9.97935 9.87293C9.81226 10.1282 9.73803 10.4332 9.7691 10.7367C9.80018 11.0403 9.93467 11.3239 10.15 11.54C10.2793 11.6725 10.4354 11.7758 10.6079 11.8431C10.7804 11.9103 10.9652 11.94 11.15 11.93ZM5.45 8.17993H7.39C6.8901 8.92172 6.62207 9.79542 6.62 10.6899C6.62206 11.6634 6.94546 12.609 7.54 13.3799H1V12.6399C1.01548 11.4636 1.48897 10.3397 2.3199 9.50686C3.15083 8.67407 4.27371 8.19805 5.45 8.17993Z"/>
</svg>
