<svg width="16" height="16" viewBox="0 0 16 16" fill="none" xmlns="http://www.w3.org/2000/svg">
<path d="M9.32818 1.41614C9.36488 1.12248 9.2036 0.839764 8.93212 0.721918C8.66064 0.604072 8.34397 0.679306 8.15451 0.906662L2.20153 8.05023C2.09866 8.17364 1.99445 8.29863 1.91859 8.40847C1.84684 8.51236 1.71583 8.71661 1.71178 8.98504C1.70715 9.29235 1.84409 9.58473 2.08314 9.77791C2.29195 9.94664 2.53273 9.97676 2.65847 9.98814C2.79141 10.0002 2.95414 10.0002 3.1148 10.0001L7.2448 10.0001L6.6718 14.5841C6.6351 14.8778 6.79638 15.1605 7.06786 15.2783C7.33934 15.3962 7.65601 15.3209 7.84547 15.0936L13.7984 7.95001C13.9013 7.8266 14.0055 7.70161 14.0814 7.59177C14.1531 7.48788 14.2841 7.28363 14.2882 7.0152C14.2928 6.70788 14.1559 6.41551 13.9168 6.22233C13.708 6.05359 13.4673 6.02348 13.3415 6.01209C13.2086 6.00006 13.0458 6.00009 12.8852 6.00012L8.75518 6.00012L9.32818 1.41614Z" fill="url(#paint0_linear_21523_1368)"/>
<defs>
<linearGradient id="paint0_linear_21523_1368" x1="7.33325" y1="-1.33321" x2="10.3333" y2="16.0001" gradientUnits="userSpaceOnUse">
<stop offset="0.302083" stop-color="#33B1FF"/>
<stop offset="0.579057" stop-color="#FF23EF"/>
<stop offset="0.9999" stop-color="#875BF7"/>
<stop offset="1" stop-color="#33B1FF"/>
</linearGradient>
</defs>
</svg>
