<svg width="16" height="16" viewBox="0 0 16 16" xmlns="http://www.w3.org/2000/svg">
<path fill-rule="evenodd" clip-rule="evenodd" d="M11.6666 2.70841C10.7692 2.70841 10.0416 3.43595 10.0416 4.33341C10.0416 5.23088 10.7692 5.95841 11.6666 5.95841C12.5641 5.95841 13.2916 5.23088 13.2916 4.33341C13.2916 3.43595 12.5641 2.70841 11.6666 2.70841ZM9.76616 1.95841C10.2868 1.54126 10.9476 1.29175 11.6666 1.29175C13.3465 1.29175 14.7083 2.65355 14.7083 4.33341C14.7083 6.01328 13.3465 7.37508 11.6666 7.37508C10.9476 7.37508 10.2868 7.12557 9.76616 6.70841H3.66663C2.35495 6.70841 1.29163 5.64509 1.29163 4.33341C1.29163 3.02174 2.35495 1.95841 3.66663 1.95841H9.76616ZM8.77901 3.37508H3.66663C3.13735 3.37508 2.70829 3.80414 2.70829 4.33341C2.70829 4.86269 3.13735 5.29175 3.66663 5.29175H8.77901C8.67906 4.99045 8.62496 4.66825 8.62496 4.33341C8.62496 3.99858 8.67906 3.67638 8.77901 3.37508ZM1.29163 11.6667C1.29163 9.98688 2.65343 8.62508 4.33329 8.62508C5.05234 8.62508 5.71312 8.87459 6.23376 9.29175H12.3333C13.645 9.29175 14.7083 10.3551 14.7083 11.6667C14.7083 12.9784 13.645 14.0417 12.3333 14.0417H6.23376C5.71312 14.4589 5.05234 14.7084 4.33329 14.7084C2.65343 14.7084 1.29163 13.3466 1.29163 11.6667ZM7.22091 12.6251H12.3333C12.8626 12.6251 13.2916 12.196 13.2916 11.6667C13.2916 11.1375 12.8626 10.7084 12.3333 10.7084H7.22091C7.32086 11.0097 7.37496 11.3319 7.37496 11.6667C7.37496 12.0016 7.32086 12.3238 7.22091 12.6251ZM4.33329 10.0417C3.43583 10.0417 2.70829 10.7693 2.70829 11.6667C2.70829 12.5642 3.43583 13.2917 4.33329 13.2917C5.23076 13.2917 5.95829 12.5642 5.95829 11.6667C5.95829 10.7693 5.23076 10.0417 4.33329 10.0417Z"/>
</svg>
