<svg width="16" height="16" viewBox="0 0 16 16" fill="none" xmlns="http://www.w3.org/2000/svg">
  <path fill-rule="evenodd" clip-rule="evenodd" d="M8.93212 0.721918C9.2036 0.839764 9.36488 1.12248 9.32818 1.41614L8.75518 6.00012L12.8852 6.00012C13.0458 6.00009 13.2086 6.00006 13.3415 6.01209C13.4673 6.02348 13.708 6.05359 13.9168 6.22233C14.1559 6.41551 14.2928 6.70788 14.2882 7.0152C14.2841 7.28363 14.1531 7.48788 14.0814 7.59177C14.0055 7.70161 13.9013 7.82661 13.7984 7.95002L7.84547 15.0936C7.65601 15.3209 7.33934 15.3962 7.06786 15.2783C6.79638 15.1605 6.6351 14.8778 6.6718 14.5841L7.2448 10.0001H3.13868C3.13073 10.0001 3.12278 10.0001 3.11482 10.0001C2.95415 10.0002 2.79142 10.0002 2.65847 9.98814C2.53273 9.97676 2.29195 9.94664 2.08314 9.7779C1.84409 9.58473 1.70715 9.29235 1.71178 8.98504C1.71583 8.7166 1.84684 8.51236 1.91859 8.40847C1.99446 8.29863 2.09866 8.17363 2.20154 8.05022C2.20663 8.04411 2.21173 8.038 2.21681 8.0319L8.15451 0.906662C8.34397 0.679306 8.66064 0.604072 8.93212 0.721918ZM3.42335 8.66679H7.99999C8.19121 8.66679 8.37322 8.7489 8.49977 8.89225C8.62633 9.0356 8.68523 9.2264 8.66151 9.41614L8.27688 12.4931L12.5766 7.33345H7.99999C7.80877 7.33345 7.62675 7.25134 7.5002 7.10799C7.37365 6.96463 7.31475 6.77384 7.33847 6.5841L7.7231 3.50709L3.42335 8.66679Z" fill="url(#paint0_linear_13127_2084)"/>
  <defs>
    <linearGradient id="paint0_linear_13127_2084" x1="7.33325" y1="-1.33321" x2="10.3333" y2="16.0001" gradientUnits="userSpaceOnUse">
      <stop offset="0.302083" stop-color="#33B1FF"/>
      <stop offset="0.579057" stop-color="#FF23EF"/>
      <stop offset="0.9999" stop-color="#875BF7"/>
      <stop offset="1" stop-color="#33B1FF"/>
    </linearGradient>
  </defs>
</svg>
