<svg width="16" height="16" viewBox="0 0 16 16" fill="none" xmlns="http://www.w3.org/2000/svg">
<g clip-path="url(#clip0_19027_24608)">
<path d="M11 13.96H15.44L8.33595 8.04004C8.23842 10.1903 9.18504 12.2939 11 13.96Z" fill="#00AD46"/>
<path d="M2.12012 11.0002V15.4402L8.04012 8.33617C7.93918 8.3316 7.83876 8.32935 7.73805 8.32935C5.6938 8.32946 3.70805 9.27048 2.12012 11.0002Z" fill="url(#paint0_radial_19027_24608)"/>
<path d="M0.640015 2.12012L7.74401 8.04012C7.84154 5.88995 6.89492 3.78627 5.08001 2.12012H0.640015Z" fill="#E43921"/>
<path d="M13.9599 0.640015L8.03992 7.74396C10.1901 7.84154 12.2938 6.89486 13.9599 5.07996V0.640015Z" fill="#00C7D4"/>
<path d="M8.03997 8.04004C7.37634 9.76025 7.47659 11.5138 8.33597 13.2201C9.22397 13.664 9.96397 13.96 11 13.96C9.18506 12.2939 8.23844 10.1903 8.33597 8.04004H8.03997Z" fill="#00AD46"/>
<path d="M2.86012 8.33621C2.41618 9.22426 2.12012 9.96421 2.12012 11.0002C3.78622 9.1853 5.8899 8.23873 8.04012 8.33621V8.04021C7.29179 7.75155 6.53734 7.60742 5.78312 7.60742C4.80343 7.60748 3.8242 7.85064 2.86012 8.33621Z" fill="#3166D4"/>
<path d="M7.7442 8.04012H8.0402C8.70377 6.31991 8.60358 4.56634 7.7442 2.86012C6.8562 2.41612 6.11626 2.12012 5.0802 2.12012C6.89511 3.78627 7.84173 5.88995 7.7442 8.04012Z" fill="#E43921"/>
<path d="M8.03992 7.74408V8.04014C9.76013 8.70371 11.5136 8.60346 13.2199 7.74408C13.6639 6.85619 13.9599 6.11619 13.9599 5.08008C12.2938 6.89499 10.1901 7.84167 8.03992 7.74408Z" fill="#11E1EE"/>
<path d="M4.78394 10.2601L8.33594 13.2202C7.47655 11.5139 7.37631 9.76036 8.03994 8.04015C7.93726 8.00592 7.81689 7.9895 7.68393 7.9895C6.66648 7.98956 4.91482 8.95121 4.78394 10.2601Z" fill="url(#paint1_radial_19027_24608)"/>
<path d="M2.86011 8.33594C4.56639 7.47655 6.3199 7.37636 8.04011 8.03994C8.33611 7.15199 7.30011 4.93194 5.82011 4.78394L2.86011 8.33594Z" fill="#0CB6FF"/>
<path d="M8.04002 8.04011C8.92802 8.33611 11.148 7.30011 11.296 5.82011L7.74402 2.86011C8.6034 4.56633 8.70359 6.3199 8.04002 8.04011Z" fill="#FF7557"/>
<path d="M8.04013 8.03995C7.74413 8.92801 8.78013 11.148 10.2601 11.296L13.2201 7.7439C11.5138 8.60328 9.76034 8.70353 8.04013 8.03995Z" fill="#11E1EE"/>
<path d="M8.04011 7.67017C8.24448 7.67017 8.41011 7.8358 8.41011 8.04011C8.41011 8.24453 8.24448 8.41017 8.04011 8.41017C7.8358 8.41017 7.67017 8.24453 7.67017 8.04011C7.67017 7.8358 7.8358 7.67017 8.04011 7.67017Z" fill="black"/>
</g>
<defs>
<radialGradient id="paint0_radial_19027_24608" cx="0" cy="0" r="1" gradientUnits="userSpaceOnUse" gradientTransform="translate(-5.75908 1.87234) rotate(90) scale(592.002 711.082)">
<stop offset="1" stop-color="#3166D4"/>
</radialGradient>
<radialGradient id="paint1_radial_19027_24608" cx="0" cy="0" r="1" gradientUnits="userSpaceOnUse" gradientTransform="translate(4.78394 531.047) scale(355.2 523.063)">
<stop stop-color="#00CD1C"/>
<stop offset="1" stop-color="#00E950"/>
</radialGradient>
<clipPath id="clip0_19027_24608">
<rect width="16" height="16" fill="white"/>
</clipPath>
</defs>
</svg>
