<svg width="16" height="16" viewBox="0 0 16 16" xmlns="http://www.w3.org/2000/svg">
<path fill-rule="evenodd" clip-rule="evenodd" d="M8.65997 5.6001L9.65997 5.07302L10 4.8938L10.34 5.07302L11.34 5.6001V4.46969V1.6001V0.666772C11.6432 0.666982 11.9078 0.668974 12.13 0.687129C12.3936 0.708663 12.6557 0.756207 12.908 0.884737C13.2843 1.07648 13.5902 1.38244 13.782 1.75877C13.9105 2.01102 13.9581 2.27317 13.9796 2.53673C14 2.78644 14 3.08961 14 3.44104V12.6667C14 12.9729 13.9979 13.2396 13.9796 13.4634C13.9581 13.727 13.9105 13.9891 13.782 14.2414C13.5902 14.6177 13.2843 14.9237 12.908 15.1154C12.6557 15.244 12.3936 15.2915 12.13 15.313C11.8803 15.3334 11.5771 15.3334 11.2257 15.3334H5.8391C5.30246 15.3334 4.85956 15.3334 4.49877 15.304C4.12403 15.2733 3.77957 15.2076 3.45601 15.0428C2.95424 14.7871 2.54629 14.3792 2.29063 13.8774C2.12577 13.5538 2.06006 13.2094 2.02945 12.8346C1.99806 12.4505 1.99889 12.0649 1.99972 11.6793C1.99985 11.6176 1.99998 11.5559 1.99998 11.4943V4.50587C1.99997 3.96923 1.99997 3.52633 2.02945 3.16553C2.06006 2.7908 2.12577 2.44633 2.29063 2.12277C2.54629 1.62101 2.95424 1.21306 3.45601 0.957399C3.77957 0.792538 4.12403 0.726829 4.49877 0.696212C4.85955 0.666735 5.30248 0.666741 5.83911 0.666748H5.83912H8.65997V1.6001V4.46969V5.6001ZM12.594 13.6361C12.6108 13.6031 12.6359 13.536 12.6507 13.3549C12.6893 12.8819 12.6813 12.4016 12.6733 11.9238C12.67 11.7264 12.6666 11.5293 12.6666 11.3334H4.66665C3.98909 11.3334 3.42958 11.8388 3.34451 12.4932C3.30012 12.8346 3.35919 13.0376 3.47864 13.2721C3.60647 13.523 3.81045 13.7269 4.06133 13.8548C4.1656 13.9079 4.31506 13.9512 4.60734 13.975C4.9074 13.9996 5.2956 14.0001 5.86665 14.0001H11.2C11.5844 14.0001 11.8325 13.9996 12.0214 13.9841C12.2025 13.9693 12.2697 13.9442 12.3026 13.9274C12.4281 13.8635 12.5301 13.7615 12.594 13.6361Z"/>
</svg>
