<svg width="16" height="16" viewBox="0 0 16 16"
  xmlns="http://www.w3.org/2000/svg">
  <path d="M12.6667 1H4C3.196 1 2 1.5593 2 3.1V12.9C2 14.4407 3.196 15 4 15H14V13.6H4.008C3.7 13.5916 3.33333 13.4635 3.33333 12.9C3.33333 12.8293 3.33933 12.7663 3.34933 12.7089C3.424 12.3064 3.738 12.207 4.00733 12.2H13.3333C13.3453 12.2 13.354 12.1937 13.366 12.193H14V2.4C14 1.6279 13.402 1 12.6667 1ZM12.6667 10.8H3.33333V3.1C3.33333 2.5358 3.7 2.4084 4 2.4H8.66667V7.3L10 6.6L11.3333 7.3V2.4H12.6667V10.8Z"/>
</svg>
