<svg width="20" height="20" viewBox="0 0 20 20" xmlns="http://www.w3.org/2000/svg">
    <path fill-rule="evenodd" clip-rule="evenodd"
        d="M2 10C2 5.584 5.584 2 10 2C14.416 2 18 5.584 18 10V11.144C18 12.72 16.776 14 15.2 14C14.248 14 13.352 13.536 12.832 12.824C12.112 13.552 11.104 14 10 14C7.792 14 6 12.208 6 10C6 7.792 7.792 6 10 6C12.208 6 14 7.792 14 10V11.144C14 11.776 14.568 12.4 15.2 12.4C15.832 12.4 16.4 11.776 16.4 11.144V10C16.4 6.528 13.472 3.6 10 3.6C6.528 3.6 3.6 6.528 3.6 10C3.6 13.472 6.528 16.4 10 16.4H14V18H10C5.584 18 2 14.416 2 10ZM7.6 10C7.6 11.328 8.672 12.4 10 12.4C11.328 12.4 12.4 11.328 12.4 10C12.4 8.672 11.328 7.6 10 7.6C8.672 7.6 7.6 8.672 7.6 10Z" />
</svg>
