<svg width="20" height="20" viewBox="0 0 20 20" xmlns="http://www.w3.org/2000/svg">
  <path fill-rule="evenodd" clip-rule="evenodd"
    d="M2.49984 1.6665C2.96008 1.6665 3.33317 2.0396 3.33317 2.49984V16.1665C3.33317 16.4136 3.33382 16.5488 3.34176 16.646C3.34208 16.6498 3.3424 16.6535 3.34271 16.657C3.34617 16.6573 3.34983 16.6576 3.3537 16.6579C3.45086 16.6659 3.58607 16.6665 3.83317 16.6665H17.4998C17.9601 16.6665 18.3332 17.0396 18.3332 17.4998C18.3332 17.9601 17.9601 18.3332 17.4998 18.3332L3.80658 18.3332C3.59627 18.3332 3.39144 18.3332 3.21798 18.319C3.02749 18.3035 2.80271 18.2668 2.57653 18.1515C2.57652 18.1515 2.57653 18.1515 2.57653 18.1515M2.57653 18.1515C2.26292 17.9917 2.00795 17.7368 1.84816 17.4232C1.73292 17.197 1.69619 16.9722 1.68063 16.7817C1.66646 16.6082 1.66648 16.4034 1.66651 16.1931L1.66651 2.49984C1.66651 2.0396 2.0396 1.6665 2.49984 1.6665M17.2363 6.05838C17.5721 6.37306 17.5893 6.90042 17.2746 7.23627L14.0089 10.7218C14.002 10.7292 13.994 10.7379 13.9851 10.7477C13.8998 10.8409 13.7226 11.0345 13.487 11.1422C13.2893 11.2326 13.0715 11.2699 12.855 11.2504C12.5971 11.2271 12.3656 11.1035 12.2541 11.0439C12.2424 11.0377 12.232 11.0321 12.2231 11.0275L9.62067 9.67622L6.44129 13.0696C6.12662 13.4055 5.59926 13.4226 5.26341 13.108C4.92755 12.7933 4.91038 12.2659 5.22505 11.9301L8.49078 8.44452C8.49768 8.43715 8.50564 8.42846 8.51462 8.41865C8.59993 8.32544 8.77711 8.13186 9.01266 8.02415C9.21033 7.93376 9.42816 7.89647 9.64465 7.91598C9.90261 7.93922 10.1341 8.06286 10.2455 8.12239C10.2573 8.12866 10.2677 8.13421 10.2766 8.13886L12.879 9.49012L16.0584 6.09674C16.3731 5.76088 16.9004 5.74371 17.2363 6.05838Z" />
</svg>