<svg width="16" height="16" viewBox="0 0 16 16" fill="none" xmlns="http://www.w3.org/2000/svg">
<g clip-path="url(#clip0_3335_25971)">
<path d="M9.92288 15.0664C9.7317 15.064 9.54081 15.0634 9.34977 15.0634L8.85678 15.0639C8.85678 15.0639 7.44662 15.0633 6.77263 15.0633C6.6668 15.0633 6.56068 15.0637 6.45471 15.064C6.34859 15.0643 6.24262 15.0647 6.13651 15.0647C6.0701 15.0647 6.00397 15.0646 5.9377 15.0641C5.53669 15.0617 5.15335 15.0136 4.79841 14.9206C3.38514 14.5508 2.31495 13.7123 1.6175 12.4289C1.28319 11.8137 1.09314 11.1255 1.05301 10.3839C1.03521 10.0541 1.05203 9.71614 1.10318 9.37957C1.10925 9.33944 1.1166 9.29931 1.12395 9.2589L1.1402 9.16706L1.16775 9.19419C1.1823 9.2086 1.18682 9.22358 1.19022 9.23488C1.20392 9.27981 1.21678 9.32517 1.22978 9.37024C1.25663 9.46421 1.2846 9.56142 1.31738 9.65468C1.55773 10.3403 1.92271 10.9825 2.43308 11.619C2.45328 11.6442 2.46854 11.672 2.4773 11.699C2.65039 12.2318 2.95122 12.692 3.37116 13.0682C3.77965 13.4338 4.26939 13.7077 4.82879 13.8836C4.47003 13.73 4.13798 13.5337 3.83928 13.2982C3.35208 12.914 3.00095 12.4439 2.79607 11.9008C2.77558 11.8462 2.75834 11.7804 2.78604 11.7075C2.79522 11.6826 2.80172 11.6569 2.80836 11.631C2.81289 11.6132 2.81727 11.5954 2.82278 11.5777C2.93313 11.217 3.10071 10.9341 3.33512 10.7134C3.55343 10.5077 3.83151 10.3572 4.18532 10.2532C4.51567 10.156 4.86044 10.1122 5.19376 10.0698L5.33662 10.0514C5.52327 10.027 5.71247 9.99817 5.89531 9.96991L6.00538 9.95296C6.04636 9.94674 6.08705 9.93784 6.12916 9.92866L6.23188 9.90718L6.20489 9.9531C6.20277 9.95706 6.20108 9.96031 6.19811 9.9637C6.02502 10.1576 5.87977 10.373 5.76645 10.6049C5.75684 10.6246 5.73621 10.6426 5.71643 10.649C5.69184 10.657 5.6674 10.665 5.64295 10.6732C5.5651 10.6993 5.48484 10.7256 5.40317 10.7418C5.31528 10.7593 5.22527 10.7721 5.13809 10.7842C5.06829 10.7941 4.99849 10.8039 4.92911 10.8166C4.69554 10.8581 4.51482 10.9331 4.37819 11.0477C4.40814 11.0405 4.43909 11.036 4.46947 11.0316C4.51186 11.0256 4.55538 11.0191 4.59508 11.0053C4.81042 10.9305 5.04667 10.8957 5.33874 10.8957L5.37816 10.8958C5.43058 10.8964 5.48286 10.8988 5.53599 10.9014L5.63857 10.9056L5.63094 10.9309C5.4214 11.6155 5.42733 12.2872 5.64775 12.9312C5.55549 12.4945 5.53867 12.0888 5.59576 11.6967C5.68308 11.0975 5.94702 10.581 6.38081 10.1618C6.6733 9.87906 7.04025 9.64168 7.50244 9.43651C7.90387 9.25805 8.32211 9.15095 8.71605 9.05628L8.79051 9.03833C9.07141 8.97079 9.36192 8.90099 9.64339 8.81833C10.0654 8.6947 10.4323 8.49137 10.7336 8.21301C10.7787 8.17133 10.83 8.12399 10.8704 8.07171C11.1582 7.69868 11.4938 7.43403 11.896 7.2625C11.9076 7.25755 11.9207 7.24526 11.9292 7.23127C12.0607 7.0165 12.2186 6.85838 12.4117 6.74746C12.4548 6.72274 12.4978 6.7103 12.5394 6.7103C12.5923 6.7103 12.6451 6.73065 12.6967 6.76979C12.7162 6.78477 12.734 6.80045 12.7497 6.81642C12.8174 6.88438 12.8716 6.96803 12.9208 7.07909C12.9269 7.09237 12.9324 7.09661 12.9472 7.09845C12.9963 7.10495 13.0468 7.11159 13.097 7.12148C13.9182 7.28397 14.4901 7.91586 14.5894 8.77086C14.5921 8.79361 14.5939 8.81664 14.5958 8.83953C14.6001 8.89379 14.6045 8.94974 14.6208 9.00018C14.6411 9.06391 14.6718 9.12665 14.7017 9.18684C14.7149 9.21354 14.7283 9.24081 14.7407 9.26809C14.7513 9.29154 14.7625 9.31471 14.7735 9.33789C14.7997 9.39285 14.8264 9.44895 14.8485 9.50646C14.8826 9.5942 14.8865 9.68492 14.8604 9.77605C14.8491 9.81519 14.8254 9.82099 14.8122 9.82099C14.8022 9.82099 14.7915 9.81774 14.7806 9.81095C14.758 9.7964 14.7369 9.78029 14.7159 9.76362C14.706 9.75542 14.6958 9.74794 14.6856 9.7403C14.6743 9.73154 14.6632 9.72293 14.6521 9.71374C14.6257 9.69311 14.601 9.67305 14.5734 9.65793C14.5635 9.65242 14.5532 9.64931 14.5432 9.64931C14.5327 9.64931 14.5227 9.65242 14.5134 9.65849L14.5521 9.69311C14.6212 9.75443 14.6901 9.8159 14.758 9.87821C14.7722 9.89121 14.7817 9.91509 14.7804 9.93473C14.7724 10.063 14.7276 10.1694 14.6469 10.2514C14.5508 10.3486 14.4501 10.3958 14.3392 10.3958C14.3154 10.3958 14.2913 10.3935 14.2667 10.3891C14.2622 10.4322 14.253 10.4484 14.2171 10.4676C13.9902 10.5906 13.7689 10.6505 13.541 10.6505L13.5054 10.6503C13.3501 10.6503 13.1989 10.6944 13.0293 10.7889C12.971 10.8212 12.9194 10.8434 12.8712 10.8561C12.7255 10.8949 12.5784 10.9094 12.4455 10.9156C12.5026 10.9235 12.5622 10.9274 12.6262 10.9274C12.667 10.9274 12.7091 10.9257 12.7546 10.9227L12.7806 10.92C12.7999 10.9182 12.8194 10.9165 12.838 10.9165C12.863 10.9165 12.8836 10.9196 12.901 10.9268C13.0199 10.9754 13.136 11.0342 13.2448 11.0898C13.2661 11.1009 13.2815 11.1054 13.2958 11.1054C13.3037 11.1054 13.3114 11.1038 13.3194 11.1009L13.3512 11.089C13.4107 11.0665 13.4722 11.0434 13.5308 11.0174C13.6703 10.9553 13.7905 10.9261 13.9092 10.9261C13.941 10.9261 13.9728 10.9285 14.0043 10.9327C14.0857 10.9437 14.1806 10.9624 14.2662 11.0151C14.3085 11.0411 14.3649 11.0845 14.3701 11.1654C14.3704 11.1669 14.3732 11.1717 14.3799 11.1779C14.3902 11.1873 14.4009 11.1964 14.4119 11.2054C14.4229 11.2145 14.4343 11.2239 14.4449 11.234C14.5113 11.2949 14.5405 11.372 14.5323 11.4634C14.5298 11.489 14.5241 11.5489 14.4728 11.5489C14.4573 11.5489 14.4391 11.5433 14.4138 11.5304C14.4032 11.5249 14.3934 11.5205 14.3845 11.518C14.4095 11.5332 14.4338 11.5486 14.4577 11.5649C14.5144 11.6035 14.5421 11.6625 14.5394 11.7404C14.534 11.9099 14.3554 12.0705 14.1719 12.0705C14.1501 12.0705 14.1286 12.0678 14.1081 12.0634C14.054 12.0515 13.9868 12.0289 13.9462 11.9585C13.9449 11.9566 13.9403 11.9535 13.9393 11.9532L13.9082 11.9546C13.8713 11.956 13.8335 11.9576 13.7983 11.9656L13.788 11.968C13.7282 11.9819 13.6666 11.9956 13.6036 11.9956C13.5784 11.9956 13.5548 11.9933 13.5319 11.9889C13.5038 11.9837 13.476 11.9768 13.4474 11.9697L13.4268 11.9648C13.3942 12.0706 13.3415 12.1699 13.2701 12.2606C13.1103 12.4638 12.8972 12.6071 12.6191 12.6982C12.4175 12.7647 12.2007 12.7979 11.9745 12.7979C11.8557 12.7979 11.7309 12.789 11.6039 12.7709C11.1029 12.6992 10.7531 12.4268 10.5641 11.9614C10.5323 11.8834 10.511 11.8006 10.49 11.7203C10.48 11.6816 10.4697 11.642 10.4584 11.6035C10.3991 11.4015 10.3243 11.2235 10.2296 11.0582C10.0578 10.7582 9.84531 10.5444 9.57981 10.4047C9.36758 10.2929 9.13528 10.2363 8.8897 10.2363C8.78684 10.2363 8.67931 10.246 8.56981 10.2657C8.54762 10.2696 8.52558 10.2744 8.50311 10.2792C8.5804 10.2827 8.65388 10.287 8.72806 10.2942C9.07156 10.329 9.38439 10.4345 9.6578 10.6077C10.0298 10.8438 10.2582 11.1372 10.3554 11.5043C10.4098 11.7094 10.4875 11.9138 10.5863 12.1117C10.6434 12.2264 10.716 12.3593 10.8205 12.4715C10.9683 12.6296 11.1588 12.7377 11.4198 12.811C11.4911 12.8312 11.5621 12.8531 11.6326 12.8757C11.6716 12.8883 11.6987 12.9153 11.7155 12.9587C11.7564 13.0646 11.7665 13.1727 11.7456 13.2794C11.715 13.4361 11.6405 13.5812 11.5177 13.7229C11.4208 13.8347 11.3004 13.916 11.184 13.9947C11.1255 14.0338 11.0705 14.0755 11.0205 14.1183C10.9777 14.155 10.9555 14.2031 10.9579 14.2537C10.9616 14.337 10.9678 14.3401 10.9833 14.3401C10.9963 14.3401 11.0168 14.3352 11.0499 14.3244C11.0661 14.3191 11.0822 14.3126 11.0982 14.3055L11.1951 14.2637C11.2505 14.2398 11.3058 14.2158 11.3616 14.1926C11.4825 14.1422 11.6022 14.1163 11.7169 14.1163C11.7783 14.1163 11.8396 14.1237 11.8994 14.1379C12.1141 14.1894 12.2551 14.317 12.3185 14.5175C12.3354 14.5717 12.333 14.6181 12.3107 14.6558C12.296 14.6808 12.2624 14.7017 12.2344 14.7026C12.2084 14.7026 12.1841 14.6795 12.1654 14.659C12.155 14.6476 12.1524 14.6326 12.1504 14.6196C12.1496 14.6154 12.1489 14.6109 12.1479 14.6069C12.1288 14.5355 12.1024 14.4889 12.0626 14.4577C12.1338 14.5545 12.1657 14.6579 12.1599 14.7728C12.154 14.8868 12.0686 14.9662 11.9521 14.9662C11.9473 14.9662 11.9426 14.9661 11.9375 14.9658C11.8933 14.9631 11.8652 14.9392 11.8605 14.9C11.8574 14.8728 11.8574 14.8449 11.8573 14.818C11.8573 14.8068 11.8573 14.7955 11.857 14.7845C11.8567 14.7698 11.8568 14.7555 11.857 14.7409C11.857 14.7095 11.8571 14.68 11.8532 14.6508C11.8444 14.5881 11.8071 14.5457 11.7422 14.525C11.7377 14.5233 11.7332 14.5221 11.7284 14.5217C11.748 14.5329 11.765 14.5483 11.777 14.5706C11.801 14.6151 11.8215 14.6557 11.8327 14.6993C11.8615 14.8153 11.8331 14.9057 11.7506 14.9611C11.7078 14.9895 11.6529 15.0001 11.6046 15.0069C11.585 15.0097 11.5658 15.0106 11.5464 15.0106C11.4742 15.0106 11.4035 14.9936 11.3354 14.9775L11.3008 14.9692C11.2362 14.9544 11.179 14.9469 11.1241 14.9467C11.0771 14.9467 11.0284 14.9558 10.9812 14.9645L10.9593 14.9685C10.6014 15.0329 10.2797 15.0641 9.97601 15.0641L9.92288 15.0664Z" fill="#E65270"/>
<path opacity="0.2" d="M12.836 10.8896C12.836 10.8896 12.3083 11.5192 11.412 11.1585C10.5911 10.8277 10.8904 9.91731 10.8904 9.91731C10.8904 9.91731 11.0359 10.4819 11.4606 10.6959C12.0756 11.0057 12.836 10.8896 12.836 10.8896Z" fill="#430A1D"/>
<path opacity="0.2" d="M10.2358 11.159C10.3501 11.2752 10.3522 11.394 10.3881 11.5389C10.4558 11.8113 10.539 12.0478 10.7125 12.2719C10.8794 12.4872 11.079 12.6396 11.3369 12.7386C11.5603 12.8242 11.8476 12.799 11.8047 13.1316L11.7299 13.4116C11.159 13.4116 10.6242 13.1511 10.4063 12.5845C10.2153 12.0874 10.4404 11.4867 9.86133 10.6463C9.90767 10.7031 10.1766 11.0986 10.2358 11.159Z" fill="#430A1D"/>
<g opacity="0.2">
<path d="M10.0096 10.9121C10.0184 10.9474 10.0263 10.9833 10.0343 11.019C10.013 10.9929 10.002 10.9596 10.0096 10.9121Z" fill="#2B2B2B"/>
</g>
<path d="M3.35784 13.084C1.20431 12.8712 0.950825 10.7276 0.950825 10.7276C0.950825 10.7276 0.83383 9.73394 1.10682 8.75926C1.28217 10.5326 2.70476 11.7603 2.70476 11.7603C2.70476 11.7603 3.01731 12.7707 3.35784 13.084Z" fill="url(#paint0_linear_3335_25971)"/>
<path opacity="0.2" d="M2.82083 12.2676C2.82083 12.2676 2.36924 12.3106 1.7666 11.5791C2.34762 12.6333 3.1006 12.6548 3.1006 12.6548L2.82083 12.2676Z" fill="#2B2B2B"/>
<path d="M3.98488 13.4985C3.87199 11.5161 5.03586 12.436 5.63666 11.3847C5.80551 10.4649 6.31235 9.88299 6.31235 9.88299C6.31235 9.88299 2.70839 9.2073 2.65173 11.8353C2.77721 12.4043 3.32884 12.9545 3.67417 13.2523C3.60663 13.0999 2.74626 10.7325 5.61151 10.9255C4.62256 10.8413 3.1946 11.8745 3.87524 13.4222C3.94348 13.472 3.98488 13.4985 3.98488 13.4985Z" fill="url(#paint1_linear_3335_25971)"/>
<path opacity="0.2" d="M4.95903 10.6396C4.21411 10.9197 2.94906 10.9184 3.30909 12.8193C3.25144 12.8625 2.96348 12.416 3.0354 12.4594C2.70419 10.7599 4.19178 10.8581 4.95903 10.6396Z" fill="white"/>
<path opacity="0.6" d="M5.90242 9.95889C6.62686 9.67234 6.03864 10.4848 5.93577 10.6148C5.69796 10.9155 5.09632 10.8177 4.77571 10.918C4.59132 10.9757 3.85218 11.0841 3.60731 11.7839C3.49851 12.0939 3.45754 12.6007 3.68941 13.2175C3.6319 13.261 3.25082 12.8436 3.32288 12.8866C2.71134 10.1553 5.59581 11.1356 5.90242 9.95889Z" fill="#8B4FBA"/>
<path d="M13.1047 8.84359C13.1243 8.78933 13.1581 8.71996 13.2006 8.67898C13.2105 8.68364 13.2211 8.68421 13.2291 8.68929C13.2998 8.64351 13.4114 8.64959 13.5001 8.64959C13.5533 8.64959 13.6307 8.63489 13.682 8.65482C13.7566 8.68378 13.7481 8.76234 13.7794 8.82183C13.8378 8.93289 14.0181 8.9343 14.0189 9.09129C14.0194 9.16519 14.0379 9.26537 14.019 9.33771C14.0049 9.3914 13.9448 9.37501 13.8931 9.37501C13.7364 9.37501 13.5801 9.37939 13.4231 9.37939L13.2061 9.21761C13.1482 9.23612 13.1028 9.1146 13.0949 9.07334C13.0819 9.00524 13.0802 8.91099 13.1047 8.84359Z" fill="#F9E0E7"/>
<path d="M13.8289 9.05897C13.8554 9.04809 13.8946 9.00556 13.9109 8.98055C13.9228 8.9626 13.9194 8.95116 13.9449 8.95186C14.0111 8.9537 14.0117 9.04314 14.0083 9.08935C14.0043 9.14841 13.9805 9.20267 13.9718 9.26074C13.9504 9.25537 13.9385 9.22838 13.9143 9.2216C13.8951 9.21595 13.8676 9.21864 13.8475 9.21948C13.8181 9.22075 13.7774 9.24054 13.7509 9.22923L13.8289 9.05897Z" fill="white"/>
<path d="M5.2455 6.15353C5.25539 6.14209 5.25794 6.1387 5.26105 6.13545C5.54859 5.86698 5.70105 5.52815 5.783 5.14933C5.83684 4.90135 5.76817 4.68262 5.65654 4.46883C5.65456 4.4653 5.65103 4.46177 5.64721 4.45696C5.62489 4.52676 5.60454 4.59529 5.5808 4.66269C5.52245 4.82886 5.4518 4.98966 5.33961 5.12728C5.29482 5.18211 3.41611 6.22277 3.60955 8.52749C3.61082 8.54176 3.61322 8.55532 3.6152 8.57129C3.64996 8.53893 3.68034 8.50544 3.71524 8.47789C3.84029 8.38011 3.9847 8.3178 4.13532 8.27569C4.41099 8.19883 4.6885 8.12818 4.9663 8.06021C5.28238 7.98278 5.6003 7.911 5.90522 7.79429C6.07761 7.72844 6.23784 7.64169 6.39087 7.53713C6.61892 7.38113 6.81575 7.19434 6.98531 6.97815C7.08408 6.85225 7.13014 6.75617 7.17465 6.60823C7.20277 6.68439 7.18807 6.89662 7.14568 7.03198C7.10188 7.17187 7.02742 7.29395 6.93034 7.406C6.95366 7.39851 6.97909 7.3947 6.99986 7.38283C7.26861 7.22966 7.5067 7.04103 7.68248 6.78245C7.80032 6.60922 7.8721 6.4196 7.88213 6.2085C7.88227 6.20553 7.88354 6.20256 7.88453 6.1979C7.94049 6.45676 7.93243 6.89761 7.64051 7.21101C7.74366 7.17455 7.83691 7.13796 7.93243 7.10956C8.01142 7.0861 8.06356 7.0399 8.10722 6.97052C8.29882 6.66729 8.45764 6.34937 8.54355 5.99881C8.60996 5.72808 8.62649 5.45622 8.55203 5.18423C8.46753 4.87676 8.28186 4.64009 8.02922 4.45202C7.85373 4.32132 7.66015 4.22439 7.45696 4.14498C7.44467 4.14017 7.43238 4.13579 7.42037 4.13042C7.41839 4.12972 7.4174 4.12746 7.40963 4.11898C7.48 4.13834 7.54316 4.15473 7.60547 4.17324C7.89654 4.25971 8.17547 4.37247 8.42246 4.55305C8.64288 4.71413 8.81159 4.91505 8.89595 5.17928C8.97126 5.41581 8.96476 5.65489 8.91064 5.89397C8.83151 6.24255 8.66916 6.55312 8.47134 6.84717C8.46527 6.85635 8.45933 6.86539 8.45354 6.87444C8.45269 6.87585 8.45283 6.87811 8.4517 6.8832C8.4599 6.88023 8.4664 6.87811 8.47233 6.87486C8.88648 6.66305 9.2547 6.39219 9.54804 6.0282C9.8329 5.67495 10.0402 5.28158 10.1387 4.83592C10.2626 4.27356 10.1267 3.77421 9.76239 3.33378C9.53221 3.055 9.24764 2.84418 8.93254 2.67236C8.52603 2.45109 8.09351 2.3064 7.63585 2.23985C7.37558 2.20184 7.11502 2.19463 6.85489 2.24465C6.7119 2.27178 6.61921 2.30937 6.46067 2.40093C6.48073 2.38383 6.49981 2.36575 6.52086 2.35035C6.66315 2.24225 6.8272 2.18644 6.99944 2.15154C7.2843 2.09389 7.57156 2.0946 7.85882 2.12808C8.30362 2.18008 8.72766 2.30329 9.12923 2.50196C9.16851 2.52174 9.20737 2.54195 9.25075 2.56427C9.25075 2.52782 9.24863 2.49602 9.25131 2.46451C9.25499 2.41591 9.27943 2.38807 9.31772 2.38355C9.35418 2.37903 9.37565 2.39273 9.38272 2.42862C9.38851 2.459 9.39007 2.49023 9.39445 2.52075C9.40434 2.59027 9.43655 2.64919 9.48431 2.70034C9.48898 2.70557 9.49477 2.71009 9.50056 2.71405C9.50325 2.71617 9.50706 2.71603 9.51724 2.718C9.51724 2.69299 9.51738 2.66996 9.51724 2.64707C9.51653 2.60058 9.51469 2.55396 9.51568 2.50747C9.5161 2.49602 9.52416 2.47766 9.53207 2.47539C9.54295 2.47243 9.56273 2.47794 9.56952 2.48656C9.58774 2.51058 9.60738 2.53658 9.61572 2.56512C9.63395 2.62559 9.64214 2.6889 9.66108 2.74895C9.67351 2.78781 9.69329 2.82624 9.71802 2.85845C9.74515 2.89378 9.77256 2.88601 9.78288 2.84277C9.79248 2.80236 9.79602 2.76039 9.80209 2.71913C9.80421 2.70486 9.80464 2.69017 9.80902 2.67689C9.81255 2.66544 9.82089 2.65597 9.8271 2.64538C9.83643 2.654 9.85013 2.66035 9.85423 2.67109C9.8637 2.69511 9.87302 2.72097 9.87415 2.74626C9.87712 2.80222 9.87189 2.8586 9.87599 2.91427C9.87811 2.94394 9.888 2.97559 9.90256 3.00131C9.91866 3.02999 9.94452 3.0266 9.95342 2.99452C9.96628 2.94874 9.97264 2.90141 9.98197 2.85464C9.98832 2.82299 9.99496 2.79148 10.0027 2.75276C10.0402 2.7847 10.0492 2.82016 10.0529 2.8545C10.0625 2.94592 10.0672 3.03776 10.0752 3.12932C10.0814 3.19799 10.105 3.25833 10.1456 3.31697C10.2192 3.42365 10.2843 3.53655 10.3502 3.64845C10.3841 3.70582 10.4155 3.71105 10.4471 3.65199C10.483 3.58487 10.5097 3.51323 10.5401 3.44301C10.5534 3.41234 10.5645 3.38112 10.5785 3.35088C10.585 3.33618 10.596 3.32375 10.6061 3.30849C10.6421 3.33463 10.6507 3.36882 10.6438 3.40274C10.6335 3.45374 10.6147 3.50334 10.6014 3.55378C10.5871 3.60889 10.5719 3.66385 10.5633 3.72009C10.56 3.7427 10.5702 3.76983 10.5805 3.79173C10.5951 3.82352 10.6182 3.82734 10.6431 3.80247C10.6684 3.77732 10.688 3.74666 10.7126 3.72108C10.7266 3.70639 10.7458 3.69748 10.7626 3.6859C10.7721 3.70653 10.7913 3.728 10.7896 3.74779C10.7861 3.78975 10.7761 3.83257 10.7607 3.87185C10.7293 3.95168 10.687 4.0277 10.6601 4.10866C10.6406 4.16744 10.6369 4.23173 10.6305 4.29405C10.6288 4.30931 10.6415 4.33629 10.6536 4.34067C10.6661 4.34505 10.691 4.33262 10.7022 4.32033C10.7535 4.26409 10.8016 4.2046 10.8519 4.14681C10.8642 4.1324 10.8806 4.12223 10.895 4.10979C10.9 4.11234 10.9046 4.11431 10.9096 4.117C10.9048 4.14964 10.9061 4.18496 10.8942 4.21534C10.874 4.26579 10.849 4.31538 10.8201 4.3613C10.7745 4.43435 10.7224 4.50288 10.6756 4.57495C10.5891 4.70819 10.5319 4.85373 10.496 5.00859C10.4702 5.11993 10.4334 5.22888 10.4012 5.33838C10.3974 5.35195 10.3926 5.36509 10.392 5.38021C10.4201 5.33541 10.4475 5.28963 10.4767 5.24498C10.5376 5.15116 10.6078 5.06497 10.7022 5.0028C10.7496 4.97171 10.8006 4.94374 10.8538 4.92424C11.1269 4.82377 11.403 4.73038 11.6634 4.59939C11.7375 4.56166 11.8082 4.51631 11.8756 4.46714C11.9608 4.40525 11.9924 4.31891 11.9669 4.21435C11.9491 4.14173 11.9313 4.06924 11.9128 3.99365C11.8687 4.06401 11.8299 4.13183 11.7854 4.19542C11.7408 4.259 11.6859 4.31298 11.6041 4.34929C11.6114 4.3353 11.6135 4.32923 11.6172 4.32428C11.7319 4.16617 11.7981 3.98644 11.8492 3.80035C11.8545 3.78113 11.8485 3.75796 11.8451 3.73719C11.8217 3.60154 11.833 3.46561 11.839 3.32954C11.8405 3.30255 11.8405 3.27444 11.8366 3.24759C11.8351 3.23516 11.8249 3.21961 11.8143 3.21495C11.8071 3.2117 11.7883 3.22159 11.782 3.23021C11.7557 3.26723 11.7263 3.30354 11.7086 3.34438C11.6376 3.50956 11.5695 3.67615 11.5016 3.84231C11.4171 4.04988 11.3219 4.25137 11.1768 4.42461C11.1112 4.50303 11.0365 4.57127 10.9448 4.61889C10.9273 4.62779 10.9086 4.635 10.889 4.64122C11.031 4.49441 11.0629 4.3086 11.0693 4.11855C11.0776 3.87524 11.0728 3.63136 11.0752 3.38776C11.0777 3.12438 11.0995 2.86326 11.1781 2.60949C11.181 2.59945 11.1761 2.58476 11.1706 2.57473C11.1484 2.53149 11.1203 2.49108 11.1019 2.44643C11.0633 2.35275 11.0311 2.25666 10.9934 2.16242C10.9713 2.10703 10.9638 2.10293 10.9045 2.10717C10.8406 2.11169 10.8025 2.0751 10.7686 2.02974C10.7427 1.9954 10.7321 1.99625 10.7143 2.03652C10.695 2.08032 10.6797 2.1254 10.6588 2.16849C10.6516 2.18319 10.6332 2.1928 10.6199 2.20467C10.6098 2.18969 10.5928 2.17499 10.5911 2.15903C10.5856 2.10689 10.587 2.05432 10.5833 2.00204C10.5816 1.97605 10.5781 1.94976 10.5693 1.92546C10.5651 1.91402 10.5476 1.90158 10.535 1.90059C10.526 1.89989 10.5103 1.91529 10.5065 1.92687C10.4936 1.96404 10.486 2.00275 10.4742 2.0402C10.4648 2.07029 10.4514 2.07354 10.4334 2.04896C10.3027 1.87092 10.1284 1.74474 9.94198 1.63255C9.88701 1.59949 9.8329 1.56487 9.77821 1.53152C9.7744 1.53279 9.77058 1.53421 9.76705 1.5352C9.77397 1.59581 9.78118 1.65629 9.7881 1.71676C9.78316 1.71945 9.77821 1.72171 9.77341 1.72425C9.75617 1.70956 9.73639 1.69741 9.72198 1.68017C9.68566 1.63735 9.65288 1.59186 9.61614 1.54918C9.54352 1.46384 9.45196 1.4028 9.36393 1.38259C9.39176 1.47797 9.41833 1.56826 9.44461 1.65883C9.44051 1.66095 9.43599 1.66265 9.43189 1.66448C9.42271 1.65318 9.41211 1.64272 9.40462 1.63043C9.38328 1.59581 9.36223 1.56134 9.34273 1.52573C9.2588 1.37383 9.12937 1.28623 8.95953 1.26178C8.84395 1.24511 8.72709 1.23409 8.61066 1.22618C8.52518 1.22024 8.44337 1.20767 8.36509 1.17022C8.31026 1.14549 8.25148 1.12854 8.19383 1.10932C8.18409 1.10593 8.17137 1.11003 8.16006 1.11073C8.16091 1.12303 8.15837 1.1373 8.16331 1.14747C8.19044 1.2006 8.21997 1.25246 8.24725 1.30559C8.25728 1.32466 8.26378 1.34571 8.27169 1.36592C8.26901 1.36889 8.26646 1.37157 8.26392 1.37454C8.24654 1.36875 8.22845 1.36479 8.2122 1.35688C8.13703 1.32042 8.06073 1.28609 7.9881 1.24511C7.91406 1.20328 7.83268 1.19989 7.75242 1.19311C7.50161 1.17206 7.25392 1.18887 7.01159 1.26221C6.86422 1.30657 6.72801 1.37355 6.60818 1.47712C6.6233 1.47557 6.63885 1.47557 6.65354 1.47288C6.79993 1.44279 6.94631 1.41453 7.09694 1.41947C7.19938 1.42272 7.29927 1.43911 7.38942 1.49111C7.40369 1.49931 7.41288 1.51654 7.42447 1.5294C7.40426 1.53647 7.38306 1.55003 7.36371 1.54749C7.31694 1.54198 7.27116 1.5246 7.2241 1.52078C7.07405 1.50736 6.92964 1.54198 6.78679 1.5814C6.44089 1.67635 6.12763 1.83786 5.8367 2.04571C5.76576 2.09615 5.69215 2.14292 5.61853 2.18983C5.47497 2.28111 5.35868 2.39909 5.26684 2.54195C5.2561 2.5589 5.24607 2.57713 5.23929 2.59592C5.22049 2.6482 5.23434 2.69186 5.28379 2.71786C5.31898 2.73651 5.35826 2.7498 5.39726 2.75926C5.91427 2.8853 6.29931 3.31146 6.35893 3.83864C6.3814 4.03632 6.40895 4.23456 6.39906 4.43506C6.37631 4.89527 6.21142 5.29627 5.90424 5.63878C5.72154 5.84253 5.50549 6.0046 5.2691 6.14096C5.26444 6.14421 5.25935 6.14633 5.2455 6.15353Z" fill="url(#paint2_linear_3335_25971)"/>
<path opacity="0.2" d="M11.8706 3.09852C11.651 4.8136 10.8898 4.42546 10.3919 5.38289C10.3646 5.34672 10.3019 5.63949 10.4274 5.09592C10.553 4.55178 10.9129 4.79749 11.2536 4.17522C11.6849 3.38861 11.5987 3.3181 11.8706 3.09852Z" fill="#8B4FBA"/>
<path opacity="0.3" d="M9.59666 3.13055C9.51499 3.62142 8.82094 3.59924 8.22706 3.39096C7.58161 3.1646 6.24083 3.09198 6.13288 3.362C6.07904 3.42389 5.97095 3.16941 5.97095 3.16941C5.97095 3.16941 6.98928 2.05838 8.69405 3.23101C8.62467 3.12306 9.30672 2.80712 9.30672 2.80712C9.30672 2.80712 9.51188 2.74481 9.59666 3.13055Z" fill="white"/>
<path opacity="0.2" d="M6.06433 7.84389C6.10135 7.93574 6.40288 7.87385 6.43114 7.73043C5.98633 7.22656 7.15741 6.30063 6.07733 5.09211C6.78424 6.95654 5.27941 7.03242 6.06433 7.84389Z" fill="#8B4FBA"/>
<path opacity="0.6" d="M6.06433 7.84385C6.10135 7.93569 6.09471 7.90941 6.12297 7.76599C5.67816 7.26198 6.86295 6.52709 6.07733 5.09206C6.78424 6.95649 5.27941 7.03237 6.06433 7.84385Z" fill="#8B4FBA"/>
<path d="M7.68528 7.47607C9.82284 5.22675 7.12051 5.60345 6.2398 4.07672C6.24135 4.05044 6.24319 4.025 6.24319 3.99802C6.24319 3.78579 6.19176 3.58599 6.10217 3.4088C6.92651 4.63146 9.01631 3.55335 8.61036 6.05278C8.57376 6.18136 8.28297 7.44796 7.68528 7.47607Z" fill="url(#paint3_linear_3335_25971)"/>
<path d="M7.68523 7.47595C6.80508 7.9079 6.03571 7.92048 6.07217 7.79232C7.82074 6.60584 6.40916 5.38318 6.08008 4.23146C6.10255 4.13848 6.24314 4.10387 6.24314 3.99832C6.24314 3.98701 6.24187 3.97627 6.24158 3.96511C6.26702 4.07942 6.32721 4.11913 6.38486 4.17706C7.19761 4.99687 9.78111 5.27085 7.68523 7.47595Z" fill="url(#paint4_linear_3335_25971)"/>
<path d="M7.40967 7.44226C8.76331 5.42056 6.23633 5.03652 6.2547 4.39559C6.05335 5.7139 8.47548 6.27825 6.19973 7.85612C6.16328 7.98414 6.52952 7.87421 7.40967 7.44226Z" fill="#E65271"/>
<path d="M11.1919 3.9304C11.2994 4.10999 11.18 4.32194 11.0548 4.52046C10.9392 4.70387 10.6601 4.64381 10.4708 5.08594L10.4871 4.74145C10.6969 4.37591 10.3419 3.87275 10.2432 3.53264C10.075 2.95332 9.89219 2.41879 10.115 1.83099C10.1301 1.79157 10.143 1.74833 10.1583 1.70778C10.2693 1.78987 10.3532 1.87168 10.4489 1.99645C10.5121 2.07925 10.49 1.78281 10.5731 1.84512C10.6341 1.89019 10.5701 2.09988 10.6284 2.14834C10.6936 2.20345 10.7329 1.8844 10.7802 1.95505C10.8906 2.12093 10.9539 2.01567 11.001 2.0654C11.0435 2.11048 11.143 2.45793 11.1831 2.50498C11.2224 2.55062 11.2598 2.59767 11.2968 2.64501C11.2745 2.89793 11.2253 3.18222 11.144 3.41042C11.0672 3.62604 11.0636 3.71591 11.1919 3.9304Z" fill="url(#paint5_linear_3335_25971)"/>
<path d="M8.18304 1.28962C8.18954 1.29203 8.19519 1.29302 8.19858 1.29288C8.25778 1.29189 8.03905 1.01678 8.10193 1.01678C8.20805 1.01678 8.35796 1.12643 8.46182 1.13448C8.68111 1.15129 8.90846 1.14635 9.10275 1.23523C9.28898 1.32057 9.37178 1.5855 9.41346 1.59667C9.45543 1.60825 9.31215 1.29047 9.35327 1.3046C9.42293 1.32806 9.4786 1.36254 9.52452 1.40069C9.70821 1.66364 9.76784 2.96684 9.49838 2.93321C9.21522 2.89788 9.94503 3.03325 9.94799 3.02237C10.192 2.10096 9.6483 1.53435 9.67289 1.56629C9.70496 1.60868 9.73096 1.6416 9.75851 1.6522C9.81659 1.67452 9.72248 1.43008 9.77547 1.46243C9.94404 1.56544 10.0636 1.63807 10.1618 1.71126C10.1647 1.7155 10.1656 1.72567 10.1704 1.72369C10.2427 1.6936 10.6892 1.58861 10.3494 3.19263C10.8654 2.1483 10.4615 1.73853 10.501 1.78134C10.6843 1.97916 10.7217 2.46212 10.7453 2.74853C10.7677 3.01714 10.5987 3.62953 10.3797 3.83201C10.2255 3.97444 10.2286 3.7981 10.1707 3.66188C10.0756 3.43821 9.90122 3.25791 9.74297 3.07366C9.62513 2.9366 9.48213 2.83642 9.35256 2.71377C9.21141 2.5801 9.13708 2.39331 9.0109 2.24664C8.89815 2.11551 8.75939 2.01109 8.65215 1.87432C8.5319 1.72115 8.45136 1.54594 8.31854 1.40492C8.27629 1.35971 8.2291 1.3258 8.18304 1.28962Z" fill="#E65271"/>
<path d="M9.17258 1.14317C9.48796 1.14218 9.68592 1.29322 9.94689 1.43763C10.1632 1.55788 10.429 1.55901 10.6117 1.72461C10.8543 1.94489 10.9593 2.1632 11.0049 2.48564C11.0571 2.85273 11.0633 3.32072 10.9939 3.68654C10.9583 3.87418 10.8249 4.2588 10.6843 4.396L10.5156 4.28861C10.1829 3.42937 9.17993 3.07683 8.8004 2.23229C8.68849 1.98375 8.64638 1.66074 8.6437 1.38917C8.64073 1.10487 8.94283 1.14387 9.17258 1.14317Z" fill="url(#paint6_linear_3335_25971)"/>
<path d="M6.03454 3.29053C5.85114 3.00553 5.56077 2.79598 5.21967 2.71982C5.13292 2.70047 4.97749 2.64649 5.13136 2.46125C5.29598 2.20437 5.53251 2.10574 5.65982 2.01135C6.17174 1.63126 5.96008 1.5924 6.25878 1.55793C6.37549 1.54436 6.34469 1.53419 6.4039 1.55793C6.4631 1.58167 6.3584 1.54125 6.32095 1.51653C5.98777 1.29596 6.01179 1.73596 6.15507 1.64087C6.58151 1.31108 7.56381 1.07963 7.8392 1.12683C7.87933 1.13361 8.15614 1.29356 8.19853 1.29285C8.25773 1.29186 8.039 1.01675 8.10188 1.01675C8.20799 1.01675 8.35791 1.1264 8.46177 1.13446C8.67668 1.15099 9.33019 1.45068 9.32552 2.23969C9.32411 2.48075 9.33895 2.64974 9.30645 2.807C9.06822 3.96113 6.65583 2.34143 6.03454 3.29053Z" fill="#F6E8A0"/>
<path d="M8.92202 2.57893C8.81025 2.43933 8.0837 2.18767 8.0837 2.18767C8.0837 2.18767 6.87701 1.77183 5.76428 2.95605C6.33301 2.50461 7.33241 2.69395 8.05515 2.77731C8.15067 2.78847 7.84872 2.69211 7.92784 2.66286C8.19631 2.56353 8.44485 2.84189 8.71247 2.78819C8.83724 2.76318 8.91227 2.6955 8.92202 2.57893Z" fill="white"/>
<path d="M7.99657 2.38333C7.55346 2.26662 7.11049 2.43745 7.02515 2.44268C7.06528 2.38234 7.1307 2.24316 7.45893 2.19512C7.53439 2.18396 7.68558 2.19611 7.76484 2.19597C7.90671 2.19569 7.99474 2.22988 8.11993 2.29022C8.19976 2.32865 8.39277 2.36963 8.4541 2.36002C8.4541 2.36002 9.13318 2.41117 8.90823 2.64148C8.68357 2.87166 8.35547 2.34462 7.6357 2.51319C7.63584 2.48973 7.80031 2.37231 7.99657 2.38333Z" fill="#F6E8A0"/>
<path d="M7.32486 1.42834C7.04481 1.24296 6.55521 1.40192 6.49162 1.40107C6.49021 1.39457 6.49403 1.38736 6.50547 1.38016C6.93205 1.05037 7.56408 1.07976 7.83947 1.12695C7.84159 1.12723 7.84456 1.12822 7.84767 1.12935C7.84894 1.12978 7.85091 1.13048 7.85261 1.13119C7.91224 1.15408 8.10709 1.26387 8.17802 1.28803C8.59316 1.52329 9.24906 2.0201 9.30685 2.80713C9.07103 2.70229 8.90147 2.60013 8.77119 2.50065C8.72739 2.46717 7.73519 1.43018 5.10916 2.67615C5.10916 2.67615 5.03611 2.63602 5.07779 2.54219C5.67082 1.58928 6.75359 1.31558 8.47786 2.21806C8.23341 1.9267 8.11486 1.66261 7.32486 1.42834Z" fill="#F8D285"/>
<path d="M9.00349 6.78418C9.97619 5.78958 10.3725 5.04649 9.90173 4.24632C9.13928 2.94948 6.79118 4.30213 5.77002 2.99371C5.87825 3.11735 6.10829 3.36222 6.33083 3.4826C7.08777 3.97715 8.51248 3.81804 8.96647 4.2004C9.55046 4.69212 9.69967 5.68361 9.00349 6.78418Z" fill="url(#paint7_linear_3335_25971)"/>
<path d="M5.83489 4.70556C5.83376 4.77225 5.98637 5.15701 5.96249 5.2456C5.7576 6.00197 4.86968 6.37302 4.86968 6.37302C4.86968 6.37302 3.87537 6.77318 3.7174 8.60214C3.53597 8.7327 3.56112 8.45477 3.56677 8.33127C3.67967 5.93259 5.67523 6.20078 5.83489 4.70556Z" fill="url(#paint8_linear_3335_25971)"/>
<path d="M9.2178 8.66876C9.20141 8.66127 9.18573 8.65138 9.16863 8.64644C9.08145 8.62213 8.9937 8.59981 8.90638 8.57494C8.87883 8.56717 8.85254 8.55459 8.82556 8.54428C8.8257 8.53834 8.82598 8.53255 8.82612 8.52676C8.85749 8.5211 8.88843 8.51121 8.9198 8.51079C9.04513 8.50938 9.17061 8.51107 9.29608 8.51135C9.47313 8.51178 9.65102 8.51093 9.82185 8.45922C9.90522 8.43378 9.98646 8.39563 10.0629 8.3531C10.8701 7.90377 11.4406 7.24617 11.7838 6.38976C11.854 6.21469 11.9078 6.03369 11.9494 5.85C11.9519 5.83983 11.9531 5.82923 11.9562 5.81157C11.9427 5.81976 11.9341 5.82372 11.9261 5.82895C11.4321 6.16736 10.8926 6.39682 10.3038 6.50831C10.0934 6.54801 9.88077 6.56794 9.66671 6.57415C9.6506 6.57458 9.63025 6.58065 9.61965 6.59167C9.29947 6.91821 8.92136 7.15955 8.51329 7.3602C8.18788 7.52029 7.8441 7.61722 7.49071 7.68589C7.03757 7.77392 6.58329 7.85757 6.13001 7.94475C5.57343 8.05171 5.01969 8.17054 4.48162 8.35253C4.14039 8.46783 3.80961 8.60645 3.50723 8.80497C3.2796 8.95475 3.07697 9.13165 2.9337 9.3672C2.88339 9.45028 2.84765 9.54227 2.80441 9.62973C2.7965 9.64541 2.78802 9.66181 2.77587 9.67382C2.47575 9.96729 2.35762 10.3244 2.40369 10.7386C2.43788 11.0451 2.54753 11.3255 2.70423 11.5893C2.72274 11.6202 2.73842 11.6524 2.75284 11.6797C2.76032 11.6129 2.76626 11.538 2.77671 11.4638C2.84298 10.9917 3.08616 10.6402 3.49974 10.4053C3.74037 10.2683 3.99951 10.1777 4.26812 10.1183C4.56258 10.0533 4.85959 9.99866 5.15646 9.94483C5.51691 9.87969 5.87934 9.82529 6.22976 9.71479C6.29787 9.69346 6.36527 9.66873 6.4321 9.6433C6.5183 9.61094 6.59884 9.56925 6.67387 9.51358C6.92227 9.3306 7.19441 9.19043 7.48139 9.07824C7.48916 9.07528 7.49679 9.07188 7.50442 9.06892C7.50484 9.06779 7.50498 9.06623 7.50611 9.06298C7.50145 9.06256 7.49735 9.06199 7.49311 9.06199C7.17208 9.06228 6.85063 9.06397 6.5296 9.06228C6.24248 9.06044 5.95621 9.06934 5.67135 9.10679C5.27699 9.15907 4.89534 9.26122 4.52373 9.40266C4.08528 9.56996 3.67029 9.78403 3.26801 10.0242C3.25727 10.0307 3.24611 10.037 3.2317 10.0395C3.23918 10.0334 3.24625 10.0266 3.2536 10.021C3.69402 9.6871 4.16299 9.40196 4.68029 9.20202C5.04046 9.06312 5.41235 8.97185 5.79668 8.93115C6.13524 8.8954 6.47393 8.89879 6.81276 8.92338C7.10581 8.94472 7.39873 8.96605 7.69192 8.98612C7.71735 8.98824 7.74462 8.98456 7.76921 8.97736C8.05901 8.88919 8.3556 8.83733 8.65501 8.7948C8.83177 8.76951 9.00628 8.72712 9.18149 8.69222C9.1935 8.68981 9.2048 8.6836 9.21611 8.67893C9.21667 8.67568 9.21724 8.67229 9.2178 8.66876Z" fill="url(#paint9_linear_3335_25971)"/>
<path opacity="0.2" d="M3.82251 9.65723C4.97042 8.28593 7.9487 9.00471 9.21785 8.66927C8.41428 9.13089 7.76064 9.05106 7.76064 9.05106C7.76064 9.05106 5.01818 8.74825 3.82251 9.65723Z" fill="white"/>
<path d="M12.5995 4.45307C12.5607 4.45972 12.532 4.46155 12.5057 4.47003C12.4023 4.50239 12.2945 4.52641 12.1975 4.57304C12.1053 4.61755 12.0198 4.68071 11.9398 4.7457C11.7848 4.87174 11.6369 5.00583 11.484 5.13343C11.3588 5.23785 11.2258 5.33124 11.0676 5.37971C11.0166 5.39525 10.9636 5.40415 10.9102 5.41291C11.1165 5.30906 11.2319 5.12396 11.3516 4.93405C11.3414 4.93589 11.3377 4.93547 11.335 4.93674C11.0205 5.09061 10.7123 5.25494 10.4324 5.46788C10.3577 5.52482 10.2988 5.58954 10.2567 5.67785C10.1894 5.8183 10.1042 5.95041 10.0268 6.08578C10.0234 6.09185 10.0197 6.09779 10.0102 6.11404C10.0781 6.09977 10.1374 6.0903 10.1956 6.07546C10.442 6.01244 10.6712 5.90576 10.8962 5.7899C11.2476 5.60805 11.5819 5.3978 11.9066 5.17214C11.9163 5.16536 11.9264 5.15886 11.9394 5.1549C11.9364 5.159 11.934 5.16352 11.9305 5.16691C11.5454 5.55082 11.1136 5.86705 10.6089 6.07659C10.3906 6.16759 10.1644 6.22821 9.92884 6.25265C9.92008 6.25392 9.90864 6.25661 9.90369 6.26268C9.85127 6.32613 9.80012 6.39028 9.74219 6.46191C9.88575 6.43111 10.021 6.40412 10.1553 6.3729C10.5312 6.28557 10.8997 6.17465 11.2517 6.0147C11.5117 5.89658 11.7594 5.75768 11.9681 5.56015C12.2433 5.29931 12.4459 4.99072 12.5641 4.62927C12.5814 4.57629 12.5868 4.51864 12.5995 4.45307Z" fill="#E65271"/>
<path opacity="0.6" d="M6.09705 7.94333C6.20853 7.90589 6.33556 7.85954 6.47106 7.80754C8.06858 7.30932 8.59647 6.89405 8.59647 6.89405L10.2012 5.70601C10.2012 5.70601 10.4634 5.9068 10.8028 5.64426C10.5715 5.92192 9.8618 6.13796 9.8618 6.13796C9.8618 6.13796 9.82902 6.35641 9.59757 6.52611C10.2292 6.31147 11.2902 6.37294 12.0263 5.71011C11.4696 7.28474 10.087 6.08441 8.75077 7.06375C8.59647 7.1563 6.55839 7.67726 7.57121 7.64152C8.5839 7.60591 9.25125 8.297 10.0972 8.0705C9.30311 8.35846 8.60142 7.89698 7.49533 7.81941C7.66744 7.85389 7.90326 7.9487 8.00373 8.07827C7.60272 7.792 6.81795 7.77886 6.63158 7.84428C6.46216 7.86576 6.28427 7.89797 6.09705 7.94333Z" fill="#8B4FBA"/>
<path opacity="0.2" d="M9.92881 8.42913C8.76493 8.89146 4.65131 7.55223 2.8044 9.62988C2.8044 9.62988 2.66607 9.56799 3.40153 8.74352C6.29363 7.36105 8.44602 8.66835 9.92881 8.42913Z" fill="#2B2B2B"/>
<path opacity="0.7" d="M11.7284 6.58723C12.0728 6.39351 11.793 6.867 11.4488 7.14663C10.0932 8.09333 9.48007 7.01607 8.13562 7.53449C10.1928 6.40057 10.3943 7.8137 11.7284 6.58723Z" fill="url(#paint10_radial_3335_25971)"/>
<path opacity="0.2" d="M11.6231 6.85632C11.9676 6.6626 11.793 6.86734 11.4488 7.14712C10.0932 8.09381 9.48007 7.01656 8.13562 7.53498C9.45916 6.79853 10.2891 8.08265 11.6231 6.85632Z" fill="#8B4FBA"/>
<path opacity="0.7" d="M4.93042 6.34844C4.30334 6.92239 4.79506 8.17924 4.79506 8.17924L4.34869 8.2749C4.34869 8.2749 3.89824 7.05988 4.93042 6.34844Z" fill="url(#paint11_radial_3335_25971)"/>
<path opacity="0.7" d="M6.01277 5.38556C6.48542 6.22671 5.23196 7.3838 5.90511 7.79343C5.89437 7.84868 5.52021 8.03632 5.53773 7.98206C4.70704 6.70741 6.07707 6.40348 5.89719 5.60655C4.93651 6.9171 4.92619 7.17652 5.3929 8.00622C5.38711 8.01075 5.33581 8.07772 5.28481 8.03957C4.555 7.49232 4.34955 6.87753 6.01277 5.38556Z" fill="url(#paint12_radial_3335_25971)"/>
<path opacity="0.2" d="M7.55728 7.09526C7.58724 7.4892 7.86235 6.84926 7.90403 6.40756C7.93992 4.75465 6.26398 5.15438 6.1874 3.81714C6.02434 5.33836 7.8379 5.30501 7.55728 7.09526Z" fill="#8B4FBA"/>
<path opacity="0.3" d="M9.18226 6.43971C9.21193 6.83365 10.0029 5.81969 10.0447 5.37813C9.77938 2.54213 6.86044 4.26696 6.09729 3.2222C6.72762 4.36658 10.8076 2.77429 9.18226 6.43971Z" fill="white"/>
<path d="M14.5229 11.9617C14.4801 11.9993 14.445 12.0335 14.4062 12.0631C14.3752 12.0867 14.3411 12.1076 14.3061 12.125C14.2207 12.1663 14.1348 12.1717 14.0485 12.1259C13.9141 12.0547 13.77 12.0493 13.6229 12.0654C13.5801 12.0699 13.5521 12.0903 13.5324 12.1303C13.3851 12.4335 13.1395 12.6282 12.8319 12.7514C12.7967 12.7655 12.7802 12.7819 12.774 12.8202C12.7583 12.9167 12.7518 13.0117 12.7747 13.1079C12.8118 13.2618 12.9076 13.3721 13.0365 13.457C13.1716 13.5461 13.3221 13.5985 13.4776 13.6375C13.6646 13.6837 13.8538 13.7149 14.0469 13.7143C14.1451 13.7142 14.2422 13.7028 14.3366 13.6742C14.5475 13.6105 14.6777 13.4696 14.7256 13.2567C14.7565 13.1184 14.7858 12.9786 14.7999 12.838C14.8323 12.5157 14.7459 12.2265 14.533 11.9784C14.5292 11.9736 14.5266 11.9678 14.5229 11.9617Z" fill="url(#paint13_linear_3335_25971)"/>
<path opacity="0.3" d="M13.9134 11.9855C13.9294 12.0823 14.1111 12.1086 14.1954 12.1058C14.3439 12.1008 14.44 12.0142 14.5365 11.9018C14.5521 11.8834 14.5642 11.8653 14.5748 11.8468C14.743 11.9809 14.8369 12.1625 14.8111 12.3477C14.7653 12.6741 14.3633 12.887 13.9135 12.8239C13.6025 12.7801 13.35 12.6155 13.2393 12.4101C13.3215 12.305 13.3537 12.1715 13.4621 12.0805C13.5676 11.9923 13.7762 11.9796 13.9134 11.9855Z" fill="#F6E8A0"/>
<path d="M2.97693 8.91631C3.07429 8.96435 3.14211 8.9748 3.20244 8.95304C3.13307 8.5998 3.09675 8.24358 3.10904 7.88511C3.12289 7.48834 3.19156 7.10203 3.36564 6.74031C3.38769 6.69439 3.41326 6.64988 3.44322 6.60749C3.44138 6.61455 3.44025 6.62176 3.43756 6.62826C3.34388 6.86352 3.30065 7.1091 3.28637 7.36118C3.26419 7.75398 3.3104 8.14058 3.39532 8.52335C3.39729 8.53268 3.40012 8.54172 3.40393 8.55529C3.45946 8.51798 3.51358 8.48238 3.56629 8.44493C3.57264 8.44027 3.57279 8.42317 3.57137 8.41229C3.54439 8.17986 3.54636 7.94756 3.57137 7.71513C3.60726 7.38308 3.68922 7.06304 3.80607 6.75133C3.96899 6.31613 4.18955 5.91202 4.45915 5.53433C4.46537 5.52557 4.47173 5.51681 4.47766 5.50791C4.47893 5.50593 4.47879 5.50353 4.48063 5.49632C4.44135 5.51017 4.40461 5.52274 4.36787 5.53602C4.11975 5.62589 3.87672 5.72734 3.64273 5.84999C3.60613 5.86892 3.57081 5.8928 3.53986 5.92007C3.2105 6.21171 3.01635 6.5805 2.92861 7.00821C2.91547 7.0718 2.90614 7.13651 2.88848 7.20038C2.89243 7.12945 2.89427 7.05823 2.90049 6.9873C2.92988 6.64974 2.99304 6.31839 3.10678 5.99864C3.13575 5.91739 3.11554 5.84405 3.10325 5.76775C3.09944 5.74402 3.08262 5.72226 3.0716 5.69951C3.05337 5.71717 3.03091 5.73201 3.01777 5.75292C2.92423 5.9017 2.86403 6.06505 2.81458 6.23263C2.73898 6.48894 2.69391 6.7526 2.65675 7.0174C2.62227 7.26467 2.60023 7.51335 2.60136 7.76331C2.60263 8.01609 2.62199 8.26662 2.70606 8.50795C2.74605 8.62269 2.79988 8.73022 2.87746 8.82418C2.90515 8.85781 2.9392 8.88649 2.97015 8.91758C2.97255 8.91701 2.97467 8.91673 2.97693 8.91631Z" fill="url(#paint14_linear_3335_25971)"/>
<path opacity="0.2" d="M4.12286 5.50559C4.12286 5.50559 3.49464 5.5939 3.22971 6.02599C2.96463 6.4578 2.88847 7.20046 2.88847 7.20046C2.88847 7.20046 2.75283 8.3081 3.20244 8.95312C2.91758 6.58779 4.12286 5.50559 4.12286 5.50559Z" fill="#2B2B2B"/>
<path d="M2.97689 8.91655C2.97463 8.91697 2.97251 8.91726 2.97025 8.91754C2.84068 8.86695 2.73937 8.77977 2.65671 8.67027C2.53618 8.5106 2.47274 8.32592 2.43374 8.13277C2.37566 7.8448 2.37072 7.55373 2.39545 7.26251C2.40958 7.0962 2.43402 6.93046 2.45408 6.765C2.45479 6.75907 2.45493 6.75327 2.4555 6.74126C2.44532 6.75002 2.43812 6.75497 2.43232 6.76104C1.95177 7.25912 1.59061 7.83265 1.35408 8.48361C1.34786 8.50057 1.34984 8.52346 1.35521 8.54126C1.49636 8.99257 1.70068 9.41491 1.95092 9.81478C2.05661 9.98349 2.17318 10.1454 2.28495 10.3103C2.29371 10.3233 2.30388 10.335 2.31999 10.356C2.32395 10.273 2.36817 10.2059 2.33412 10.1247C2.29046 10.0211 2.26234 9.91214 2.26814 9.7974C2.2704 9.75502 2.28057 9.71545 2.30996 9.67617C2.33921 9.75925 2.36182 9.84107 2.42695 9.90366C2.44603 9.86961 2.44984 9.83994 2.43783 9.80348C2.39248 9.66812 2.36097 9.52979 2.36959 9.3858C2.37227 9.34172 2.3823 9.29834 2.39431 9.25397C2.43374 9.36206 2.49888 9.45052 2.57419 9.53544C2.57857 9.52894 2.58252 9.5247 2.58493 9.51961C2.68539 9.3119 2.81411 9.12327 2.96742 8.95117C2.97434 8.94297 2.97392 8.92814 2.97689 8.91655Z" fill="url(#paint15_linear_3335_25971)"/>
<path opacity="0.2" d="M2.49084 9.47038C2.49084 9.47038 1.78435 8.08777 2.11499 6.90044C2.15611 6.86794 2.04872 6.95173 1.92084 7.09882C1.90135 7.12115 1.66439 8.689 2.14523 9.38023C1.49893 8.61354 1.80498 7.24365 1.77771 7.28364C1.71992 7.36899 1.66806 7.46323 1.63387 7.56172C1.30337 9.10978 2.44563 10.0415 2.44563 10.0415L2.49084 9.47038Z" fill="#2B2B2B"/>
<path d="M13.3025 14.448C13.2733 14.4923 13.2395 14.537 13.2126 14.5862C13.1879 14.6308 13.183 14.6817 13.1994 14.732C13.2196 14.7942 13.2612 14.818 13.3258 14.809C13.3777 14.8011 13.4297 14.7932 13.4818 14.7915C13.5372 14.7896 13.5412 14.7971 13.5474 14.851C13.5489 14.8652 13.5508 14.8799 13.556 14.8929C13.5769 14.9462 13.6078 14.9921 13.6697 15.0003C13.7298 15.0082 13.772 14.9746 13.8045 14.9284C13.9013 14.7913 13.8211 14.6061 13.6529 14.5838C13.6008 14.5768 13.5464 14.5853 13.493 14.5867C13.4827 14.5872 13.4725 14.589 13.4622 14.5898C13.4596 14.5869 13.4571 14.5835 13.4544 14.5805C13.4688 14.5637 13.48 14.5414 13.4981 14.5308C13.5365 14.5092 13.5775 14.5003 13.6247 14.5056C13.9125 14.5385 14.187 14.5045 14.4312 14.332C14.5667 14.236 14.6667 14.1101 14.7433 13.964C14.7437 13.963 14.7447 13.962 14.7452 13.9611C14.7548 13.9345 14.7744 13.9021 14.7483 13.8819C14.733 13.8701 14.6982 13.8753 14.6752 13.8828C14.5677 13.9181 14.4633 13.9629 14.3545 13.9926C14.1954 14.0361 14.0306 14.0375 13.867 14.0286C13.6459 14.0167 13.4285 13.9815 13.2197 13.9031C12.9856 13.8152 12.7743 13.6912 12.5911 13.5203C12.57 13.5006 12.5487 13.4812 12.5251 13.4652C12.4851 13.4387 12.4578 13.4518 12.4563 13.5001C12.4551 13.5343 12.4585 13.5695 12.4663 13.6031C12.5446 13.9447 12.7519 14.1849 13.0581 14.3436C13.1382 14.3855 13.2244 14.4151 13.3025 14.448Z" fill="#E65270"/>
<path d="M1.14286 8.09119C1.13056 9.32345 1.5269 10.3928 2.35209 11.3008C2.3405 11.2171 2.3251 11.1335 2.31803 11.05C2.30631 10.9074 2.29882 10.7644 2.29189 10.6211C2.29048 10.592 2.28313 10.569 2.26674 10.5457C1.95772 10.0999 1.67428 9.63869 1.4482 9.14429C1.33347 8.89348 1.23541 8.63589 1.18284 8.36404C1.16575 8.27615 1.15656 8.18699 1.14286 8.09119Z" fill="url(#paint16_linear_3335_25971)"/>
<path d="M11.2207 4.03906C11.3685 3.78345 11.5209 3.53745 11.575 3.24765C11.5841 3.19919 11.5813 3.14761 11.5783 3.09759C11.5622 2.8181 11.5911 2.54526 11.6817 2.27905C11.6898 2.25545 11.6995 2.23058 11.699 2.20656C11.6985 2.18664 11.6882 2.16361 11.6749 2.14793C11.658 2.128 11.6349 2.13507 11.6132 2.1475C11.5435 2.18692 11.4929 2.24486 11.4524 2.31226C11.3699 2.44776 11.3259 2.59782 11.2953 2.75113C11.2112 3.17149 11.1985 3.59652 11.215 4.0238C11.2151 4.02606 11.2166 4.02804 11.2207 4.03906Z" fill="url(#paint17_linear_3335_25971)"/>
<path opacity="0.4" d="M11.3078 2.41064C11.3346 2.35356 11.4451 2.22865 11.4895 2.19262L11.5894 2.12889C11.489 2.38492 11.453 2.64548 11.453 2.91818C11.453 3.14794 11.5238 3.3613 11.535 3.58992C11.544 3.77827 11.4619 3.87294 11.3641 4.02625C11.3201 4.0952 11.2599 4.24455 11.1641 4.24512C11.1197 4.13618 11.1269 3.99968 11.1258 3.88311C11.1245 3.74365 11.1022 3.60758 11.1077 3.4667C11.1181 3.20078 11.2617 2.5087 11.3078 2.41064Z" fill="#8B4FBA"/>
<path d="M14.7473 13.4243C14.743 13.4277 14.7416 13.4283 14.7412 13.4291C14.6325 13.6525 14.4394 13.75 14.206 13.7697C13.8204 13.8025 13.4504 13.7303 13.0995 13.5689C12.9515 13.5008 12.8249 13.4019 12.7537 13.2498C12.7229 13.1841 12.7079 13.1109 12.6849 13.0387C12.6083 13.0383 12.5172 13.1141 12.5111 13.1957C12.5091 13.2223 12.5203 13.252 12.5323 13.2768C12.5808 13.377 12.6586 13.4529 12.7435 13.5216C12.9618 13.6978 13.2118 13.809 13.4828 13.8745C13.8387 13.9607 14.1947 13.9633 14.5468 13.8566C14.6301 13.8313 14.7091 13.7889 14.7866 13.7476C14.8465 13.7156 14.877 13.6607 14.8681 13.5894C14.8585 13.5125 14.8186 13.4574 14.7473 13.4243Z" fill="#E65270"/>
<path opacity="0.4" d="M14.7473 13.4243C14.743 13.4277 14.7416 13.4283 14.7412 13.4291C14.6325 13.6525 14.4394 13.75 14.206 13.7697C13.8204 13.8025 13.4504 13.7303 13.0995 13.5689C12.9515 13.5008 12.8249 13.4019 12.7537 13.2498C12.7229 13.1841 12.7079 13.1109 12.6849 13.0387C12.6083 13.0383 12.5172 13.1141 12.5111 13.1957C12.5091 13.2223 12.5203 13.252 12.5323 13.2768C12.5808 13.377 12.6586 13.4529 12.7435 13.5216C12.9618 13.6978 13.2118 13.809 13.4828 13.8745C13.8387 13.9607 14.1947 13.9633 14.5468 13.8566C14.6301 13.8313 14.7091 13.7889 14.7866 13.7476C14.8465 13.7156 14.877 13.6607 14.8681 13.5894C14.8585 13.5125 14.8186 13.4574 14.7473 13.4243Z" fill="#2B2B2B"/>
<path d="M10.8755 9.87893C10.8729 10.017 10.9017 10.1468 10.9612 10.27C11.0816 10.5175 11.2801 10.6792 11.5288 10.7854C11.7457 10.8781 11.9733 10.9096 12.2078 10.8974C12.2108 10.8973 12.2138 10.896 12.2238 10.8929C12.0598 10.8676 11.907 10.8268 11.7595 10.7678C11.5038 10.6657 11.2782 10.5204 11.1032 10.3038C11.0092 10.188 10.9384 10.0589 10.8901 9.91737C10.8859 9.90437 10.8805 9.89165 10.8755 9.87893Z" fill="#0D0D0D"/>
<path d="M12.791 7.90332C13.0435 7.74916 13.0981 7.38702 12.9363 7.18001C12.9743 7.43859 12.922 7.6788 12.791 7.90332Z" fill="#0D0D0D"/>
<path d="M13.2074 9.32454C13.3309 9.42571 13.4794 9.45368 13.6344 9.451C13.6963 9.44944 13.7579 9.43927 13.8198 9.4363C13.8533 9.43475 13.8884 9.43687 13.9213 9.44408C13.9837 9.45835 14.0116 9.44874 14.0329 9.38883C14.0812 9.25219 14.104 9.11061 14.0877 8.96635C14.0798 8.89711 14.0654 8.82618 14.038 8.76273C13.9302 8.5108 13.6038 8.40723 13.362 8.54485C13.3309 8.56251 13.3016 8.58314 13.2737 8.60603C13.2443 8.62991 13.2178 8.65761 13.1872 8.68615C13.2008 8.70183 13.2121 8.71695 13.2248 8.73009C13.2541 8.76005 13.2651 8.79552 13.2562 8.83536C13.2285 8.96055 13.2826 9.04943 13.387 9.10637C13.4616 9.14707 13.5433 9.17631 13.6246 9.20344C13.6664 9.21772 13.7095 9.22789 13.7533 9.23665C13.7667 9.23623 13.7724 9.23396 13.7828 9.22563C13.848 9.18352 13.8946 9.12827 13.9234 9.05593C13.9389 9.0986 13.9358 9.16953 13.9221 9.22224C13.9137 9.25474 13.9192 9.33443 13.9357 9.3576C13.9344 9.35901 13.9332 9.36057 13.9323 9.36184C13.9245 9.35817 13.9169 9.35421 13.9096 9.34983C13.8259 9.29854 13.7324 9.28229 13.637 9.27042C13.519 9.25544 13.4043 9.22845 13.3038 9.16049C13.1829 9.07868 13.118 8.96493 13.1111 8.81869C13.1108 8.81417 13.1101 8.80993 13.1085 8.79792C12.9992 9.0117 13.0327 9.18112 13.2074 9.32454Z" fill="#0D0D0D"/>
<path d="M13.3674 8.8647C13.3674 8.99766 13.4752 9.10547 13.6079 9.10547C13.741 9.10547 13.8488 8.99766 13.8488 8.8647C13.8488 8.73173 13.741 8.62392 13.6079 8.62392C13.4752 8.62392 13.3674 8.73173 13.3674 8.8647Z" fill="url(#paint18_linear_3335_25971)"/>
<g clip-path="url(#clip1_3335_25971)">
<path d="M13.4466 8.82422C13.4518 8.82422 13.457 8.82277 13.4616 8.8199L13.5185 8.78436C13.5268 8.77916 13.5319 8.77006 13.5319 8.76025V8.68918C13.5319 8.67937 13.5268 8.67025 13.5185 8.66507L13.4616 8.62954C13.457 8.62666 13.4518 8.62521 13.4466 8.62521C13.4413 8.62521 13.4361 8.62666 13.4315 8.62954L13.3746 8.66507C13.3663 8.67025 13.3613 8.67937 13.3613 8.68918V8.76025C13.3613 8.77006 13.3663 8.77916 13.3746 8.78436L13.4315 8.8199C13.4361 8.82277 13.4413 8.82422 13.4466 8.82422Z" fill="white"/>
</g>
<path d="M14.4437 12.9215C14.4864 12.948 14.553 12.9367 14.5777 12.8898C14.6803 12.6945 14.6709 12.4671 14.5705 12.2729C14.5128 12.1616 14.3402 12.2514 14.3977 12.3624C14.4662 12.495 14.4802 12.6581 14.4119 12.7882C14.3875 12.8349 14.3963 12.8922 14.4437 12.9215Z" fill="white"/>
<path opacity="0.2" d="M3.98973 13.4834C3.92897 11.7427 5.00213 12.3089 5.47958 11.574C5.51857 11.5283 5.54132 11.4768 5.55913 11.437C5.02318 11.732 3.52104 11.5349 3.98973 13.4834Z" fill="#430A1D"/>
<path opacity="0.2" d="M3.17252 10.0902C4.64641 8.82136 7.55631 8.95984 7.76924 8.97778C6.54871 9.84832 2.8871 9.02992 2.75287 11.6797C2.51506 10.9271 2.82126 10.3927 3.17252 10.0902Z" fill="#2B2B2B"/>
<path opacity="0.2" d="M5.52836 11.5061C5.52836 11.5061 5.52822 11.8908 5.52836 12.1625C5.52851 12.434 5.18699 12.286 5.0553 11.9131C5.38438 11.7841 5.52836 11.5061 5.52836 11.5061Z" fill="#430A1D"/>
<path opacity="0.2" d="M5.34583 11.6353C5.59268 11.1997 5.33905 10.8228 5.29963 10.8067C5.43993 10.7994 5.70939 10.5363 5.77354 10.4487C5.87386 10.3115 5.87994 10.1122 5.88842 9.9493C6.08751 9.9404 6.22753 9.81846 6.40868 9.77522C6.25466 9.91949 6.04568 10.0902 5.95214 10.2846C5.86892 10.4573 5.79855 10.6561 5.7426 10.8398C5.69696 10.9902 5.65443 11.1397 5.62617 11.295C5.60525 11.4106 5.53701 11.5662 5.54944 11.6788C5.54944 11.6788 5.52401 12.692 5.72719 13.1924C5.34258 13.0614 5.14066 12.7474 5.07058 12.6259C4.99131 12.4884 4.84196 12.1466 5.02692 11.9289C5.14646 11.8852 5.2773 11.7561 5.34583 11.6353Z" fill="#430A1D"/>
<path d="M1.74204 12.9516C2.51664 14.0188 3.55264 14.7047 4.84029 15.0027C5.26927 15.102 5.70546 15.1293 6.14547 15.1276C7.22188 15.1229 8.29815 15.1256 9.37442 15.1254C10.0984 15.1252 10.8224 15.1254 11.5463 15.1236C11.7186 15.1233 11.8904 15.1119 12.0551 15.0545C12.2168 14.9986 12.3415 14.8995 12.4109 14.7391C12.5105 14.5076 12.4255 14.2162 12.2107 14.0592C12.053 13.9442 11.8721 13.9107 11.6815 13.9192C11.6304 13.9217 11.5792 13.9296 11.5282 13.9349C11.5165 13.9361 11.5039 13.9388 11.4928 13.9363C11.4764 13.9327 11.4608 13.9246 11.445 13.9186C11.454 13.9053 11.4605 13.8892 11.4724 13.8795C11.6692 13.712 11.8047 13.5057 11.8696 13.2554C11.8932 13.1642 11.9001 13.0717 11.8916 12.9783C11.8911 12.9709 11.8905 12.9637 11.8902 12.9568C11.8884 12.9085 11.9048 12.8935 11.9525 12.8912C12.0933 12.8847 12.234 12.8792 12.3743 12.8682C12.4414 12.8628 12.5077 12.8464 12.5833 12.8416C12.5744 12.8532 12.5679 12.8703 12.5562 12.8757C12.444 12.9276 12.3706 13.014 12.3339 13.1293C12.2908 13.2651 12.2606 13.4039 12.2668 13.5479C12.2764 13.7804 12.3668 13.9805 12.5141 14.157C12.6465 14.3152 12.8095 14.4344 12.9939 14.5248C13.0177 14.5364 13.0239 14.5465 13.0157 14.5734C12.9921 14.6494 12.9949 14.7263 13.0217 14.8023C13.038 14.8486 13.0678 14.8823 13.1103 14.9062C13.2073 14.9601 13.3189 14.9679 13.4246 14.9235C13.4276 14.9387 13.4301 14.9557 13.4339 14.9704C13.4644 15.0863 13.5392 15.1324 13.6521 15.2002C13.6784 15.2002 13.7046 15.2002 13.7309 15.2002C13.7342 15.2002 13.7371 15.1919 13.7404 15.1913C13.9392 15.1578 14.0227 14.9761 13.9997 14.804C13.9937 14.7596 13.9809 14.716 13.9723 14.676C14.0623 14.6522 14.1551 14.6339 14.2437 14.6029C14.6528 14.4605 14.9228 14.1844 15.0372 13.7639C15.0829 13.5956 15.0546 13.4448 14.9241 13.3199C14.9159 13.3117 14.9151 13.292 14.9171 13.2785C14.9424 13.1196 14.9817 12.9617 14.992 12.8018C15.0165 12.4223 14.8972 12.0895 14.6334 11.8121C14.6179 11.7959 14.6169 11.782 14.621 11.7621C14.6383 11.6771 14.6583 11.5921 14.6687 11.5061C14.6903 11.3324 14.6241 11.1886 14.5084 11.0633C14.4982 11.0521 14.4867 11.0401 14.4819 11.0262C14.4496 10.9297 14.3827 10.864 14.2944 10.8197C14.1164 10.7299 13.9276 10.7117 13.733 10.7441C13.6056 10.7654 13.4893 10.8191 13.3741 10.8736C13.3233 10.8977 13.2768 10.9097 13.2297 10.8686C13.2218 10.8616 13.2093 10.8599 13.2018 10.8534C13.1888 10.8411 13.1669 10.824 13.1694 10.8137C13.1728 10.7979 13.1914 10.78 13.2078 10.7735C13.2974 10.7381 13.39 10.7191 13.487 10.7191C13.5598 10.7191 13.633 10.7171 13.7051 10.7085C13.935 10.6806 14.1458 10.5977 14.3437 10.4796C14.3569 10.4716 14.3716 10.4649 14.3864 10.4625C14.6423 10.4233 14.8479 10.2223 14.8925 9.96763C14.8971 9.94192 14.8965 9.91239 14.9098 9.8919C15.0182 9.72432 15.0271 9.54628 14.9643 9.3633C14.9246 9.24758 14.8695 9.13666 14.8258 9.02235C14.8027 8.96088 14.7788 8.89758 14.7729 8.83371C14.757 8.65243 14.733 8.47284 14.6844 8.29777C14.5806 7.92389 14.3955 7.5999 14.0983 7.3457C13.7983 7.08924 13.4466 6.95416 13.0571 6.91276C13.0227 6.90923 13.0047 6.89821 12.9895 6.8643C12.9045 6.67143 12.7646 6.53592 12.5632 6.46555C12.511 6.44733 12.4588 6.44323 12.4096 6.46541C12.3396 6.49777 12.2682 6.52999 12.2053 6.57435C12.0409 6.68909 11.9107 6.83816 11.8026 7.00673C11.7943 7.01944 11.7848 7.03612 11.7722 7.04036C11.7553 7.04587 11.7303 7.04784 11.7173 7.0388C11.7073 7.03202 11.705 7.00461 11.7089 6.98864C11.7135 6.96985 11.7279 6.95317 11.7392 6.93664C12.0255 6.52264 12.2076 6.06723 12.2914 5.57085C12.2942 5.55531 12.3052 5.5385 12.317 5.52677C12.3872 5.45513 12.4599 5.38603 12.5296 5.31383C12.6412 5.19867 12.7096 5.05935 12.7461 4.90449C12.7555 4.86394 12.7601 4.82225 12.7629 4.78085C12.7637 4.76828 12.7514 4.755 12.7452 4.742C12.7318 4.74977 12.7143 4.75443 12.7061 4.76559C12.687 4.79159 12.6736 4.82141 12.6561 4.84825C12.6445 4.86606 12.6294 4.88118 12.6157 4.89827C12.6114 4.88824 12.6124 4.88259 12.6145 4.87736C12.6896 4.68661 12.7416 4.49006 12.7667 4.28631C12.7738 4.22965 12.7786 4.17214 12.78 4.11506C12.7811 4.07351 12.7536 4.04723 12.7257 4.0584C12.7109 4.06447 12.698 4.07691 12.6866 4.08835C12.5752 4.19856 12.444 4.28037 12.3095 4.35781C12.3065 4.35371 12.3042 4.35187 12.3041 4.34975C12.3004 4.32969 12.2967 4.30991 12.2938 4.28984C12.2578 4.05458 12.1957 3.82582 12.1241 3.59889C12.0693 3.42566 12.0383 3.24861 12.0686 3.06606C12.0866 2.9574 12.1252 2.85877 12.2175 2.78954C12.2245 2.78431 12.2292 2.77597 12.2373 2.76665C12.2265 2.76114 12.2199 2.75577 12.2124 2.75421C12.079 2.72482 11.9412 2.74206 11.8665 2.89509C11.858 2.91218 11.8467 2.92758 11.8312 2.9533C11.8144 2.91967 11.7977 2.89763 11.7923 2.87361C11.7657 2.75294 11.7592 2.63015 11.7706 2.5068C11.7848 2.35448 11.8387 2.21502 11.9049 2.07909C11.922 2.04376 11.9383 2.00745 11.9493 1.97015C11.9689 1.90246 11.9312 1.85244 11.8604 1.85358C11.8252 1.85428 11.7882 1.85979 11.7557 1.87208C11.5814 1.93765 11.4488 2.05281 11.3606 2.2177C11.3534 2.23112 11.3469 2.24441 11.339 2.26052C11.2691 2.19255 11.2054 2.12628 11.1722 2.03557C11.1508 1.97749 11.1228 1.92154 11.0939 1.86714C11.073 1.82814 11.0574 1.82899 11.032 1.86445C11.0251 1.87406 11.019 1.88452 11.0115 1.8937C10.992 1.9173 10.9769 1.91744 10.9615 1.89074C10.9478 1.86728 10.9375 1.84142 10.9281 1.81613C10.8826 1.6932 10.8083 1.59118 10.706 1.50966C10.6991 1.50443 10.6912 1.50033 10.6749 1.4903C10.6809 1.52915 10.6858 1.55925 10.6898 1.58949C10.694 1.62043 10.6975 1.65138 10.7015 1.68402C10.6922 1.68289 10.6895 1.68317 10.6876 1.68204C10.6776 1.67568 10.6676 1.66904 10.6578 1.66212C10.2447 1.37655 9.79294 1.17817 9.30461 1.0623C9.15583 1.02698 8.99983 1.01455 8.86546 0.93005C8.86249 0.928072 8.85868 0.927082 8.85543 0.925527C8.82886 0.915071 8.80936 0.920864 8.78873 0.941494C8.77559 0.954493 8.75214 0.960286 8.73349 0.960004C8.67372 0.958591 8.61423 0.94545 8.55474 0.940504C8.5002 0.935983 8.44397 0.923549 8.3914 0.910408C8.30154 0.887659 8.21407 0.800196 8.12562 0.800196C8.10414 0.800196 8.08238 0.800196 8.06105 0.800196C8.04042 0.800196 8.01597 0.859541 7.9993 0.880312C7.97005 0.916908 7.93416 0.959722 7.88824 0.962689C7.58388 0.981623 7.28306 1.02571 6.9869 1.09961C6.53587 1.21152 6.11212 1.38517 5.73259 1.65816C5.45522 1.85781 5.21728 2.09491 5.04857 2.39545C5.01409 2.4565 4.98682 2.52206 4.95955 2.58663C4.93878 2.63637 4.93383 2.68893 4.95107 2.74107C4.96548 2.78388 4.99784 2.80762 5.04136 2.80084C5.28934 2.76184 5.49917 2.85241 5.69275 2.993C5.88519 3.13303 6.03186 3.31248 6.11551 3.53686C6.23872 3.86835 6.17203 4.16508 5.93973 4.42775C5.91628 4.45431 5.88971 4.47833 5.86117 4.50716C5.85043 4.46689 5.84153 4.43029 5.83094 4.3937C5.77837 4.21425 5.70334 4.04681 5.57561 3.90692C5.50143 3.82539 5.47204 3.9219 5.49069 4.06956C5.53082 4.38352 5.43445 4.65354 5.21586 4.88047C5.20258 4.89446 5.18252 4.90308 5.16372 4.90972C4.93341 4.99139 4.70154 5.06882 4.47249 5.15402C4.06357 5.30606 3.66879 5.48904 3.29463 5.71427C3.28954 5.71724 3.28417 5.72006 3.27866 5.72303C3.2432 5.70014 3.22864 5.66595 3.2302 5.6278C3.23218 5.57693 3.24051 5.52606 3.24645 5.47534C3.24701 5.46926 3.24899 5.46361 3.24955 5.45767C3.26171 5.36795 3.22666 5.3387 3.14401 5.37883C3.1026 5.39903 3.0646 5.43252 3.03478 5.46799C2.93955 5.58202 2.88048 5.7171 2.82382 5.85246C2.79387 5.92396 2.77013 5.998 2.73989 6.06935C2.72887 6.09549 2.71149 6.12177 2.69001 6.14C2.36602 6.41553 2.0642 6.71198 1.80831 7.05336C1.58916 7.34584 1.40208 7.65684 1.25018 7.98946C1.24637 7.99822 1.24199 8.0067 1.23775 8.01517C1.23662 8.01715 1.23436 8.01814 1.22955 8.02252C1.17982 7.73102 1.16993 7.4408 1.19917 7.1476C1.17586 7.23464 1.15 7.32126 1.12966 7.409C1.04657 7.76281 1.02071 8.12101 1.04544 8.48344C1.04671 8.5018 1.04205 8.52159 1.0364 8.53939C0.928588 8.87822 0.853983 9.22455 0.822332 9.5785C0.711695 10.8151 1.01224 11.9458 1.74204 12.9516ZM1.44828 9.14443C1.67436 9.63883 1.95781 10.1 2.26683 10.5458C2.28307 10.5693 2.29056 10.5923 2.29198 10.6213C2.2989 10.7646 2.30639 10.9074 2.31812 11.0501C2.32518 11.1341 2.34058 11.2177 2.35217 11.3009C1.52699 10.3929 1.13064 9.3236 1.14294 8.09133C1.15678 8.18699 1.16583 8.27629 1.18293 8.3639C1.23549 8.63604 1.33355 8.89334 1.44828 9.14443ZM4.48069 5.49625C4.47885 5.50345 4.47899 5.50586 4.47772 5.50783C4.47179 5.51659 4.46543 5.52535 4.45921 5.53426C4.18961 5.91195 3.96905 6.3162 3.80613 6.75126C3.68928 7.06296 3.60732 7.38329 3.57143 7.71506C3.54642 7.94749 3.54444 8.17979 3.57143 8.41222C3.57285 8.4231 3.5727 8.4402 3.56635 8.44486C3.51364 8.48259 3.45938 8.5182 3.40399 8.55522C3.40032 8.54179 3.39735 8.53289 3.39537 8.52328C3.31031 8.1405 3.26411 7.7542 3.28643 7.3611C3.30085 7.10931 3.34394 6.86359 3.43762 6.62819C3.44031 6.62141 3.44144 6.6142 3.44327 6.60742C3.41332 6.65023 3.38774 6.69432 3.3657 6.74024C3.19162 7.1021 3.12281 7.48827 3.1091 7.88504C3.09681 8.24337 3.13312 8.59972 3.2025 8.95297C3.14217 8.97459 3.07449 8.96427 2.97699 8.91623C2.97402 8.92796 2.97431 8.9428 2.96752 8.95071C2.81421 9.12309 2.68549 9.31173 2.58503 9.51915C2.58249 9.52438 2.57867 9.52848 2.57429 9.53498C2.49898 9.44963 2.43384 9.36132 2.39442 9.25351C2.38241 9.2976 2.37238 9.34112 2.36969 9.38534C2.36107 9.52961 2.39258 9.66766 2.43794 9.80302C2.44995 9.83948 2.44613 9.86915 2.42706 9.9032C2.36192 9.84075 2.33931 9.7588 2.31006 9.67571C2.28067 9.71499 2.2705 9.75484 2.26824 9.79695C2.26244 9.91168 2.29056 10.0206 2.33422 10.1242C2.36828 10.2052 2.32419 10.2726 2.32009 10.3555C2.30399 10.3346 2.29367 10.323 2.28505 10.3099C2.17329 10.145 2.05671 9.98318 1.95102 9.81433C1.70078 9.41431 1.49647 8.99239 1.35531 8.5408C1.34994 8.523 1.34796 8.50011 1.35418 8.48315C1.59071 7.83247 1.95173 7.25866 2.43243 6.76059C2.43822 6.75451 2.44543 6.74956 2.4556 6.7408C2.45503 6.75267 2.45489 6.75861 2.45419 6.76454C2.43412 6.93028 2.40968 7.09603 2.39555 7.26205C2.37082 7.55341 2.37577 7.84434 2.43384 8.13231C2.47284 8.32546 2.53642 8.51 2.65681 8.66981C2.73947 8.77917 2.84078 8.8665 2.97049 8.91708C2.93926 8.88599 2.90535 8.85745 2.87766 8.82368C2.80008 8.72972 2.74625 8.62205 2.70626 8.50746C2.62205 8.26626 2.60283 8.01588 2.60156 7.76281C2.60029 7.51257 2.62233 7.26431 2.65695 7.0169C2.69411 6.75211 2.73919 6.48887 2.81478 6.23213C2.86423 6.06455 2.92429 5.90121 3.01797 5.75242C3.03111 5.73179 3.05357 5.71667 3.0718 5.69901C3.08268 5.72176 3.0995 5.74352 3.10345 5.76726C3.11589 5.8437 3.13595 5.91703 3.10698 5.99814C2.99324 6.31804 2.93008 6.6491 2.90069 6.9868C2.89447 7.05774 2.89264 7.12895 2.88868 7.19988C2.90634 7.13601 2.91567 7.0713 2.92881 7.00772C3.01655 6.58001 3.2107 6.21122 3.54006 5.91958C3.57101 5.89231 3.60633 5.86843 3.64293 5.84949C3.87692 5.72713 4.11995 5.62539 4.36807 5.53553C4.40467 5.52267 4.44127 5.50995 4.48069 5.49625ZM11.6992 2.20696C11.6998 2.23098 11.69 2.25585 11.682 2.27945C11.5912 2.54565 11.5623 2.81864 11.5785 3.09799C11.5815 3.14801 11.5843 3.19973 11.5753 3.24805C11.5212 3.53771 11.3687 3.78385 11.2209 4.03946C11.2168 4.02844 11.2154 4.02646 11.2154 4.02477C11.199 3.5979 11.2117 3.17245 11.2956 2.75209C11.3265 2.5985 11.3703 2.44872 11.4528 2.31322C11.4933 2.24596 11.5439 2.18803 11.6136 2.14847C11.6352 2.13617 11.6582 2.12897 11.6753 2.14889C11.6883 2.16401 11.6988 2.18704 11.6992 2.20696ZM11.8757 4.47028C11.8083 4.51903 11.7375 4.56481 11.6634 4.60225C11.4029 4.73324 11.1268 4.82649 10.8538 4.9271C10.8007 4.9466 10.7497 4.97457 10.7022 5.00566C10.6078 5.06755 10.5376 5.15431 10.4767 5.24813C10.4476 5.2925 10.4203 5.33828 10.392 5.38335C10.3928 5.36823 10.3974 5.35495 10.4012 5.34124C10.4334 5.2316 10.4702 5.1228 10.496 5.01145C10.5321 4.85617 10.5892 4.71105 10.6756 4.57795C10.7224 4.50603 10.7745 4.43722 10.8202 4.36416C10.849 4.31838 10.8742 4.26865 10.8942 4.21834C10.9061 4.18811 10.9048 4.15278 10.9096 4.11986C10.9048 4.11746 10.9002 4.11506 10.8951 4.11279C10.8807 4.12495 10.8643 4.13554 10.852 4.14967C10.8018 4.20718 10.7536 4.26667 10.7022 4.32319C10.691 4.33576 10.6662 4.34806 10.6536 4.34354C10.6416 4.33916 10.6289 4.31245 10.6306 4.29691C10.6369 4.23459 10.6406 4.1703 10.6601 4.11152C10.6869 4.03056 10.7293 3.95468 10.7607 3.87457C10.7761 3.83557 10.7861 3.79233 10.7897 3.75051C10.7914 3.73072 10.7721 3.70925 10.7627 3.68876C10.7459 3.7002 10.7265 3.70939 10.7127 3.72394C10.6881 3.7498 10.6684 3.78004 10.6431 3.80547C10.6181 3.8302 10.595 3.8261 10.5805 3.79459C10.5702 3.77255 10.5599 3.74542 10.5633 3.72309C10.5719 3.667 10.5872 3.61189 10.6015 3.5565C10.6147 3.5062 10.6335 3.45646 10.6438 3.40574C10.6509 3.3714 10.6421 3.33735 10.6061 3.31149C10.5961 3.32619 10.5851 3.33876 10.5786 3.3536C10.5644 3.38384 10.5533 3.41549 10.5401 3.44573C10.5097 3.51553 10.483 3.58773 10.4472 3.65471C10.4155 3.71363 10.3843 3.7084 10.3502 3.65117C10.2844 3.53926 10.2192 3.42651 10.1456 3.31969C10.1051 3.26105 10.0815 3.20071 10.0753 3.13204C10.0671 3.04076 10.0625 2.94864 10.0529 2.85722C10.0493 2.82316 10.0401 2.7877 10.0028 2.75548C9.99486 2.79406 9.98822 2.82571 9.982 2.8575C9.97267 2.90413 9.96631 2.95161 9.95346 2.99724C9.94455 3.02946 9.9187 3.03271 9.90259 3.00403C9.88803 2.97803 9.87814 2.94694 9.87603 2.91727C9.87207 2.86132 9.87716 2.80508 9.87419 2.74898C9.87306 2.72355 9.86387 2.69797 9.85426 2.67381C9.85017 2.6635 9.83646 2.65657 9.82714 2.6481C9.82092 2.65855 9.81258 2.66816 9.80905 2.67961C9.80467 2.69303 9.80425 2.70758 9.80213 2.72185C9.79605 2.76311 9.79266 2.80536 9.78291 2.84549C9.77259 2.88915 9.74518 2.8965 9.71805 2.86117C9.69318 2.82882 9.67354 2.79052 9.66111 2.75181C9.64203 2.69162 9.63398 2.6286 9.61575 2.56784C9.60728 2.53944 9.58778 2.51344 9.56955 2.48928C9.56277 2.48052 9.54298 2.47486 9.5321 2.47811C9.52405 2.48023 9.51614 2.49874 9.51571 2.51033C9.51472 2.55668 9.51656 2.6033 9.51727 2.64979C9.51741 2.67282 9.51727 2.69585 9.51727 2.72072C9.50709 2.71846 9.50314 2.7186 9.50059 2.71705C9.4948 2.71309 9.48901 2.70829 9.48435 2.70306C9.43659 2.65234 9.40451 2.59341 9.39448 2.52347C9.3901 2.49253 9.38855 2.46158 9.38275 2.4312C9.37569 2.39531 9.35421 2.38161 9.31775 2.38613C9.27946 2.39065 9.25516 2.41849 9.25134 2.46709C9.24866 2.49874 9.25078 2.53039 9.25078 2.56685C9.20726 2.54452 9.16854 2.52404 9.12926 2.50468C8.72769 2.30587 8.30366 2.18266 7.85885 2.13066C7.57159 2.09717 7.28433 2.09633 6.99947 2.15412C6.82723 2.18902 6.66318 2.24511 6.52089 2.35292C6.49998 2.36847 6.48077 2.38655 6.4607 2.40351C6.61924 2.31181 6.71193 2.27436 6.85492 2.24723C7.1152 2.19721 7.37575 2.2047 7.63588 2.24243C8.09355 2.30898 8.52606 2.45324 8.93258 2.67508C9.24767 2.8469 9.53225 3.05758 9.76242 3.33636C9.7798 3.35699 9.79619 3.37861 9.81244 3.3998C9.34121 3.17472 8.80894 3.59819 8.27653 3.41026C9.00619 3.7864 9.43828 3.30188 9.84974 3.61542C9.95445 3.69512 9.9731 3.90071 9.73374 3.86623C9.5054 3.83359 10.0777 3.94663 10.1802 4.54135C10.1744 4.63843 10.1609 4.73719 10.1387 4.83822C10.0404 5.28373 9.83293 5.67725 9.54807 6.0305C9.25474 6.39392 8.88637 6.66478 8.47237 6.87659C8.46643 6.878 8.45993 6.88012 8.45174 6.88351C8.45287 6.87857 8.45273 6.87603 8.45357 6.87475C8.45937 6.86557 8.4653 6.85653 8.47124 6.84762C8.66905 6.55358 8.83155 6.24315 8.91053 5.89443C8.96479 5.65563 8.97129 5.41627 8.89584 5.17974C8.81148 4.91565 8.64277 4.71458 8.42235 4.5535C8.17536 4.37293 7.89629 4.26017 7.60536 4.17369C7.54319 4.15518 7.47989 4.13879 7.40952 4.11944C7.41743 4.12791 7.41828 4.13018 7.42026 4.13088C7.43227 4.13597 7.44456 4.14063 7.45686 4.14543C7.66004 4.22484 7.85362 4.32178 8.02911 4.45276C8.28176 4.64054 8.46756 4.87708 8.55192 5.18468C8.62638 5.45668 8.60985 5.72868 8.54344 5.99927C8.45767 6.34969 8.29885 6.66719 8.10711 6.9707C8.06331 7.04007 8.01117 7.08628 7.93232 7.10973C7.83695 7.13785 7.74369 7.17445 7.64054 7.2109C7.93247 6.8975 7.94052 6.45665 7.88457 6.19794C7.88358 6.20246 7.8823 6.20542 7.88216 6.20853C7.87213 6.41935 7.80035 6.60925 7.68251 6.78249C7.50673 7.04106 7.26865 7.22955 6.9999 7.38286C6.97913 7.39473 6.95369 7.39855 6.93038 7.40604C7.02759 7.29399 7.10206 7.1719 7.14572 7.03202C7.18811 6.89666 7.2028 6.68443 7.17468 6.60827C7.13031 6.7562 7.08411 6.85257 6.98534 6.97847C6.81578 7.19437 6.61896 7.38131 6.39076 7.53674C6.23773 7.64144 6.0775 7.72805 5.90512 7.7939C5.60034 7.91075 5.28241 7.98239 4.96619 8.05982C4.6884 8.12779 4.41089 8.1983 4.13521 8.2753C3.98473 8.31741 3.84018 8.37944 3.71513 8.4775C3.69281 8.42776 3.65084 8.25199 3.64929 8.11239C3.63106 6.46683 4.94047 5.58724 5.3395 5.12689C5.45565 4.9928 5.52234 4.82847 5.5807 4.6623C5.60443 4.5949 5.62478 4.52652 5.64711 4.45657C5.65092 4.46152 5.65459 4.46491 5.65643 4.46844C5.76792 4.68251 5.83659 4.9011 5.78289 5.14894C5.70094 5.52804 5.54848 5.86659 5.26094 6.13506C5.25783 6.13802 5.25529 6.14184 5.24539 6.15314C5.25938 6.14594 5.26433 6.1441 5.26899 6.14099C5.50538 6.00478 5.72143 5.84285 5.90413 5.63882C6.21131 5.29631 6.37621 4.89545 6.39895 4.4351C6.40885 4.23459 6.38129 4.03663 6.35883 3.83868C6.2992 3.31177 5.9143 2.8852 5.39715 2.7593C5.35829 2.74983 5.31887 2.73641 5.28369 2.7179C5.23409 2.69148 5.22038 2.64824 5.23918 2.59596C5.24596 2.57716 5.25599 2.55894 5.26673 2.54198C5.35857 2.39927 5.475 2.28129 5.61842 2.18987C5.69204 2.1431 5.76565 2.09647 5.83659 2.04574C6.12752 1.83775 6.44064 1.67639 6.78668 1.58144C6.92953 1.5423 7.07394 1.50768 7.224 1.52082C7.27105 1.52463 7.31683 1.54201 7.3636 1.54752C7.38296 1.55007 7.40415 1.53636 7.42464 1.53014C7.41305 1.51757 7.40387 1.50033 7.3896 1.49228C7.29931 1.44028 7.19941 1.42417 7.09711 1.42078C6.94663 1.41569 6.8001 1.44423 6.65372 1.47405C6.63902 1.47701 6.62348 1.47702 6.60836 1.47829C6.72832 1.37457 6.86439 1.3076 7.01177 1.26337C7.25409 1.18976 7.50179 1.17322 7.75259 1.19428C7.83285 1.20106 7.91424 1.20431 7.98828 1.24627C8.06091 1.28725 8.13721 1.32159 8.21238 1.35804C8.22863 1.36595 8.24671 1.36991 8.26409 1.3757C8.26664 1.37274 8.26918 1.37019 8.27186 1.36723C8.26395 1.34688 8.25745 1.32597 8.24742 1.30675C8.22029 1.25362 8.19076 1.20177 8.16349 1.14864C8.15854 1.13861 8.16095 1.12419 8.16024 1.1119C8.17154 1.11133 8.18426 1.1071 8.19401 1.11049C8.25166 1.1297 8.31044 1.14666 8.36526 1.17238C8.44368 1.20968 8.52535 1.2224 8.61084 1.22819C8.72727 1.23624 8.84398 1.24726 8.9597 1.2638C9.12955 1.28824 9.25897 1.37585 9.34291 1.52774C9.36255 1.56321 9.38346 1.59797 9.40479 1.63259C9.41242 1.64488 9.42288 1.65533 9.43207 1.6665C9.43616 1.66466 9.44068 1.66311 9.44478 1.66084C9.41836 1.57041 9.39194 1.48012 9.3641 1.38475C9.45213 1.40481 9.54369 1.46571 9.61632 1.5512C9.65306 1.59387 9.68584 1.63951 9.72215 1.68218C9.7367 1.69914 9.75635 1.71157 9.77358 1.72627C9.77839 1.72358 9.78333 1.72146 9.78828 1.71864C9.78121 1.65816 9.77401 1.59782 9.76722 1.53707C9.77076 1.53579 9.77457 1.53438 9.77839 1.53339C9.83307 1.56674 9.88733 1.60108 9.94215 1.63442C10.1284 1.74661 10.3029 1.87293 10.4336 2.05097C10.4515 2.07556 10.465 2.07202 10.4744 2.04221C10.4862 2.00476 10.4938 1.96605 10.5066 1.92889C10.5105 1.91758 10.5261 1.90218 10.5352 1.90275C10.5478 1.90374 10.5653 1.91617 10.5695 1.92762C10.5783 1.95164 10.5818 1.97806 10.5835 2.0042C10.587 2.05648 10.5858 2.10904 10.5913 2.16104C10.593 2.17701 10.6099 2.19184 10.6201 2.20668C10.6335 2.19481 10.6519 2.18548 10.659 2.17051C10.6797 2.12769 10.6951 2.08234 10.7145 2.03868C10.7323 1.99826 10.7429 1.99756 10.7687 2.03189C10.8027 2.07725 10.8408 2.11385 10.9047 2.10932C10.964 2.1048 10.9715 2.10918 10.9936 2.16443C11.0313 2.25868 11.0634 2.35476 11.1021 2.44844C11.1204 2.49309 11.1486 2.53379 11.1707 2.57674C11.1763 2.58691 11.1811 2.60147 11.1782 2.6115C11.0997 2.86513 11.0779 3.12639 11.0754 3.38977C11.073 3.63351 11.0778 3.87725 11.0694 4.12057C11.0631 4.31089 11.0311 4.49656 10.8891 4.64323C10.9088 4.63701 10.9274 4.62995 10.9449 4.6209C11.0365 4.57343 11.1114 4.50518 11.177 4.42662C11.3219 4.2531 11.4173 4.05218 11.5018 3.84433C11.5695 3.67788 11.6377 3.51157 11.7088 3.34653C11.7265 3.30556 11.7559 3.26939 11.7821 3.23222C11.7885 3.22346 11.8073 3.21343 11.8145 3.2171C11.8251 3.22177 11.8353 3.23759 11.8368 3.2496C11.8405 3.27645 11.8405 3.30471 11.8392 3.33156C11.8331 3.46763 11.8218 3.60356 11.8453 3.7392C11.8487 3.75997 11.8546 3.78329 11.8494 3.80236C11.7984 3.98845 11.7321 4.16818 11.6174 4.3263C11.6139 4.33124 11.6116 4.33732 11.6042 4.35131C11.6861 4.31485 11.741 4.26088 11.7855 4.19743C11.83 4.13371 11.869 4.06603 11.913 3.99566C11.9315 4.07111 11.9493 4.14374 11.9671 4.21637C11.9924 4.32192 11.9607 4.40825 11.8757 4.47028ZM11.9681 5.56068C11.7592 5.75793 11.5117 5.89711 11.2517 6.01524C10.8997 6.17519 10.5312 6.2861 10.1554 6.37343C10.021 6.40465 9.88577 6.43164 9.74222 6.46245C9.80001 6.39081 9.85116 6.32666 9.90372 6.26321C9.90866 6.25714 9.91997 6.25445 9.92887 6.25318C10.1644 6.22874 10.3908 6.16784 10.6089 6.07712C11.1135 5.86772 11.5455 5.55121 11.9305 5.16745C11.934 5.16391 11.9366 5.15939 11.9394 5.15543C11.9263 5.15939 11.9164 5.16589 11.9066 5.17267C11.5818 5.39819 11.2476 5.60844 10.8962 5.79043C10.6713 5.90629 10.4421 6.01298 10.1956 6.07599C10.1376 6.09083 10.0782 6.10072 10.0103 6.11457C10.0197 6.09846 10.0234 6.09253 10.0268 6.08631C10.1042 5.95095 10.1894 5.81883 10.2567 5.67838C10.2988 5.59007 10.3577 5.52535 10.4325 5.46841C10.7122 5.25547 11.0205 5.09114 11.3351 4.93727C11.3379 4.936 11.3414 4.93642 11.3516 4.93459C11.2319 5.12449 11.1165 5.30931 10.9102 5.41345C10.9636 5.40469 11.0166 5.39578 11.0676 5.38024C11.2258 5.33178 11.359 5.23852 11.484 5.13396C11.6369 5.00637 11.7848 4.87199 11.9398 4.74624C12.0198 4.68124 12.1053 4.6185 12.1976 4.57357C12.2945 4.5268 12.4022 4.50264 12.5057 4.47056C12.5322 4.4618 12.5607 4.46039 12.5996 4.45361C12.5868 4.51917 12.5815 4.57668 12.5641 4.63009C12.446 4.99125 12.2433 5.30013 11.9681 5.56068ZM10.063 8.35344C9.98652 8.39597 9.90527 8.43412 9.82191 8.45956C9.65108 8.51127 9.47318 8.51212 9.29614 8.5117C9.17066 8.51141 9.04519 8.50972 8.91986 8.51113C8.88849 8.51155 8.8574 8.52145 8.82618 8.5271C8.82604 8.53289 8.82575 8.53868 8.82561 8.54462C8.8526 8.55493 8.87888 8.56751 8.90644 8.57542C8.99376 8.60029 9.0815 8.62261 9.16868 8.64692C9.18564 8.65186 9.20132 8.66161 9.21786 8.66924C9.21729 8.67263 9.21673 8.67603 9.21616 8.67942C9.20486 8.68394 9.19355 8.6903 9.18154 8.69298C9.00633 8.7276 8.83183 8.76999 8.65507 8.79514C8.3558 8.83781 8.05907 8.88967 7.76927 8.97784C7.74468 8.98519 7.71741 8.98872 7.69198 8.98702C7.39892 8.96682 7.10601 8.94562 6.81282 8.92429C6.47398 8.89956 6.13515 8.89631 5.79674 8.93206C5.41227 8.97261 5.04037 9.06389 4.68034 9.20293C4.16305 9.40286 3.69422 9.688 3.25365 10.0219C3.24616 10.0275 3.2391 10.0343 3.23175 10.0404C3.24616 10.0376 3.25733 10.0316 3.26806 10.0251C3.67034 9.78494 4.08533 9.57059 4.52378 9.40357C4.8954 9.26213 5.27705 9.15997 5.67141 9.10769C5.95641 9.06997 6.24254 9.06135 6.52966 9.06318C6.85069 9.06488 7.17214 9.06318 7.49317 9.06304C7.49741 9.06304 7.50151 9.06361 7.50617 9.06403C7.50504 9.06657 7.5049 9.06813 7.50433 9.06855C7.4967 9.07166 7.48907 9.07505 7.4813 9.07802C7.19432 9.19021 6.92218 9.33038 6.67378 9.51336C6.59875 9.56903 6.51821 9.61071 6.43202 9.64307C6.36518 9.66836 6.29793 9.69309 6.22968 9.71457C5.8794 9.82521 5.51683 9.87946 5.15638 9.9446C4.85937 9.99815 4.5625 10.0531 4.26803 10.1181C3.99957 10.1773 3.74043 10.2682 3.49965 10.4051C3.08607 10.6399 2.8429 10.9915 2.77663 11.4636C2.76617 11.5377 2.76024 11.6129 2.75275 11.6795C2.73834 11.6526 2.72265 11.6201 2.70414 11.589C2.54744 11.3255 2.4378 11.0449 2.4036 10.7384C2.35754 10.3243 2.47566 9.96707 2.77578 9.67359C2.78793 9.66158 2.79641 9.64547 2.80432 9.62951C2.84756 9.5419 2.88331 9.44992 2.93361 9.36697C3.07689 9.13171 3.27937 8.95452 3.50714 8.80475C3.80966 8.60622 4.1403 8.46761 4.48154 8.35231C5.0196 8.17032 5.57335 8.05149 6.12992 7.94452C6.58321 7.85734 7.03748 7.77369 7.49063 7.68567C7.84415 7.61728 8.18793 7.52035 8.51334 7.35997C8.92155 7.15905 9.29953 6.91771 9.61957 6.59145C9.63017 6.58043 9.65051 6.57449 9.66662 6.57393C9.88069 6.56785 10.0933 6.54779 10.3037 6.50809C10.8925 6.39646 11.432 6.16713 11.926 5.82872C11.934 5.82349 11.9427 5.81954 11.9561 5.81134C11.9531 5.82901 11.9518 5.8396 11.9493 5.84978C11.9078 6.03389 11.8539 6.21447 11.7837 6.38954C11.4406 7.24651 10.8701 7.90411 10.063 8.35344ZM14.8 12.8378C14.7857 12.9786 14.7565 13.118 14.7257 13.2565C14.6778 13.4694 14.5476 13.6103 14.3367 13.674C14.2423 13.7026 14.1454 13.7139 14.047 13.7142C13.8539 13.7146 13.6647 13.6835 13.4777 13.6373C13.322 13.5983 13.1717 13.5459 13.0366 13.4569C12.9079 13.3719 12.8119 13.2616 12.7748 13.1077C12.7519 13.0115 12.7584 12.9164 12.7741 12.82C12.7803 12.7817 12.7968 12.7649 12.832 12.7512C13.1396 12.6284 13.3852 12.4336 13.5325 12.1301C13.5522 12.0899 13.5802 12.0696 13.623 12.0652C13.7701 12.049 13.9142 12.0543 14.0486 12.1257C14.1349 12.1715 14.2209 12.1662 14.3062 12.1248C14.3412 12.1077 14.3752 12.0865 14.4063 12.0629C14.445 12.0334 14.4802 11.9991 14.523 11.9615C14.5267 11.9677 14.5293 11.9734 14.5331 11.9779C14.746 12.2263 14.8322 12.5155 14.8 12.8378ZM12.5251 13.4663C12.5487 13.4817 12.5699 13.5016 12.5911 13.5211C12.7743 13.692 12.9856 13.816 13.2197 13.9039C13.4287 13.9823 13.6459 14.0175 13.867 14.0294C14.0306 14.0382 14.1954 14.0367 14.3545 13.9934C14.4633 13.9637 14.5677 13.9189 14.6752 13.8836C14.6981 13.8761 14.7329 13.8709 14.7483 13.8827C14.7744 13.9029 14.7548 13.935 14.7452 13.9619C14.7447 13.963 14.7438 13.964 14.7433 13.9648C14.6667 14.1108 14.5667 14.237 14.4312 14.3328C14.187 14.5053 13.9125 14.5393 13.6247 14.5064C13.5775 14.5011 13.5366 14.5097 13.4981 14.5316C13.48 14.5419 13.4688 14.5642 13.4544 14.5813C13.4571 14.5843 13.4596 14.5877 13.4622 14.5906C13.4725 14.5895 13.4827 14.5877 13.493 14.5875C13.5464 14.5858 13.6008 14.5776 13.6529 14.5846C13.8211 14.6069 13.9013 14.7924 13.8045 14.9292C13.772 14.9754 13.7298 15.0086 13.6697 15.0011C13.6079 14.9929 13.5771 14.947 13.556 14.8937C13.5509 14.8807 13.5489 14.866 13.5474 14.8518C13.5412 14.7979 13.5372 14.7904 13.4818 14.7923C13.4297 14.7938 13.3777 14.8019 13.3258 14.8098C13.2614 14.8188 13.2196 14.7951 13.1994 14.7328C13.183 14.6825 13.1879 14.6316 13.2126 14.587C13.2393 14.5381 13.2733 14.4936 13.3025 14.4488C13.2242 14.4161 13.1382 14.3866 13.0582 14.3451C12.752 14.1864 12.5446 13.9462 12.4664 13.6047C12.4585 13.5713 12.4553 13.536 12.4564 13.5016C12.458 13.4528 12.4851 13.4396 12.5251 13.4663ZM12.6848 13.0389C12.7078 13.1111 12.7229 13.1843 12.7536 13.25C12.8248 13.402 12.9514 13.5007 13.0993 13.569C13.4503 13.7304 13.8204 13.8026 14.2058 13.7698C14.4393 13.7501 14.6326 13.6526 14.7411 13.4293C14.7415 13.4285 14.7429 13.4279 14.7471 13.4245C14.8185 13.4576 14.8583 13.5127 14.868 13.5901C14.8767 13.6613 14.8463 13.7164 14.7864 13.7482C14.709 13.7895 14.63 13.832 14.5466 13.8572C14.1945 13.9638 13.8385 13.9613 13.4827 13.8751C13.2117 13.8095 12.9616 13.6983 12.7434 13.5221C12.6583 13.4535 12.5806 13.3777 12.5322 13.2774C12.5201 13.2525 12.509 13.2226 12.511 13.1963C12.5172 13.1142 12.6082 13.0385 12.6848 13.0389ZM1.50141 11.2461C1.21557 10.7489 1.06678 10.2211 1.06664 10.1402C1.06579 9.88709 1.08529 9.63488 1.1233 9.38365C1.13206 9.32543 1.14364 9.26764 1.15368 9.20957C1.16441 9.22017 1.16795 9.2309 1.1712 9.24193C1.21345 9.38224 1.25018 9.52452 1.29851 9.66271C1.55256 10.3869 1.93901 11.0364 2.41759 11.6331C2.43497 11.6549 2.44995 11.6806 2.45857 11.707C2.56256 12.0273 2.71177 12.318 2.90309 12.5814C2.6886 12.49 2.44415 12.457 2.15308 12.122C2.51071 12.8117 3.35793 13.085 3.35793 13.085C3.82944 13.5067 4.37796 13.7855 4.98569 13.9524C5.03472 13.9658 5.08431 13.9766 5.13391 13.9884C5.12303 13.978 5.11088 13.9737 5.09873 13.9689C4.64657 13.8071 4.22974 13.5816 3.85247 13.2842C3.38294 12.914 3.028 12.4579 2.81577 11.8955C2.79302 11.835 2.78228 11.7787 2.8056 11.7162C2.82142 11.6738 2.82962 11.6287 2.84276 11.5854C2.94251 11.2594 3.09865 10.9663 3.34974 10.7298C3.58994 10.5032 3.87862 10.3662 4.19173 10.2738C4.56674 10.1639 4.95418 10.1233 5.33978 10.0728C5.56346 10.0437 5.786 10.0083 6.00897 9.97428C6.06888 9.96537 6.12809 9.95054 6.19181 9.9374C6.18701 9.94531 6.18559 9.94884 6.18319 9.95167C6.00897 10.1471 5.864 10.3617 5.7487 10.5971C5.74178 10.6117 5.72581 10.6261 5.71055 10.6309C5.60754 10.6634 5.50524 10.702 5.39955 10.7232C5.24285 10.7544 5.08262 10.7664 4.92592 10.7972C4.08562 10.9641 3.82662 11.4142 3.83043 11.4101C4.08562 11.1391 4.49397 11.0627 4.60178 11.0251C4.85329 10.9376 5.11385 10.9139 5.37793 10.9165C5.45508 10.9176 5.53209 10.9221 5.6115 10.9252C5.37468 11.6987 5.40577 12.4526 5.7268 13.1912C5.72708 13.1774 5.72397 13.1639 5.72058 13.1507C5.59497 12.6736 5.5441 12.1911 5.61588 11.7C5.7025 11.1035 5.96178 10.5954 6.39486 10.1768C6.71942 9.86307 7.10107 9.63728 7.51055 9.45529C7.89954 9.28234 8.30846 9.17537 8.72077 9.0759C9.03106 9.00115 9.34262 8.92782 9.64896 8.83753C10.0593 8.71729 10.4308 8.51975 10.7473 8.22783C10.7963 8.18261 10.8458 8.13641 10.8862 8.08356C11.1528 7.73851 11.4779 7.46835 11.8779 7.29229C11.9032 7.20765 11.9475 7.11835 12.0163 7.0251C12.114 6.89425 12.235 6.78644 12.3653 6.68965C12.4022 6.66238 12.4512 6.6467 12.4971 6.63766C12.5471 6.62734 12.5772 6.6515 12.5943 6.69997C12.5988 6.71367 12.602 6.72738 12.6046 6.74137C12.6313 6.75055 12.6579 6.76497 12.684 6.78531C12.702 6.79916 12.7192 6.81414 12.7351 6.82982C12.8087 6.90386 12.8602 6.99203 12.9021 7.08656C12.9111 7.10705 12.9233 7.1151 12.9443 7.11779C12.9939 7.12429 13.0437 7.13121 13.0927 7.14068C13.8885 7.29808 14.4679 7.90284 14.569 8.77239C14.578 8.85081 14.5774 8.93206 14.6009 9.00553C14.6309 9.09893 14.6806 9.18597 14.7219 9.27584C14.7582 9.35482 14.798 9.43225 14.8294 9.51336C14.8616 9.5963 14.8657 9.68278 14.8405 9.76996C14.8319 9.79991 14.8144 9.80783 14.7911 9.79327C14.7583 9.77264 14.7288 9.74678 14.6975 9.72347C14.6595 9.69507 14.6241 9.66257 14.583 9.6401C14.5495 9.62159 14.5115 9.62541 14.4815 9.65975C14.4884 9.66497 14.4942 9.66907 14.4993 9.67387C14.5813 9.74693 14.6635 9.81927 14.7442 9.89374C14.7538 9.9025 14.7607 9.9203 14.7599 9.93401C14.7527 10.0494 14.7144 10.1541 14.6323 10.2372C14.5267 10.3442 14.4025 10.4013 14.2482 10.3651C14.2443 10.4226 14.2403 10.4325 14.2072 10.4503C13.9926 10.5666 13.7651 10.6351 13.5191 10.6305C13.3381 10.6274 13.1749 10.6847 13.0192 10.7718C12.9709 10.7988 12.919 10.8231 12.8658 10.8372C12.6976 10.8818 12.5249 10.8947 12.3514 10.8992C12.3372 10.8995 12.3232 10.9003 12.309 10.9011C12.3179 10.9111 12.3268 10.9142 12.3357 10.9163C12.4742 10.949 12.6145 10.9532 12.756 10.9429C12.8017 10.9396 12.8533 10.9297 12.8932 10.9458C13.0099 10.9933 13.1231 11.0501 13.2354 11.1079C13.2669 11.1242 13.2946 11.1319 13.3265 11.1201C13.3979 11.0934 13.4695 11.0669 13.539 11.036C13.6868 10.9703 13.8382 10.9307 14.0014 10.9532C14.0907 10.9653 14.1777 10.985 14.2556 11.0326C14.306 11.0637 14.3459 11.1032 14.3498 11.1677C14.3505 11.1767 14.3587 11.1868 14.3661 11.1935C14.387 11.2129 14.4101 11.2303 14.4312 11.2495C14.4934 11.3069 14.5197 11.3781 14.512 11.4621C14.5054 11.5328 14.4845 11.5445 14.423 11.5133C14.3933 11.4983 14.3624 11.486 14.3313 11.5098C14.3707 11.5349 14.4093 11.5575 14.4462 11.583C14.5014 11.6208 14.5211 11.6754 14.5191 11.7411C14.5133 11.9239 14.2977 12.0857 14.1126 12.0449C14.0515 12.0314 13.997 12.0073 13.9636 11.9495C13.9593 11.9419 13.9467 11.9338 13.9382 11.9344C13.8899 11.9371 13.8406 11.9368 13.7939 11.9472C13.7085 11.9666 13.6238 11.9871 13.5358 11.9704C13.4952 11.9626 13.4553 11.9515 13.4133 11.9419C13.3805 12.056 13.3265 12.1575 13.2545 12.2495C13.087 12.4623 12.8669 12.5971 12.613 12.6803C12.2837 12.7884 11.9455 12.8002 11.6068 12.7516C11.1172 12.6817 10.7702 12.4159 10.5829 11.9549C10.5366 11.8408 10.5127 11.7178 10.4778 11.5986C10.4217 11.407 10.3468 11.2228 10.2474 11.0487C10.0873 10.7692 9.87716 10.5392 9.58933 10.3874C9.26604 10.217 8.9224 10.183 8.56647 10.2463C8.49893 10.2583 8.43252 10.2757 8.35777 10.2925C8.48791 10.3003 8.60759 10.3029 8.72614 10.3149C9.05635 10.3482 9.3658 10.4473 9.64698 10.6254C9.98143 10.8375 10.2315 11.1155 10.3361 11.51C10.3919 11.7207 10.4703 11.9252 10.5682 12.121C10.6334 12.2521 10.7054 12.3778 10.8061 12.4856C10.9732 12.6647 11.1832 12.7658 11.4146 12.8309C11.4858 12.8508 11.5565 12.8729 11.6267 12.8955C11.6615 12.9068 11.6832 12.9314 11.6969 12.9666C11.7357 13.0672 11.7468 13.1699 11.7259 13.2757C11.6935 13.4422 11.6122 13.5835 11.5027 13.7098C11.4085 13.8187 11.2907 13.8983 11.1729 13.9778C11.1155 14.0161 11.0598 14.0578 11.0075 14.1029C10.9623 14.1413 10.9348 14.1942 10.9376 14.2545C10.9425 14.3623 10.9489 14.3794 11.0563 14.3436C11.0731 14.338 11.0898 14.3314 11.1062 14.3241C11.1939 14.2864 11.2812 14.248 11.3694 14.2111C11.5387 14.1403 11.7143 14.1142 11.8946 14.1576C12.0946 14.2053 12.2356 14.3227 12.299 14.5234C12.312 14.5645 12.3151 14.6082 12.2931 14.645C12.2825 14.6633 12.2552 14.6812 12.235 14.6818C12.2168 14.6823 12.1953 14.6616 12.1803 14.6453C12.1711 14.6351 12.1714 14.6162 12.1673 14.6012C12.1467 14.5238 12.1129 14.4554 12.0369 14.4178C12.0225 14.4106 12.0061 14.4088 11.9906 14.4041C12.0919 14.5092 12.1467 14.6282 12.1393 14.7716C12.1338 14.8806 12.0485 14.9515 11.9387 14.9453C11.9068 14.9435 11.8843 14.9285 11.8808 14.8974C11.8764 14.8597 11.8781 14.8215 11.8774 14.7835C11.8761 14.7383 11.8795 14.6922 11.8731 14.6479C11.8631 14.5751 11.8183 14.5278 11.7484 14.5053C11.7146 14.4946 11.6821 14.5003 11.6507 14.5163C11.6948 14.5254 11.7369 14.5386 11.7591 14.5799C11.7804 14.6195 11.8022 14.6607 11.8129 14.7038C11.836 14.7968 11.8248 14.8865 11.7393 14.9436C11.7009 14.9692 11.6489 14.9798 11.6017 14.9863C11.5004 15.0004 11.4032 14.9717 11.3053 14.9491C11.2465 14.9354 11.1856 14.9264 11.1257 14.9262C11.069 14.9261 11.0118 14.9381 10.9557 14.9481C10.614 15.0097 10.2707 14.9836 9.92279 14.9795C9.54652 14.9748 9.17024 14.9771 8.79396 14.9768C8.12039 14.9768 7.44668 14.9765 6.77269 14.9765C6.49447 14.9765 6.21611 14.9793 5.9379 14.9775C5.55427 14.9751 5.17475 14.9319 4.8037 14.8345C3.39029 14.4649 2.33253 13.6997 1.63536 12.4172C1.32804 11.8514 1.15255 11.2462 1.0908 10.6108C1.08331 10.5373 1.50551 11.3233 1.50141 11.2461Z" fill="#0D0D0D"/>
<path d="M12.5522 7.91387C12.4337 7.66108 12.4323 7.55426 12.5634 7.31504C12.6623 7.13446 12.9251 7.29512 12.8895 7.09349C12.8745 6.91828 12.691 6.72583 12.6569 6.68401C12.6151 6.63441 12.5918 6.58566 12.53 6.59824C12.4735 6.60982 12.42 6.63709 12.3745 6.67086C12.2138 6.79026 12.0649 6.92336 11.9442 7.08459C11.7262 7.37552 11.8161 7.552 12.0714 7.78401C12.1795 7.88179 12.5649 7.94085 12.5522 7.91387Z" fill="#E65270"/>
<path opacity="0.2" d="M12.3158 6.9545C12.3787 6.88583 12.4766 6.81942 12.5788 6.75131C12.633 6.71542 12.4715 7.15642 12.4245 7.27412C12.2702 7.65972 12.4724 7.89866 12.4167 7.86913C12.2943 7.80413 12.1195 7.57706 12.1074 7.43675C12.0938 7.28486 12.2118 7.06825 12.3158 6.9545Z" fill="#2B2B2B"/>
<path d="M12.5033 7.89039C12.3846 7.63774 12.3834 7.53092 12.5146 7.2917C12.6134 7.11127 12.6592 6.92941 12.6236 6.7275C12.6196 6.70503 12.6152 6.68214 12.6079 6.66038C12.5868 6.59977 12.5497 6.57009 12.4879 6.58281C12.4314 6.5944 12.3706 6.61347 12.3254 6.6471C12.1648 6.7665 12.0158 6.8996 11.8952 7.06082C11.7279 7.28393 11.7462 7.43625 11.873 7.60539C11.9093 7.65371 11.9316 7.6523 11.9784 7.66106C12.0389 7.6725 12.0512 7.58829 12.0319 7.55424C11.9877 7.47596 11.9586 7.39725 11.9531 7.33537C11.9397 7.18333 12.0247 7.01829 12.1287 6.90455C12.2251 6.79914 12.4199 6.63551 12.5529 6.59581C12.585 6.71888 12.5166 6.96446 12.4732 7.08371C12.4204 7.22939 12.2604 7.49517 12.3006 7.66841C12.3006 7.66841 12.3569 7.82864 12.4167 7.86933C12.4765 7.90974 12.5033 7.89039 12.5033 7.89039Z" fill="#0D0D0D"/>
<g opacity="0.2">
<path d="M5.29962 10.8064C5.28337 10.8073 5.2684 10.8056 5.2561 10.7989C5.27151 10.7981 5.28606 10.8009 5.29962 10.8064Z" fill="#8B4FBA"/>
</g>
<path opacity="0.2" d="M12.604 12.9245C12.7426 12.7139 12.8985 12.6427 13.0745 12.477C13.2419 12.3197 13.3705 12.13 13.5373 11.9755C13.6678 12.0028 13.8146 11.9807 13.9486 11.9875C14.0444 12.2241 14.5095 11.999 14.5521 11.8464L14.6138 11.9389C14.7479 12.203 14.2669 12.2207 13.9931 12.1933C13.8009 12.1742 12.9715 12.3922 12.9988 13.462C12.9054 13.6054 12.6854 13.4654 12.6851 13.6523C12.6849 13.8436 12.6881 14.181 12.8534 14.3028C12.806 14.4697 12.6417 14.2932 12.5964 14.2264C12.4949 14.0768 12.3499 13.8118 12.317 13.6345C12.2613 13.3316 12.4524 13.1546 12.604 12.9245Z" fill="#430A1D"/>
</g>
<defs>
<linearGradient id="paint0_linear_3335_25971" x1="4.96366" y1="-1.84446" x2="0.94106" y2="16.9268" gradientUnits="userSpaceOnUse">
<stop offset="0.3836" stop-color="#FAA100"/>
<stop offset="0.6584" stop-color="#BF73F2"/>
<stop offset="0.6649" stop-color="#C370E6"/>
<stop offset="0.6852" stop-color="#CC68C7"/>
<stop offset="0.7081" stop-color="#D461AB"/>
<stop offset="0.7341" stop-color="#DB5B95"/>
<stop offset="0.7643" stop-color="#E05784"/>
<stop offset="0.8017" stop-color="#E35479"/>
<stop offset="0.8543" stop-color="#E55272"/>
<stop offset="1" stop-color="#E65270"/>
</linearGradient>
<linearGradient id="paint1_linear_3335_25971" x1="7.23446" y1="-2.09507" x2="2.94969" y2="17.8999" gradientUnits="userSpaceOnUse">
<stop offset="0.3836" stop-color="#FAA100"/>
<stop offset="0.6584" stop-color="#BF73F2"/>
<stop offset="0.6649" stop-color="#C370E6"/>
<stop offset="0.6852" stop-color="#CC68C7"/>
<stop offset="0.7081" stop-color="#D461AB"/>
<stop offset="0.7341" stop-color="#DB5B95"/>
<stop offset="0.7643" stop-color="#E05784"/>
<stop offset="0.8017" stop-color="#E35479"/>
<stop offset="0.8543" stop-color="#E55272"/>
<stop offset="1" stop-color="#E65270"/>
</linearGradient>
<linearGradient id="paint2_linear_3335_25971" x1="7.93704" y1="-0.826027" x2="7.68204" y2="11.0356" gradientUnits="userSpaceOnUse">
<stop stop-color="#FAA7B5"/>
<stop offset="0.3836" stop-color="#FAA100"/>
<stop offset="0.7317" stop-color="#BF73F2"/>
</linearGradient>
<linearGradient id="paint3_linear_3335_25971" x1="4.77326" y1="0.393084" x2="7.63676" y2="5.32604" gradientUnits="userSpaceOnUse">
<stop stop-color="#F6E8A0"/>
<stop offset="1" stop-color="#E65271"/>
</linearGradient>
<linearGradient id="paint4_linear_3335_25971" x1="5.27659" y1="3.35719" x2="7.746" y2="7.6111" gradientUnits="userSpaceOnUse">
<stop stop-color="#F6E8A0"/>
<stop offset="1" stop-color="#E65271"/>
</linearGradient>
<linearGradient id="paint5_linear_3335_25971" x1="10.7944" y1="0.213348" x2="10.5096" y2="5.18297" gradientUnits="userSpaceOnUse">
<stop stop-color="#F6E8A0"/>
<stop offset="1" stop-color="#E65271"/>
</linearGradient>
<linearGradient id="paint6_linear_3335_25971" x1="10.5279" y1="5.17688" x2="8.88636" y2="-2.09584" gradientUnits="userSpaceOnUse">
<stop stop-color="#E65271"/>
<stop offset="0.3836" stop-color="#FAA100"/>
</linearGradient>
<linearGradient id="paint7_linear_3335_25971" x1="4.83181" y1="1.53716" x2="10.9087" y2="6.71367" gradientUnits="userSpaceOnUse">
<stop stop-color="#F6E8A0"/>
<stop offset="1" stop-color="#E65271"/>
</linearGradient>
<linearGradient id="paint8_linear_3335_25971" x1="10.3138" y1="5.15534" x2="4.40794" y2="6.76145" gradientUnits="userSpaceOnUse">
<stop stop-color="#FAA7B5"/>
<stop offset="0.3836" stop-color="#FAA100"/>
<stop offset="0.7317" stop-color="#BF73F2"/>
</linearGradient>
<linearGradient id="paint9_linear_3335_25971" x1="26.0337" y1="-1.74794" x2="-1.7055" y2="13.1249" gradientUnits="userSpaceOnUse">
<stop stop-color="#FAA7B5"/>
<stop offset="0.3836" stop-color="#FAA100"/>
<stop offset="0.7317" stop-color="#BF73F2"/>
</linearGradient>
<radialGradient id="paint10_radial_3335_25971" cx="0" cy="0" r="1" gradientTransform="matrix(-0.96255 -0.291561 0.562311 -1.85615 10.6219 7.34344)" gradientUnits="userSpaceOnUse">
<stop offset="0.0091" stop-color="white"/>
<stop offset="1" stop-color="white" stop-opacity="0"/>
</radialGradient>
<radialGradient id="paint11_radial_3335_25971" cx="0" cy="0" r="1" gradientUnits="userSpaceOnUse" gradientTransform="translate(5.28321 6.17441) rotate(180) scale(1.57235)">
<stop offset="0.0091" stop-color="white"/>
<stop offset="1" stop-color="white" stop-opacity="0"/>
</radialGradient>
<radialGradient id="paint12_radial_3335_25971" cx="0" cy="0" r="1" gradientUnits="userSpaceOnUse" gradientTransform="translate(5.28216 6.17461) rotate(180) scale(1.57169)">
<stop offset="0.0091" stop-color="white"/>
<stop offset="1" stop-color="white" stop-opacity="0"/>
</radialGradient>
<linearGradient id="paint13_linear_3335_25971" x1="14.631" y1="11.0645" x2="13.0751" y2="14.572" gradientUnits="userSpaceOnUse">
<stop offset="0.0041" stop-color="#FAA7B5"/>
<stop offset="0.3836" stop-color="#FAA100"/>
</linearGradient>
<linearGradient id="paint14_linear_3335_25971" x1="4.26878" y1="0.936861" x2="2.99322" y2="10.6306" gradientUnits="userSpaceOnUse">
<stop stop-color="#FAA7B5"/>
<stop offset="0.3836" stop-color="#FAA100"/>
<stop offset="0.7317" stop-color="#BF73F2"/>
</linearGradient>
<linearGradient id="paint15_linear_3335_25971" x1="3.20403" y1="0.797178" x2="1.92848" y2="10.4909" gradientUnits="userSpaceOnUse">
<stop stop-color="#FAA7B5"/>
<stop offset="0.3836" stop-color="#FAA100"/>
<stop offset="0.7317" stop-color="#BF73F2"/>
</linearGradient>
<linearGradient id="paint16_linear_3335_25971" x1="1.33074" y1="4.93081" x2="1.90366" y2="11.6762" gradientUnits="userSpaceOnUse">
<stop stop-color="#FAA7B5"/>
<stop offset="0.3836" stop-color="#FAA100"/>
<stop offset="0.7317" stop-color="#BF73F2"/>
</linearGradient>
<linearGradient id="paint17_linear_3335_25971" x1="11.5329" y1="-0.749384" x2="11.2779" y2="11.1133" gradientUnits="userSpaceOnUse">
<stop stop-color="#FAA7B5"/>
<stop offset="0.3836" stop-color="#FAA100"/>
<stop offset="0.7317" stop-color="#BF73F2"/>
</linearGradient>
<linearGradient id="paint18_linear_3335_25971" x1="13.935" y1="8.32546" x2="13.3036" y2="9.36736" gradientUnits="userSpaceOnUse">
<stop stop-color="#FAA7B5"/>
<stop offset="0.3836" stop-color="#FAA100"/>
<stop offset="0.7317" stop-color="#BF73F2"/>
</linearGradient>
<clipPath id="clip0_3335_25971">
<rect width="16" height="16" fill="white"/>
</clipPath>
<clipPath id="clip1_3335_25971">
<rect width="0.170575" height="0.199005" fill="white" transform="matrix(-1 0 0 -1 13.5319 8.82422)"/>
</clipPath>
</defs>
</svg>
