<svg width="16" height="16" viewBox="0 0 16 16" fill="none" xmlns="http://www.w3.org/2000/svg">
<path fill-rule="evenodd" clip-rule="evenodd" d="M8.25488 1.70508C9.63799 1.8257 10.7848 2.7521 11.2363 4.00977C12.7827 4.13029 13.9999 5.42275 14 7L13.9961 7.1543C13.9592 7.88195 13.6602 8.53873 13.1953 9.03906C13.3745 9.11509 13.5 9.2931 13.5 9.5V11.0654C14.3623 11.2877 15 12.0683 15 13C15 14.1046 14.1046 15 13 15C11.8954 15 11 14.1046 11 13C11 12.0683 11.6377 11.2877 12.5 11.0654V10H10.5V9.99805H8.5V11.0654C9.36232 11.2877 10 12.0683 10 13C10 14.1046 9.10457 15 8 15C6.89543 15 6 14.1046 6 13C6 12.0683 6.63768 11.2877 7.5 11.0654V9.99805H5.05566L5.03613 9.99902C5.02706 9.99951 5.01451 10 5 10H3.5V11.0654C4.36232 11.2877 5 12.0683 5 13C5 14.1046 4.10457 15 3 15C1.89543 15 1 14.1046 1 13C1 12.0683 1.63768 11.2877 2.5 11.0654V9.5C2.5 9.22386 2.72386 9 3 9C2.73405 8.64619 2.5599 8.22006 2.5127 7.75586L2.5 7.5C2.50006 6.30809 3.33411 5.31193 4.4502 5.06152C4.51878 3.18899 6.05785 1.69141 7.94727 1.69141L8.25488 1.70508ZM3 12C2.44772 12 2 12.4477 2 13C2 13.5523 2.44772 14 3 14C3.55228 14 4 13.5523 4 13C4 12.4477 3.55228 12 3 12ZM8 12C7.44772 12 7 12.4477 7 13C7 13.5523 7.44772 14 8 14C8.55228 14 9 13.5523 9 13C9 12.4477 8.55228 12 8 12ZM13 12C12.4477 12 12 12.4477 12 13C12 13.5523 12.4477 14 13 14C13.5523 14 14 13.5523 14 13C14 12.4477 13.5523 12 13 12ZM7.94727 2.69141C6.5668 2.69141 5.44753 3.81084 5.44727 5.19141C5.44727 5.27917 5.45133 5.3659 5.45996 5.4502L5.51562 5.99121L4.97168 6.00098C4.15626 6.01599 3.50007 6.6813 3.5 7.5L3.50781 7.65332C3.58431 8.40622 4.21753 8.99361 4.98926 8.99902C4.99137 8.99888 4.99375 8.99917 4.99609 8.99902C5.00358 8.99855 5.01535 8.99828 5.02832 8.99805H10.9688C10.9815 8.99825 10.9924 8.99858 11 8.99902C11.0026 8.99918 11.0055 8.99887 11.0078 8.99902C12.0399 8.99507 12.8872 8.21022 12.9893 7.2041L13 7C12.9999 5.89549 12.1045 5 11 5C10.9724 5 10.9524 5.00165 10.8916 5.00488L10.4736 5.02734L10.3779 4.62012C10.1352 3.58373 9.25061 2.79587 8.16699 2.70117L7.94727 2.69141Z" fill="#5D6A85"/>
</svg>
