<svg width="20" height="20" viewBox="0 0 20 20" xmlns="http://www.w3.org/2000/svg">
  <path fill-rule="evenodd" clip-rule="evenodd"
    d="M3.8066 1.66651C3.81545 1.66651 3.82431 1.66651 3.83317 1.66651H6.99984C7.00871 1.66651 7.01757 1.66651 7.02642 1.66651C7.23674 1.66648 7.44157 1.66646 7.61503 1.68063C7.80553 1.69619 8.03031 1.73292 8.25649 1.84816C8.5701 2.00795 8.82506 2.26292 8.98485 2.57652C9.1001 2.80271 9.13682 3.02749 9.15239 3.21798C9.16656 3.39145 9.16654 3.59628 9.16651 3.8066C9.16651 3.81545 9.16651 3.82431 9.16651 3.83317V6.99984C9.16651 7.00871 9.16651 7.01757 9.16651 7.02642C9.16654 7.23674 9.16656 7.44157 9.15239 7.61503C9.13682 7.80553 9.1001 8.03031 8.98485 8.25649C8.82506 8.5701 8.5701 8.82506 8.25649 8.98485C8.03031 9.1001 7.80553 9.13682 7.61503 9.15239C7.44157 9.16656 7.23674 9.16654 7.02642 9.16651C7.01757 9.16651 7.00871 9.16651 6.99984 9.16651H3.83317C3.82431 9.16651 3.81545 9.16651 3.8066 9.16651C3.59628 9.16654 3.39145 9.16656 3.21798 9.15239C3.02749 9.13682 2.80271 9.1001 2.57652 8.98485C2.26292 8.82506 2.00795 8.5701 1.84816 8.25649C1.73292 8.03031 1.69619 7.80553 1.68063 7.61503C1.66646 7.44157 1.66648 7.23674 1.66651 7.02642C1.66651 7.01757 1.66651 7.00871 1.66651 6.99984V3.83317C1.66651 3.82431 1.66651 3.81545 1.66651 3.8066C1.66648 3.59628 1.66646 3.39145 1.68063 3.21798C1.69619 3.02749 1.73292 2.80271 1.84816 2.57652C2.00795 2.26292 2.26292 2.00795 2.57652 1.84816C2.80271 1.73292 3.02749 1.69619 3.21798 1.68063C3.39145 1.66646 3.59628 1.66648 3.8066 1.66651ZM3.34272 3.34272C3.3424 3.34617 3.34208 3.34983 3.34176 3.3537C3.33382 3.45086 3.33317 3.58607 3.33317 3.83317V6.99984C3.33317 7.24695 3.33382 7.38216 3.34176 7.47931C3.34208 7.48318 3.3424 7.48684 3.34272 7.4903C3.34617 7.49062 3.34983 7.49094 3.3537 7.49126C3.45086 7.49919 3.58607 7.49984 3.83317 7.49984H6.99984C7.24695 7.49984 7.38216 7.49919 7.47931 7.49126C7.48318 7.49094 7.48684 7.49062 7.4903 7.4903C7.49062 7.48684 7.49094 7.48318 7.49126 7.47931C7.49919 7.38216 7.49984 7.24695 7.49984 6.99984V3.83317C7.49984 3.58607 7.49919 3.45086 7.49126 3.3537C7.49094 3.34983 7.49062 3.34617 7.4903 3.34272C7.48684 3.3424 7.48318 3.34208 7.47931 3.34176C7.38216 3.33382 7.24695 3.33317 6.99984 3.33317H3.83317C3.58607 3.33317 3.45086 3.33382 3.3537 3.34176C3.34983 3.34208 3.34617 3.3424 3.34272 3.34272ZM12.9733 1.66651H16.1931C16.4034 1.66648 16.6082 1.66646 16.7817 1.68063C16.9722 1.69619 17.197 1.73292 17.4232 1.84816C17.7368 2.00795 17.9917 2.26292 18.1515 2.57652C18.2668 2.80271 18.3035 3.02749 18.3191 3.21798C18.3332 3.39144 18.3332 3.59627 18.3332 3.80658V7.02644C18.3332 7.23675 18.3332 7.44157 18.3191 7.61503C18.3035 7.80553 18.2668 8.03031 18.1515 8.25649C17.9917 8.5701 17.7368 8.82506 17.4232 8.98485C17.197 9.1001 16.9722 9.13682 16.7817 9.15239C16.6082 9.16656 16.4034 9.16654 16.1931 9.16651H12.9733C12.7629 9.16654 12.5581 9.16656 12.3847 9.15239C12.1942 9.13682 11.9694 9.1001 11.7432 8.98485C11.4296 8.82506 11.1746 8.5701 11.0148 8.25649C10.8996 8.03031 10.8629 7.80553 10.8473 7.61503C10.8331 7.44157 10.8331 7.23675 10.8332 7.02644V3.80658C10.8331 3.59626 10.8331 3.39144 10.8473 3.21798C10.8629 3.02749 10.8996 2.80271 11.0148 2.57652C11.1746 2.26292 11.4296 2.00795 11.7432 1.84816C11.9694 1.73292 12.1942 1.69619 12.3847 1.68063C12.5581 1.66646 12.7629 1.66648 12.9733 1.66651ZM12.5094 3.34272C12.5091 3.34617 12.5087 3.34983 12.5084 3.3537C12.5005 3.45086 12.4998 3.58607 12.4998 3.83317V6.99984C12.4998 7.24695 12.5005 7.38216 12.5084 7.47931C12.5087 7.48318 12.5091 7.48684 12.5094 7.4903C12.5128 7.49062 12.5165 7.49094 12.5204 7.49126C12.6175 7.49919 12.7527 7.49984 12.9998 7.49984H16.1665C16.4136 7.49984 16.5488 7.49919 16.646 7.49126C16.6498 7.49094 16.6535 7.49062 16.657 7.4903C16.6573 7.48684 16.6576 7.48318 16.6579 7.47931C16.6659 7.38216 16.6665 7.24695 16.6665 6.99984V3.83317C16.6665 3.58607 16.6659 3.45086 16.6579 3.3537C16.6576 3.34983 16.6573 3.34617 16.657 3.34272C16.6535 3.3424 16.6498 3.34208 16.646 3.34176C16.5488 3.33382 16.4136 3.33317 16.1665 3.33317H12.9998C12.7527 3.33317 12.6175 3.33382 12.5204 3.34176C12.5165 3.34208 12.5128 3.3424 12.5094 3.34272ZM3.80658 10.8332H7.02644C7.23675 10.8331 7.44157 10.8331 7.61503 10.8473C7.80553 10.8629 8.03031 10.8996 8.25649 11.0148C8.5701 11.1746 8.82506 11.4296 8.98485 11.7432C9.1001 11.9694 9.13682 12.1942 9.15239 12.3847C9.16656 12.5581 9.16654 12.7629 9.16651 12.9733V16.1931C9.16654 16.4034 9.16656 16.6082 9.15239 16.7817C9.13682 16.9722 9.1001 17.197 8.98485 17.4232C8.82506 17.7368 8.5701 17.9917 8.25649 18.1515C8.03031 18.2668 7.80553 18.3035 7.61503 18.3191C7.44157 18.3332 7.23675 18.3332 7.02644 18.3332H3.80658C3.59627 18.3332 3.39144 18.3332 3.21798 18.3191C3.02749 18.3035 2.80271 18.2668 2.57652 18.1515C2.26292 17.9917 2.00795 17.7368 1.84816 17.4232C1.73292 17.197 1.69619 16.9722 1.68063 16.7817C1.66646 16.6082 1.66648 16.4034 1.66651 16.1931V12.9733C1.66648 12.7629 1.66646 12.5581 1.68063 12.3847C1.69619 12.1942 1.73292 11.9694 1.84816 11.7432C2.00795 11.4296 2.26292 11.1746 2.57652 11.0148C2.80271 10.8996 3.02749 10.8629 3.21798 10.8473C3.39144 10.8331 3.59627 10.8331 3.80658 10.8332ZM3.34272 12.5094C3.3424 12.5128 3.34208 12.5165 3.34176 12.5204C3.33382 12.6175 3.33317 12.7527 3.33317 12.9998V16.1665C3.33317 16.4136 3.33382 16.5488 3.34176 16.646C3.34208 16.6498 3.3424 16.6535 3.34272 16.657C3.34617 16.6573 3.34983 16.6576 3.3537 16.6579C3.45086 16.6659 3.58607 16.6665 3.83317 16.6665H6.99984C7.24695 16.6665 7.38216 16.6659 7.47931 16.6579C7.48318 16.6576 7.48684 16.6573 7.4903 16.657C7.49062 16.6535 7.49094 16.6498 7.49126 16.646C7.49919 16.5488 7.49984 16.4136 7.49984 16.1665V12.9998C7.49984 12.7527 7.49919 12.6175 7.49126 12.5204C7.49094 12.5165 7.49062 12.5128 7.4903 12.5094C7.48684 12.5091 7.48318 12.5087 7.47931 12.5084C7.38216 12.5005 7.24695 12.4998 6.99984 12.4998H3.83317C3.58607 12.4998 3.45086 12.5005 3.3537 12.5084C3.34983 12.5087 3.34617 12.5091 3.34272 12.5094ZM12.9732 10.8332H16.1931C16.4034 10.8331 16.6082 10.8331 16.7817 10.8473C16.9722 10.8629 17.197 10.8996 17.4232 11.0148C17.7368 11.1746 17.9917 11.4296 18.1515 11.7432C18.2668 11.9694 18.3035 12.1942 18.3191 12.3847C18.3332 12.5581 18.3332 12.7629 18.3332 12.9732V16.1931C18.3332 16.4034 18.3332 16.6082 18.3191 16.7817C18.3035 16.9722 18.2668 17.197 18.1515 17.4232C17.9917 17.7368 17.7368 17.9917 17.4232 18.1515C17.197 18.2668 16.9722 18.3035 16.7817 18.3191C16.6082 18.3332 16.4034 18.3332 16.1931 18.3332H12.9732C12.7629 18.3332 12.5581 18.3332 12.3847 18.3191C12.1942 18.3035 11.9694 18.2668 11.7432 18.1515C11.4296 17.9917 11.1746 17.7368 11.0148 17.4232C10.8996 17.197 10.8629 16.9722 10.8473 16.7817C10.8331 16.6082 10.8331 16.4034 10.8332 16.1931V12.9732C10.8331 12.7629 10.8331 12.5581 10.8473 12.3847C10.8629 12.1942 10.8996 11.9694 11.0148 11.7432C11.1746 11.4296 11.4296 11.1746 11.7432 11.0148C11.9694 10.8996 12.1942 10.8629 12.3847 10.8473C12.5581 10.8331 12.7629 10.8331 12.9732 10.8332ZM12.5094 12.5094C12.5091 12.5128 12.5087 12.5165 12.5084 12.5204C12.5005 12.6175 12.4998 12.7527 12.4998 12.9998V16.1665C12.4998 16.4136 12.5005 16.5488 12.5084 16.646C12.5087 16.6498 12.5091 16.6535 12.5094 16.657C12.5128 16.6573 12.5165 16.6576 12.5204 16.6579C12.6175 16.6659 12.7527 16.6665 12.9998 16.6665H16.1665C16.4136 16.6665 16.5488 16.6659 16.646 16.6579C16.6498 16.6576 16.6535 16.6573 16.657 16.657C16.6573 16.6535 16.6576 16.6498 16.6579 16.646C16.6659 16.5488 16.6665 16.4136 16.6665 16.1665V12.9998C16.6665 12.7527 16.6659 12.6175 16.6579 12.5204C16.6576 12.5165 16.6573 12.5128 16.657 12.5094C16.6535 12.5091 16.6498 12.5087 16.646 12.5084C16.5488 12.5005 16.4136 12.4998 16.1665 12.4998H12.9998C12.7527 12.4998 12.6175 12.5005 12.5204 12.5084C12.5165 12.5087 12.5128 12.5091 12.5094 12.5094Z" />
</svg>