<svg width="20" height="20" viewBox="0 0 20 20" xmlns="http://www.w3.org/2000/svg">
    <path
        d="M16.6422 4.73444L15.5611 3.42778C15.3511 3.16333 15.0322 3 14.6667 3H5.33333C4.96778 3 4.64889 3.16333 4.43111 3.42778L3.35778 4.73444C3.13222 4.99889 3 5.34889 3 5.72222V15.4444C3 16.3 3.7 17 4.55556 17H15.4444C16.3 17 17 16.3 17 15.4444V5.72222C17 5.34889 16.8678 4.99889 16.6422 4.73444ZM10 14.2778L5.72222 10H8.44444V8.44444H11.5556V10H14.2778L10 14.2778ZM4.64889 4.55556L5.27889 3.77778H14.6122L15.3433 4.55556H4.64889Z" />
</svg>
