<svg width="16" height="16" viewBox="0 0 16 16" xmlns="http://www.w3.org/2000/svg">
<path fill-rule="evenodd" clip-rule="evenodd" d="M1 0.333336C1.36819 0.333336 1.66667 0.631812 1.66667 1V13C1.66667 13.3682 1.36819 13.6667 1 13.6667C0.631812 13.6667 0.333336 13.3682 0.333336 13V1C0.333336 0.631812 0.631812 0.333336 1 0.333336ZM8.80473 1.86193C9.06508 2.12228 9.06508 2.54438 8.80474 2.80473L5.27614 6.33334H13C13.3682 6.33334 13.6667 6.63181 13.6667 7C13.6667 7.36819 13.3682 7.66667 13 7.66667H5.27613L8.80474 11.1953C9.06508 11.4557 9.06508 11.8778 8.80473 12.1381C8.54438 12.3985 8.12227 12.3985 7.86193 12.1381L3.19527 7.4714C2.93492 7.21105 2.93492 6.78895 3.19527 6.5286L7.86193 1.86193C8.12228 1.60158 8.54438 1.60158 8.80473 1.86193Z" />
</svg>
