<svg width="16" height="16" viewBox="0 0 16 16" xmlns="http://www.w3.org/2000/svg">
<path fill-rule="evenodd" clip-rule="evenodd" d="M13 0.333336C13.3682 0.333336 13.6667 0.631812 13.6667 1V13C13.6667 13.3682 13.3682 13.6667 13 13.6667C12.6318 13.6667 12.3333 13.3682 12.3333 13V1C12.3333 0.631812 12.6318 0.333336 13 0.333336ZM5.19527 1.86193C5.45562 1.60158 5.87773 1.60158 6.13808 1.86193L10.8047 6.5286C11.0651 6.78895 11.0651 7.21105 10.8047 7.4714L6.13808 12.1381C5.87773 12.3985 5.45562 12.3985 5.19527 12.1381C4.93492 11.8778 4.93492 11.4557 5.19526 11.1953L8.72385 7.66667H1C0.631812 7.66667 0.333336 7.36819 0.333336 7C0.333336 6.63181 0.631812 6.33334 1 6.33334H8.72384L5.19527 2.80473C4.93492 2.54438 4.93492 2.12227 5.19527 1.86193Z" />
</svg>
