<svg width="24" height="24"
  xmlns="http://www.w3.org/2000/svg">
  <path d="M2.614 5.057a.814.814 0 0 0-.505.396c-.074.139-.089.231-.089.547 0 .331.013.403.1.558.11.197.294.34.515.401.2.056 18.53.056 18.73 0a.842.842 0 0 0 .515-.401c.087-.156.1-.226.099-.558-.001-.433-.081-.645-.301-.801-.293-.209.199-.199-9.694-.196-7.438.002-9.236.012-9.37.054m0 6a.814.814 0 0 0-.505.396c-.074.139-.089.231-.089.547 0 .331.013.403.1.558.11.197.294.34.515.401.2.056 18.53.056 18.73 0a.842.842 0 0 0 .515-.401c.087-.156.1-.226.099-.558-.001-.433-.081-.645-.301-.801-.293-.209.199-.199-9.694-.196-7.438.002-9.236.012-9.37.054m0 6a.814.814 0 0 0-.505.396c-.074.139-.089.231-.089.547 0 .331.013.403.1.558.11.197.294.34.515.401.199.056 12.531.056 12.73 0a.842.842 0 0 0 .515-.401c.087-.156.1-.226.099-.558-.001-.433-.081-.645-.301-.801-.29-.207-.036-.199-6.694-.196-4.975.002-6.237.013-6.37.054" fill-rule="evenodd"/>
</svg>