<svg width="16" height="16" viewBox="0 0 16 16" xmlns="http://www.w3.org/2000/svg">
  <path
    d="M9.45528 1.57951C11.024 1.11814 12.6807 1.17711 13.7658 2.26213C14.5082 3.00451 14.7704 4.0284 14.715 5.08146C14.666 6.01318 14.3675 7.01837 13.8791 8.01408C14.1172 8.49946 14.3094 8.98189 14.4484 9.45451C14.9098 11.0232 14.8509 12.68 13.7658 13.7651C12.6807 14.8502 11.024 14.9091 9.45528 14.4477C8.98241 14.3086 8.49952 14.1166 8.01388 13.8783C7.5285 14.1164 7.04607 14.3087 6.57345 14.4477C5.00474 14.9091 3.348 14.8502 2.2629 13.7651C1.52101 13.0231 1.25872 12.0001 1.31368 10.9477C1.36238 10.0154 1.65996 9.00945 2.14864 8.0131C1.9107 7.52788 1.71924 7.04515 1.58028 6.57268C1.11892 5.00398 1.17781 3.34721 2.2629 2.26213C3.34798 1.17704 5.00476 1.11815 6.57345 1.57951C7.04592 1.71847 7.52865 1.90993 8.01388 2.14787C8.49938 1.90973 8.98254 1.71856 9.45528 1.57951ZM3.17598 9.71428C3.02045 10.1883 2.93221 10.6319 2.91134 11.0307C2.87221 11.7798 3.06582 12.3043 3.39473 12.6332C3.87173 13.1102 4.79053 13.3042 6.12227 12.9125C6.18571 12.8939 6.24932 12.8731 6.31368 12.852C5.73191 12.4324 5.16181 11.9491 4.62032 11.4076C4.07881 10.8661 3.5956 10.2961 3.17598 9.71428ZM6.12227 3.11467C4.79053 2.72298 3.87173 2.91697 3.39473 3.39396C2.91774 3.87096 2.72375 4.78976 3.11544 6.1215C3.49745 7.42013 4.39632 8.92094 5.75216 10.2768C6.48195 11.0065 7.25434 11.6025 8.01388 12.058C8.77382 11.6024 9.54737 11.007 10.2775 10.2768C10.4641 10.0903 10.6421 9.9002 10.8117 9.70842C11.1044 9.37769 11.6097 9.34659 11.9406 9.63908C12.2716 9.93179 12.3027 10.438 12.01 10.769C11.8187 10.9852 11.6179 11.1982 11.4084 11.4076C10.8667 11.9494 10.2961 12.4322 9.71407 12.852C9.77872 12.8732 9.84273 12.8938 9.90645 12.9125C11.2382 13.3042 12.157 13.1102 12.634 12.6332C13.111 12.1562 13.305 11.2374 12.9133 9.90568C12.7716 9.42414 12.5582 8.91529 12.2775 8.39592C12.2741 8.3895 12.2711 8.38289 12.2678 8.37639C11.7923 7.50128 11.1242 6.5981 10.2775 5.75139C9.5472 5.02104 8.77399 4.42388 8.01388 3.96818C7.25404 4.42382 6.48223 5.02131 5.75216 5.75139C5.55719 5.94635 5.37104 6.14445 5.19454 6.34514C4.90281 6.6768 4.3974 6.70897 4.06563 6.4174C3.73386 6.12561 3.70158 5.62027 3.99337 5.2885C4.19246 5.06213 4.4013 4.83857 4.62032 4.61955C5.16198 4.07789 5.73172 3.59394 6.31368 3.17424C6.24942 3.15316 6.18561 3.1333 6.12227 3.11467ZM8.0002 7.86662C7.92684 7.86682 7.86756 7.92607 7.86739 7.99943L7.87813 8.05119C7.89827 8.09907 7.94504 8.13307 8.0002 8.13322C8.05556 8.13322 8.10309 8.09922 8.12325 8.05119L8.13399 7.99943L8.12325 7.94768C8.10981 7.91606 8.08451 7.89089 8.05294 7.87736L8.0002 7.86662ZM12.634 3.39396C12.157 2.91703 11.2381 2.723 9.90645 3.11467C9.84283 3.13339 9.77862 3.15305 9.71407 3.17424C10.2963 3.59404 10.8665 4.07769 11.4084 4.61955C11.9496 5.16069 12.4323 5.73054 12.8518 6.31193C13.007 5.83864 13.0964 5.39574 13.1174 4.99748C13.1568 4.24771 12.9631 3.7231 12.634 3.39396ZM9.467 7.99943C9.467 8.80945 8.81022 9.46623 8.0002 9.46623C7.24101 9.46604 6.61635 8.88924 6.54122 8.14982L6.53438 7.99943L6.54122 7.85002C6.6162 7.11044 7.24089 6.53282 8.0002 6.53264C8.81011 6.53264 9.46683 7.18956 9.467 7.99943Z" />
</svg>