<svg width="16" height="16" viewBox="0 0 16 16" fill="none" xmlns="http://www.w3.org/2000/svg">
<g clip-path="url(#clip0_3335_25814)">
<path d="M16 0H0V16H16V0Z" fill="url(#paint0_linear_3335_25814)"/>
<path fill-rule="evenodd" clip-rule="evenodd" d="M10.165 7.034C9.95305 7.034 9.78084 6.86212 9.78084 6.65075C9.78084 6.43938 9.95305 6.2673 10.165 6.2673C10.3768 6.2673 10.549 6.43938 10.549 6.65075C10.549 6.86212 10.3768 7.034 10.165 7.034ZM9.19189 9.36481C8.98013 9.36481 8.80792 9.19292 8.80792 8.98156C8.80792 8.77019 8.98013 8.59831 9.19189 8.59831C9.40366 8.59831 9.57607 8.77019 9.57607 8.98156C9.57607 9.19292 9.40366 9.36481 9.19189 9.36481ZM6.85648 8.97637C6.64491 8.97637 6.4727 8.80449 6.4727 8.59312C6.4727 8.38176 6.64491 8.20967 6.85648 8.20967C7.06844 8.20967 7.24065 8.38176 7.24065 8.59312C7.24065 8.80449 7.06844 8.97637 6.85648 8.97637ZM5.88355 11.113C5.67199 11.113 5.49958 10.9411 5.49958 10.7297C5.49958 10.5183 5.67199 10.3465 5.88355 10.3465C6.09552 10.3465 6.26773 10.5183 6.26773 10.7297C6.26773 10.9411 6.09552 11.113 5.88355 11.113ZM10.165 5.8685C9.7329 5.8685 9.38129 6.21944 9.38129 6.65075C9.38129 6.91516 9.51414 7.14826 9.71612 7.29003L9.35052 8.21565C9.29918 8.20509 9.24603 8.1995 9.19189 8.1995C8.84827 8.1995 8.55879 8.42283 8.45351 8.73091L7.63541 8.54527C7.61004 8.13669 7.27242 7.81087 6.85648 7.81087C6.42455 7.81087 6.07314 8.16182 6.07314 8.59312C6.07314 8.79472 6.15185 8.97697 6.27792 9.11575L5.92091 9.95145C5.90812 9.95065 5.89634 9.94766 5.88355 9.94766C5.45163 9.94766 5.10002 10.2984 5.10002 10.7297C5.10002 11.1608 5.45163 11.5118 5.88355 11.5118C6.31567 11.5118 6.66729 11.1608 6.66729 10.7297C6.66729 10.4529 6.52185 10.2109 6.30389 10.0717L6.61894 9.3345C6.69446 9.35863 6.77317 9.37518 6.85648 9.37518C7.16474 9.37518 7.42944 9.19512 7.5571 8.93649L8.42374 9.1331C8.49467 9.49203 8.81191 9.76361 9.19189 9.76361C9.62402 9.76361 9.97563 9.41286 9.97563 8.98156C9.97563 8.74846 9.87074 8.54128 9.70812 8.39771L10.0923 7.42543C10.1167 7.42782 10.14 7.4328 10.165 7.4328C10.5969 7.4328 10.9486 7.08186 10.9486 6.65075C10.9486 6.21944 10.5969 5.8685 10.165 5.8685ZM8.00001 13.2011C6.05376 13.2011 4.59957 12.6169 4.59957 12.0944V4.63021C5.26164 5.1682 6.66309 5.45254 8.00421 5.45254C9.33933 5.45254 10.7348 5.17059 11.4005 4.63719V12.0944C11.4005 12.6169 9.94606 13.2011 8.00001 13.2011ZM8.00421 2.79871C10.0056 2.79871 11.4005 3.39292 11.4005 3.92632C11.4005 4.45952 10.0056 5.05374 8.00421 5.05374C6.00262 5.05374 4.60796 4.45952 4.60796 3.92632C4.60796 3.39292 6.00262 2.79871 8.00421 2.79871ZM11.8 3.92632C11.8 2.9349 9.84437 2.3999 8.00421 2.3999C6.16404 2.3999 4.2084 2.9349 4.2084 3.92632C4.2084 3.92792 4.2088 3.92971 4.2088 3.93131H4.20001V12.0944C4.20001 13.0723 6.15785 13.5999 8.00001 13.5999C9.84218 13.5999 11.8 13.0723 11.8 12.0944V3.93131H11.7996C11.7996 3.92971 11.8 3.92792 11.8 3.92632Z" fill="white"/>
</g>
<defs>
<linearGradient id="paint0_linear_3335_25814" x1="0" y1="1600" x2="1600" y2="0" gradientUnits="userSpaceOnUse">
<stop stop-color="#4D27A8"/>
<stop offset="1" stop-color="#A166FF"/>
</linearGradient>
<clipPath id="clip0_3335_25814">
<rect width="16" height="16" fill="white"/>
</clipPath>
</defs>
</svg>
