<svg width="16" height="16" viewBox="0 0 16 16" fill="none" xmlns="http://www.w3.org/2000/svg">
<g clip-path="url(#clip0_3335_25962)">
<path d="M16.0243 0H0.024292V16H16.0243V0Z" fill="url(#paint0_linear_3335_25962)"/>
<path fill-rule="evenodd" clip-rule="evenodd" d="M13 4.8C13 4.5794 12.8206 4.4 12.6 4.4C12.3794 4.4 12.2 4.5794 12.2 4.8C12.2 5.0206 12.3794 5.2 12.6 5.2C12.8206 5.2 13 5.0206 13 4.8ZM8.39998 9.4C8.39998 9.1794 8.22058 9 7.99998 9C7.77938 9 7.59998 9.1794 7.59998 9.4C7.59998 9.6206 7.77938 9.8 7.99998 9.8C8.22058 9.8 8.39998 9.6206 8.39998 9.4ZM7.99998 6.6C8.22058 6.6 8.39998 6.4206 8.39998 6.2C8.39998 5.9794 8.22058 5.8 7.99998 5.8C7.77938 5.8 7.59998 5.9794 7.59998 6.2C7.59998 6.4206 7.77938 6.6 7.99998 6.6ZM3.79998 10.6C3.79998 10.3794 3.62058 10.2 3.39998 10.2C3.17938 10.2 2.99998 10.3794 2.99998 10.6C2.99998 10.8206 3.17938 11 3.39998 11C3.62058 11 3.79998 10.8206 3.79998 10.6ZM13.4 4.8C13.4 5.2412 13.0412 5.6 12.6 5.6C12.4338 5.6 12.2792 5.549 12.1514 5.4618L8.68298 8.9896C8.75558 9.11 8.79998 9.2494 8.79998 9.4C8.79998 9.8412 8.44118 10.2 7.99998 10.2C7.55878 10.2 7.19998 9.8412 7.19998 9.4C7.19998 9.0284 7.45578 8.7178 7.79998 8.6284V6.9716C7.67858 6.94 7.56898 6.8806 7.47698 6.8004L4.07498 10.1748C4.15318 10.2982 4.19998 10.4434 4.19998 10.6C4.19998 11.0412 3.84118 11.4 3.39998 11.4C2.95878 11.4 2.59998 11.0412 2.59998 10.6C2.59998 10.1588 2.95878 9.8 3.39998 9.8C3.53918 9.8 3.66838 9.839 3.78238 9.9018L7.24818 6.464C7.21898 6.3808 7.19998 6.293 7.19998 6.2C7.19998 5.7588 7.55878 5.4 7.99998 5.4C8.44118 5.4 8.79998 5.7588 8.79998 6.2C8.79998 6.5716 8.54418 6.8822 8.19998 6.9716V8.6284C8.27018 8.6466 8.33598 8.6744 8.39718 8.7098L11.8886 5.1584C11.8338 5.05 11.8 4.9294 11.8 4.8C11.8 4.3588 12.1588 4 12.6 4C13.0412 4 13.4 4.3588 13.4 4.8ZM3.39998 3.4H12.6V3.6H13V3.2C13 3.0896 12.9106 3 12.8 3H3.19998C3.08938 3 2.99998 3.0896 2.99998 3.2V9.4H3.39998V3.4ZM12.6 6H13V12.8C13 12.9104 12.9106 13 12.8 13H3.19998C3.08938 13 2.99998 12.9104 2.99998 12.8V11.8H3.39998V12.6H12.6V6Z" fill="white"/>
</g>
<defs>
<linearGradient id="paint0_linear_3335_25962" x1="0.024292" y1="1600" x2="1600.02" y2="0" gradientUnits="userSpaceOnUse">
<stop stop-color="#4D27A8"/>
<stop offset="1" stop-color="#A166FF"/>
</linearGradient>
<clipPath id="clip0_3335_25962">
<rect width="16" height="16" fill="white"/>
</clipPath>
</defs>
</svg>
