<svg width="16" height="16" viewBox="0 0 16 16" fill="none" xmlns="http://www.w3.org/2000/svg">
<g clip-path="url(#clip0_3335_25820)">
<path d="M16 0H0V16H16V0Z" fill="url(#paint0_linear_3335_25820)"/>
<path fill-rule="evenodd" clip-rule="evenodd" d="M10.8068 5.20681C10.8068 5.31881 10.7156 5.41001 10.6034 5.41001C10.4916 5.41001 10.4004 5.31881 10.4004 5.20681C10.4004 5.09481 10.4916 5.00362 10.6034 5.00362C10.7156 5.00362 10.8068 5.09481 10.8068 5.20681ZM9.60038 7.20019C9.60038 7.08999 9.68998 7.00019 9.80038 7.00019C9.91078 7.00019 10.0004 7.08999 10.0004 7.20019C10.0004 7.31038 9.91078 7.40018 9.80038 7.40018C9.68998 7.40018 9.60038 7.31038 9.60038 7.20019ZM9.60038 11.0001C9.60038 10.8899 9.68998 10.8001 9.80038 10.8001C9.91078 10.8001 10.0004 10.8899 10.0004 11.0001C10.0004 11.1103 9.91078 11.2001 9.80038 11.2001C9.68998 11.2001 9.60038 11.1103 9.60038 11.0001ZM11.6004 8.40017C11.6004 8.51037 11.5108 8.60017 11.4004 8.60017C11.29 8.60017 11.2004 8.51037 11.2004 8.40017C11.2004 8.28997 11.29 8.20017 11.4004 8.20017C11.5108 8.20017 11.6004 8.28997 11.6004 8.40017ZM13 9.05456L11.9926 8.47657C11.9958 8.45137 12.0004 8.42637 12.0004 8.40017C12.0004 8.06937 11.7312 7.80018 11.4004 7.80018C11.0694 7.80018 10.8004 8.06937 10.8004 8.40017C10.8004 8.73096 11.0694 9.00016 11.4004 9.00016C11.5602 9.00016 11.7046 8.93636 11.8122 8.83436L12.7772 9.38796L11.911 9.82115C11.8432 9.85515 11.8004 9.92435 11.8004 10.0001V11.6883L9.39658 13.1675L8.20058 12.4841V11.2001H9.23718C9.31998 11.4323 9.53998 11.6001 9.80038 11.6001C10.1312 11.6001 10.4004 11.3309 10.4004 11.0001C10.4004 10.6691 10.1312 10.4001 9.80038 10.4001C9.53998 10.4001 9.31998 10.5677 9.23718 10.8001H8.20058V8.00017C8.20058 7.92997 8.16358 7.86478 8.10338 7.82858L7.10318 7.22858L6.89738 7.57158L7.80058 8.11337V8.70156L6.60038 9.62475V8.80016C6.60038 8.73936 6.57278 8.68176 6.52538 8.64397L5.60038 7.90398V6.90719L6.71118 6.1666C6.76698 6.1294 6.80038 6.067 6.80038 6.0002V4.80022H6.40038V5.8932L5.40258 6.55819L4.40038 5.8928V4.31502L5.40038 3.73183V5.40021H5.80038V3.49844L6.60098 3.03144L7.80018 3.72323L7.80038 6.2002C7.80038 6.272 7.83878 6.3382 7.90118 6.3738L9.20838 7.12079C9.20478 7.14699 9.20038 7.17299 9.20038 7.20019C9.20038 7.53098 9.46938 7.80018 9.80038 7.80018C10.1312 7.80018 10.4004 7.53098 10.4004 7.20019C10.4004 6.86939 10.1312 6.60019 9.80038 6.60019C9.64158 6.60019 9.49798 6.66319 9.39058 6.76419L8.20038 6.084L8.20018 3.72363L9.39278 3.03544L11.6004 4.50722V5.00022H11.1702C11.0858 4.76902 10.8636 4.60362 10.6034 4.60362C10.2708 4.60362 10.0004 4.87422 10.0004 5.20681C10.0004 5.53941 10.2708 5.81 10.6034 5.81C10.8686 5.81 11.0942 5.63821 11.175 5.40021H11.6004V6.0002C11.6004 6.072 11.6388 6.1382 11.7012 6.1738L13 6.91619V9.05456ZM6.60398 13.1675L5.97338 12.7795L7.11658 11.9629L6.88418 11.6373L5.60358 12.5519L4.20038 11.6883V10.1133L5.10318 9.57155L4.89738 9.22856L3.99158 9.77215L3.00038 9.27656L3.00018 8.12357L4.08978 7.57898L3.91098 7.22118L3.00018 7.67638L3.00038 6.91619L4.19258 6.235L5.20038 6.90399V7.89618L4.08978 8.63357L4.31098 8.96676L5.39158 8.24917L6.20038 8.89616V9.93255L5.27838 10.6415L5.52218 10.9585L7.80058 9.20616V12.4839L6.60398 13.1675ZM13.2992 6.62659L12.0004 5.8842V4.40022C12.0004 4.33322 11.967 4.27083 11.9112 4.23383L9.51118 2.63385C9.44798 2.59185 9.36638 2.58905 9.30038 2.62705L8.00078 3.37704L6.70038 2.62705C6.63798 2.59105 6.56138 2.59105 6.49958 2.62745L4.09958 4.02743C4.03798 4.06323 4.00038 4.12903 4.00038 4.20023V5.8842L2.70118 6.62659C2.63878 6.66199 2.60038 6.72839 2.60038 6.80019V6.88359C2.60018 6.88779 2.59998 6.89179 2.59998 6.89599V9.07276C2.59998 9.07676 2.60018 9.08076 2.60038 9.08456V9.40015C2.60038 9.47595 2.64318 9.54515 2.71098 9.57895L3.80038 10.1237V11.8001C3.80038 11.8695 3.83618 11.9339 3.89538 11.9703L6.49538 13.5703C6.52758 13.5901 6.56398 13.6001 6.60038 13.6001C6.63458 13.6001 6.66878 13.5913 6.69958 13.5737L8.00058 12.8305L9.30118 13.5737C9.36418 13.6099 9.44258 13.6085 9.50518 13.5703L12.1052 11.9703C12.1644 11.9339 12.2004 11.8695 12.2004 11.8001V10.1237L13.2894 9.57895C13.3572 9.54515 13.4 9.47595 13.4 9.40015V6.80019C13.4 6.72839 13.3614 6.66219 13.2992 6.62659Z" fill="white"/>
</g>
<defs>
<linearGradient id="paint0_linear_3335_25820" x1="0" y1="1600" x2="1600" y2="0" gradientUnits="userSpaceOnUse">
<stop stop-color="#055F4E"/>
<stop offset="1" stop-color="#56C0A7"/>
</linearGradient>
<clipPath id="clip0_3335_25820">
<rect width="16" height="16" fill="white"/>
</clipPath>
</defs>
</svg>
