<svg width="16" height="16" viewBox="0 0 16 16" fill="none" xmlns="http://www.w3.org/2000/svg">
<g clip-path="url(#clip0_3335_25884)">
<path d="M16 0H0V16H16V0Z" fill="url(#paint0_linear_3335_25884)"/>
<path fill-rule="evenodd" clip-rule="evenodd" d="M6.60005 4.6001H7.00005V4.2001H6.60005V4.6001ZM6.20005 4.8001V4.0001C6.20005 3.8897 6.28945 3.8001 6.40005 3.8001H7.20005C7.31065 3.8001 7.40005 3.8897 7.40005 4.0001V4.8001C7.40005 4.9105 7.31065 5.0001 7.20005 5.0001H6.40005C6.28945 5.0001 6.20005 4.9105 6.20005 4.8001ZM8.20005 3.4001H8.60005V3.0001H8.20005V3.4001ZM7.80005 3.6001V2.8001C7.80005 2.6897 7.88945 2.6001 8.00005 2.6001H8.80005C8.91065 2.6001 9.00005 2.6897 9.00005 2.8001V3.6001C9.00005 3.7105 8.91065 3.8001 8.80005 3.8001H8.00005C7.88945 3.8001 7.80005 3.7105 7.80005 3.6001ZM8.60005 5.4001H9.00005V5.0001H8.60005V5.4001ZM8.40005 4.6001H9.20005C9.31065 4.6001 9.40005 4.6897 9.40005 4.8001V5.6001C9.40005 5.7105 9.31065 5.8001 9.20005 5.8001H8.40005C8.28945 5.8001 8.20005 5.7105 8.20005 5.6001V4.8001C8.20005 4.6897 8.28945 4.6001 8.40005 4.6001ZM8.00005 6.7001C7.64785 6.7001 6.37085 6.6851 5.54025 6.4809L7.56925 9.6933C7.58925 9.7253 7.60005 9.7623 7.60005 9.8001V10.2555C7.88085 10.3369 8.14025 10.3377 8.40005 10.2587V9.8001C8.40005 9.7623 8.41085 9.7253 8.43085 9.6933L10.4598 6.4809C9.62925 6.6851 8.35225 6.7001 8.00005 6.7001ZM4.85085 6.1385C4.81905 6.0921 4.80005 6.0421 4.80005 5.9875C4.80005 5.4185 6.67685 5.3133 7.79565 5.3011L7.79985 5.7011C6.42545 5.7161 5.58565 5.8729 5.28965 5.9897C5.60365 6.1209 6.52865 6.3001 8.00005 6.3001C9.46765 6.3001 10.3914 6.1219 10.7078 5.9909C10.5786 5.9387 10.311 5.8615 9.77585 5.7961L9.82425 5.3991C11.0366 5.5471 11.2 5.7795 11.2 5.9875C11.2 6.0421 11.181 6.0921 11.1492 6.1385L8.80005 9.8581V10.4001C8.80005 10.4817 8.75045 10.5553 8.67465 10.5857C8.45645 10.6733 8.23725 10.7169 8.01325 10.7169C7.79125 10.7169 7.56485 10.6739 7.33085 10.5877C7.25245 10.5587 7.20005 10.4839 7.20005 10.4001V9.8581L4.85085 6.1385ZM9.38485 11.9235C9.41585 11.9983 9.39865 12.0843 9.34145 12.1415L8.14145 13.3415C8.10245 13.3805 8.05125 13.4001 8.00005 13.4001C7.94885 13.4001 7.89765 13.3805 7.85865 13.3415L6.65865 12.1415C6.60145 12.0843 6.58425 11.9983 6.61525 11.9235C6.64605 11.8489 6.71925 11.8001 6.80005 11.8001H7.40005V11.2001H7.80005V12.0001C7.80005 12.1105 7.71065 12.2001 7.60005 12.2001H7.28285L8.00005 12.9173L8.71725 12.2001H8.40005C8.28945 12.2001 8.20005 12.1105 8.20005 12.0001V11.2001H8.60005V11.8001H9.20005C9.28085 11.8001 9.35405 11.8489 9.38485 11.9235Z" fill="white"/>
</g>
<defs>
<linearGradient id="paint0_linear_3335_25884" x1="0" y1="1600" x2="1600" y2="0" gradientUnits="userSpaceOnUse">
<stop stop-color="#4D27A8"/>
<stop offset="1" stop-color="#A166FF"/>
</linearGradient>
<clipPath id="clip0_3335_25884">
<rect width="16" height="16" fill="white"/>
</clipPath>
</defs>
</svg>
