<svg width="16" height="16" viewBox="0 0 16 16" fill="none" xmlns="http://www.w3.org/2000/svg">
<g clip-path="url(#clip0_3335_25808)">
<path d="M16 0H0V16H16V0Z" fill="url(#paint0_linear_3335_25808)"/>
<path fill-rule="evenodd" clip-rule="evenodd" d="M7.65902 5.44525C8.55748 5.44525 9.04958 5.64654 9.13931 5.74749C9.04958 5.84843 8.55748 6.04972 7.65902 6.04972C6.76057 6.04972 6.26846 5.84843 6.17874 5.74749C6.26846 5.64654 6.76057 5.44525 7.65902 5.44525ZM7.55679 7.05638C7.52384 7.03945 7.50061 7.0058 7.50061 6.96591C7.50061 6.90989 7.54587 6.86415 7.60126 6.86415C7.61734 6.86415 7.63203 6.86879 7.64572 6.87584L7.55679 7.05638ZM8.7135 8.71808C8.69862 8.73017 8.66447 8.75354 8.5942 8.78175C8.53167 8.80674 8.45763 8.8293 8.37366 8.84905C8.15053 8.90144 7.87619 8.93025 7.60106 8.93025C6.99938 8.93025 6.58012 8.80029 6.4898 8.71969L6.2232 6.23006C6.63193 6.3973 7.23401 6.45271 7.65902 6.45271C8.07689 6.45271 8.66586 6.39891 9.0744 6.23812L8.91499 7.33302C8.61465 7.21979 8.23986 7.05537 7.88473 6.88249C7.8486 6.75716 7.73604 6.66488 7.60126 6.66488C7.43768 6.66488 7.30468 6.80008 7.30468 6.96591C7.30468 7.13214 7.43768 7.26714 7.60126 7.26714C7.63997 7.26714 7.67689 7.25908 7.71063 7.24538C8.20691 7.49039 8.57673 7.64755 8.85504 7.74447L8.7135 8.71808ZM5.77437 5.76925L6.09576 8.76986C6.11839 9.32679 7.53992 9.33323 7.60106 9.33323C7.90537 9.33323 8.21147 9.30059 8.46299 9.24176C8.56601 9.21758 8.65931 9.18897 8.7401 9.15653C8.97474 9.06223 9.09782 8.93367 9.10635 8.7747L9.24015 7.85509C9.33127 7.87383 9.40571 7.88209 9.46506 7.88209C9.65186 7.88209 9.70109 7.80552 9.73503 7.75273C9.77077 7.69712 9.78109 7.62881 9.76441 7.56011C9.7263 7.40214 9.50337 7.1942 9.35449 7.07068L9.54268 5.7769L9.54089 5.7767C9.54169 5.76683 9.54486 5.75756 9.54486 5.74749C9.54486 5.19076 8.35936 5.04226 7.65902 5.04226C6.95868 5.04226 5.77318 5.19076 5.77318 5.74749C5.77318 5.75494 5.77576 5.76159 5.77616 5.76905L5.77437 5.76925ZM7.56711 4.01184C9.29732 4.01184 10.705 5.44061 10.705 7.19682C10.705 8.95302 9.29732 10.3818 7.56711 10.3818C5.83671 10.3818 4.42907 8.95302 4.42907 7.19682C4.42907 5.44061 5.83671 4.01184 7.56711 4.01184ZM2.59703 8.36688V8.76986H4.38362V8.74609C4.95473 9.9498 6.16524 10.7848 7.56711 10.7848C9.51608 10.7848 11.102 9.17526 11.102 7.19682C11.102 5.21837 9.51608 3.60885 7.56711 3.60885C6.0507 3.60885 4.7582 4.58488 4.25717 5.94898H2.59703V6.35196H4.13528C4.07335 6.61128 4.03702 6.88027 4.03404 7.15793H2.20001V7.56091H4.05032C4.07831 7.84078 4.14124 8.10957 4.22898 8.36688H2.59703ZM13.416 13.2069C13.1758 13.4511 12.7593 13.4525 12.5193 13.2091L10.3865 11.0441C10.7298 10.7844 11.0361 10.4779 11.2987 10.1352L13.4184 12.297C13.5377 12.4183 13.6034 12.5799 13.603 12.7517C13.6028 12.924 13.5365 13.0854 13.416 13.2069ZM13.6995 12.0125L11.5323 9.8019C12.0127 9.05114 12.293 8.15692 12.293 7.19682C12.293 4.55163 10.1729 2.3999 7.56711 2.3999C5.69457 2.3999 3.99652 3.52382 3.2408 5.2633L3.60407 5.4257C4.29627 3.83251 5.85179 2.80289 7.56711 2.80289C9.95419 2.80289 11.896 4.77388 11.896 7.19682C11.896 9.61955 9.95419 11.5907 7.56711 11.5907C5.97249 11.5907 4.51146 10.7048 3.75375 9.27863L3.40437 9.47005C4.23116 11.0268 5.82638 11.9937 7.56711 11.9937C8.47827 11.9937 9.32968 11.73 10.0521 11.2746L12.2388 13.4942C12.433 13.6913 12.6912 13.7999 12.9656 13.7999C13.2415 13.7999 13.5014 13.6905 13.6963 13.4924C13.8916 13.2954 13.9996 13.0326 14 12.7523C14.0006 12.4725 13.8936 12.2097 13.6995 12.0125Z" fill="white"/>
</g>
<defs>
<linearGradient id="paint0_linear_3335_25808" x1="0" y1="1600" x2="1600" y2="0" gradientUnits="userSpaceOnUse">
<stop stop-color="#4D27A8"/>
<stop offset="1" stop-color="#A166FF"/>
</linearGradient>
<clipPath id="clip0_3335_25808">
<rect width="16" height="16" fill="white"/>
</clipPath>
</defs>
</svg>
