<svg width="16" height="16" viewBox="0 0 16 16" fill="none" xmlns="http://www.w3.org/2000/svg">
<g clip-path="url(#clip0_3335_25826)">
<path d="M16 0H0V16H16V0Z" fill="url(#paint0_linear_3335_25826)"/>
<path fill-rule="evenodd" clip-rule="evenodd" d="M12.1672 8.5785L12.244 8.0377C12.9522 8.4619 12.9614 8.6371 12.9612 8.6419C12.96 8.6429 12.8392 8.7437 12.1672 8.5785ZM11.7786 8.4705C10.5546 8.1001 8.84998 7.3181 8.16018 6.9921C8.16018 6.9893 8.16098 6.9867 8.16098 6.9839C8.16098 6.7189 7.94538 6.5033 7.68018 6.5033C7.41538 6.5033 7.19978 6.7189 7.19978 6.9839C7.19978 7.2489 7.41538 7.4645 7.68018 7.4645C7.79658 7.4645 7.90218 7.4211 7.98558 7.3521C8.79718 7.7363 10.4886 8.5069 11.7216 8.8709L11.234 12.3121C11.2326 12.3215 11.232 12.3309 11.232 12.3403C11.232 12.6433 9.89058 13.1999 7.69878 13.1999C5.48378 13.1999 4.12818 12.6433 4.12818 12.3403C4.12818 12.3311 4.12758 12.3221 4.12638 12.3131L3.10758 4.8717C3.98938 5.4787 5.88598 5.7999 7.69998 5.7999C9.51118 5.7999 11.4046 5.4799 12.2882 4.8747L11.7786 8.4705ZM2.99998 4.0955C3.01438 3.8323 4.52678 2.7999 7.69998 2.7999C10.8728 2.7999 12.3854 3.8321 12.4 4.0955V4.1853C12.226 4.7755 10.266 5.3999 7.69998 5.3999C5.12958 5.3999 3.16858 4.7735 2.99998 4.1825V4.0955ZM12.8 4.0999C12.8 3.4069 10.8132 2.3999 7.69998 2.3999C4.58678 2.3999 2.59998 3.4069 2.59998 4.0999L2.61878 4.2507L3.72838 12.3555C3.75498 13.2619 6.17218 13.5999 7.69878 13.5999C9.59318 13.5999 11.6058 13.1643 11.6318 12.3561L12.111 8.9767C12.3776 9.0405 12.597 9.0731 12.7732 9.0731C13.0098 9.0731 13.1698 9.0153 13.2668 8.8997C13.3464 8.8049 13.3768 8.6901 13.354 8.5679C13.3022 8.2911 12.9736 7.9927 12.3044 7.6109L12.7796 4.2585L12.8 4.0999Z" fill="white"/>
</g>
<defs>
<linearGradient id="paint0_linear_3335_25826" x1="0" y1="1600" x2="1600" y2="0" gradientUnits="userSpaceOnUse">
<stop stop-color="#1B660F"/>
<stop offset="1" stop-color="#6CAE3E"/>
</linearGradient>
<clipPath id="clip0_3335_25826">
<rect width="16" height="16" fill="white"/>
</clipPath>
</defs>
</svg>
