<svg width="24" height="24" viewBox="0 0 24 24" fill="none" xmlns="http://www.w3.org/2000/svg">
<path fill-rule="evenodd" clip-rule="evenodd" d="M3.00012 3.27902V20.7206C3.00012 22.5317 7.02963 23.9999 11.9999 23.9999V3.27902H3.00012Z" fill="#0072C6"/>
<path fill-rule="evenodd" clip-rule="evenodd" d="M11.8769 23.9997H12.0002C16.9705 23.9997 21 22.5321 21 20.7211V3.27945H11.8769V24V23.9997Z" fill="#0072C6"/>
<path opacity="0.15" fill-rule="evenodd" clip-rule="evenodd" d="M11.8769 23.9997H12.0002C16.9705 23.9997 21 22.5321 21 20.7211V3.27945H11.8769V24V23.9997Z" fill="white"/>
<path fill-rule="evenodd" clip-rule="evenodd" d="M20.9997 3.27899C20.9997 5.08975 16.9702 6.55762 11.9999 6.55762C7.02963 6.55762 3.00012 5.08975 3.00012 3.27899C3.00012 1.46823 7.02963 0.000366211 11.9999 0.000366211C16.9702 0.000366211 20.9997 1.46823 20.9997 3.27899Z" fill="white"/>
<path fill-rule="evenodd" clip-rule="evenodd" d="M19.1598 3.08976C19.1598 4.28524 15.9544 5.25302 12.0002 5.25302C8.04596 5.25302 4.83994 4.28524 4.83994 3.08976C4.83994 1.89429 8.04596 0.926514 12.0002 0.926514C15.9544 0.926514 19.1598 1.89489 19.1598 3.08976Z" fill="#7FBA00"/>
<path fill-rule="evenodd" clip-rule="evenodd" d="M17.6595 4.41239C18.5967 4.0467 19.1601 3.58891 19.1601 3.09122C19.1598 1.89575 15.9544 0.927368 11.9996 0.927368C8.04476 0.927368 4.83994 1.89575 4.83994 3.09122C4.83994 3.58861 5.40302 4.0467 6.3405 4.41239C7.64937 3.9012 9.69503 3.57151 11.9999 3.57151C14.3047 3.57151 16.3498 3.9012 17.6595 4.41239Z" fill="#B8D432"/>
<path fill-rule="evenodd" clip-rule="evenodd" d="M9.14184 15.3863C9.14184 15.9284 8.94655 16.3481 8.55536 16.6454C8.16417 16.9427 7.62478 17.0918 6.93569 17.0918C6.34951 17.0918 5.85962 16.9856 5.46603 16.7729V15.4976C5.92022 15.8855 6.4206 16.0796 6.96719 16.0796C7.23119 16.0796 7.43548 16.0265 7.57948 15.92C7.72348 15.8135 7.79547 15.6731 7.79547 15.4973C7.79547 15.3248 7.72618 15.1748 7.58758 15.0473C7.44898 14.9198 7.16699 14.7551 6.7419 14.5532C5.87552 14.1446 5.44263 13.5861 5.44263 12.8802C5.44263 12.3678 5.63132 11.9568 6.00931 11.6472C6.38731 11.3376 6.88859 11.1831 7.51408 11.1831C8.06877 11.1831 8.52776 11.2566 8.89285 11.4024V12.5937C8.51006 12.3279 8.07417 12.1953 7.58578 12.1953C7.34038 12.1953 7.14629 12.2475 7.00379 12.3522C6.93605 12.3989 6.88104 12.4619 6.84374 12.5353C6.80645 12.6086 6.78804 12.6902 6.7902 12.7725C6.7902 12.9531 6.8475 13.1013 6.96269 13.2168C7.07789 13.3323 7.31308 13.4751 7.66948 13.6451C8.20046 13.8977 8.57846 14.1536 8.80465 14.414C9.03085 14.6744 9.14184 14.999 9.14184 15.3863ZM15.2527 14.0957C15.2527 14.7677 15.1006 15.3512 14.797 15.8447C14.4934 16.3382 14.0656 16.685 13.5139 16.8845L15.1612 18.4183H13.498L12.3218 17.0915C11.8175 17.0732 11.3624 16.9388 10.9571 16.6892C10.5518 16.4396 10.2386 16.0976 10.0184 15.6632C9.79823 15.2288 9.68753 14.7446 9.68753 14.2109C9.68753 13.6187 9.80693 13.0908 10.0457 12.6273C10.2845 12.1638 10.6205 11.8071 11.0537 11.5575C11.4869 11.3079 11.9828 11.1831 12.5432 11.1831C13.0655 11.1831 13.5337 11.304 13.9471 11.5458C14.3605 11.7876 14.6809 12.1311 14.9095 12.5775C15.1381 13.0239 15.2527 13.5303 15.2527 14.0957ZM13.9063 14.1677C13.9063 13.5885 13.7809 13.1313 13.5298 12.795C13.2788 12.4587 12.9359 12.2907 12.5 12.2907C12.0563 12.2907 11.7014 12.4593 11.4344 12.7962C11.1674 13.1331 11.0345 13.5825 11.0345 14.1428C11.0345 14.7008 11.165 15.146 11.4263 15.4793C11.6876 15.8126 12.0347 15.9791 12.4679 15.9791C12.9092 15.9791 13.2587 15.8177 13.5175 15.4952C13.7764 15.1727 13.9063 14.7305 13.9063 14.1677ZM19.5741 16.9919H16.1917V11.2791H17.4709V15.9482H19.5738L19.5741 16.9919Z" fill="white"/>
</svg>
