<svg width="16" height="16" viewBox="0 0 16 16" xmlns="http://www.w3.org/2000/svg">
<path fill-rule="evenodd" clip-rule="evenodd" d="M6.9998 2.99984C6.9998 2.44755 7.44752 1.99984 7.9998 1.99984C8.55209 1.99984 8.9998 2.44755 8.9998 2.99984C8.9998 3.14723 8.96818 3.28682 8.91111 3.41258C8.61238 3.36001 8.30718 3.33317 7.9998 3.33317C7.69243 3.33317 7.38722 3.36001 7.0885 3.41258C7.03143 3.28682 6.9998 3.14723 6.9998 2.99984ZM13.8726 11.3244C13.9336 11.43 13.9874 11.5246 14.0335 11.6082C14.1023 11.7326 14.1627 11.8479 14.2067 11.9467C14.2285 11.9956 14.2526 12.0545 14.2713 12.1169C14.2853 12.1635 14.3197 12.2842 14.3054 12.4305C14.2975 12.5108 14.2795 12.6703 14.1866 12.8332C14.0938 12.996 13.9656 13.0927 13.9004 13.1404C13.7943 13.218 13.6881 13.2513 13.6351 13.2659C13.5727 13.2832 13.512 13.2934 13.4617 13.3002C13.3611 13.3136 13.244 13.3205 13.1219 13.3247C12.8786 13.3332 12.5383 13.3332 12.1096 13.3332H12.1095H12.1095H12.1095H10.5825C10.2864 14.4833 9.24236 15.3332 7.9998 15.3332C6.75724 15.3332 5.71318 14.4833 5.41715 13.3332H3.89013H3.8901H3.89007H3.89004C3.46129 13.3332 3.12103 13.3332 2.87767 13.3247C2.7556 13.3205 2.63848 13.3136 2.53789 13.3002C2.48758 13.2934 2.42691 13.2832 2.36446 13.2659C2.31156 13.2513 2.20532 13.218 2.09916 13.1404C2.03401 13.0927 1.90586 12.996 1.81297 12.8332C1.72008 12.6703 1.70206 12.5108 1.69421 12.4305C1.67991 12.2842 1.7143 12.1635 1.72827 12.1169C1.74702 12.0545 1.77107 11.9956 1.79288 11.9467C1.83686 11.8479 1.89735 11.7326 1.96609 11.6082C2.10363 11.3592 2.30871 11.0124 2.57128 10.5683L2.57799 10.557C2.9863 9.86645 3.33314 8.87161 3.33314 7.4665C3.33314 6.33698 3.85166 5.27675 4.73476 4.51141C5.05843 4.23089 5.42208 3.99734 5.81268 3.81415C5.7182 3.56055 5.66647 3.28609 5.66647 2.99984C5.66647 1.71117 6.71114 0.666504 7.9998 0.666504C9.28847 0.666504 10.3331 1.71117 10.3331 2.99984C10.3331 3.05167 10.3314 3.10311 10.3281 3.15411C9.40086 3.40353 8.59199 3.9418 8.00391 4.66651C8.00254 4.6665 8.00117 4.6665 7.9998 4.6665C7.65217 4.6665 7.31226 4.71223 6.99035 4.79856C6.98191 4.80104 6.97344 4.80334 6.96493 4.80548C6.45196 4.94688 5.98567 5.19168 5.608 5.51899C4.9908 6.0539 4.66647 6.75719 4.66647 7.4665C4.66647 9.1038 4.25882 10.334 3.7257 11.2356C3.54232 11.5457 3.39369 11.7972 3.27744 11.9985C3.45029 11.9998 3.65783 11.9998 3.90526 11.9998H11.4614C11.4743 11.9999 11.4871 12 11.5 12C11.5129 12 11.5257 11.9999 11.5386 11.9998H12.0943C12.3418 11.9998 12.5493 11.9998 12.7222 11.9985C12.696 11.9531 12.6681 11.9052 12.6386 11.8547C13.08 11.7396 13.4949 11.5592 13.8726 11.3244ZM7.9998 13.9998C7.50628 13.9998 7.07539 13.7317 6.84485 13.3332H9.15476C8.92422 13.7317 8.49333 13.9998 7.9998 13.9998Z" />
<circle cx="11.5" cy="7.5" r="4" fill="#6927DA"/>
</svg>
