<svg width="16" height="16" viewBox="0 0 16 16" xmlns="http://www.w3.org/2000/svg">
<path fill-rule="evenodd" clip-rule="evenodd" d="M5.81292 3.8144C5.71844 3.56079 5.66671 3.28634 5.66671 3.00008C5.66671 1.71142 6.71138 0.666748 8.00004 0.666748C9.28871 0.666748 10.3334 1.71142 10.3334 3.00008C10.3334 3.28634 10.2816 3.56079 10.1872 3.8144C10.5778 3.99758 10.9414 4.23113 11.2651 4.51165C12.1482 5.277 12.6667 6.33722 12.6667 7.46675C12.6667 8.87185 13.0136 9.8667 13.4219 10.5572L13.4287 10.5688C13.6912 11.0127 13.8963 11.3595 14.0338 11.6084C14.1025 11.7328 14.163 11.8482 14.207 11.9469C14.2288 11.9959 14.2528 12.0547 14.2716 12.1171C14.2856 12.1637 14.3199 12.2844 14.3056 12.4307C14.2978 12.511 14.2798 12.6706 14.1869 12.8334C14.094 12.9962 13.9658 13.093 13.9007 13.1406C13.7945 13.2182 13.6883 13.2515 13.6354 13.2662C13.5729 13.2835 13.5123 13.2937 13.462 13.3004C13.3614 13.3139 13.2443 13.3207 13.1222 13.325C12.8788 13.3334 12.5386 13.3334 12.1098 13.3334H10.5827C10.2867 14.4836 9.2426 15.3334 8.00004 15.3334C6.75748 15.3334 5.71341 14.4836 5.41739 13.3334H3.89038C3.46162 13.3334 3.12128 13.3334 2.87792 13.325C2.75584 13.3207 2.63872 13.3139 2.53813 13.3004C2.48782 13.2937 2.42715 13.2835 2.36471 13.2662C2.3118 13.2515 2.20557 13.2182 2.0994 13.1406C2.03426 13.093 1.9061 12.9962 1.81321 12.8334C1.72032 12.6706 1.70231 12.511 1.69445 12.4307C1.68015 12.2844 1.71454 12.1637 1.72852 12.1171C1.74726 12.0547 1.77132 11.9959 1.79313 11.9469C1.8371 11.8482 1.89759 11.7328 1.96634 11.6084C2.10386 11.3595 2.30889 11.0127 2.57142 10.5687L2.57824 10.5572C2.98654 9.86669 3.33338 8.87185 3.33338 7.46675C3.33338 6.33722 3.85191 5.277 4.735 4.51165C5.05867 4.23113 5.42232 3.99759 5.81292 3.8144ZM7.00004 3.00008C7.00004 2.4478 7.44776 2.00008 8.00004 2.00008C8.55233 2.00008 9.00004 2.4478 9.00004 3.00008C9.00004 3.14747 8.96842 3.28707 8.91135 3.41282C8.61262 3.36026 8.30742 3.33341 8.00005 3.33341C7.69267 3.33341 7.38746 3.36026 7.08873 3.41283C7.03167 3.28707 7.00004 3.14747 7.00004 3.00008ZM8.00004 14.0001C8.49356 14.0001 8.92446 13.7319 9.155 13.3334H6.84508C7.07562 13.7319 7.50652 14.0001 8.00004 14.0001Z" />
</svg>
