<svg width="16" height="16" viewBox="0 0 16 16" xmlns="http://www.w3.org/2000/svg">
<path fill-rule="evenodd" clip-rule="evenodd" d="M7.9998 1.99984C7.44752 1.99984 6.9998 2.44755 6.9998 2.99984C6.9998 3.14723 7.03143 3.28682 7.0885 3.41258C7.38722 3.36001 7.69243 3.33317 7.9998 3.33317C8.30718 3.33317 8.61238 3.36001 8.91111 3.41258C8.96818 3.28682 8.9998 3.14723 8.9998 2.99984C8.9998 2.44755 8.55209 1.99984 7.9998 1.99984ZM10.1869 3.81416C10.2814 3.56055 10.3331 3.28609 10.3331 2.99984C10.3331 1.71117 9.28847 0.666504 7.9998 0.666504C6.71114 0.666504 5.66647 1.71117 5.66647 2.99984C5.66647 3.28609 5.7182 3.56055 5.81268 3.81415C5.42208 3.99734 5.05843 4.23089 4.73476 4.51141C3.85166 5.27675 3.33314 6.33698 3.33314 7.4665C3.33314 8.87161 2.9863 9.86645 2.57799 10.557L2.57128 10.5683C2.30871 11.0124 2.10363 11.3592 1.96609 11.6082C1.89735 11.7326 1.83686 11.8479 1.79288 11.9467C1.77107 11.9956 1.74702 12.0545 1.72827 12.1169C1.7143 12.1635 1.67991 12.2842 1.69421 12.4305C1.70206 12.5108 1.72008 12.6703 1.81297 12.8332C1.90586 12.996 2.03401 13.0927 2.09916 13.1404C2.20532 13.218 2.31156 13.2513 2.36446 13.2659C2.42691 13.2832 2.48758 13.2934 2.53789 13.3002C2.63848 13.3136 2.7556 13.3205 2.87767 13.3247C3.12105 13.3332 3.46134 13.3332 3.89013 13.3332H5.41715C5.71318 14.4833 6.75724 15.3332 7.9998 15.3332C9.24236 15.3332 10.2864 14.4833 10.5825 13.3332H12.1095C12.5383 13.3332 12.8786 13.3332 13.1219 13.3247C13.244 13.3205 13.3611 13.3136 13.4617 13.3002C13.512 13.2934 13.5727 13.2832 13.6351 13.2659C13.6881 13.2513 13.7943 13.218 13.9004 13.1404C13.9656 13.0927 14.0938 12.996 14.1866 12.8332C14.2795 12.6703 14.2975 12.5108 14.3054 12.4305C14.3197 12.2842 14.2853 12.1635 14.2713 12.1169C14.2526 12.0545 14.2285 11.9956 14.2067 11.9467C14.1627 11.8479 14.1023 11.7326 14.0335 11.6082C13.896 11.3593 13.691 11.0126 13.4285 10.5687L13.4216 10.557C13.0133 9.86645 12.6665 8.87161 12.6665 7.4665C12.6665 6.33698 12.1479 5.27675 11.2649 4.51141C10.9412 4.23089 10.5775 3.99734 10.1869 3.81416ZM9.00925 4.79856C9.01769 4.80104 9.02617 4.80334 9.03469 4.80548C9.54765 4.94688 10.0139 5.19168 10.3916 5.51899C11.0088 6.0539 11.3331 6.75719 11.3331 7.4665C11.3331 9.1038 11.7408 10.334 12.2739 11.2356C12.4573 11.5457 12.6059 11.7972 12.7222 11.9985C12.5493 11.9998 12.3418 11.9998 12.0943 11.9998H3.90526C3.65783 11.9998 3.45029 11.9998 3.27744 11.9985C3.39369 11.7972 3.54232 11.5457 3.7257 11.2356C4.25882 10.334 4.66647 9.1038 4.66647 7.4665C4.66647 6.75719 4.9908 6.0539 5.608 5.51899C5.98567 5.19168 6.45196 4.94688 6.96493 4.80548C6.97344 4.80334 6.98191 4.80104 6.99035 4.79856C7.31226 4.71223 7.65217 4.6665 7.9998 4.6665C8.34744 4.6665 8.68734 4.71223 9.00925 4.79856ZM6.84485 13.3332C7.07539 13.7317 7.50628 13.9998 7.9998 13.9998C8.49333 13.9998 8.92422 13.7317 9.15476 13.3332H6.84485Z" />
</svg>
