<svg width="16" height="16" viewBox="0 0 16 16" xmlns="http://www.w3.org/2000/svg">
<circle cx="11.5" cy="7.5" r="4" fill="#6927DA"/>
<path fill-rule="evenodd" clip-rule="evenodd" d="M5.66671 3.00008C5.66671 3.28634 5.71844 3.56079 5.81292 3.8144C5.42232 3.99759 5.05867 4.23113 4.735 4.51165C3.85191 5.277 3.33338 6.33722 3.33338 7.46675C3.33338 8.87185 2.98654 9.86669 2.57824 10.5572L2.57142 10.5687L2.57141 10.5688C2.30889 11.0127 2.10386 11.3595 1.96634 11.6084C1.89759 11.7328 1.8371 11.8482 1.79313 11.9469C1.77132 11.9959 1.74726 12.0547 1.72852 12.1171C1.71454 12.1637 1.68015 12.2844 1.69445 12.4307C1.70231 12.511 1.72032 12.6706 1.81321 12.8334C1.9061 12.9962 2.03426 13.093 2.0994 13.1406C2.20557 13.2182 2.3118 13.2515 2.36471 13.2662C2.42715 13.2835 2.48782 13.2937 2.53813 13.3004C2.63872 13.3139 2.75584 13.3207 2.87792 13.325C3.12124 13.3334 3.46153 13.3334 3.8902 13.3334H3.89038H5.41739C5.71341 14.4836 6.75748 15.3334 8.00004 15.3334C9.2426 15.3334 10.2867 14.4836 10.5827 13.3334H12.1098H12.11C12.5386 13.3334 12.8789 13.3334 13.1222 13.325C13.2443 13.3207 13.3614 13.3139 13.462 13.3004C13.5123 13.2937 13.5729 13.2835 13.6354 13.2662C13.6883 13.2515 13.7945 13.2182 13.9007 13.1406C13.9658 13.093 14.094 12.9962 14.1869 12.8334C14.2798 12.6706 14.2978 12.511 14.3056 12.4307C14.3199 12.2844 14.2856 12.1637 14.2716 12.1171C14.2528 12.0547 14.2288 11.9959 14.207 11.9469C14.163 11.8482 14.1025 11.7328 14.0338 11.6084C13.9876 11.5248 13.9337 11.4301 13.8727 11.3244C13.1838 11.7527 12.3708 12 11.5 12C9.01472 12 7 9.98528 7 7.5C7 5.42001 8.41119 3.66962 10.3284 3.15404C10.3317 3.10314 10.3334 3.05181 10.3334 3.00008C10.3334 1.71142 9.28871 0.666748 8.00004 0.666748C6.71138 0.666748 5.66671 1.71142 5.66671 3.00008ZM8.00004 2.00008C7.44776 2.00008 7.00004 2.4478 7.00004 3.00008C7.00004 3.14747 7.03167 3.28707 7.08873 3.41283C7.38746 3.36026 7.69267 3.33341 8.00005 3.33341C8.30742 3.33341 8.61262 3.36026 8.91135 3.41282C8.96842 3.28707 9.00004 3.14747 9.00004 3.00008C9.00004 2.4478 8.55233 2.00008 8.00004 2.00008ZM9.155 13.3334C8.92446 13.7319 8.49356 14.0001 8.00004 14.0001C7.50652 14.0001 7.07562 13.7319 6.84508 13.3334H9.155Z"/>
</svg>
