<svg width="16" height="16" viewBox="0 0 16 16" xmlns="http://www.w3.org/2000/svg">
<path d="M7.13149 12.763C8.27003 12.7628 9.37576 12.3816 10.2726 11.6802L13.0924 14.5L13.9994 13.593L11.1796 10.7733C11.8813 9.87631 12.2627 8.77033 12.263 7.63149C12.263 4.80212 9.96087 2.5 7.13149 2.5C4.30212 2.5 2 4.80212 2 7.63149C2 10.4609 4.30212 12.763 7.13149 12.763ZM7.13149 3.78287C9.25401 3.78287 10.9801 5.50898 10.9801 7.63149C10.9801 9.75401 9.25401 11.4801 7.13149 11.4801C5.00898 11.4801 3.28287 9.75401 3.28287 7.63149C3.28287 5.50898 5.00898 3.78287 7.13149 3.78287Z"/>
</svg>
