<svg width="16" height="17" viewBox="0 0 16 17" fill="none" xmlns="http://www.w3.org/2000/svg">
<path d="M4.08535 14.7995L0.974654 9.39911C0.808416 9.11066 0.808416 8.75502 0.974654 8.46657L4.08535 3.06637C4.25136 2.77814 4.55792 2.60055 4.88973 2.6001H11.114C11.4447 2.60167 11.7497 2.77926 11.915 3.06637L15.0253 8.46657C15.1915 8.75502 15.1915 9.11066 15.0253 9.39911L11.9146 14.7995C11.7486 15.0878 11.442 15.2654 11.1102 15.2658H4.88749C4.55613 15.2647 4.25069 15.0871 4.08468 14.7995H4.08535Z" fill="#4386FA"/>
<path opacity="0.1" d="M9.94304 7.19385C9.94304 7.19385 10.8077 9.27281 9.62889 10.4513C8.45003 11.6297 6.30347 10.8754 6.30347 10.8754L10.6699 15.264H11.1132C11.4452 15.2636 11.7518 15.0858 11.9176 14.7978L13.9768 11.2239L9.94304 7.19385Z" fill="black"/>
<path d="M10.9646 11.4479L10.0112 10.49C10.0008 10.4794 9.98893 10.4703 9.9759 10.4632C10.3814 9.93959 10.5726 9.28074 10.5103 8.62084C10.4481 7.96095 10.1372 7.34966 9.64097 6.91151C9.14473 6.47337 8.50051 6.24135 7.83954 6.26271C7.17858 6.28407 6.5506 6.55721 6.08356 7.02648C5.61652 7.49576 5.34555 8.12585 5.32586 8.7884C5.30617 9.45094 5.53925 10.0961 5.9776 10.5924C6.41595 11.0887 7.02659 11.3988 7.68512 11.4596C8.34364 11.5203 9.0005 11.3271 9.52187 10.9194C9.52867 10.9317 9.53717 10.943 9.54712 10.953L10.5028 11.9108C10.5308 11.9389 10.5689 11.9547 10.6086 11.9547C10.6482 11.9547 10.6863 11.9389 10.7144 11.9108L10.9646 11.66C10.9926 11.6318 11.0084 11.5937 11.0084 11.5539C11.0084 11.5142 10.9926 11.476 10.9646 11.4479V11.4479ZM7.91983 10.8284C7.53313 10.8285 7.1551 10.7136 6.83356 10.4983C6.51201 10.283 6.26139 9.97693 6.11339 9.61885C5.96539 9.26077 5.92665 8.86674 6.00208 8.4866C6.07751 8.10645 6.26372 7.75726 6.53715 7.4832C6.81059 7.20913 7.15897 7.02249 7.53824 6.94689C7.91751 6.87128 8.31063 6.91011 8.66788 7.05845C9.02514 7.2068 9.33047 7.458 9.54528 7.78029C9.76009 8.10257 9.87473 8.48147 9.87468 8.86906C9.87462 9.3887 9.66865 9.88704 9.30205 10.2545C8.93546 10.6219 8.43827 10.8284 7.91983 10.8284V10.8284ZM6.67014 8.76448V9.57429C6.7946 9.79444 6.97469 9.97808 7.19254 10.1062V8.75955L6.67014 8.76448ZM7.64768 8.09306V10.2815C7.82036 10.3134 7.9974 10.3134 8.17008 10.2815V8.09306H7.64768ZM9.15901 9.5725V9.09279H8.63706V10.1006C8.8546 9.97282 9.03477 9.78992 9.15946 9.57026L9.15901 9.5725Z" fill="white"/>
</svg>
