<svg width="16" height="17" viewBox="0 0 16 17" xmlns="http://www.w3.org/2000/svg">
<path d="M1.45429 2.50004C1.2066 2.49682 1.0032 2.6949 1.00004 2.94242C0.9997 2.96841 1.00162 2.99441 1.00579 3.02006L2.90993 14.5714C2.9589 14.8632 3.21043 15.0777 3.50654 15.0802H12.6415C12.8636 15.083 13.0544 14.9229 13.09 14.7037L14.9941 3.02232C15.0338 2.77795 14.8677 2.54774 14.6232 2.5081C14.5975 2.50393 14.5715 2.50201 14.5455 2.50235L1.45429 2.50004ZM9.47228 10.8486H6.55666L5.7672 6.72703H10.1788L9.47228 10.8486Z" fill="#2684FF"/>
<path d="M14.3767 6.72095H10.1705L9.46452 10.8393H6.55122L3.11133 14.9196C3.22034 15.0138 3.35936 15.0662 3.50346 15.0673H12.6333C12.8553 15.0702 13.046 14.9101 13.0815 14.6912L14.3767 6.72095Z" fill="url(#paint0_linear_730_1282)"/>
<defs>
<linearGradient id="paint0_linear_730_1282" x1="15.3526" y1="7.88103" x2="10.4978" y2="14.7788" gradientUnits="userSpaceOnUse">
<stop offset="0.18" stop-color="#0052CC"/>
<stop offset="1" stop-color="#2684FF"/>
</linearGradient>
</defs>
</svg>
