<svg width="20" height="20" viewBox="0 0 20 20" xmlns="http://www.w3.org/2000/svg">
    <path
        d="M12.6839 10.0232C13.0336 9.81019 13.3288 9.51846 13.5458 9.17122C13.7628 8.82399 13.8957 8.43085 13.9339 8.02316C13.9405 7.6545 13.8744 7.28816 13.7394 6.94504C13.6045 6.60192 13.4032 6.28876 13.1472 6.02344C12.8911 5.75811 12.5853 5.54583 12.2472 5.39871C11.9092 5.25159 11.5454 5.17252 11.1767 5.16602H6.54102V15.166H11.541C11.8918 15.1623 12.2385 15.0895 12.5612 14.9518C12.8839 14.8141 13.1763 14.6141 13.4217 14.3634C13.6671 14.1127 13.8607 13.8161 13.9915 13.4905C14.1223 13.165 14.1876 12.8168 14.1839 12.466V12.3803C14.1841 11.8854 14.0431 11.4007 13.7774 10.9831C13.5117 10.5656 13.1323 10.2325 12.6839 10.0232ZM7.96959 6.59459H10.9696C11.274 6.58517 11.574 6.66907 11.8294 6.83505C12.0847 7.00103 12.2832 7.24114 12.3982 7.52316C12.5145 7.90015 12.4769 8.30786 12.2935 8.6572C12.1101 9.00653 11.7959 9.26907 11.4196 9.38744C11.2734 9.43028 11.1219 9.45193 10.9696 9.45173H7.96959V6.59459ZM11.2553 13.7374H7.96959V10.8803H11.2553C11.5597 10.8709 11.8597 10.9548 12.1151 11.1208C12.3704 11.2867 12.5689 11.5269 12.6839 11.8089C12.8002 12.1859 12.7626 12.5936 12.5792 12.9429C12.3959 13.2922 12.0817 13.5548 11.7053 13.6732C11.5591 13.716 11.4076 13.7376 11.2553 13.7374Z" />
</svg>
