<svg width="20" height="20" viewBox="0 0 20 20" xmlns="http://www.w3.org/2000/svg">
    <path
        d="M11.8846 2.70032C12.5361 2.22456 13.1876 2.60517 12.7222 3.74698C12.443 4.41304 11.3262 7.17243 11.047 7.93364C11.047 8.02879 11.047 8.0288 11.1401 8.12395C12.1638 8.79001 13.2807 9.36091 14.3044 10.027C14.8628 10.3124 14.8628 10.9785 14.4905 11.3591C13.5599 12.2155 9.74404 16.0215 8.72028 16.973C8.34801 17.2585 7.88266 17.6391 7.41732 17.4488C6.95197 17.2585 7.23118 16.5924 7.41732 16.2118C7.51039 15.5457 8.62721 12.8815 8.99949 12.0252C8.99949 11.93 8.99949 11.93 8.90642 11.8348C8.25494 11.4542 6.02128 10.1221 5.64901 9.93182C5.18367 9.64637 5.0906 8.98031 5.55594 8.5997C6.67277 7.45789 11.2331 3.27123 11.8846 2.70032Z" />
</svg>
