<svg width="20px" height="20px" viewBox="0 0 20 20" version="1.1" xmlns="http://www.w3.org/2000/svg" >
<path d="M17.5,5 L17.5,15 L15.7450718,15 L15.7450718,8.00802139 L13.6956522,8.00802139 L13.6956522,6.71122995 C14.2365547,6.68449198 14.6151865,6.64438503 14.8315475,6.59090909 C15.1761224,6.50623886 15.4565904,6.3368984 15.6729514,6.0828877 C15.8211988,5.90909091 15.933386,5.67736185 16.009513,5.38770053 C16.0535866,5.21390374 16.0756233,5.08467023 16.0756233,5 L16.0756233,5 L17.5,5 Z M5.76086957,5 C6.96521739,5 7.80978261,5.43449198 8.29456522,6.30347594 C8.77934783,7.17245989 9.02173913,8.40686275 9.02173913,10.0066845 C9.02173913,11.6065062 8.77934783,12.8386809 8.29456522,13.7032086 C7.80978261,14.5677362 6.96521739,15 5.76086957,15 C4.55652174,15 3.71195652,14.5677362 3.22717391,13.7032086 C2.7423913,12.8386809 2.5,11.6065062 2.5,10.0066845 C2.5,8.40686275 2.7423913,7.17245989 3.22717391,6.30347594 C3.71195652,5.43449198 4.55652174,5 5.76086957,5 Z M12.1807065,5.26326615 L12.1807065,14.8110517 L10.6521739,14.8110517 L10.6521739,5.26326615 L12.1807065,5.26326615 Z M5.77084337,6.4 C5.15879518,6.4 4.7539759,6.69387755 4.55638554,7.28163265 C4.35879518,7.86938776 4.26,8.77434402 4.26,9.99650146 C4.26,11.1626822 4.35879518,12.0548105 4.55638554,12.6728863 C4.7539759,13.2909621 5.15879518,13.6 5.77084337,13.6 C6.38289157,13.6 6.78409639,13.2909621 6.97445783,12.6728863 C7.16481928,12.0548105 7.26,11.1626822 7.26,9.99650146 C7.26,8.77434402 7.16481928,7.86938776 6.97445783,7.28163265 C6.78409639,6.69387755 6.38289157,6.4 5.77084337,6.4 Z"></path>
</svg>