<svg width="24" height="24" viewBox="0 0 24 24" fill="none" xmlns="http://www.w3.org/2000/svg">
<path d="M10.94 13.6C11.12 11.88 12.2 10.48 13.46 10.48C14.72 10.48 15.4 11.88 15.22 13.6C15.04 15.32 14 16.74 12.82 16.74C11.64 16.74 10.68 15.66 10.94 13.6ZM12 21.4C9.20018 21.404 6.54496 20.1571 4.76 18C6.32 18.5 8.06 18.06 9.42 16.72C9.56362 16.5759 9.69727 16.4222 9.82 16.26C10.44 17.6 11.64 18.28 12.84 18.28C14.88 18.28 16.6 16.18 16.8 13.58C17 10.98 15.54 8.92 13.6 8.92C12.8961 8.91024 12.2034 9.09727 11.6 9.46L12.2 5.96C12.2598 5.67984 12.194 5.38754 12.02 5.16C11.84 4.88 11.68 4.76 11.44 4.76H8.64C8.47446 4.76863 8.33928 4.89537 8.32 5.06C8.2456 5.38962 8.19216 5.72362 8.16 6.06C8.14 6.28 8.3 6.36 8.48 6.36H10.52C10.2 8.36 9.56 12.24 9.38 13.22C9.19131 14.1476 8.74008 15.0015 8.08 15.68C6.96 16.8 4.9 17.06 3.68 15.84C3.26 15.4 2.6 14.32 2.6 12C2.6 6.80852 6.80852 2.6 12 2.6C17.1915 2.6 21.4 6.80852 21.4 12C21.4 17.1915 17.1915 21.4 12 21.4ZM12 1C5.92487 1 1 5.92487 1 12C1 18.0751 5.92487 23 12 23C18.0751 23 23 18.0751 23 12C23 9.08262 21.8411 6.28473 19.7782 4.22183C17.7153 2.15893 14.9174 1 12 1Z" fill="#212124"/>
</svg>
