<svg width="20" height="20" viewBox="0 0 20 20" xmlns="http://www.w3.org/2000/svg">
    <path
        d="M16.3333 6.66667H13.9917C13.6167 6.01667 13.1 5.45833 12.475 5.03333L13.8333 3.675L12.6583 2.5L10.85 4.30833C10.4667 4.21667 10.075 4.16667 9.66667 4.16667C9.25833 4.16667 8.86667 4.21667 8.49167 4.30833L6.675 2.5L5.5 3.675L6.85 5.03333C6.23333 5.45833 5.71667 6.01667 5.34167 6.66667H3V8.33333H4.74167C4.7 8.60833 4.66667 8.88333 4.66667 9.16667V10H3V11.6667H4.66667V12.5C4.66667 12.7833 4.7 13.0583 4.74167 13.3333H3V15H5.34167C6.20833 16.4917 7.81667 17.5 9.66667 17.5C11.5167 17.5 13.125 16.4917 13.9917 15H16.3333V13.3333H14.5917C14.6333 13.0583 14.6667 12.7833 14.6667 12.5V11.6667H16.3333V10H14.6667V9.16667C14.6667 8.88333 14.6333 8.60833 14.5917 8.33333H16.3333V6.66667ZM11.3333 13.3333H8V11.6667H11.3333V13.3333ZM11.3333 10H8V8.33333H11.3333V10Z" />
</svg>
