<svg width="16" height="16" viewBox="0 0 16 16" xmlns="http://www.w3.org/2000/svg">
<g clip-path="url(#clip0_24747_2614)">
<path d="M14.0004 8.00024C14.0004 4.68664 11.3139 2.00042 8.00037 2.00024C4.68666 2.00024 2.00037 4.68654 2.00037 8.00024C2.00054 11.3138 4.68677 14.0002 8.00037 14.0002C11.3138 14.0001 14.0002 11.3137 14.0004 8.00024ZM15.3334 8.00024C15.3332 12.0501 12.0502 15.3331 8.00037 15.3333C3.95039 15.3333 0.666558 12.0502 0.666382 8.00024C0.666382 3.95016 3.95028 0.66626 8.00037 0.66626C12.0503 0.666436 15.3334 3.95026 15.3334 8.00024Z" />
<path d="M10.5284 5.52824C10.7887 5.26789 11.2114 5.26789 11.4717 5.52824C11.7321 5.78859 11.7321 6.21125 11.4717 6.4716L7.47172 10.4716C7.21137 10.7319 6.78871 10.7319 6.52836 10.4716L4.52836 8.4716C4.26801 8.21125 4.26801 7.78859 4.52836 7.52824C4.78871 7.26789 5.21137 7.26789 5.47172 7.52824L7.00004 9.05656L10.5284 5.52824Z" />
</g>
<defs>
<clipPath id="clip0_24747_2614">
<rect width="16" height="16" />
</clipPath>
</defs>
</svg>
