<svg width="23" height="22" viewBox="0 0 23 22"
  xmlns="http://www.w3.org/2000/svg">
  <path fill-rule="evenodd" clip-rule="evenodd" d="M5.35183 5.76849C5.70981 5.4105 6.29021 5.4105 6.64819 5.76849L11.2315 10.3518C11.5895 10.7098 11.5895 11.2902 11.2315 11.6482L6.64819 16.2315C6.29021 16.5895 5.70981 16.5895 5.35183 16.2315C4.99385 15.8735 4.99385 15.2931 5.35183 14.9352L9.28698 11L5.35183 7.06485C4.99385 6.70687 4.99385 6.12647 5.35183 5.76849ZM11.7685 5.76849C12.1265 5.4105 12.7069 5.4105 13.0649 5.76849L17.6482 10.3518C18.0062 10.7098 18.0062 11.2902 17.6482 11.6482L13.0649 16.2315C12.7069 16.5895 12.1265 16.5895 11.7685 16.2315C11.4105 15.8735 11.4105 15.2931 11.7685 14.9352L15.7036 11L11.7685 7.06485C11.4105 6.70687 11.4105 6.12647 11.7685 5.76849Z" />
</svg>
