<svg width="16" height="16" viewBox="0 0 16 16" fill="none" xmlns="http://www.w3.org/2000/svg">
<g clip-path="url(#clip0_3335_25843)">
<path d="M16 0H0V16H16V0Z" fill="#151515"/>
<path d="M3.19995 3.0187C3.19995 2.9547 3.25328 2.90137 3.31728 2.90137H4.21328C4.27728 2.90137 4.33062 2.9547 4.33062 3.0187V12.9707C4.33062 13.0347 4.27728 13.088 4.21328 13.088H3.31728C3.25328 13.088 3.19995 13.0347 3.19995 12.9707V3.0187Z" fill="white"/>
<path d="M5.4613 3.0187C5.4613 2.9547 5.51464 2.90137 5.57864 2.90137H6.47464C6.53864 2.90137 6.59197 2.9547 6.59197 3.0187V12.9707C6.59197 13.0347 6.53864 13.088 6.47464 13.088H5.57864C5.51464 13.088 5.4613 13.0347 5.4613 12.9707V3.0187Z" fill="white"/>
<path d="M7.72266 3.0187C7.72266 2.9547 7.77599 2.90137 7.83999 2.90137H8.73599C8.79999 2.90137 8.85332 2.9547 8.85332 3.0187V12.9707C8.85332 13.0347 8.79999 13.088 8.73599 13.088H7.83999C7.77599 13.088 7.72266 13.0347 7.72266 12.9707V3.0187Z" fill="white"/>
<path d="M9.99463 3.0187C9.99463 2.9547 10.048 2.90137 10.112 2.90137H11.008C11.072 2.90137 11.1253 2.9547 11.1253 3.0187V12.9707C11.1253 13.0347 11.072 13.088 11.008 13.088H10.112C10.048 13.088 9.99463 13.0347 9.99463 12.9707V3.0187Z" fill="white"/>
<path d="M12.256 6.98647C12.256 6.92247 12.3093 6.86914 12.3733 6.86914H13.2693C13.3333 6.86914 13.3866 6.92247 13.3866 6.98647V9.01314C13.3866 9.07714 13.3333 9.13047 13.2693 9.13047H12.3733C12.3093 9.13047 12.256 9.07714 12.256 9.01314V6.98647Z" fill="white"/>
</g>
<defs>
<clipPath id="clip0_3335_25843">
<rect width="16" height="16" fill="white"/>
</clipPath>
</defs>
</svg>
