<svg width="20" height="20" viewBox="0 0 20 20" xmlns="http://www.w3.org/2000/svg">
    <path fill-rule="evenodd" clip-rule="evenodd"
        d="M4.07895 2.5H15.9211C16.7895 2.5 17.5 3.25 17.5 4.16667V15.8333C17.5 16.75 16.7895 17.5 15.9211 17.5H4.07895C3.21053 17.5 2.5 16.75 2.5 15.8333V4.16667C2.5 3.25 3.21053 2.5 4.07895 2.5ZM16 16V4H4V16H16ZM8.178 13.182L4.99602 10L8.17798 6.81801L9.11969 7.75972L6.87943 10L9.11971 12.2403L8.178 13.182ZM15.004 9.99999L11.822 6.81801L10.8803 7.75972L13.1206 10L10.8803 12.2403L11.822 13.182L15.004 9.99999Z" />
</svg>
