<svg width="16" height="16" xmlns="http://www.w3.org/2000/svg"><path d="M9.027 1.369a.62.62 0 0 0-.277.311C8.682 1.837 6 13.911 6 14.063c0 .247.119.423.355.525.152.065.39.095.537.067.129-.024.288-.171.356-.329C7.318 14.161 10 2.089 10 1.937c0-.248-.118-.422-.357-.526-.171-.074-.499-.096-.616-.042m-4.6 2.66c-.092.041-.533.466-1.899 1.832C.638 7.752.641 7.748.641 8c0 .251.002.253 1.834 2.088.949.95 1.788 1.771 1.865 1.824.267.185.525.146.788-.117.229-.229.287-.458.176-.702-.041-.091-.412-.478-1.538-1.606L2.282 8l1.481-1.487C4.865 5.408 5.26 4.995 5.302 4.905c.114-.241.058-.475-.171-.703-.226-.226-.459-.284-.704-.173m6.679-.006a1.11 1.11 0 0 0-.416.417.576.576 0 0 0 .006.467c.041.091.412.478 1.538 1.606L13.718 8l-1.484 1.487c-1.126 1.128-1.497 1.515-1.538 1.606-.11.242-.054.478.166.698.266.266.53.306.798.121.077-.053.915-.874 1.863-1.824 1.824-1.83 1.838-1.846 1.836-2.09-.001-.251.001-.249-1.887-2.137-1.366-1.366-1.807-1.791-1.899-1.832a.576.576 0 0 0-.467-.006" fill-rule="evenodd"/></svg>
