<svg width="16" height="16" viewBox="0 0 16 16" xmlns="http://www.w3.org/2000/svg">
<path fill-rule="evenodd" clip-rule="evenodd" d="M2.46254 4.1C2.46254 3.74101 2.75355 3.45 3.11254 3.45H12.8625C13.2215 3.45 13.5125 3.74101 13.5125 4.1C13.5125 4.45899 13.2215 4.75 12.8625 4.75H3.11254C2.75355 4.75 2.46254 4.45899 2.46254 4.1Z" />
<path fill-rule="evenodd" clip-rule="evenodd" d="M3.4375 2.15C3.4375 1.79101 3.72851 1.5 4.0875 1.5H11.8875C12.2465 1.5 12.5375 1.79101 12.5375 2.15C12.5375 2.50899 12.2465 2.8 11.8875 2.8H4.0875C3.72851 2.8 3.4375 2.50899 3.4375 2.15Z" />
<path d="M1.65 7.35C1.65 6.63203 2.23203 6.05 2.95 6.05H13.025C13.743 6.05 14.325 6.63203 14.325 7.35V12.55C14.325 13.268 13.743 13.85 13.025 13.85H2.95C2.23203 13.85 1.65 13.268 1.65 12.55V7.35Z" />
<path fill-rule="evenodd" clip-rule="evenodd" d="M1 7.35C1 6.27305 1.87304 5.4 2.95 5.4H13.025C14.102 5.4 14.975 6.27304 14.975 7.35V12.55C14.975 13.627 14.102 14.5 13.025 14.5H2.95C1.87304 14.5 1 13.627 1 12.55V7.35ZM2.95 6.7C2.59101 6.7 2.3 6.99102 2.3 7.35V12.55C2.3 12.909 2.59101 13.2 2.95 13.2H13.025C13.384 13.2 13.675 12.909 13.675 12.55V7.35C13.675 6.99101 13.384 6.7 13.025 6.7H2.95Z" />
</svg>
