<svg width="16" height="16" viewBox="0 0 16 16" xmlns="http://www.w3.org/2000/svg">
<path fill-rule="evenodd" clip-rule="evenodd" d="M2.46518 4.1C2.46518 3.74101 2.75671 3.45 3.11634 3.45H12.8838C13.2434 3.45 13.5349 3.74101 13.5349 4.1C13.5349 4.45899 13.2434 4.75 12.8838 4.75H3.11634C2.75671 4.75 2.46518 4.45899 2.46518 4.1Z" />
<path fill-rule="evenodd" clip-rule="evenodd" d="M3.44186 2.15C3.44186 1.79101 3.7334 1.5 4.09302 1.5H11.907C12.2666 1.5 12.5581 1.79101 12.5581 2.15C12.5581 2.50899 12.2666 2.8 11.907 2.8H4.09302C3.7334 2.8 3.44186 2.50899 3.44186 2.15Z" />
<path fill-rule="evenodd" clip-rule="evenodd" d="M1 7.35C1 6.27304 1.87461 5.4 2.95349 5.4H13.0465C14.1254 5.4 15 6.27304 15 7.35V12.55C15 13.627 14.1254 14.5 13.0465 14.5H2.95349C1.87461 14.5 1 13.627 1 12.55V7.35ZM2.95349 6.7C2.59386 6.7 2.30233 6.99101 2.30233 7.35V12.55C2.30233 12.909 2.59386 13.2 2.95349 13.2H13.0465C13.4061 13.2 13.6977 12.909 13.6977 12.55V7.35C13.6977 6.99101 13.4061 6.7 13.0465 6.7H2.95349Z" />
</svg>
