<svg width="16" height="16" viewBox="0 0 16 16" xmlns="http://www.w3.org/2000/svg">
<path fill-rule="evenodd" clip-rule="evenodd" d="M1.33334 4C1.33334 2.52724 2.52725 1.33334 4.00001 1.33334C5.47277 1.33334 6.66668 2.52724 6.66668 4V5.33334H9.33334V4C9.33334 2.52724 10.5273 1.33334 12 1.33334C13.4728 1.33334 14.6667 2.52724 14.6667 4C14.6667 5.47276 13.4728 6.66667 12 6.66667H10.6667V9.33334H12C13.4728 9.33334 14.6667 10.5272 14.6667 12C14.6667 13.4728 13.4728 14.6667 12 14.6667C10.5273 14.6667 9.33334 13.4728 9.33334 12V10.6667H6.66668V12C6.66668 13.4728 5.47277 14.6667 4.00001 14.6667C2.52725 14.6667 1.33334 13.4728 1.33334 12C1.33334 10.5272 2.52725 9.33334 4.00001 9.33334H5.33334V6.66667H4.00001C2.52725 6.66667 1.33334 5.47276 1.33334 4ZM5.33334 5.33334V4C5.33334 3.26362 4.73639 2.66667 4.00001 2.66667C3.26363 2.66667 2.66668 3.26362 2.66668 4C2.66668 4.73638 3.26363 5.33334 4.00001 5.33334H5.33334ZM6.66668 6.66667V9.33334H9.33334V6.66667H6.66668ZM5.33334 10.6667H4.00001C3.26363 10.6667 2.66668 11.2636 2.66668 12C2.66668 12.7364 3.26363 13.3333 4.00001 13.3333C4.73639 13.3333 5.33334 12.7364 5.33334 12V10.6667ZM10.6667 10.6667V12C10.6667 12.7364 11.2636 13.3333 12 13.3333C12.7364 13.3333 13.3333 12.7364 13.3333 12C13.3333 11.2636 12.7364 10.6667 12 10.6667H10.6667ZM10.6667 5.33334H12C12.7364 5.33334 13.3333 4.73638 13.3333 4C13.3333 3.26362 12.7364 2.66667 12 2.66667C11.2636 2.66667 10.6667 3.26362 10.6667 4V5.33334Z" />
</svg>
