<svg width="16" height="16" viewBox="0 0 16 16" xmlns="http://www.w3.org/2000/svg">
<path fill-rule="evenodd" clip-rule="evenodd" d="M1 8C1 4.15 4.15 1 8 1C11.85 1 15 4.15 15 8C15 11.85 11.85 15 8 15C6.8625 15 5.9 14.7375 4.9375 14.3L1 15L2.225 11.9375C1.4375 10.8 1 9.4875 1 8ZM6.1625 13.425C6.775 13.6 7.3875 13.6875 8 13.6875C11.15 13.6875 13.6875 11.0625 13.6875 7.9125C13.6875 4.7625 11.15 2.225 8 2.225C4.85 2.225 2.3125 4.7625 2.3125 7.9125C2.3125 9.05 2.6625 10.1875 3.275 11.0625C3.3625 11.325 3.5375 11.5 3.7125 11.675L3.1 13.25L5.1125 12.9875C5.4625 13.1625 5.8125 13.3375 6.1625 13.425ZM6.25 8C6.25 8.48325 5.85825 8.875 5.375 8.875C4.89175 8.875 4.5 8.48325 4.5 8C4.5 7.51675 4.89175 7.125 5.375 7.125C5.85825 7.125 6.25 7.51675 6.25 8ZM8.875 8C8.875 8.48325 8.48325 8.875 8 8.875C7.51675 8.875 7.125 8.48325 7.125 8C7.125 7.51675 7.51675 7.125 8 7.125C8.48325 7.125 8.875 7.51675 8.875 8ZM10.625 8.875C11.1082 8.875 11.5 8.48325 11.5 8C11.5 7.51675 11.1082 7.125 10.625 7.125C10.1418 7.125 9.75 7.51675 9.75 8C9.75 8.48325 10.1418 8.875 10.625 8.875Z"/>
</svg>
