<svg width="16" height="16" viewBox="0 0 16 16" xmlns="http://www.w3.org/2000/svg">
  <path fill-rule="evenodd" clip-rule="evenodd" d="M7.34418 1.41675H11.8225C12.13 1.41674 12.3953 1.41673 12.6138 1.43458C12.8444 1.45342 13.0738 1.49502 13.2945 1.60749C13.6238 1.77527 13.8915 2.04299 14.0593 2.37227C14.1718 2.593 14.2134 2.82237 14.2322 3.05299C14.2501 3.27149 14.2501 3.53677 14.2501 3.84427V8.32263C14.2501 8.63013 14.2501 8.8954 14.2322 9.1139C14.2134 9.34452 14.1718 9.5739 14.0593 9.79463C13.8915 10.1239 13.6238 10.3916 13.2945 10.5594C13.0738 10.6719 12.8444 10.7135 12.6138 10.7323C12.3953 10.7502 12.13 10.7502 11.8225 10.7501H10.75V11.8227C10.75 12.1302 10.75 12.3954 10.7322 12.6139C10.7134 12.8445 10.6718 13.0739 10.5593 13.2947C10.3915 13.6239 10.1238 13.8917 9.7945 14.0594C9.57378 14.1719 9.3444 14.2135 9.11378 14.2323C8.89528 14.2502 8.63001 14.2502 8.32251 14.2502H3.84415C3.53665 14.2502 3.27137 14.2502 3.05287 14.2323C2.82225 14.2135 2.59287 14.1719 2.37215 14.0594C2.04286 13.8917 1.77515 13.6239 1.60737 13.2947C1.4949 13.0739 1.4533 12.8445 1.43446 12.6139C1.41661 12.3954 1.41662 12.1301 1.41663 11.8226V7.34431C1.41662 7.0368 1.41661 6.77152 1.43446 6.55302C1.4533 6.3224 1.4949 6.09302 1.60737 5.8723C1.77515 5.54301 2.04286 5.27529 2.37215 5.10751C2.59287 4.99505 2.82225 4.95345 3.05287 4.93461C3.27138 4.91675 3.53666 4.91676 3.84417 4.91677L4.91665 4.91677L4.91665 3.84429C4.91664 3.53678 4.91663 3.2715 4.93448 3.05299C4.95333 2.82237 4.99493 2.593 5.10739 2.37227C5.27517 2.04299 5.54289 1.77527 5.87217 1.60749C6.0929 1.49503 6.32228 1.45342 6.5529 1.43458C6.7714 1.41673 7.03668 1.41674 7.34418 1.41675ZM3.86664 6.08345C3.53032 6.08345 3.31316 6.0839 3.14788 6.09741C2.98941 6.11035 2.93065 6.13233 2.90181 6.14703C2.79205 6.20295 2.70281 6.29219 2.64688 6.40196C2.63219 6.4308 2.61021 6.48955 2.59726 6.64802C2.58376 6.8133 2.5833 7.03047 2.5833 7.36679V11.8002C2.5833 12.1365 2.58376 12.3536 2.59726 12.5189C2.61021 12.6774 2.63219 12.7361 2.64688 12.765C2.70281 12.8748 2.79205 12.964 2.90181 13.0199C2.93065 13.0346 2.98941 13.0566 3.14788 13.0695C3.31316 13.083 3.53032 13.0835 3.86664 13.0835H8.30001C8.63633 13.0835 8.85349 13.083 9.01878 13.0695C9.17725 13.0566 9.236 13.0346 9.26484 13.0199C9.37461 12.964 9.46384 12.8748 9.51977 12.765C9.53447 12.7361 9.55645 12.6774 9.56939 12.5189C9.5829 12.3536 9.58335 12.1365 9.58335 11.8002V7.36679C9.58335 7.03047 9.5829 6.8133 9.56939 6.64802C9.55645 6.48955 9.53447 6.4308 9.51977 6.40196C9.46384 6.29219 9.3746 6.20295 9.26484 6.14703C9.236 6.13233 9.17725 6.11035 9.01878 6.09741C8.85349 6.0839 8.63633 6.08345 8.30001 6.08345H3.86664ZM10.75 9.58347V7.34429C10.75 7.03679 10.75 6.77152 10.7322 6.55302C10.7134 6.3224 10.6718 6.09302 10.5593 5.8723C10.3915 5.54301 10.1238 5.27529 9.7945 5.10751C9.57378 4.99505 9.3444 4.95345 9.11378 4.93461C8.89528 4.91675 8.62999 4.91676 8.32248 4.91677L6.08333 4.91677V3.86677C6.08333 3.53044 6.08378 3.31328 6.09728 3.148C6.11023 2.98953 6.13221 2.93077 6.14691 2.90193C6.20283 2.79217 6.29207 2.70293 6.40183 2.647C6.43068 2.63231 6.48943 2.61033 6.6479 2.59738C6.81318 2.58388 7.03034 2.58342 7.36667 2.58342H11.8C12.1364 2.58342 12.3535 2.58388 12.5188 2.59738C12.6773 2.61033 12.736 2.63231 12.7649 2.647C12.8746 2.70293 12.9639 2.79217 13.0198 2.90193C13.0345 2.93077 13.0565 2.98953 13.0694 3.148C13.0829 3.31328 13.0834 3.53044 13.0834 3.86677V8.30013C13.0834 8.63646 13.0829 8.85362 13.0694 9.0189C13.0565 9.17737 13.0345 9.23612 13.0198 9.26496C12.9639 9.37473 12.8746 9.46397 12.7649 9.51989C12.736 9.53459 12.6773 9.55657 12.5188 9.56952C12.3535 9.58302 12.1364 9.58347 11.8 9.58347H10.75Z" />
</svg>
