<svg width="24" height="24" viewBox="0 0 24 24" fill="none" xmlns="http://www.w3.org/2000/svg">
<path fill-rule="evenodd" clip-rule="evenodd" d="M4.2261 10.1238C3.1874 14.4154 5.82604 18.7359 10.1197 19.7741C14.4128 20.812 18.7355 18.175 19.7738 13.8832C20.8127 9.59161 18.1739 5.27115 13.8808 4.23291L13.8661 4.22947C9.59324 3.18568 5.28296 5.80146 4.23839 10.0726L4.2261 10.1238Z" fill="#59B3D8"/>
<path fill-rule="evenodd" clip-rule="evenodd" d="M13.1034 15.2096C13.1058 14.037 14.0623 13.0886 15.2393 13.0915H15.562C15.2884 11.958 15.9884 10.8185 17.1263 10.5458C17.2942 10.5054 17.4664 10.4858 17.6391 10.4874H19.8541C20.3331 12.943 19.6178 15.4798 17.924 17.3274H15.2398C14.0627 17.3303 13.1062 16.3819 13.1034 15.2096ZM10.4582 6.42721C10.4582 6.55122 10.4421 6.67485 10.4099 6.79505H11.332C12.5547 6.79505 13.5454 7.78257 13.5454 9.00073C13.5454 10.2183 12.5547 11.2058 11.332 11.2058H4.00076C4.23941 8.57137 5.80033 6.23574 8.14817 5H9.02177C9.81419 4.99962 10.4563 5.63803 10.4582 6.42721ZM4 12.8452H8.37354C9.37122 12.8427 10.1817 13.6452 10.1856 14.6385C10.186 14.9372 10.111 15.2312 9.96785 15.4928C10.917 15.7882 11.4461 16.7949 11.1494 17.7409C10.9137 18.4927 10.2126 19.0034 9.42187 19H8.20261C5.86654 17.7667 4.29329 15.463 4 12.8452Z" fill="#B6DEEC"/>
<path fill-rule="evenodd" clip-rule="evenodd" d="M20.4999 6.99998C20.534 7.00036 20.5678 6.99391 20.5994 6.98099C20.631 6.96807 20.6597 6.94893 20.684 6.92469C20.7084 6.90044 20.7277 6.87156 20.7411 6.83969C20.7544 6.80782 20.7614 6.77359 20.7617 6.73896V6.73835C20.7659 5.08748 22.0981 3.75208 23.7398 3.75372C23.8084 3.75405 23.8744 3.72668 23.9232 3.67762C23.9719 3.62857 23.9996 3.56184 24 3.49209C24 3.34817 23.8834 3.23107 23.7398 3.23107C22.1001 3.2325 20.7685 1.89976 20.7617 0.251554C20.76 0.216805 20.7517 0.182725 20.7371 0.151271C20.7225 0.119817 20.7019 0.0916095 20.6765 0.0682682C20.6511 0.0449269 20.6215 0.026912 20.5892 0.0152584C20.557 0.00360483 20.5228 -0.00145776 20.4886 0.000361309C20.3533 0.0060935 20.245 0.115005 20.2387 0.251554C20.2345 1.90181 18.9019 3.23721 17.2602 3.23578C17.1166 3.23578 17 3.35288 17 3.4972C17 3.64174 17.1166 3.75904 17.2602 3.75904C18.9009 3.75679 20.2335 5.09116 20.2387 6.74101C20.2407 6.88432 20.3573 6.99998 20.4999 6.99998Z" fill="#B7D332"/>
<path fill-rule="evenodd" clip-rule="evenodd" d="M2.99962 23C3.03859 23.0002 3.07605 22.9847 3.10376 22.9569C3.13148 22.929 3.14719 22.8912 3.14745 22.8516C3.15091 21.9091 3.91357 21.1471 4.85178 21.1491C4.87108 21.1493 4.89022 21.1456 4.90812 21.1383C4.92602 21.131 4.94232 21.1201 4.95609 21.1064C4.96986 21.0927 4.98082 21.0763 4.98836 21.0583C4.99589 21.0402 4.99985 21.0209 5 21.0013C5 20.9194 4.93417 20.8529 4.85274 20.8529H4.85178C3.91396 20.8533 3.15284 20.0918 3.14937 19.15C3.1493 19.1301 3.14536 19.1105 3.13778 19.0922C3.1302 19.0739 3.11913 19.0573 3.10521 19.0433C3.09129 19.0294 3.0748 19.0184 3.05667 19.011C3.03855 19.0035 3.01916 18.9998 2.99962 19C2.98012 18.9999 2.96079 19.0037 2.94273 19.0111C2.92468 19.0186 2.90825 19.0296 2.89439 19.0435C2.88053 19.0575 2.86952 19.074 2.86197 19.0923C2.85443 19.1106 2.85051 19.1301 2.85043 19.15C2.84697 20.0918 2.08585 20.8533 1.14822 20.8529C1.12892 20.8527 1.10976 20.8563 1.09185 20.8636C1.07394 20.8709 1.05763 20.8818 1.04386 20.8955C1.03008 20.9092 1.01912 20.9256 1.01159 20.9436C1.00406 20.9617 1.00013 20.9811 1 21.0007C1 21.0203 1.00382 21.0397 1.01123 21.0577C1.01864 21.0758 1.02951 21.0922 1.0432 21.106C1.05689 21.1198 1.07313 21.1307 1.09099 21.1381C1.10885 21.1455 1.12797 21.1492 1.14726 21.1491H1.14822C2.08585 21.1487 2.84755 21.9101 2.85043 22.8526C2.85094 22.8922 2.8669 22.9299 2.8948 22.9576C2.9227 22.9852 2.96026 23.0005 2.99923 23H2.99962Z" fill="#0072C5"/>
<path fill-rule="evenodd" clip-rule="evenodd" d="M0.319166 5.16443C1.08477 3.96293 3.00873 3.68547 5.87969 4.3589C6.7742 4.57619 7.65446 4.84518 8.51575 5.16443C7.9625 5.42338 7.44137 5.74225 6.96235 6.11495C6.47396 5.96134 5.99448 5.82279 5.53702 5.71567C4.77235 5.52173 3.98684 5.41523 3.19657 5.39834C2.25603 5.39834 1.73728 5.62086 1.56367 5.89188C1.27982 6.33709 1.54109 7.51178 3.2108 9.35933C3.50794 9.68805 3.84188 10.021 4.19347 10.3558C6.02686 12.0523 8.0539 13.541 10.2354 14.793C12.4017 16.0919 14.7145 17.1464 17.1284 17.936C20.0347 18.843 22.0186 18.8246 22.4637 18.1286C22.9081 17.4325 22.019 15.7311 19.8499 13.6654C19.9827 13.0782 20.0424 12.4776 20.0278 11.8766C23.4811 14.8664 24.5987 17.4561 23.7063 18.8555C23.239 19.5877 22.218 20 20.7265 20C18.9551 19.9283 17.21 19.5595 15.5688 18.91C13.4493 18.1181 11.4098 17.1385 9.47621 15.9837C7.52927 14.8553 5.6946 13.5544 3.99576 12.0979C3.32988 11.5257 2.69966 10.9158 2.10841 10.2713C0.171738 8.12971 -0.446625 6.36337 0.319166 5.16443Z" fill="black"/>
</svg>
