<svg width="20" height="20" viewBox="0 0 20 20" xmlns="http://www.w3.org/2000/svg">
  <path fill-rule="evenodd" clip-rule="evenodd"
    d="M4.30138 3.3335L15.699 3.3335C16.1382 3.33348 16.5172 3.33347 16.8294 3.35897C17.1588 3.38589 17.4865 3.44532 17.8018 3.60598C18.2722 3.84567 18.6547 4.22812 18.8944 4.69852C19.055 5.01384 19.1144 5.34152 19.1414 5.67098C19.1669 5.98311 19.1668 6.36208 19.1668 6.80136V13.199C19.1668 13.6383 19.1669 14.0172 19.1414 14.3294C19.1144 14.6588 19.055 14.9865 18.8944 15.3018C18.6547 15.7722 18.2722 16.1547 17.8018 16.3943C17.4865 16.555 17.1588 16.6144 16.8294 16.6414C16.5172 16.6669 16.1383 16.6668 15.699 16.6668L4.30136 16.6668C3.86208 16.6668 3.48311 16.6669 3.17097 16.6414C2.84152 16.6144 2.51384 16.555 2.19852 16.3943C1.72812 16.1547 1.34566 15.7722 1.10598 15.3018C0.945319 14.9865 0.88589 14.6588 0.858972 14.3294C0.833469 14.0172 0.833482 13.6382 0.833497 13.199L0.833498 8.33406L0.833497 6.80138C0.833482 6.36209 0.833469 5.98312 0.858972 5.67097C0.88589 5.34152 0.94532 5.01384 1.10598 4.69852C1.34566 4.22812 1.72812 3.84566 2.19852 3.60598C2.51384 3.44532 2.84152 3.38589 3.17097 3.35897C3.48312 3.33347 3.86209 3.33348 4.30138 3.3335ZM2.50016 9.16683V13.1668C2.50016 13.6473 2.50081 13.9575 2.5201 14.1936C2.5386 14.42 2.57 14.504 2.59099 14.5452C2.67089 14.702 2.79837 14.8294 2.95517 14.9093C2.99638 14.9303 3.08031 14.9617 3.30669 14.9802C3.54281 14.9995 3.85304 15.0002 4.3335 15.0002L15.6668 15.0002C16.1473 15.0002 16.4575 14.9995 16.6936 14.9802C16.92 14.9617 17.004 14.9303 17.0452 14.9093C17.202 14.8294 17.3294 14.702 17.4093 14.5452C17.4303 14.504 17.4617 14.42 17.4802 14.1936C17.4995 13.9575 17.5002 13.6473 17.5002 13.1668V9.16683H2.50016ZM17.5002 7.50016H2.50016V6.8335C2.50016 6.35304 2.50081 6.04281 2.5201 5.80669C2.5386 5.58031 2.57 5.49638 2.59099 5.45517C2.67089 5.29837 2.79837 5.17089 2.95517 5.09099C2.99638 5.07 3.08031 5.0386 3.30669 5.0201C3.54281 5.00081 3.85304 5.00016 4.3335 5.00016L15.6668 5.00017C16.1473 5.00017 16.4575 5.00081 16.6936 5.0201C16.92 5.0386 17.004 5.07 17.0452 5.09099C17.202 5.17089 17.3294 5.29837 17.4093 5.45517C17.4303 5.49638 17.4617 5.58031 17.4802 5.80669C17.4995 6.04281 17.5002 6.35304 17.5002 6.8335V7.50016ZM4.16683 11.6668C4.16683 11.2066 4.53993 10.8335 5.00016 10.8335H9.16683C9.62707 10.8335 10.0002 11.2066 10.0002 11.6668C10.0002 12.1271 9.62707 12.5002 9.16683 12.5002H5.00016C4.53993 12.5002 4.16683 12.1271 4.16683 11.6668Z" />
</svg>