<svg width="20" height="20" viewBox="0 0 20 20"  xmlns="http://www.w3.org/2000/svg">
    <path d="M4.64905 7.97341H7.82786V4.66675C6.13249 4.88008 4.86097 6.16008 4.64905 7.97341Z"  />
    <path d="M7.82786 11.9199V8.61328H4.64905C4.86097 10.4266 6.13249 11.7066 7.82786 11.9199Z"  />
    <path d="M8.56958 4.66675V11.9201C10.4769 11.7067 11.8543 10.2134 11.8543 8.29341C11.8543 6.37341 10.4769 4.88008 8.56958 4.66675Z"/>
    <path d="M16.6225 2H4.96689H3.27152C2.5298 2 2 2.53333 2 3.28V16.8267C2 17.4667 2.5298 18 3.27152 18H16.7285C17.3642 18 18 17.4667 18 16.72V13.9467V3.28C17.894 2.53333 17.3642 2 16.6225 2ZM16.3046 16.4H15.457V8.4H13.6556V16.4H12.8079V12.1333H11.0066V16.4H10.1589V13.7333H8.35762V16.4H3.5894V3.6H5.07285H16.4106V14.0533V16.4H16.3046Z"/>
</svg>
