<svg width="16" height="16" viewBox="0 0 16 16" fill="none" xmlns="http://www.w3.org/2000/svg">
<path fill-rule="evenodd" clip-rule="evenodd" d="M12.5 2C13.3284 2.00004 14 2.67163 14 3.5V12.5C14 13.3284 13.3284 14 12.5 14H3.5C2.67157 14 2 13.3284 2 12.5V3.5C2.00003 2.6716 2.67159 2 3.5 2H12.5ZM3 12.5C3 12.7761 3.22386 13 3.5 13H7.5V10H3V12.5ZM8.5 7V13H12.5C12.7761 13 13 12.7761 13 12.5V7H8.5ZM3.5 3C3.22388 3 3.00003 3.22389 3 3.5V9H7.5V3H3.5ZM8.5 6H13V3.5C13 3.22391 12.7761 3.00004 12.5 3H8.5V6Z" fill="#1A6CE7"/>
</svg>
