<svg width="16" height="16" viewBox="0 0 16 16" xmlns="http://www.w3.org/2000/svg">
<path fill-rule="evenodd" clip-rule="evenodd" d="M2.66671 3.33341C2.66671 3.33425 2.66683 3.33733 2.66874 3.34361C2.67101 3.35104 2.67659 3.36572 2.69009 3.3877C2.71839 3.4338 2.77609 3.5031 2.8842 3.5883C3.10432 3.76177 3.46415 3.94715 3.96822 4.11517C4.96939 4.4489 6.3949 4.66675 8.00004 4.66675C9.60518 4.66675 11.0307 4.4489 12.0319 4.11517C12.5359 3.94715 12.8958 3.76177 13.1159 3.5883C13.224 3.5031 13.2817 3.4338 13.31 3.3877C13.3235 3.36572 13.3291 3.35104 13.3313 3.34361C13.3333 3.33732 13.3334 3.33443 13.3334 3.3336C13.3334 3.33352 13.3334 3.33364 13.3334 3.3336C13.3334 3.33311 13.3334 3.33012 13.3313 3.32322C13.3291 3.31579 13.3235 3.30111 13.31 3.27913C13.2817 3.23303 13.224 3.16373 13.1159 3.07853C12.8958 2.90506 12.5359 2.71968 12.0319 2.55166C11.0307 2.21793 9.60518 2.00008 8.00004 2.00008C6.3949 2.00008 4.96939 2.21793 3.96822 2.55166C3.46415 2.71968 3.10432 2.90506 2.8842 3.07853C2.77609 3.16373 2.71839 3.23303 2.69009 3.27913C2.67659 3.30111 2.67101 3.31579 2.66874 3.32322C2.6667 3.32994 2.66671 3.33282 2.66671 3.33341ZM13.3334 5.01781C13.0659 5.1546 12.7689 5.27494 12.4535 5.38008C11.2831 5.77022 9.70861 6.00008 8.00004 6.00008C6.29147 6.00008 4.71698 5.77022 3.54658 5.38008C3.23114 5.27494 2.93419 5.1546 2.66671 5.01781V8.00008C2.66671 8.00134 2.66676 8.00477 2.66897 8.01209C2.67134 8.01992 2.677 8.03481 2.69042 8.05683C2.71852 8.10294 2.7757 8.17205 2.88283 8.25695C3.1011 8.42991 3.45863 8.61496 3.96115 8.78272C4.95931 9.11596 6.38455 9.33342 8.00004 9.33342C9.61553 9.33342 11.0408 9.11596 12.0389 8.78272C12.5415 8.61496 12.899 8.42991 13.1172 8.25695C13.2244 8.17205 13.2816 8.10294 13.3097 8.05683C13.3231 8.03481 13.3287 8.01992 13.3311 8.01209C13.3333 8.00477 13.3334 8.00134 13.3334 8.00008V5.01781ZM14.6667 3.33341C14.6667 2.76545 14.3208 2.33047 13.9412 2.03132C13.5541 1.72624 13.0352 1.48065 12.4535 1.28675C11.2831 0.896612 9.70861 0.666748 8.00004 0.666748C6.29147 0.666748 4.71698 0.896612 3.54658 1.28675C2.96487 1.48065 2.44602 1.72624 2.0589 2.03132C1.6793 2.33047 1.33337 2.76545 1.33337 3.33341V12.6667C1.33337 13.233 1.6755 13.6681 2.05475 13.9686C2.44065 14.2744 2.95812 14.5202 3.53893 14.7141C4.70743 15.1042 6.2822 15.3334 8.00004 15.3334C9.71788 15.3334 11.2926 15.1042 12.4612 14.7141C13.042 14.5202 13.5594 14.2744 13.9453 13.9686C14.3246 13.6681 14.6667 13.233 14.6667 12.6667V3.33341ZM13.3334 9.68795C13.0681 9.82366 12.7738 9.94307 12.4612 10.0474C11.2926 10.4375 9.71788 10.6667 8.00004 10.6667C6.2822 10.6667 4.70743 10.4375 3.53893 10.0474C3.22629 9.94307 2.932 9.82366 2.66671 9.68795V12.6667C2.66671 12.668 2.66676 12.6714 2.66897 12.6788C2.67134 12.6866 2.677 12.7015 2.69042 12.7235C2.71852 12.7696 2.7757 12.8387 2.88283 12.9236C3.1011 13.0966 3.45863 13.2816 3.96115 13.4494C4.95931 13.7826 6.38455 14.0001 8.00004 14.0001C9.61553 14.0001 11.0408 13.7826 12.0389 13.4494C12.5415 13.2816 12.899 13.0966 13.1172 12.9236C13.2244 12.8387 13.2816 12.7696 13.3097 12.7235C13.3231 12.7015 13.3287 12.6866 13.3311 12.6788C13.3333 12.6714 13.3334 12.668 13.3334 12.6667V9.68795Z" />
</svg>
