<svg width="24" height="24" viewBox="0 0 24 24" fill="none" xmlns="http://www.w3.org/2000/svg">

<path d="M13.4323 11.1643C12.3995 11.1643 11.3668 11.4187 10.5276 11.9273L11.6249 13.3897C12.2059 13.1354 12.7868 13.0082 13.4323 13.0082C15.7561 13.0082 17.6926 14.8521 17.6926 17.2045C17.6926 19.4935 15.8207 21.401 13.4323 21.401C11.1085 21.401 9.17206 19.5571 9.17206 17.2045C9.17206 15.8693 9.81757 14.7249 10.7858 13.9619L9.68846 12.4995C8.26837 13.5168 7.36469 15.2335 7.36469 17.141C7.36469 20.4471 10.0758 23.1176 13.4323 23.1176C16.789 23.1176 19.5 20.4471 19.5 17.141C19.5 13.8348 16.789 11.1643 13.4323 11.1643Z" fill="#1A73E8"/>
<path d="M7.49388 10.7828C6.20288 10.7828 5.1701 9.76549 5.1701 8.49386C5.1701 7.22224 6.20288 6.20493 7.49388 6.20493C8.01028 6.20493 8.46212 6.39567 8.84942 6.65L9.88222 5.69628C9.23671 5.18763 8.39758 4.86972 7.49388 4.86972C5.42829 4.80615 3.75 6.45926 3.75 8.49386C3.75 10.5285 5.42829 12.1816 7.49388 12.1816C8.13937 12.1816 8.72031 12.0544 9.23671 11.7365L8.39758 10.592C8.13937 10.7192 7.81663 10.7828 7.49388 10.7828Z" fill="#669DF3"/>
<path d="M10.8507 3.72534C10.8507 2.96238 11.4962 2.26298 12.3354 2.26298C13.1745 2.26298 13.82 2.89879 13.82 3.72534C13.82 4.55191 13.1745 5.18772 12.3354 5.18772C12.0126 5.18772 11.7544 5.12413 11.4962 4.93339L10.8507 5.56921C11.238 5.88711 11.7544 6.07786 12.2708 6.07786C13.5618 6.07786 14.5946 5.06056 14.5946 3.78893C14.5946 2.5173 13.5618 1.5 12.2708 1.5C10.9798 1.5 9.94702 2.5173 9.94702 3.78893C9.94702 4.29758 10.1407 4.80623 10.3989 5.18772L11.0444 4.55191C10.9153 4.29758 10.8507 4.04325 10.8507 3.72534Z" fill="#AAD4FF"/>
<path d="M9.81782 8.4942C9.81782 9.13001 9.55963 9.63865 9.17233 10.0837L10.0115 11.2282C10.7861 10.5288 11.2379 9.57507 11.2379 8.4942C11.2379 7.54047 10.8506 6.71392 10.3342 6.07809L9.30144 7.03182C9.62419 7.41331 9.81782 7.92196 9.81782 8.4942Z" fill="#669DF3"/>
</svg>
