<svg width="16" height="16" viewBox="0 0 16 16" xmlns="http://www.w3.org/2000/svg">
<path d="M14.9849 3.76382C14.9879 3.25183 14.8484 2.7491 14.582 2.31168C14.3156 1.87425 13.9328 1.51933 13.4763 1.28649C13.0198 1.05365 12.5076 0.952036 11.9966 0.992988C11.4857 1.03394 10.9962 1.21584 10.5827 1.51842C10.1692 1.82099 9.84801 2.23234 9.65488 2.70659C9.46174 3.18085 9.40428 3.69937 9.48891 4.20434C9.57353 4.7093 9.79691 5.18086 10.1341 5.56644C10.4714 5.95201 10.9092 6.23644 11.3988 6.38802C11.3335 6.66516 11.1956 6.91998 10.9992 7.12638C10.5647 7.48604 10.0151 7.67731 9.45089 7.66519H4.5162V6.40797C5.15804 6.22505 5.71206 5.81655 6.07614 5.25776C6.44022 4.69898 6.58982 4.02757 6.49736 3.3673C6.40491 2.70702 6.07663 2.10238 5.57303 1.66481C5.06944 1.22725 4.42447 0.986259 3.75701 0.986259C3.08955 0.986259 2.44459 1.22725 1.94099 1.66481C1.4374 2.10238 1.10912 2.70702 1.01666 3.3673C0.924205 4.02757 1.0738 4.69898 1.43788 5.25776C1.80196 5.81655 2.35598 6.22505 2.99783 6.40797V9.561C2.35521 9.74284 1.80012 10.1507 1.43501 10.7094C1.0699 11.268 0.919411 11.9397 1.01131 12.6005C1.10321 13.2613 1.43129 13.8666 1.93502 14.3047C2.43874 14.7428 3.08411 14.9841 3.75202 14.9841C4.41992 14.9841 5.06529 14.7428 5.56902 14.3047C6.07274 13.8666 6.40083 13.2613 6.49273 12.6005C6.58462 11.9397 6.43413 11.268 6.06902 10.7094C5.70391 10.1507 5.14883 9.74284 4.50621 9.561V9.18184H9.50084C10.4408 9.17274 11.3443 8.81744 12.0381 8.18404C12.5263 7.7049 12.8393 7.07597 12.9272 6.39799C13.5118 6.24492 14.0299 5.90419 14.4017 5.42824C14.7735 4.95229 14.9784 4.36748 14.9849 3.76382ZM2.50835 3.76382C2.50239 3.51355 2.57137 3.2672 2.70644 3.05634C2.84152 2.84547 3.03654 2.67968 3.26653 2.58021C3.49652 2.48074 3.751 2.45211 3.99737 2.498C4.24375 2.54389 4.4708 2.66221 4.64944 2.83779C4.82808 3.01337 4.95017 3.23823 5.00008 3.48355C5.04999 3.72888 5.02544 3.9835 4.92958 4.2148C4.83372 4.4461 4.67091 4.64355 4.46201 4.78186C4.25311 4.92016 4.00763 4.99302 3.75701 4.9911C3.43006 4.9886 3.11691 4.85912 2.88385 4.63005C2.6508 4.40098 2.51613 4.09032 2.50835 3.76382ZM4.99568 12.2052C5.00163 12.4558 4.93239 12.7026 4.79686 12.9137C4.66133 13.1247 4.46571 13.2905 4.23513 13.3897C4.00455 13.4888 3.74955 13.5169 3.50291 13.4701C3.25626 13.4234 3.02923 13.3041 2.851 13.1275C2.67277 12.9509 2.55148 12.7251 2.50271 12.4791C2.45395 12.2332 2.47994 11.9782 2.57735 11.7471C2.67475 11.516 2.83913 11.3193 3.04934 11.1822C3.25955 11.0451 3.506 10.974 3.75701 10.9779C4.08223 10.9829 4.39285 11.1136 4.62377 11.3424C4.85469 11.5712 4.98798 11.8804 4.99568 12.2052ZM12.2279 4.9911C11.9786 4.99308 11.7342 4.92103 11.5259 4.78409C11.3176 4.64715 11.1548 4.4515 11.058 4.22196C10.9612 3.99241 10.9348 3.73932 10.9822 3.49479C11.0297 3.25026 11.1488 3.02531 11.3244 2.84848C11.5 2.67166 11.7242 2.55093 11.9687 2.5016C12.2131 2.45228 12.4667 2.47658 12.6972 2.57144C12.9278 2.6663 13.125 2.82742 13.2637 3.03438C13.4025 3.24134 13.4766 3.48481 13.4766 3.73388C13.4779 3.89851 13.4466 4.06177 13.3844 4.21425C13.3222 4.36672 13.2305 4.5054 13.1144 4.62227C12.9983 4.73915 12.8602 4.83192 12.7081 4.89522C12.5559 4.95852 12.3927 4.99111 12.2279 4.9911Z"/>
</svg>
