<svg width="24" height="24" viewBox="0 0 24 24" fill="none" xmlns="http://www.w3.org/2000/svg">

<path d="M21.75 16.4631V12.8719L21.3168 12.6724L11.5709 17.7599L2.36631 12.9717V10.8768L11.5709 15.665L21.6417 10.3781V6.78695L21.2086 6.58744L11.4626 11.6749L2.79947 7.08621L11.5709 2.49754L18.7179 6.18842L19.2594 5.88916V5.49015L11.5709 1.5L1.5 6.78695V7.28571L11.5709 12.5727L20.7754 7.78448V9.87931L11.5709 14.6675L1.82487 9.58005L1.5 9.77956V13.3707L11.5709 18.6576L20.7754 13.8695V15.9643L11.5709 20.7525L1.82487 15.665L1.5 15.9643V16.4631L11.5709 21.75L21.75 16.4631Z" fill="#FF3621"/>
</svg>
