<svg width="16" height="16" viewBox="0 0 16 16"  xmlns="http://www.w3.org/2000/svg">
<path d="M13.5125 1H2.4875C1.7 1 1 1.7 1 2.575V13.425C1 14.3 1.7 15 2.4875 15H13.5125C14.3 15 15 14.3 15 13.425V2.575C15 1.7 14.3 1 13.5125 1ZM13.6 2.4V13.6H2.4V2.4H13.6ZM4.23751 4.84999C4.23751 3.71249 6.16251 3.09999 8 3.09999C9.8375 3.09999 11.7625 3.71249 11.7625 4.84999V10.8C11.7625 11.9375 10.1 12.8125 8 12.8125C5.90001 12.8125 4.23751 11.9375 4.23751 10.8V4.84999ZM8 11.675C9.4875 11.675 10.45 11.15 10.45 10.8V6.42499C9.8375 6.77499 8.875 6.94999 8 6.94999C7.12501 6.94999 6.16251 6.77499 5.55001 6.51249V10.8C5.55001 11.15 6.51251 11.675 8 11.675ZM5.55001 4.93749C5.55001 5.11249 6.42501 5.63749 8 5.63749C9.575 5.63749 10.45 5.11249 10.45 4.93749C10.45 4.76249 9.575 4.23749 8 4.23749C6.42501 4.23749 5.63751 4.76249 5.55001 4.93749Z" />
</svg>
