<svg width="16" height="16" viewBox="0 0 16 16" fill="none" xmlns="http://www.w3.org/2000/svg">
<g clip-path="url(#clip0_3335_25852)">
<path d="M14.4284 6.59572L8.00696 10.3262L1.13077 6.34045L0.800049 6.52481V9.41844L8.00696 13.5886L14.4284 9.87234V11.4043L8.00696 15.1347L1.13077 11.149L0.800049 11.3333V11.8298L8.00696 16L15.2 11.8298V8.93617L14.8693 8.75176L8.00696 12.7234L1.57173 9.00708V7.47519L8.00696 11.1915L15.2 7.02129V4.17021L14.8418 3.95745L8.00696 7.91488L1.90244 4.39716L8.00696 0.865247L13.0228 3.77305L13.4638 3.51773V3.16312L8.00696 0L0.800049 4.17021V4.62411L8.00696 8.79434L14.4284 5.06383V6.59572Z" fill="#FF3621"/>
</g>
<defs>
<clipPath id="clip0_3335_25852">
<rect width="16" height="16" fill="white"/>
</clipPath>
</defs>
</svg>
