<svg width="13" height="13" viewBox="0 0 13 13" fill="none" xmlns="http://www.w3.org/2000/svg">
<path fill-rule="evenodd" clip-rule="evenodd" d="M6.00081 1.41797C6.9962 1.41798 7.9166 1.6185 8.60195 1.96087C9.26438 2.29183 9.81971 2.82038 9.81974 3.51722C9.81973 3.56086 9.81803 3.60393 9.81377 3.64624C9.81781 3.6919 9.81973 3.73813 9.81974 3.78494V8.23104L9.81527 8.3332L9.81452 8.34215L9.81377 8.35036C9.75203 9.05469 9.22807 9.61653 8.55646 9.98651C7.95963 10.3152 7.19536 10.5247 6.36175 10.5719L6.00081 10.5824C4.99693 10.5823 4.06929 10.3478 3.37954 9.94922C2.69987 9.55643 2.18188 8.95686 2.18188 8.21463V3.78494C2.1819 3.73713 2.18364 3.68986 2.18785 3.64325C2.18379 3.60191 2.18189 3.55983 2.18188 3.51722C2.18192 2.82042 2.73729 2.29184 3.39968 1.96087C4.08501 1.61848 5.00542 1.41799 6.00081 1.41797ZM9.0561 4.7984C8.91501 4.90083 8.76181 4.99296 8.60195 5.07283C7.91659 5.41522 6.99622 5.61572 6.00081 5.61573C5.00539 5.61571 4.08502 5.41524 3.39968 5.07283C3.23978 4.99293 3.08663 4.90086 2.94552 4.7984V8.21463C2.94552 8.56881 3.19723 8.96247 3.76136 9.28849C4.31551 9.60868 5.10667 9.81869 6.00081 9.81871L6.32073 9.80977C7.05572 9.76787 7.70545 9.58341 8.18806 9.31758C8.74724 9.00954 9.01927 8.63181 9.05163 8.28846L9.0561 8.19822V4.7984ZM6.00081 2.18161C5.10666 2.18163 4.31551 2.39177 3.76136 2.71183C3.27744 2.99138 3.02362 3.3206 2.96118 3.63207C3.01756 3.86431 3.24506 4.14181 3.74122 4.38974C4.29976 4.66875 5.09825 4.85207 6.00081 4.8521C6.90341 4.85209 7.70184 4.66875 8.2604 4.38974C8.7565 4.14188 8.9832 3.86429 9.0397 3.63207C8.97718 3.32064 8.72415 2.99133 8.24027 2.71183C7.75539 2.43182 7.08904 2.23592 6.33117 2.1913L6.00081 2.18161Z" fill="#5D6A85"/>
</svg>
