<svg width="20" height="20" viewBox="0 0 20 20"  xmlns="http://www.w3.org/2000/svg">
    <path fill-rule="evenodd" clip-rule="evenodd"
        d="M15.9211 2.5H4.07895C3.21053 2.5 2.5 3.25 2.5 4.16667V15.8333C2.5 16.75 3.21053 17.5 4.07895 17.5H15.9211C16.7895 17.5 17.5 16.75 17.5 15.8333V4.16667C17.5 3.25 16.7895 2.5 15.9211 2.5ZM15.921 4.1665V6.6665H4.07892V4.1665H15.921ZM15.9189 8.3335H4.07892V15.8335H15.9189V8.3335Z"
        />
    <path
        d="M7 9.30005V14.5H8.25V11.0002L9.33 14.5H10.67L11.75 11.0002V14.5H13V9.30005H11.18L10.0429 12.7302H10.0273L8.82 9.30005H7Z"
         />
</svg>
