<svg width="20" height="20" viewBox="0 0 20 20"  xmlns="http://www.w3.org/2000/svg">
        <path d="M3.95161 10.6431H2.5V13.5444H3.95161V10.6431Z"  />
        <path
            d="M3.96129 5.16925V4.20213C3.96124 4.13964 3.9854 4.07957 4.0287 4.03449C4.072 3.98942 4.13108 3.96285 4.19355 3.96035H5.16129V2.5H4.19355C3.7435 2.50256 3.31276 2.68301 2.99544 3.00195C2.67811 3.32088 2.49999 3.75237 2.5 4.20213V5.16925H3.96129Z"
             />
        <path d="M13.3871 2.51001H10.6387V3.96069H13.3871V2.51001Z"  />
        <path d="M9.3613 2.51001H6.61292V3.96069H9.3613V2.51001Z"  />
        <path
            d="M3.95161 15.8075V14.8403H2.5V15.8075C2.50254 16.2555 2.68178 16.6845 2.99884 17.0014C3.31589 17.3182 3.74518 17.4974 4.19355 17.4999H5.16129V16.0492H4.19355C4.12938 16.0492 4.06785 16.0238 4.02247 15.9784C3.9771 15.9331 3.95161 15.8716 3.95161 15.8075Z"
             />
        <path
            d="M15.8065 2.51001H14.8387V3.96069H15.8065C15.8707 3.96069 15.9322 3.98616 15.9776 4.0315C16.0229 4.07684 16.0484 4.13834 16.0484 4.20247V5.16958H17.5V4.20247C17.4975 3.75438 17.3183 3.32537 17.0012 3.00852C16.6841 2.69168 16.2549 2.51255 15.8065 2.51001Z"
             />
        <path d="M7.90962 14.6277H6.45801V16.0493V16.3492V17.5H9.36123V16.0493H7.90962V14.6277Z"  />
        <path d="M11.0936 7.20996H8.91614V8.66064H11.0936V7.20996Z"  />
        <path d="M13.5419 11.2234H12.0903V13.4671H13.5419V11.2234Z"  />
        <path d="M12.0903 16.0493H10.6387V17.5H13.5419V16.3492V16.0493V14.6277H12.0903V16.0493Z"  />
        <path d="M3.95161 8.83453V8.66045V7.20977V6.46509H2.5V9.36644H3.95161V8.83453Z"  />
        <path d="M15.0516 7.20996H12.0903V8.66064V10.063H13.5419V8.66064H15.0516V7.20996Z"  />
        <path d="M16.0483 7.20977V8.66045V8.83453V9.36644H17.5V6.46509H16.0483V7.20977Z"  />
        <path d="M7.90962 11.2234H6.45801V13.4671H7.90962V11.2234Z"  />
        <path d="M7.90965 8.66064H7.91933V7.20996H4.94836V8.66064H6.45804V10.063H7.90965V8.66064Z"  />
        <path
            d="M16.0484 15.8075C16.0484 15.8716 16.0229 15.9331 15.9776 15.9784C15.9322 16.0238 15.8707 16.0492 15.8065 16.0492H14.8387V17.4999H15.8065C16.2549 17.4974 16.6841 17.3182 17.0012 17.0014C17.3183 16.6845 17.4975 16.2555 17.5 15.8075V14.8403H16.0484V15.8075Z"
             />
        <path d="M17.5 10.6431H16.0483V13.5444H17.5V10.6431Z"  />
</svg>
