<svg width="20" height="20" viewBox="0 0 20 20"  xmlns="http://www.w3.org/2000/svg">
<path d="M15.8746 8.44118C15.8746 8.2754 15.829 8.12567 15.7379 7.99198C15.6468 7.85829 15.4772 7.73529 15.2292 7.62299C14.9863 7.50535 14.6345 7.3984 14.1739 7.30214C13.7589 7.20588 13.3717 7.08556 13.0123 6.94118C12.658 6.79144 12.3492 6.6123 12.086 6.40374C11.8279 6.19519 11.6255 5.9492 11.4787 5.66578C11.3319 5.37701 11.2585 5.04813 11.2585 4.67914C11.2585 4.31551 11.3319 3.97326 11.4787 3.65241C11.6305 3.33155 11.8456 3.04813 12.124 2.80214C12.4075 2.5508 12.7516 2.35561 13.1565 2.21658C13.5665 2.07219 14.0271 2 14.5383 2C15.252 2 15.8644 2.12032 16.3756 2.36096C16.8919 2.6016 17.2867 2.93316 17.56 3.35561C17.8384 3.77273 17.9776 4.24866 17.9776 4.78342H15.791C15.791 4.55882 15.7455 4.35829 15.6544 4.18182C15.5683 4 15.4317 3.85829 15.2444 3.75668C15.0622 3.64973 14.8243 3.59626 14.5307 3.59626C14.2878 3.59626 14.0777 3.64171 13.9006 3.73262C13.7234 3.81818 13.5868 3.93583 13.4906 4.08556C13.3995 4.22995 13.3539 4.39037 13.3539 4.56684C13.3539 4.70053 13.3793 4.82086 13.4299 4.92781C13.4855 5.02941 13.5741 5.12299 13.6956 5.20856C13.8171 5.29412 13.974 5.37433 14.1663 5.4492C14.3637 5.51872 14.6067 5.58289 14.8952 5.64171C15.4874 5.77005 16.0163 5.9385 16.4819 6.14706C16.9476 6.35027 17.3171 6.62834 17.5904 6.98128C17.8637 7.32888 18.0004 7.7861 18.0004 8.35294C18.0004 8.73797 17.9194 9.09091 17.7574 9.41176C17.5954 9.73262 17.3626 10.0134 17.0589 10.254C16.7552 10.4893 16.3908 10.6738 15.9657 10.8075C15.5456 10.9358 15.0723 11 14.5459 11C13.7816 11 13.1338 10.8556 12.6023 10.5668C12.0759 10.2781 11.6761 9.91176 11.4028 9.46791C11.1345 9.01872 11.0004 8.55882 11.0004 8.08824H13.073C13.0832 8.40374 13.1591 8.65775 13.3008 8.85027C13.4476 9.04278 13.6323 9.18182 13.855 9.26738C14.0828 9.35294 14.3283 9.39572 14.5915 9.39572C14.8749 9.39572 15.1103 9.35562 15.2975 9.2754C15.4848 9.18984 15.6265 9.07754 15.7227 8.9385C15.8239 8.79412 15.8746 8.62834 15.8746 8.44118Z" />
<path fill-rule="evenodd" clip-rule="evenodd" d="M14.5263 16.4413V11.5H16V16.4444C16 17.3 15.3368 18 14.5263 18H3.47368C2.66316 18 2 17.3 2 16.4444V5.55556C2 4.7 2.66316 4 3.47368 4H10.5V5.55859H9.85968V10.1601H11.3V11.8401H9.85968V16.4413H14.5263ZM8.14032 11.8401V16.4413H3.47366V11.8401H8.14032ZM8.14032 10.1601V5.55859H3.47366V10.1601H8.14032Z" />
</svg>
