<svg width="20" height="20" viewBox="0 0 20 20"  xmlns="http://www.w3.org/2000/svg">
        <path
            d="M14.56 16.4872H12V13.5781H10.53V16.4872H7.16997V10.669H10.45V9.17566H3.44997V5.87869H10.45V4.36597H3.44997C3.05297 4.38604 2.67962 4.55516 2.40897 4.83751C2.13832 5.11987 1.99164 5.49329 1.99997 5.87869V16.4872C1.99187 16.8774 2.14267 17.255 2.4197 17.5382C2.69673 17.8213 3.07767 17.9872 3.47997 17.9999H14.56C14.9561 17.9798 15.3284 17.8104 15.5975 17.5277C15.8665 17.2451 16.011 16.8717 16 16.4872V9.17566H14.56V16.4872ZM5.69997 16.4872H3.47997V10.669H5.69997V16.4872Z"
             />
        <path d="M13.45 6.42182V2H11.17V6.42182H6.58997V8.63273H11.17V13.0545H13.45V8.63273H18V6.42182H13.45Z"
             />
</svg>
