<svg width="24" height="24" viewBox="0 0 24 24" fill="none" xmlns="http://www.w3.org/2000/svg">

<path d="M18.1118 9.88021C17.0576 8.53609 15.716 7.76803 14.2785 7.09597C14.2785 7.19198 14.2785 7.19198 14.2785 7.19198C15.3326 7.96004 16.0035 9.01613 16.5785 10.0722C17.9201 12.5684 19.3576 15.0646 20.6992 17.5609C21.4659 18.905 20.6992 20.6331 19.1659 20.9211C18.7826 21.0172 18.3993 20.9211 18.0159 20.7291C15.6201 19.481 13.1285 18.2329 10.7327 16.8888C9.58271 16.2167 8.43273 15.3527 7.37858 14.6806C7.95357 15.9287 8.81606 17.1768 10.0619 18.1369C8.3369 19.097 6.80358 19.9611 5.07861 20.8251C4.31195 21.2092 3.2578 20.9211 2.58697 20.3451C1.91615 19.673 1.82031 18.809 2.29948 17.8489C3.06613 16.3128 3.92862 14.7766 4.79111 13.2405C5.46193 12.0884 5.46193 10.9363 4.79111 9.88021C3.92862 8.34408 3.16196 6.90395 2.29948 5.36782C1.82031 4.40774 1.91615 3.44766 2.58697 2.7756C3.35363 2.00754 4.31195 1.91153 5.27027 2.39157C6.70775 3.15964 8.14523 3.9277 9.58271 4.79178C10.7327 5.46383 11.8827 5.46383 13.1285 4.79178C14.6618 3.9277 16.0993 3.15964 17.6326 2.29556C18.7826 1.71951 19.9326 2.00754 20.5076 2.96762C20.8909 3.54367 20.9867 4.21573 20.6992 4.88778C19.9326 6.51992 18.9743 8.15206 18.1118 9.88021ZM13.5118 11.0323C13.416 10.1682 12.4577 9.40017 11.4994 9.40017C10.4452 9.40017 9.39105 10.3602 9.39105 11.4163C9.29522 12.5684 10.0619 13.5285 11.116 13.6245C10.541 12.1844 10.6369 11.6084 11.3077 11.0323C11.9785 10.5523 12.5535 10.4563 13.5118 11.0323ZM18.7826 5.17581C19.2618 5.17581 19.7409 4.79178 19.7409 4.31173C19.7409 3.73569 19.3576 3.35165 18.8784 3.35165C18.3993 3.35165 18.0159 3.73569 17.9201 4.21573C17.8243 4.69577 18.2076 5.17581 18.7826 5.17581ZM5.17444 18.809C5.17444 18.2329 4.79111 17.8489 4.31195 17.8489C3.83279 17.8489 3.35363 18.2329 3.35363 18.713C3.35363 19.193 3.73696 19.577 4.21612 19.673C4.69528 19.769 5.17444 19.289 5.17444 18.809ZM5.17444 4.31173C5.17444 3.73569 4.79111 3.35165 4.31195 3.35165C3.83279 3.35165 3.44946 3.73569 3.44946 4.21573C3.44946 4.79178 3.73696 5.17581 4.31195 5.17581C4.79111 5.17581 5.17444 4.88778 5.17444 4.31173ZM19.6451 18.713C19.6451 18.1369 19.2618 17.8489 18.6868 17.8489C18.1118 17.8489 17.8243 18.2329 17.8243 18.809C17.8243 19.385 18.2076 19.673 18.6868 19.673C19.2618 19.673 19.6451 19.289 19.6451 18.713Z" fill="#F05344"/>
</svg>
