<svg width="16" height="16" viewBox="0 0 16 16" xmlns="http://www.w3.org/2000/svg">
<path fill-rule="evenodd" clip-rule="evenodd" d="M9.40601 4.50214C9.40601 6.16017 8.06191 7.50427 6.40387 7.50427C4.74584 7.50427 3.40173 6.16017 3.40173 4.50214C3.40173 2.8441 4.74584 1.5 6.40387 1.5C8.06191 1.5 9.40601 2.8441 9.40601 4.50214ZM9.89875 5.66957C10.0712 5.29367 10.1624 4.88564 10.1665 4.47211C10.1585 3.85251 9.95892 3.25059 9.59521 2.74892C9.2315 2.24725 8.72146 1.87041 8.13508 1.67011C8.56187 1.52101 9.01823 1.47663 9.46574 1.5407C9.91326 1.60477 10.3388 1.77542 10.7066 2.03828C11.0744 2.30113 11.3737 2.64851 11.5793 3.05116C11.7848 3.45381 11.8906 3.89995 11.8878 4.35202C11.8845 5.0333 11.6358 5.69058 11.1873 6.20334H11.0872C10.4209 6.20649 9.76407 6.36045 9.16582 6.65366C9.47658 6.38079 9.72632 6.04547 9.89875 5.66957ZM5.45317 8.18469H7.39455C6.89429 8.92701 6.62607 9.80133 6.624 10.6965C6.62606 11.6707 6.9497 12.617 7.54466 13.3884H1V12.6479C1.01549 11.4707 1.48932 10.346 2.32084 9.51257C3.15236 8.67918 4.27604 8.20282 5.45317 8.18469ZM8.99121 7.43479C9.62643 7.01035 10.3733 6.7838 11.1372 6.7838C11.6449 6.78248 12.1478 6.88149 12.617 7.07515C13.0863 7.2688 13.5126 7.55328 13.8716 7.91223C14.2305 8.27118 14.515 8.69754 14.7086 9.16678C14.9023 9.63603 15.0013 10.1389 15 10.6466C15 11.4105 14.7734 12.1574 14.349 12.7926C13.9246 13.4278 13.3213 13.9229 12.6154 14.2153C11.9096 14.5076 11.133 14.5841 10.3837 14.4351C9.63435 14.286 8.94608 13.9181 8.40586 13.3779C7.86565 12.8377 7.49775 12.1494 7.34871 11.4001C7.19966 10.6508 7.27616 9.87417 7.56852 9.16834C7.86088 8.46252 8.35598 7.85924 8.99121 7.43479ZM8.71551 9.63782C8.58603 9.95817 8.52141 10.301 8.52538 10.6466C8.52671 11.1263 8.65813 11.5966 8.90565 12.0075L12.4782 8.38494C12.0731 8.14088 11.6101 8.00959 11.1372 8.00467C10.7917 8.00465 10.4496 8.07319 10.1307 8.20632C9.81188 8.33945 9.52261 8.53453 9.27968 8.78025C9.03675 9.02597 8.84499 9.31746 8.71551 9.63782ZM9.80629 12.8781C10.2058 13.1266 10.6668 13.2583 11.1372 13.2584C11.8299 13.2584 12.4943 12.9832 12.9841 12.4934C13.4739 12.0036 13.7491 11.3393 13.7491 10.6466C13.7492 10.1729 13.6176 9.70863 13.3688 9.3056L9.80629 12.8781Z" />
</svg>
