<svg width="24" height="24" viewBox="0 0 24 24" fill="none" xmlns="http://www.w3.org/2000/svg">
<rect x="1.5" y="1.5" width="21" height="21" rx="4.5" fill="#F3F5F9" stroke="#AEB4BB"/>
<path d="M11.3611 16H8V7H11.3889C12.3426 7 13.1636 7.18018 13.8519 7.54052C14.5401 7.89795 15.0695 8.41211 15.4398 9.08301C15.8133 9.75391 16 10.5566 16 11.4912C16 12.4287 15.8133 13.2344 15.4398 13.9082C15.0695 14.582 14.537 15.0991 13.8426 15.4595C13.1512 15.8198 12.3241 16 11.3611 16ZM10.0046 14.3696H11.2778C11.8704 14.3696 12.3688 14.27 12.7732 14.0708C13.1806 13.8687 13.4861 13.5566 13.6898 13.1348C13.8966 12.71 14 12.1621 14 11.4912C14 10.8262 13.8966 10.2827 13.6898 9.86083C13.4861 9.43897 13.1821 9.12841 12.7778 8.92919C12.3735 8.72997 11.875 8.63037 11.2824 8.63037H10.0046V14.3696Z" fill="#AEB4BB"/>
</svg>
