<svg xmlns="http://www.w3.org/2000/svg"
    xmlns:xlink="http://www.w3.org/1999/xlink" width="20px" height="20px" viewBox="0 0 20 20" version="1.1">
    <g id="surface1">
        <path style=" stroke:none;fill-rule:nonzero;fill:rgb(6.666667%,19.607843%,15.686275%);fill-opacity:1;" d="M 3 0 L 17 0 C 18.65625 0 20 1.34375 20 3 L 20 17 C 20 18.65625 18.65625 20 17 20 L 3 20 C 1.34375 20 0 18.65625 0 17 L 0 3 C 0 1.34375 1.34375 0 3 0 Z M 3 0 "/>
        <path style=" stroke:none;fill-rule:nonzero;fill:rgb(100%,100%,100%);fill-opacity:1;" d="M 8.867188 3.945312 L 11.054688 3.945312 L 11.054688 13.984375 C 9.921875 14.179688 9.101562 14.296875 8.203125 14.296875 C 5.507812 14.296875 4.140625 13.085938 4.140625 10.78125 C 4.140625 8.554688 5.585938 7.148438 7.890625 7.148438 C 8.242188 7.148438 8.515625 7.148438 8.867188 7.226562 Z M 8.867188 8.984375 C 8.59375 8.90625 8.398438 8.867188 8.125 8.867188 C 6.992188 8.867188 6.367188 9.570312 6.367188 10.742188 C 6.367188 11.914062 6.953125 12.539062 8.085938 12.539062 C 8.320312 12.539062 8.515625 12.539062 8.867188 12.460938 Z M 14.53125 7.265625 L 14.53125 12.304688 C 14.53125 14.0625 14.414062 14.882812 14.023438 15.585938 C 13.671875 16.289062 13.203125 16.71875 12.226562 17.226562 L 10.195312 16.25 C 11.171875 15.820312 11.640625 15.390625 11.914062 14.804688 C 12.226562 14.179688 12.34375 13.476562 12.34375 11.5625 L 12.34375 7.265625 Z M 12.34375 3.945312 L 14.53125 3.945312 L 14.53125 6.171875 L 12.34375 6.171875 Z M 12.34375 3.945312 "/>
    </g>
</svg>
