<svg width="24" height="24" viewBox="0 0 24 24" fill="none" xmlns="http://www.w3.org/2000/svg">
<path d="M1 1H23V23H1V1Z" fill="#4154D6"/>
<path fill-rule="evenodd" clip-rule="evenodd" d="M11.6471 5.48947C8.81604 5.48947 6.84314 6.26332 6.84314 6.95787C6.84314 7.65243 8.81604 8.42627 11.6471 8.42627C14.4781 8.42627 16.451 7.65243 16.451 6.95787C16.451 6.26332 14.4781 5.48947 11.6471 5.48947ZM11.7033 18.5105C14.5011 18.5105 16.451 17.7198 16.451 17.0103V14.8767C15.5942 15.5184 13.8508 15.9394 11.7401 15.9394C11.2534 15.9394 10.7637 15.9151 10.2841 15.8677L10.3448 15.3811C10.8043 15.4266 11.274 15.4499 11.7401 15.4499C14.3521 15.4499 16.2231 14.7568 16.451 14.086V11.4487C15.5942 12.0904 13.8508 12.5111 11.7401 12.5111C11.2433 12.5111 10.753 12.4867 10.283 12.4382L10.3459 11.9522C10.7953 11.9984 11.2641 12.0217 11.7401 12.0217C14.3521 12.0217 16.2231 11.3288 16.451 10.658V7.83793C15.6607 8.44169 14.0304 8.91574 11.6471 8.91574C9.26376 8.91574 7.63345 8.44169 6.84314 7.83793V8.67101H6.29412V6.95787C6.29412 6.00879 8.17012 5 11.6471 5C15.124 5 17 6.00879 17 6.95787V17.0103C17 18.1444 14.7229 19 11.7033 19C9.27804 19 7.22965 18.4276 6.60624 17.5759L7.06631 17.3084C7.50333 17.9058 9.23659 18.5105 11.7033 18.5105ZM5.13925 12.4096C4.9847 12.4096 4.84827 12.4646 4.75522 12.565C4.58392 12.7485 4.61165 13.0265 4.62839 13.1249C4.62043 13.6423 4.30118 13.7434 4.26412 13.7534C4.14608 13.7852 4.0629 13.8843 4.06592 13.9945C4.06894 14.1046 4.15047 14.2 4.27043 14.2267C4.30145 14.2353 4.62867 14.3388 4.62867 14.8728C4.62235 15.1609 4.7769 15.4802 5.13102 15.4898H5.34184V15.0003H5.1969C5.18592 14.9678 5.17741 14.9166 5.17769 14.8762C5.17769 14.4296 5.01023 14.1552 4.83125 13.9896C5.01023 13.8241 5.17769 13.5505 5.17769 13.1056C5.17769 13.0907 5.17604 13.0755 5.17302 13.0608C5.16259 13.0082 5.16259 12.9392 5.17137 12.899H5.34184V12.4096H5.13925ZM6.42396 12.4096H6.21286V12.899H6.35753C6.36878 12.9316 6.37729 12.9827 6.37702 13.0231C6.37702 13.4697 6.5442 13.7441 6.72318 13.9098C6.5442 14.0752 6.37702 14.3488 6.37702 14.7938C6.37702 14.8089 6.37867 14.8239 6.38141 14.8385C6.39184 14.8912 6.39184 14.9602 6.38306 15.0003H6.21286V15.4898H6.41545C6.57 15.4898 6.70643 15.4347 6.79976 15.3346C6.97078 15.1511 6.94278 14.8731 6.92631 14.7744C6.934 14.2573 7.25353 14.156 7.29059 14.1462C7.4089 14.1141 7.4918 14.015 7.48906 13.9049C7.48604 13.795 7.40423 13.6993 7.28427 13.6726C7.25298 13.6641 6.92604 13.5605 6.92604 13.0265C6.93235 12.7387 6.77808 12.4191 6.42396 12.4096ZM3.54902 16.5025H8.21569V10.6289H5.19608V11.6078C5.19608 11.7429 5.07337 11.8525 4.92157 11.8525H3.54902V16.5025ZM4.64706 10.6289H4.5798L3.74996 11.3631H4.64706V10.6289ZM3.08125 11.2652L4.27345 10.2104C4.32451 10.1649 4.39423 10.1394 4.46671 10.1394H4.64706H4.74725L5.59467 9.24711C5.6471 9.19205 5.72369 9.16048 5.80439 9.16048H9.58823C9.74004 9.16048 9.86274 9.27012 9.86274 9.40521V15.7683C9.86274 15.9034 9.74004 16.013 9.58823 16.013H9.03922V15.5236H9.31372V9.64994H5.93176L5.46674 10.1394H8.4902C8.642 10.1394 8.76471 10.2491 8.76471 10.3841V16.7472C8.76471 16.8823 8.642 16.992 8.4902 16.992H3.27451C3.12271 16.992 3 16.8823 3 16.7472V11.4389C3 11.3736 3.0291 11.3112 3.08125 11.2652Z" fill="white"/>
</svg>
