<svg width="16" height="16" viewBox="0 0 16 16" xmlns="http://www.w3.org/2000/svg">
<path d="M13.9272 5.6102C13.8917 5.53423 13.8419 5.46477 13.7803 5.4051L9.28025 1.2051C9.21631 1.14755 9.1419 1.10109 9.0605 1.0679C9.038 1.0581 9.014 1.0525 8.99 1.0448C8.92725 1.02487 8.86192 1.01286 8.79575 1.0091C8.78 1.0077 8.76575 1 8.75 1H3.5C2.67275 1 2 1.6279 2 2.4V13.6C2 14.3721 2.67275 15 3.5 15H12.5C13.3273 15 14 14.3721 14 13.6V5.9C14 5.8853 13.9917 5.872 13.9902 5.8566C13.9866 5.7948 13.9737 5.73378 13.952 5.6753C13.9445 5.6529 13.9377 5.6312 13.9272 5.6102ZM11.4395 5.2H9.5V3.3898L11.4395 5.2ZM3.5 13.6V2.4H8V5.9C8 6.08565 8.07902 6.2637 8.21967 6.39497C8.36032 6.52625 8.55109 6.6 8.75 6.6H12.5L12.5015 13.6H3.5Z"/>
<path d="M5 7.99995H11V9.39995H5V7.99995ZM5 10.8H11V12.2H5V10.8ZM5 5.19995H6.5V6.59995H5V5.19995Z"/>
</svg>
