<svg width="20" height="20" viewBox="0 0 20 20" xmlns="http://www.w3.org/2000/svg">
  <path
    d="M10 1.25C8.26942 1.25 6.57769 1.76318 5.13876 2.72464C3.69983 3.6861 2.57832 5.05267 1.91606 6.65152C1.25379 8.25037 1.08051 10.0097 1.41813 11.707C1.75575 13.4044 2.58911 14.9635 3.81282 16.1872C5.03653 17.4109 6.59563 18.2442 8.29296 18.5819C9.99029 18.9195 11.7496 18.7462 13.3485 18.0839C14.9473 17.4217 16.3139 16.3002 17.2754 14.8612C18.2368 13.4223 18.75 11.7306 18.75 10C18.75 8.85093 18.5237 7.71312 18.0839 6.65152C17.6442 5.58992 16.9997 4.62533 16.1872 3.81281C15.3747 3.0003 14.4101 2.35578 13.3485 1.91605C12.2869 1.47633 11.1491 1.25 10 1.25ZM10 17C8.61553 17 7.26215 16.5895 6.11101 15.8203C4.95987 15.0511 4.06266 13.9579 3.53285 12.6788C3.00303 11.3997 2.86441 9.99223 3.13451 8.63437C3.4046 7.2765 4.07129 6.02922 5.05026 5.05025C6.02922 4.07128 7.2765 3.4046 8.63437 3.1345C9.99224 2.86441 11.3997 3.00303 12.6788 3.53284C13.9579 4.06266 15.0511 4.95986 15.8203 6.11101C16.5895 7.26215 17 8.61553 17 10C17 11.8565 16.2625 13.637 14.9497 14.9497C13.637 16.2625 11.8565 17 10 17Z" />
  <path
    d="M10 9.125C8.25 9.125 8.25 8.57375 8.25 8.25C8.25 7.92625 8.8625 7.375 10 7.375C11.1375 7.375 11.2162 7.935 11.225 8.25H12.975C12.9632 7.65391 12.7488 7.0796 12.3671 6.62158C11.9854 6.16357 11.4592 5.84912 10.875 5.73V4.75H9.125V5.70375C7.375 5.9925 6.5 7.12125 6.5 8.25C6.5 9.23 6.955 10.875 10 10.875C11.75 10.875 11.75 11.47 11.75 11.75C11.75 12.03 11.2075 12.625 10 12.625C8.39 12.625 8.25 11.8725 8.25 11.75H6.5C6.5 12.555 7.0775 13.9812 9.125 14.305V15.25H10.875V14.305C12.625 14.0075 13.5 12.8787 13.5 11.75C13.5 10.77 13.045 9.125 10 9.125Z" />
</svg>