<svg width="16" height="16" viewBox="0 0 16 16" fill="none" xmlns="http://www.w3.org/2000/svg">
<g clip-path="url(#clip0_3335_25855)">
<path fill-rule="evenodd" clip-rule="evenodd" d="M15.95 0.324902C15.825 0.174902 15.5 0.174901 15.075 0.374901L9.87501 3.0249L9.85001 2.9999C9.75001 2.8999 9.67501 2.8249 9.57501 2.7249C9.42501 2.5999 9.15001 2.4249 8.97501 2.3499C7.85001 1.7749 6.52501 1.8249 5.35001 2.1749C4.02501 2.5749 2.77501 3.3749 1.82501 4.3749C1.40001 4.8249 1.02501 5.3499 0.725007 5.8999C0.350007 6.5999 0.125007 7.3499 0.0500066 8.1249C-0.0749934 9.6499 0.350007 11.6249 1.40001 12.7749C1.65001 13.0749 1.92501 13.3249 2.20001 13.5999C2.40001 13.7999 2.62501 13.9999 2.82501 14.2249C3.20001 14.6749 3.40001 15.1249 3.57501 15.6999L3.60001 15.7749L3.67501 15.7249C4.75001 14.9499 5.15001 13.9249 4.37501 12.7749C4.82501 12.3999 5.05001 11.8749 5.05001 11.2999C5.05001 10.7499 4.82501 10.1499 4.35001 9.8249C4.55001 9.7499 4.85001 9.5999 5.05001 9.5249C5.05001 9.6999 4.90001 9.9749 5.02501 10.0499C5.27501 10.1999 6.22501 9.7999 6.55001 8.9499C6.85001 8.8499 7.02501 8.7749 7.35001 8.6499C8.57501 8.1499 9.92501 7.4499 10.675 6.5749C10.925 6.2749 11.45 5.3999 10.875 5.1749C11.075 4.9499 11.2 4.5749 11.125 4.3249L15.575 1.0749C15.9 0.874902 16.1 0.499902 15.95 0.324902ZM2.27501 11.3999C2.17501 10.8499 3.12501 10.3749 3.62501 10.1499C3.50001 10.5499 3.25001 10.9499 2.95001 11.2499C2.80001 11.3749 2.42501 11.7249 2.27501 11.3999Z" fill="#393C42"/>
<path fill-rule="evenodd" clip-rule="evenodd" d="M10.625 5.9249C10.95 5.4999 10.725 5.2499 10.5 5.4999C10.05 5.9749 9.35 6.1249 8.725 6.0249C7.8 5.8749 7.775 5.7249 7.925 5.5999C9 5.9999 10.25 5.4749 10.775 4.6249C11 4.2999 10.25 4.0499 9.8 3.4499C7.675 0.574902 0.975002 3.0749 0.350002 8.1249C0.150002 9.6499 0.575002 11.3249 1.625 12.4999C2.4 13.3749 3.25 13.7499 3.725 15.1499C4.65 14.3499 4.525 13.4499 3.825 12.6499C5 12.0499 4.825 10.4749 4 9.9749C3.625 11.3749 2.25 12.4249 1.925 11.4249C1.725 10.3999 3.4 9.7249 6.075 8.7249C8.325 7.8499 9.775 7.1499 10.625 5.9249Z" fill="#55BFCE"/>
<path fill-rule="evenodd" clip-rule="evenodd" d="M10.625 5.9251C10.95 5.5001 10.725 5.2501 10.5 5.5001C10.1 5.9001 9.52503 6.0751 8.97503 6.0501C8.05003 5.9751 7.32503 5.8001 6.65003 5.8751C5.32503 6.0001 4.02503 6.8501 3.32503 7.5501C2.15003 8.7501 0.875034 11.2501 2.17503 11.7251C2.07503 11.6751 2.00003 11.5501 1.95003 11.4001C1.75003 10.3751 3.42503 9.7001 6.10003 8.7001C8.32503 7.8501 9.77503 7.1501 10.625 5.9251Z" fill="white"/>
<path fill-rule="evenodd" clip-rule="evenodd" d="M4.87499 7.87471C5.57499 8.19971 5.42499 9.39971 5.32499 9.69971C6.62499 9.32471 6.24999 7.39971 6.84999 6.79971C6.09999 6.77471 4.67499 7.52471 4.87499 7.87471Z" fill="#55BFCE"/>
<path fill-rule="evenodd" clip-rule="evenodd" d="M7.10006 4.37494C7.27506 4.27494 7.52506 4.34994 7.62506 4.52494C7.72506 4.69994 7.65006 4.92494 7.47506 5.04994C7.30006 5.14994 7.05006 5.07494 6.95006 4.89994C6.85006 4.69994 6.92506 4.47494 7.10006 4.37494Z" fill="#393C42"/>
<path fill-rule="evenodd" clip-rule="evenodd" d="M10.2751 4.52504L15.5251 0.875036C15.6751 0.775036 15.8751 0.550035 15.7751 0.425035C15.7001 0.325035 15.4751 0.375034 15.2751 0.475034L9.60005 3.55003C9.42505 3.92503 9.80005 4.72504 10.2751 4.52504Z" fill="#55BFCE"/>
<path fill-rule="evenodd" clip-rule="evenodd" d="M9.82496 3.7999L15.3 0.574902C15.55 0.424902 15.625 0.4249 15.775 0.4249C15.7 0.3249 15.475 0.399899 15.275 0.474899L9.59996 3.5499C9.44996 3.8499 9.64996 4.3749 9.94996 4.5249C9.84996 4.2749 9.77496 4.0249 9.82496 3.7999Z" fill="white"/>
<path fill-rule="evenodd" clip-rule="evenodd" d="M1.72498 5.25013C1.89998 5.22513 2.04998 5.35013 2.04998 5.52513C2.04998 5.70013 1.89998 5.87513 1.72498 5.90013C1.54998 5.92513 1.39998 5.80013 1.42498 5.62513C1.39998 5.45013 1.54998 5.27513 1.72498 5.25013Z" fill="#25ABAD"/>
<path fill-rule="evenodd" clip-rule="evenodd" d="M2.8 4.07491C2.95 4.04991 3.075 4.14991 3.075 4.32491C3.075 4.49991 2.95 4.64991 2.775 4.67491C2.625 4.69991 2.5 4.59991 2.5 4.42491C2.5 4.24991 2.65 4.09991 2.8 4.07491Z" fill="#25ABAD"/>
<path fill-rule="evenodd" clip-rule="evenodd" d="M6.02497 2.5251C6.17497 2.5251 6.27497 2.6751 6.24997 2.8251C6.19997 2.9751 6.04997 3.1001 5.89997 3.1001C5.74997 3.1001 5.64997 2.9501 5.67497 2.8001C5.69997 2.6251 5.84997 2.5001 6.02497 2.5251Z" fill="#25ABAD"/>
<path fill-rule="evenodd" clip-rule="evenodd" d="M6.99996 2.3499C7.12496 2.3749 7.19996 2.4999 7.14996 2.6249C7.09996 2.7499 6.94996 2.8249 6.82496 2.7999C6.69996 2.7749 6.62496 2.6499 6.67496 2.5249C6.72496 2.3999 6.87496 2.3249 6.99996 2.3499Z" fill="#25ABAD"/>
<path fill-rule="evenodd" clip-rule="evenodd" d="M2.79995 4.7997C2.92495 4.7747 2.99995 4.8747 2.99995 4.9747C2.99995 5.0997 2.89995 5.1997 2.77495 5.2247C2.64995 5.2497 2.57495 5.1747 2.57495 5.0497C2.59995 4.9497 2.69995 4.8247 2.79995 4.7997Z" fill="#25ABAD"/>
<path fill-rule="evenodd" clip-rule="evenodd" d="M1.15005 6.17492C1.27505 6.14992 1.37505 6.24992 1.37505 6.37492C1.37505 6.49992 1.27505 6.62492 1.15005 6.64992C1.02505 6.67492 0.925049 6.57492 0.925049 6.47492C0.925049 6.32492 1.02505 6.19992 1.15005 6.17492Z" fill="#25ABAD"/>
<path fill-rule="evenodd" clip-rule="evenodd" d="M10.975 3.12481C10.95 2.99981 10.95 2.8998 10.95 2.7998L10.7 2.9248C10.7 3.0248 10.725 3.1248 10.775 3.2248C10.875 3.4998 11.075 3.7498 11.225 3.7998C11.125 3.6248 11.025 3.37481 10.975 3.12481ZM12.275 2.3498C12.275 2.2498 12.25 2.1748 12.275 2.0998L12.075 2.2248C12.075 2.2998 12.1 2.37481 12.125 2.44981C12.225 2.69981 12.4 2.9248 12.5 2.9248C12.4 2.8248 12.325 2.5748 12.275 2.3498ZM13.575 1.5998C13.575 1.5248 13.55 1.47481 13.575 1.39981L13.4 1.49981C13.4 1.54981 13.4 1.6248 13.425 1.6748C13.475 1.8498 13.575 2.0248 13.725 2.0498C13.675 1.9498 13.6 1.7998 13.575 1.5998ZM14.825 0.874805C14.825 0.824805 14.8 0.774805 14.825 0.749805L14.725 0.799805L14.675 0.824806C14.675 0.849806 14.7 0.899806 14.725 0.949806C14.775 1.07481 14.875 1.22481 14.95 1.27481C14.9 1.17481 14.85 1.02481 14.825 0.874805Z" fill="#25ABAD"/>
</g>
<defs>
<clipPath id="clip0_3335_25855">
<rect width="16" height="16" fill="white"/>
</clipPath>
</defs>
</svg>
