<svg width="24" height="24" viewBox="0 0 24 24" fill="none" xmlns="http://www.w3.org/2000/svg">
<path d="M1 1H23V23H1V1Z" fill="#4154D6"/>
<path fill-rule="evenodd" clip-rule="evenodd" d="M8.22672 15.2429C9.13076 16.014 11.0274 16.4215 12.8423 16.4215C14.6574 16.4215 16.5546 16.0137 17.4583 15.2426V16.7956C17.4583 17.5701 15.5625 18.4332 12.8423 18.4332C10.1242 18.4332 8.2297 17.5712 8.22672 16.7973V15.2429ZM8.22645 12.2921L7.68478 12.289V12.2921C7.68478 12.6372 7.84864 12.9594 8.16768 13.2544C7.78093 13.6135 7.68478 13.9657 7.68478 14.2165C7.68478 14.2182 7.68505 14.2196 7.68505 14.2213V16.7956C7.68505 18.2272 10.3422 19 12.8423 19C15.3364 19 17.9865 18.2306 17.9992 16.8055C17.9992 16.8041 18 16.8027 18 16.8012V14.2157C18 14.2151 17.9995 14.2143 17.9995 14.2134C17.9986 13.9626 17.9022 13.6118 17.516 13.2536C17.8998 12.896 17.9973 12.5471 17.9997 12.2983H17.9995C17.9995 12.2972 18 12.2963 18 12.2952V9.70962C18 9.70877 17.9995 9.70792 17.9995 9.70707C17.9986 9.45628 17.902 9.10545 17.5158 8.74783C17.8998 8.38991 17.9973 8.04079 17.9997 7.79226H17.9995C17.9995 7.79113 18 7.79 18 7.78886V5.20357C18 5.20272 17.9995 5.20187 17.9995 5.20102C17.9949 3.77136 15.3404 3 12.8423 3C11.4309 3 10.0752 3.23662 9.12264 3.64923L9.32982 4.17292C10.219 3.7878 11.4992 3.56676 12.8423 3.56676C15.5625 3.56676 17.4581 4.42994 17.4581 5.20499C17.4581 5.97976 15.5625 6.84294 12.8423 6.84294C12.7689 6.84379 12.6971 6.84294 12.6245 6.8401L12.6018 7.4063C12.6819 7.4097 12.7621 7.4097 12.8423 7.4097C14.6574 7.4097 16.5546 7.00191 17.4583 6.23083V7.78291L17.4581 7.78943C17.4554 8.0867 17.1664 8.34627 16.9243 8.5112C16.1957 9.00117 14.8903 9.33584 13.4346 9.40527L13.4592 9.97147C14.9339 9.90091 16.2252 9.57813 17.0564 9.08335C17.2612 9.24488 17.4581 9.46336 17.4581 9.71104C17.4581 10.4858 15.5625 11.349 12.8423 11.349C12.5755 11.349 12.3106 11.3396 12.0547 11.3209L12.017 11.8863C12.2852 11.9058 12.563 11.9157 12.8423 11.9157C14.6574 11.9157 16.5546 11.508 17.4583 10.7369V12.289C17.4556 12.5927 17.1664 12.852 16.9243 13.0173C16.0912 13.5781 14.5268 13.9272 12.8423 13.9272H12.7231V14.494H12.8423C14.5536 14.494 16.109 14.1587 17.0602 13.5922C17.2639 13.7535 17.4581 13.9708 17.4581 14.2165C17.4581 14.9913 15.5625 15.8547 12.8423 15.8547C10.1242 15.8547 8.2297 14.9927 8.22672 14.2185V14.2157C8.22726 13.9694 8.42226 13.7518 8.62647 13.5905C8.75864 13.6696 8.90028 13.7458 9.06143 13.8158L9.26889 13.2921C9.07226 13.2068 8.90164 13.1147 8.76162 13.0178C8.51732 12.8498 8.22645 12.5871 8.22645 12.2921ZM5.90649 8.14762H7.42424C7.51389 8.14762 7.59812 8.10115 7.64822 8.0235C7.69887 7.94586 7.70916 7.84696 7.67612 7.75996L6.75285 5.32514H10.249L11.874 8.72572H10.1456C10.0592 8.72572 9.97793 8.76908 9.92674 8.84191C9.87609 8.91502 9.8612 9.00882 9.88747 9.09525L11.4301 14.1683L5.90649 8.14762ZM5.07531 8.06063L11.8459 15.4399C11.8987 15.4971 11.9696 15.5269 12.0414 15.5269C12.0891 15.5269 12.137 15.5141 12.1798 15.4872C12.2881 15.4198 12.3377 15.2835 12.2995 15.1576L10.5158 9.29249H12.3122C12.4062 9.29249 12.4932 9.24176 12.5427 9.15816C12.592 9.07457 12.5966 8.97028 12.5544 8.88243L10.6585 4.91509C10.6128 4.81903 10.5191 4.75838 10.4164 4.75838H6.35391C6.26427 4.75838 6.18004 4.80514 6.12993 4.8825C6.07929 4.96043 6.06899 5.05905 6.10204 5.14633L7.02531 7.58086H5.27085C5.16252 7.58086 5.0642 7.64887 5.02168 7.75316C4.97916 7.85772 5.00029 7.97873 5.07531 8.06063ZM17.0643 16.9069C16.6805 17.1351 16.1973 17.3269 15.6283 17.4765L15.4961 16.9268C16.0105 16.7916 16.46 16.6142 16.7967 16.4141L17.0643 16.9069ZM15.6283 12.9424L15.4961 12.393C16.0105 12.2575 16.46 12.0801 16.7967 11.88L17.0643 12.3728C16.6805 12.601 16.1976 12.7928 15.6283 12.9424ZM17.0643 7.83874L16.7967 7.34594C16.4606 7.54601 16.0107 7.72312 15.4961 7.85886L15.6283 8.40834C16.1981 8.25843 16.681 8.06658 17.0643 7.83874Z" fill="white"/>
</svg>
