<svg width="16" height="16" viewBox="0 0 16 16" xmlns="http://www.w3.org/2000/svg">
<path fill-rule="evenodd" clip-rule="evenodd" d="M5.17247 1.33333L5.2 1.33333H10.8L10.8275 1.33333C11.3642 1.33332 11.8071 1.33332 12.1679 1.3628C12.5426 1.39341 12.8871 1.45912 13.2106 1.62398C13.7124 1.87964 14.1204 2.28759 14.376 2.78936C14.5409 3.11292 14.6066 3.45738 14.6372 3.83212C14.6667 4.1929 14.6667 4.6358 14.6667 5.17242V5.17245V5.2V6V9.12147C14.3253 8.60807 13.8685 8.17805 13.3333 7.86846V6.66667H2.66667V10.8C2.66667 11.3711 2.66718 11.7592 2.6917 12.0593C2.71558 12.3516 2.75886 12.5011 2.81199 12.6053L2.21799 12.908L2.81199 12.6053C2.93982 12.8562 3.1438 13.0602 3.39468 13.188C3.49895 13.2411 3.64842 13.2844 3.94069 13.3083C4.24075 13.3328 4.62895 13.3333 5.2 13.3333H7.86846C8.17805 13.8685 8.60807 14.3253 9.12147 14.6667H5.2H5.17245H5.17242C4.6358 14.6667 4.1929 14.6667 3.83212 14.6372C3.45738 14.6066 3.11292 14.5409 2.78936 14.376C2.28759 14.1204 1.87964 13.7124 1.62398 13.2106C1.45912 12.8871 1.39341 12.5426 1.3628 12.1679C1.33332 11.8071 1.33332 11.3642 1.33333 10.8275L1.33333 10.8V6V5.2L1.33333 5.17247C1.33332 4.63582 1.33332 4.19291 1.3628 3.83212C1.39341 3.45738 1.45912 3.11292 1.62398 2.78936C1.87964 2.28759 2.28759 1.87964 2.78936 1.62398C3.11292 1.45912 3.45738 1.39341 3.83212 1.3628C4.19291 1.33332 4.63582 1.33332 5.17247 1.33333ZM13.3333 5.33333H2.66667V5.2C2.66667 4.62895 2.66718 4.24075 2.6917 3.94069C2.71558 3.64842 2.75886 3.49895 2.81199 3.39468C2.93982 3.1438 3.1438 2.93982 3.39468 2.81199C3.49895 2.75886 3.64842 2.71558 3.94069 2.6917C4.24075 2.66718 4.62895 2.66667 5.2 2.66667H10.8C11.3711 2.66667 11.7592 2.66718 12.0593 2.6917C12.3516 2.71558 12.5011 2.75886 12.6053 2.81199L12.9061 2.22173L12.6053 2.81199C12.8562 2.93982 13.0602 3.1438 13.188 3.39468C13.2411 3.49895 13.2844 3.64842 13.3083 3.94069C13.3328 4.24075 13.3333 4.62895 13.3333 5.2V5.33333ZM11.941 7.89477C12.0792 7.95474 12.1613 8.09861 12.1426 8.24805L11.851 10.5807L13.9526 10.5807C14.0344 10.5807 14.1172 10.5807 14.1849 10.5868C14.2489 10.5926 14.3714 10.608 14.4776 10.6938C14.5993 10.7921 14.669 10.9409 14.6666 11.0973C14.6646 11.2339 14.5979 11.3378 14.5614 11.3907C14.5228 11.4466 14.4698 11.5102 14.4174 11.573L11.3881 15.2082C11.2916 15.3239 11.1305 15.3622 10.9923 15.3022C10.8542 15.2423 10.7721 15.0984 10.7908 14.949L11.0824 12.6163L8.98071 12.6163C8.89895 12.6163 8.81614 12.6163 8.74849 12.6102C8.6845 12.6044 8.56198 12.5891 8.45572 12.5032C8.33407 12.4049 8.26438 12.2561 8.26674 12.0997C8.2688 11.9631 8.33547 11.8592 8.37198 11.8063C8.41059 11.7504 8.46361 11.6868 8.51596 11.624L11.5453 7.98879C11.6417 7.87309 11.8029 7.8348 11.941 7.89477Z" />
</svg>
