<svg width="14" height="15" viewBox="0 0 14 15" xmlns="http://www.w3.org/2000/svg">
<path d="M11.1536 4.50022C11.3899 4.26396 11.5199 3.95019 11.5199 3.61643C11.5199 3.28266 11.3899 2.96889 11.1536 2.73263L10.1623 1.74133C9.92607 1.50507 9.61231 1.37506 9.27854 1.37506C8.94477 1.37506 8.63101 1.50507 8.39537 1.7407L1.75003 8.36542V11.1249H4.5083L11.1536 4.50022ZM9.27854 2.62512L10.2705 3.6158L9.27666 4.60585L8.28536 3.61518L9.27854 2.62512ZM3.00009 9.87487V8.88419L7.40032 4.49772L8.39162 5.48902L3.99202 9.87487H3.00009ZM1.75003 12.375H11.7505V13.6251H1.75003V12.375Z" />
</svg>
