<svg width="16" height="16" viewBox="0 0 16 16" xmlns="http://www.w3.org/2000/svg">
<path d="M2.64956 13.9953C2.701 14.0016 2.75301 14.0016 2.80445 13.9953L5.38596 13.35C5.50048 13.3227 5.60537 13.2647 5.68928 13.1822L13.621 5.22467C13.8614 4.98283 13.9963 4.65569 13.9963 4.31469C13.9963 3.97369 13.8614 3.64655 13.621 3.40471L12.6013 2.37856C12.4814 2.25855 12.339 2.16335 12.1823 2.09839C12.0256 2.03343 11.8577 2 11.6881 2C11.5184 2 11.3505 2.03343 11.1938 2.09839C11.0371 2.16335 10.8947 2.25855 10.7748 2.37856L2.84317 10.3102C2.75978 10.3945 2.69974 10.4991 2.66892 10.6136L2.02355 13.1951C2.00035 13.2786 1.99421 13.3659 2.00549 13.4518C2.01678 13.5378 2.04525 13.6205 2.08922 13.6952C2.13319 13.7699 2.19175 13.835 2.26141 13.8865C2.33107 13.9381 2.4104 13.9751 2.49467 13.9953C2.54611 14.0016 2.59812 14.0016 2.64956 13.9953ZM11.6848 3.28854L12.711 4.31469L11.6848 5.34084L10.6651 4.31469L11.6848 3.28854ZM3.88223 11.0976L9.7487 5.22467L10.7748 6.25082L4.90192 12.1237L3.54018 12.4593L3.88223 11.0976Z" />
</svg>
