<svg width="24" height="24" viewBox="0 0 24 24" fill="none" xmlns="http://www.w3.org/2000/svg">
<path d="M23 1H1V23H23V1Z" fill="#CD1543"/>
<path d="M15.2819 10C15.3141 10 15.3424 10 15.3706 10C16.9976 10 18.6244 9.99992 20.2514 10.0001C20.5955 10.0001 20.9357 10.0183 21.2603 10.1003C21.717 10.2157 21.9717 10.4292 21.9967 10.7483C22.0252 11.113 21.8706 11.4401 21.4901 11.7156C21.2926 11.8586 21.0494 11.9577 20.7643 12.0127C20.7328 12.0188 20.7016 12.0261 20.6574 12.0355C20.6836 12.0456 20.6976 12.0521 20.713 12.0566C21.0293 12.1478 21.1831 12.313 21.1886 12.5292C21.1924 12.677 21.158 12.8254 21.1371 12.9733C21.1046 13.2038 21.0641 13.4339 21.0373 13.6646C21.0246 13.7737 21.0618 13.8798 21.1509 13.9758C21.1558 13.981 21.1574 13.9874 21.1635 13.999C21.1311 13.999 21.1061 13.999 21.0808 13.999C20.3851 13.999 19.6893 13.9984 18.9936 14C18.9287 14.0001 18.904 13.9905 18.8949 13.9465C18.8671 13.813 18.9112 13.684 18.9412 13.5538C18.9755 13.4053 19.0162 13.2571 19.0438 13.108C19.0542 13.0519 19.0441 12.9928 19.0286 12.9368C18.9873 12.7881 18.8528 12.7051 18.6224 12.6809C18.5581 12.6741 18.4924 12.6701 18.4272 12.67C17.7995 12.6692 17.1718 12.6694 16.5439 12.6695C16.5259 12.6695 16.5078 12.6707 16.4851 12.6716C16.3438 13.1137 16.2027 13.5549 16.0613 13.9973H14C14.4277 12.6641 14.854 11.3342 15.2819 10ZM16.7725 11.7742C16.8155 11.7742 16.8461 11.7742 16.8767 11.7742C17.4832 11.7742 18.0898 11.7744 18.6963 11.7738C18.7746 11.7738 18.8531 11.771 18.9309 11.7659C19.3245 11.7403 19.6189 11.5603 19.6814 11.3086C19.7353 11.0915 19.5818 10.9468 19.2529 10.9071C19.194 10.9 19.1334 10.8964 19.0736 10.8963C18.4227 10.8955 17.7716 10.896 17.1207 10.895C17.0721 10.895 17.0541 10.9041 17.0442 10.9359C16.9852 11.1262 16.9216 11.3159 16.8596 11.5059C16.8312 11.593 16.8031 11.68 16.7725 11.7742Z" fill="white"/>
<path d="M8 14C8.40082 12.665 8.80044 11.3337 9.20086 10H11.1339C10.9909 10.4759 10.8488 10.9489 10.7054 11.4259H13.6372C13.78 10.952 13.9231 10.4773 14.0669 10.0003H16C15.5996 11.3341 15.2001 12.6655 14.7995 13.9996H12.8663C13.0334 13.4428 13.1997 12.8884 13.3676 12.3292H10.4351C10.2679 12.8856 10.1009 13.4418 9.93321 14H8Z" fill="white"/>
<path d="M7.16625 12.4116H4.05846C3.99823 12.6524 3.93875 12.8903 3.8779 13.1338H7.19383C7.16323 13.2547 7.13449 13.3698 7.10486 13.4848C7.06483 13.6403 7.02183 13.7954 6.98481 13.9515C6.97571 13.9895 6.95932 14.0003 6.91233 14C6.6625 13.9981 6.41262 13.9991 6.16277 13.9991H2C2.34348 12.6635 2.68556 11.3332 3.02841 10H8C7.92626 10.286 7.85305 10.5704 7.77872 10.8588H4.46216C4.39916 11.1007 4.33729 11.3385 4.27404 11.5813H7.38208C7.3096 11.8603 7.23819 12.1343 7.16625 12.4116Z" fill="white"/>
</svg>
