<svg width="16" height="16" fill="none" xmlns="http://www.w3.org/2000/svg"><g clip-path="url(#a)"><path d="M10.496 15.172c-1.064.12-2.028-.156-2.884-.784-.416-.304-.756-.7-1.108-1.084-.384-.424-.752-.86-1.112-1.308a65.162 65.162 0 0 1-1.824-2.364c-.476-.648-.956-1.288-1.4-1.956a1.55 1.55 0 0 1-.224-.568c-.052-.252.096-.484.392-.644.256.04.456.18.62.372.38.436.756.876 1.14 1.308.308.344.608.696.94 1.016.268.256.5.28.724.092.06-.048.044-.088.02-.136.136-.02.164-.068.088-.188-.1-.16-.208-.316-.312-.476-.704-1.04-1.408-2.084-2.116-3.124-.128-.188-.264-.364-.332-.584-.148-.452-.04-.736.372-.984.328.024.532.252.716.48.792.98 1.564 1.976 2.348 2.964.136.172.276.344.412.516.12.152.272.212.46.176.14-.028.192-.112.148-.228.144-.024.164-.056.092-.192a30.527 30.527 0 0 0-.444-.788c-.42-.736-.84-1.476-1.256-2.212a28.53 28.53 0 0 1-.852-1.58 2.006 2.006 0 0 1-.176-.536c-.06-.34.104-.604.456-.76.336.004.564.188.732.456.564.896 1.092 1.816 1.652 2.72.34.548.664 1.108 1.048 1.628.296.396.416.424.844.188.052-.092.036-.184.004-.28-.164-.496-.38-.972-.592-1.448-.396-.884-.796-1.76-1.196-2.64a2.218 2.218 0 0 1-.152-.496c-.064-.348.096-.592.492-.764.212.012.356.14.48.296.2.256.34.552.496.832.916 1.64 1.828 3.276 2.74 4.916.132.236.264.46.232.748a.792.792 0 0 1-.196.472c-.256.288-.52.568-.74.884a3.022 3.022 0 0 0-.552 1.716c-.008.52.02 1.036.2 1.532.056.156.116.308.208.444.024.036.044.068.076.096.028.024.064.04.1.02.044-.024.04-.068.036-.108-.012-.072-.044-.136-.06-.208-.168-.608-.268-1.22-.156-1.852.12-.652.432-1.2.86-1.692.252-.284.496-.576.624-.944.084-.248.128-.496.072-.756-.008-.044-.024-.092.008-.132.064-.288.096-.58.18-.864.156-.5.26-1.02.576-1.46.268-.372.58-.688 1.064-.732.492-.044.82.348.704.756-.156.28-.248.58-.34.884a9.4 9.4 0 0 0-.396 2.236c-.04.688-.004 1.372-.028 2.06-.028.772-.12 1.532-.44 2.248-.276.62-.692 1.132-1.196 1.584-.588.528-1.288.852-2.032 1.088-.084.032-.184.044-.24.144Z" fill="#FEDBB8"/><path d="M12.652 7.232c.16.56-.036 1.036-.356 1.476-.22.304-.492.56-.696.876-.372.58-.564 1.204-.516 1.888.028.416.08.832.232 1.228.032.088.108.216-.016.272-.116.052-.188-.06-.244-.156a3.107 3.107 0 0 1-.4-1.48c-.016-.408-.02-.816.08-1.22.136-.536.404-.992.756-1.404.164-.192.344-.368.496-.564a.737.737 0 0 0 .076-.812c-.264-.524-.56-1.036-.848-1.548-.332-.6-.668-1.2-1.004-1.796-.48-.856-.964-1.712-1.44-2.572-.184-.336-.428-.4-.548-.464.376-.112.692.008.936.4.288.456.552.924.824 1.384.888 1.5 1.78 2.996 2.668 4.492ZM10.496 15.172c-.132-.036.04-.116.096-.136a7.919 7.919 0 0 0 1.184-.468 4.75 4.75 0 0 0 2.052-2.004c.284-.52.42-1.092.488-1.68.096-.82.036-1.648.06-2.468.032-1.164.244-2.292.696-3.368.072-.14.096-.16.128-.2 0 0-.004.04-.016.072-.004.008-.004.016-.004.028-.068.456-.14.912-.204 1.364-.064.444-.116.892-.144 1.34-.052.884.008 1.772-.032 2.656-.044.964-.188 1.912-.736 2.736-.776 1.172-1.892 1.84-3.26 2.1a1.006 1.006 0 0 1-.308.028Z" fill="#F5BA78"/><path d="M9.664 6.592c-.208.248-.496.268-.716.032-.228-.244-.4-.532-.576-.812-.792-1.244-1.528-2.528-2.312-3.78a.857.857 0 0 0-.576-.412.577.577 0 0 1-.096-.02c.392-.204.792-.088 1.104.336.376.512.692 1.064 1.032 1.6C8.12 4.48 8.68 5.444 9.32 6.36c.08.124.192.208.344.232ZM7.492 7.664c.076.008.208-.056.208-.056a.428.428 0 0 1-.116.224C7.412 7.988 7.172 8 7 7.808c-.208-.232-.4-.48-.592-.724a440.797 440.797 0 0 1-1.688-2.14c-.184-.232-.364-.468-.548-.696-.188-.224-.316-.328-.692-.488.364-.152.664-.012.92.236.332.32.596.7.888 1.056.636.768 1.264 1.544 1.904 2.312.088.104.2.284.3.3ZM5.764 9.112c.036.016.116-.024.144-.06-.156.392-.564.452-.872.16-.356-.34-.672-.712-.996-1.08-.308-.352-.62-.704-.928-1.056-.14-.16-.276-.324-.456-.452-.1-.072-.144-.116-.32-.156.336-.164.612-.124.876.152.52.548 1.028 1.108 1.544 1.664.232.248.476.48.74.688a.782.782 0 0 0 .268.14Z" fill="#F5BA78"/><path d="M11.884 1.288c.512.448.864 1.004 1.116 1.632.104.256.176.524.224.8a.625.625 0 0 1 .008.228.187.187 0 0 1-.168.156c-.088.012-.148-.036-.184-.112-.032-.072-.052-.144-.076-.216-.276-.844-.716-1.588-1.372-2.192a8.073 8.073 0 0 0-.4-.336c-.136-.108-.164-.228-.12-.32a.211.211 0 0 1 .164-.124c.252-.028.608.312.808.484ZM.812 9.848c-.024-.116-.02-.232.108-.28.136-.048.224-.008.296.184a5.1 5.1 0 0 0 1.376 2.044c.172.156.356.292.548.42.028.02.06.036.088.06.096.076.168.164.108.288-.064.132-.184.112-.296.08a1.897 1.897 0 0 1-.548-.272c-.836-.58-1.344-1.388-1.628-2.352-.012-.032-.04-.092-.052-.172ZM12.408 4.516c0 .116-.04.208-.164.232-.128.024-.192-.052-.224-.16a6.118 6.118 0 0 0-.396-1c-.344-.652-.792-1.216-1.388-1.656a.831.831 0 0 1-.128-.108c-.064-.076-.096-.16-.032-.252s.152-.116.256-.076c.268.108.516.26.728.456.744.676 1.176 1.524 1.344 2.512 0 .016 0 .036.004.052ZM3.888 11.96a1.495 1.495 0 0 1-.472-.204c-.984-.612-1.536-1.524-1.808-2.624-.032-.128-.004-.24.136-.284.144-.044.204.056.244.172.276.728.668 1.384 1.228 1.932.224.208.464.4.724.568a.662.662 0 0 1 .144.112c.06.064.084.14.044.224-.04.092-.112.112-.24.104Z" fill="#ADBFC6"/></g><defs><clipPath id="a"><path fill="#fff" d="M0 0h16v16H0z"/></clipPath></defs></svg>