<svg width="16" height="16" viewBox="0 0 16 16" xmlns="http://www.w3.org/2000/svg">
<path fill-rule="evenodd" clip-rule="evenodd" d="M1 3.92854C1 2.86344 1.85258 2 2.90429 2H4.80858C5.86029 2 6.71287 2.86344 6.71287 3.92854V4.05661H6.96245C7.8973 4.05661 8.65515 4.97759 8.65515 6.11367V7.48517H9.28711V7.35698C9.28711 6.29187 10.1397 5.42844 11.1914 5.42844H13.0957C14.1474 5.42844 15 6.29187 15 7.35698V8.64267C15 9.70778 14.1474 10.5712 13.0957 10.5712H11.1914C10.149 10.5712 9.30216 9.72293 9.28731 8.6708V8.85654H8.65515V10.2278C8.65515 11.3639 7.8973 12.2849 6.96245 12.2849H6.70135C6.5965 13.2496 5.78908 14 4.80858 14H2.90429C1.85258 14 1 13.1366 1 12.0715V10.7858C1 9.72068 1.85258 8.85725 2.90429 8.85725H4.80858C5.86029 8.85725 6.71287 9.72068 6.71287 10.7858V10.9135H6.96245C7.27407 10.9135 7.52668 10.6065 7.52668 10.2278V6.11367C7.52668 5.73498 7.27407 5.42798 6.96245 5.42798H6.70131C6.5963 6.3925 5.78896 7.14278 4.80858 7.14278H2.90429C1.85258 7.14278 1 6.27934 1 5.21424V3.92854ZM2.90429 3.28569C2.55372 3.28569 2.26953 3.57351 2.26953 3.92854V5.21424C2.26953 5.56927 2.55372 5.85708 2.90429 5.85708H4.80858C5.15915 5.85708 5.44335 5.56927 5.44335 5.21424V3.92854C5.44335 3.57351 5.15915 3.28569 4.80858 3.28569H2.90429ZM11.1914 6.71413C10.8408 6.71413 10.5566 7.00194 10.5566 7.35698V8.64267C10.5566 8.99771 10.8408 9.28552 11.1914 9.28552H13.0957C13.4463 9.28552 13.7305 8.99771 13.7305 8.64267V7.35698C13.7305 7.00194 13.4463 6.71413 13.0957 6.71413H11.1914ZM2.26953 10.7858C2.26953 10.4308 2.55372 10.1429 2.90429 10.1429H4.80858C5.15915 10.1429 5.44335 10.4308 5.44335 10.7858V12.0715C5.44335 12.4265 5.15915 12.7143 4.80858 12.7143H2.90429C2.55372 12.7143 2.26953 12.4265 2.26953 12.0715V10.7858Z" />
</svg>
