<svg width="16" height="16" viewBox="0 0 16 16" xmlns="http://www.w3.org/2000/svg">
<path fill-rule="evenodd" clip-rule="evenodd" d="M8.00016 1.33325C8.36835 1.33325 8.66683 1.63173 8.66683 1.99992V8.39044L10.8621 6.19518C11.1224 5.93483 11.5446 5.93483 11.8049 6.19518C12.0653 6.45553 12.0653 6.87764 11.8049 7.13799L8.47157 10.4713C8.21122 10.7317 7.78911 10.7317 7.52876 10.4713L4.19543 7.13799C3.93508 6.87764 3.93508 6.45553 4.19543 6.19518C4.45578 5.93483 4.87789 5.93483 5.13823 6.19518L7.3335 8.39044V1.99992C7.3335 1.63173 7.63197 1.33325 8.00016 1.33325ZM2.00016 9.33325C2.36835 9.33325 2.66683 9.63173 2.66683 9.99992V10.7999C2.66683 11.371 2.66735 11.7592 2.69186 12.0592C2.71574 12.3515 2.75903 12.501 2.81215 12.6052C2.93999 12.8561 3.14396 13.0601 3.39484 13.1879C3.49911 13.2411 3.64858 13.2843 3.94086 13.3082C4.24091 13.3327 4.62911 13.3333 5.20016 13.3333H10.8002C11.3712 13.3333 11.7594 13.3327 12.0595 13.3082C12.3517 13.2843 12.5012 13.2411 12.6055 13.1879C12.8564 13.0601 13.0603 12.8561 13.1882 12.6052C13.2413 12.501 13.2846 12.3515 13.3085 12.0592C13.333 11.7592 13.3335 11.371 13.3335 10.7999V9.99992C13.3335 9.63173 13.632 9.33325 14.0002 9.33325C14.3684 9.33325 14.6668 9.63173 14.6668 9.99992V10.8275C14.6668 11.3641 14.6668 11.807 14.6374 12.1678C14.6068 12.5425 14.541 12.887 14.3762 13.2106C14.1205 13.7123 13.7126 14.1203 13.2108 14.3759C12.8872 14.5408 12.5428 14.6065 12.168 14.6371C11.8073 14.6666 11.3644 14.6666 10.8277 14.6666H5.17261C4.63597 14.6666 4.19307 14.6666 3.83228 14.6371C3.45755 14.6065 3.11308 14.5408 2.78952 14.3759C2.28776 14.1203 1.87981 13.7123 1.62415 13.2106C1.45929 12.887 1.39358 12.5425 1.36296 12.1678C1.33348 11.807 1.33349 11.3641 1.3335 10.8274L1.3335 9.99992C1.3335 9.63173 1.63197 9.33325 2.00016 9.33325Z"/>
</svg>
