<svg width="16" height="16" viewBox="0 0 16 16"  xmlns="http://www.w3.org/2000/svg">
<path fill-rule="evenodd" clip-rule="evenodd" d="M6.08915 1.0001H11.8562L14.9804 4.12431V9.91097C14.9804 10.2497 14.8458 10.5746 14.6063 10.8141C14.3668 11.0536 14.0419 11.1882 13.7032 11.1882H11.6498V9.8029H13.6148V4.8022H11.1881V2.34606H6.21687V4.31097H4.82178V2.21834C4.82297 2.05658 4.85663 1.89671 4.92076 1.7482C4.98489 1.59969 5.07818 1.46556 5.19511 1.35378C5.4351 1.12304 5.75625 0.995988 6.08915 1.0001ZM2.15922 4.81201H10.0189C10.3359 4.81974 10.6373 4.9518 10.8578 5.17971C11.0784 5.40762 11.2005 5.71311 11.1978 6.03026V13.7622C11.2031 14.0784 11.0832 14.3839 10.8642 14.6121C10.6452 14.8403 10.3449 14.9727 10.0287 14.9804H2.16905C1.85286 14.9727 1.55255 14.8403 1.33356 14.6121C1.11457 14.3839 0.994644 14.0784 0.999923 13.7622V6.03026C0.997112 5.7164 1.11653 5.41377 1.3329 5.18639C1.54927 4.95902 1.84561 4.82476 2.15922 4.81201ZM9.96975 7.51377V6.03026H2.24764V7.51377H9.96975ZM3.58378 13.7327V8.73201L2.24764 8.75166V13.7327H3.58378ZM4.8315 8.75166V13.7327L7.38589 13.7524V8.75166H4.8315ZM9.96975 13.7524V8.75166H8.63361V13.7524H9.96975Z" />
</svg>
