<svg width="16" height="16"
  xmlns="http://www.w3.org/2000/svg">
  <path d="M7.691 1.142a1.014 1.014 0 0 0-.472.357c-.059.077-.47.876-.915 1.774-.444.899-.815 1.634-.825 1.634-.055 0-3.341.486-3.519.52-.516.1-.831.395-.893.833-.046.332.072.625.383.951.105.109.706.7 1.337 1.313a44.24 44.24 0 0 1 1.154 1.142c.004.016-.118.761-.271 1.655-.153.894-.293 1.721-.31 1.837-.06.402.023.702.263.946a.923.923 0 0 0 .903.26c.201-.051.301-.101 2.05-1.02A42.464 42.464 0 0 1 8 12.613c.019 0 .659.329 1.424.731 1.744.916 1.849.968 2.05 1.02.568.146 1.112-.251 1.18-.86.02-.175.002-.291-.376-2.489a41.975 41.975 0 0 1-.219-1.348c.004-.016.524-.531 1.154-1.143 1.381-1.342 1.504-1.468 1.609-1.666.309-.58.006-1.233-.649-1.401a45.16 45.16 0 0 0-1.626-.256l-1.757-.258-.291-.044-.805-1.629c-.449-.908-.854-1.693-.915-1.773-.265-.351-.695-.491-1.088-.355m1.016 3.117c.381.773.727 1.457.769 1.52.096.146.334.318.51.368.074.021.828.14 1.677.264.848.124 1.548.231 1.554.237.006.006-.505.512-1.136" />
</svg>