<svg width="16" height="16"
  xmlns="http://www.w3.org/2000/svg">
  <path d="M7.691 1.142a1.014 1.014 0 0 0-.472.357c-.059.077-.47.876-.915 1.774-.444.899-.815 1.634-.825 1.634-.055 0-3.341.486-3.519.52-.516.1-.831.395-.893.833-.046.332.072.625.383.951.105.109.706.7 1.337 1.313a44.24 44.24 0 0 1 1.154 1.142c.004.016-.118.761-.271 1.655-.153.894-.293 1.721-.31 1.837-.06.402.023.702.263.946a.923.923 0 0 0 .903.26c.201-.051.301-.101 2.05-1.02A42.464 42.464 0 0 1 8 12.613c.019 0 .659.329 1.424.731 1.744.916 1.849.968 2.05 1.02.568.146 1.112-.251 1.18-.86.02-.175.002-.291-.376-2.489a41.975 41.975 0 0 1-.219-1.348c.004-.016.524-.531 1.154-1.143 1.381-1.342 1.504-1.468 1.609-1.666.309-.58.006-1.233-.649-1.401a45.16 45.16 0 0 0-1.626-.256l-1.757-.258-.291-.044-.805-1.629c-.449-.908-.854-1.693-.915-1.773-.265-.351-.695-.491-1.088-.355m1.016 3.117c.381.773.727 1.457.769 1.52.096.146.334.318.51.368.074.021.828.14 1.677.264.848.124 1.548.231 1.554.237.006.006-.505.512-1.136 1.125-.63.613-1.174 1.158-1.209 1.211a1.492 1.492 0 0 0-.108.211c-.098.249-.091.321.195 1.978.148.858.266 1.573.262 1.588-.004.016-.62-.294-1.368-.689-.748-.395-1.438-.747-1.533-.781a.873.873 0 0 0-.64 0c-.095.034-.785.386-1.533.781-.748.395-1.364.705-1.368.689a51.1 51.1 0 0 1 .251-1.522c.156-.904.259-1.571.261-1.692a.938.938 0 0 0-.163-.563c-.035-.053-.579-.598-1.209-1.211-.631-.613-1.142-1.119-1.136-1.125.006-.006.706-.113 1.554-.237a45.078 45.078 0 0 0 1.677-.264 1.08 1.08 0 0 0 .51-.368c.042-.063.388-.747.769-1.52.382-.773.7-1.405.707-1.405.007 0 .325.632.707 1.405" fill-rule="evenodd"/>
</svg>