<svg width="24" height="24" viewBox="0 0 24 24" fill="none" xmlns="http://www.w3.org/2000/svg">
<rect x="1.5" y="1.5" width="21" height="21" rx="4.5" fill="#F3F5F9" stroke="#629B80"/>
<path d="M13.0858 9.93112C13.0512 9.5479 12.9029 9.25019 12.6407 9.03801C12.3786 8.82582 12.0228 8.71972 11.5735 8.71972C11.2681 8.71972 11.0103 8.76722 10.8 8.86224C10.5897 8.95408 10.4284 9.08235 10.3161 9.24703C10.2066 9.41171 10.1518 9.59858 10.1518 9.80761C10.1461 9.98178 10.1792 10.1338 10.2512 10.2637C10.3261 10.3935 10.4284 10.5059 10.558 10.601C10.6877 10.6928 10.8374 10.7736 11.0074 10.8432C11.1774 10.9097 11.3588 10.9667 11.5519 11.0143L12.3469 11.2233C12.7329 11.3183 13.0872 11.445 13.4099 11.6033C13.7325 11.7617 14.0119 11.9565 14.2481 12.1876C14.4844 12.4188 14.6673 12.6912 14.7969 13.0048C14.9294 13.3183 14.9971 13.6778 15 14.0831C14.9971 14.6786 14.8589 15.1948 14.5852 15.6318C14.3144 16.0657 13.9226 16.403 13.4099 16.6437C12.9 16.8812 12.285 17 11.5648 17C10.8504 17 10.2282 16.8797 9.69815 16.639C9.17099 16.3983 8.75905 16.042 8.46235 15.5701C8.16853 15.095 8.0144 14.5075 8 13.8076H9.81049C9.83066 14.1338 9.91564 14.4062 10.0654 14.6247C10.2181 14.8401 10.4212 15.0032 10.6747 15.114C10.9311 15.2217 11.2206 15.2755 11.5432 15.2755C11.8601 15.2755 12.1352 15.2249 12.3685 15.1235C12.6047 15.0222 12.7877 14.8812 12.9173 14.7007C13.0469 14.5202 13.1117 14.3128 13.1117 14.0784C13.1117 13.8599 13.0527 13.6762 12.9346 13.5273C12.8193 13.3785 12.6494 13.2518 12.4247 13.1473C12.2029 13.0428 11.9307 12.9478 11.608 12.8622L10.6445 12.5962C9.89836 12.3967 9.30927 12.0847 8.87715 11.6603C8.44506 11.2359 8.23046 10.6643 8.23333 9.94536C8.23046 9.35629 8.37305 8.84165 8.66111 8.40143C8.95206 7.9612 9.35103 7.61758 9.85802 7.37055C10.365 7.12351 10.9412 7 11.5864 7C12.2432 7 12.8165 7.12351 13.3062 7.37055C13.7988 7.61758 14.1819 7.9612 14.4556 8.40143C14.7292 8.84165 14.8704 9.35155 14.879 9.93112H13.0858Z" fill="#629B80"/>
</svg>