<svg width="16" height="16" viewBox="0 0 133 140" xmlns="http://www.w3.org/2000/svg">
  <path
    d="M115.996 96.2544L119.887 100.373L95.1375 126.623C92.9896 128.901 89.5107 128.901 87.3628 126.623L76.3574 114.959C74.2118 112.682 74.2127 108.991 76.3574 106.713C78.2373 104.72 81.1431 104.465 83.2781 105.961L84.1401 106.713L91.2461 114.25L112.113 92.1272L115.996 96.2544ZM112.113 92.1272C114.261 89.8506 117.74 89.8496 119.887 92.1272C122.035 94.4048 122.034 98.0949 119.887 100.373L112.113 92.1272ZM55.4988 81.6682C58.5363 81.6682 61.0015 84.2827 61.0015 87.5044C61 90.7247 58.5354 93.332 55.4988 93.332H44.5015C41.4648 93.332 39.0002 90.7247 38.9988 87.5044C38.9988 84.2827 41.4639 81.6682 44.5015 81.6682H55.4988ZM104.999 72.9182V39.6699C104.999 34.6732 104.992 31.2725 104.789 28.647C104.592 26.0912 104.236 24.7824 103.798 23.8704C102.744 21.6765 101.065 19.8873 98.9966 18.769C98.1364 18.3042 96.8961 17.927 94.4849 17.718C92.01 17.5038 88.8083 17.5044 84.0999 17.5044H48.9004C44.1892 17.5044 40.9828 17.5035 38.5073 17.718C36.0979 17.927 34.8636 18.3045 34.0037 18.769C31.9339 19.8876 30.2485 21.6751 29.1938 23.8704C28.7558 24.7824 28.3999 26.0915 28.2029 28.647C28.0006 31.2725 28.0015 34.6732 28.0015 39.6699V100.339C28.0015 105.333 28.0007 108.729 28.2029 111.353C28.3997 113.908 28.7562 115.218 29.1938 116.13C30.2484 118.325 31.9341 120.113 34.0037 121.231C34.8636 121.696 36.0975 122.073 38.5073 122.282C40.9828 122.497 44.1892 122.504 48.9004 122.504H66.4961L67.6079 122.624C70.1126 123.168 71.9975 125.515 71.9988 128.332C71.9988 131.554 69.5337 134.168 66.4961 134.168H48.9004C44.3707 134.168 40.6404 134.174 37.613 133.912C34.5217 133.644 31.6777 133.064 29.0085 131.622C24.8704 129.385 21.5057 125.817 19.397 121.428C18.0369 118.597 17.4984 115.581 17.2458 112.302C16.9987 109.092 16.9961 105.14 16.9961 100.339V39.6699C16.9961 34.8657 16.9985 30.9093 17.2458 27.6985C17.4985 24.42 18.037 21.4033 19.397 18.5725C21.5059 14.1838 24.8706 10.6152 29.0085 8.37842C31.6776 6.93605 34.5219 6.36486 37.613 6.09692C40.6404 5.83459 44.3707 5.83203 48.9004 5.83203H84.0999C88.6291 5.83203 92.3601 5.83461 95.3872 6.09692C98.4765 6.36488 101.316 6.93733 103.984 8.37842C108.123 10.6153 111.494 14.1825 113.603 18.5725C114.963 21.4034 115.502 24.4199 115.754 27.6985C116.002 30.9093 115.996 34.8657 115.996 39.6699V72.9182C115.996 76.1389 113.538 78.7529 110.501 78.7544C107.464 78.7544 104.999 76.1399 104.999 72.9182ZM77.5015 58.332C80.5378 58.3336 82.9961 60.9475 82.9961 64.1682C82.9961 67.3889 80.5378 70.0029 77.5015 70.0044H44.5015C41.4639 70.0044 38.9988 67.3899 38.9988 64.1682C38.9988 60.9466 41.4639 58.332 44.5015 58.332H77.5015ZM88.4988 35.0044L89.6106 35.124C92.114 35.6694 94.0002 38.0158 94.0015 40.832C94.0015 44.0537 91.5363 46.6682 88.4988 46.6682H44.5015C41.4639 46.6682 38.9988 44.0537 38.9988 40.832C39.0002 37.6117 41.4648 35.0044 44.5015 35.0044H88.4988Z" />
</svg>