<svg width="16" height="16" viewBox="0 0 16 16" xmlns="http://www.w3.org/2000/svg">
<path fill-rule="evenodd" clip-rule="evenodd" d="M3.02211 1.33325C3.0321 1.33325 3.04213 1.33325 3.05219 1.33325L12.9775 1.33325C13.3299 1.33324 13.6387 1.33322 13.881 1.35501C14.1135 1.37591 14.4325 1.42498 14.691 1.63844C15.0121 1.90355 15.1909 2.30344 15.1744 2.71949C15.1611 3.05448 14.9849 3.32496 14.8455 3.51216C14.7001 3.70727 14.4942 3.9374 14.2593 4.19994L10.4351 8.47407C10.3812 8.53427 10.3545 8.56428 10.336 8.58685C10.3355 8.58743 10.3351 8.58799 10.3346 8.58853C10.3346 8.58922 10.3346 8.58994 10.3345 8.59069C10.3333 8.61987 10.3332 8.66002 10.3332 8.74079V12.3055C10.3332 12.3128 10.3333 12.3213 10.3334 12.3309C10.3343 12.4225 10.3364 12.6128 10.2701 12.7905C10.2143 12.9399 10.1237 13.0738 10.0057 13.181C9.86535 13.3085 9.68794 13.3773 9.60247 13.4104C9.59354 13.4139 9.58561 13.417 9.57883 13.4197L7.29359 14.3338C7.18767 14.3762 7.07055 14.4231 6.96726 14.4539C6.85613 14.4871 6.67359 14.5304 6.46304 14.4867C6.20503 14.433 5.97861 14.2798 5.833 14.0601C5.71419 13.8809 5.68665 13.6953 5.67617 13.5798C5.66642 13.4724 5.66646 13.3463 5.66649 13.2322L5.6665 8.74079C5.6665 8.66002 5.66636 8.61987 5.66511 8.59069C5.66508 8.58994 5.66505 8.58922 5.66502 8.58853C5.66458 8.58799 5.66412 8.58743 5.66365 8.58685C5.64512 8.56428 5.61845 8.53427 5.56459 8.47407L1.76044 4.22236C1.75373 4.21487 1.74704 4.2074 1.74038 4.19995C1.50544 3.9374 1.29952 3.70727 1.15418 3.51216C1.01473 3.32496 0.838574 3.05448 0.825271 2.71949C0.808749 2.30344 0.987543 1.90355 1.30862 1.63844C1.56714 1.42498 1.88617 1.37591 2.11867 1.35501C2.36098 1.33322 2.66979 1.33324 3.02211 1.33325ZM2.20228 2.68658C2.20865 2.69554 2.21569 2.70522 2.22346 2.71565C2.32849 2.85666 2.49313 3.04164 2.75409 3.3333L6.55825 7.58501C6.56505 7.59261 6.57206 7.6004 6.57923 7.60839C6.6576 7.69553 6.75629 7.80528 6.82955 7.93598C6.89312 8.04937 6.93976 8.17145 6.96799 8.29833C7.00054 8.44458 7.00017 8.59218 6.99988 8.70938C6.99986 8.72011 6.99983 8.73059 6.99983 8.74079V13.0152L8.99983 12.2152V8.74079C8.99983 8.73059 8.99981 8.72011 8.99978 8.70938C8.99949 8.59218 8.99912 8.44458 9.03167 8.29833C9.05991 8.17145 9.10655 8.04937 9.17011 7.93598C9.24338 7.80528 9.34207 7.69553 9.42043 7.60838C9.42761 7.6004 9.43461 7.59261 9.44141 7.58501L13.2456 3.33331C13.5065 3.04164 13.6712 2.85666 13.7762 2.71565C13.784 2.70522 13.791 2.69554 13.7974 2.68658C13.7865 2.68536 13.7746 2.68415 13.7616 2.68298C13.5865 2.66724 13.3388 2.66659 12.9475 2.66659H3.05219C2.66082 2.66659 2.41318 2.66724 2.23806 2.68298C2.22511 2.68415 2.2132 2.68536 2.20228 2.68658Z"/>
</svg>
