<svg width="24" height="24" viewBox="0 0 24 24" fill="none" xmlns="http://www.w3.org/2000/svg">
<path d="M14.7113 12H16.6907C16.8454 12 17 11.875 17 11.6875C17 11.6562 17 11.5938 16.9691 11.5625L13.567 2.1875C13.5051 2.09375 13.4124 2 13.2887 2H11.3093C11.1546 2 11 2.125 11 2.3125C11 2.34375 11 2.375 11.0309 2.40625L14.4639 11.8438C14.4948 11.9375 14.5876 12 14.7113 12Z" fill="#0073FF"/>
<path d="M14.6282 21H16.6795C16.8397 21 17 20.8813 17 20.7031C17 20.6734 17 20.6437 16.9679 20.614L9.66024 2.17813C9.6282 2.08906 9.49999 2 9.37179 2H7.32051C7.16025 2 7 2.11875 7 2.29687C7 2.32656 7 2.35625 7.03204 2.38594L14.3397 20.8219C14.3718 20.9406 14.5 21 14.6282 21Z" fill="#0073FF"/>
<path d="M10.7231 21H12.6923C12.8462 21 12.9692 20.8875 13 20.7468C13 20.7187 13 20.6625 12.9692 20.6343L9.55385 12.1688C9.52309 12.0562 9.4 12 9.27694 12H7.27693C7.12309 12 7 12.1406 7 12.2812C7 12.3094 7 12.3375 7.03078 12.3656L10.4154 20.8313C10.5077 20.9438 10.6 21 10.7231 21Z" fill="#0073FF"/>
<path d="M15.0296 2.40625L16.5704 6.8125C16.6 6.9375 16.7185 7 16.837 7H18.7037C18.8518 7 19 6.87501 19 6.6875C19 6.65625 19 6.62499 18.9704 6.59375L17.4296 2.1875C17.4 2.09375 17.3111 2 17.1926 2H15.2963C15.1481 2 15 2.125 15 2.3125C15 2.34375 15 2.375 15.0296 2.40625Z" fill="#0073FF"/>
<path d="M6.82353 21H8.70589C8.85294 21 9 20.875 9 20.6874C9 20.6562 9 20.625 8.97058 20.5937L7.44118 16.1875C7.41176 16.0625 7.29412 16 7.17647 16H5.29411C5.14706 16 5 16.125 5 16.3125C5 16.3438 5 16.375 5.02942 16.4062L6.55882 20.8126C6.58824 20.9375 6.70588 21 6.82353 21Z" fill="#0073FF"/>
</svg>
