<svg width="20" height="20" viewBox="0 0 20 20"
  xmlns="http://www.w3.org/2000/svg">
  <path fill-rule="evenodd" clip-rule="evenodd" d="M6.42259 3.57709C6.74803 3.90252 6.74803 4.43016 6.42259 4.7556L4.51185 6.66634H13.75C16.2813 6.66634 18.3333 8.71837 18.3333 11.2497C18.3333 13.781 16.2813 15.833 13.75 15.833H10C9.53977 15.833 9.16667 15.4599 9.16667 14.9997C9.16667 14.5394 9.53977 14.1663 10 14.1663H13.75C15.3608 14.1663 16.6667 12.8605 16.6667 11.2497C16.6667 9.63884 15.3608 8.33301 13.75 8.33301H4.51185L6.42259 10.2438C6.74803 10.5692 6.74803 11.0968 6.42259 11.4223C6.09716 11.7477 5.56952 11.7477 5.24408 11.4223L1.91075 8.08893C1.58531 7.76349 1.58531 7.23586 1.91075 6.91042L5.24408 3.57709C5.56952 3.25165 6.09716 3.25165 6.42259 3.57709Z" />
</svg>
