<svg xmlns="http://www.w3.org/2000/svg" width="16" height="16" viewBox="0 0 16 16" >
<path fill-rule="evenodd" clip-rule="evenodd" d="M6.75698 3.23291C6.68058 3.20794 6.58135 3.20012 6.08076 3.20012H3.65999C3.29484 3.20012 3.05907 3.20058 2.87962 3.21447C2.70757 3.22779 2.64378 3.2504 2.61247 3.26551C2.4933 3.32304 2.39641 3.41482 2.33569 3.52772C2.31974 3.55738 2.29587 3.61782 2.28182 3.78081C2.26892 3.9303 2.26699 4.12104 2.26671 4.4001H7.57522L7.32699 3.92979C7.10313 3.50562 7.05135 3.42503 6.99362 3.37146C6.92655 3.30923 6.84572 3.26191 6.75698 3.23291ZM8.99139 4.4001L8.45993 3.39314C8.44809 3.37071 8.43638 3.34845 8.42477 3.32638C8.2571 3.00763 8.10964 2.72732 7.87993 2.51417C7.67873 2.32748 7.43624 2.1855 7.17 2.09851C6.86603 1.99918 6.53545 1.99959 6.15953 2.00006C6.13349 2.0001 6.10724 2.00013 6.08076 2.00013L3.63558 2.00013C3.30172 2.00012 3.0137 2.00011 2.77648 2.01847C2.52609 2.03785 2.27705 2.08064 2.03741 2.19632C1.67991 2.36889 1.38925 2.64425 1.20709 2.98294C1.08499 3.20996 1.03982 3.44589 1.01936 3.68309C0.999979 3.90784 0.999989 4.18069 1 4.49698L1 10.5448C0.999993 11.0278 0.999986 11.4264 1.02799 11.7511C1.05708 12.0884 1.1195 12.3984 1.27612 12.6896C1.51899 13.1412 1.90654 13.5083 2.38322 13.7384C2.6906 13.8868 3.01784 13.9459 3.37383 13.9735C3.71659 14 4.13734 14 4.64715 14H11.2861C11.7959 14 12.2167 14 12.5594 13.9735C12.9154 13.9459 13.2427 13.8868 13.5501 13.7384C14.0267 13.5083 14.4143 13.1412 14.6572 12.6896C14.8138 12.3984 14.8762 12.0884 14.9053 11.7511C14.9333 11.4264 14.9333 11.0278 14.9333 10.5448V7.85527C14.9333 7.3723 14.9333 6.97369 14.9053 6.64898C14.8762 6.31173 14.8138 6.00171 14.6572 5.71051C14.4143 5.25893 14.0267 4.89178 13.5501 4.66168C13.2427 4.51331 12.9154 4.45417 12.5594 4.42662C12.2167 4.40009 11.7959 4.4001 11.2861 4.4001L8.99139 4.4001ZM8.58723 5.60009C8.59603 5.60027 8.60486 5.60027 8.61369 5.60009H11.26C11.8025 5.60009 12.1712 5.60056 12.4563 5.62262C12.734 5.64411 12.876 5.68307 12.975 5.73088C13.2133 5.84593 13.4071 6.0295 13.5286 6.25529C13.579 6.34913 13.6201 6.48365 13.6428 6.7467C13.6661 7.01675 13.6666 7.36612 13.6666 7.88007V10.52C13.6666 11.034 13.6661 11.3834 13.6428 11.6534C13.6201 11.9164 13.579 12.051 13.5286 12.1448C13.4071 12.3706 13.2133 12.5542 12.975 12.6692C12.876 12.717 12.734 12.756 12.4563 12.7775C12.1712 12.7995 11.8025 12.8 11.26 12.8H4.67332C4.13082 12.8 3.76204 12.7995 3.47698 12.7775C3.19932 12.756 3.05732 12.717 2.95827 12.6692C2.71993 12.5542 2.52616 12.3706 2.40472 12.1448C2.35425 12.051 2.31313 11.9164 2.29044 11.6534C2.26715 11.3834 2.26666 11.034 2.26666 10.52V5.60009H8.58723Z" />
</svg>