
<svg width="20px" height="20px" viewBox="0 0 20 20" version="1.1" xmlns="http://www.w3.org/2000/svg" xmlns:xlink="http://www.w3.org/1999/xlink">
    <path d="M10,9.75 C9.0375,9.75 8.25,8.9625 8.25,8 C8.25,7.0375 9.0375,6.25 10,6.25 C10.9625,6.25 11.75,7.0375 11.75,8 C11.75,8.9625 10.9625,9.75 10,9.75 Z" ></path>
    <path d="M10,2.5 C13.15,2.5 16,4.915 16,8.65 C16,11.14 13.9975,14.0875 10,17.5 C6.0025,14.0875 4,11.14 4,8.65 C4,4.915 6.85,2.5 10,2.5 Z M10.0024772,4.2 C7.60026076,4.2 5.7,6.04289439 5.7,8.64589309 C5.7,10.3238592 7.09830508,12.5468057 10.0024772,15.2 C12.9066493,12.5468057 14.3049544,10.3238592 14.3049544,8.64589309 C14.3049544,6.04289439 12.4046936,4.2 10.0024772,4.2 Z" ></path>
</svg>