<svg width="24" height="24" viewBox="0 0 24 24" fill="none" xmlns="http://www.w3.org/2000/svg">
  <path fill-rule="evenodd" clip-rule="evenodd" d="M12.0087 1.5C6.19766 1.5 1.5 6.31248 1.5 12.2662C1.5 17.0253 4.50995 21.0538 8.68555 22.4796C9.2076 22.5868 9.39883 22.2479 9.39883 21.9629C9.39883 21.7133 9.38162 20.8578 9.38162 19.9664C6.45836 20.6082 5.84962 18.683 5.84962 18.683C5.37983 17.4352 4.68375 17.1145 4.68375 17.1145C3.72697 16.455 4.75345 16.455 4.75345 16.455C5.81477 16.5263 6.37167 17.5601 6.37167 17.5601C7.31103 19.1999 8.82472 18.7366 9.43368 18.4513C9.52058 17.7561 9.79914 17.2749 10.0949 17.0076C7.7634 16.758 5.31035 15.8311 5.31035 11.6957C5.31035 10.5192 5.72765 9.55675 6.38888 8.80819C6.28456 8.54088 5.9191 7.43554 6.49342 5.95614C6.49342 5.95614 7.38073 5.67089 9.38141 7.06126C10.238 6.82559 11.1213 6.70571 12.0087 6.7047C12.896 6.7047 13.8005 6.8296 14.6358 7.06126C16.6366 5.67089 17.524 5.95614 17.524 5.95614C18.0983 7.43554 17.7326 8.54088 17.6283 8.80819C18.3069 9.55675 18.707 10.5192 18.707 11.6957C18.707 15.8311 16.254 16.74 13.905 17.0076C14.2879 17.3462 14.6183 17.9878 14.6183 19.0039C14.6183 20.4476 14.6011 21.6063 14.6011 21.9627C14.6011 22.2479 14.7926 22.5868 15.3144 22.4798C19.49 21.0535 22.5 17.0253 22.5 12.2662C22.5172 6.31248 17.8023 1.5 12.0087 1.5Z" fill="#24292F"/>
</svg>
