<svg width="24" height="24" viewBox="0 0 24 24" fill="none" xmlns="http://www.w3.org/2000/svg">

<path d="M7.09759 10.6559L4.72003 10.5294V6.35605L7.09759 6.81133V10.6559Z" fill="#F58536"/>
<path d="M20.2248 10.707L17.999 10.7829L16.1273 10.6564L18.4795 10.5299L20.2248 10.707Z" fill="#6B3A19"/>
<path d="M20.25 11.9208H11.625V17.2071L20.25 15.0066V11.9208Z" fill="#F58536"/>
<path d="M14.2049 2.78995L11.625 1.5V9.84675L14.2049 10.0997V2.78995Z" fill="#F58536"/>
<path d="M16.1273 8.10182L18.5301 7.74771V10.53L16.1273 10.6564V8.10182Z" fill="#9D5025"/>
<path d="M3 15.0066L11.625 17.2071V11.9208H3V15.0066Z" fill="#9D5025"/>
<path d="M9.0451 18.4466L11.625 19.3824V22.3417L9.0451 21.0518V18.4466Z" fill="#9D5025"/>
<path d="M9.0451 2.78995L11.625 1.5V9.84675L9.0451 10.0997V2.78995Z" fill="#9D5025"/>
<path d="M3 10.7065L4.71994 10.5294V6.35605L3 7.03896V10.7065Z" fill="#9D5025"/>
<path d="M20.25 8.25357L18.53 7.74771V10.53L20.25 10.707V8.25357Z" fill="#F58536"/>
<path d="M14.205 18.4466L11.6251 19.3824V22.3417L14.205 21.0518V18.4466Z" fill="#F58536"/>
<path d="M14.2049 18.4468L11.625 17.7386L9.0451 18.4468L11.625 19.3826L14.2049 18.4468Z" fill="#FBBF93"/>
<path d="M9.0451 10.1003L11.625 9.84735L14.2049 10.1003L11.625 10.3026L9.0451 10.1003Z" fill="#6B3A19"/>
<path d="M3 10.707L4.69464 10.5299L7.0975 10.6564L5.25109 10.7829L3 10.707Z" fill="#6B3A19"/>
</svg>
