<svg width="24" height="24" viewBox="0 0 24 24" fill="none" xmlns="http://www.w3.org/2000/svg">
<g clip-path="url(#clip0_59_759)">
<path d="M9.37535 0H18.4063C19.2828 0 20 0.717164 20 1.5937V21.7805C20 22.6571 19.2828 23.3742 18.4063 23.3742H4.59426C3.71773 23.3742 3.00056 22.6571 3.00056 21.7805V6.37479L6.71919 3.71863L9.37535 0Z" fill="#0F9D58"/>
<path d="M15.7502 11.4214V19.1242H7.25052V11.4214H15.7502ZM12.0316 18.0618H14.6878V16.7337H12.0316V18.0618ZM12.0316 15.9368H14.6878V14.6088H12.0316V15.9368ZM12.0316 13.8119H14.6878V12.4838H12.0316V13.8119ZM8.31299 18.0618H10.9692V16.7337H8.31299V18.0618ZM8.31299 15.9368H10.9692V14.6088H8.31299V15.9368ZM8.31299 13.8119H10.9692V12.4838H8.31299V13.8119Z" fill="#F1F1F1"/>
<path d="M8.90884 5.90878L3.00021 11.8161V6.37494L8.90884 5.90878Z" fill="url(#paint0_linear_59_759)"/>
<path d="M9.37476 0V4.78109C9.37476 5.66161 8.66158 6.37479 7.78106 6.37479H2.99997L9.37476 0Z" fill="#87CEAC"/>
<path d="M9.37535 0H18.4063C19.2828 0 20 0.717164 20 1.5937V21.7805C20 22.6571 19.2828 23.3742 18.4063 23.3742H4.59426C3.71773 23.3742 3.00056 22.6571 3.00056 21.7805V6.37479L9.37535 0Z" fill="url(#paint1_radial_59_759)"/>
</g>
<defs>
<linearGradient id="paint0_linear_59_759" x1="-286.555" y1="56.6295" x2="-286.555" y2="596.722" gradientUnits="userSpaceOnUse">
<stop stop-color="#263238" stop-opacity="0.2"/>
<stop offset="1" stop-color="#263238" stop-opacity="0.02"/>
</linearGradient>
<radialGradient id="paint1_radial_59_759" cx="0" cy="0" r="1" gradientUnits="userSpaceOnUse" gradientTransform="translate(-33.8551 46.1978) rotate(180) scale(2741.13 2741.14)">
<stop stop-color="white" stop-opacity="0.1"/>
<stop offset="1" stop-color="white" stop-opacity="0"/>
</radialGradient>
<clipPath id="clip0_59_759">
<rect width="24" height="24" fill="white"/>
</clipPath>
</defs>
</svg>
