<svg width="16" height="16" viewBox="0 0 16 16"
  xmlns="http://www.w3.org/2000/svg">
  <path d="M6.66667 2H2.66667C2.48986 2 2.32029 2.07024 2.19526 2.19526C2.07024 2.32029 2 2.48986 2 2.66667V6.66667C2 6.84348 2.07024 7.01305 2.19526 7.13807C2.32029 7.2631 2.48986 7.33333 2.66667 7.33333H6.66667C6.84348 7.33333 7.01305 7.2631 7.13807 7.13807C7.2631 7.01305 7.33333 6.84348 7.33333 6.66667V2.66667C7.33333 2.48986 7.2631 2.32029 7.13807 2.19526C7.01305 2.07024 6.84348 2 6.66667 2ZM6 6H3.33333V3.33333H6V6ZM9.33333 7.33333H13.3333C13.5101 7.33333 13.6797 7.2631 13.8047 7.13807C13.9298 7.01305 14 6.84348 14 6.66667V2.66667C14 2.48986 13.9298 2.32029 13.8047 2.19526C13.6797 2.07024 13.5101 2 13.3333 2H9.33333C9.15652 2 8.98695 2.07024 8.86193 2.19526C8.73691 2.32029 8.66667 2.48986 8.66667 2.66667V6.66667C8.66667 6.84348 8.73691 7.01305 8.86193 7.13807C8.98695 7.2631 9.15652 7.33333 9.33333 7.33333ZM10 3.33333H12.6667V6H10V3.33333ZM2 13.3333C2 13.5101 2.07024 13.6797 2.19526 13.8047C2.32029 13.9298 2.48986 14 2.66667 14H6.66667C6.84348 14 7.01305 13.9298 7.13807 13.8047C7.2631 13.6797 7.33333 13.5101 7.33333 13.3333V9.33333C7.33333 9.15652 7.2631 8.98695 7.13807 8.86193C7.01305 8.73691 6.84348 8.66667 6.66667 8.66667H2.66667C2.48986 8.66667 2.32029 8.73691 2.19526 8.86193C2.07024 8.98695 2 9.15652 2 9.33333V13.3333ZM3.33333 10H6V12.6667H3.33333V10ZM8.66667 13.3333C8.66667 13.5101 8.73691 13.6797 8.86193 13.8047C8.98695 13.9298 9.15652 14 9.33333 14H13.3333C13.5101 14 13.6797 13.9298 13.8047 13.8047C13.9298 13.6797 14 13.5101 14 13.3333V9.33333C14 9.15652 13.9298 8.98695 13.8047 8.86193C13.6797 8.73691 13.5101 8.66667 13.3333 8.66667H9.33333C9.15652 8.66667 8.98695 8.73691 8.86193 8.86193C8.73691 8.98695 8.66667 9.15652 8.66667 9.33333V13.3333ZM10 10H12.6667V12.6667H10V10Z" />
</svg>
