<svg width="20" height="20" viewBox="0 0 20 20" xmlns="http://www.w3.org/2000/svg">
    <path
        d="M8.42965 9.20312V10.5635H3.14547V9.20312H8.42965ZM3.5693 5.04688V15H1.85348V5.04688H3.5693ZM9.74898 5.04688V15H8.04V5.04688H9.74898ZM18.625 13.6875V15H11.9532V13.8721L15.1934 10.3379C15.5489 9.93685 15.8291 9.59049 16.0342 9.29883C16.2393 9.00716 16.3829 8.74512 16.4649 8.5127C16.5515 8.27572 16.5948 8.04557 16.5948 7.82227C16.5948 7.50781 16.5355 7.2321 16.417 6.99512C16.3031 6.75358 16.1345 6.56445 15.9112 6.42773C15.6879 6.28646 15.4167 6.21582 15.0977 6.21582C14.7286 6.21582 14.4187 6.29557 14.168 6.45508C13.9174 6.61458 13.7282 6.83561 13.6006 7.11816C13.473 7.39616 13.4092 7.71517 13.4092 8.0752H11.7618C11.7618 7.49642 11.8939 6.96777 12.1582 6.48926C12.4226 6.00618 12.8054 5.62337 13.3067 5.34082C13.808 5.05371 14.4118 4.91016 15.1182 4.91016C15.7836 4.91016 16.3487 5.02181 16.8135 5.24512C17.2784 5.46842 17.6315 5.78516 17.8731 6.19531C18.1192 6.60547 18.2422 7.09082 18.2422 7.65137C18.2422 7.96126 18.1921 8.26888 18.0918 8.57422C17.9916 8.87956 17.848 9.1849 17.6612 9.49023C17.4789 9.79102 17.2624 10.0941 17.0118 10.3994C16.7611 10.7002 16.4854 11.0055 16.1846 11.3154L14.0313 13.6875H18.625Z" />
</svg>
