<svg width="20" height="20" viewBox="0 0 20 20" xmlns="http://www.w3.org/2000/svg">
    <path
        d="M8.42965 9.20312V10.5635H3.14547V9.20312H8.42965ZM3.5693 5.04688V15H1.85348V5.04688H3.5693ZM9.74898 5.04688V15H8.04V5.04688H9.74898ZM13.8877 9.27832H14.8721C15.2549 9.27832 15.5717 9.21224 15.8223 9.08008C16.0775 8.94792 16.2666 8.76562 16.3897 8.5332C16.5127 8.30078 16.5743 8.03418 16.5743 7.7334C16.5743 7.41895 16.5173 7.15007 16.4034 6.92676C16.294 6.69889 16.1254 6.52344 15.8975 6.40039C15.6742 6.27734 15.3894 6.21582 15.043 6.21582C14.7513 6.21582 14.487 6.27507 14.25 6.39355C14.0176 6.50749 13.833 6.67155 13.6963 6.88574C13.5596 7.09538 13.4913 7.34603 13.4913 7.6377H11.837C11.837 7.10905 11.976 6.63965 12.2539 6.22949C12.5319 5.81934 12.9102 5.49805 13.3887 5.26562C13.8718 5.02865 14.4141 4.91016 15.0157 4.91016C15.6582 4.91016 16.2188 5.01725 16.6973 5.23145C17.1804 5.44108 17.5564 5.75553 17.8252 6.1748C18.0941 6.59408 18.2286 7.11361 18.2286 7.7334C18.2286 8.01595 18.1625 8.30306 18.0303 8.59473C17.8982 8.88639 17.7022 9.15299 17.4424 9.39453C17.1827 9.63151 16.8591 9.8252 16.4717 9.97559C16.0843 10.1214 15.6355 10.1943 15.125 10.1943H13.8877V9.27832ZM13.8877 10.5635V9.66113H15.125C15.7084 9.66113 16.2051 9.72949 16.6153 9.86621C17.03 10.0029 17.3672 10.1921 17.627 10.4336C17.8868 10.6706 18.0759 10.9417 18.1944 11.2471C18.3174 11.5524 18.3789 11.876 18.3789 12.2178C18.3789 12.6826 18.2946 13.0973 18.126 13.4619C17.962 13.8219 17.7273 14.1273 17.4219 14.3779C17.1166 14.6286 16.7588 14.8177 16.3487 14.9453C15.9431 15.0729 15.501 15.1367 15.0225 15.1367C14.5941 15.1367 14.184 15.0775 13.792 14.959C13.4001 14.8405 13.0492 14.665 12.7393 14.4326C12.4294 14.1956 12.1833 13.9017 12.001 13.5508C11.8233 13.1953 11.7344 12.7852 11.7344 12.3203H13.3819C13.3819 12.6165 13.4502 12.8786 13.587 13.1064C13.7282 13.3298 13.9242 13.5052 14.1748 13.6328C14.4301 13.7604 14.7217 13.8242 15.0498 13.8242C15.3962 13.8242 15.6947 13.7627 15.9454 13.6396C16.196 13.5166 16.3874 13.3343 16.5196 13.0928C16.6563 12.8512 16.7246 12.5596 16.7246 12.2178C16.7246 11.8304 16.6495 11.516 16.4991 11.2744C16.3487 11.0329 16.1345 10.8551 15.8565 10.7412C15.5785 10.6227 15.2504 10.5635 14.8721 10.5635H13.8877Z" />
</svg>
