<svg width="16" height="16" viewBox="0 0 16 16" xmlns="http://www.w3.org/2000/svg">
<path fill-rule="evenodd" clip-rule="evenodd" d="M8 1C4.13401 1 1 4.13401 1 8C1 11.866 4.13401 15 8 15C11.866 15 15 11.866 15 8C15 4.13401 11.866 1 8 1ZM7.30422 5.62714C7.56335 5.47485 7.86801 5.41918 8.16425 5.47C8.46049 5.52081 8.72919 5.67483 8.92276 5.90477C9.11632 6.13471 9.22226 6.42573 9.22182 6.7263L9.22181 6.72725C9.22181 7.02579 8.98948 7.33702 8.55064 7.62958C8.35059 7.76295 8.14601 7.86569 7.98893 7.9355C7.9113 7.97001 7.84749 7.99549 7.80458 8.01184C7.78553 8.01909 7.76641 8.02611 7.74719 8.03285C7.41419 8.14425 7.23431 8.50438 7.34538 8.83757C7.45652 9.17099 7.8169 9.35119 8.15032 9.24005L8.25766 9.20118C8.31915 9.17776 8.40449 9.14358 8.50583 9.09854C8.70671 9.00926 8.9794 8.87337 9.25662 8.68855C9.77223 8.34481 10.4943 7.70169 10.4945 6.72783C10.4953 6.12683 10.2835 5.54492 9.89643 5.08513C9.50929 4.62525 8.9719 4.31721 8.37942 4.21559C7.78694 4.11396 7.17761 4.2253 6.65935 4.52988C6.14109 4.83447 5.74736 5.31264 5.54787 5.87971C5.43125 6.21125 5.60547 6.57456 5.93701 6.69119C6.26854 6.80782 6.63185 6.6336 6.74848 6.30206C6.84822 6.01852 7.04509 5.77944 7.30422 5.62714ZM8 10.5454C7.64854 10.5454 7.36363 10.8303 7.36363 11.1818C7.36363 11.5332 7.64854 11.8182 8 11.8182H8.00636C8.35781 11.8182 8.64272 11.5332 8.64272 11.1818C8.64272 10.8303 8.35781 10.5454 8.00636 10.5454H8Z" />
</svg>
