<svg width="16" height="16" viewBox="0 0 16 16" xmlns="http://www.w3.org/2000/svg">
<path fill-rule="evenodd" clip-rule="evenodd" d="M8 2.27273C4.83691 2.27273 2.27273 4.83691 2.27273 8C2.27273 11.1631 4.83691 13.7273 8 13.7273C11.1631 13.7273 13.7273 11.1631 13.7273 8C13.7273 4.83691 11.1631 2.27273 8 2.27273ZM1 8C1 4.13401 4.13401 1 8 1C11.866 1 15 4.13401 15 8C15 11.866 11.866 15 8 15C4.13401 15 1 11.866 1 8ZM8.16426 5.47002C7.86802 5.41921 7.56335 5.47488 7.30422 5.62717C7.0451 5.77946 6.84823 6.01855 6.74849 6.30208C6.63186 6.63362 6.26855 6.80784 5.93701 6.69121C5.60547 6.57458 5.43125 6.21127 5.54788 5.87974C5.74736 5.31267 6.1411 4.83449 6.65935 4.52991C7.17761 4.22533 7.78694 4.11399 8.37942 4.21561C8.9719 4.31724 9.5093 4.62527 9.89643 5.08515C10.2834 5.54487 10.4953 6.12666 10.4945 6.72756C10.4944 7.70159 9.77228 8.34481 9.25663 8.68858C8.97941 8.87339 8.70672 9.00928 8.50584 9.09856C8.40449 9.1436 8.31916 9.17778 8.25766 9.20121C8.22687 9.21294 8.2019 9.22203 8.18372 9.2285L8.16162 9.23624L8.15458 9.23864L8.1521 9.23948L8.15112 9.23981C8.15093 9.23987 8.15033 9.24007 7.94909 8.63636L8.15112 9.23981C7.81771 9.35094 7.45652 9.17102 7.34538 8.8376C7.2343 8.50436 7.41425 8.14417 7.74733 8.03283L7.75734 8.02931C7.76713 8.02583 7.78318 8.02001 7.80458 8.01186C7.84749 7.99551 7.9113 7.97003 7.98893 7.93553C8.14601 7.86572 8.35059 7.76297 8.55065 7.6296C8.98948 7.33705 9.22182 7.02581 9.22182 6.72727C9.22227 6.42671 9.11633 6.13473 8.92276 5.90479C8.7292 5.67485 8.4605 5.52083 8.16426 5.47002ZM7.36364 11.1818C7.36364 10.8304 7.64855 10.5455 8 10.5455H8.00636C8.35782 10.5455 8.64273 10.8304 8.64273 11.1818C8.64273 11.5333 8.35782 11.8182 8.00636 11.8182H8C7.64855 11.8182 7.36364 11.5333 7.36364 11.1818Z" />
</svg>
