<svg width="16" height="16" viewBox="0 0 16 16" xmlns="http://www.w3.org/2000/svg">
<path d="M11.5118 12.7129C11.5118 12.1532 11.5058 11.9893 11.4621 11.846C11.4182 11.702 11.3458 11.5651 11.2484 11.4433C11.1514 11.3219 11.0119 11.2135 10.5237 10.8551L7.90002 8.92832L5.27633 10.8551C4.78855 11.2132 4.64967 11.322 4.55269 11.4433C4.45534 11.5651 4.38294 11.702 4.33899 11.846C4.29531 11.9893 4.28927 12.1531 4.28927 12.7129V13.8277H11.5118V12.7129ZM11.5118 2.37342H4.28927V3.48827C4.28927 4.04826 4.29521 4.21178 4.33899 4.35517C4.38294 4.49903 4.45538 4.6351 4.55269 4.75693C4.64967 4.87828 4.78841 4.98687 5.27633 5.34512L7.90002 7.27095L10.5237 5.34512C11.0122 4.98648 11.1514 4.87838 11.2484 4.75693C11.3457 4.63508 11.4182 4.49906 11.4621 4.35517C11.5059 4.21179 11.5118 4.04826 11.5118 3.48827V2.37342ZM12.9559 3.48827C12.9559 3.9795 12.9615 4.3423 12.8565 4.68609C12.7686 4.97377 12.6237 5.24596 12.4291 5.4896C12.1965 5.78064 11.8766 6.00849 11.4484 6.32295L9.02779 8.09963L11.4484 9.87725C11.8768 10.1919 12.1965 10.4203 12.4291 10.7115C12.6238 10.9553 12.7686 11.2272 12.8565 11.515C12.9615 11.8589 12.9559 12.2215 12.9559 12.7129V13.8277H13.6785C14.0771 13.8279 14.3998 14.1122 14.4 14.4634C14.4 14.8148 14.0772 15.0999 13.6785 15.1001H2.1226C1.72373 15.1001 1.40002 14.8149 1.40002 14.4634C1.40021 14.1121 1.72384 13.8277 2.1226 13.8277H2.84517V12.3661C2.84847 12.041 2.86492 11.7728 2.94356 11.515C3.03142 11.2273 3.17639 10.9552 3.37097 10.7115C3.60354 10.4203 3.92331 10.1918 4.35168 9.87725L6.7712 8.09963L4.35168 6.32295C3.92345 6.00852 3.6035 5.78069 3.37097 5.4896C3.17634 5.24592 3.03147 4.97383 2.94356 4.68609C2.86482 4.4282 2.84847 4.15944 2.84517 3.8341V2.37342H2.1226C1.72373 2.37342 1.40002 2.0882 1.40002 1.73676C1.40002 1.38531 1.72373 1.1001 2.1226 1.1001H13.6785L13.8234 1.11315C14.1527 1.17239 14.4 1.42915 14.4 1.73676C14.4 2.04436 14.1527 2.30113 13.8234 2.36037L13.6785 2.37342H12.9559V3.48827Z" />
</svg>
