<svg width="24" height="24" viewBox="0 0 24 24" fill="none" xmlns="http://www.w3.org/2000/svg">
<path d="M12 22C6.47715 22 2 17.5228 2 12C2 6.47715 6.47715 2 12 2C17.5228 2 22 6.47715 22 12C22 17.5228 17.5228 22 12 22Z" fill="#FF7A59"/>
<path fill-rule="evenodd" clip-rule="evenodd" d="M9.81661 14.2059C10.5633 14.2059 11.169 13.6068 11.169 12.8678C11.169 12.1287 10.5635 11.5295 9.81661 11.5295C9.06974 11.5295 8.46388 12.1285 8.46388 12.8678C8.46388 13.607 9.06935 14.2059 9.81661 14.2059ZM9.41154 10.2914V9.1C9.25313 9.02746 9.11875 8.91119 9.02418 8.76486C8.92962 8.61854 8.87882 8.44825 8.87775 8.27403V8.24649C8.87775 7.74297 9.29415 7.33125 9.80255 7.33125H9.83048C10.3383 7.33125 10.7553 7.74317 10.7553 8.24649V8.27403C10.7542 8.44824 10.7033 8.61851 10.6088 8.76482C10.5142 8.91114 10.3799 9.02742 10.2215 9.1V10.2914C10.6775 10.3602 11.1076 10.5473 11.4688 10.8342L14.7715 8.2918C14.7484 8.20816 14.736 8.12192 14.7346 8.03516C14.7346 7.46465 15.2012 7.00157 15.7776 7C16.3539 6.99844 16.8215 7.46075 16.8221 8.03145C16.8227 8.60215 16.3563 9.06426 15.7799 9.06524C15.5994 9.06446 15.4221 9.01674 15.2656 8.92676L12.016 11.4287C12.3084 11.8642 12.4611 12.3784 12.4539 12.9028C12.4467 13.4272 12.2798 13.937 11.9756 14.3643L12.9643 15.3428C13.0812 15.3061 13.2048 15.2952 13.3263 15.3109C13.4479 15.3266 13.5647 15.3684 13.6685 15.4336C13.7724 15.4987 13.8608 15.5856 13.9279 15.6882C13.9949 15.7908 14.0389 15.9067 14.0569 16.028C14.0748 16.1493 14.0662 16.273 14.0317 16.3906C13.9972 16.5083 13.9376 16.617 13.8571 16.7094C13.7765 16.8018 13.6769 16.8756 13.565 16.9258C13.4532 16.9759 13.3318 17.0013 13.2092 17C12.7358 17 12.3518 16.6199 12.3518 16.1514C12.3526 16.069 12.3658 15.9872 12.3908 15.9088L11.4143 14.9416C10.9546 15.2901 10.3935 15.4785 9.81661 15.4781C8.35939 15.4781 7.17872 14.3096 7.17872 12.8678C7.17872 11.5627 8.14786 10.485 9.41173 10.2914" fill="white"/>
</svg>
