<svg width="20" height="20" viewBox="0 0 20 20" xmlns="http://www.w3.org/2000/svg">
    <path
        d="M9.16663 14.1666H5.83329C4.72822 14.1666 3.66842 13.7276 2.88701 12.9462C2.10561 12.1648 1.66663 11.105 1.66663 9.99992C1.66663 8.89485 2.10561 7.83504 2.88701 7.05364C3.66842 6.27224 4.72822 5.83325 5.83329 5.83325H9.16663V7.49992H5.83329C5.17025 7.49992 4.53437 7.76331 4.06553 8.23215C3.59668 8.70099 3.33329 9.33688 3.33329 9.99992C3.33329 10.663 3.59668 11.2988 4.06553 11.7677C4.53437 12.2365 5.17025 12.4999 5.83329 12.4999H9.16663V14.1666ZM14.1666 5.83325H10.8333V7.49992H14.1666C14.8297 7.49992 15.4656 7.76331 15.9344 8.23215C16.4032 8.70099 16.6666 9.33688 16.6666 9.99992C16.6666 10.663 16.4032 11.2988 15.9344 11.7677C15.4656 12.2365 14.8297 12.4999 14.1666 12.4999H10.8333V14.1666H14.1666C15.2717 14.1666 16.3315 13.7276 17.1129 12.9462C17.8943 12.1648 18.3333 11.105 18.3333 9.99992C18.3333 8.89485 17.8943 7.83504 17.1129 7.05364C16.3315 6.27224 15.2717 5.83325 14.1666 5.83325ZM13.3333 9.16659H6.66663V10.8333H13.3333V9.16659Z" />
</svg>
