<svg width="16" height="16" viewBox="0 0 16 16"
  xmlns="http://www.w3.org/2000/svg">
  <path d="M11 7.06006C10.2089 7.06006 9.43552 7.29465 8.77772 7.73418C8.11992 8.17371 7.60723 8.79842 7.30448 9.52933C7.00173 10.2602 6.92252 11.0645 7.07686 11.8404C7.2312 12.6163 7.61216 13.3291 8.17157 13.8885C8.73098 14.4479 9.44372 14.8289 10.2196 14.9832C10.9956 15.1375 11.7998 15.0583 12.5307 14.7556C13.2616 14.4528 13.8864 13.9401 14.3259 13.2823C14.7654 12.6245 15 11.8512 15 11.0601C15 9.99919 14.5786 8.98178 13.8284 8.23163C13.0783 7.48149 12.0609 7.06006 11 7.06006ZM11 13.7201C10.4706 13.7141 9.95467 13.5521 9.51693 13.2542C9.07918 12.9564 8.73907 12.536 8.5392 12.0457C8.33933 11.5554 8.28859 11.017 8.39334 10.498C8.49809 9.97904 8.75367 9.5025 9.12805 9.12811C9.50244 8.75372 9.97899 8.49815 10.498 8.3934C11.017 8.28865 11.5553 8.33939 12.0456 8.53926C12.5359 8.73913 12.9563 9.07924 13.2542 9.51698C13.552 9.95473 13.7141 10.4706 13.72 11.0001C13.7227 11.358 13.6541 11.7129 13.5184 12.0441C13.3826 12.3753 13.1824 12.6762 12.9293 12.9293C12.6762 13.1824 12.3752 13.3827 12.044 13.5184C11.7128 13.6542 11.3579 13.7227 11 13.7201Z" />
  <path d="M11.35 9.37988H10.35V10.7399V11.7399H11.35H12.71V10.7399H11.35V9.37988Z" />
  <path d="M5.84005 12.42V6H9.16005V6.82C9.65892 6.59888 10.1949 6.47337 10.74 6.45V6H12.42V6.66C13.0006 6.85358 13.5374 7.15937 14 7.56V2.56C14.0081 2.15589 13.8559 1.76501 13.5768 1.47272C13.2976 1.18043 12.9141 1.01049 12.51 1H2.51005C2.3074 1.00258 2.10729 1.04539 1.92133 1.12595C1.73537 1.20651 1.56727 1.32321 1.42678 1.46928C1.2863 1.61535 1.17623 1.78787 1.10298 1.97682C1.02972 2.16578 0.994733 2.36741 1.00005 2.57V12.43C0.994726 12.6309 1.02905 12.831 1.10106 13.0186C1.17307 13.2063 1.28136 13.3779 1.41973 13.5237C1.55811 13.6695 1.72385 13.7866 1.9075 13.8684C2.09115 13.9501 2.2891 13.9948 2.49005 14H7.59005C7.18942 13.5374 6.88363 13.0005 6.69005 12.42H5.84005ZM2.58005 2.58H12.42V4.44H2.58005V2.58ZM4.26005 12.42H2.58005V6H4.26005V12.42Z" />
</svg>
