<svg width="20" height="20" viewBox="0 0 20 20" xmlns="http://www.w3.org/2000/svg">
    <circle cx="10" cy="10" r="7.5" />
    <path fill-rule="evenodd" clip-rule="evenodd"
        d="M10.0028 7.51617C10.2341 7.51617 10.4294 7.43384 10.5887 7.26918C10.7518 7.10453 10.8333 6.90542 10.8333 6.67184C10.8333 6.43826 10.7518 6.24106 10.5887 6.08023C10.4256 5.91558 10.2284 5.83325 9.99712 5.83325C9.76958 5.83325 9.57429 5.91558 9.41122 6.08023C9.24816 6.24489 9.16663 6.44017 9.16663 6.66609C9.16663 6.9035 9.24816 7.10453 9.41122 7.26918C9.57429 7.43384 9.77148 7.51617 10.0028 7.51617ZM10.6399 14.1666V8.57219H9.36003V14.1666H10.6399Z"
        fill="white" />
</svg>
