<svg width="16" height="16" viewBox="0 0 16 16" xmlns="http://www.w3.org/2000/svg">
<path fill-rule="evenodd" clip-rule="evenodd" d="M8.00008 1.99984C4.68637 1.99984 2.00008 4.68613 2.00008 7.99984C2.00008 11.3135 4.68637 13.9998 8.00008 13.9998C11.3138 13.9998 14.0001 11.3135 14.0001 7.99984C14.0001 4.68613 11.3138 1.99984 8.00008 1.99984ZM0.666748 7.99984C0.666748 3.94975 3.94999 0.666504 8.00008 0.666504C12.0502 0.666504 15.3334 3.94975 15.3334 7.99984C15.3334 12.0499 12.0502 15.3332 8.00008 15.3332C3.94999 15.3332 0.666748 12.0499 0.666748 7.99984ZM7.33341 5.33317C7.33341 4.96498 7.63189 4.6665 8.00008 4.6665H8.00675C8.37494 4.6665 8.67342 4.96498 8.67342 5.33317C8.67342 5.70136 8.37494 5.99984 8.00675 5.99984H8.00008C7.63189 5.99984 7.33341 5.70136 7.33341 5.33317ZM8.00008 7.33317C8.36827 7.33317 8.66675 7.63165 8.66675 7.99984V10.6665C8.66675 11.0347 8.36827 11.3332 8.00008 11.3332C7.63189 11.3332 7.33341 11.0347 7.33341 10.6665V7.99984C7.33341 7.63165 7.63189 7.33317 8.00008 7.33317Z" />
</svg>
