<svg width="20" height="20" viewBox="0 0 20 20" xmlns="http://www.w3.org/2000/svg">
    <path
        d="M11.8333 9.16658L15 13.3333H4.99996L7.49996 10.0833L9.24996 12.3333L11.6666 9.16658H11.8333ZM7.08329 9.16658C7.74996 9.16658 8.33329 8.58325 8.33329 7.91658C8.33329 7.24992 7.74996 6.66659 7.08329 6.66659C6.41663 6.66659 5.83329 7.24992 5.83329 7.91658C5.83329 8.58325 6.41663 9.16658 7.08329 9.16658ZM18.3333 4.99992V14.9999C18.3333 15.9166 17.5833 16.6666 16.6666 16.6666H3.33329C2.41663 16.6666 1.66663 15.9166 1.66663 14.9999V4.99992C1.66663 4.08325 2.41663 3.33325 3.33329 3.33325H16.6666C17.5833 3.33325 18.3333 4.08325 18.3333 4.99992ZM16.6666 7.33325V4.99992H3.33329V14.9999H16.6666V7.33325Z" />
</svg>
