<svg width="20" height="20" viewBox="0 0 20 20" xmlns="http://www.w3.org/2000/svg">
    <path
        d="M16.6666 4.16675H3.33329C2.41663 4.16675 1.66663 4.91675 1.66663 5.83341V7.50008V8.75008V11.2501V12.5001V14.1667C1.66663 15.0834 2.41663 15.8334 3.33329 15.8334H16.6666C17.5833 15.8334 18.3333 15.0834 18.3333 14.1667V12.5001V11.2501V8.75008V7.50008V5.83341C18.3333 4.91675 17.5833 4.16675 16.6666 4.16675ZM7.91663 11.2501V8.75008H12.0833V11.2501H7.91663ZM12.0833 12.5001V14.5834H7.91663V12.5001H12.0833ZM7.91663 7.50008V5.41675H12.0833V7.50008H7.91663ZM2.91663 5.83341C2.91663 5.58341 3.08329 5.41675 3.33329 5.41675H6.66663V7.50008H2.91663V5.83341ZM2.91663 8.75008H6.66663V11.2501H2.91663V8.75008ZM2.91663 14.1667V12.5001H6.66663V14.5834H3.33329C3.08329 14.5834 2.91663 14.4167 2.91663 14.1667ZM17.0833 14.1667C17.0833 14.4167 16.9166 14.5834 16.6666 14.5834H13.3333V12.5001H17.0833V14.1667ZM17.0833 11.2501H13.3333V8.75008H17.0833V11.2501ZM13.3333 7.50008V5.41675H16.6666C16.9166 5.41675 17.0833 5.58341 17.0833 5.83341V7.50008H13.3333Z" />
</svg>
