<svg width="24" height="24" viewBox="0 0 24 24" fill="none" xmlns="http://www.w3.org/2000/svg">
<path d="M19.3172 13.0055C19.3172 13.1839 19.2471 13.3548 19.1223 13.4809C18.9976 13.6069 18.8284 13.6778 18.652 13.6778C18.4756 13.6778 18.3064 13.6069 18.1816 13.4809C18.0568 13.3548 17.9867 13.1839 17.9867 13.0055V7.00003C17.9867 6.82175 18.0568 6.65077 18.1816 6.52471C18.3064 6.39864 18.4756 6.32781 18.652 6.32781C18.8284 6.32781 18.9976 6.39864 19.1223 6.52471C19.2471 6.65077 19.3172 6.82175 19.3172 7.00003V13.0055ZM19.0863 17.1667C18.9984 17.2556 16.5245 19.3389 11.989 19.3389C7.45354 19.3389 4.99615 17.2667 4.89169 17.1777C4.82587 17.1217 4.77165 17.053 4.73214 16.9757C4.69263 16.8984 4.66862 16.814 4.66146 16.7272C4.65431 16.6405 4.66417 16.5533 4.69047 16.4704C4.71677 16.3876 4.759 16.3107 4.81473 16.2444C4.92954 16.1102 5.09222 16.0273 5.26729 16.0137C5.44237 16.0002 5.61563 16.0572 5.74931 16.1722C5.78779 16.2 7.99779 18.0111 11.9835 18.0111C15.9692 18.0111 18.1957 16.1889 18.2176 16.1722C18.3528 16.0582 18.5267 16.002 18.7022 16.0155C18.8778 16.029 19.0412 16.1111 19.1578 16.2444C19.2699 16.3767 19.3259 16.5484 19.3135 16.722C19.3012 16.8957 19.2215 17.0576 19.0918 17.1722L19.0863 17.1667ZM4.6553 7.00003C4.66524 6.82119 4.74484 6.65359 4.8767 6.53388C5.00856 6.41416 5.18195 6.35206 5.35899 6.36115C5.5231 6.37057 5.67795 6.44106 5.79368 6.55903C5.90941 6.67701 5.97781 6.83411 5.9857 7.00003V12.9945C5.9857 13.1727 5.91561 13.3437 5.79086 13.4698C5.66612 13.5959 5.49692 13.6667 5.3205 13.6667C5.14407 13.6667 4.97488 13.5959 4.85013 13.4698C4.72538 13.3437 4.6553 13.1727 4.6553 12.9945V7.00003ZM7.9923 5.66671C8.00224 5.48786 8.08184 5.32026 8.21369 5.20055C8.34555 5.08083 8.51895 5.01873 8.69598 5.02782C8.8601 5.03724 9.01495 5.10773 9.13068 5.22571C9.2464 5.34368 9.3148 5.50078 9.32269 5.66671V14.5555C9.32269 14.7339 9.25261 14.9048 9.12786 15.0309C9.00311 15.157 8.83392 15.2277 8.6575 15.2277C8.48107 15.2277 8.31188 15.157 8.18713 15.0309C8.06238 14.9048 7.9923 14.7339 7.9923 14.5555V5.66671ZM11.3458 5.33337C11.3458 5.15509 11.4159 4.98411 11.5406 4.85805C11.6654 4.73198 11.8345 4.66115 12.011 4.66115C12.1874 4.66115 12.3566 4.73198 12.4814 4.85805C12.6061 4.98411 12.6762 5.15509 12.6762 5.33337V15C12.6762 15.1783 12.6061 15.3492 12.4814 15.4754C12.3566 15.6014 12.1874 15.6722 12.011 15.6722C11.8345 15.6722 11.6654 15.6014 11.5406 15.4754C11.4159 15.3492 11.3458 15.1783 11.3458 15V5.33337ZM14.6443 5.66671C14.6443 5.48843 14.7144 5.31744 14.8392 5.19137C14.9638 5.06531 15.133 4.99449 15.3095 4.99449C15.4859 4.99449 15.6551 5.06531 15.7799 5.19137C15.9046 5.31744 15.9746 5.48843 15.9746 5.66671V14.5555C15.9746 14.7339 15.9046 14.9048 15.7799 15.0309C15.6551 15.157 15.4859 15.2277 15.3095 15.2277C15.133 15.2277 14.9638 15.157 14.8392 15.0309C14.7144 14.9048 14.6443 14.7339 14.6443 14.5555V5.66671ZM19.4986 2.00006H4.50137C4.17459 1.99786 3.85059 2.06082 3.54792 2.18534C3.24525 2.30986 2.96986 2.49348 2.73751 2.7257C2.50517 2.95792 2.32043 3.23417 2.19387 3.53864C2.06732 3.84311 2.00144 4.16981 2 4.50005V19.5C2.00144 19.8302 2.06732 20.157 2.19387 20.4614C2.32043 20.7658 2.50517 21.0421 2.73751 21.2743C2.96986 21.5065 3.24525 21.6902 3.54792 21.8147C3.85059 21.9392 4.17459 22.0021 4.50137 21.9999H19.4986C19.8249 22.0021 20.1485 21.9394 20.4507 21.8152C20.7531 21.6911 21.0282 21.5079 21.2605 21.2763C21.4928 21.0447 21.6777 20.7691 21.8045 20.4652C21.9314 20.1614 21.9978 19.8353 22 19.5056V4.50005C21.9985 4.17028 21.9328 3.84404 21.8066 3.53993C21.6804 3.23583 21.4961 2.95983 21.2644 2.72768C21.0327 2.49553 20.7579 2.31179 20.4558 2.18694C20.1538 2.0621 19.8304 1.99859 19.5041 2.00006" fill="#081D34"/>
</svg>
