<svg width="20" height="20" viewBox="0 0 20 20" xmlns="http://www.w3.org/2000/svg">
    <path
        d="M9.69537 7.30887H11.2668L9.53823 15.166H7.9668L9.69537 7.30887ZM11.0154 4.16602C10.86 4.16602 10.7081 4.2121 10.5788 4.29843C10.4496 4.38477 10.3489 4.50748 10.2895 4.65105C10.23 4.79462 10.2144 4.9526 10.2448 5.10502C10.2751 5.25743 10.3499 5.39743 10.4598 5.50731C10.5697 5.6172 10.7097 5.69203 10.8621 5.72235C11.0145 5.75266 11.1725 5.7371 11.316 5.67764C11.4596 5.61817 11.5823 5.51746 11.6687 5.38825C11.755 5.25904 11.8011 5.10713 11.8011 4.95173C11.8011 4.74335 11.7183 4.5435 11.571 4.39615C11.4236 4.2488 11.2238 4.16602 11.0154 4.16602Z" />
</svg>
