<svg width="16" height="16" viewBox="0 0 16 16" xmlns="http://www.w3.org/2000/svg">
<path fill-rule="evenodd" clip-rule="evenodd" d="M1.89964 7.94339C1.89964 5.93387 3.5408 4.29954 5.57182 4.29954C6.19412 4.29954 6.77982 4.45297 7.29293 4.72361C6.4617 5.54592 5.94677 6.68425 5.94677 7.94339C5.94677 9.20254 6.4617 10.3409 7.29292 11.1632C6.77982 11.4338 6.19412 11.5872 5.57182 11.5872C3.5408 11.5872 1.89964 9.95291 1.89964 7.94339ZM8.04521 11.7651C7.33187 12.2219 6.48264 12.4869 5.57182 12.4869C3.0498 12.4869 1 10.4556 1 7.94339C1 5.43117 3.0498 3.3999 5.57182 3.3999C6.48264 3.3999 7.33187 3.66484 8.04521 4.12168C8.75854 3.66484 9.60777 3.3999 10.5186 3.3999C13.0406 3.3999 15.0904 5.43117 15.0904 7.94339C15.0904 10.4556 13.0406 12.4869 10.5186 12.4869C9.60777 12.4869 8.75854 12.2219 8.04521 11.7651ZM8.79748 4.72361C9.31059 4.45297 9.89629 4.29954 10.5186 4.29954C12.5496 4.29954 14.1908 5.93387 14.1908 7.94339C14.1908 9.95291 12.5496 11.5872 10.5186 11.5872C9.89629 11.5872 9.31059 11.4338 8.79748 11.1632C9.62871 10.3409 10.1436 9.20254 10.1436 7.94339C10.1436 6.68425 9.62871 5.54592 8.79748 4.72361ZM8.0452 5.25C8.78213 5.91688 9.244 6.87734 9.244 7.94339C9.244 9.00944 8.78213 9.9699 8.0452 10.6368C7.30828 9.9699 6.84641 9.00944 6.84641 7.94339C6.84641 6.87734 7.30828 5.91688 8.0452 5.25Z" />
<path d="M7.29293 4.72361L7.40892 4.84087C7.44627 4.80391 7.46378 4.75138 7.45607 4.6994C7.44836 4.64743 7.41635 4.60224 7.36987 4.57773L7.29293 4.72361ZM7.29292 11.1632L7.36987 11.3091C7.41635 11.2845 7.44836 11.2394 7.45607 11.1874C7.46378 11.1354 7.44627 11.0829 7.40892 11.0459L7.29292 11.1632ZM8.04521 11.7651L8.13416 11.6262C8.07994 11.5915 8.01047 11.5915 7.95625 11.6262L8.04521 11.7651ZM8.04521 4.12168L7.95625 4.26057C8.01047 4.29529 8.07994 4.29529 8.13416 4.26057L8.04521 4.12168ZM8.79748 4.72361L8.72054 4.57773C8.67406 4.60224 8.64205 4.64743 8.63434 4.6994C8.62662 4.75138 8.64413 4.80391 8.68149 4.84087L8.79748 4.72361ZM8.79748 11.1632L8.68149 11.0459C8.64413 11.0829 8.62662 11.1354 8.63434 11.1874C8.64205 11.2394 8.67406 11.2845 8.72054 11.3091L8.79748 11.1632ZM8.0452 5.25L8.15587 5.12771C8.09305 5.07085 7.99736 5.07085 7.93454 5.12771L8.0452 5.25ZM8.0452 10.6368L7.93454 10.7591C7.99736 10.8159 8.09305 10.8159 8.15587 10.7591L8.0452 10.6368ZM5.57182 4.13461C3.45075 4.13461 1.73471 5.84175 1.73471 7.94339H2.06457C2.06457 6.02599 3.63086 4.46448 5.57182 4.46448V4.13461ZM7.36987 4.57773C6.83357 4.29486 6.22153 4.13461 5.57182 4.13461V4.46448C6.16671 4.46448 6.72606 4.61109 7.21598 4.8695L7.36987 4.57773ZM6.1117 7.94339C6.1117 6.73023 6.6076 5.63358 7.40892 4.84087L7.17693 4.60636C6.31579 5.45826 5.78183 6.63826 5.78183 7.94339H6.1117ZM7.40892 11.0459C6.6076 10.2532 6.1117 9.15655 6.1117 7.94339H5.78183C5.78183 9.24852 6.31579 10.4285 7.17693 11.2804L7.40892 11.0459ZM5.57182 11.7522C6.22153 11.7522 6.83357 11.5919 7.36987 11.3091L7.21598 11.0173C6.72606 11.2757 6.16671 11.4223 5.57182 11.4223V11.7522ZM1.73471 7.94339C1.73471 10.045 3.45075 11.7522 5.57182 11.7522V11.4223C3.63086 11.4223 2.06457 9.86079 2.06457 7.94339H1.73471ZM7.95625 11.6262C7.26872 12.0665 6.45023 12.3219 5.57182 12.3219V12.6518C6.51505 12.6518 7.39502 12.3774 8.13416 11.904L7.95625 11.6262ZM5.57182 12.3219C3.13979 12.3219 1.16493 10.3634 1.16493 7.94339H0.835066C0.835066 10.5478 2.95982 12.6518 5.57182 12.6518V12.3219ZM1.16493 7.94339C1.16493 5.52336 3.13979 3.56484 5.57182 3.56484V3.23497C2.95982 3.23497 0.835066 5.33898 0.835066 7.94339H1.16493ZM5.57182 3.56484C6.45023 3.56484 7.26872 3.82025 7.95625 4.26057L8.13416 3.98279C7.39502 3.50942 6.51505 3.23497 5.57182 3.23497V3.56484ZM8.13416 4.26057C8.82169 3.82025 9.64017 3.56484 10.5186 3.56484V3.23497C9.57536 3.23497 8.69539 3.50942 7.95625 3.98279L8.13416 4.26057ZM10.5186 3.56484C12.9506 3.56484 14.9255 5.52336 14.9255 7.94339H15.2553C15.2553 5.33898 13.1306 3.23497 10.5186 3.23497V3.56484ZM14.9255 7.94339C14.9255 10.3634 12.9506 12.3219 10.5186 12.3219V12.6518C13.1306 12.6518 15.2553 10.5478 15.2553 7.94339H14.9255ZM10.5186 12.3219C9.64017 12.3219 8.82169 12.0665 8.13416 11.6262L7.95625 11.904C8.69539 12.3774 9.57536 12.6518 10.5186 12.6518V12.3219ZM10.5186 4.13461C9.86888 4.13461 9.25683 4.29486 8.72054 4.57773L8.87443 4.8695C9.36435 4.61109 9.9237 4.46448 10.5186 4.46448V4.13461ZM14.3557 7.94339C14.3557 5.84175 12.6397 4.13461 10.5186 4.13461V4.46448C12.4595 4.46448 14.0258 6.02599 14.0258 7.94339H14.3557ZM10.5186 11.7522C12.6397 11.7522 14.3557 10.045 14.3557 7.94339H14.0258C14.0258 9.86079 12.4595 11.4223 10.5186 11.4223V11.7522ZM8.72054 11.3091C9.25683 11.5919 9.86888 11.7522 10.5186 11.7522V11.4223C9.9237 11.4223 9.36435 11.2757 8.87443 11.0173L8.72054 11.3091ZM9.97871 7.94339C9.97871 9.15655 9.4828 10.2532 8.68149 11.0459L8.91348 11.2804C9.77462 10.4285 10.3086 9.24852 10.3086 7.94339H9.97871ZM8.68149 4.84087C9.4828 5.63358 9.97871 6.73023 9.97871 7.94339H10.3086C10.3086 6.63826 9.77462 5.45826 8.91348 4.60636L8.68149 4.84087ZM9.40893 7.94339C9.40893 6.82861 8.92574 5.8244 8.15587 5.12771L7.93454 5.37229C8.63852 6.00937 9.07907 6.92607 9.07907 7.94339H9.40893ZM8.15587 10.7591C8.92574 10.0624 9.40893 9.05818 9.40893 7.94339H9.07907C9.07907 8.96071 8.63852 9.87741 7.93454 10.5145L8.15587 10.7591ZM6.68147 7.94339C6.68147 9.05818 7.16467 10.0624 7.93454 10.7591L8.15587 10.5145C7.45189 9.87741 7.01134 8.96071 7.01134 7.94339H6.68147ZM7.93454 5.12771C7.16467 5.8244 6.68147 6.82861 6.68147 7.94339H7.01134C7.01134 6.92607 7.45189 6.00937 8.15587 5.37229L7.93454 5.12771Z" />
</svg>
