<svg width="20" height="20" viewBox="0 0 20 20" xmlns="http://www.w3.org/2000/svg">
    <path fill-rule="evenodd" clip-rule="evenodd"
        d="M18 5.5C18 6.88071 16.8807 8 15.5 8C15.1147 8 14.7497 7.91282 14.4237 7.75711L7.75711 14.4237C7.91282 14.7497 8 15.1147 8 15.5C8 16.8807 6.88071 18 5.5 18C4.11929 18 3 16.8807 3 15.5C3 14.1193 4.11929 13 5.5 13C5.88532 13 6.25028 13.0872 6.57624 13.2429L13.2429 6.57624C13.0872 6.25028 13 5.88532 13 5.5C13 4.11929 14.1193 3 15.5 3C16.8807 3 18 4.11929 18 5.5Z" />
</svg>
