<svg width="20" height="20" viewBox="0 0 20 20" xmlns="http://www.w3.org/2000/svg">
<path fill-rule="evenodd" clip-rule="evenodd" d="M6.66666 7.49984C6.66666 4.27818 9.27833 1.6665 12.5 1.6665C15.7217 1.6665 18.3333 4.27818 18.3333 7.49984C18.3333 10.7215 15.7217 13.3332 12.5 13.3332C12.2347 13.3332 11.9731 13.3154 11.7164 13.2809C11.5289 13.2557 11.4116 13.2401 11.3261 13.2318C11.3108 13.2303 11.2983 13.2293 11.2882 13.2285C11.2857 13.2308 11.283 13.2333 11.28 13.236C11.2354 13.2766 11.1768 13.3349 11.0719 13.4398L9.75592 14.7558C9.59964 14.912 9.38768 14.9998 9.16666 14.9998H8.33333V15.8332C8.33333 16.2934 7.96023 16.6665 7.5 16.6665H6.66666V17.4998C6.66666 17.9601 6.29357 18.3332 5.83333 18.3332L3.80673 18.3332C3.59642 18.3332 3.3916 18.3332 3.21814 18.319C3.02764 18.3035 2.80287 18.2668 2.57668 18.1515C2.26308 17.9917 2.00811 17.7368 1.84832 17.4232C1.73307 17.197 1.69635 16.9722 1.68078 16.7817C1.66661 16.6082 1.66664 16.4034 1.66666 16.1931L1.66666 14.7188C1.66666 14.705 1.66663 14.6908 1.66659 14.6763C1.66616 14.518 1.66563 14.3187 1.71271 14.1226C1.75354 13.9525 1.82088 13.79 1.91226 13.6409C2.01764 13.4689 2.15893 13.3284 2.27114 13.2167C2.28144 13.2065 2.2915 13.1965 2.30127 13.1867L6.56002 8.92797C6.66495 8.82304 6.72328 8.76441 6.76387 8.71984C6.76658 8.71687 6.76904 8.71413 6.77129 8.71162C6.77055 8.70154 6.76951 8.68902 6.76803 8.67377C6.75978 8.58824 6.74414 8.4709 6.71894 8.2834C6.68443 8.02673 6.66666 7.76514 6.66666 7.49984ZM6.78354 8.69959C6.78225 8.70275 6.78066 8.70691 6.77898 8.71186C6.77722 8.71708 6.77562 8.72243 6.77472 8.72579M6.66666 14.9998V14.1665C6.66666 13.7063 7.03976 13.3332 7.5 13.3332H8.82149L9.89335 12.2613C9.90758 12.2471 9.92213 12.2324 9.93701 12.2175C10.0864 12.0671 10.2681 11.8843 10.4752 11.7685C10.6697 11.6598 10.8318 11.605 11.0523 11.5735C11.2135 11.5504 11.3704 11.5617 11.4862 11.5728C11.6067 11.5845 11.7555 11.6045 11.9236 11.6271L11.9385 11.6291C12.1218 11.6537 12.3092 11.6665 12.5 11.6665C14.8012 11.6665 16.6667 9.80102 16.6667 7.49984C16.6667 5.19865 14.8012 3.33317 12.5 3.33317C10.1988 3.33317 8.33333 5.19865 8.33333 7.49984C8.33333 7.69066 8.3461 7.87807 8.37074 8.06133L8.37274 8.07619C8.39535 8.24438 8.41536 8.39316 8.42699 8.5136C8.43817 8.62939 8.44942 8.78632 8.42636 8.94749C8.39481 9.16808 8.34004 9.33016 8.23132 9.52467C8.11557 9.73176 7.93271 9.91345 7.78237 10.0628C7.7674 10.0777 7.75276 10.0923 7.73853 10.1065L3.47978 14.3652C3.40258 14.4424 3.3642 14.4811 3.33749 14.5104C3.33679 14.5111 3.33612 14.5119 3.33548 14.5126C3.33543 14.5135 3.33539 14.5145 3.33534 14.5156C3.33353 14.5551 3.33333 14.6096 3.33333 14.7188V16.1665C3.33333 16.4136 3.33398 16.5488 3.34192 16.646C3.34223 16.6498 3.34255 16.6535 3.34287 16.657C3.34633 16.6573 3.34999 16.6576 3.35386 16.6579C3.45101 16.6659 3.58622 16.6665 3.83333 16.6665H5V15.8332C5 15.3729 5.37309 14.9998 5.83333 14.9998H6.66666ZM11.6667 5.83317C11.6667 5.37293 12.0398 4.99984 12.5 4.99984C13.1385 4.99984 13.7798 5.24408 14.2678 5.73207C14.7557 6.22004 15 6.86127 15 7.49976C15 7.96 14.6269 8.33311 14.1667 8.33312C13.7065 8.33314 13.3333 7.96005 13.3333 7.49981C13.3333 7.28526 13.2521 7.07346 13.0893 6.91058C12.9264 6.7477 12.7146 6.6665 12.5 6.6665C12.0398 6.6665 11.6667 6.29341 11.6667 5.83317Z" />
</svg>
