<svg width="20" height="20" viewBox="0 0 20 20" fill="none" xmlns="http://www.w3.org/2000/svg">
    <path
        d="M9.90454 10.0117L2.5 17.5H7.35923V15.057H9.77496V12.6139L9.98784 12.3986L11.404 10.9478C10.8462 10.7425 10.336 10.4239 9.90454 10.0117Z"
        fill="#C89823" />
    <path
        d="M12.9774 2.5234C12.409 2.5234 11.8462 2.63678 11.3212 2.85704C10.7961 3.0773 10.3192 3.40013 9.91775 3.80703C9.51625 4.21394 9.19806 4.69693 8.98139 5.22836C8.76471 5.75979 8.65381 6.32922 8.65502 6.90406C8.65672 7.46315 8.76678 8.01649 8.97897 8.53276L7.57211 9.95554L2.5 15.0569V17.5L9.90454 10.0117C10.3333 10.4228 10.8403 10.7413 11.3947 10.9477C11.8951 11.1507 12.429 11.2556 12.9682 11.2566C13.5532 11.284 14.1377 11.1911 14.6863 10.9835C15.2348 10.776 15.7361 10.4581 16.1597 10.049C16.5833 9.63997 16.9205 9.1483 17.1508 8.60372C17.3812 8.05914 17.5 7.47298 17.5 6.88066C17.5 6.28833 17.3812 5.70217 17.1508 5.15759C16.9205 4.61301 16.5833 4.12134 16.1597 3.7123C15.7361 3.30326 15.2348 2.98534 14.6863 2.77778C14.1377 2.57021 13.5532 2.47731 12.9682 2.50468L12.9774 2.5234Z"
        fill="#EDC400" />
</svg>
