<svg width="16" height="16" viewBox="0 0 16 16" fill="none" xmlns="http://www.w3.org/2000/svg">
<path d="M5.5 4.5C6.05228 4.5 6.5 4.94772 6.5 5.5C6.5 6.05228 6.05228 6.5 5.5 6.5C4.94772 6.5 4.5 6.05228 4.5 5.5C4.5 4.94772 4.94772 4.5 5.5 4.5Z" fill="#5D6A85"/>
<path fill-rule="evenodd" clip-rule="evenodd" d="M6.5 2C8.98528 2 11 4.01472 11 6.5C11 7.09253 10.8839 7.65767 10.6758 8.17578L14 11.5V14H11.0137L10.0107 13H8V11L7.80664 10.8066C7.39306 10.932 6.9545 11 6.5 11C4.01472 11 2 8.98528 2 6.5C2 4.01472 4.01472 2 6.5 2ZM6.5 3C4.567 3 3 4.567 3 6.5C3 8.433 4.567 10 6.5 10C6.85412 10 7.19502 9.94704 7.5166 9.84961L8.08984 9.67578L9 10.5859V12H10.4238L11.4268 13H13V11.9141L9.50195 8.41602L9.74805 7.80273C9.91003 7.39936 10 6.96059 10 6.5C10 4.567 8.433 3 6.5 3Z" fill="#5D6A85"/>
</svg>
