<svg width="16" height="16" viewBox="0 0 16 16" xmlns="http://www.w3.org/2000/svg">
<path fill-rule="evenodd" clip-rule="evenodd" d="M12.3182 2.27273C11.9667 2.27273 11.6818 2.55764 11.6818 2.90909C11.6818 3.26054 11.9667 3.54545 12.3182 3.54545C12.6696 3.54545 12.9545 3.26054 12.9545 2.90909C12.9545 2.55764 12.6696 2.27273 12.3182 2.27273ZM10.5176 2.27319C10.7795 1.53146 11.4868 1 12.3182 1C13.3725 1 14.2273 1.85473 14.2273 2.90909C14.2273 3.96345 13.3725 4.81818 12.3182 4.81818C11.4871 4.81818 10.7801 4.28719 10.5179 3.54598C10.1816 3.54734 9.92622 3.55219 9.71612 3.56935C9.43712 3.59215 9.29445 3.63346 9.19492 3.68417C8.95544 3.80619 8.76074 4.0009 8.63872 4.24038C8.58801 4.3399 8.54669 4.48258 8.5239 4.76157C8.50049 5.04799 8.5 5.41854 8.5 5.96364V7.36364H10.5177C10.7798 6.62215 11.487 6.09091 12.3182 6.09091C13.3725 6.09091 14.2273 6.94564 14.2273 8C14.2273 9.05436 13.3725 9.90909 12.3182 9.90909C11.487 9.90909 10.7798 9.37785 10.5177 8.63636H8.5V10.0364C8.5 10.5815 8.50049 10.952 8.5239 11.2384C8.54669 11.5174 8.58801 11.6601 8.63872 11.7596C8.76074 11.9991 8.95544 12.1938 9.19492 12.3158C9.29445 12.3665 9.43712 12.4079 9.71612 12.4306C9.92622 12.4478 10.1816 12.4527 10.5179 12.454C10.7801 11.7128 11.4871 11.1818 12.3182 11.1818C13.3725 11.1818 14.2273 12.0365 14.2273 13.0909C14.2273 14.1453 13.3725 15 12.3182 15C11.4868 15 10.7795 14.4685 10.5176 13.7268C10.1693 13.7255 9.86912 13.7201 9.61247 13.6991C9.25478 13.6699 8.92596 13.6072 8.61711 13.4498C8.13816 13.2058 7.74875 12.8164 7.50471 12.3374C7.34734 12.0286 7.28462 11.6998 7.2554 11.3421C7.22726 10.9977 7.22726 10.5749 7.22727 10.0626V8.63636H5.20955C4.94747 9.37785 4.24032 9.90909 3.40909 9.90909C2.35473 9.90909 1.5 9.05436 1.5 8C1.5 6.94564 2.35473 6.09091 3.40909 6.09091C4.24032 6.09091 4.94747 6.62215 5.20955 7.36364H7.22727V5.93736C7.22726 5.42511 7.22726 5.00233 7.2554 4.65793C7.28462 4.30023 7.34734 3.97142 7.50471 3.66257C7.74875 3.18361 8.13816 2.79421 8.61711 2.55017C8.92596 2.3928 9.25478 2.33008 9.61247 2.30085C9.86912 2.27988 10.1693 2.27454 10.5176 2.27319ZM3.40909 7.36364C3.05764 7.36364 2.77273 7.64855 2.77273 8C2.77273 8.35145 3.05764 8.63636 3.40909 8.63636C3.76054 8.63636 4.04545 8.35145 4.04545 8C4.04545 7.64855 3.76054 7.36364 3.40909 7.36364ZM12.3182 7.36364C11.9667 7.36364 11.6818 7.64855 11.6818 8C11.6818 8.35145 11.9667 8.63636 12.3182 8.63636C12.6696 8.63636 12.9545 8.35145 12.9545 8C12.9545 7.64855 12.6696 7.36364 12.3182 7.36364ZM12.3182 12.4545C11.9667 12.4545 11.6818 12.7395 11.6818 13.0909C11.6818 13.4424 11.9667 13.7273 12.3182 13.7273C12.6696 13.7273 12.9545 13.4424 12.9545 13.0909C12.9545 12.7395 12.6696 12.4545 12.3182 12.4545Z" />
</svg>
