<svg width="16" height="16" viewBox="0 0 16 16" xmlns="http://www.w3.org/2000/svg">
<path d="M6.93211 9.06789C7.24263 9.36327 7.24263 9.84799 6.93211 10.1434C6.63673 10.4387 6.15202 10.4387 5.85664 10.1434C4.37977 8.66649 4.37977 6.26562 5.85664 4.78875L8.53773 2.10765C10.0146 0.630782 12.4155 0.630782 13.8923 2.10765C15.3692 3.58453 15.3692 5.98539 13.8923 7.46227L12.7639 8.59075C12.7714 7.96971 12.673 7.34866 12.4609 6.75791L12.8169 6.39437C13.7106 5.50825 13.7106 4.06925 12.8169 3.18312C11.9308 2.28942 10.4917 2.28942 9.60563 3.18312L6.93211 5.85664C6.03841 6.74276 6.03841 8.18177 6.93211 9.06789ZM9.06789 5.85664C9.36327 5.56127 9.84799 5.56127 10.1434 5.85664C11.6202 7.33351 11.6202 9.73438 10.1434 11.2113L7.46227 13.8923C5.98539 15.3692 3.58453 15.3692 2.10765 13.8923C0.630782 12.4155 0.630782 10.0146 2.10765 8.53773L3.23614 7.40925C3.22856 8.0303 3.32702 8.65134 3.53909 9.24966L3.18312 9.60563C2.28942 10.4917 2.28942 11.9308 3.18312 12.8169C4.06925 13.7106 5.50825 13.7106 6.39437 12.8169L9.06789 10.1434C9.96159 9.25724 9.96159 7.81823 9.06789 6.93211C8.75737 6.63673 8.75737 6.15202 9.06789 5.85664Z" />
</svg>
