<svg width="16" height="16" viewBox="0 0 16 16" fill="none" xmlns="http://www.w3.org/2000/svg">
<path d="M5 5C3.34316 5.00001 2 6.34316 2 8C2.00001 9.65684 3.34316 11 5 11H7V12H5C2.79088 12 1.00001 10.2091 1 8C1 5.79087 2.79087 4.00001 5 4L7 4V5L5 5Z" fill="#5D6A85"/>
<path d="M5 8.5V7.5L11 7.5V8.5L5 8.5Z" fill="#5D6A85"/>
<path d="M15 8C15 10.209 13.2089 11.9998 11 12H9V11L11 11C12.6567 10.9998 14 9.65671 14 8C14 6.34329 12.6567 5.00023 11 5L9 5V4L11 4C13.2089 4.00023 15 5.791 15 8Z" fill="#5D6A85"/>
</svg>
