<svg width="16" height="16" viewBox="0 0 16 16"  xmlns="http://www.w3.org/2000/svg">
<path fill-rule="evenodd" clip-rule="evenodd" d="M1.33337 3.99984C1.33337 3.26346 1.93033 2.6665 2.66671 2.6665C3.40309 2.6665 4.00004 3.26346 4.00004 3.99984C4.00004 4.73622 3.40309 5.33317 2.66671 5.33317C1.93033 5.33317 1.33337 4.73622 1.33337 3.99984ZM5.33337 3.99984C5.33337 3.63165 5.63185 3.33317 6.00004 3.33317H14C14.3682 3.33317 14.6667 3.63165 14.6667 3.99984C14.6667 4.36803 14.3682 4.6665 14 4.6665L6.00004 4.6665C5.63185 4.6665 5.33337 4.36803 5.33337 3.99984ZM1.33337 7.99984C1.33337 7.26346 1.93033 6.6665 2.66671 6.6665C3.40309 6.6665 4.00004 7.26346 4.00004 7.99984C4.00004 8.73622 3.40309 9.33317 2.66671 9.33317C1.93033 9.33317 1.33337 8.73622 1.33337 7.99984ZM5.33337 7.99984C5.33337 7.63165 5.63185 7.33317 6.00004 7.33317L14 7.33317C14.3682 7.33317 14.6667 7.63165 14.6667 7.99984C14.6667 8.36803 14.3682 8.6665 14 8.6665L6.00004 8.6665C5.63185 8.6665 5.33337 8.36803 5.33337 7.99984ZM1.33337 11.9998C1.33337 11.2635 1.93033 10.6665 2.66671 10.6665C3.40309 10.6665 4.00004 11.2635 4.00004 11.9998C4.00004 12.7362 3.40309 13.3332 2.66671 13.3332C1.93033 13.3332 1.33337 12.7362 1.33337 11.9998ZM5.33337 11.9998C5.33337 11.6316 5.63185 11.3332 6.00004 11.3332L14 11.3332C14.3682 11.3332 14.6667 11.6316 14.6667 11.9998C14.6667 12.368 14.3682 12.6665 14 12.6665H6.00004C5.63185 12.6665 5.33337 12.368 5.33337 11.9998Z"/>
</svg>
