<svg width="20" height="20" viewBox="0 0 20 20" xmlns="http://www.w3.org/2000/svg">
    <path fill-rule="evenodd" clip-rule="evenodd"
        d="M16 8.56C16 4.576 13.15 2 10 2C6.85 2 4 4.576 4 8.56C4 11.216 6.0025 14.36 10 18C13.9975 14.36 16 11.216 16 8.56ZM10 3.6C12.5125 3.6 14.5 5.656 14.5 8.56C14.5 10.432 13.0375 12.912 10 15.872C6.9625 12.912 5.5 10.432 5.5 8.56C5.5 5.656 7.4875 3.6 10 3.6Z" />
    <path
        d="M10 6C8.89543 6 8 6.89543 8 8C8 9.10457 8.89543 10 10 10C11.1046 10 12 9.10457 12 8C12 6.89543 11.1046 6 10 6Z"
        fill="#2C2E36" />
</svg>
