<svg width="20" height="20" viewBox="0 0 20 20" xmlns="http://www.w3.org/2000/svg">
  <path
    d="M10 1.25C7.41531 1.25 5.3125 3.21263 5.3125 5.625V8.25H4.375C3.34094 8.25 2.5 9.03487 2.5 10V17C2.5 17.9651 3.34094 18.75 4.375 18.75H15.625C16.6591 18.75 17.5 17.9651 17.5 17V10C17.5 9.03487 16.6591 8.25 15.625 8.25H14.6875V5.625C14.6875 3.21263 12.5847 1.25 10 1.25ZM15.625 10L15.6269 17H4.375V10H15.625ZM7.1875 8.25V5.625C7.1875 4.17775 8.44937 3 10 3C11.5506 3 12.8125 4.17775 12.8125 5.625V8.25H7.1875Z" />
</svg>