<svg width="17" height="16" viewBox="0 0 17 16" xmlns="http://www.w3.org/2000/svg">
<path d="M8.43479 1C6.25466 1 4.48099 2.5701 4.48099 4.5V6.6H3.69023C2.81802 6.6 2.1087 7.2279 2.1087 8V13.6C2.1087 14.3721 2.81802 15 3.69023 15H13.1794C14.0516 15 14.7609 14.3721 14.7609 13.6V8C14.7609 7.2279 14.0516 6.6 13.1794 6.6H12.3886V4.5C12.3886 2.5701 10.6149 1 8.43479 1ZM13.1794 8L13.1809 13.6H3.69023V8H13.1794ZM6.06251 6.6V4.5C6.06251 3.3422 7.12687 2.4 8.43479 2.4C9.74271 2.4 10.8071 3.3422 10.8071 4.5V6.6H6.06251Z" />
</svg>
