<svg width="16" height="16" viewBox="0 0 16 16" fill="none" xmlns="http://www.w3.org/2000/svg">
<path fill-rule="evenodd" clip-rule="evenodd" d="M7.46592 8.10356L7.89599 8.53213C7.95344 8.58934 8.04655 8.58934 8.10396 8.53213L8.53403 8.1036C8.59144 8.0464 8.59144 7.95363 8.53403 7.89642L8.10396 7.46785C8.04651 7.41061 7.9534 7.41061 7.89595 7.46785L7.46592 7.89638C7.40851 7.95359 7.40851 8.04636 7.46592 8.10356ZM6.56624 7.564L7.56244 6.57137C7.80404 6.33063 8.19583 6.33063 8.43748 6.57137L9.43372 7.56408C9.6754 7.80486 9.6754 8.19521 9.43372 8.43603L8.43756 9.42862C8.19592 9.66939 7.80416 9.66939 7.56252 9.42862L6.56624 8.4359C6.3246 8.19513 6.3246 7.80474 6.56624 7.564Z" fill="#29B5E8"/>
<path fill-rule="evenodd" clip-rule="evenodd" d="M9.65535 1.00002C10.1459 1.00002 10.5436 1.39629 10.5436 1.88508V3.71771L12.1485 2.79444C12.5733 2.55004 13.1165 2.69507 13.3618 3.11841C13.6071 3.54171 13.4615 4.083 13.0367 4.3274L10.2191 5.94834C10.0657 6.07397 9.86937 6.14945 9.65535 6.14945C9.1648 6.14945 8.76711 5.75318 8.76711 5.26439V1.88508C8.76711 1.39629 9.1648 1.00002 9.65535 1.00002Z" fill="#29B5E8"/>
<path fill-rule="evenodd" clip-rule="evenodd" d="M10.3537 8.33587C10.3482 8.32259 10.3428 8.30936 10.338 8.2958C10.3326 8.28067 10.3279 8.26551 10.3233 8.25022C10.3199 8.23847 10.3164 8.22681 10.3135 8.21498C10.3093 8.1986 10.3059 8.18223 10.3027 8.16574C10.3005 8.15411 10.2984 8.14252 10.2966 8.13082C10.2942 8.11472 10.2923 8.09867 10.2908 8.0825C10.2896 8.06967 10.2886 8.05688 10.2879 8.044C10.2872 8.02932 10.287 8.01467 10.287 7.99999C10.287 7.98531 10.2872 7.9707 10.2879 7.95602C10.2886 7.9431 10.2896 7.93031 10.2908 7.91752C10.2923 7.90135 10.2942 7.88529 10.2966 7.86912C10.2984 7.85745 10.3005 7.84587 10.3027 7.83424C10.3059 7.81779 10.3093 7.80142 10.3135 7.78504C10.3164 7.77321 10.3199 7.76151 10.3233 7.7498C10.3279 7.73451 10.3326 7.71931 10.338 7.70418C10.3428 7.69066 10.3482 7.67739 10.3537 7.66411C10.3589 7.65136 10.3641 7.63864 10.37 7.62605C10.3775 7.61012 10.3858 7.59455 10.3942 7.57906C10.3981 7.5719 10.4012 7.56454 10.4053 7.55746C10.4068 7.55473 10.4088 7.55231 10.4104 7.54962C10.4202 7.53308 10.4309 7.51711 10.4418 7.50122C10.4476 7.49265 10.4532 7.48384 10.4593 7.47555C10.4699 7.46131 10.4813 7.44771 10.4927 7.43404C10.5004 7.42482 10.5078 7.41537 10.5158 7.40652C10.5257 7.39558 10.5365 7.38528 10.547 7.37474C10.5576 7.36424 10.5679 7.3535 10.5789 7.3436C10.5878 7.33567 10.5973 7.32827 10.6065 7.32063C10.6203 7.30924 10.6339 7.29786 10.6482 7.2874C10.6565 7.28128 10.6654 7.27569 10.674 7.2699C10.6899 7.25904 10.7059 7.24838 10.7225 7.2386C10.7252 7.23703 10.7277 7.2351 10.7304 7.23353L13.6675 5.54388C14.0923 5.29944 14.6356 5.44451 14.8809 5.86781C15.1261 6.29115 14.9806 6.83244 14.5557 7.07684L12.951 7.99999L14.5557 8.92318C14.9806 9.16758 15.1261 9.70887 14.8809 10.1322C14.6356 10.5555 14.0923 10.7005 13.6675 10.4561L10.7304 8.76649C10.7277 8.76488 10.7252 8.76299 10.7225 8.76138C10.7059 8.75164 10.6899 8.74094 10.674 8.73012C10.6654 8.72425 10.6565 8.71874 10.6482 8.71258C10.6339 8.70212 10.6203 8.69074 10.6065 8.67935C10.5973 8.67175 10.5878 8.66434 10.5789 8.65638C10.568 8.64648 10.5576 8.63578 10.5471 8.62524C10.5365 8.61474 10.5257 8.6044 10.5158 8.59342C10.5078 8.58465 10.5004 8.57516 10.4927 8.56602C10.4813 8.55235 10.4699 8.53871 10.4593 8.52443C10.4532 8.51614 10.4477 8.50737 10.4418 8.4988C10.4309 8.48287 10.4202 8.4669 10.4104 8.4504C10.4087 8.44767 10.4068 8.44525 10.4053 8.44252C10.4012 8.43548 10.3981 8.42812 10.3942 8.421C10.3858 8.40543 10.3775 8.3899 10.37 8.37389C10.3641 8.36133 10.3589 8.34858 10.3537 8.33587Z" fill="#29B5E8"/>
<path fill-rule="evenodd" clip-rule="evenodd" d="M9.65535 9.85058C9.86937 9.85058 10.0657 9.92601 10.2191 10.0516L13.0367 11.6726C13.4615 11.917 13.6071 12.4583 13.3618 12.8816C13.1165 13.3049 12.5733 13.45 12.1485 13.2056L10.5436 12.2823V14.1149C10.5436 14.6037 10.1459 15 9.65535 15C9.1648 15 8.76711 14.6037 8.76711 14.1149V10.7356C8.76711 10.2468 9.1648 9.85058 9.65535 9.85058Z" fill="#29B5E8"/>
<path fill-rule="evenodd" clip-rule="evenodd" d="M2.96329 11.6726L5.78094 10.0516C5.93432 9.92601 6.13062 9.85058 6.34465 9.85058C6.8352 9.85058 7.23289 10.2468 7.23289 10.7356L7.23289 14.1149C7.23289 14.6037 6.8352 15 6.34465 15C5.8541 15 5.45641 14.6037 5.45641 14.1149V12.2823L3.85153 13.2055C3.42671 13.45 2.88343 13.3049 2.63815 12.8816C2.39288 12.4583 2.53847 11.917 2.96329 11.6726Z" fill="#29B5E8"/>
<path fill-rule="evenodd" clip-rule="evenodd" d="M1.44427 8.92317L3.049 8.00001L1.44427 7.07682C1.01945 6.83242 0.873864 6.29113 1.11914 5.86783C1.36441 5.44449 1.90769 5.29946 2.33251 5.54386L5.26959 7.23351C5.27234 7.23508 5.27476 7.23701 5.27746 7.23858C5.29406 7.24836 5.31009 7.25906 5.32608 7.26988C5.33464 7.27572 5.34348 7.28127 5.3518 7.28738C5.36613 7.29788 5.37977 7.30927 5.39346 7.32061C5.40271 7.32826 5.41219 7.33566 5.42108 7.34358C5.4321 7.35348 5.4424 7.36422 5.45297 7.37476C5.46351 7.38526 5.47425 7.39556 5.48426 7.40654C5.49222 7.41539 5.49961 7.42485 5.50732 7.43402C5.5187 7.4477 5.53013 7.4613 5.54067 7.47558C5.54676 7.48386 5.55233 7.49263 5.55823 7.5012C5.56909 7.51713 5.57983 7.53307 5.5896 7.5496C5.59122 7.55234 5.59315 7.55471 5.59473 7.55749C5.5988 7.56457 5.60191 7.57189 5.60579 7.57905C5.61419 7.59458 5.62251 7.61011 5.62997 7.62608C5.63587 7.63863 5.64108 7.65138 5.64633 7.66409C5.65182 7.67737 5.65723 7.69065 5.66203 7.70416C5.66744 7.71929 5.67212 7.7345 5.67665 7.74978C5.68012 7.76149 5.68355 7.7732 5.6865 7.78503C5.69066 7.8014 5.69413 7.81777 5.69728 7.83427C5.6995 7.84589 5.7016 7.85748 5.70338 7.86915C5.7058 7.88528 5.70766 7.90137 5.70915 7.9175C5.71036 7.9303 5.71137 7.94313 5.71205 7.956C5.71278 7.97069 5.71302 7.98533 5.71302 8.00001C5.71302 8.01466 5.71278 8.0293 5.71205 8.04399C5.71137 8.0569 5.71036 8.06965 5.70915 8.08253C5.70766 8.09866 5.7058 8.11471 5.70338 8.13084C5.7016 8.14255 5.6995 8.15413 5.69728 8.16572C5.69413 8.18221 5.69066 8.19859 5.6865 8.21496C5.68355 8.22679 5.68012 8.23846 5.67665 8.2502C5.67212 8.26549 5.66744 8.28066 5.66203 8.29578C5.65723 8.30934 5.65182 8.32258 5.64633 8.33585C5.64108 8.34861 5.63587 8.36132 5.62997 8.37391C5.62251 8.38988 5.61419 8.40545 5.60575 8.42102C5.60191 8.4281 5.5988 8.43546 5.59473 8.44254C5.59315 8.44524 5.59122 8.44769 5.58964 8.45039C5.57983 8.46688 5.56909 8.48289 5.55819 8.49878C5.55233 8.50735 5.54676 8.51616 5.54067 8.52441C5.53013 8.53869 5.5187 8.55233 5.50724 8.56601C5.49957 8.57518 5.49222 8.58463 5.48426 8.59344C5.47425 8.60439 5.46351 8.61473 5.45293 8.62527C5.44239 8.63577 5.43206 8.64647 5.42108 8.65636C5.41219 8.66433 5.40271 8.67173 5.39346 8.67934C5.37977 8.69076 5.36613 8.70215 5.3518 8.71261C5.34348 8.71872 5.33464 8.72427 5.32608 8.73011C5.31009 8.74097 5.29406 8.75163 5.27746 8.7614C5.27476 8.76301 5.27234 8.76486 5.26959 8.76647L2.33251 10.4561C1.90769 10.7006 1.36441 10.5555 1.11914 10.1322C0.873864 9.70886 1.01945 9.16756 1.44427 8.92317Z" fill="#29B5E8"/>
<path fill-rule="evenodd" clip-rule="evenodd" d="M2.63816 3.11838C2.88343 2.69508 3.42667 2.55002 3.85153 2.79441L5.45642 3.71769V1.88506C5.45642 1.39626 5.85407 1 6.34466 1C6.83521 1 7.23289 1.39626 7.23289 1.88506L7.23289 5.26436C7.23289 5.7532 6.83521 6.14942 6.34466 6.14942C6.13063 6.14942 5.93429 6.07395 5.78095 5.94831L2.9633 4.32737C2.53844 4.08301 2.39288 3.54168 2.63816 3.11838Z" fill="#29B5E8"/>
</svg>
