<svg width="500" height="68" viewBox="0 0 500 68" fill="none" xmlns="http://www.w3.org/2000/svg">
<path d="M36.4502 45.801L23.5534 67.5895L12.9014 61.5893L25.7961 39.7916H0V27.7979H25.7961L12.9014 6.00019L23.5534 0L36.4502 21.7885L49.3421 0.000282808L59.9936 6.00019L47.0989 27.7979H72.8906V39.7916H47.0989L59.9936 61.5893L49.3421 67.5892L36.4502 45.801Z" fill="url(#paint0_linear_18357_2194)"/>
<path d="M323.603 19.4164H309.233V57.163H299.844V19.4164H285.41V11.3051H323.603V19.4164Z" fill="white"/>
<path d="M253.28 34.2338C253.28 43.5587 258.198 49.6262 265.224 49.6262C270.206 49.6262 273.846 46.4966 275.124 41.3871L283.937 44.3251C281.255 52.6281 274.74 57.8653 265.224 57.8653C252.833 57.8653 243.828 48.0934 243.828 34.2338C243.828 20.3742 252.833 10.6023 265.224 10.6023C274.74 10.6023 281.255 15.8395 283.937 24.1425L275.124 27.0805C273.846 21.971 270.206 18.8414 265.224 18.8414C258.198 18.8414 253.28 24.9089 253.28 34.2338Z" fill="white"/>
<path d="M208.952 11.3051H240.631V19.4164H218.213V29.6354H236.99V37.6829H218.213V49.0516H240.631V57.163H208.952V11.3051Z" fill="white"/>
<path d="M173.524 57.163V11.3051H182.913V49.0516H203.99V57.163H173.524Z" fill="white"/>
<path d="M135.415 11.3051H167.094V19.4164H144.676V29.6354H163.454V37.6829H144.676V49.0516H167.094V57.163H135.415V11.3051Z" fill="white"/>
<path d="M92.7699 48.7959L99.2207 42.5368C102.606 47.3269 107.524 50.0094 112.569 50.0094C117.359 50.0094 120.872 47.9018 120.872 44.0057C120.872 39.7904 116.529 39.2156 109.631 37.6827C102.797 36.086 95.3885 33.9145 95.3885 24.8451C95.3885 16.095 102.925 10.6023 112.442 10.6023C120.361 10.6023 126.557 14.1151 129.75 18.7136L123.555 24.7812C120.872 21.0129 117.296 18.4582 112.186 18.4582C107.715 18.4582 104.65 20.6297 104.65 23.9509C104.65 27.5276 107.971 28.2301 113.974 29.5714C121.255 31.1681 130.197 33.0203 130.197 43.0477C130.197 52.3087 122.022 57.8653 112.25 57.8653C104.522 57.8653 96.4743 54.3525 92.7699 48.7959Z" fill="white"/>
<path d="M472.281 40.1097V57.1627H462.892V11.3048H481.67C492.208 11.3048 498.786 16.2866 498.786 25.7392C498.786 32.7009 495.018 37.3633 488.567 39.2155L500 57.1627H489.27L478.668 40.1097H472.281ZM472.281 32.2538H481.159C486.651 32.2538 489.462 29.8907 489.462 25.8031C489.462 21.6516 486.651 19.2884 481.159 19.2884H472.281V32.2538Z" fill="white"/>
<path d="M430.466 11.3048H441.196L458.377 57.1627H448.86L445.22 47.3269H426.315L422.674 57.1627H413.349L430.466 11.3048ZM435.703 21.7155L429.252 39.3433H442.218L435.703 21.7155Z" fill="white"/>
<path d="M417.56 19.4162H403.189V57.1627H393.8V19.4162H379.366V11.3048H417.56V19.4162Z" fill="white"/>
<path d="M340.598 48.7959L347.049 42.5368C350.434 47.3269 355.352 50.0094 360.398 50.0094C365.188 50.0094 368.7 47.9018 368.7 44.0057C368.7 39.7904 364.357 39.2156 357.46 37.6827C350.626 36.086 343.217 33.9145 343.217 24.8451C343.217 16.095 350.753 10.6023 360.27 10.6023C368.19 10.6023 374.385 14.1151 377.578 18.7136L371.383 24.7812C368.7 21.0129 365.124 18.4582 360.014 18.4582C355.543 18.4582 352.478 20.6297 352.478 23.9509C352.478 27.5276 355.799 28.2301 361.803 29.5714C369.084 31.1681 378.025 33.0203 378.025 43.0477C378.025 52.3087 369.85 57.8653 360.078 57.8653C352.35 57.8653 344.303 54.3525 340.598 48.7959Z" fill="white"/>
<defs>
<linearGradient id="paint0_linear_18357_2194" x1="72.8906" y1="2.34269e-06" x2="2.10372e-06" y2="67.5895" gradientUnits="userSpaceOnUse">
<stop offset="0.240963" stop-color="#875BF7"/>
<stop offset="0.717862" stop-color="#FF559E"/>
</linearGradient>
</defs>
</svg>
