<svg width="16" height="16" viewBox="0 0 16 16" fill="none" xmlns="http://www.w3.org/2000/svg">
<path d="M14.0714 6.66584L8.00672 10.2098L1.51254 6.42333L1.2002 6.59847V9.34742L8.00672 13.3091L14.0714 9.77862V11.234L8.00672 14.7779L1.51254 10.9914L1.2002 11.1666V11.6382L8.00672 15.5999L14.8002 11.6382V8.88926L14.4878 8.71407L8.00672 12.4871L1.929 8.95663V7.50133L8.00672 11.0318L14.8002 7.07013V4.36161L14.4618 4.15948L8.00672 7.91903L2.24134 4.57721L8.00672 1.22189L12.7439 3.9843L13.1604 3.74174V3.40487L8.00672 0.399902L1.2002 4.36161V4.79281L8.00672 8.75453L14.0714 5.21054V6.66584Z" fill="#FF3621"/>
</svg>
