<svg width="16" height="16" viewBox="0 0 16 16" xmlns="http://www.w3.org/2000/svg">
<path fill-rule="evenodd" clip-rule="evenodd" d="M5.17251 1.33325L6.00004 1.33325C6.36823 1.33325 6.66671 1.63173 6.66671 1.99992C6.66671 2.36811 6.36823 2.66659 6.00004 2.66659H5.20004C4.62899 2.66659 4.24079 2.6671 3.94073 2.69162C3.64846 2.7155 3.49899 2.75878 3.39472 2.81191C3.14384 2.93974 2.93986 3.14372 2.81203 3.3946C2.75891 3.49886 2.71562 3.64833 2.69174 3.94061C2.66723 4.24067 2.66671 4.62887 2.66671 5.19992V10.7999C2.66671 11.371 2.66723 11.7592 2.69174 12.0592C2.71562 12.3515 2.75891 12.501 2.81203 12.6052C2.93986 12.8561 3.14384 13.0601 3.39472 13.1879C3.49899 13.2411 3.64846 13.2843 3.94073 13.3082C4.24079 13.3327 4.62899 13.3333 5.20004 13.3333H6.00004C6.36823 13.3333 6.66671 13.6317 6.66671 13.9999C6.66671 14.3681 6.36823 14.6666 6.00004 14.6666H5.17249C4.63585 14.6666 4.19295 14.6666 3.83216 14.6371C3.45743 14.6065 3.11296 14.5408 2.7894 14.3759C2.28763 14.1203 1.87969 13.7123 1.62402 13.2106C1.45916 12.887 1.39345 12.5425 1.36284 12.1678C1.33336 11.807 1.33337 11.3641 1.33337 10.8275V5.17238C1.33337 4.63574 1.33336 4.19283 1.36284 3.83203C1.39345 3.4573 1.45916 3.11283 1.62402 2.78928C1.87969 2.28751 2.28763 1.87956 2.7894 1.6239C3.11296 1.45904 3.45743 1.39333 3.83216 1.36271C4.19296 1.33324 4.63586 1.33324 5.17251 1.33325ZM10.1953 4.19518C10.4557 3.93483 10.8778 3.93483 11.1381 4.19518L14.4714 7.52851C14.7318 7.78886 14.7318 8.21097 14.4714 8.47132L11.1381 11.8047C10.8778 12.065 10.4557 12.065 10.1953 11.8047C9.93495 11.5443 9.93495 11.1222 10.1953 10.8618L12.3906 8.66659H6.00004C5.63185 8.66659 5.33337 8.36811 5.33337 7.99992C5.33337 7.63173 5.63185 7.33325 6.00004 7.33325H12.3906L10.1953 5.13799C9.93495 4.87764 9.93495 4.45553 10.1953 4.19518Z" />
</svg>
