<svg width="30" height="30" viewBox="0 0 30 30"  xmlns="http://www.w3.org/2000/svg">
<path d="M4.66406 1.875H25.3359C26.8125 1.875 28.125 3.1875 28.125 4.82812V25.1719C28.125 26.8125 26.8125 28.125 25.3359 28.125H4.66406C3.1875 28.125 1.875 26.8125 1.875 25.1719V4.82812C1.875 3.1875 3.1875 1.875 4.66406 1.875ZM25.5 25.5V4.5H4.5V25.5H25.5Z" />
<path d="M22.5 15.3625C22.5 15.2375 22.5 15.125 22.5 15C22.496 13.3271 21.9328 11.7035 20.9 10.3875L15.9 15.3875L22.5 15.3625Z" />
<path d="M13.4875 16.7875V7.64999C12.1691 7.91253 10.9456 8.52456 9.94483 9.42205C8.94409 10.3195 8.20295 11.4695 7.79896 12.7516C7.39498 14.0337 7.343 15.4008 7.64847 16.7099C7.95394 18.019 8.60563 19.2219 9.53534 20.1928C10.4651 21.1637 11.6386 21.8668 12.9332 22.2287C14.2279 22.5906 15.5959 22.5978 16.8943 22.2498C18.1927 21.9017 19.3737 21.211 20.3137 20.2501C21.2537 19.2892 21.9181 18.0932 22.2375 16.7875H13.4875Z" />
<path d="M14.9125 14.35L19.9125 9.35C18.5549 8.15576 16.8081 7.49796 15 7.5H14.9125V14.35Z" />

</svg>
