<svg width="16" height="16" viewBox="0 0 16 16"  xmlns="http://www.w3.org/2000/svg">
<path fill-rule="evenodd" clip-rule="evenodd" d="M13.6187 1H3.38125C2.78171 1 2.23678 1.43694 2.05994 2.04214C1.46981 2.19843 1 2.77174 1 3.4625V13.5375C1 14.35 1.65 15 2.38125 15H12.6187C13.2183 15 13.7632 14.5631 13.9401 13.9579C14.5302 13.8016 15 13.2283 15 12.5375V2.4625C15 1.65 14.35 1 13.6187 1ZM12.6 3.4V13.6H2.4V3.4H12.6ZM5.86147 11.4L3.00003 8.49999L5.86144 5.6L6.70829 6.45825L4.69371 8.49999L6.70831 10.5417L5.86147 11.4ZM12 8.50001L9.13853 5.60002L8.29169 6.45827L10.3063 8.50001L8.29171 10.5418L9.13856 11.4L12 8.50001Z" />
</svg>
