<svg width="20" height="20" viewBox="0 0 20 20"  xmlns="http://www.w3.org/2000/svg">
    <path
        d="M19 5.48214C19 4.76339 18.4972 4.25 17.7933 4.25H13.8715C13.3687 4.25 12.9665 4.55804 12.7654 4.96875H3.31285C2.60894 5.07143 2.10615 5.58482 2.10615 6.30357V7.33036C2.10615 7.33036 1 7.33036 1 8.45982V13.7991C1 14.5179 1.50279 15.0312 2.2067 15.0312H11.6592C11.8603 15.442 12.2626 15.75 12.7654 15.75H16.6872C17.3911 15.75 17.8939 15.2366 17.8939 14.5179V13.4911C18.4972 13.3884 19 12.875 19 12.2589V5.48214ZM8.44134 7.02232V8.5625H5.6257V7.02232H8.44134ZM11.5587 13.5938H2.40782V8.76786H4.11732V8.87054C4.11732 9.58929 4.62011 10.1027 5.32402 10.1027H8.64246C9.34637 10.1027 9.84916 9.58929 9.84916 8.87054V8.76786H11.5587V13.5938ZM14.1732 14.4152H13.067V7.94643H14.2737C14.2737 9.28125 14.1732 12.1562 14.1732 14.4152ZM16.486 14.4152H15.3799C15.3799 10.8214 15.4804 8.97321 15.3799 8.04911H16.486V14.4152Z"
        />
</svg>
