<svg width="24" height="24" viewBox="0 0 24 24" fill="none" xmlns="http://www.w3.org/2000/svg">

<path d="M13.875 10.5C12.9176 10.5 11.9601 10.7553 11.1822 11.266L12.1995 12.734C12.738 12.4787 13.2766 12.3511 13.875 12.3511C16.0293 12.3511 17.8245 14.2021 17.8245 16.5638C17.8245 18.8617 16.0891 20.7766 13.875 20.7766C11.7207 20.7766 9.92553 18.9255 9.92553 16.5638C9.92553 15.2234 10.5239 14.0745 11.4215 13.3085L10.4043 11.8404C9.08777 12.8617 8.25 14.5851 8.25 16.5C8.25 19.8191 10.7633 22.5 13.875 22.5C16.9867 22.5 19.5 19.8191 19.5 16.5C19.5 13.1809 16.9867 10.5 13.875 10.5Z" fill="#0085FF"/>
<path d="M10.4531 7.71296C10.4531 8.36111 10.1719 8.87963 9.75 9.33333L10.6641 10.5C11.5078 9.78704 12 8.81482 12 7.71296C12 6.74074 11.5781 5.89815 11.0156 5.25L9.89063 6.22222C10.2422 6.61111 10.4531 7.12963 10.4531 7.71296Z" fill="#FFCF00"/>
<path d="M8.16316 9.81557C6.9 9.81557 5.88947 8.77234 5.88947 7.46831C5.88947 6.16428 6.9 5.12105 8.16316 5.12105C8.66842 5.12105 9.11053 5.31666 9.48947 5.57746L10.5 4.59944C9.86842 4.07783 9.04737 3.75182 8.16316 3.75182C6.14211 3.68662 4.5 5.38186 4.5 7.46831C4.5 9.55476 6.14211 11.25 8.16316 11.25C8.79474 11.25 9.36316 11.1196 9.86842 10.7936L9.04737 9.61996C8.79474 9.75036 8.47895 9.81557 8.16316 9.81557Z" fill="#FF2A00"/>
<path d="M11.375 2.9375C11.375 2.1875 12 1.5 12.8125 1.5C13.625 1.5 14.25 2.125 14.25 2.9375C14.25 3.75 13.625 4.375 12.8125 4.375C12.5 4.375 12.25 4.3125 12 4.125L11.375 4.75C11.75 5.0625 12.25 5.25 12.75 5.25C14 5.25 15 4.25 15 3C15 1.75 14 0.75 12.75 0.75C11.5 0.75 10.5 1.75 10.5 3C10.5 3.5 10.6875 4 10.9375 4.375L11.5625 3.75C11.4375 3.5 11.375 3.25 11.375 2.9375Z" fill="#00BD43"/>
</svg>
