<svg width="16" height="16" viewBox="0 0 16 16" fill="none" xmlns="http://www.w3.org/2000/svg">
<path d="M9.9375 8.28125C11.9568 8.28125 13.5938 9.91821 13.5938 11.9375C13.5938 13.9568 11.9568 15.5938 9.9375 15.5938C7.91821 15.5938 6.28125 13.9568 6.28125 11.9375C6.28125 9.91821 7.91821 8.28125 9.9375 8.28125ZM9.95605 9.31543C8.49783 9.31554 7.31554 10.4978 7.31543 11.9561C7.31543 13.4144 8.49777 14.5966 9.95605 14.5967C11.4144 14.5967 12.5967 13.4144 12.5967 11.9561C12.5966 10.4978 11.4144 9.31543 9.95605 9.31543Z" fill="#4285F4"/>
<path d="M7.86328 8.92578C8.45259 8.51915 9.16735 8.28125 9.9375 8.28125C11.9464 8.28125 13.577 9.90135 13.5938 11.9062H12.5967C12.57 10.4709 11.3977 9.31543 9.95605 9.31543C9.10749 9.31549 8.3522 9.71582 7.86914 10.3379L6.27344 8.74121C6.55153 8.55571 6.78963 8.316 6.97266 8.03613L7.86328 8.92578Z" fill="#34A853"/>
<path d="M4.90625 4.21875C6.2697 4.21875 7.375 5.32405 7.375 6.6875C7.375 8.05095 6.2697 9.15625 4.90625 9.15625C3.5428 9.15625 2.4375 8.05095 2.4375 6.6875C2.4375 5.32405 3.5428 4.21875 4.90625 4.21875ZM4.90625 5.21582C4.09508 5.21582 3.4375 5.8734 3.4375 6.68457C3.43751 7.49573 4.09509 8.15332 4.90625 8.15332C5.71741 8.15332 6.37499 7.49573 6.375 6.68457C6.375 5.8734 5.71742 5.21582 4.90625 5.21582Z" fill="#FBBD05"/>
<path d="M9.1875 0.375C10.3438 0.375 11.2812 1.31241 11.2812 2.46875C11.2812 3.6251 10.3438 4.5625 9.1875 4.5625C8.79509 4.5625 8.42914 4.45247 8.11523 4.26465L6.99805 5.38184C6.82282 5.10169 6.59478 4.8588 6.3252 4.66895L7.41406 3.5791C7.212 3.25705 7.09375 2.87699 7.09375 2.46875C7.09375 1.31241 8.03115 0.375 9.1875 0.375ZM9.1875 1.375C8.58344 1.375 8.09375 1.86469 8.09375 2.46875C8.09375 3.07281 8.58344 3.5625 9.1875 3.5625C9.79156 3.5625 10.2812 3.07281 10.2812 2.46875C10.2812 1.86469 9.79156 1.375 9.1875 1.375Z" fill="#EA4335"/>
</svg>
