<svg width="16" height="16" viewBox="0 0 16 16" xmlns="http://www.w3.org/2000/svg">
    <path
        d="M14.1715 4.61152H10.8286C10.4 4.61152 10.0572 4.86866 9.88576 5.21152H8.34291V4.86866C8.34291 4.26866 7.91433 3.84009 7.31433 3.84009H4.48576C3.97148 3.84009 3.45719 4.26866 3.45719 4.86866V5.29723H1.82862C1.22862 5.29723 0.800049 5.7258 0.800049 6.3258V10.7829C0.800049 11.3829 1.22862 11.8115 1.82862 11.8115H9.88576C10.0572 12.1544 10.4 12.4115 10.8286 12.4115H14.1715C14.7715 12.4115 15.2 11.9829 15.2 11.3829V5.64009C15.2 5.1258 14.7715 4.61152 14.1715 4.61152ZM4.74291 5.04009H7.14291V6.3258H4.74291V5.04009ZM2.00005 6.49723H3.45719V6.58294C3.45719 7.18294 3.88576 7.61152 4.48576 7.61152H7.31433C7.91433 7.61152 8.34291 7.18294 8.34291 6.58294V6.49723H9.80005V10.6115H2.00005V6.49723ZM11.0858 5.89723H12.1143C12.1143 6.9258 12.1143 9.41152 12.1143 11.2115H11.0858V5.89723ZM14 11.2115H13.0572C13.0572 8.21152 13.1429 6.66866 13.0572 5.89723H14V11.2115Z"
         />
</svg>
