<svg width="16" height="16" viewBox="0 0 16 16"  xmlns="http://www.w3.org/2000/svg">
<path fill-rule="evenodd" clip-rule="evenodd" d="M3.38125 1H13.6187C14.35 1 15 1.65 15 2.4625V12.5375C15 13.2283 14.5302 13.8016 13.9401 13.9579C13.7632 14.5631 13.2183 15 12.6187 15H2.38125C1.65 15 1 14.35 1 13.5375V3.4625C1 2.77174 1.46981 2.19843 2.05994 2.04214C2.23678 1.43694 2.78171 1 3.38125 1ZM12.6 13.6V3.4H2.4V13.6H12.6ZM10.9999 8.49991V8.66908L7.91992 8.68075L10.2533 6.34741C10.7352 6.96156 10.9981 7.71922 10.9999 8.49991ZM6.79423 9.33424V5.07007C6.179 5.19258 5.608 5.4782 5.14098 5.89703C4.67397 6.31586 4.3281 6.85251 4.13958 7.45082C3.95105 8.04913 3.9268 8.68712 4.06935 9.29802C4.2119 9.90892 4.51602 10.4703 4.94989 10.9234C5.38376 11.3764 5.93142 11.7046 6.53557 11.8735C7.13973 12.0423 7.77817 12.0457 8.38408 11.8833C8.99 11.7209 9.54112 11.3986 9.97978 10.9501C10.4184 10.5017 10.7285 9.94359 10.8776 9.33424H6.79423ZM9.79256 5.86334L7.45923 8.19667V5H7.50006C8.34386 4.99905 9.15901 5.30602 9.79256 5.86334Z" />
</svg>
