<svg width="24" height="24" viewBox="0 0 24 24" fill="none" xmlns="http://www.w3.org/2000/svg">
<path d="M11.75 2C17.1277 2 21.5 6.37226 21.5 11.75C21.5 17.1278 17.1277 21.5 11.75 21.5C6.37225 21.5 2 17.1278 2 11.75C2 6.37226 6.37225 2 11.75 2Z" fill="#FDDD4C"/>
<path d="M8.46865 11.0862C8.36679 11.0741 8.26261 11.0741 8.16122 11.0862C8.10541 10.9592 8.09564 10.737 8.1468 10.498C8.21936 10.1418 8.31889 9.92429 8.52725 9.9585C8.73328 9.99272 8.74026 10.2515 8.66771 10.6077C8.62399 10.8078 8.55143 10.9812 8.46911 11.0862H8.46865ZM10.242 11.3693C10.0941 11.4354 10.0048 11.479 9.9681 11.4401C9.94624 11.4157 9.95136 11.3717 9.98763 11.3131C10.0602 11.1936 10.2104 11.0712 10.3704 11.0033C10.7048 10.8617 11.0899 10.9081 11.3829 11.1251C11.4824 11.1983 11.5741 11.3009 11.562 11.3618C11.5573 11.3815 11.5424 11.3961 11.5085 11.4008C11.4262 11.4106 11.1429 11.2667 10.8132 11.2447C10.583 11.2301 10.3895 11.3033 10.2416 11.3693H10.242ZM10.5397 11.5404C10.7336 11.5723 10.8378 11.6356 10.9053 11.6942C10.9657 11.7453 10.9997 11.8038 10.9997 11.8432L10.9853 11.8798L10.9536 11.892C10.9099 11.892 10.8132 11.8503 10.8132 11.8503C10.6146 11.7771 10.4016 11.7528 10.1932 11.787C10.0965 11.7968 10.0504 11.8038 10.0286 11.7701C10.0239 11.7603 10.0165 11.7406 10.036 11.7092C10.0797 11.6337 10.276 11.5086 10.5397 11.5404ZM9.06675 12.1699C8.93606 12.2332 8.79282 12.2088 8.74677 12.1137C8.6984 12.0162 8.76631 11.884 8.897 11.8207C9.02769 11.7546 9.17093 11.7818 9.2193 11.877C9.26535 11.9745 9.19744 12.1038 9.06675 12.1699ZM8.22633 11.4279C8.33284 11.4256 8.4226 11.5428 8.4226 11.6914C8.42493 11.8381 8.34261 11.9576 8.2361 11.9599C8.1296 11.9623 8.04216 11.8451 8.03983 11.6989C8.03751 11.5521 8.12215 11.4303 8.22633 11.4279ZM15.3604 14.079C15.3869 14.0471 15.4306 14.057 15.472 14.0668C15.5059 14.0743 15.5399 14.079 15.5715 14.0814C15.6441 14.0814 15.712 14.0471 15.7534 13.9885C15.8017 13.9131 15.7994 13.8006 15.7459 13.6736L15.7217 13.615C15.6343 13.4223 15.4938 13.0999 15.6538 12.7924C15.7724 12.5604 15.9687 12.4165 16.2064 12.3869C16.4343 12.3574 16.6594 12.438 16.817 12.6068C17.0519 12.8678 17.0882 13.2245 17.0421 13.3516C17.0254 13.398 16.9984 13.4101 16.9793 13.4125C16.9407 13.4172 16.8826 13.3881 16.8435 13.2878L16.8338 13.2559C16.817 13.202 16.7854 13.1022 16.737 13.0239C16.6063 12.8238 16.3422 12.7675 16.1459 12.8992C15.9813 13.0066 15.9157 13.2119 15.9859 13.4045C16.0222 13.5072 16.0827 13.6975 16.0682 13.8564C16.0417 14.176 15.8478 14.3031 15.6734 14.3176C15.5036 14.3251 15.385 14.2271 15.3534 14.1563C15.3366 14.1146 15.3511 14.0903 15.3608 14.0781L15.3604 14.079ZM5.54741 13.4955C5.55485 13.4711 5.59578 13.315 5.65392 13.1294L5.77252 12.8097C5.53997 12.4582 5.53532 12.1432 5.56648 11.9651C5.60043 11.7453 5.6902 11.5573 5.87391 11.3647C6.05576 11.1692 6.43108 10.9691 6.95896 10.8205L7.23523 10.745C7.23523 10.7328 7.24964 10.086 7.26174 9.80992C7.26918 9.60978 7.28592 9.2948 7.38266 8.98732C7.49661 8.56969 7.69753 8.20362 7.94728 7.96926C7.25941 7.24931 6.82827 6.45577 6.8306 5.77706C6.83292 4.46606 8.42446 4.07046 10.3867 4.89072L10.8034 5.06883C11.0578 4.8176 11.3099 4.5659 11.5666 4.31466C13.8051 2.34464 20.8005 10.1933 18.5648 12.1024L18.0756 12.5201C18.2063 12.8763 18.2523 13.2597 18.2114 13.6408C18.1579 14.1657 17.8914 14.6687 17.4556 15.0568C17.044 15.4252 16.5012 15.6595 15.9729 15.6595C15.1032 17.6835 13.1144 18.926 10.7843 18.9968C8.28215 19.0699 6.1818 17.8859 5.30277 15.7575C5.24464 15.6084 5 14.9349 5 14.3415C5 13.7434 5.3344 13.4969 5.54741 13.4969V13.4955ZM15.7817 15.0872C15.8566 15.1018 15.9366 15.1069 16.0143 15.1041C16.7677 15.0844 17.584 14.3987 17.6663 13.5831C17.756 12.6822 17.3007 11.9913 16.4938 11.8278C16.3822 11.8034 16.2687 11.7959 16.1547 11.801C15.7017 11.8278 15.0357 12.1769 14.8855 13.1706C14.7497 14.0518 14.9632 14.948 15.7817 15.0896V15.0872ZM16.6245 11.2887C17.1258 11.3862 17.5691 11.6745 17.8407 12.0701C18.003 11.936 18.3035 11.6721 18.3565 11.5695C18.7876 10.7394 17.8839 9.13075 17.2542 8.22003C15.6943 5.97393 13.2502 4.27248 12.1187 4.57996C11.9345 4.63386 11.3266 5.34631 11.3266 5.34631C11.3266 5.34631 12.4577 5.97861 13.507 6.86215C14.919 7.96082 15.985 9.55494 16.6245 11.2883V11.2887ZM8.69654 14.753C8.6798 14.7455 8.66724 14.7263 8.67003 14.709C8.67236 14.6846 8.69189 14.6672 8.71608 14.6701C8.71608 14.6701 9.89834 14.8482 11.0173 14.4334C10.8964 14.0354 10.5718 14.1793 10.0825 14.2187C9.32209 14.2651 8.55888 14.1821 7.82496 13.9721C7.31848 13.8254 6.65479 13.5376 6.13668 13.1252C5.96227 13.5109 5.90181 13.9356 5.90181 13.9356C5.90181 13.9356 5.766 13.9112 5.65485 13.982C5.54834 14.0481 5.47067 14.1873 5.52416 14.5412C5.63066 15.2053 5.91158 15.7448 6.38178 16.2426C6.67479 16.5623 7.02361 16.8262 7.41382 17.0188C7.62962 17.1336 7.85473 17.2288 8.08495 17.3071C9.85834 17.8906 11.6727 17.2485 12.2587 15.869C12.3047 15.764 12.3433 15.6544 12.3749 15.5419C12.6242 14.6335 12.4135 13.5423 11.7499 12.8566C11.7113 12.8125 11.6699 12.7614 11.6699 12.6953C11.6699 12.6414 11.7038 12.5857 11.7327 12.544C11.9629 12.2046 12.7647 11.6285 12.6047 10.5102C12.4884 9.7068 11.7931 9.14293 11.1438 9.17481L10.9792 9.18465C10.6983 9.20152 10.4537 9.23855 10.2234 9.24793C9.83601 9.2648 9.4872 9.20902 9.07513 8.86217C8.93699 8.74499 8.82584 8.64234 8.63654 8.61094C8.61701 8.60859 8.56632 8.58891 8.46958 8.59406C8.36772 8.59875 8.27098 8.63062 8.18634 8.68687C7.85426 8.90904 7.80822 9.44619 7.79148 9.83898C7.78171 10.0635 7.7552 10.6053 7.74543 10.7619C7.72357 11.1181 7.63148 11.1697 7.44498 11.2306C7.33848 11.2672 7.23895 11.2939 7.09616 11.3333C6.65758 11.4579 6.39853 11.5845 6.23621 11.7457C6.13668 11.846 6.09343 11.9534 6.07854 12.0555C6.02506 12.4366 6.36923 12.9053 7.27987 13.3323C8.27563 13.7987 9.48162 13.9159 10.3151 13.8231L10.6081 13.7889C11.2741 13.6984 11.6545 14.5674 11.255 15.166C10.9983 15.5494 10.2932 15.8006 9.59091 15.8006C7.97984 15.8006 6.7399 15.105 6.27946 14.5041L6.24319 14.4502C6.219 14.416 6.23854 14.3991 6.26737 14.4184C6.6427 14.6771 8.31656 15.7097 10.1044 15.3999C10.1044 15.3999 10.3225 15.3633 10.5211 15.285C10.6788 15.2241 11.008 15.0703 11.049 14.7282C9.60533 15.18 8.69701 14.7526 8.69701 14.7526L8.69654 14.753ZM13.7446 8.21018C13.1898 7.56335 12.507 7.00183 11.8964 6.68685C11.8745 6.67466 11.8526 6.69903 11.8624 6.71872C11.9108 6.80684 12.0052 6.99948 12.0345 7.14104C12.0392 7.16307 12.015 7.17994 11.9982 7.16775C11.6155 6.90668 10.9541 6.62591 10.3727 6.58935C10.3485 6.58935 10.3365 6.62123 10.356 6.63576C10.4527 6.71122 10.5378 6.797 10.6127 6.89449C10.6248 6.91136 10.6127 6.93339 10.5932 6.93339C10.1839 6.93808 9.60952 7.08245 9.23651 7.29478C9.21 7.30931 9.22675 7.35805 9.25605 7.35102C9.82299 7.21931 10.7508 7.11901 11.7145 7.35852C12.5745 7.57085 13.2307 7.89567 13.7107 8.24956C13.7349 8.26643 13.7642 8.23456 13.7446 8.21018Z" fill="black"/>
</svg>
