<svg width="24" height="24" viewBox="0 0 24 24" fill="none" xmlns="http://www.w3.org/2000/svg">
<path d="M0.111954 5.06988C0.177202 5.02174 0.260025 4.99695 0.344454 5.0003C0.576204 5.0003 0.875641 5.14115 1.03689 5.21661L1.10064 5.24602C1.371 5.3633 1.66531 5.42965 1.96539 5.44099C2.27209 5.44963 2.57831 5.46869 2.88339 5.49813C4.92901 5.68654 5.84158 7.09213 6.72039 8.45117C7.19889 9.19052 7.69314 9.95862 8.37076 10.5454C8.51082 10.667 8.6597 10.7807 8.81664 10.8849C9.51789 11.3521 10.3982 11.6857 11.0831 11.9219C11.7428 12.1479 12.4629 12.351 13.158 12.5474C13.7955 12.7273 14.3972 12.8974 14.9505 13.0816C15.165 13.1525 15.3816 13.2199 15.5991 13.2841C16.1031 13.4307 16.4664 13.5429 16.9974 13.8707C17.1878 13.9866 17.3731 14.109 17.553 14.2376C17.9745 14.5391 18.3476 14.8912 18.6617 15.2842C18.9318 15.6466 19.2439 15.9825 19.5928 16.2861C19.7049 16.3842 19.9039 16.4326 20.2018 16.4326C20.5506 16.4326 20.9734 16.3681 21.4208 16.2998C21.8824 16.2267 22.3594 16.157 22.7685 16.157C23.1006 16.157 23.3554 16.2057 23.5449 16.3037C23.5449 16.3037 23.8652 16.4709 24 16.6872L23.8674 16.741C23.6619 16.8409 23.4716 16.9641 23.3012 17.1076C23.1235 17.2547 22.9256 17.3809 22.7123 17.4831C22.6438 17.5056 22.5819 17.5409 22.5304 17.5866C22.5859 17.6599 22.668 17.7545 22.7541 17.8555C23.226 18.4095 23.5016 18.7592 23.3438 18.9498C23.268 18.9851 23.1834 19.0023 23.0981 18.9998C22.0688 18.9998 21.5156 18.7601 20.8163 18.4564C20.6134 18.3686 20.4071 18.2782 20.1617 18.1849C19.7526 18.0259 19.3121 17.7722 18.8451 17.5036C18.2338 17.1466 17.5948 16.7799 16.9746 16.603C16.4649 16.4637 15.934 16.3968 15.4013 16.4049C14.7465 16.4049 14.0574 16.4832 13.3931 16.5595C12.8979 16.617 12.3849 16.6755 11.8819 16.7027C11.698 16.7127 11.5138 16.7179 11.3295 16.7182C11.0942 16.7188 10.859 16.7078 10.6251 16.6852L10.5688 16.6676C10.2158 16.473 10.0504 16.0558 9.89045 15.6524C9.78714 15.3926 9.70032 15.1595 9.56289 15.0114C9.55482 15.0042 9.54601 14.9976 9.53664 14.9917C9.53022 14.9885 9.52281 14.9874 9.51557 14.9884C9.50833 14.9894 9.50169 14.9926 9.4967 14.9974V15.0092C9.57826 16.5869 10.287 17.5888 11.0038 18.4792L11.4823 18.9391C11.4823 18.9391 10.8124 18.9391 10.431 18.807C9.03976 18.4344 7.99014 17.613 7.22607 16.3029C7.03757 15.9665 6.86902 15.6215 6.72114 15.2692C6.70801 15.2403 6.58764 15.1858 6.59926 15.3376C6.6032 15.3825 6.60676 15.4322 6.6107 15.4845C6.6107 15.5151 6.6107 15.5467 6.61726 15.5783C6.63676 15.7985 6.69489 16.2634 6.69489 16.2634L6.26551 16.0571C5.22958 15.4706 4.43102 14.2868 3.8252 12.4451C3.5732 11.6777 3.38833 10.9156 3.22577 10.2445C3.03095 9.43759 2.86295 8.74614 2.67076 8.47773C2.36889 8.05654 1.9082 7.77182 1.46233 7.49551C1.40177 7.4582 1.34045 7.42206 1.28045 7.3824C0.720205 7.02978 0.162954 6.62271 0.0399532 5.86352V5.84672C-0.0489216 5.28031 0.026268 5.13594 0.111954 5.06988Z" fill="#003545"/>
</svg>
