<svg width="16" height="16" viewBox="0 0 16 16" xmlns="http://www.w3.org/2000/svg">
<path fill-rule="evenodd" clip-rule="evenodd" d="M14 2.75H2C1.73478 2.75 1.48043 2.85536 1.29289 3.04289C1.10536 3.23043 1 3.48478 1 3.75V12.75C1 13.0152 1.10536 13.2696 1.29289 13.4571C1.48043 13.6446 1.73478 13.75 2 13.75H14C14.2652 13.75 14.5196 13.6446 14.7071 13.4571C14.8946 13.2696 15 13.0152 15 12.75V3.75C15 3.48478 14.8946 3.23043 14.7071 3.04289C14.5196 2.85536 14.2652 2.75 14 2.75ZM13.5 12.25H2.5V4.25H13.5V12.25ZM4.94 8.08992L6.01 9.43992L7.08 8.08992V10.2399H8.52V5.91992H7.08L6.01 7.34992L4.94 5.91992H3.5V10.2399H4.94V8.08992ZM11.4099 8.07992H12.4999L10.6899 10.5799L8.87988 8.07992H9.96988V5.91992H11.4099V8.07992Z" />
</svg>
