<svg width="20" height="20" viewBox="0 0 20 20" xmlns="http://www.w3.org/2000/svg">
    <path
        d="M16.6 7.82064C16.6 4.19995 13.598 1.19995 9.97498 1.19995C6.35193 1.19995 3.34998 4.19995 3.34998 7.82064C3.34998 11.4413 6.35193 14.4413 9.97498 14.4413C13.598 14.4413 16.6 11.4413 16.6 7.82064ZM6.97302 12.3724L7.4906 9.06202L5.21326 6.78616L8.52576 6.26892L9.97498 3.26892L11.4242 6.26892L14.7367 6.78616L12.3558 9.06202L12.8734 12.3724L9.97498 10.8206L6.97302 12.3724Z" />
    <path
        d="M9.97473 14.9585C8.31848 14.9585 6.76575 14.3378 5.52356 13.4067L3.66028 16.924L6.55872 16.5102L7.90442 19.1998L9.97473 15.3723L12.045 19.1998L13.3907 16.5102L16.2892 16.924L14.4259 13.4067C13.2872 14.3378 11.631 14.9585 9.97473 14.9585Z" />
</svg>
