<svg width="16" height="16" viewBox="0 0 16 16" xmlns="http://www.w3.org/2000/svg">
<path d="M13.333 8.7998V5.2002C13.333 4.62914 13.3331 4.24049 13.3085 3.94043C13.2847 3.64838 13.2415 3.49877 13.1884 3.39453C13.0606 3.14365 12.8563 2.93935 12.6054 2.81152C12.5012 2.75843 12.3516 2.71528 12.0595 2.69141C11.7595 2.66689 11.3708 2.66699 10.7997 2.66699H5.20014C4.62909 2.66699 4.24043 2.66689 3.94037 2.69141C3.64832 2.71528 3.49871 2.75843 3.39447 2.81152C3.14359 2.93935 2.9393 3.14365 2.81147 3.39453C2.75837 3.49877 2.71523 3.64838 2.69135 3.94043C2.66683 4.24049 2.66694 4.62914 2.66694 5.2002V9.33301C2.66694 9.99533 2.67225 10.1966 2.71186 10.3447C2.83515 10.8048 3.19509 11.1648 3.65522 11.2881C3.80336 11.3277 4.00461 11.333 4.66694 11.333C5.03498 11.3332 5.33295 11.6319 5.33295 12V13.2803L6.70697 12.1807C7.01099 11.9375 7.23312 11.7553 7.48822 11.625C7.70206 11.5158 7.92977 11.436 8.16498 11.3877C8.44549 11.3301 8.7329 11.333 9.12201 11.333H10.7997C11.3708 11.333 11.7595 11.3331 12.0595 11.3086C12.3516 11.2847 12.5012 11.2416 12.6054 11.1885C12.8563 11.0606 13.0606 10.8564 13.1884 10.6055C13.2415 10.5012 13.2847 10.3516 13.3085 10.0596C13.3331 9.75951 13.333 9.37086 13.333 8.7998ZM5.10248 6.00488C5.60661 6.05621 5.99994 6.48232 5.99994 7C5.99994 7.55228 5.55223 8 4.99994 8C4.48227 8 4.05616 7.60667 4.00483 7.10254L3.99994 7L4.00483 6.89746C4.05616 6.39333 4.48227 6 4.99994 6L5.10248 6.00488ZM8.10248 6.00488C8.60661 6.05621 8.99994 6.48232 8.99994 7C8.99994 7.55228 8.55223 8 7.99994 8C7.48227 8 7.05616 7.60667 7.00483 7.10254L6.99994 7L7.00483 6.89746C7.05616 6.39333 7.48227 6 7.99994 6L8.10248 6.00488ZM11.1025 6.00488C11.6066 6.05621 11.9999 6.48232 11.9999 7C11.9999 7.55228 11.5522 8 10.9999 8C10.4823 8 10.0562 7.60667 10.0048 7.10254L9.99994 7L10.0048 6.89746C10.0562 6.39333 10.4823 6 10.9999 6L11.1025 6.00488ZM14.6669 8.7998C14.6669 9.34886 14.6666 9.80102 14.6367 10.168C14.606 10.5427 14.5408 10.8874 14.3759 11.2109C14.1203 11.7125 13.7124 12.1203 13.2109 12.376C12.8874 12.5408 12.5426 12.6061 12.1679 12.6367C11.801 12.6667 11.3488 12.667 10.7997 12.667H9.12201C8.67962 12.667 8.55082 12.6703 8.43354 12.6943C8.31585 12.7185 8.20165 12.7578 8.09467 12.8125C7.98807 12.867 7.88547 12.9453 7.53998 13.2217L5.94916 14.4941C5.82095 14.5967 5.68932 14.7032 5.57416 14.7793C5.46921 14.8487 5.26558 14.9724 5.00092 14.9727C4.69642 14.973 4.40866 14.8347 4.21869 14.5967C4.05362 14.3898 4.02304 14.1536 4.01166 14.0283C3.99917 13.8907 3.99994 13.7209 3.99994 13.5566V12.6592C3.73876 12.6506 3.51447 12.6311 3.30951 12.5762C2.38938 12.3296 1.67037 11.6106 1.42377 10.6904C1.32718 10.3299 1.33295 9.91007 1.33295 9.33301V5.2002C1.33295 4.65114 1.33324 4.19898 1.36322 3.83203C1.39385 3.45735 1.45912 3.11258 1.62397 2.78906C1.87959 2.2875 2.28744 1.87965 2.78901 1.62402C3.11253 1.45918 3.45729 1.3939 3.83197 1.36328C4.19892 1.3333 4.65109 1.33301 5.20014 1.33301H10.7997C11.3488 1.33301 11.801 1.3333 12.1679 1.36328C12.5426 1.3939 12.8874 1.45918 13.2109 1.62402C13.7124 1.87965 14.1203 2.2875 14.3759 2.78906C14.5408 3.11258 14.606 3.45735 14.6367 3.83203C14.6666 4.19898 14.6669 4.65114 14.6669 5.2002V8.7998Z" />
</svg>
