<svg width="16" height="16" viewBox="0 0 16 16" fill="none" xmlns="http://www.w3.org/2000/svg">
<rect width="16" height="16" fill="#509FE4"/>
<path d="M4.27532 5.96007C4.64831 5.96007 4.95067 5.65771 4.95067 5.28472C4.95067 4.91174 4.64831 4.60938 4.27532 4.60938C3.90234 4.60938 3.59998 4.91174 3.59998 5.28472C3.59998 5.65771 3.90234 5.96007 4.27532 5.96007Z" fill="white"/>
<path d="M4.27532 7.86339C4.64831 7.86339 4.95067 7.56103 4.95067 7.18804C4.95067 6.81506 4.64831 6.5127 4.27532 6.5127C3.90234 6.5127 3.59998 6.81506 3.59998 7.18804C3.59998 7.56103 3.90234 7.86339 4.27532 7.86339Z" fill="white"/>
<path d="M6.13763 5.96007C6.51061 5.96007 6.81298 5.65771 6.81298 5.28472C6.81298 4.91174 6.51061 4.60938 6.13763 4.60938C5.76464 4.60938 5.46228 4.91174 5.46228 5.28472C5.46228 5.65771 5.76464 5.96007 6.13763 5.96007Z" fill="#88BCEC"/>
<path d="M6.13763 7.8839C6.51061 7.8839 6.81298 7.58154 6.81298 7.20855C6.81298 6.83557 6.51061 6.5332 6.13763 6.5332C5.76464 6.5332 5.46228 6.83557 5.46228 7.20855C5.46228 7.58154 5.76464 7.8839 6.13763 7.8839Z" fill="white"/>
<path d="M8.00005 5.96007C8.37304 5.96007 8.6754 5.65771 8.6754 5.28472C8.6754 4.91174 8.37304 4.60938 8.00005 4.60938C7.62707 4.60938 7.32471 4.91174 7.32471 5.28472C7.32471 5.65771 7.62707 5.96007 8.00005 5.96007Z" fill="#88BCEC"/>
<path d="M8.00005 3.79064C8.37304 3.79064 8.6754 3.48827 8.6754 3.11529C8.6754 2.7423 8.37304 2.43994 8.00005 2.43994C7.62707 2.43994 7.32471 2.7423 7.32471 3.11529C7.32471 3.48827 7.62707 3.79064 8.00005 3.79064Z" fill="#88BCEC"/>
<path d="M8.00005 7.8839C8.37304 7.8839 8.6754 7.58154 8.6754 7.20855C8.6754 6.83557 8.37304 6.5332 8.00005 6.5332C7.62707 6.5332 7.32471 6.83557 7.32471 7.20855C7.32471 7.58154 7.62707 7.8839 8.00005 7.8839Z" fill="#88BCEC"/>
<path d="M9.86236 5.96007C10.2353 5.96007 10.5377 5.65771 10.5377 5.28472C10.5377 4.91174 10.2353 4.60938 9.86236 4.60938C9.48938 4.60938 9.18701 4.91174 9.18701 5.28472C9.18701 5.65771 9.48938 5.96007 9.86236 5.96007Z" fill="#88BCEC"/>
<path d="M11.7247 5.96007C12.0976 5.96007 12.4 5.65771 12.4 5.28472C12.4 4.91174 12.0976 4.60938 11.7247 4.60938C11.3517 4.60938 11.0493 4.91174 11.0493 5.28472C11.0493 5.65771 11.3517 5.96007 11.7247 5.96007Z" fill="white"/>
<path d="M9.86236 7.8839C10.2353 7.8839 10.5377 7.58154 10.5377 7.20855C10.5377 6.83557 10.2353 6.5332 9.86236 6.5332C9.48938 6.5332 9.18701 6.83557 9.18701 7.20855C9.18701 7.58154 9.48938 7.8839 9.86236 7.8839Z" fill="white"/>
<path d="M11.7247 7.8839C12.0976 7.8839 12.4 7.58154 12.4 7.20855C12.4 6.83557 12.0976 6.5332 11.7247 6.5332C11.3517 6.5332 11.0493 6.83557 11.0493 7.20855C11.0493 7.58154 11.3517 7.8839 11.7247 7.8839Z" fill="white"/>
<path d="M4.27532 9.7462C4.64831 9.7462 4.95067 9.44384 4.95067 9.07086C4.95067 8.69787 4.64831 8.39551 4.27532 8.39551C3.90234 8.39551 3.59998 8.69787 3.59998 9.07086C3.59998 9.44384 3.90234 9.7462 4.27532 9.7462Z" fill="white"/>
<path d="M6.13763 9.76671C6.51061 9.76671 6.81298 9.46435 6.81298 9.09136C6.81298 8.71838 6.51061 8.41602 6.13763 8.41602C5.76464 8.41602 5.46228 8.71838 5.46228 9.09136C5.46228 9.46435 5.76464 9.76671 6.13763 9.76671Z" fill="#88BCEC"/>
<path d="M8.00005 9.76671C8.37304 9.76671 8.6754 9.46435 8.6754 9.09136C8.6754 8.71838 8.37304 8.41602 8.00005 8.41602C7.62707 8.41602 7.32471 8.71838 7.32471 9.09136C7.32471 9.46435 7.62707 9.76671 8.00005 9.76671Z" fill="white"/>
<path d="M9.86236 9.76671C10.2353 9.76671 10.5377 9.46435 10.5377 9.09136C10.5377 8.71838 10.2353 8.41602 9.86236 8.41602C9.48938 8.41602 9.18701 8.71838 9.18701 9.09136C9.18701 9.46435 9.48938 9.76671 9.86236 9.76671Z" fill="#88BCEC"/>
<path d="M11.7247 9.76671C12.0976 9.76671 12.4 9.46435 12.4 9.09136C12.4 8.71838 12.0976 8.41602 11.7247 8.41602C11.3517 8.41602 11.0493 8.71838 11.0493 9.09136C11.0493 9.46435 11.3517 9.76671 11.7247 9.76671Z" fill="white"/>
<path d="M4.27532 11.6495C4.64831 11.6495 4.95067 11.3472 4.95067 10.9742C4.95067 10.6012 4.64831 10.2988 4.27532 10.2988C3.90234 10.2988 3.59998 10.6012 3.59998 10.9742C3.59998 11.3472 3.90234 11.6495 4.27532 11.6495Z" fill="white"/>
<path d="M6.13763 11.6695C6.51061 11.6695 6.81298 11.3672 6.81298 10.9942C6.81298 10.6212 6.51061 10.3188 6.13763 10.3188C5.76464 10.3188 5.46228 10.6212 5.46228 10.9942C5.46228 11.3672 5.76464 11.6695 6.13763 11.6695Z" fill="#88BCEC"/>
<path d="M8.00005 11.6695C8.37304 11.6695 8.6754 11.3672 8.6754 10.9942C8.6754 10.6212 8.37304 10.3188 8.00005 10.3188C7.62707 10.3188 7.32471 10.6212 7.32471 10.9942C7.32471 11.3672 7.62707 11.6695 8.00005 11.6695Z" fill="#88BCEC"/>
<path d="M8.00005 13.5729C8.37304 13.5729 8.6754 13.2705 8.6754 12.8975C8.6754 12.5245 8.37304 12.2222 8.00005 12.2222C7.62707 12.2222 7.32471 12.5245 7.32471 12.8975C7.32471 13.2705 7.62707 13.5729 8.00005 13.5729Z" fill="#88BCEC"/>
<path d="M9.86236 11.6695C10.2353 11.6695 10.5377 11.3672 10.5377 10.9942C10.5377 10.6212 10.2353 10.3188 9.86236 10.3188C9.48938 10.3188 9.18701 10.6212 9.18701 10.9942C9.18701 11.3672 9.48938 11.6695 9.86236 11.6695Z" fill="#88BCEC"/>
<path d="M11.7247 11.6695C12.0976 11.6695 12.4 11.3672 12.4 10.9942C12.4 10.6212 12.0976 10.3188 11.7247 10.3188C11.3517 10.3188 11.0493 10.6212 11.0493 10.9942C11.0493 11.3672 11.3517 11.6695 11.7247 11.6695Z" fill="white"/>
</svg>
