<svg width="24" height="24" viewBox="0 0 24 24" fill="none" xmlns="http://www.w3.org/2000/svg">

<path d="M5.04252 7.83505C5.75637 7.83505 6.33505 7.25637 6.33505 6.54252C6.33505 5.82868 5.75637 5.25 5.04252 5.25C4.32868 5.25 3.75 5.82868 3.75 6.54252C3.75 7.25637 4.32868 7.83505 5.04252 7.83505Z" fill="#227DE1"/>
<path d="M5.04252 11.3727C5.75637 11.3727 6.33505 10.7941 6.33505 10.0802C6.33505 9.36637 5.75637 8.78769 5.04252 8.78769C4.32868 8.78769 3.75 9.36637 3.75 10.0802C3.75 10.7941 4.32868 11.3727 5.04252 11.3727Z" fill="#227DE1"/>
<path d="M5.04252 14.8533C5.75637 14.8533 6.33505 14.2746 6.33505 13.5608C6.33505 12.8469 5.75637 12.2682 5.04252 12.2682C4.32868 12.2682 3.75 12.8469 3.75 13.5608C3.75 14.2746 4.32868 14.8533 5.04252 14.8533Z" fill="#227DE1"/>
<path d="M5.04252 18.3229C5.75637 18.3229 6.33505 17.7443 6.33505 17.0304C6.33505 16.3166 5.75637 15.7379 5.04252 15.7379C4.32868 15.7379 3.75 16.3166 3.75 17.0304C3.75 17.7443 4.32868 18.3229 5.04252 18.3229Z" fill="#227DE1"/>
<path d="M8.51188 11.3727C9.22573 11.3727 9.80441 10.7941 9.80441 10.0802C9.80441 9.36637 9.22573 8.78769 8.51188 8.78769C7.79804 8.78769 7.21936 9.36637 7.21936 10.0802C7.21936 10.7941 7.79804 11.3727 8.51188 11.3727Z" fill="#227DE1"/>
<path d="M11.97 14.8533C12.6839 14.8533 13.2625 14.2746 13.2625 13.5608C13.2625 12.8469 12.6839 12.2682 11.97 12.2682C11.2562 12.2682 10.6775 12.8469 10.6775 13.5608C10.6775 14.2746 11.2562 14.8533 11.97 14.8533Z" fill="#227DE1"/>
<path d="M18.8974 7.8352C19.6113 7.8352 20.19 7.25652 20.19 6.54268C20.19 5.82884 19.6113 5.25015 18.8974 5.25015C18.1836 5.25015 17.6049 5.82884 17.6049 6.54268C17.6049 7.25652 18.1836 7.8352 18.8974 7.8352Z" fill="#227DE1"/>
<path d="M18.8974 11.3727C19.6113 11.3727 20.19 10.7941 20.19 10.0802C20.19 9.36637 19.6113 8.78769 18.8974 8.78769C18.1836 8.78769 17.6049 9.36637 17.6049 10.0802C17.6049 10.7941 18.1836 11.3727 18.8974 11.3727Z" fill="#227DE1"/>
<path d="M18.8974 14.8533C19.6113 14.8533 20.19 14.2746 20.19 13.5608C20.19 12.8469 19.6113 12.2682 18.8974 12.2682C18.1836 12.2682 17.6049 12.8469 17.6049 13.5608C17.6049 14.2746 18.1836 14.8533 18.8974 14.8533Z" fill="#227DE1"/>
<path d="M18.8974 18.3229C19.6113 18.3229 20.19 17.7443 20.19 17.0304C20.19 16.3166 19.6113 15.7379 18.8974 15.7379C18.1836 15.7379 17.6049 16.3166 17.6049 17.0304C17.6049 17.7443 18.1836 18.3229 18.8974 18.3229Z" fill="#227DE1"/>
<path d="M15.4281 11.3727C16.142 11.3727 16.7206 10.7941 16.7206 10.0802C16.7206 9.36637 16.142 8.78769 15.4281 8.78769C14.7143 8.78769 14.1356 9.36637 14.1356 10.0802C14.1356 10.7941 14.7143 11.3727 15.4281 11.3727Z" fill="#227DE1"/>
<path d="M12.2051 3.94899C12.8813 3.94899 13.4296 3.40077 13.4296 2.7245C13.4296 2.04823 12.8813 1.5 12.2051 1.5C11.5288 1.5 10.9806 2.04823 10.9806 2.7245C10.9806 3.40077 11.5288 3.94899 12.2051 3.94899Z" fill="#AAD4FF"/>
<path d="M12.1823 7.91719C12.8586 7.91719 13.4068 7.36897 13.4068 6.6927C13.4068 6.01643 12.8586 5.4682 12.1823 5.4682C11.5061 5.4682 10.9578 6.01643 10.9578 6.6927C10.9578 7.36897 11.5061 7.91719 12.1823 7.91719Z" fill="#AAD4FF"/>
<path d="M12.1823 11.4547C12.8586 11.4547 13.4068 10.9065 13.4068 10.2302C13.4068 9.55396 12.8586 9.00574 12.1823 9.00574C11.5061 9.00574 10.9578 9.55396 10.9578 10.2302C10.9578 10.9065 11.5061 11.4547 12.1823 11.4547Z" fill="#AAD4FF"/>
<path d="M8.7245 7.91719C9.40077 7.91719 9.94899 7.36897 9.94899 6.6927C9.94899 6.01643 9.40077 5.4682 8.7245 5.4682C8.04823 5.4682 7.5 6.01643 7.5 6.6927C7.5 7.36897 8.04823 7.91719 8.7245 7.91719Z" fill="#AAD4FF"/>
<path d="M15.6405 7.91719C16.3167 7.91719 16.8649 7.36897 16.8649 6.6927C16.8649 6.01643 16.3167 5.4682 15.6405 5.4682C14.9642 5.4682 14.416 6.01643 14.416 6.6927C14.416 7.36897 14.9642 7.91719 15.6405 7.91719Z" fill="#AAD4FF"/>
<path d="M12.1823 18.4049C12.8586 18.4049 13.4068 17.8567 13.4068 17.1804C13.4068 16.5042 12.8586 15.9559 12.1823 15.9559C11.5061 15.9559 10.9578 16.5042 10.9578 17.1804C10.9578 17.8567 11.5061 18.4049 12.1823 18.4049Z" fill="#AAD4FF"/>
<path d="M12.1823 21.9082C12.8586 21.9082 13.4068 21.36 13.4068 20.6837C13.4068 20.0075 12.8586 19.4592 12.1823 19.4592C11.5061 19.4592 10.9578 20.0075 10.9578 20.6837C10.9578 21.36 11.5061 21.9082 12.1823 21.9082Z" fill="#AAD4FF"/>
<path d="M8.7245 18.4049C9.40077 18.4049 9.94899 17.8567 9.94899 17.1804C9.94899 16.5042 9.40077 15.9559 8.7245 15.9559C8.04823 15.9559 7.5 16.5042 7.5 17.1804C7.5 17.8567 8.04823 18.4049 8.7245 18.4049Z" fill="#AAD4FF"/>
<path d="M15.6405 18.4049C16.3167 18.4049 16.8649 17.8567 16.8649 17.1804C16.8649 16.5042 16.3167 15.9559 15.6405 15.9559C14.9642 15.9559 14.416 16.5042 14.416 17.1804C14.416 17.8567 14.9642 18.4049 15.6405 18.4049Z" fill="#AAD4FF"/>
<path d="M8.7245 14.9353C9.40077 14.9353 9.94899 14.3871 9.94899 13.7108C9.94899 13.0345 9.40077 12.4863 8.7245 12.4863C8.04823 12.4863 7.5 13.0345 7.5 13.7108C7.5 14.3871 8.04823 14.9353 8.7245 14.9353Z" fill="#AAD4FF"/>
<path d="M15.6405 14.9353C16.3167 14.9353 16.8649 14.3871 16.8649 13.7108C16.8649 13.0345 16.3167 12.4863 15.6405 12.4863C14.9642 12.4863 14.416 13.0345 14.416 13.7108C14.416 14.3871 14.9642 14.9353 15.6405 14.9353Z" fill="#AAD4FF"/>
</svg>
