<svg width="16" height="16" viewBox="0 0 16 16" xmlns="http://www.w3.org/2000/svg">
<path fill-rule="evenodd" clip-rule="evenodd" d="M13.5263 1H2.47368C1.66316 1 1 1.7 1 2.55556V13.4444C1 14.3 1.66316 15 2.47368 15H13.5263C14.3368 15 15 14.3 15 13.4444V2.55556C15 1.7 14.3368 1 13.5263 1ZM13.6 2.4V13.6H2.4V2.4H13.6ZM5.52616 9.07949V11.2333H4.26672V4.7H5.90599L8.00505 8.50364L10.0991 4.7H11.7334V11.2333H10.474V9.07949L10.5989 6.19872L8.44986 10.0293H7.54526L5.40122 6.20321L5.52616 9.07949Z" />
</svg>
