<svg width="20" height="20" viewBox="0 0 20 20"  xmlns="http://www.w3.org/2000/svg">
    <path fill-rule="evenodd" clip-rule="evenodd"
        d="M10 2C5.584 2 2 5.584 2 10C2 14.416 5.584 18 10 18C14.416 18 18 14.416 18 10C18 5.584 14.416 2 10 2ZM9.2 16.344C6.04 15.952 3.6 13.264 3.6 10C3.6 9.504 3.664 9.032 3.768 8.568L7.6 12.4V13.2C7.6 14.08 8.32 14.8 9.2 14.8V16.344ZM13.2 13.2C13.92 13.2 14.512 13.664 14.72 14.312C15.76 13.176 16.4 11.664 16.4 10C16.4 7.32 14.744 5.024 12.4 4.072V4.4C12.4 5.28 11.68 6 10.8 6H9.2V7.6C9.2 8.04 8.84 8.4 8.4 8.4H6.8V10H11.6C12.04 10 12.4 10.36 12.4 10.8V13.2H13.2Z"
        />
</svg>
