<svg width="24" height="24" viewBox="0 0 24 24" fill="none" xmlns="http://www.w3.org/2000/svg">

<path d="M19.5412 10.056H20.2301C20.4343 10.056 20.6301 9.96967 20.7745 9.81609C20.9189 9.66252 21 9.45422 21 9.23702V2.81893C21 2.71139 20.9801 2.6049 20.9414 2.50554C20.9027 2.40618 20.846 2.3159 20.7745 2.23986C20.703 2.16381 20.6181 2.10349 20.5247 2.06234C20.4313 2.02118 20.3312 2 20.2301 2H16.4538C16.3842 2.00009 16.316 2.02049 16.2566 2.05896C16.1972 2.09744 16.1489 2.15252 16.1169 2.2182C15.6015 3.26611 13.3715 7.81737 12.7383 9.10503C12.7257 9.13105 12.7067 9.15288 12.6832 9.16813C12.6598 9.18337 12.6328 9.19144 12.6053 9.19144C12.5778 9.19144 12.5509 9.18337 12.5274 9.16813C12.5039 9.15288 12.4849 9.13105 12.4724 9.10503C11.8886 7.91569 9.63698 3.28227 9.12031 2.21955C9.08832 2.15387 9.03999 2.09879 8.98059 2.06031C8.92119 2.02184 8.853 2.00144 8.78346 2.00135H3.77248C3.56838 2.0017 3.37274 2.0881 3.22842 2.2416C3.0841 2.3951 3.00287 2.60319 3.00254 2.82028V5.78351C3.00287 6.00047 3.08414 6.20842 3.2285 6.36171C3.37285 6.515 3.5685 6.60109 3.77248 6.60109H4.21064L4.2271 6.58897C4.97172 6.60109 5.15028 6.78427 5.15281 7.5628C5.15281 8.69691 5.15281 9.83102 5.15281 10.9665C5.15281 12.4036 5.15281 12.409 3.78641 12.4777C3.28873 12.5033 2.99874 12.7054 3 13.2859C3.0076 15.6205 3.0076 17.9552 3 20.2899C3 20.3303 3 20.3694 3 20.4084C3.01092 20.5692 3.07885 20.7196 3.19006 20.8291C3.30126 20.9386 3.44743 20.9991 3.59899 20.9984H8.8721C9.02627 20.998 9.17406 20.9328 9.28319 20.817C9.39233 20.7012 9.45396 20.5441 9.45463 20.3801V20.3707C9.45463 19.215 9.45463 18.0589 9.45463 16.9024C9.45463 16.4417 9.21782 16.2114 8.79232 16.1858C8.68721 16.1858 8.58211 16.1858 8.477 16.1858C7.38666 16.1858 7.31448 16.0996 7.31448 14.9184V9.11041C8.54411 11.4217 9.64838 13.7411 10.7577 16.0578C10.8767 16.3084 10.954 16.6384 11.2883 16.6532C11.6226 16.668 11.7138 16.334 11.8379 16.0875C12.694 14.3796 13.5424 12.6676 14.3959 10.9597C14.7759 10.2109 15.1558 9.466 15.5357 8.71846C15.6623 10.6473 15.6623 12.5303 15.6623 14.4119C15.6686 16.2491 15.7522 16.2127 13.9743 16.1858H13.8476C13.2664 16.1575 13.0004 16.4552 13.0068 17.0667C13.0194 18.1119 13.0068 19.1571 13.0068 20.2023C13.0068 20.2697 13.0068 20.337 13.0068 20.4044C13.0164 20.5654 13.0833 20.7165 13.1938 20.8271C13.3043 20.9376 13.4502 20.9994 13.6019 20.9997C14.7239 20.9997 19.2106 20.9997 20.3808 20.9997C20.4589 21.0022 20.5367 20.9883 20.6098 20.9586C20.6829 20.929 20.7497 20.8843 20.8064 20.8271C20.8631 20.7699 20.9087 20.7013 20.9404 20.6253C20.9721 20.5492 20.9893 20.4673 20.9911 20.3842V20.3842C20.9911 19.2272 20.9987 18.0702 20.9911 16.9131C20.9911 16.4229 20.7214 16.1912 20.2655 16.1912C20.0338 16.1912 19.802 16.1912 19.5703 16.1912C19.0726 16.1912 18.8282 15.9218 18.8257 15.4127C18.8189 13.8772 18.8189 12.3421 18.8257 10.8075C18.8282 10.3132 19.0903 10.0721 19.5412 10.056Z" fill="#043F2E"/>
</svg>
