<svg width="20" height="20" viewBox="0 0 20 20"  xmlns="http://www.w3.org/2000/svg">
        <path fill-rule="evenodd" clip-rule="evenodd"
            d="M11 1.5C8.4 1.5 6.1 2.8 4.8 4.8C2.8 6.1 1.5 8.4 1.5 11C1.5 15.1 4.9 18.5 9 18.5C11.6 18.5 13.9 17.2 15.2 15.2C17.2 13.9 18.5 11.6 18.5 9C18.5 4.9 15.1 1.5 11 1.5ZM8.3 16.9C5.3 16.5 3.1 14 3.1 11C3.1 10.5 3.2 10.1 3.3 9.7L6.9 13.3V14.1C6.9 14.9 7.6 15.6 8.4 15.6V16.9H8.3ZM13.4 15C13.2 14.4 12.6 14 12 14H11.3V11.8C11.3 11.4 11 11 10.5 11H6V9.5H7.5C7.9 9.5 8.3 9.2 8.3 8.7V7.3H9.8C10.6 7.3 11.3 6.6 11.3 5.8V5.4C13.5 6.3 15.1 8.4 15.1 11C15 12.6 14.4 14 13.4 15Z"
             />

</svg>
