<svg width="24" height="24" viewBox="0 0 24 24" fill="none" xmlns="http://www.w3.org/2000/svg">
<g clip-path="url(#clip0_59_98)">
<path fill-rule="evenodd" clip-rule="evenodd" d="M6.67632 7.98691C6.35425 8.91862 6.12227 9.8698 6.04602 10.8557C5.9513 12.0788 5.99465 13.2932 6.25251 14.4962C6.25953 14.5294 6.27438 14.5605 6.28542 14.5926C6.36629 14.5928 6.44876 14.5827 6.52783 14.595C7.19586 14.6999 7.86329 14.8087 8.53072 14.9169C9.22062 15.0286 9.91153 15.136 10.6002 15.2554C10.8442 15.2975 11.1463 15.2472 11.2448 15.5847C11.2476 15.5939 11.2757 15.5955 11.2919 15.6007L11.2586 13.5838L11.2925 8.71715L10.9711 8.66196C10.4453 8.57587 9.91956 8.48858 9.3934 8.4049C8.7655 8.30517 8.137 8.20825 7.5087 8.11092C7.23158 8.06778 6.95405 8.02825 6.67632 7.98691Z" fill="#439934"/>
<path fill-rule="evenodd" clip-rule="evenodd" d="M11.9558 21.4805C12.2949 21.1889 12.6459 20.9102 12.9709 20.6036C14.7202 18.9537 15.9997 17.0118 16.6298 14.6705C16.8033 14.0262 16.9191 13.3714 16.9563 12.7056C16.9823 12.2396 17.0201 11.7695 16.9872 11.3059C16.8995 10.073 16.7213 8.85192 16.3597 7.66435L16.3398 7.63666C16.3047 7.68341 16.2541 7.72475 16.2363 7.77753C15.8833 8.817 15.5329 9.85727 15.1843 10.8981C14.0891 14.1691 12.9952 17.4408 11.8982 20.7109C11.8767 20.7747 11.8211 20.8271 11.7812 20.8847L11.9558 21.4805Z" fill="#45A538"/>
<path fill-rule="evenodd" clip-rule="evenodd" d="M6.67688 7.98691C6.95461 8.02825 7.23234 8.06778 7.50946 8.11052C8.13776 8.20785 8.76626 8.30477 9.39416 8.4045C9.92031 8.48818 10.4461 8.57547 10.9718 8.66156L11.2933 8.71675L11.2957 8.50705C11.3063 8.33467 11.3246 8.1625 11.3266 7.99012C11.3405 6.89085 11.3491 5.79158 11.3627 4.69231C11.3712 4.00421 11.3838 3.31631 11.3978 2.62841C11.4065 2.20099 11.4157 1.77336 11.435 1.34653C11.4454 1.11717 11.4823 0.889004 11.4974 0.659638C11.5058 0.527798 11.4942 0.394955 11.4916 0.262512C11.3276 0.580173 11.1673 0.900242 10.9987 1.21549C10.7324 1.71396 10.3082 2.08119 9.92633 2.48192C8.41669 4.06561 7.34491 5.90696 6.67688 7.98691Z" fill="#46A037"/>
<path fill-rule="evenodd" clip-rule="evenodd" d="M11.292 15.6004C11.2758 15.5952 11.2475 15.5936 11.2449 15.5844C11.1463 15.2468 10.8443 15.2972 10.6003 15.2551C9.91161 15.1359 9.22071 15.0283 8.5308 14.9165C7.86337 14.8084 7.19594 14.6996 6.52791 14.5946C6.44885 14.5822 6.36637 14.5924 6.2855 14.5922C6.41032 15.0377 6.50865 15.4928 6.66698 15.9261C6.84678 16.4175 7.0643 16.8971 7.29528 17.3673C7.64106 18.0686 8.06902 18.7263 8.57013 19.3265C8.95522 19.7896 9.38445 20.2176 9.81469 20.6404C10.0525 20.8742 10.3328 21.0647 10.5937 21.2748L10.6613 21.2286L10.9049 21.0203L11.157 20.4679C11.3291 19.8234 11.4231 19.1606 11.4367 18.4937L11.4321 18.3811L11.3978 17.8943C11.3863 17.7281 11.3711 17.5622 11.3641 17.3956C11.3382 16.7972 11.3157 16.1988 11.292 15.6004Z" fill="#409433"/>
<path fill-rule="evenodd" clip-rule="evenodd" d="M11.2929 15.6003C11.3166 16.1987 11.3391 16.7971 11.3646 17.3957C11.3716 17.5623 11.3868 17.7282 11.3983 17.8944L11.5518 17.9524C11.8927 16.9486 12.2339 15.9555 12.5676 14.9598C13.1194 13.3125 13.6646 11.6626 14.2157 10.0149C14.6608 8.68492 15.1089 7.35601 15.5602 6.02816C15.5812 5.96595 15.6418 5.91739 15.684 5.8624L14.7015 4.05597C14.6678 4.11456 14.6232 4.16935 14.602 4.23236C14.1469 5.57727 13.6942 6.92297 13.2438 8.26944C12.6587 10.0213 12.0771 11.7745 11.4924 13.5266C11.4691 13.5966 11.4306 13.6612 11.3939 13.7397L11.2594 13.5832L11.2929 15.6003Z" fill="#4FAA41"/>
<path fill-rule="evenodd" clip-rule="evenodd" d="M15.6832 5.86292C15.641 5.9179 15.5806 5.96646 15.5594 6.02867C15.1081 7.35653 14.66 8.68543 14.2149 10.0154C13.6638 11.6631 13.1186 13.313 12.5668 14.9603C12.2333 15.9558 11.8921 16.9491 11.551 17.9529L11.3975 17.8949L11.4318 18.3817L11.4629 18.4939C11.5163 19.0269 11.5612 19.5611 11.6262 20.0928C11.6589 20.3593 11.7284 20.621 11.7812 20.8849C11.8209 20.8273 11.8767 20.7749 11.8981 20.7111C12.9952 17.4408 14.0891 14.1693 15.1843 10.8983C15.5328 9.85739 15.8834 8.81718 16.2362 7.77771C16.2541 7.72493 16.3045 7.6836 16.3398 7.63684L15.6832 5.86292Z" fill="#4AA73C"/>
<path fill-rule="evenodd" clip-rule="evenodd" d="M11.2591 13.5833L11.3936 13.7398C11.4303 13.6613 11.4688 13.5965 11.4921 13.5267C12.0767 11.7746 12.6584 10.0214 13.2436 8.26951C13.694 6.92304 14.1467 5.57734 14.6017 4.23243C14.6228 4.16942 14.6673 4.11444 14.7012 4.05604L13.4862 2.4577C13.4478 2.50887 13.3933 2.55443 13.3734 2.61202C13.0361 3.59952 12.7018 4.58822 12.3694 5.57752C12.059 6.50141 11.7532 7.4267 11.4391 8.34938C11.4181 8.41119 11.3448 8.45493 11.2959 8.50711L11.2935 8.71681C11.2818 10.3386 11.2704 11.961 11.2591 13.5833Z" fill="#57AE47"/>
<path fill-rule="evenodd" clip-rule="evenodd" d="M11.2953 8.50681C11.3442 8.45464 11.4175 8.41089 11.4386 8.34908C11.7526 7.4264 12.0584 6.50111 12.3689 5.57723C12.7012 4.58792 13.0355 3.59942 13.3728 2.61172C13.3927 2.55413 13.4473 2.50858 13.4856 2.45741C13.0905 2.07051 12.7076 1.66978 12.2966 1.30074C11.9312 0.972849 11.6374 0.621275 11.624 0.103144C11.6234 0.0816727 11.6121 0.0602011 11.5949 0L11.4907 0.262075C11.4933 0.394718 11.5052 0.527361 11.4966 0.659201C11.4815 0.888567 11.4446 1.11673 11.4341 1.3461C11.4149 1.77292 11.4056 2.20055 11.397 2.62798C11.3832 3.31587 11.3705 4.00377 11.3619 4.69187C11.3485 5.79114 11.3396 6.89041 11.3258 7.98968C11.3242 8.16246 11.3061 8.33443 11.2953 8.50681Z" fill="#60B24F"/>
<path fill-rule="evenodd" clip-rule="evenodd" d="M11.7817 20.8847C11.729 20.6208 11.6595 20.3589 11.6268 20.0926C11.5616 19.561 11.5169 19.0267 11.4635 18.4937L11.4502 18.4917L11.437 18.4939C11.4233 19.1608 11.3294 19.8236 11.1573 20.4681C11.1926 20.5146 11.2425 20.5562 11.2612 20.6087C11.4071 21.0201 11.5446 21.4347 11.6912 21.8461C11.7113 21.9023 11.7671 21.946 11.8064 21.9954L11.9563 21.4805L11.7817 20.8847Z" fill="#A9AA88"/>
<path fill-rule="evenodd" clip-rule="evenodd" d="M11.8058 21.9952C11.7665 21.9458 11.7105 21.9021 11.6906 21.8459C11.5439 21.4345 11.4063 21.0201 11.2606 20.6085C11.2419 20.556 11.1922 20.5144 11.1566 20.4679L10.9048 21.0205C10.9546 21.0911 11.0232 21.1548 11.0509 21.2334L11.5333 22.65C11.5532 22.7067 11.621 22.7469 11.6664 22.7948L11.8058 21.9952Z" fill="#B6B598"/>
<path fill-rule="evenodd" clip-rule="evenodd" d="M11.667 22.795C11.6214 22.7472 11.5538 22.7069 11.5339 22.6501L11.0515 21.2336C11.024 21.1551 10.9552 21.0913 10.9054 21.0207L10.6616 21.2288C10.7794 21.3451 10.8448 21.4796 10.8055 21.6496L10.8796 21.892C10.9133 21.9335 10.962 21.9696 10.9787 22.0172C11.1471 22.4994 11.3078 22.9842 11.4774 23.4664C11.4988 23.5276 11.5584 23.5756 11.6006 23.6294C11.6224 23.351 11.6447 23.0733 11.667 22.795Z" fill="#C2C1A7"/>
<path fill-rule="evenodd" clip-rule="evenodd" d="M11.6005 23.6292C11.5585 23.5753 11.4989 23.5273 11.4773 23.4663C11.3077 22.9843 11.147 22.4995 10.9786 22.0171C10.962 21.9697 10.9134 21.9334 10.8795 21.8918L10.9816 23.0046C11.0089 23.0361 11.0484 23.0636 11.0615 23.1003C11.1769 23.4242 11.2856 23.7505 11.4014 24.0743C11.4253 24.1412 11.4711 24.2002 11.5068 24.2626C11.5385 24.221 11.5953 24.1809 11.5979 24.1375C11.6081 23.9688 11.6011 23.7988 11.6005 23.6292Z" fill="#CECDB7"/>
<path fill-rule="evenodd" clip-rule="evenodd" d="M11.5067 24.2625C11.4709 24.1999 11.4252 24.1409 11.4013 24.0743C11.2853 23.7506 11.1768 23.4243 11.0614 23.1002C11.0483 23.0635 11.0086 23.0362 10.9815 23.0045L10.9791 23.735L11.2235 24.3618L11.5067 24.2625Z" fill="#DBDAC7"/>
<path fill-rule="evenodd" clip-rule="evenodd" d="M11.2236 24.362L10.9792 23.7351L10.9288 24.4768L11.2236 24.362Z" fill="#EBE9DC"/>
<path fill-rule="evenodd" clip-rule="evenodd" d="M10.8054 21.6497C10.8447 21.4798 10.7795 21.3451 10.6615 21.2289L10.5939 21.2751L10.8054 21.6497Z" fill="#CECDB7"/>
<path fill-rule="evenodd" clip-rule="evenodd" d="M11.4371 18.4938L11.4504 18.4916L11.4636 18.4936L11.4325 18.3815L11.4371 18.4938Z" fill="#4FAA41"/>
</g>
<defs>
<clipPath id="clip0_59_98">
<rect width="24" height="24" fill="white"/>
</clipPath>
</defs>
</svg>
