<svg width="16" height="16" viewBox="0 0 16 16"  xmlns="http://www.w3.org/2000/svg">
<path fill-rule="evenodd" clip-rule="evenodd" d="M9.86999 1H6.11999C5.74419 1.00262 5.38453 1.15307 5.11879 1.4188C5.03662 1.50097 4.96548 1.59211 4.90632 1.68994H2.4199C2.04329 1.68994 1.68211 1.83955 1.41581 2.10585C1.1495 2.37215 0.999898 2.73333 0.999898 3.10994V13.5699C0.997231 13.7576 1.03206 13.944 1.10236 14.118C1.17265 14.292 1.27698 14.4503 1.40924 14.5835C1.5415 14.7167 1.69903 14.8221 1.87257 14.8936C2.04612 14.9652 2.2322 15.0013 2.4199 14.9999H13.5899C13.7768 15 13.9618 14.9628 14.1341 14.8907C14.3065 14.8186 14.4629 14.713 14.5941 14.5799C14.7253 14.4469 14.8287 14.2891 14.8984 14.1157C14.968 13.9423 15.0025 13.7568 14.9999 13.5699V3.10994C14.9973 2.73414 14.8468 2.37448 14.5811 2.10874C14.3154 1.84301 13.9557 1.69256 13.5799 1.68994H11.0936C11.0341 1.59157 10.9628 1.5005 10.8811 1.41884C10.7484 1.28605 10.5907 1.18072 10.4172 1.10885C10.2437 1.03699 10.0578 1 9.86999 1ZM2.3999 3.09994H4.69999V3.79C4.69866 3.97685 4.73448 4.1621 4.80537 4.33498C4.87626 4.50786 4.98081 4.66493 5.11293 4.79706C5.24506 4.92918 5.40212 5.03373 5.57501 5.10462C5.74789 5.17551 5.93314 5.21133 6.11999 5.21H9.87999C10.0668 5.21133 10.2521 5.17551 10.425 5.10462C10.5978 5.03373 10.7549 4.92918 10.887 4.79706C11.0192 4.66493 11.1237 4.50786 11.1946 4.33498C11.2655 4.1621 11.3013 3.97685 11.3 3.79V3.09994H13.6099V13.5999H2.3999V3.09994ZM9.86999 3.8H6.09999V2.41H9.89999L9.86999 3.8ZM4.5 9.26989L7.05 11.8199L11.5 7.37989L10.51 6.38989L7.05 9.84989L5.49 8.27989L4.5 9.26989Z" />
</svg>
