<svg width="18" height="18" viewBox="0 0 18 18" fill="none"
  xmlns="http://www.w3.org/2000/svg">
  <path d="M17.75 0.25H0.25V17.75H17.75V0.25Z" fill="#268BF0"/>
  <path d="M9.40761 6.14547V11.7962H8.48075V7.10796L6.75061 11.7962H5.82375L4.09361 7.10796V11.7962H3.16675V6.14547H4.74241L6.28718 10.368L7.83194 6.14547H9.40761ZM15.4631 10.7095C14.9688 11.4547 14.1346 11.9515 13.2077 11.9515C11.6939 11.9515 10.458 10.6474 10.458 9.03294C10.458 7.41844 11.6939 6.08337 13.2077 6.08337C14.1346 6.08337 14.9379 6.54909 15.4322 7.29425L14.6598 7.85311C14.32 7.38739 13.7947 7.04586 13.1768 7.04586C12.1573 7.04586 11.354 7.91521 11.354 9.00189C11.354 10.0886 12.1882 10.9579 13.1768 10.9579C13.7947 10.9579 14.32 10.6474 14.6598 10.1507C14.6907 10.1507 15.4631 10.7095 15.4631 10.7095Z" fill="white"/>
</svg>
