<svg width="24" height="24" viewBox="0 0 24 24" fill="none" xmlns="http://www.w3.org/2000/svg">
<path d="M14.6274 11.2192L10.2435 12.6507L6.42963 14.334L5.36263 14.6157C5.09089 14.8742 4.80595 15.1359 4.49779 15.4011C4.15981 15.6926 3.84502 15.9578 3.60309 16.1499C3.33471 16.362 2.93707 16.7597 2.73496 17.0114C2.43342 17.3892 2.19484 17.79 2.09212 18.0983C1.90986 18.6549 1.99936 19.2183 2.35059 19.7385C2.80123 20.4012 3.69924 21.0771 4.7463 21.5378C5.27982 21.7731 6.17778 22.0746 6.85372 22.2435C7.977 22.5285 10.1507 22.8368 11.3469 22.8831C11.5888 22.893 11.9135 22.893 11.9268 22.8831C11.9533 22.8665 12.1389 22.512 12.3543 22.0713C13.0899 20.5703 13.62 19.1619 13.9083 17.9591C14.0806 17.2302 14.2164 16.2593 14.3059 15.1095C14.3291 14.7881 14.339 13.7112 14.3191 13.3466C14.2893 12.7502 14.2363 12.2664 14.1535 11.7926C14.1402 11.723 14.1369 11.66 14.1435 11.6567C14.1568 11.6468 14.1965 11.6336 14.7366 11.4778L14.6274 11.2192ZM13.6267 11.8058C13.6665 11.8058 13.7725 12.823 13.799 13.4659C13.8056 13.6017 13.8023 13.6912 13.7957 13.6912C13.7692 13.6912 13.2357 13.3765 12.8547 13.1379C12.5233 12.9291 11.8937 12.5116 11.7943 12.4321C11.7611 12.4089 11.7644 12.4056 12.0362 12.3128C12.4967 12.157 13.5903 11.8058 13.6267 11.8058ZM11.3934 12.5414C11.4232 12.5414 11.4993 12.5844 11.6816 12.6971C12.3642 13.1246 13.292 13.6415 13.6896 13.8138C13.8122 13.8669 13.8254 13.847 13.5438 14.0392C12.9408 14.45 12.1885 14.8543 11.2674 15.2619C11.105 15.3348 10.9692 15.3911 10.9659 15.3911C10.9593 15.3911 10.9791 15.3083 11.0056 15.2088C11.2276 14.3837 11.3535 13.5487 11.3602 12.8794C11.3635 12.548 11.3635 12.548 11.3934 12.5381C11.3867 12.5414 11.39 12.5414 11.3934 12.5414ZM10.9328 12.717C10.9526 12.7369 10.9394 13.4791 10.9129 13.6812C10.8532 14.1651 10.7604 14.6157 10.6081 15.1227C10.5716 15.2453 10.5384 15.348 10.5319 15.3546C10.5185 15.3711 10.0646 14.9271 9.91546 14.7549C9.65698 14.4566 9.45492 14.1584 9.30579 13.8668C9.22957 13.7177 9.11031 13.4261 9.12022 13.4162C9.17323 13.3797 10.9195 12.7038 10.9328 12.717ZM8.76565 13.5686C8.76895 13.5686 8.77225 13.5686 8.77561 13.5719C8.78221 13.5785 8.80546 13.6316 8.82534 13.6912C8.93134 13.9795 9.16987 14.4036 9.37537 14.6753C9.6007 14.9736 9.89563 15.2916 10.1408 15.5004C10.2203 15.5667 10.2932 15.6296 10.3031 15.6396C10.323 15.6594 10.3297 15.6561 9.78952 15.8616C9.16332 16.1001 8.48068 16.3388 7.69866 16.5906C7.51185 16.6508 7.32522 16.7115 7.13875 16.7729C7.10887 16.7828 7.11883 16.7661 7.20499 16.6304C7.59265 16.0239 8.18245 14.8344 8.51383 13.9927C8.57017 13.8469 8.6265 13.7012 8.63646 13.668C8.64972 13.6216 8.66626 13.605 8.70931 13.5818C8.73252 13.5753 8.75574 13.5686 8.76565 13.5686ZM8.103 13.8436C8.11291 13.8503 7.94392 14.2048 7.77823 14.5295C7.4568 15.1559 7.10557 15.7722 6.63505 16.521C6.55554 16.6502 6.47935 16.7696 6.46939 16.7828C6.45283 16.806 6.44617 16.7994 6.39316 16.6967C6.28051 16.4747 6.18769 16.1897 6.13801 15.9279C6.08829 15.6693 6.09825 15.2187 6.1546 14.9404C6.19762 14.735 6.19435 14.7383 6.29376 14.6886C6.71788 14.4732 8.08974 13.8304 8.103 13.8436ZM13.8189 14.0756V14.2148C13.8189 14.9537 13.7394 15.9677 13.6233 16.7066C13.6035 16.8359 13.5868 16.9418 13.5836 16.9452C13.5836 16.9452 13.4875 16.9187 13.3749 16.8855C12.8778 16.7298 12.3377 16.5011 11.8506 16.2327C11.5291 16.0572 11.062 15.7688 11.0752 15.7556C11.0785 15.7523 11.2177 15.6794 11.38 15.5933C12.0296 15.2553 12.6525 14.8907 13.1926 14.5296C13.3947 14.3937 13.6995 14.175 13.7659 14.1154L13.8189 14.0756ZM5.60119 15.0564C5.61445 15.0564 5.61114 15.0828 5.59125 15.2022C5.57799 15.2883 5.56144 15.4475 5.55486 15.5567C5.52828 16.0406 5.60787 16.3985 5.84643 16.8888C5.9127 17.0247 5.96575 17.1374 5.96239 17.1407C5.93917 17.1605 3.74563 17.8034 3.05637 17.9922C2.85094 18.0485 2.67204 18.0983 2.65872 18.1016C2.63557 18.1082 2.63224 18.1049 2.64217 18.0485C2.71837 17.5614 3.08952 16.9253 3.6064 16.3884C3.95104 16.0305 4.22608 15.8219 4.6966 15.5534C5.03458 15.3612 5.55481 15.0729 5.59456 15.0597C5.59459 15.0564 5.59789 15.0564 5.60119 15.0564ZM10.7704 15.9809C10.7737 15.9776 10.8532 16.0206 10.9493 16.077C11.6584 16.4879 12.6459 16.869 13.4874 17.0645L13.5637 17.081L13.4577 17.1407C13.017 17.3858 11.5689 17.9889 10.0878 18.5423C9.87238 18.6218 9.66034 18.7013 9.62052 18.7179C9.58075 18.7344 9.5443 18.7443 9.5443 18.741C9.5443 18.7377 9.60399 18.6218 9.68014 18.4793C10.0943 17.7039 10.5119 16.7595 10.7239 16.1034C10.7505 16.0406 10.767 15.9842 10.7704 15.9809ZM10.2435 16.1532C10.2469 16.1565 10.2204 16.2261 10.1872 16.3056C9.89893 17.0048 9.52113 17.7669 9.03738 18.6218C8.9148 18.8406 8.81206 19.0161 8.8087 19.0161C8.80545 19.0161 8.706 18.9566 8.58672 18.8837C7.88421 18.4529 7.26127 17.9226 6.85374 17.409L6.79407 17.3361L7.09558 17.2533C8.17582 16.9584 9.09364 16.6403 10.0049 16.2494C10.1342 16.1963 10.2402 16.1532 10.2435 16.1532ZM13.5174 17.2964C13.5207 17.3726 13.3516 18.0552 13.2125 18.5489C13.0965 18.963 12.997 19.2878 12.8148 19.8611C12.7353 20.1129 12.6658 20.3216 12.6624 20.3216C12.6591 20.3216 12.6393 20.3183 12.6194 20.3118C11.6352 20.1327 10.7538 19.8843 9.92544 19.553C9.69345 19.4601 9.36211 19.311 9.34224 19.2945C9.33564 19.2878 9.53446 19.1951 9.78628 19.0857C11.2939 18.4263 12.858 17.6774 13.3947 17.3561C13.4577 17.3163 13.5074 17.2964 13.5174 17.2964ZM5.95909 17.5548C5.96572 17.5614 5.5449 18.1679 4.95505 18.9929C4.74963 19.2812 4.51105 19.6191 4.42161 19.7451C4.33212 19.871 4.19628 20.0699 4.12006 20.1891L3.98083 20.4045L3.83172 20.2787C3.65608 20.1327 3.35127 19.8213 3.21541 19.649C2.93043 19.2945 2.73828 18.9201 2.66206 18.5789C2.62561 18.4197 2.62561 18.3402 2.6587 18.3303C2.7084 18.317 3.59313 18.1083 4.42158 17.916C4.88217 17.81 5.41561 17.6841 5.60779 17.6378C5.8 17.5913 5.95579 17.5548 5.95909 17.5548ZM6.3832 17.7173L6.48921 17.8365C6.96642 18.3701 7.4535 18.7644 8.04331 19.109C8.14938 19.1687 8.22888 19.2216 8.22222 19.2249C8.19909 19.2416 6.17443 19.9605 5.23671 20.2853C4.70988 20.4708 4.27576 20.6199 4.27249 20.6199C4.26919 20.6199 4.23936 20.6 4.20616 20.5769L4.14655 20.5337L4.24264 20.3946C4.5541 19.9439 4.94517 19.4502 5.79673 18.423L6.3832 17.7173ZM9.02748 19.6092C9.03073 19.6059 9.17653 19.6589 9.35545 19.7253C9.78628 19.8876 10.1275 19.9904 10.5848 20.1063C11.1481 20.2488 11.9633 20.388 12.4438 20.4278C12.5167 20.4344 12.5564 20.441 12.5432 20.4509C12.5199 20.4642 12.0329 20.6265 11.675 20.7392C11.105 20.9181 9.36543 21.4317 7.94724 21.8393C7.68546 21.9155 7.46011 21.9785 7.44687 21.9818C7.41378 21.9884 7.30438 21.9585 7.30438 21.9453C7.30438 21.9387 7.3839 21.836 7.48002 21.7233C7.95714 21.1535 8.43102 20.5172 8.82534 19.9142C8.93466 19.7484 9.02748 19.6125 9.02748 19.6092ZM8.44423 19.6259C8.44753 19.6292 8.2123 20.0069 7.80147 20.6564C7.6258 20.9313 7.43029 21.2429 7.36069 21.3522C7.29442 21.4583 7.19502 21.6239 7.13872 21.7167L7.0426 21.8858L6.99291 21.8724C6.8736 21.8393 6.03528 21.5444 5.81326 21.455C5.53821 21.3455 5.25325 21.213 5.04117 21.1004C4.77612 20.9579 4.44478 20.7458 4.47126 20.7392C4.47787 20.7359 4.93185 20.6132 5.47855 20.4642C6.92992 20.0699 7.73511 19.8413 8.26201 19.6755C8.35812 19.6457 8.44093 19.6224 8.44423 19.6259ZM12.5696 20.5934H12.5729C12.5862 20.6265 12.0495 22.1177 11.8539 22.5881C11.8108 22.6941 11.7943 22.7207 11.7711 22.7174C11.7148 22.7141 10.9361 22.6047 10.4622 22.5351C9.63715 22.4093 8.25205 22.1673 7.90416 22.0878L7.82464 22.0713L8.31829 21.9585C9.37867 21.72 9.88896 21.5907 10.4059 21.4317C11.0587 21.2328 11.7048 20.9844 12.3576 20.6795C12.4603 20.6331 12.5464 20.5967 12.5696 20.5934Z" fill="url(#paint0_linear_41_2)"/>
<path d="M10.1077 0.999926C10.0348 0.990039 8.85844 1.41417 8.09965 1.7223C7.07573 2.13986 6.28052 2.53751 5.79008 2.88204C5.60788 3.01133 5.37919 3.23994 5.3428 3.32938C5.32955 3.36252 5.32288 3.40228 5.32288 3.44205L5.76692 3.86287L6.82393 4.20085L9.33895 4.65151L12.2151 5.14524L12.2449 4.89672C12.235 4.89672 12.2284 4.89342 12.2185 4.89342L11.8407 4.83376L11.7645 4.69792C11.3735 4.00867 10.9427 3.15377 10.6909 2.57721C10.4954 2.12987 10.3099 1.613 10.2071 1.24186C10.1508 1.01654 10.1441 1.00323 10.1077 0.999926ZM10.0546 1.16897H10.058C10.0613 1.17224 10.0745 1.26508 10.0878 1.37437C10.1441 1.83832 10.2469 2.2856 10.4092 2.76939C10.5318 3.1339 10.5318 3.11405 10.3894 3.07094C10.0514 2.97819 8.53708 2.71641 7.44028 2.56398C7.26466 2.54077 7.11553 2.5176 7.11553 2.5143C7.10228 2.50104 7.90745 2.08019 8.26202 1.91456C8.71598 1.70574 9.96187 1.18552 10.0546 1.16897ZM6.86035 2.65344L6.98963 2.69646C7.69205 2.93508 9.45815 3.27307 10.4324 3.35259C10.5417 3.36253 10.6345 3.37251 10.6378 3.37251C10.6411 3.37581 10.5484 3.4255 10.429 3.48181C9.95857 3.71709 9.44164 4.00537 9.08375 4.22739C8.97776 4.29363 8.88161 4.34668 8.8684 4.34668C8.85514 4.34668 8.78558 4.33342 8.71268 4.32348L8.58014 4.30357L8.24882 3.97882C7.66562 3.41223 7.20833 2.97486 7.0327 2.80914L6.86035 2.65344ZM6.72785 2.75613L7.19506 3.33934C7.45016 3.66076 7.70863 3.97554 7.76501 4.04509C7.82129 4.11472 7.86772 4.17108 7.86442 4.17438C7.85116 4.18431 7.18849 4.05505 6.83719 3.97557C6.47602 3.89269 6.32692 3.85294 6.1049 3.78339L5.92264 3.72372V3.67729C5.92594 3.45528 6.20764 3.12394 6.68477 2.78599L6.72785 2.75613ZM10.6975 3.5514C10.7108 3.5514 10.7273 3.58122 10.767 3.67068C10.8797 3.91918 11.231 4.58856 11.3171 4.71777C11.3437 4.76088 11.39 4.76419 10.9228 4.68796C9.79955 4.50568 9.43832 4.4461 9.43832 4.43947C9.43832 4.43617 9.47147 4.41295 9.51455 4.38975C9.86249 4.1976 10.2137 3.95237 10.5252 3.69059C10.6014 3.62762 10.671 3.56797 10.6842 3.55801C10.6875 3.5514 10.6942 3.5481 10.6975 3.5514Z" fill="url(#paint1_linear_41_2)"/>
<path d="M5.36588 3.28308C5.36588 3.28308 5.29303 3.39911 5.3626 3.57141C5.40572 3.67742 5.5316 3.80663 5.67407 3.9392C5.67407 3.9392 7.1486 5.37728 7.32755 5.58275C8.14265 6.52377 8.49722 7.45158 8.53037 8.73063C8.55025 9.55241 8.39447 10.2747 8.00681 11.1131C7.31758 12.6175 5.86289 14.2776 3.61963 16.1199L3.94772 16.0106C4.15978 15.8516 4.44806 15.6825 5.12401 15.3114C6.68468 14.4565 8.44088 13.6712 10.5947 12.8627C13.6962 11.6963 18.7957 10.331 21.6984 9.88707L22 9.84065L21.9535 9.76775C21.6886 9.35685 21.5062 9.10173 21.2875 8.83002C20.6514 8.04138 19.8793 7.40189 18.9349 6.8717C17.6361 6.14606 15.9559 5.57945 13.8287 5.15861C13.4278 5.07905 12.5464 4.92665 11.8307 4.8173C10.313 4.5821 9.33221 4.41969 8.252 4.23413C7.86436 4.16783 7.28443 4.06845 6.90005 3.98564C6.70124 3.94251 6.32021 3.85307 6.022 3.75035C5.78342 3.65753 5.43878 3.56474 5.36588 3.28308ZM6.22084 4.11152C6.22411 4.10825 6.27712 4.12806 6.34675 4.15127C6.47266 4.1943 6.635 4.24403 6.82724 4.29707C6.97267 4.33707 7.11847 4.37573 7.26463 4.41303C7.46344 4.46271 7.62908 4.50912 7.63238 4.50912C7.65563 4.53233 7.99031 5.60253 8.10296 6.01343C8.14598 6.16922 8.17918 6.30173 8.17586 6.30173C8.17246 6.30509 8.13607 6.24872 8.093 6.17252C7.7053 5.4899 7.09229 4.79738 6.38317 4.24067C6.29044 4.17447 6.22084 4.11482 6.22084 4.11152ZM7.8511 4.56215C7.86769 4.56215 7.94059 4.57211 8.03 4.59197C8.59333 4.71788 9.60398 4.91007 10.2501 5.01942C10.3595 5.03598 10.4456 5.0559 10.4456 5.06249C10.4456 5.06915 10.4058 5.09229 10.3561 5.11884C10.2468 5.17515 9.80608 5.4369 9.66032 5.53632C9.29248 5.78153 8.96116 6.04661 8.72257 6.28517C8.62648 6.38129 8.5436 6.4608 8.5436 6.4608C8.5436 6.4608 8.52379 6.40449 8.50714 6.33486C8.38793 5.87427 8.13937 5.19167 7.91404 4.71123C7.87759 4.63503 7.84774 4.56543 7.84774 4.55883C7.84774 4.56545 7.84774 4.56215 7.8511 4.56215ZM10.7206 5.1089C10.7405 5.1155 10.7737 5.22816 10.8399 5.47667C10.9625 5.95716 11.0189 6.49395 10.999 6.99431C10.9923 7.13348 10.9857 7.26269 10.9791 7.27929L10.9691 7.3124L10.7969 7.25609C10.4423 7.14342 9.86576 6.9744 9.37205 6.83526C9.09035 6.75903 8.86178 6.68945 8.86178 6.68283C8.86178 6.66293 9.27268 6.25206 9.44828 6.09635C9.78289 5.80139 10.6908 5.09892 10.7206 5.1089ZM10.9493 5.14199C10.9592 5.1321 12.3211 5.3673 12.9407 5.48661C13.4014 5.57607 14.0707 5.71526 14.1104 5.73185C14.1303 5.73845 14.0607 5.77821 13.8387 5.8776C12.9639 6.27195 12.3144 6.62645 11.6684 7.05726C11.4994 7.16993 11.3569 7.26269 11.3536 7.26269C11.3503 7.26269 11.3469 7.16663 11.3469 7.05063C11.3469 6.42107 11.221 5.78486 10.989 5.24807C10.9658 5.19504 10.946 5.14535 10.9493 5.14199ZM14.4716 5.83788C14.4815 5.84781 14.4385 6.11624 14.3987 6.27525C14.2794 6.76899 13.958 7.50134 13.5637 8.19051C13.4941 8.31312 13.4312 8.41253 13.4245 8.41583C13.4179 8.41913 13.3284 8.36942 13.2257 8.30978C12.8413 8.08445 12.404 7.87239 11.9268 7.67355C11.7943 7.61724 11.6783 7.57083 11.675 7.56426C11.6517 7.54434 12.7187 6.83856 13.282 6.50058C13.7294 6.22889 14.4583 5.82459 14.4716 5.83788ZM14.7234 5.87762C14.7533 5.87762 15.3564 6.04332 15.6711 6.1361C16.4497 6.36807 17.3445 6.69609 17.9277 6.96117L18.1695 7.07055L18.0006 7.11029C16.5757 7.43831 15.3564 7.81611 14.18 8.29325C14.0839 8.333 13.9977 8.36615 13.9912 8.36615C13.9845 8.36615 14.0176 8.28995 14.0607 8.19713C14.4153 7.44497 14.6439 6.65964 14.7002 5.99027C14.7036 5.9273 14.7135 5.87762 14.7234 5.87762ZM8.71927 7.25609C8.72918 7.24613 9.18979 7.35551 9.43829 7.42503C9.81604 7.5311 10.6179 7.79946 10.6179 7.81937C10.6179 7.82268 10.5285 7.8989 10.4225 7.9917C9.98839 8.35289 9.57083 8.73389 9.07046 9.2177C8.92135 9.36023 8.79547 9.47618 8.78887 9.47618C8.78221 9.47618 8.77895 9.45626 8.78219 9.42977C8.85841 8.87306 8.84188 8.15736 8.73584 7.43169C8.72587 7.33887 8.71594 7.25939 8.71927 7.25609ZM18.3982 7.26605C18.4047 7.27263 18.1861 7.61724 18.0469 7.81272C17.8482 8.09769 17.5564 8.4755 16.897 9.30389C16.5492 9.74123 16.1581 10.235 16.029 10.4007C15.8964 10.5663 15.787 10.7055 15.7837 10.7055C15.7804 10.7055 15.7374 10.6459 15.691 10.573C15.3198 10.0163 14.8758 9.52917 14.349 9.0918C14.2496 9.00893 14.1403 8.91947 14.1038 8.89296C14.0673 8.86646 14.0375 8.83995 14.0375 8.83665C14.0375 8.82674 14.6008 8.58479 15.0283 8.41251C15.7771 8.10765 16.7976 7.74317 17.5632 7.50789C17.9641 7.382 18.3915 7.25939 18.3982 7.26605ZM18.6534 7.33227C18.6666 7.32899 18.7461 7.36875 18.8422 7.42503C19.6474 7.88561 20.436 8.47877 21.0589 9.08849C21.2346 9.26081 21.6687 9.71145 21.6619 9.71475C21.6619 9.71475 21.5095 9.728 21.3307 9.74123C19.9357 9.84731 18.1497 10.1422 16.4332 10.5564C16.3173 10.5828 16.2145 10.606 16.2079 10.606C16.2013 10.606 16.3305 10.4768 16.4929 10.3211C17.5002 9.35025 17.9608 8.73723 18.5043 7.64373C18.5805 7.4814 18.6468 7.34223 18.6534 7.33227C18.6501 7.33227 18.6501 7.33227 18.6534 7.33227ZM11.274 8.08782C11.3204 8.09771 11.7512 8.29991 12.0759 8.46222C12.3741 8.61128 12.8215 8.84991 12.8447 8.86976C12.848 8.87306 12.6889 8.95592 12.4935 9.05202C11.8705 9.3635 11.337 9.65837 10.7803 9.99636C10.6212 10.0925 10.4887 10.172 10.4854 10.172C10.4721 10.172 10.4754 10.1587 10.5649 9.99636C10.8632 9.45299 11.1017 8.80352 11.2376 8.17061C11.2508 8.12091 11.2641 8.08782 11.274 8.08782ZM10.8432 8.16731C10.8532 8.17727 10.7405 8.5848 10.671 8.80682C10.5351 9.22766 10.3064 9.7545 10.0845 10.1521C10.0314 10.2449 9.95188 10.3807 9.9088 10.4569L9.82598 10.5895L9.64042 10.4106C9.42506 10.2018 9.24941 10.0726 9.02413 9.9566C8.93461 9.91025 8.86505 9.87044 8.86505 9.86385C8.86505 9.83735 9.43166 9.32375 9.86575 8.95263C10.1772 8.68421 10.8333 8.15738 10.8432 8.16731ZM13.4776 9.25086L13.64 9.35687C14.011 9.59879 14.4484 9.92018 14.7831 10.2018C14.9719 10.3575 15.3364 10.6856 15.4093 10.7651L15.4491 10.8083L15.1807 10.8845C13.6631 11.3052 12.4901 11.6797 11.1216 12.1834C10.9691 12.2397 10.8399 12.2861 10.8299 12.2861C10.8101 12.2861 10.7935 12.3026 11.1349 11.9878C12.0097 11.1827 12.785 10.2946 13.3616 9.42975L13.4776 9.25086ZM12.785 9.42317C12.7916 9.42977 12.3377 10.0693 12.0659 10.4305C11.7412 10.8612 11.1646 11.5836 10.767 12.0541C10.6014 12.2496 10.4589 12.412 10.4523 12.4153C10.4423 12.4186 10.439 12.3689 10.439 12.2927C10.439 11.8917 10.3363 11.4642 10.1573 11.0998C10.0811 10.9474 10.0679 10.9109 10.0845 10.8944C10.1474 10.838 11.1117 10.288 11.7213 9.95994C12.1322 9.74124 12.775 9.41654 12.785 9.42317ZM8.59663 10.4504C8.60659 10.4504 8.6828 10.4901 8.76896 10.5365C8.98103 10.6525 9.1699 10.7817 9.33889 10.9209C9.34549 10.9275 9.25937 10.9971 9.14671 11.0799C8.8319 11.3052 8.35477 11.6664 8.07647 11.8885C7.7848 12.1204 7.77493 12.127 7.80803 12.0773C8.02675 11.7427 8.13605 11.5538 8.25208 11.3119C8.35477 11.0966 8.45747 10.8414 8.53037 10.6194C8.55686 10.5233 8.59003 10.4504 8.59663 10.4504ZM9.71335 11.3251C9.72986 11.3219 9.7498 11.3516 9.83921 11.4842C10.0281 11.7658 10.1739 12.1436 10.2104 12.4484L10.217 12.5147L9.76306 12.6904C8.95118 13.0051 8.20237 13.3166 7.69532 13.5485C7.55288 13.6148 7.30435 13.7341 7.14202 13.8137C6.97963 13.8965 6.84709 13.9594 6.84709 13.9561C6.84709 13.9528 6.94979 13.8766 7.0757 13.7838C8.06653 13.0648 8.92471 12.2761 9.56752 11.4875C9.63712 11.4047 9.7001 11.3284 9.70667 11.3251L9.71335 11.3251ZM9.19975 11.4511C9.21301 11.4643 8.83526 11.8917 8.5768 12.1535C7.93729 12.8063 7.30438 13.3166 6.51904 13.8137C6.41965 13.8766 6.3302 13.9329 6.32023 13.9396C6.29702 13.9528 6.32683 13.9197 6.67147 13.5452C6.89018 13.31 7.05583 13.1112 7.24471 12.866C7.37062 12.7037 7.39384 12.6804 7.5761 12.5512C8.06321 12.1999 9.18649 11.4378 9.19975 11.4511Z" fill="url(#paint2_radial_41_2)"/>
<defs>
<linearGradient id="paint0_linear_41_2" x1="5.29821" y1="20.7252" x2="6.88341" y2="19.7885" gradientUnits="userSpaceOnUse">
<stop stop-color="#909CA9"/>
<stop offset="1" stop-color="#EDEDEE"/>
</linearGradient>
<linearGradient id="paint1_linear_41_2" x1="5.3345" y1="3.0661" x2="6.61" y2="3.0661" gradientUnits="userSpaceOnUse">
<stop stop-color="#939FAB"/>
<stop offset="1" stop-color="#DCDEE1"/>
</linearGradient>
<radialGradient id="paint2_radial_41_2" cx="0" cy="0" r="1" gradientUnits="userSpaceOnUse" gradientTransform="translate(11.7706 8.916) rotate(-171.457) scale(1.64447 3.28976)">
<stop stop-color="#EE352C"/>
<stop offset="1" stop-color="#A91D22"/>
</radialGradient>
</defs>
</svg>
