
<svg xmlns="http://www.w3.org/2000/svg" xmlns:xlink="http://www.w3.org/1999/xlink" viewBox="0 0 20 20">
	<path d="M4.5,8.6h3V5.5C5.9,5.7,4.7,6.9,4.5,8.6z"/>
	<path d="M7.5,12.3V9.2h-3C4.7,10.9,5.9,12.1,7.5,12.3z"/>
	<path d="M8.2,5.5v6.8c1.7-0.2,3.1-1.6,3.1-3.4C11.3,7.1,10,5.7,8.2,5.5z"/>
	<path d="M16.8,2H4.2C3.6,2,3.1,2.5,3,3C2.5,3.1,2,3.6,2,4.2v12.7C2,17.5,2.5,18,3.2,18h12.7c0.6,0,1.1-0.5,1.1-1
		c0.6-0.1,1-0.6,1-1.1V3.2C18,2.5,17.5,2,16.8,2z M15.5,16.5h-0.8V9H13v7.5h-0.8v-4h-1.7v4H9.7V14H8v2.5H3.5V4.5l12.1,0L15.5,16.5z"
		/>
</svg>
