<svg width="24" height="24" viewBox="0 0 24 24" fill="none" xmlns="http://www.w3.org/2000/svg">
<path d="M21.1479 16.5819C20.067 16.5549 19.2292 16.663 18.5268 16.9602C18.324 17.0413 17.9997 17.0413 17.9727 17.298C18.0808 17.4061 18.0943 17.5818 18.189 17.7304C18.3511 18.0004 18.6348 18.3654 18.8916 18.5545C19.1752 18.7707 19.459 18.9868 19.7562 19.176C20.2831 19.5003 20.8776 19.6894 21.391 20.0137C21.6883 20.2027 21.9855 20.446 22.2826 20.6487C22.4314 20.7567 22.5259 20.9325 22.7151 21V20.9595C22.6204 20.8378 22.5934 20.6622 22.4989 20.527C22.3639 20.392 22.2286 20.2704 22.0936 20.1352C21.7017 19.6084 21.2154 19.149 20.6884 18.7707C20.2561 18.4734 19.3104 18.0681 19.1347 17.5683C19.1347 17.5683 19.1211 17.5548 19.1077 17.5413C19.4049 17.5143 19.7562 17.4061 20.04 17.325C20.4993 17.2033 20.9181 17.2305 21.391 17.1088C21.6072 17.0548 21.8233 16.9873 22.0395 16.9197V16.7982C21.7965 16.5549 21.6207 16.2307 21.364 16.0009C20.6749 15.4063 19.9183 14.8256 19.1347 14.3392C18.7158 14.069 18.1753 13.8933 17.7295 13.6637C17.5675 13.5825 17.2972 13.542 17.2027 13.4069C16.9594 13.1097 16.8243 12.7179 16.6486 12.3666C16.257 11.6234 15.8785 10.7994 15.5407 10.0158C15.2977 9.4888 15.1491 8.96184 14.8518 8.47549C13.4602 6.17866 11.947 4.78707 9.6231 3.42243C9.12319 3.13873 8.52877 3.01711 7.89375 2.86852C7.55605 2.85496 7.21821 2.82801 6.88044 2.81445C6.66429 2.71986 6.44806 2.46321 6.25888 2.34157C5.48893 1.85514 3.50274 0.801391 2.93527 2.19298C2.57046 3.07119 3.47569 3.93582 3.78643 4.38174C4.01622 4.69248 4.31338 5.04372 4.47553 5.39506C4.57012 5.62458 4.59708 5.86794 4.69167 6.1111C4.90789 6.70545 5.11047 7.36759 5.39424 7.92159C5.54292 8.20528 5.70498 8.50254 5.89416 8.75919C6.00223 8.90778 6.19132 8.97541 6.23193 9.21859C6.04282 9.4888 6.02926 9.89413 5.92111 10.2319C5.43475 11.7586 5.62395 13.6501 6.31296 14.7715C6.52909 15.1092 7.04257 15.8524 7.7316 15.5686C8.33958 15.3255 8.20447 14.5553 8.38009 13.8798C8.4207 13.7176 8.39365 13.6096 8.47468 13.5015C8.47476 13.515 8.47468 13.5286 8.47468 13.5286C8.66386 13.9068 8.85297 14.2717 9.02859 14.6499C9.44748 15.3118 10.177 16.0009 10.785 16.4604C11.1094 16.7035 11.366 17.1223 11.7713 17.271V17.2305H11.7443C11.6632 17.1088 11.5416 17.0548 11.4336 16.9602C11.1904 16.717 10.9201 16.4197 10.731 16.1496C10.1636 15.393 9.66361 14.5553 9.21778 13.6906C9.00163 13.2718 8.81245 12.8124 8.63683 12.3936C8.55571 12.2314 8.55571 11.9883 8.42061 11.9073C8.21794 12.2044 7.92078 12.4612 7.77211 12.826C7.51554 13.4069 7.48842 14.123 7.39383 14.8661C7.33983 14.8796 7.36678 14.8661 7.33974 14.8931C6.90747 14.785 6.7588 14.3392 6.59665 13.9608C6.19132 13.0016 6.12378 11.4613 6.47511 10.3535C6.5697 10.0698 6.97501 9.17808 6.81288 8.90785C6.73185 8.65111 6.46155 8.50254 6.31296 8.29987C6.13734 8.04313 5.94814 7.71892 5.8266 7.43515C5.50231 6.67858 5.34016 5.84089 4.98892 5.08423C4.82677 4.7329 4.54308 4.36818 4.31338 4.04398C4.05673 3.67917 3.77295 3.42243 3.57028 2.99007C3.50281 2.84148 3.40813 2.59831 3.51621 2.43616C3.54325 2.32809 3.59724 2.28757 3.70539 2.26054C3.88102 2.11186 4.38093 2.30106 4.55655 2.38209C5.05647 2.58466 5.47527 2.77393 5.89416 3.05763C6.08325 3.19273 6.28591 3.44947 6.52909 3.51702H6.81286C7.24522 3.61153 7.73158 3.54406 8.13691 3.66561C8.85304 3.89523 9.50146 4.23307 10.0825 4.59789C11.8525 5.71926 13.3115 7.31359 14.2979 9.21859C14.46 9.52923 14.5275 9.8131 14.6762 10.1373C14.9599 10.7994 15.3112 11.4749 15.5949 12.1234C15.8785 12.7583 16.1488 13.4069 16.5541 13.9339C16.7568 14.2175 17.5674 14.3662 17.9322 14.5148C18.2025 14.6364 18.6213 14.7445 18.8644 14.8931C19.3237 15.1767 19.7832 15.5011 20.2156 15.8118C20.4318 15.9739 21.1072 16.3117 21.1479 16.5819Z" fill="#00546B"/>
<path d="M7.36653 4.84131C7.13683 4.84131 6.97477 4.86843 6.81262 4.90894C6.81262 4.90894 6.81262 4.9225 6.81262 4.93599H6.83965C6.94782 5.15212 7.13683 5.30079 7.27194 5.48989C7.38009 5.70603 7.4746 5.92225 7.58275 6.13848C7.59622 6.12492 7.60971 6.11143 7.60971 6.11143C7.79898 5.97625 7.89348 5.7601 7.89348 5.43591C7.81237 5.3413 7.79889 5.24671 7.73133 5.15212C7.6503 5.01693 7.4746 4.94946 7.36653 4.84131Z" fill="#00546B"/>
<path d="M5.82766 21.5761H5.13309C5.10854 20.5806 5.04088 19.6447 4.93029 18.7677H4.92412L3.86662 21.5761H3.33781L2.28665 18.7677H2.2806C2.20262 19.6098 2.15351 20.5458 2.13309 21.5761H1.5C1.5408 20.3233 1.64334 19.1487 1.80722 18.0523H2.66808L3.67001 20.6416H3.67618L4.68427 18.0523H5.50795C5.68834 19.3365 5.79492 20.5111 5.82766 21.5761ZM8.83987 18.9763C8.55708 20.2794 8.18396 21.2262 7.72092 21.8172C7.36014 22.2723 6.96487 22.5 6.53445 22.5C6.41968 22.5 6.27809 22.4706 6.11033 22.4122V22.098C6.19233 22.108 6.28855 22.1137 6.39915 22.1137C6.60021 22.1137 6.76181 22.0668 6.88502 21.9726C7.03239 21.858 7.10607 21.729 7.10607 21.5865C7.10607 21.4887 7.04862 21.2887 6.93401 20.986L6.1718 18.9762H6.85414L7.40121 20.4793C7.52415 20.8207 7.57542 21.0591 7.55489 21.1948C7.85406 20.5164 8.06303 19.7766 8.18208 18.976L8.83987 18.9763Z" fill="#5D87A1"/>
<path d="M18.0853 21.5761H16.1124V18.0523H16.7761V21.1424H18.0853V21.5761ZM15.5959 21.6613L14.833 21.3417C14.9007 21.2945 14.9654 21.2434 15.0235 21.1842C15.3478 20.8608 15.5095 20.3825 15.5095 19.749C15.5095 18.5832 14.9709 18 13.893 18C13.3644 18 12.9521 18.1479 12.6572 18.4439C12.3332 18.7676 12.1715 19.2443 12.1715 19.8743C12.1715 20.4938 12.3149 20.9481 12.6017 21.2363C12.8641 21.4974 13.2596 21.6282 13.7886 21.6282C13.9859 21.6282 14.1669 21.6076 14.3319 21.5662L15.325 22.0572L15.5959 21.6613ZM13.1246 20.871C12.9566 20.6415 12.8725 20.273 12.8725 19.7648C12.8725 18.8775 13.19 18.4334 13.8255 18.4334C14.1577 18.4334 14.4011 18.5397 14.5568 18.7516C14.7246 18.9814 14.809 19.3467 14.809 19.8479C14.809 20.7425 14.4913 21.1898 13.8562 21.1898C13.5239 21.1898 13.2804 21.084 13.1246 20.871ZM11.8823 20.5995C11.8823 20.8983 11.7532 21.1434 11.4952 21.3354C11.237 21.5267 10.8907 21.6225 10.4568 21.6225C10.0509 21.6225 9.65738 21.5124 9.27649 21.2934L9.45485 20.9909C9.78262 21.1302 10.0794 21.1995 10.3458 21.1995C10.5958 21.1995 10.7912 21.1524 10.933 21.0591C11.0746 20.9654 11.159 20.8339 11.159 20.6679C11.159 20.4585 10.9871 20.2795 10.6717 20.1297C10.3808 19.9941 9.79912 19.7106 9.79912 19.7106C9.48385 19.5154 9.326 19.3059 9.326 18.9609C9.326 18.6753 9.44371 18.4447 9.67927 18.2692C9.91508 18.0931 10.2193 18.0054 10.5923 18.0054C10.9775 18.0054 11.3277 18.0932 11.6431 18.2666L11.4831 18.5693C11.2133 18.4719 10.9471 18.4233 10.6844 18.4233C10.4717 18.4233 10.3074 18.4666 10.1932 18.5539C10.078 18.6406 10.007 18.7518 10.007 18.8882C10.007 19.0965 10.1826 19.2777 10.5066 19.4306C10.8013 19.5663 11.3975 19.8547 11.3975 19.8547C11.7208 20.0496 11.8823 20.257 11.8823 20.5995Z" fill="#F8981D"/>
<path d="M19.3963 21.5749H19.5003V21.1432H19.3444L19.2172 21.4378L19.0792 21.1432H18.9291V21.5749H19.0272V21.2466H19.0327L19.1775 21.5749H19.2522L19.3963 21.2466V21.5749ZM18.5595 21.5749H18.6694V21.2165H18.8133V21.1432H18.4096V21.2165H18.5592L18.5595 21.5749Z" fill="#F8981D"/>
</svg>
