<svg width="60" height="60" viewBox="0 0 60 60" xmlns="http://www.w3.org/2000/svg">
<path d="M30 8C17.8683 8 8 17.8684 8 30C8 42.1316 17.8683 52 30 52C42.1317 52 52 42.1316 52 30C52 17.8684 42.1317 8 30 8ZM30 11.1429C40.4331 11.1429 48.8571 19.5669 48.8571 30C48.8571 40.4331 40.4331 48.8571 30 48.8571C19.5669 48.8571 11.1429 40.4331 11.1429 30C11.1429 19.5669 19.5669 11.1429 30 11.1429Z" />
<path d="M33.1431 29.9983C33.1431 30.8319 32.812 31.6313 32.2226 32.2207C31.6332 32.8101 30.8338 33.1412 30.0003 33.1412C29.1667 33.1412 28.3673 32.8101 27.7779 32.2207C27.1885 31.6313 26.8574 30.8319 26.8574 29.9983C26.8574 29.1648 27.1885 28.3654 27.7779 27.776C28.3673 27.1866 29.1667 26.8555 30.0003 26.8555C30.8338 26.8555 31.6332 27.1866 32.2226 27.776C32.812 28.3654 33.1431 29.1648 33.1431 29.9983Z" />
<path d="M22.1431 29.9983C22.1431 30.8319 21.812 31.6313 21.2226 32.2207C20.6332 32.8101 19.8338 33.1412 19.0003 33.1412C18.1667 33.1412 17.3673 32.8101 16.7779 32.2207C16.1885 31.6313 15.8574 30.8319 15.8574 29.9983C15.8574 29.1648 16.1885 28.3654 16.7779 27.776C17.3673 27.1866 18.1667 26.8555 19.0003 26.8555C19.8338 26.8555 20.6332 27.1866 21.2226 27.776C21.812 28.3654 22.1431 29.1648 22.1431 29.9983Z" />
<path d="M44.1431 29.9983C44.1431 30.8319 43.812 31.6313 43.2226 32.2207C42.6332 32.8101 41.8338 33.1412 41.0003 33.1412C40.1667 33.1412 39.3673 32.8101 38.7779 32.2207C38.1885 31.6313 37.8574 30.8319 37.8574 29.9983C37.8574 29.1648 38.1885 28.3654 38.7779 27.776C39.3673 27.1866 40.1667 26.8555 41.0003 26.8555C41.8338 26.8555 42.6332 27.1866 43.2226 27.776C43.812 28.3654 44.1431 29.1648 44.1431 29.9983Z" />
</svg>
