<svg width="16" height="16" viewBox="0 0 16 16" fill="none" xmlns="http://www.w3.org/2000/svg">
<path fill-rule="evenodd" clip-rule="evenodd" d="M11.1609 14.6699L5.5058 14.6699C4.96915 14.6699 4.52625 14.6699 4.16545 14.6405C3.79072 14.6098 3.44625 14.5441 3.12269 14.3793C2.62093 14.1236 2.21298 13.7157 1.95732 13.2139C1.79245 12.8903 1.72675 12.5459 1.69613 12.1711C1.66665 11.8103 1.66666 11.3674 1.66667 10.8308L1.66667 5.17575C1.66666 4.63909 1.66665 4.19617 1.69613 3.83537C1.72675 3.46064 1.79246 3.11617 1.95732 2.79261C2.21298 2.29085 2.62093 1.8829 3.12269 1.62724C3.44625 1.46238 3.79072 1.39667 4.16545 1.36605C4.52625 1.33657 4.96917 1.33658 5.50583 1.33659L11.1608 1.33659C11.6975 1.33658 12.1404 1.33657 12.5012 1.36605C12.8759 1.39667 13.2204 1.46238 13.544 1.62724C14.0457 1.8829 14.4537 2.29085 14.7094 2.79261C14.8742 3.11617 14.9399 3.46064 14.9705 3.83537C15 4.19617 15 4.63907 15 5.17572L15 10.8308C15 11.3674 15 11.8103 14.9705 12.1711C14.9399 12.5459 14.8742 12.8903 14.7094 13.2139C14.4537 13.7157 14.0457 14.1236 13.544 14.3793C13.2204 14.5441 12.8759 14.6098 12.5012 14.6405C12.1404 14.6699 11.6975 14.6699 11.1609 14.6699ZM12.3926 13.3116C12.6849 13.2877 12.8344 13.2444 12.9387 13.1913C13.1895 13.0634 13.3935 12.8595 13.5213 12.6086C13.5745 12.5043 13.6178 12.3548 13.6416 12.0626C13.6661 11.7625 13.6667 11.3743 13.6667 10.8033L13.6667 5.20325C13.6667 4.6322 13.6661 4.24401 13.6416 3.94395C13.6178 3.65167 13.5745 3.5022 13.5213 3.39793C13.3935 3.14705 13.1895 2.94308 12.9387 2.81525C12.8344 2.76212 12.6849 2.71884 12.3926 2.69496C12.0926 2.67044 11.7044 2.66992 11.1333 2.66992L5.53333 2.66992C4.96228 2.66992 4.57409 2.67044 4.27403 2.69495C3.98175 2.71883 3.83228 2.76212 3.72801 2.81525C3.47713 2.94308 3.27316 3.14705 3.14533 3.39793C3.0922 3.5022 3.04891 3.65167 3.02503 3.94394C3.00052 4.244 3 4.6322 3 5.20325L3 10.8033C3 11.3743 3.00052 11.7625 3.02503 12.0626C3.04891 12.3548 3.0922 12.5043 3.14532 12.6086C3.27316 12.8595 3.47713 13.0634 3.72801 13.1913C3.83228 13.2444 3.98175 13.2877 4.27402 13.3116C4.57408 13.3361 4.96228 13.3366 5.53333 13.3366L11.1333 13.3366C11.7044 13.3366 12.0926 13.3361 12.3926 13.3116Z" fill="black"/>
<path fill-rule="evenodd" clip-rule="evenodd" d="M0.806354 10.7219C0.806354 10.3722 1.11914 10.0888 1.50499 10.0888L4.33339 10.0888C4.71923 10.0888 5.03202 10.3722 5.03202 10.7219C5.03202 11.0715 4.71923 11.3549 4.33339 11.3549L1.50499 11.3549C1.11914 11.3549 0.806354 11.0715 0.806354 10.7219Z" fill="black"/>
<path fill-rule="evenodd" clip-rule="evenodd" d="M0.806354 8.00335C0.806354 7.65371 1.11914 7.37026 1.50499 7.37026L4.33339 7.37026C4.71923 7.37026 5.03202 7.65371 5.03202 8.00335C5.03202 8.35299 4.71923 8.63643 4.33339 8.63643L1.50499 8.63643C1.11914 8.63643 0.806354 8.35299 0.806354 8.00335Z" fill="black"/>
<path fill-rule="evenodd" clip-rule="evenodd" d="M0.806354 5.28484C0.806354 4.9352 1.11914 4.65176 1.50499 4.65176L4.33339 4.65176C4.71923 4.65176 5.03202 4.9352 5.03202 5.28484C5.03202 5.63449 4.71923 5.91793 4.33339 5.91793L1.50499 5.91793C1.11914 5.91793 0.806354 5.63449 0.806354 5.28484Z" fill="black"/>
<path fill-rule="evenodd" clip-rule="evenodd" d="M10.1953 10.1048C9.93491 9.84444 9.93491 9.42233 10.1953 9.16198L11.3905 7.96671L10.1953 6.77145C9.93491 6.5111 9.93491 6.08899 10.1953 5.82864C10.4556 5.56829 10.8777 5.56829 11.1381 5.82864L12.8047 7.49531C13.0651 7.75566 13.0651 8.17777 12.8047 8.43812L11.1381 10.1048C10.8777 10.3651 10.4556 10.3651 10.1953 10.1048ZM8.4714 10.1048C8.21105 10.3651 7.78895 10.3651 7.5286 10.1048L5.86193 8.43812C5.60158 8.17777 5.60158 7.75566 5.86193 7.49531L7.5286 5.82864C7.78895 5.56829 8.21106 5.56829 8.4714 5.82864C8.73175 6.08899 8.73175 6.5111 8.4714 6.77145L7.27614 7.96671L8.4714 9.16198C8.73175 9.42233 8.73175 9.84444 8.4714 10.1048Z" fill="black"/>
</svg>
