<svg width="16" height="16" viewBox="0 0 16 16"
    xmlns="http://www.w3.org/2000/svg">
    <path fill-rule="evenodd" clip-rule="evenodd" d="M6.7763 1.34243C7.13948 1.40296 7.38482 1.74644 7.32429 2.10962L6.89812 4.66669H10.8797L11.3424 1.89042C11.403 1.52724 11.7464 1.2819 12.1096 1.34243C12.4728 1.40296 12.7181 1.74644 12.6576 2.10962L12.2314 4.66669H14C14.3682 4.66669 14.6667 4.96517 14.6667 5.33336C14.6667 5.70155 14.3682 6.00002 14 6.00002H12.0092L11.3425 10H13.3334C13.7016 10 14 10.2985 14 10.6667C14 11.0349 13.7016 11.3334 13.3334 11.3334H11.1203L10.6576 14.1096C10.5971 14.4728 10.2536 14.7181 9.89042 14.6576C9.52724 14.5971 9.28189 14.2536 9.34242 13.8904L9.7686 11.3334H5.787L5.32429 14.1096C5.26376 14.4728 4.92028 14.7181 4.5571 14.6576C4.19392 14.5971 3.94857 14.2536 4.0091 13.8904L4.43528 11.3334H2.00004C1.63185 11.3334 1.33337 11.0349 1.33337 10.6667C1.33337 10.2985 1.63185 10 2.00004 10H4.6575L5.32417 6.00002H2.66671C2.29852 6.00002 2.00004 5.70155 2.00004 5.33336C2.00004 4.96517 2.29852 4.66669 2.66671 4.66669H5.54639L6.0091 1.89042C6.06963 1.52724 6.41312 1.2819 6.7763 1.34243ZM6.67589 6.00002L6.00923 10H9.99082L10.6575 6.00002H6.67589Z" />
</svg>
