<svg width="16" height="16" viewBox="0 0 16 16" fill="none" xmlns="http://www.w3.org/2000/svg">
<path d="M12.333 6.60986C12.333 4.21663 10.3932 2.27686 8 2.27686C5.60677 2.27686 3.66699 4.21663 3.66699 6.60986C3.66699 9.0031 5.60677 10.9429 8 10.9429C10.3932 10.9429 12.333 9.0031 12.333 6.60986ZM13.667 6.60986C13.667 9.73948 11.1296 12.2769 8 12.2769C4.87039 12.2769 2.33301 9.73948 2.33301 6.60986C2.33301 3.48025 4.87039 0.942871 8 0.942871C11.1296 0.942871 13.667 3.48025 13.667 6.60986Z" fill="#404755"/>
<path d="M13.2667 13.5769C13.6348 13.5769 13.9335 13.8749 13.9337 14.2429C13.9337 14.6111 13.6349 14.9099 13.2667 14.9099H2.93372C2.56553 14.9099 2.26672 14.6111 2.26672 14.2429C2.2669 13.8749 2.56563 13.5769 2.93372 13.5769H13.2667Z" fill="#FF578A"/>
</svg>
