<svg width="16" height="16" viewBox="0 0 16 16" xmlns="http://www.w3.org/2000/svg">
  <path d="M9.3 2.05a.65.65 0 0 1 .65-.65h3.9a.65.65 0 0 1 .65.65v3.9a.65.65 0 1 1-1.3 0V3.62L9.11 7.71a.65.65 0 0 1-.92-.92l4.09-4.09H9.95a.65.65 0 0 1-.65-.65Zm-4.057.65H6.7a.65.65 0 0 1 0 1.3H5.27c-.557 0-.935 0-1.228.024-.285.024-.43.066-.532.118a1.3 1.3 0 0 0-.568.568c-.052.101-.094.247-.118.532-.023.293-.024.671-.024 1.228v4.16c0 .557 0 .935.024 1.228.024.285.066.43.118.532a1.3 1.3 0 0 0 .568.568c.101.052.247.094.532.117.293.024.671.025 1.228.025h4.16c.557 0 .935 0 1.228-.024.285-.024.43-.066.532-.118a1.3 1.3 0 0 0 .568-.568c.052-.102.094-.247.118-.532.024-.293.024-.671.024-1.228V9.2a.65.65 0 1 1 1.3 0v1.457c0 .523 0 .955-.029 1.307-.03.365-.094.7-.254 1.016a2.6 2.6 0 0 1-1.137 1.136c-.315.161-.65.225-1.016.255-.352.029-.784.029-1.307.029H5.243c-.523 0-.955 0-1.307-.029-.365-.03-.7-.094-1.016-.255a2.6 2.6 0 0 1-1.137-1.136c-.16-.315-.224-.651-.254-1.016a17.358 17.358 0 0 1-.029-1.307V6.443c0-.523 0-.955.029-1.307.03-.365.094-.701.254-1.016A2.6 2.6 0 0 1 2.92 2.983c.315-.16.65-.225 1.016-.254.352-.03.784-.03 1.307-.03Z" />
</svg>
