<svg width="24" height="24" viewBox="0 0 24 24" fill="none" xmlns="http://www.w3.org/2000/svg">
<path fill-rule="evenodd" clip-rule="evenodd" d="M2 12C2 15.3132 4.83165 18 8.32531 18H15.6747C17.3527 17.9993 18.9618 17.3668 20.1479 16.2416C21.3341 15.1165 22.0003 13.5907 22 12C22 8.68679 19.1684 6 15.6747 6H8.32531C6.64728 6.00065 5.03822 6.6331 3.85204 7.75828C2.66585 8.88345 1.99966 10.4092 2 12ZM19.6088 12C19.6091 12.5098 19.5036 13.0148 19.2979 13.486C19.0925 13.9572 18.7909 14.3854 18.4107 14.7461C18.0307 15.1067 17.5792 15.3929 17.0825 15.5883C16.5856 15.7836 16.053 15.8842 15.5152 15.8843H8.48985C7.95176 15.8846 7.41896 15.7841 6.92182 15.5889C6.4247 15.3939 5.973 15.1077 5.59259 14.747C5.21218 14.3862 4.91049 13.9579 4.70477 13.4865C4.49906 13.0152 4.39333 12.5101 4.39366 12C4.39349 11.4902 4.49926 10.9854 4.70489 10.5143C4.91053 10.0433 5.21202 9.61524 5.59214 9.25464C5.97228 8.89406 6.42361 8.60798 6.92036 8.41275C7.41712 8.21752 7.94958 8.11695 8.48731 8.11679H15.5138C16.0518 8.11679 16.5843 8.21725 17.0812 8.41241C17.5781 8.60757 18.0296 8.89362 18.4099 9.25423C18.7901 9.61482 19.0917 10.0429 19.2976 10.514C19.5032 10.9852 19.609 11.49 19.6088 12Z" fill="#EA1B22"/>
</svg>
