<svg width="16" height="16" xmlns="http://www.w3.org/2000/svg"><path d="M3.947 1.36c-.513.035-.832.11-1.16.274A2.515 2.515 0 0 0 1.416 3.44c-.074.38-.083.863-.083 4.56 0 4.239.004 4.351.164 4.88.221.735.888 1.402 1.623 1.623.529.16.641.164 4.88.164s4.351-.004 4.88-.164c.735-.221 1.402-.888 1.623-1.623.16-.529.164-.641.164-4.88s-.004-4.351-.164-4.88c-.22-.733-.86-1.372-1.623-1.623-.451-.148-.347-.144-4.653-.151-2.186-.003-4.112.003-4.28.014m8.381 1.367c.268.065.412.146.606.339.197.198.275.34.34.619.042.179.046.524.046 4.315 0 3.791-.004 4.136-.046 4.315a1.104 1.104 0 0 1-.34.619c-.2.2-.388.3-.656.351-.271.051-8.285.051-8.557 0a1.134 1.134 0 0 1-.655-.35 1.113 1.113 0 0 1-.34-.62c-.042-.179-.046-.524-.046-4.315 0-3.791.004-4.136.046-4.315.058-.248.137-.406.287-.574.243-.27.508-.384.973-.418.147-.011 2.043-.017 4.214-.015 3.562.005 3.964.01 4.128.049M6.16 5.357c-.207.068-.393.238-.457.42-.054.152-.054 4.294 0 4.446a.723.723 0 0 0 .63.443.722.722 0 0 0 .63-.443C6.993 10.139 7 9.727 7 8c0-1.727-.007-2.139-.037-2.223a.775.775 0 0 0-.333-.369c-.116-.059-.364-.086-.47-.051m3.333 0a.742.742 0 0 0-.456.42C9.007 5.861 9 6.273 9 8c0 2.338-.007 2.238.17 2.434.274.304.72.304.993 0 .177-.196.17-.096.17-2.434 0-1.727-.006-2.139-.036-2.223a.78.78 0 0 0-.333-.369c-.116-.059-.365-.086-.471-.051" fill-rule="evenodd"/></svg>
