<svg width="24" height="24" viewBox="0 0 24 24" fill="none" xmlns="http://www.w3.org/2000/svg">

<path d="M13.5136 6.75H13.5V11.1624H13.5136C15.3321 11.1624 16.8061 12.7122 16.8061 14.625C16.8061 16.5378 15.3321 18.0884 13.5136 18.0884H13.5V22.5H13.5136C17.6485 22.5 21 18.9745 21 14.625C21 10.2755 17.6485 6.75 13.5136 6.75Z" fill="black"/>
<path d="M11.2364 16.5H11.25V12.2977H11.2364C9.41794 12.2977 7.94387 10.8217 7.94387 9C7.94387 7.17826 9.41794 5.70151 11.2364 5.70151H11.25V1.5H11.2364C7.10155 1.5 3.75 4.85765 3.75 9C3.75 13.1424 7.10155 16.5 11.2364 16.5Z" fill="black"/>
</svg>
