<svg width="20" height="20" viewBox="0 0 20 20" xmlns="http://www.w3.org/2000/svg">
    <path
        d="M14.425 7.19995H13.6875V5.77138C13.6875 3.79995 12.0355 2.19995 9.99998 2.19995C7.96448 2.19995 6.31248 3.79995 6.31248 5.77138V7.19995H5.57498C4.76373 7.19995 4.09998 7.84281 4.09998 8.62852V15.7714C4.09998 16.5571 4.76373 17.2 5.57498 17.2H14.425C15.2362 17.2 15.9 16.5571 15.9 15.7714V8.62852C15.9 7.84281 15.2362 7.19995 14.425 7.19995ZM9.99998 13.6285C9.18873 13.6285 8.52498 12.9857 8.52498 12.2C8.52498 11.4142 9.18873 10.7714 9.99998 10.7714C10.8112 10.7714 11.475 11.4142 11.475 12.2C11.475 12.9857 10.8112 13.6285 9.99998 13.6285ZM12.2862 7.19995H7.71373V5.77138C7.71373 4.54995 8.73885 3.55709 9.99998 3.55709C11.2611 3.55709 12.2862 4.54995 12.2862 5.77138V7.19995Z" />
</svg>
