<svg width="16" height="16" viewBox="0 0 16 16" xmlns="http://www.w3.org/2000/svg">
<path d="M7.99496 14.6601L8.68974 13.3582V11.3553H11.9652C12.1637 11.3553 12.2629 11.2552 12.4614 11.1551C12.5607 11.0549 12.66 10.8546 12.66 10.6543V9.55276C12.66 9.15219 12.5607 8.85176 12.2629 8.65147L11.3696 7.75018V5.24659C11.5681 5.24659 11.6674 5.14645 11.8659 5.04631C12.0644 4.94616 11.9652 4.74588 11.9652 4.64573V2.64286C11.9652 1.94186 11.3696 1.341 10.6748 1.341H5.31506C4.62028 1.24085 4.02474 1.84172 4.02474 2.64286V4.64573C4.02474 4.74588 4.124 4.94616 4.22325 5.04631C4.32251 5.14645 4.52102 5.24659 4.71953 5.24659V7.65004L3.72698 8.65147C3.52847 8.85176 3.32996 9.25233 3.32996 9.55276V10.6543C3.32996 10.8546 3.42921 10.9548 3.52847 11.1551C3.62772 11.2552 3.82623 11.3553 4.02474 11.3553H7.30017V13.3582L7.99496 14.6601ZM5.31506 2.64286H8.09421V2.54272L5.31506 2.64286Z" />
</svg>
