<svg width="16" height="16" viewBox="0 0 16 16" xmlns="http://www.w3.org/2000/svg">
<path d="M8.00001 15.1666L8.66668 13.8333V11.8333H12C12.1768 11.8333 12.3464 11.7631 12.4714 11.6381C12.5964 11.513 12.6667 11.3435 12.6667 11.1666V10.1093C12.6667 9.75865 12.524 9.41465 12.276 9.16665L11.3333 8.22398V5.83331C11.5102 5.83331 11.6797 5.76308 11.8047 5.63805C11.9298 5.51303 12 5.34346 12 5.16665V3.16665C12 2.43131 11.402 1.83331 10.6667 1.83331H5.33334C4.59801 1.83331 4.00001 2.43131 4.00001 3.16665V5.16665C4.00001 5.34346 4.07025 5.51303 4.19527 5.63805C4.3203 5.76308 4.48987 5.83331 4.66668 5.83331V8.22398L3.72401 9.16665C3.47456 9.41705 3.33415 9.75587 3.33334 10.1093V11.1666C3.33334 11.3435 3.40358 11.513 3.52861 11.6381C3.65363 11.7631 3.8232 11.8333 4.00001 11.8333H7.33334V13.8333L8.00001 15.1666ZM5.33334 3.16665H10.6667V4.49998H5.33334V3.16665ZM4.66668 10.1093L5.80468 8.97131C5.86671 8.90951 5.9159 8.83605 5.94942 8.75516C5.98294 8.67427 6.00014 8.58754 6.00001 8.49998V5.83331H10V8.49998C10 8.67731 10.07 8.84665 10.1953 8.97131L11.3333 10.1093V10.5H4.66668V10.1093Z" />
</svg>
