<svg width="24" height="24" viewBox="0 0 24 24" fill="none" xmlns="http://www.w3.org/2000/svg">

<path d="M21.8307 14.3748C21.7127 14.0174 21.4036 13.7684 21.0039 13.7087C20.8154 13.6806 20.5995 13.6926 20.3441 13.7452C19.8988 13.8371 19.5685 13.8721 19.3274 13.8788C20.2374 12.3425 20.9773 10.5905 21.4032 8.94135C22.092 6.27465 21.724 5.0598 21.2939 4.5103C20.1556 3.05584 18.4949 2.27449 16.4914 2.25058C15.4226 2.23751 14.4843 2.44853 13.9949 2.60028C13.5391 2.51987 13.0491 2.47498 12.535 2.46667C11.5712 2.4513 10.7197 2.6614 9.99208 3.0932C9.58926 2.95698 8.94275 2.76495 8.19614 2.64241C6.44018 2.35413 5.02492 2.57876 3.98973 3.31006C2.73621 4.1955 2.15512 5.73391 2.26259 7.88256C2.29672 8.56474 2.67833 10.6403 3.27918 12.6088C3.6245 13.7402 3.99272 14.6798 4.37364 15.4016C4.91383 16.4252 5.49185 17.028 6.14075 17.2445C6.50444 17.3656 7.16526 17.4505 7.86028 16.8716C7.94838 16.9783 8.06592 17.0844 8.2219 17.1828C8.42 17.3077 8.66223 17.4098 8.90416 17.4703C9.77599 17.6883 10.5926 17.6338 11.2893 17.3283C11.2936 17.4522 11.297 17.5706 11.2997 17.6728C11.3043 17.8386 11.3089 18.0012 11.315 18.1533C11.3563 19.1814 11.4263 19.9808 11.6335 20.5402C11.6449 20.5709 11.6602 20.6178 11.6763 20.6675C11.7797 20.9841 11.9526 21.5141 12.3925 21.9291C12.848 22.3591 13.3989 22.4909 13.9035 22.4909C14.1566 22.4909 14.3981 22.4577 14.6099 22.4124C15.3648 22.2505 16.2221 22.0041 16.8424 21.121C17.4288 20.2861 17.7138 19.0287 17.7654 17.0474C17.7721 16.9913 17.7782 16.9378 17.7842 16.8869L17.7965 16.7822L17.9346 16.7943L17.9702 16.7967C18.7391 16.8317 19.6793 16.6687 20.2567 16.4005C20.7129 16.1888 22.175 15.4169 21.8307 14.3748Z" fill="black"/>
<path d="M20.5161 14.5774C18.2298 15.049 18.0726 14.275 18.0726 14.275C20.4865 10.6932 21.4956 6.14659 20.6248 5.03383C18.2491 1.99844 14.1367 3.43399 14.0681 3.4712L14.046 3.4752C13.5943 3.38141 13.0888 3.3256 12.5207 3.3163C11.4862 3.29939 10.7015 3.58751 10.106 4.03907C10.106 4.03907 2.76991 1.01683 3.11116 7.84005C3.18373 9.2916 5.19169 18.8233 7.58663 15.9443C8.462 14.8915 9.30785 14.0014 9.30785 14.0014C9.72789 14.2804 10.2308 14.4228 10.758 14.3717L10.799 14.3369C10.7862 14.4676 10.7921 14.5955 10.8154 14.7468C10.1984 15.4362 10.3797 15.5572 9.14634 15.8111C7.89828 16.0683 8.63143 16.5262 9.11013 16.6459C9.69046 16.791 11.033 16.9966 11.9401 15.7267L11.904 15.8716C12.1457 16.0652 12.3154 17.131 12.287 18.0973C12.2585 19.0634 12.2395 19.7268 12.43 20.2449C12.6205 20.763 12.8103 21.9288 14.4318 21.5814C15.7865 21.2911 16.4886 20.5387 16.5863 19.2837C16.6556 18.3915 16.8125 18.5234 16.8223 17.7256L16.9482 17.348C17.0932 16.1386 16.9712 15.7484 17.8059 15.9299L18.0088 15.9477C18.623 15.9756 19.4271 15.8488 19.8991 15.6295C20.9152 15.158 21.5179 14.3705 20.5159 14.5774H20.5161Z" fill="#336791"/>
<path d="M10.5354 8.48916C10.3294 8.46049 10.1428 8.48701 10.0484 8.5585C9.9954 8.59871 9.97895 8.64529 9.97449 8.67735C9.96266 8.7623 10.0222 8.85624 10.0587 8.90467C10.1622 9.04181 10.3134 9.13606 10.463 9.15682C10.4846 9.15989 10.5062 9.16127 10.5277 9.16127C10.7771 9.16127 11.004 8.96701 11.024 8.82364C11.049 8.64406 10.7883 8.52429 10.5354 8.48916ZM17.3607 8.49485C17.341 8.35409 17.0905 8.31397 16.8528 8.34702C16.6154 8.38008 16.3853 8.48724 16.4045 8.6283C16.4199 8.738 16.618 8.92527 16.8525 8.92527C16.8723 8.92527 16.8923 8.92396 16.9124 8.92112C17.0689 8.89944 17.1838 8.80004 17.2384 8.74277C17.3214 8.65544 17.3695 8.55812 17.3607 8.49485Z" fill="white"/>
<path d="M21.2768 14.5238C21.1896 14.2602 20.909 14.1754 20.4429 14.2717C19.0587 14.5573 18.563 14.3595 18.4003 14.2396C19.4762 12.6007 20.3612 10.6194 20.8387 8.771C21.0649 7.8954 21.1898 7.08222 21.2 6.41941C21.2113 5.69195 21.0874 5.15736 20.8318 4.8308C19.8016 3.51432 18.2895 2.80815 16.4591 2.78878C15.2007 2.77464 14.1375 3.09666 13.9314 3.18722C13.4974 3.07929 13.0242 3.01302 12.5091 3.00457C11.5645 2.98927 10.7479 3.21544 10.0719 3.67645C9.77822 3.56714 9.01932 3.30661 8.09121 3.15709C6.48669 2.89879 5.21165 3.09451 4.30176 3.7391C3.21606 4.50831 2.71484 5.88329 2.81193 7.82575C2.84461 8.47926 3.21699 10.4897 3.80461 12.415C4.57812 14.9491 5.41898 16.3836 6.30365 16.6788C6.4072 16.7133 6.52658 16.7374 6.65827 16.7374C6.98099 16.7374 7.37666 16.592 7.78833 16.0971C8.29044 15.4947 8.80984 14.907 9.34588 14.3346C9.69366 14.5213 10.0757 14.6255 10.4665 14.636C10.4672 14.6462 10.4682 14.6564 10.4692 14.6666C10.4019 14.7468 10.336 14.8282 10.2716 14.9107C10.0008 15.2544 9.9445 15.3259 9.07297 15.5054C8.82505 15.5566 8.16662 15.6922 8.15694 16.1538C8.14648 16.6581 8.93529 16.8699 9.02516 16.8923C9.33835 16.9707 9.64008 17.0094 9.92782 17.0094C10.6276 17.0094 11.2434 16.7794 11.7356 16.3344C11.7205 18.1322 11.7954 19.9036 12.0113 20.4434C12.1881 20.8853 12.62 21.9651 13.9842 21.965C14.1844 21.965 14.4047 21.9417 14.6471 21.8898C16.0709 21.5846 16.6892 20.9553 16.9283 19.5679C17.0563 18.8265 17.2759 17.056 17.3793 16.1063C17.5973 16.1743 17.8779 16.2055 18.1814 16.2054C18.8142 16.2054 19.5444 16.0709 20.0024 15.8584C20.5168 15.6194 21.4451 15.0332 21.2768 14.5238ZM17.8862 8.10634C17.8815 8.3867 17.8429 8.64123 17.802 8.90691C17.7579 9.19265 17.7124 9.48808 17.701 9.8467C17.6897 10.1957 17.7333 10.5586 17.7754 10.9095C17.8606 11.6183 17.948 12.348 17.6097 13.068C17.5535 12.9684 17.5034 12.8655 17.4597 12.7598C17.4177 12.6578 17.3264 12.4941 17.1999 12.2675C16.708 11.3853 15.556 9.31934 16.1457 8.47634C16.3214 8.22542 16.7672 7.96743 17.8862 8.10634ZM16.5298 3.3565C18.1698 3.39271 19.4672 4.00624 20.3857 5.17996C21.0901 6.08024 20.3144 10.1766 18.0687 13.7106C18.0461 13.6819 18.0234 13.6533 18.0006 13.6248L17.9721 13.5893C18.5524 12.6309 18.439 11.6826 18.338 10.8419C18.2964 10.4969 18.2572 10.171 18.2672 9.86492C18.2775 9.54051 18.3204 9.26223 18.3619 8.99317C18.4129 8.66161 18.4648 8.31851 18.4505 7.91408C18.4612 7.87164 18.4655 7.82152 18.4599 7.76202C18.4234 7.37419 17.9806 6.21346 17.0781 5.1629C16.5844 4.58826 15.8644 3.9452 14.8815 3.51148C15.3043 3.42384 15.8824 3.34212 16.5298 3.3565ZM7.35268 15.7348C6.89912 16.2802 6.58593 16.1756 6.48292 16.1413C5.81181 15.9175 5.03307 14.499 4.3465 12.2496C3.75242 10.3033 3.40525 8.34619 3.37773 7.79738C3.29102 6.06171 3.71175 4.85209 4.62832 4.20204C6.12 3.14425 8.57244 3.77739 9.5579 4.09849C9.54375 4.11248 9.52899 4.12555 9.515 4.13977C7.89787 5.77289 7.93623 8.56313 7.94023 8.73371C7.94008 8.79952 7.94561 8.89269 7.95314 9.02084C7.98097 9.49016 8.03279 10.3636 7.89441 11.3528C7.76588 12.2719 8.04924 13.1716 8.67169 13.8211C8.73557 13.8876 8.80271 13.951 8.87287 14.0108C8.59581 14.3076 7.99366 14.9638 7.35268 15.7348ZM9.08074 13.4291C8.57906 12.9056 8.3512 12.1775 8.45552 11.4312C8.60158 10.3863 8.54769 9.47624 8.51871 8.98732C8.51464 8.9189 8.51102 8.85894 8.50895 8.81166C8.74518 8.60218 9.83995 8.01563 10.6207 8.19452C10.9769 8.27608 11.194 8.5187 11.2843 8.93597C11.7514 11.0964 11.3461 11.9968 11.0204 12.7204C10.9533 12.8695 10.8899 13.0104 10.8358 13.1561L10.7938 13.2688C10.6876 13.5537 10.5887 13.8187 10.5274 14.0702C9.99408 14.0686 9.47526 13.8408 9.08074 13.4291V13.4291ZM9.16261 16.3427C9.00686 16.3038 8.8668 16.2362 8.78462 16.1802C8.85327 16.1479 8.97542 16.1039 9.18729 16.0602C10.2126 15.8492 10.3709 15.7002 10.7167 15.2612C10.796 15.1605 10.8858 15.0464 11.0103 14.9074L11.0104 14.9073C11.1958 14.6997 11.2806 14.7349 11.4343 14.7987C11.5589 14.8502 11.6803 15.0064 11.7295 15.1783C11.7528 15.2595 11.779 15.4136 11.6934 15.5335C10.9711 16.5449 9.91852 16.5319 9.16261 16.3427ZM14.5284 21.3358C13.2741 21.6046 12.83 20.9646 12.5373 20.233C12.3484 19.7607 12.2556 17.6308 12.3215 15.2787C12.3223 15.2474 12.3178 15.2172 12.3092 15.1887C12.3015 15.1325 12.2898 15.077 12.2742 15.0225C12.1762 14.6803 11.9375 14.394 11.6512 14.2753C11.5374 14.2282 11.3286 14.1417 11.0777 14.2059C11.1312 13.9854 11.224 13.7364 11.3246 13.4668L11.3668 13.3534C11.4143 13.2256 11.474 13.0931 11.537 12.9529C11.8778 12.1958 12.3445 11.1589 11.838 8.81628C11.6483 7.93883 11.0147 7.51033 10.0542 7.60989C9.47841 7.66946 8.95159 7.90178 8.68883 8.035C8.63233 8.0636 8.58067 8.09127 8.53239 8.11818C8.60573 7.23412 8.88279 5.58194 9.91921 4.5366C10.5718 3.87855 11.4409 3.55353 12.4997 3.57106C14.5861 3.60519 15.924 4.6759 16.6791 5.56818C17.3298 6.337 17.6821 7.11151 17.8227 7.52925C16.7653 7.4217 16.0461 7.63041 15.6816 8.15162C14.8885 9.28537 16.1154 11.4858 16.7051 12.5434C16.8133 12.7372 16.9066 12.9047 16.936 12.9759C17.128 13.4413 17.3766 13.752 17.5581 13.9788C17.6138 14.0483 17.6678 14.1157 17.7088 14.1746C17.3886 14.2669 16.8133 14.4802 16.8657 15.5466C16.8235 16.0816 16.5228 18.5866 16.3701 19.4717C16.1684 20.641 15.7381 21.0764 14.5284 21.3359V21.3358ZM19.7638 15.3445C19.4363 15.4965 18.8883 15.6105 18.3677 15.635C17.7927 15.6619 17.5 15.5706 17.4311 15.5144C17.3988 14.8499 17.6461 14.7805 17.9078 14.707C17.949 14.6955 17.9891 14.6842 18.0278 14.6707C18.0519 14.6903 18.0783 14.7097 18.1072 14.7288C18.5694 15.0338 19.3937 15.0667 20.5575 14.8265L20.5702 14.8239C20.4133 14.9707 20.1447 15.1676 19.7638 15.3445Z" fill="white"/>
</svg>
