<svg width="24" height="24" viewBox="0 0 24 24" fill="none" xmlns="http://www.w3.org/2000/svg">
<path d="M21 1H13V22H21V1Z" fill="#DE9A34"/>
<path d="M15 7H8V22H15V7Z" fill="#F4BF3D"/>
<path d="M10 10H3V22H10V10Z" fill="#F9D669"/>
<path fill-rule="evenodd" clip-rule="evenodd" d="M10 21H15.6714V22H10V21ZM16.2002 21H16.4713H17V22H15.6714V21H16.2002Z" fill="#CD8B29"/>
<path d="M18.6047 21H19.3953H21V22H17V21H18.6047Z" fill="#BB552C"/>
<path fill-rule="evenodd" clip-rule="evenodd" d="M12.9982 8H8.32991V10H7V7H12.9982V8ZM16.2001 7H16.4712H17V8H15.6713V7H16.2001Z" fill="#CD8B29"/>
<path fill-rule="evenodd" clip-rule="evenodd" d="M13 6.25V2.3125V1H13.5253H13.8005H14.3258H19.6731H20.2109H20.4735H20.9988L21 22H16.6933V20.6875H19.6729V2.3125H14.3396V6.25H13ZM15.4665 20.6875V8.75687V7.5625H16.6923L16.6933 20.6875H15.4665Z" fill="#C0780C"/>
<path d="M4.16271 20.6667V11.3333H7.37797V10H3V22H10V20.6667H4.16271Z" fill="#DE9A34"/>
<path d="M8 10H7V12H8V10Z" fill="#EDC252"/>
</svg>
