<svg width="16" height="16" xmlns="http://www.w3.org/2000/svg"><path d="M5.16 3.284c-.044.017-.134.07-.2.118-.219.16-4.254 4.229-4.309 4.345a.671.671 0 0 0 0 .506c.07.149 4.28 4.359 4.429 4.429a.655.655 0 0 0 .505-.001c.134-.066.363-.295.429-.43a.648.648 0 0 0 .001-.504c-.033-.072-.653-.711-1.865-1.927L2.335 8 4.15 6.18c1.212-1.216 1.832-1.855 1.865-1.927a.648.648 0 0 0-.001-.504 1.264 1.264 0 0 0-.429-.428.63.63 0 0 0-.425-.037m5.333 0a1.131 1.131 0 0 0-.421.337c-.164.225-.188.408-.084.635.032.07.638.696 1.862 1.924L13.665 8 11.85 9.82c-1.212 1.216-1.832 1.855-1.865 1.927a.648.648 0 0 0 .001.504c.066.135.295.364.429.43a.655.655 0 0 0 .505.001c.149-.07 4.359-4.28 4.429-4.429a.655.655 0 0 0 0-.506c-.072-.152-4.282-4.361-4.429-4.427a.65.65 0 0 0-.427-.036" fill-rule="evenodd"/></svg>
