<svg width="16" height="16" viewBox="0 0 16 16" xmlns="http://www.w3.org/2000/svg">
<path fill-rule="evenodd" clip-rule="evenodd" d="M7.5009 5.54843C7.30591 5.51498 7.10537 5.55163 6.9348 5.65187C6.76424 5.75211 6.63466 5.90948 6.56901 6.09611C6.45877 6.40947 6.11538 6.57414 5.80201 6.46391C5.48865 6.35367 5.32398 6.01028 5.43421 5.69692C5.59414 5.2423 5.9098 4.85894 6.32529 4.61476C6.74077 4.37057 7.22927 4.28131 7.70427 4.36279C8.17926 4.44426 8.61009 4.69121 8.92045 5.0599C9.23073 5.42848 9.40058 5.89495 9.39996 6.37674C9.39973 7.1755 8.80857 7.69209 8.41252 7.95612C8.19615 8.10037 7.98406 8.20599 7.82843 8.27516C7.74976 8.31012 7.68337 8.33672 7.63523 8.35505C7.61112 8.36424 7.59144 8.37141 7.57693 8.37657L7.5591 8.38281L7.55323 8.38482L7.55108 8.38554C7.5509 8.3856 7.54948 8.38608 7.36466 7.83163L7.55108 8.38554C7.23594 8.49059 6.8937 8.32081 6.78866 8.00567C6.68361 7.69053 6.85392 7.3499 7.16907 7.24485L7.35916 7.81513C7.16907 7.24485 7.16922 7.2448 7.16907 7.24485L7.16798 7.24522L7.17393 7.24312C7.18051 7.24078 7.19175 7.23671 7.20699 7.2309C7.23756 7.21926 7.28361 7.20088 7.33986 7.17588C7.45409 7.12511 7.6018 7.05082 7.74524 6.9552C8.06871 6.73955 8.19701 6.53669 8.19701 6.37625C8.1973 6.17841 8.12757 5.98596 8.00016 5.8346C7.87275 5.68325 7.69589 5.58188 7.5009 5.54843ZM6.77634 9.73586C6.77634 9.40367 7.04564 9.13437 7.37782 9.13437H7.38422C7.71641 9.13437 7.9857 9.40367 7.9857 9.73586C7.9857 10.0681 7.71641 10.3374 7.38422 10.3374H7.37782C7.04564 10.3374 6.77634 10.0681 6.77634 9.73586Z" />
<path fill-rule="evenodd" clip-rule="evenodd" d="M7.33333 2.33333C4.5719 2.33333 2.33333 4.5719 2.33333 7.33333C2.33333 10.0948 4.5719 12.3333 7.33333 12.3333C8.67543 12.3333 9.894 11.8045 10.7921 10.944C10.8128 10.9153 10.8361 10.8878 10.862 10.862C10.8878 10.8361 10.9153 10.8128 10.944 10.7921C11.8045 9.894 12.3333 8.67543 12.3333 7.33333C12.3333 4.5719 10.0948 2.33333 7.33333 2.33333ZM12.2583 11.3155C13.1391 10.2276 13.6666 8.8421 13.6666 7.33333C13.6666 3.83553 10.8312 1 7.33333 1C3.83553 1 1 3.83553 1 7.33333C1 10.8312 3.83553 13.6666 7.33333 13.6666C8.8421 13.6666 10.2276 13.1391 11.3155 12.2583L13.1953 14.1381C13.4556 14.3984 13.8777 14.3984 14.1381 14.1381C14.3984 13.8777 14.3984 13.4556 14.1381 13.1953L12.2583 11.3155Z" />
</svg>
