<svg width="20px" height="20px" viewBox="0 0 20 20" xmlns="http://www.w3.org/2000/svg">
    <path d="M10.9836245,14 C10.9836245,13.5075239 11.0238355,13.1094391 11.1042576,12.7674419 C11.1846798,12.4254446 11.2991266,12.127907 11.4475983,11.874829 C11.5960699,11.621751 11.7692868,11.3926129 11.9672489,11.1874145 C12.1652111,10.9822161 12.3817322,10.7701778 12.6168122,10.5512996 C12.8147744,10.3597811 13.0127365,10.1648427 13.2106987,9.96648427 C13.4086608,9.76812585 13.5849709,9.54240766 13.7396288,9.28932969 C13.8942868,9.03625171 14.0180131,8.73529412 14.1108079,8.38645691 C14.2036026,8.0376197 14.25,7.62380301 14.25,7.14500684 C14.25,6.48837209 14.1448326,5.9001368 13.9344978,5.38030096 C13.724163,4.86046512 13.4364993,4.42612859 13.0715066,4.07729138 C12.7065138,3.72845417 12.2796579,3.46169631 11.7909389,3.27701778 C11.3022198,3.09233926 10.7732897,3 10.2041485,3 C9.52365357,3 8.90811499,3.11969904 8.35753275,3.35909713 C7.80695051,3.59849521 7.33679039,3.9370725 6.9470524,4.374829 C6.55731441,4.8125855 6.26037118,5.33926129 6.05622271,5.95485636 C5.85207424,6.57045144 5.75,7.25444596 5.75,8.00683995 L7.86572052,8.00683995 C7.86572052,7.07660739 8.04821689,6.33447332 8.41320961,5.78043776 C8.77820233,5.22640219 9.34425036,4.9493844 10.1113537,4.9493844 C10.272198,4.9493844 10.4577875,4.99042408 10.6681223,5.07250342 C10.8784571,5.15458276 11.0764192,5.28454172 11.2620087,5.4623803 C11.4475983,5.64021888 11.6053493,5.87619699 11.735262,6.17031464 C11.8651747,6.46443228 11.930131,6.81668947 11.930131,7.22708618 C11.930131,7.56908345 11.8899199,7.86320109 11.8094978,8.10943912 C11.7290757,8.35567715 11.617722,8.57797538 11.4754367,8.77633379 C11.3331514,8.9746922 11.1723071,9.15595075 10.9929039,9.32010944 C10.8135007,9.48426813 10.624818,9.6621067 10.4268559,9.85362517 C10.1794032,10.0861833 9.96597525,10.3221614 9.78657205,10.5615595 C9.60716885,10.8009576 9.45560408,11.0779754 9.33187773,11.3926129 C9.20815138,11.7072503 9.11844978,12.0731874 9.06277293,12.4904241 C9.02565502,12.7685819 8.99781659,13.2717738 8.97925764,14 L10.9836245,14 Z M11.25,17.4 L11.25,15 L8.85,15 L8.85,17.4 L11.25,17.4 Z"  ></path>
</svg>
