<svg width="16" height="16" viewBox="0 1 16 16" fill="none" xmlns="http://www.w3.org/2000/svg">
<path fill-rule="evenodd" clip-rule="evenodd" d="M9.52903 1.65343C9.529 1.78314 9.49021 1.90991 9.4176 2.01758C9.34498 2.12526 9.24182 2.20897 9.12126 2.25806C9.0007 2.30715 8.8682 2.31939 8.74063 2.29322C8.61306 2.26705 8.4962 2.20366 8.40493 2.11112C8.31367 2.01858 8.25213 1.90108 8.22815 1.77359C8.20418 1.64609 8.21885 1.51438 8.27031 1.39522C8.32176 1.27607 8.40767 1.17486 8.51709 1.10449C8.6265 1.03413 8.75447 0.997788 8.8847 1.0001C9.05665 1.00316 9.22053 1.07334 9.34104 1.19554C9.46154 1.31773 9.52905 1.48216 9.52903 1.65343ZM7.12745 4.08007C7.30122 4.08007 7.47109 4.02876 7.61558 3.93261C7.76007 3.83647 7.87269 3.69981 7.93919 3.53993C8.00569 3.38004 8.02309 3.20411 7.98919 3.03438C7.95529 2.86465 7.87161 2.70874 7.74873 2.58637C7.62585 2.464 7.46929 2.38067 7.29886 2.3469C7.12842 2.31314 6.95176 2.33047 6.79121 2.3967C6.63066 2.46292 6.49344 2.57507 6.39689 2.71896C6.30035 2.86286 6.24882 3.03203 6.24882 3.20508C6.24882 3.43714 6.34139 3.6597 6.50616 3.8238C6.67094 3.98789 6.89442 4.08007 7.12745 4.08007ZM12.8209 13.1217L9.89219 8.6417V6.25005C9.98318 6.26128 10.0755 6.25249 10.1627 6.22431C10.2499 6.19612 10.3299 6.14922 10.3969 6.08693C10.4639 6.02463 10.5164 5.94844 10.5507 5.86374C10.5849 5.77904 10.6001 5.6879 10.5951 5.59673C10.6015 5.52007 10.5926 5.44292 10.569 5.36969C10.5453 5.29647 10.5073 5.22863 10.4573 5.17008C10.4072 5.11153 10.346 5.06342 10.2771 5.02852C10.2083 4.99362 10.1332 4.97262 10.0562 4.96673H6.01452C5.85917 4.96673 5.71018 5.02819 5.60033 5.13759C5.49048 5.24698 5.42877 5.39535 5.42877 5.55006C5.42731 5.57434 5.42731 5.59869 5.42877 5.62298C5.42481 5.71388 5.44067 5.80456 5.47526 5.88878C5.50985 5.973 5.56235 6.04875 5.62914 6.11084C5.69594 6.17292 5.77544 6.21986 5.86219 6.24842C5.94894 6.27699 6.04088 6.2865 6.13167 6.2763V8.70003L3.20291 13.1333C3.08361 13.3153 3.01433 13.5253 3.00199 13.7423C2.98966 13.9593 3.0347 14.1757 3.13262 14.37C3.22829 14.5603 3.37555 14.7202 3.55775 14.8316C3.73994 14.9429 3.94979 15.0012 4.16354 15H11.8135C12.0273 15.0016 12.2373 14.9434 12.4195 14.832C12.6018 14.7206 12.749 14.5606 12.8444 14.37C12.9538 14.1802 13.0075 13.9636 12.9992 13.7449C12.9909 13.5263 12.921 13.3143 12.7975 13.1333L12.8209 13.1217ZM7.31489 9.03836V6.36672H8.72069V9.07336L10.1031 11.2667H5.9208L7.31489 9.03836Z" fill="black"/>
</svg>
