<svg width="20" height="20" viewBox="0 0 20 20"  xmlns="http://www.w3.org/2000/svg">

        <path
            d="M6.45997 5.78002C6.47497 6.02646 6.47497 6.27358 6.45997 6.52002C6.45913 6.61032 6.47741 6.69977 6.5136 6.78249C6.54979 6.86522 6.60308 6.93935 6.66997 7.00002C6.90707 7.21586 7.19127 7.37337 7.49997 7.46002C8.23177 7.70269 8.99906 7.82099 9.76997 7.81002C10.5212 7.82902 11.2716 7.7449 12 7.56002C12.3577 7.47146 12.6965 7.31901 13 7.11002C13.0998 7.03889 13.1803 6.94409 13.2344 6.83413C13.2886 6.72417 13.3145 6.60249 13.31 6.48002C13.31 6.20002 13.31 5.91002 13.31 5.63002C13.31 5.5002 13.2679 5.37388 13.19 5.27002C13.0025 5.05395 12.7609 4.89172 12.49 4.80002C11.9533 4.58466 11.3867 4.45312 10.81 4.41002C9.93919 4.32167 9.06023 4.35871 8.19997 4.52002C7.74955 4.60762 7.31693 4.76986 6.91997 5.00002C6.77433 5.06944 6.65275 5.18077 6.57079 5.31974C6.48883 5.4587 6.45025 5.61898 6.45997 5.78002V5.78002Z"
            />
        <path
            d="M12.9201 7.74008L12.5701 7.94008C11.9041 8.20786 11.1972 8.36005 10.4801 8.39008C9.8729 8.43025 9.26325 8.41015 8.66006 8.33008C8.14149 8.27379 7.63516 8.1354 7.16006 7.92008C6.86617 7.81351 6.62097 7.60385 6.47006 7.33008C6.47006 7.83008 6.47006 8.33008 6.47006 8.81008C6.46709 8.93725 6.49568 9.06318 6.55327 9.1766C6.61085 9.29003 6.69564 9.38742 6.80006 9.46008C7.10349 9.66482 7.44272 9.81069 7.80006 9.89008C8.35151 10.0415 8.9186 10.1287 9.49006 10.1501C10.3352 10.1946 11.182 10.1069 12.0001 9.89008C12.3596 9.80696 12.6994 9.65407 13.0001 9.44008C13.0923 9.3803 13.1688 9.29903 13.2228 9.20324C13.2767 9.10744 13.3067 8.99999 13.3101 8.89008C13.3101 8.40008 13.3101 7.35008 13.3101 7.33008C13.2173 7.49787 13.083 7.63905 12.9201 7.74008V7.74008Z"
            />
        <path
            d="M12.23 4.27993C12.5856 4.37433 12.9234 4.52634 13.23 4.72993C13.4037 4.83358 13.5481 4.9798 13.6496 5.15477C13.751 5.32974 13.8062 5.52769 13.81 5.72993C13.81 5.78993 13.81 5.78993 13.88 5.79993C14.4393 5.91849 15.0084 5.98544 15.58 5.99993H16.35C16.814 5.96954 17.2733 5.88908 17.72 5.75993C18.0805 5.67427 18.4204 5.51792 18.72 5.29993C18.8226 5.22613 18.903 5.12554 18.9524 5.00915C19.0018 4.89276 19.0182 4.76503 19 4.63993C19 4.35993 19 4.07993 19 3.79993C19.0039 3.70046 18.9842 3.60147 18.9425 3.51108C18.9008 3.42069 18.8382 3.34148 18.76 3.27993C18.5625 3.10455 18.331 2.97178 18.08 2.88993C17.3386 2.62628 16.5568 2.49429 15.77 2.49993C15.35 2.49993 14.92 2.49993 14.5 2.55993C14.0138 2.60437 13.536 2.71541 13.08 2.88993C12.8007 2.97982 12.5447 3.13003 12.33 3.32993C12.2717 3.38934 12.2259 3.45969 12.195 3.53693C12.1641 3.61416 12.1488 3.69675 12.15 3.77993C12.16 3.91307 12.16 4.04678 12.15 4.17993C12.15 4.23993 12.18 4.25993 12.23 4.27993Z"
            />
        <path
            d="M19 5.46997C18.8875 5.67723 18.7173 5.84743 18.51 5.95997C18.4096 6.01587 18.3061 6.06595 18.2 6.10997C17.6097 6.34627 16.9849 6.48475 16.35 6.51997C15.5956 6.58677 14.8356 6.55314 14.09 6.41997H13.77V8.10997H13.83C14.22 8.16997 14.61 8.22997 15.01 8.25997C15.5121 8.30997 16.0179 8.30997 16.52 8.25997C17.0712 8.21146 17.613 8.08695 18.13 7.88997C18.381 7.8046 18.6098 7.66456 18.8 7.47997C18.8656 7.41881 18.9174 7.34435 18.9519 7.26157C18.9863 7.17879 19.0028 7.0896 19 6.99997C19 6.68997 19 5.65997 19 5.46997Z"
            />
        <path
            d="M18.67 8.22009C18.3919 8.41576 18.08 8.55817 17.75 8.64009C17.2087 8.79142 16.6516 8.87869 16.09 8.90009C15.4213 8.94126 14.7501 8.90435 14.09 8.79009H13.8V10.5001L14.46 10.6001V14.8301C14.1658 14.9677 13.9263 15.2001 13.78 15.4901H11.14C10.9956 15.1928 10.7514 14.9557 10.45 14.8201V12.4901C10.8357 12.4719 11.2199 12.4285 11.6 12.3601C12.0379 12.2953 12.4591 12.1459 12.84 11.9201C12.9872 11.8472 13.1095 11.7323 13.1914 11.5899C13.2733 11.4475 13.3111 11.284 13.3 11.1201C13.3 10.6801 13.3 9.73009 13.3 9.70009C13.1373 9.98409 12.8784 10.2005 12.57 10.3101C12.1016 10.511 11.6064 10.6424 11.1 10.7001C10.4353 10.7729 9.76464 10.7729 9.09997 10.7001C8.51598 10.6604 7.9404 10.5392 7.38997 10.3401C7.20406 10.2879 7.03046 10.1991 6.87935 10.0789C6.72823 9.95866 6.60265 9.80948 6.50997 9.64009C6.50997 10.2001 6.50997 10.7401 6.50997 11.2801C6.51746 11.3807 6.55201 11.4775 6.60997 11.5601C6.72866 11.7499 6.89849 11.9024 7.09997 12.0001C7.65047 12.2586 8.24351 12.4145 8.84997 12.4601H9.23997V14.8001C8.94861 14.9383 8.7125 15.1708 8.56997 15.4601H5.99997C5.85903 15.1662 5.61793 14.9322 5.31997 14.8001V10.6001H5.39997C5.68997 10.6001 5.96997 10.5201 6.26997 10.4701V8.74009H5.97997C5.31984 8.85435 4.64864 8.89127 3.97997 8.85009C3.41836 8.82869 2.86122 8.74142 2.31997 8.59009C1.98997 8.50817 1.67803 8.36576 1.39997 8.17009C1.23994 8.09717 1.10196 7.98335 0.999966 7.84009C0.999966 8.00009 0.999966 9.00009 0.999966 9.36009C0.995262 9.47341 1.0194 9.58607 1.07012 9.68751C1.12085 9.78895 1.19649 9.87586 1.28997 9.94009C1.59132 10.1573 1.93041 10.3167 2.28997 10.4101C2.78318 10.5443 3.28945 10.6248 3.79997 10.6501H4.07997V14.8201C3.83611 14.9284 3.62887 15.105 3.48333 15.3286C3.3378 15.5523 3.26021 15.8133 3.25997 16.0801C3.25849 16.4045 3.36811 16.7196 3.57061 16.973C3.77311 17.2264 4.05627 17.4029 4.37299 17.473C4.68971 17.5431 5.02089 17.5027 5.31144 17.3584C5.60199 17.2142 5.83438 16.9748 5.96997 16.6801H8.56997C8.68681 16.9229 8.86991 17.1278 9.09814 17.2711C9.32638 17.4145 9.59047 17.4904 9.85997 17.4901C10.1283 17.4909 10.3912 17.415 10.618 17.2716C10.8447 17.1281 11.0258 16.9229 11.14 16.6801H13.75C13.8892 16.9714 14.123 17.2069 14.4131 17.3485C14.7033 17.49 15.0328 17.5292 15.3481 17.4596C15.6634 17.3901 15.9458 17.2159 16.1495 16.9654C16.3532 16.7149 16.4662 16.4029 16.47 16.0801C16.4685 15.8136 16.3904 15.5531 16.245 15.3297C16.0996 15.1063 15.8931 14.9294 15.65 14.8201V10.6701C15.8365 10.6799 16.0234 10.6799 16.21 10.6701C16.7205 10.6448 17.2268 10.5643 17.72 10.4301C18.0795 10.3367 18.4186 10.1773 18.72 9.96009C18.8146 9.8929 18.8902 9.80227 18.9393 9.69709C18.9883 9.59191 19.0093 9.47578 19 9.36009C19 9.00009 19 8.00009 19 7.84009C18.9242 7.99282 18.8106 8.12363 18.67 8.22009V8.22009Z"
            />
        <path
            d="M2.28006 5.68993C2.72674 5.81908 3.18607 5.89954 3.65006 5.92993H4.42006C5.00441 5.92449 5.58696 5.86423 6.16006 5.74993C6.16006 5.74993 6.23006 5.74993 6.23006 5.67993C6.23377 5.47769 6.28898 5.27974 6.39047 5.10477C6.49195 4.9298 6.63636 4.78358 6.81006 4.67993C7.11658 4.47634 7.45439 4.32433 7.81006 4.22993C7.86006 4.22993 7.89006 4.22993 7.89006 4.12993C7.88005 3.99678 7.88005 3.86307 7.89006 3.72993C7.89125 3.64675 7.87595 3.56416 7.84506 3.48693C7.81417 3.40969 7.76828 3.33934 7.71006 3.27993C7.49535 3.08003 7.2393 2.92982 6.96006 2.83993C6.48886 2.67885 5.99741 2.5846 5.50006 2.55993C5.08006 2.55993 4.65006 2.49993 4.23006 2.49993C3.44321 2.49429 2.66144 2.62628 1.92006 2.88993C1.66898 2.97178 1.43749 3.10455 1.24006 3.27993C1.16181 3.34148 1.09927 3.42069 1.05755 3.51108C1.01583 3.60147 0.99613 3.70046 1.00006 3.79993C1.00006 4.07993 1.00006 4.35993 1.00006 4.63993C0.995499 4.75463 1.01963 4.86866 1.07027 4.97169C1.12091 5.07471 1.19645 5.16347 1.29006 5.22993C1.58668 5.44673 1.92307 5.60303 2.28006 5.68993V5.68993Z"
            />
        <path
            d="M1.20005 7.47997C1.39027 7.66456 1.61912 7.8046 1.87005 7.88997C2.38709 8.08695 2.92889 8.21146 3.48005 8.25997C3.98478 8.31729 4.49398 8.32399 5.00005 8.27997C5.40005 8.27997 5.79005 8.18997 6.18005 8.12997H6.24005V6.36997H5.92005C5.17446 6.50314 4.41449 6.53677 3.66005 6.46997C3.02461 6.45183 2.39637 6.33023 1.80005 6.10997C1.69478 6.079 1.5913 6.04228 1.49005 5.99997C1.277 5.87677 1.10619 5.69202 1.00005 5.46997C1.00005 5.65997 1.00005 6.68997 1.00005 6.99997C0.997306 7.0896 1.01373 7.17879 1.04822 7.26157C1.08271 7.34435 1.13447 7.41881 1.20005 7.47997V7.47997Z"
            />

</svg>
