<svg width="20" height="20" viewBox="0 0 20 20" xmlns="http://www.w3.org/2000/svg">
    <path
        d="M1 3.35564C1.089 3.13335 1.22373 2.93147 1.39579 2.76259C1.56785 2.59371 1.77353 2.46147 2 2.37411C2.80418 1.99954 3.6657 1.75746 4.55 1.6576C5.54387 1.52339 6.54923 1.49049 7.55 1.55945C8.73893 1.59854 9.90957 1.85831 11 2.32504C11.3493 2.46566 11.6509 2.70046 11.87 3.00229C11.9624 3.13375 12.0208 3.28536 12.04 3.44398C12.04 3.82677 12.04 4.21938 12.04 4.6218L11.37 4.70033C10.3273 4.79403 9.31068 5.07342 8.37 5.52481C7.91215 5.73749 7.52921 6.07918 7.27 6.50633C7.18 6.68301 7.13 6.87931 7.04 7.09525H5.94C4.99014 7.06608 4.04704 6.92772 3.13 6.68301C2.58412 6.54046 2.0668 6.30815 1.6 5.99594C1.30964 5.8187 1.09603 5.54264 1 5.22053V3.35564Z"
            />
    <path
        d="M11.78 18.4215C10.8166 18.3313 9.87615 18.079 8.99998 17.6755C8.65557 17.536 8.35771 17.3049 8.13998 17.0081C8.0488 16.8769 7.99368 16.7247 7.97998 16.5664C7.97998 15.6929 7.97998 14.8193 7.97998 13.9065C8.13105 14.1795 8.33631 14.42 8.58363 14.6139C8.83095 14.8077 9.11533 14.951 9.41998 15.0352C10.3077 15.3678 11.2416 15.5664 12.19 15.6242C13.2857 15.724 14.3895 15.701 15.48 15.5555C16.281 15.4556 17.0627 15.2407 17.8 14.9175C18.3088 14.7454 18.7358 14.3962 19 13.9359C19 14.0046 19 15.5358 19 16.2425C19.0176 16.5042 18.9558 16.7651 18.8223 16.9922C18.6888 17.2194 18.4896 17.4025 18.25 17.5185C17.6362 17.8809 16.9573 18.1241 16.25 18.235C14.7762 18.5024 13.2715 18.5651 11.78 18.4215Z"
            />
    <path
        d="M1 10.0786C1.15478 10.3554 1.36467 10.5988 1.6172 10.7944C1.86973 10.99 2.15974 11.1338 2.47 11.2172C3.62193 11.6229 4.83614 11.8321 6.06 11.8355H7.13V14.6721H6.67C5.34201 14.7044 4.01766 14.5221 2.75 14.1323C2.40559 14.0144 2.07122 13.87 1.75 13.7004C1.39519 13.5191 1.12621 13.2093 1 12.8367V10.0786Z"
            />
    <path
        d="M1 6.25049C1.14946 6.53122 1.35768 6.77777 1.61101 6.97399C1.86435 7.17021 2.15707 7.31165 2.47 7.38906C3.62285 7.80873 4.84051 8.03116 6.07 8.04668C6.42 8.04668 6.77 8.04668 7.13 8.04668V10.8637H6.8C5.42505 10.9154 4.05136 10.7328 2.74 10.3238C2.39755 10.2011 2.06352 10.0569 1.74 9.89194C1.38897 9.7086 1.12381 9.39909 1 9.0282V6.25049Z"
            />
    <path
        d="M13.27 10.9128C12.0241 10.9201 10.785 10.7312 9.6 10.3533C9.09954 10.2052 8.63856 9.95052 8.25 9.60735C8.13859 9.50908 8.0511 9.3875 7.99398 9.25159C7.93686 9.11568 7.91158 8.96891 7.92 8.82213C7.92 8.4197 7.92 8.01728 7.92 7.61485C7.89581 7.35333 7.95253 7.09072 8.08276 6.86134C8.21299 6.63195 8.41068 6.44645 8.65 6.32906C9.29184 5.96887 9.99207 5.71985 10.72 5.59291C12.129 5.31886 13.5725 5.25928 15 5.41624C15.9193 5.50487 16.8195 5.72991 17.67 6.08367C18.108 6.23823 18.4975 6.50208 18.8 6.84926C18.9242 7.01767 18.9908 7.22045 18.99 7.42836C18.99 7.88968 18.99 8.351 18.99 8.8025C18.9967 8.99406 18.9545 9.18423 18.8672 9.35567C18.7798 9.52711 18.6502 9.67437 18.49 9.78402C18.0047 10.1172 17.463 10.3632 16.89 10.5103C15.7088 10.812 14.49 10.9475 13.27 10.9128Z"
            />
    <path
        d="M7.92004 10.1277C8.16636 10.5759 8.56681 10.9238 9.05004 11.1092C9.81955 11.4513 10.64 11.67 11.48 11.757C12.4533 11.8962 13.4389 11.9324 14.42 11.865C15.586 11.8217 16.7343 11.5723 17.81 11.1288C18.0088 11.0364 18.1994 10.9281 18.38 10.8049C18.6369 10.6429 18.8442 10.4157 18.98 10.1473C18.98 10.1473 18.98 11.8748 18.98 12.6796C18.9739 12.8552 18.9254 13.0269 18.8385 13.1805C18.7516 13.3341 18.6287 13.4652 18.48 13.563C18.0123 13.8989 17.4825 14.1422 16.92 14.2795C15.5531 14.6451 14.1341 14.7877 12.72 14.7016C11.7979 14.6619 10.8842 14.5102 10 14.2501C9.45025 14.1134 8.93134 13.8771 8.47004 13.5532C8.29671 13.4381 8.15676 13.2808 8.06386 13.0967C7.97097 12.9127 7.92831 12.7081 7.94004 12.503C7.94004 11.7178 7.92004 10.9227 7.92004 10.1277Z"
            />
</svg>
