<svg width="20" height="20" viewBox="0 0 20 20" xmlns="http://www.w3.org/2000/svg">

        <path
            d="M4.73948 18.4999C3.91781 18.4324 3.11492 18.2181 2.36892 17.8671C2.07866 17.7538 1.82877 17.5565 1.65114 17.3004C1.57695 17.1872 1.53156 17.0575 1.51892 16.9227C1.51892 16.1766 1.51892 15.4399 1.51892 14.656C1.64484 14.8862 1.81601 15.0885 2.02214 15.2508C2.22826 15.4131 2.46509 15.532 2.71837 15.6004C3.46431 15.8795 4.24701 16.0482 5.0417 16.101C5.95701 16.186 6.879 16.167 7.79003 16.0443C8.47746 15.9655 9.14919 15.784 9.78281 15.506C10.2063 15.3588 10.5599 15.0591 10.7745 14.6654C10.7745 14.7221 10.7745 16.0254 10.7745 16.6204C10.792 16.8444 10.742 17.0686 10.6308 17.2638C10.5197 17.4591 10.3526 17.6166 10.1511 17.716C9.63503 18.0259 9.06441 18.2343 8.47003 18.3299C7.23877 18.5447 5.98517 18.6018 4.73948 18.4999Z"
            />
        <path
            d="M5.98611 12.0684C4.94399 12.0804 3.90699 11.9209 2.91667 11.5962C2.49326 11.4703 2.10515 11.2471 1.78333 10.9445C1.69014 10.8621 1.61638 10.7601 1.56738 10.6458C1.51839 10.5315 1.49537 10.4077 1.5 10.2834C1.5 9.94341 1.5 9.60341 1.5 9.26341C1.48249 9.03941 1.53252 8.8153 1.64363 8.62002C1.75474 8.42473 1.92183 8.26724 2.12333 8.16785C2.65723 7.85773 3.24273 7.64656 3.85167 7.54452C5.01727 7.31187 6.21146 7.25773 7.39333 7.38396C8.17405 7.44653 8.94113 7.62477 9.66945 7.91285C10.0368 8.04191 10.3629 8.26691 10.6139 8.56452C10.7241 8.70449 10.784 8.87748 10.7839 9.05563C10.7839 9.4523 10.7839 9.83952 10.7839 10.2362C10.7945 10.4028 10.7607 10.5692 10.6861 10.7185C10.6114 10.8678 10.4985 10.9947 10.3589 11.0862C9.9674 11.3739 9.52526 11.5853 9.05556 11.7095C8.0547 11.9746 7.02113 12.0954 5.98611 12.0684Z"
            />
        <path
            d="M1.50002 11.4072C1.70949 11.7784 2.04429 12.063 2.44446 12.2099C3.0872 12.503 3.77275 12.6911 4.47502 12.7672C5.29531 12.875 6.12459 12.8972 6.94947 12.8333C7.92353 12.7962 8.88311 12.5851 9.7828 12.2099C9.9514 12.1336 10.1126 12.0419 10.2645 11.9361C10.4777 11.7965 10.6478 11.6003 10.7556 11.3694C10.7556 11.3694 10.7556 12.8427 10.7556 13.5227C10.7513 13.6726 10.7113 13.8193 10.6391 13.9507C10.5668 14.0821 10.4643 14.1944 10.34 14.2783C9.95914 14.574 9.52216 14.7893 9.05558 14.9111C7.91223 15.2234 6.72513 15.3447 5.54224 15.2699C4.7623 15.2451 3.98835 15.1246 3.2378 14.9111C2.7768 14.7931 2.34141 14.5914 1.95335 14.3161C1.80815 14.2192 1.69022 14.0868 1.61085 13.9313C1.53148 13.7759 1.49332 13.6027 1.50002 13.4283C1.50002 12.7483 1.50002 12.0777 1.50002 11.4072Z"
            />
        <path
            d="M9.74503 1.604C10.4604 1.68669 11.1583 1.88109 11.8134 2.18011C12.0647 2.29789 12.2921 2.4612 12.4839 2.66178C12.6266 2.81943 12.7042 3.02529 12.7011 3.23789C12.7011 3.53066 12.7011 3.83289 12.7011 4.18233L11.8889 4.239C11.0451 4.33384 10.2274 4.59037 9.48058 4.99455C9.1335 5.17193 8.84979 5.45235 8.66836 5.79733C8.62291 5.93684 8.58508 6.07872 8.55503 6.22233C8.28114 6.22233 7.98836 6.22233 7.69558 6.22233C7.01578 6.20996 6.33883 6.13087 5.67447 5.98622C5.07417 5.88015 4.50009 5.65886 3.98392 5.33455C3.85164 5.24619 3.73106 5.14147 3.62503 5.02289C3.5518 4.95741 3.493 4.87742 3.45235 4.78799C3.41171 4.69857 3.3901 4.60166 3.38892 4.50344C3.38892 4.05955 3.38892 3.61566 3.38892 3.17178C3.39241 3.05647 3.42131 2.94336 3.47355 2.84051C3.52579 2.73766 3.60009 2.64761 3.69114 2.57678C3.94493 2.34262 4.24379 2.16266 4.56947 2.04789C5.20139 1.79667 5.86616 1.63763 6.54336 1.57566C7.60822 1.46409 8.6823 1.4736 9.74503 1.604Z"
            />
        <path
            d="M13.8628 9.52784C13.0728 9.52184 12.2853 9.43961 11.5111 9.28229C11.4544 9.28229 11.4072 9.28229 11.4072 9.18784C11.4028 8.91196 11.3286 8.64168 11.1915 8.40222C11.0545 8.16276 10.859 7.96191 10.6233 7.8184C10.2277 7.53669 9.79134 7.31694 9.32943 7.16673C9.3124 7.16563 9.29578 7.16098 9.28064 7.15309C9.2655 7.1452 9.25217 7.13424 9.2415 7.12091C9.23084 7.10758 9.22307 7.09217 9.2187 7.07567C9.21432 7.05916 9.21344 7.04193 9.2161 7.02507C9.22555 6.8426 9.22555 6.65976 9.2161 6.47729C9.21586 6.24867 9.30382 6.02878 9.46166 5.8634C9.75214 5.59734 10.0969 5.39755 10.4722 5.27784C11.0787 5.04462 11.7142 4.89528 12.3611 4.83396C12.9372 4.83396 13.5133 4.73951 14.0894 4.74895C15.151 4.74484 16.2053 4.92376 17.2061 5.27784C17.5545 5.3952 17.8757 5.5815 18.1505 5.82562C18.2573 5.91108 18.3422 6.02079 18.398 6.14563C18.4539 6.27047 18.4791 6.40684 18.4717 6.5434C18.4717 6.92118 18.4717 7.3084 18.4717 7.68618C18.4787 7.84393 18.4461 8.00093 18.3768 8.14282C18.3075 8.28472 18.2037 8.40697 18.075 8.4984C17.675 8.79147 17.2232 9.00617 16.7433 9.13118C16.1272 9.3081 15.494 9.41891 14.8544 9.46173L13.8628 9.52784Z"
            />
        <path
            d="M11.4166 12.4745V10.0756L11.8416 10.1512C12.8547 10.3288 13.887 10.3701 14.9111 10.2739C15.7701 10.226 16.6156 10.0377 17.4138 9.71671C17.5569 9.65698 17.6958 9.58756 17.8294 9.50893C18.1203 9.36484 18.3559 9.12927 18.5 8.83838C18.5 9.10282 18.5 10.51 18.5 10.9539C18.499 11.1971 18.4043 11.4305 18.2355 11.6056C17.9638 11.8585 17.642 12.0515 17.2911 12.1723C16.5901 12.4377 15.856 12.6062 15.1094 12.6728C14.4276 12.7342 13.7417 12.7342 13.06 12.6728C12.5311 12.6728 12.0022 12.5312 11.4638 12.465L11.4166 12.4745Z"
            />
        <path
            d="M11.4166 15.7611V13.3339L11.8038 13.4C12.7104 13.5621 13.6329 13.616 14.5522 13.5606C15.3126 13.5264 16.0667 13.406 16.8 13.2017C17.2512 13.0856 17.6771 12.8871 18.0561 12.6161C18.247 12.4849 18.4001 12.3057 18.5 12.0967C18.5 12.2572 18.5 13.655 18.5 14.1839C18.5049 14.3377 18.4722 14.4903 18.4047 14.6286C18.3373 14.7669 18.237 14.8865 18.1127 14.9772C17.7119 15.2826 17.252 15.5013 16.7622 15.6195C16.094 15.811 15.4067 15.9282 14.7127 15.9689C14.0057 16.0303 13.2947 16.0303 12.5877 15.9689C12.2005 15.8933 11.8133 15.8178 11.4166 15.7611Z"
            />
        <path
            d="M3.38892 6.99668V5.54224L3.4928 5.74057C3.64924 5.94316 3.8494 6.10781 4.07836 6.22224C4.49403 6.4512 4.93882 6.62276 5.40058 6.73224L3.38892 6.99668Z"
            />

</svg>
