<svg width="20" height="20" viewBox="0 0 20 20"  xmlns="http://www.w3.org/2000/svg">
<path d="M12.9 1.6001H3.70003C3.23497 1.65804 2.8066 1.88237 2.4941 2.23163C2.1816 2.5809 2.0061 3.03148 2.00003 3.5001V16.7001C1.9987 16.9237 2.04177 17.1454 2.12673 17.3522C2.21169 17.5591 2.33687 17.747 2.49499 17.9051C2.65311 18.0633 2.84105 18.1884 3.0479 18.2734C3.25475 18.3584 3.47641 18.4014 3.70003 18.4001H16.3C16.5236 18.4014 16.7453 18.3584 16.9522 18.2734C17.159 18.1884 17.3469 18.0633 17.5051 17.9051C17.6632 17.747 17.7884 17.5591 17.8733 17.3522C17.9583 17.1454 18.0014 16.9237 18 16.7001V6.7001L12.9 1.6001ZM3.70003 16.7001V3.5001H12.1V7.6001H16.3V16.7001H14.25V10.8501H12.85V16.7001H12V12.5501H10.6V16.7001H9.60003V13.4501H8.15003V16.7001H3.70003ZM7.50003 8.5001H5.00003C5.06568 7.85944 5.35016 7.261 5.80555 6.80561C6.26093 6.35023 6.85937 6.06574 7.50003 6.0001V8.5001ZM7.50003 11.5001V9.0001H5.00003C5.06568 9.64075 5.35016 10.2392 5.80555 10.6946C6.26093 11.15 6.85937 11.4345 7.50003 11.5001ZM10.5 8.7501C10.5075 9.43944 10.254 10.1061 9.79023 10.6162C9.3265 11.1263 8.68696 11.4421 8.00003 11.5001V6.0001C8.68696 6.05814 9.3265 6.37391 9.79023 6.88401C10.254 7.39411 10.5075 8.06076 10.5 8.7501V8.7501Z" />
</svg>