<svg width="20" height="20" viewBox="0 0 20 20" xmlns="http://www.w3.org/2000/svg">
    <path
        d="M3 15.7273H5.54545V8.09091H3V15.7273ZM17 8.72727C17 8.02727 16.4273 7.45455 15.7273 7.45455H11.7118L12.3164 4.54636L12.3355 4.34273C12.3355 4.08182 12.2273 3.84 12.0555 3.66818L11.3809 3L7.19364 7.19364C6.95818 7.42273 6.81818 7.74091 6.81818 8.09091V14.4545C6.81818 15.1545 7.39091 15.7273 8.09091 15.7273H13.8182C14.3464 15.7273 14.7982 15.4091 14.9891 14.9509L16.9109 10.4645C16.9682 10.3182 17 10.1655 17 10V8.72727Z" />
</svg>
