<svg width="16" height="16" viewBox="0 0 16 16" fill="none" xmlns="http://www.w3.org/2000/svg">
<path d="M3.18477 3.62207V12.385L2 12.0443V3.948L3.18477 3.62207Z" fill="#601F1C"/>
<path d="M3.18481 3.62207L8.10375 4.89615V11.1924L3.18481 12.385V3.62207Z" fill="#ED5B3E"/>
<path d="M13.0148 3.62207V12.385L8.10364 11.8591V4.17763L13.0148 3.62207Z" fill="#84291E"/>
<path d="M13.0145 3.62207L13.9999 4.16281V11.8591L13.0145 12.385V3.62207Z" fill="#ED5B3E"/>
<path d="M8.13514 10.3926L6.03149 10.7629L8.13514 11.2667L10.2466 10.7629L8.13514 10.3926Z" fill="#601F1C"/>
<path d="M8.13525 11.2666V14.6666L10.2467 13.6296V10.7629L8.13525 11.2666Z" fill="#ED5B3E"/>
<path d="M8.13514 11.2666L6.03149 10.7629V13.6222L8.13514 14.6666V11.2666Z" fill="#84291E"/>
<path d="M8.13514 9.71095V6.36279L6.03149 6.55539V9.47391L8.13514 9.71095Z" fill="#84291E"/>
<path d="M8.13525 9.71095L10.2467 9.48132V6.56279L8.13525 6.36279V9.71095Z" fill="#ED5B3E"/>
<path d="M8.13514 5.64434L10.2466 5.31842L8.13514 4.74805L6.03149 5.2962L8.13514 5.64434Z" fill="#601F1C"/>
<path d="M10.2467 5.31844V2.3851L8.13525 1.33325V4.74807L10.2467 5.31844Z" fill="#ED5B3E"/>
<path d="M8.13514 4.74807L6.03149 5.29622V2.3851L8.13514 1.33325V4.74807Z" fill="#84291E"/>
</svg>
