<svg width="16" height="16" viewBox="0 0 16 16" fill="none" xmlns="http://www.w3.org/2000/svg">
  <path
    d="M1.33337 3.33325C1.33337 2.22868 2.2288 1.33325 3.33337 1.33325H12.6667C13.7713 1.33325 14.6667 2.22868 14.6667 3.33325V12.6666C14.6667 13.7712 13.7713 14.6666 12.6667 14.6666H3.33337C2.2288 14.6666 1.33337 13.7712 1.33337 12.6666V3.33325Z"
    fill="#439890" />
  <path
    d="M10.9004 7.99992C10.9004 6.39829 9.60167 5.09953 8.00004 5.09953C6.39841 5.09953 5.09965 6.39829 5.09965 7.99992C5.09965 9.60154 6.39841 10.9003 8.00004 10.9003C9.60167 10.9003 10.9004 9.60154 10.9004 7.99992ZM13.0997 7.99992C13.0997 10.8166 10.8167 13.0995 8.00004 13.0995C5.18339 13.0995 2.90043 10.8166 2.90043 7.99992C2.90043 5.18327 5.18339 2.90031 8.00004 2.90031C10.8167 2.90031 13.0997 5.18327 13.0997 7.99992Z"
    fill="white" />
  <path d="M7.13318 1.99992L9.33337 1.99992L9.33337 13.9999H7.13318L7.13318 1.99992Z" fill="#439890" />
  <path d="M8.00004 7.06698V9.26619H2.00004V7.06698H8.00004Z" fill="#439890" />
</svg>