<svg width="16" height="16" viewBox="0 0 16 16" fill="none" xmlns="http://www.w3.org/2000/svg">
  <path
    d="M1.33337 3.33325C1.33337 2.22868 2.2288 1.33325 3.33337 1.33325H12.6667C13.7713 1.33325 14.6667 2.22868 14.6667 3.33325V12.6666C14.6667 13.7712 13.7713 14.6666 12.6667 14.6666H3.33337C2.2288 14.6666 1.33337 13.7712 1.33337 12.6666V3.33325Z"
    fill="#5757E1" />
  <path
    d="M3.33337 3.99992C3.33337 3.63173 3.63185 3.33325 4.00004 3.33325H6.66671C7.0349 3.33325 7.33337 3.63173 7.33337 3.99992V11.9999C7.33337 12.3681 7.0349 12.6666 6.66671 12.6666H4.00004C3.63185 12.6666 3.33337 12.3681 3.33337 11.9999V3.99992Z"
    fill="white" />
  <path
    d="M8.66671 3.99992C8.66671 3.63173 8.96518 3.33325 9.33337 3.33325H12C12.3682 3.33325 12.6667 3.63173 12.6667 3.99992V6.66658C12.6667 7.03477 12.3682 7.33325 12 7.33325H9.33337C8.96518 7.33325 8.66671 7.03477 8.66671 6.66658V3.99992Z"
    fill="white" />
  <path
    d="M8.66671 9.33325C8.66671 8.96506 8.96518 8.66659 9.33337 8.66659H12C12.3682 8.66659 12.6667 8.96506 12.6667 9.33325V11.9999C12.6667 12.3681 12.3682 12.6666 12 12.6666H9.33337C8.96518 12.6666 8.66671 12.3681 8.66671 11.9999V9.33325Z"
    fill="white" />
</svg>