<svg width="16" height="16" viewBox="0 0 16 16" fill="none" xmlns="http://www.w3.org/2000/svg">
  <path
    d="M1.33337 3.33325C1.33337 2.22868 2.2288 1.33325 3.33337 1.33325H12.6667C13.7713 1.33325 14.6667 2.22868 14.6667 3.33325V12.6666C14.6667 13.7712 13.7713 14.6666 12.6667 14.6666H3.33337C2.2288 14.6666 1.33337 13.7712 1.33337 12.6666V3.33325Z"
    fill="#3120AB" />
  <path
    d="M11.8002 8.00024C11.8002 5.90167 10.0989 4.19964 8.00037 4.19946C5.90168 4.19946 4.19958 5.90156 4.19958 8.00024C4.19976 10.0988 5.90179 11.8 8.00037 11.8V12.6663L7.76013 12.6604C5.37397 12.5396 3.46039 10.6266 3.33923 8.24048L3.33337 8.00024C3.33337 5.42292 5.42304 3.33325 8.00037 3.33325L8.2406 3.33911C10.7061 3.4643 12.6664 5.50359 12.6664 8.00024L12.6605 8.24048C12.5353 10.7059 10.4969 12.6661 8.00037 12.6663V11.8C10.0988 11.7999 11.8 10.0987 11.8002 8.00024Z"
    fill="white" />
  <path
    d="M12.6664 8.00024C12.6664 9.23792 12.175 10.4246 11.2999 11.2997C10.4247 12.1749 9.23804 12.6663 8.00037 12.6663C6.76269 12.6663 5.57538 12.1749 4.70021 11.2998C3.82504 10.4246 3.33337 9.23792 3.33337 8.00024H12.6664Z"
    fill="white" />
  <path
    d="M12.6664 8.00024C12.6664 9.23792 12.175 10.4246 11.2999 11.2997L11.1322 11.4592C10.2762 12.2343 9.1606 12.6662 8.00037 12.6663V11.8C9.00807 11.8 9.97433 11.3993 10.6869 10.6868C11.1915 10.1822 11.5384 9.55016 11.6986 8.86646H4.30115C4.46132 9.55011 4.80835 10.1822 5.31287 10.6868C6.0255 11.3994 6.99254 11.8 8.00037 11.8V12.6663L7.76892 12.6604C6.69219 12.607 5.66664 12.1829 4.86755 11.4592L4.70021 11.2998C3.82504 10.4246 3.33337 9.23792 3.33337 8.00024H12.6664Z"
    fill="white" />
  <path
    d="M9.33329 8.00008C9.33329 8.73646 8.73634 9.33342 7.99996 9.33342C7.26358 9.33342 6.66663 8.73646 6.66663 8.00008C6.66663 7.2637 7.26358 6.66675 7.99996 6.66675C8.73634 6.66675 9.33329 7.2637 9.33329 8.00008Z"
    fill="#3120AB" />
  <path
    d="M9.19202 5.74487C9.21211 5.73219 9.23294 5.72455 9.25291 5.72255C9.27288 5.72054 9.29145 5.72422 9.30718 5.7333C9.32291 5.74238 9.33538 5.75662 9.34363 5.77492C9.35187 5.79322 9.35567 5.81508 9.35474 5.83882C9.34095 6.0076 9.21104 7.49982 8.91692 8.00926C8.84028 8.142 8.74647 8.26309 8.64085 8.36562C8.53523 8.46816 8.41986 8.55012 8.30134 8.60684C8.18281 8.66356 8.06345 8.69392 7.95007 8.69618C7.83668 8.69845 7.7315 8.67258 7.64051 8.62005C7.54953 8.56752 7.47453 8.48936 7.4198 8.39004C7.36508 8.29071 7.33169 8.17216 7.32154 8.04115C7.3114 7.91015 7.3247 7.76926 7.36069 7.62652C7.39667 7.48378 7.45464 7.342 7.53128 7.20926C7.8254 6.69982 9.05274 5.8412 9.19202 5.74487Z"
    fill="white" />
</svg>