<svg width="16" height="16" viewBox="0 0 16 16" fill="none" xmlns="http://www.w3.org/2000/svg">
  <path d="M3.33337 8.66675H5.66671V13.3334H3.33337V8.66675Z" fill="#00A1E0" />
  <path d="M10 2.66675H12.6667V13.3334H10V2.66675Z" fill="#00A1E0" />
  <path
    d="M6.22233 7.33301C6.59047 7.33307 6.88932 7.63185 6.88932 8C6.88932 8.36815 6.59047 8.66693 6.22233 8.66699L3.33337 8.66675V13.3334L6.22233 13.333C6.59047 13.3331 6.88932 13.6318 6.88932 14C6.88932 14.3682 6.59047 14.6669 6.22233 14.667H2.66667C2.29848 14.667 1.99967 14.3682 1.99967 14V8C1.99967 7.63181 2.29848 7.33301 2.66667 7.33301H6.22233Z"
    fill="#032E61" />
  <path
    d="M13.3334 1.33301C13.5102 1.33304 13.6801 1.40332 13.8051 1.52832C13.9301 1.65334 14.0004 1.82321 14.0004 2V14C14.0004 14.3682 13.7016 14.6669 13.3334 14.667H9.11076V13.333L12.6667 13.3334V2.66675L10.4447 2.66699V5.33301H9.11076V2C9.11076 1.63181 9.40956 1.33301 9.77775 1.33301H13.3334Z"
    fill="#032E61" />
  <path
    d="M9.77791 3.99967C9.95469 3.9997 10.1246 4.06999 10.2496 4.19499C10.3746 4.32001 10.4449 4.48988 10.4449 4.66667V13.9997C10.4449 14.3678 10.1461 14.6666 9.77791 14.6667L6.22233 14.667C5.85414 14.667 5.55526 14.3679 5.55526 13.9997V4.66667C5.55526 4.29848 5.85406 3.99967 6.22225 3.99967H9.77791ZM6.88924 13.3337L9.11076 13.333V5.33301L6.88924 5.33366V13.3337Z"
    fill="#032E61" />
  <path
    d="M14.0004 13.3337C14.3683 13.3339 14.6662 13.6318 14.6664 13.9998C14.6664 14.3678 14.3684 14.6666 14.0004 14.6667H2.00037C1.63218 14.6667 1.33337 14.3679 1.33337 13.9998C1.33355 13.6317 1.63228 13.3337 2.00037 13.3337H14.0004Z"
    fill="#032E61" />
</svg>