<svg width="16" height="16" viewBox="0 0 16 16" fill="none" xmlns="http://www.w3.org/2000/svg">
  <rect x="1.33337" y="1.33325" width="13.3333" height="13.3333" rx="2" fill="#8045E1" />
  <path fill-rule="evenodd" clip-rule="evenodd"
    d="M7.83884 3.35088C7.94517 3.32738 8.05483 3.32738 8.16115 3.35088C8.28406 3.37804 8.39391 3.44417 8.48124 3.49674C8.48938 3.50163 8.49731 3.50641 8.50505 3.51103L11.4649 5.27827C11.4731 5.28315 11.4816 5.28814 11.4902 5.29326C11.5826 5.34798 11.6989 5.41679 11.7882 5.5209C11.8653 5.6109 11.9237 5.71758 11.9595 5.8338C12.0008 5.96822 12.0003 6.11084 11.9999 6.22427C11.9999 6.23487 11.9999 6.24521 11.9999 6.25528V9.74456C11.9999 9.75462 11.9999 9.76497 11.9999 9.77557C12.0003 9.889 12.0008 10.0316 11.9595 10.166C11.9237 10.2823 11.8653 10.3889 11.7882 10.4789C11.6989 10.583 11.5826 10.6519 11.4902 10.7066C11.4816 10.7117 11.4731 10.7167 11.4649 10.7216L8.50505 12.4888C8.49732 12.4934 8.48938 12.4982 8.48125 12.5031C8.39391 12.5557 8.28406 12.6218 8.16115 12.649C8.05483 12.6725 7.94517 12.6725 7.83884 12.649C7.71594 12.6218 7.60608 12.5557 7.51875 12.5031C7.51062 12.4982 7.50268 12.4934 7.49495 12.4888L4.53506 10.7216C4.52688 10.7167 4.51845 10.7117 4.50981 10.7066C4.41736 10.6519 4.30111 10.583 4.21185 10.4789C4.13467 10.3889 4.07626 10.2823 4.04053 10.166C3.99921 10.0316 3.99969 9.889 4.00008 9.77557C4.00011 9.76497 4.00015 9.75462 4.00015 9.74456V6.25528C4.00015 6.24521 4.00011 6.23487 4.00008 6.22427C3.99969 6.11084 3.99921 5.96822 4.04053 5.8338C4.07626 5.71758 4.13467 5.6109 4.21185 5.5209C4.30111 5.41679 4.41736 5.34798 4.5098 5.29326C4.51844 5.28814 4.52688 5.28315 4.53506 5.27827L7.49495 3.51103C7.50268 3.50641 7.51062 3.50163 7.51875 3.49674C7.60609 3.44417 7.71594 3.37804 7.83884 3.35088Z"
    fill="white" />
</svg>