<svg width="16" height="16" viewBox="0 0 16 16" fill="none" xmlns="http://www.w3.org/2000/svg">
  <path
    d="M1.33337 3.33325C1.33337 2.22868 2.2288 1.33325 3.33337 1.33325H12.6667C13.7713 1.33325 14.6667 2.22868 14.6667 3.33325V12.6666C14.6667 13.7712 13.7713 14.6666 12.6667 14.6666H3.33337C2.2288 14.6666 1.33337 13.7712 1.33337 12.6666V3.33325Z"
    fill="#439890" />
  <path
    d="M3.33337 4.53325C3.33337 3.87051 3.87063 3.33325 4.53337 3.33325H11.4667C12.1294 3.33325 12.6667 3.87051 12.6667 4.53325V11.4666C12.6667 12.1293 12.1294 12.6666 11.4667 12.6666H4.53337C3.87063 12.6666 3.33337 12.1293 3.33337 11.4666V4.53325Z"
    fill="white" />
  <path
    d="M4.99971 10.3335V9.08838C4.99995 8.7204 5.29866 8.42236 5.6667 8.42236C6.03474 8.42236 6.33344 8.7204 6.33369 9.08838V10.3335C6.33357 10.7016 6.03481 10.9995 5.6667 10.9995C5.29858 10.9995 4.99982 10.7016 4.99971 10.3335ZM7.33369 10.3335V7.22217C7.33369 6.85409 7.63166 6.55535 7.99971 6.55518C8.3679 6.55518 8.6667 6.85398 8.6667 7.22217V10.3335C8.66658 10.7016 8.36782 10.9995 7.99971 10.9995C7.63174 10.9993 7.33381 10.7015 7.33369 10.3335ZM9.6667 10.3335V8.46631C9.66686 8.09826 9.9656 7.80029 10.3337 7.80029C10.7016 7.80047 10.9995 8.09837 10.9997 8.46631V10.3335C10.9996 10.7015 10.7017 10.9993 10.3337 10.9995C9.96557 10.9995 9.66681 10.7016 9.6667 10.3335Z"
    fill="#439890" />
  <path d="M6.44447 3.33333H9.55558Z" fill="#D9D9D9" />
  <path
    d="M9.5558 4.66634H6.44447C5.70809 4.66634 5.11146 4.06971 5.11146 3.33333C5.11146 2.59695 5.70809 2.00033 6.44447 2.00033H9.5558C10.2921 2.00044 10.8888 2.59703 10.8888 3.33333C10.8888 4.06964 10.2921 4.66622 9.5558 4.66634Z"
    fill="#439890" />
  <path d="M6.44447 3.33333H9.55558Z" fill="#D9D9D9" />
  <path
    d="M9.5558 4.00033H6.44447C6.07628 4.00033 5.77748 3.70152 5.77748 3.33333C5.77748 2.96514 6.07628 2.66634 6.44447 2.66634H9.5558C9.92389 2.66646 10.2218 2.96522 10.2218 3.33333C10.2218 3.70145 9.92389 4.00021 9.5558 4.00033Z"
    fill="white" />
</svg>