<svg width="16" height="16" viewBox="0 0 16 16" fill="none" xmlns="http://www.w3.org/2000/svg">
<mask id="mask0_19135_732" style="mask-type:luminance" maskUnits="userSpaceOnUse" x="1" y="3" width="15" height="11">
<path d="M1 3H15.67V13.2672H1V3Z" fill="white"/>
</mask>
<g mask="url(#mask0_19135_732)">
<path fill-rule="evenodd" clip-rule="evenodd" d="M7.10281 4.12015C7.576 3.62717 8.23488 3.32127 8.96351 3.32127C9.93206 3.32127 10.7772 3.86137 11.2271 4.66328C11.6297 4.4834 12.0657 4.39069 12.5066 4.39123C14.2536 4.39123 15.6699 5.81988 15.6699 7.5823C15.6699 9.34472 14.2536 10.7734 12.5066 10.7734C12.2933 10.7734 12.085 10.752 11.8835 10.7113C11.4872 11.4181 10.7319 11.8957 9.86521 11.8957C9.51465 11.8962 9.16861 11.8165 8.85353 11.6628C8.45188 12.6079 7.51573 13.2705 6.42501 13.2705C5.2889 13.2705 4.32062 12.5517 3.94921 11.5436C3.78367 11.5786 3.61495 11.5961 3.44577 11.596C2.09314 11.596 0.996704 10.4881 0.996704 9.12147C0.996704 8.20548 1.48926 7.40579 2.22134 6.97799C2.06624 6.62082 1.98642 6.23552 1.98687 5.84613C1.98687 4.27429 3.26284 3 4.83678 3C5.76085 3 6.58211 3.43928 7.10281 4.12015Z" fill="#00A1E0"/>
</g>
<path fill-rule="evenodd" clip-rule="evenodd" d="M3.12211 8.32591C3.11289 8.34996 3.1254 8.35497 3.12836 8.35923C3.15591 8.37918 3.18389 8.39362 3.21214 8.40985C3.36175 8.48905 3.50317 8.51229 3.65089 8.51229C3.95189 8.51229 4.13886 8.35227 4.13886 8.09457V8.0895C4.13886 7.8512 3.92779 7.76462 3.72998 7.70213L3.70416 7.69378C3.55498 7.64536 3.42623 7.60347 3.42623 7.50519V7.50018C3.42623 7.41602 3.5015 7.35418 3.61811 7.35418C3.74777 7.35418 3.90142 7.39725 4.00052 7.45198C4.00052 7.45198 4.02974 7.47085 4.04036 7.44265C4.04613 7.42739 4.09621 7.2925 4.10155 7.27789C4.10727 7.26209 4.09724 7.25018 4.08694 7.24403C3.97378 7.17508 3.81748 7.12817 3.65569 7.12817L3.62566 7.12828C3.35016 7.12828 3.1578 7.29487 3.1578 7.53328V7.5384C3.1578 7.78964 3.37 7.87131 3.56878 7.92808L3.6007 7.938C3.74545 7.98243 3.87048 8.02081 3.87048 8.12266V8.12772C3.87048 8.22099 3.78923 8.29027 3.65838 8.29027C3.60765 8.29027 3.4457 8.28941 3.27069 8.17873C3.24951 8.16638 3.23743 8.15749 3.22109 8.14751C3.21247 8.14228 3.1909 8.13285 3.18152 8.1611L3.12211 8.32591ZM7.52844 8.32591C7.51922 8.34996 7.53172 8.35497 7.5348 8.35923C7.56224 8.37918 7.59027 8.39362 7.61847 8.40985C7.76813 8.48905 7.90955 8.51229 8.05722 8.51229C8.35821 8.51229 8.54524 8.35227 8.54524 8.09457V8.0895C8.54524 7.8512 8.33422 7.76462 8.13636 7.70213L8.11054 7.69378C7.96136 7.64536 7.83256 7.60347 7.83256 7.50519V7.50018C7.83256 7.41602 7.90788 7.35418 8.02454 7.35418C8.15415 7.35418 8.30775 7.39725 8.40684 7.45198C8.40684 7.45198 8.43606 7.47085 8.44674 7.44265C8.45245 7.42739 8.50259 7.2925 8.50788 7.27789C8.51365 7.26209 8.50356 7.25018 8.49332 7.24403C8.3801 7.17508 8.22386 7.12817 8.06207 7.12817L8.03198 7.12828C7.75654 7.12828 7.56418 7.29487 7.56418 7.53328V7.5384C7.56418 7.78964 7.77633 7.87131 7.97516 7.92808L8.00702 7.938C8.15183 7.98243 8.27686 8.02081 8.27686 8.12266V8.12772C8.27686 8.22099 8.19556 8.29027 8.06482 8.29027C8.01398 8.29027 7.85202 8.28941 7.67707 8.17873C7.65589 8.16638 7.64349 8.15786 7.62742 8.14751C7.62197 8.14406 7.59658 8.13414 7.5879 8.1611L7.52844 8.32591ZM10.5365 7.82107C10.5365 7.96663 10.5094 8.08158 10.456 8.16261C10.4029 8.24294 10.3229 8.28202 10.2112 8.28202C10.0996 8.28202 10.0199 8.24299 9.96774 8.16271C9.91507 8.08163 9.88832 7.96663 9.88832 7.82107C9.88832 7.67561 9.91507 7.56104 9.96774 7.48082C10.0199 7.4013 10.0996 7.3627 10.2112 7.3627C10.3229 7.3627 10.4029 7.40135 10.456 7.48087C10.5095 7.56104 10.5365 7.67561 10.5365 7.82107ZM10.7879 7.55112C10.7631 7.46761 10.7247 7.39413 10.6735 7.33283C10.6222 7.27137 10.5574 7.22193 10.4805 7.18613C10.4037 7.15028 10.3132 7.13211 10.2112 7.13211C10.1093 7.13211 10.0186 7.15028 9.94181 7.18613C9.86503 7.22193 9.80012 7.27137 9.74885 7.33294C9.69774 7.39434 9.65919 7.46772 9.63455 7.55112C9.61002 7.63399 9.59757 7.72483 9.59757 7.82107C9.59757 7.91736 9.61002 8.00825 9.63455 8.09101C9.65919 8.17436 9.69763 8.24779 9.7489 8.3093C9.80018 8.37087 9.86525 8.41988 9.94191 8.45482C10.0188 8.48975 10.1094 8.50754 10.2112 8.50754C10.3131 8.50754 10.4036 8.48975 10.4804 8.45482C10.5572 8.41988 10.6221 8.37087 10.6735 8.3093C10.7247 8.24801 10.7631 8.17447 10.7879 8.09101C10.8123 8.00809 10.8248 7.91725 10.8248 7.82107C10.8248 7.72494 10.8123 7.63404 10.7879 7.55112ZM12.851 8.24305C12.8427 8.21862 12.8189 8.22784 12.8189 8.22784C12.7824 8.24181 12.7436 8.25474 12.7021 8.26121C12.6602 8.26779 12.6139 8.27108 12.5644 8.27108C12.4429 8.27108 12.3461 8.2349 12.2771 8.16342C12.2077 8.09187 12.1687 7.97628 12.1691 7.81993C12.1695 7.67782 12.2039 7.57075 12.2656 7.48912C12.3267 7.40804 12.4201 7.36642 12.5443 7.36642C12.6479 7.36642 12.727 7.37844 12.8099 7.40443C12.8099 7.40443 12.8296 7.413 12.839 7.38707C12.861 7.32598 12.8773 7.28253 12.9008 7.21541C12.9075 7.19627 12.8911 7.18818 12.8851 7.18586C12.8526 7.17314 12.7756 7.15227 12.7176 7.14349C12.6633 7.13518 12.5998 7.13087 12.529 7.13087C12.4235 7.13087 12.3295 7.14893 12.249 7.18473C12.1687 7.22047 12.1007 7.26986 12.0467 7.33126C11.9927 7.39278 11.9516 7.46626 11.9245 7.54961C11.8972 7.63253 11.8835 7.72354 11.8835 7.82004C11.8835 8.02842 11.9397 8.19679 12.0506 8.32014C12.1619 8.44393 12.3288 8.50679 12.5467 8.50679C12.6754 8.50679 12.8074 8.48075 12.9025 8.44333C12.9025 8.44333 12.9206 8.4346 12.9127 8.41346L12.851 8.24305ZM13.2906 7.68149C13.3026 7.60056 13.3248 7.53333 13.3593 7.48082C13.4114 7.4013 13.4908 7.35747 13.6025 7.35747C13.7142 7.35747 13.7878 7.40135 13.8408 7.48087C13.8759 7.53344 13.8912 7.60347 13.8971 7.68159L13.2906 7.68149ZM14.1364 7.50373C14.115 7.42319 14.0623 7.34183 14.0276 7.30463C13.9729 7.24565 13.9193 7.20435 13.8661 7.18155C13.7891 7.14882 13.7062 7.132 13.6226 7.13211C13.5164 7.13211 13.42 7.15006 13.3417 7.18672C13.2634 7.22349 13.1976 7.27374 13.146 7.33617C13.0943 7.39855 13.0555 7.47279 13.0308 7.557C13.006 7.64073 12.9935 7.732 12.9935 7.8284C12.9935 7.92641 13.0064 8.0178 13.032 8.09996C13.0578 8.18282 13.0993 8.25555 13.1552 8.3161C13.2112 8.37686 13.2831 8.42452 13.3691 8.45773C13.4547 8.49088 13.5586 8.50808 13.6778 8.50771C13.9236 8.5069 14.0528 8.45212 14.1062 8.42263C14.1156 8.41735 14.1245 8.40824 14.1134 8.38198L14.0578 8.22628C14.0492 8.20304 14.0257 8.21145 14.0257 8.21145C13.9648 8.2342 13.8784 8.2748 13.6766 8.27437C13.5447 8.27415 13.447 8.23517 13.3856 8.17431C13.3228 8.11204 13.292 8.0206 13.2867 7.89142L14.1371 7.89207C14.1371 7.89207 14.1595 7.89185 14.1618 7.86997C14.1627 7.86091 14.191 7.69529 14.1364 7.50373ZM6.47923 7.68149C6.49125 7.60056 6.51347 7.53333 6.54797 7.48082C6.60016 7.4013 6.67941 7.35747 6.79117 7.35747C6.90288 7.35747 6.97647 7.40135 7.02952 7.48087C7.06451 7.53344 7.07982 7.60347 7.08581 7.68159L6.47923 7.68149ZM7.32507 7.50373C7.30372 7.42319 7.25094 7.34183 7.21633 7.30463C7.16161 7.24565 7.10807 7.20435 7.05481 7.18155C6.97779 7.14883 6.89496 7.13202 6.81128 7.13211C6.70513 7.13211 6.60868 7.15006 6.53045 7.18672C6.45211 7.22349 6.38628 7.27374 6.33458 7.33617C6.28299 7.39855 6.24422 7.47279 6.21937 7.557C6.19462 7.64073 6.18217 7.732 6.18217 7.8284C6.18217 7.92641 6.19505 8.0178 6.22077 8.09996C6.24654 8.18282 6.28805 8.25555 6.34391 8.3161C6.39987 8.37686 6.47179 8.42452 6.55778 8.45773C6.6434 8.49088 6.74723 8.50808 6.86654 8.50771C7.11223 8.5069 7.24151 8.45212 7.29488 8.42263C7.30426 8.41735 7.31321 8.40824 7.30205 8.38198L7.24647 8.22628C7.2379 8.20304 7.21439 8.21145 7.21439 8.21145C7.15347 8.2342 7.06715 8.2748 6.86525 8.27437C6.73343 8.27415 6.63569 8.23517 6.57428 8.17431C6.51152 8.11204 6.48063 8.0206 6.4754 7.89142L7.32578 7.89207C7.32578 7.89207 7.3482 7.89185 7.35052 7.86997C7.35144 7.86091 7.37969 7.69529 7.32507 7.50373ZM4.64095 8.23841C4.60758 8.21178 4.60294 8.20525 4.59189 8.18795C4.57502 8.16191 4.56639 8.12481 4.56639 8.07732C4.56639 8.00265 4.59119 7.94884 4.6423 7.91272C4.64176 7.91283 4.71562 7.84899 4.88895 7.85126C4.96628 7.85263 5.04342 7.85921 5.11986 7.87094V8.25749H5.11997C5.11997 8.25749 5.01187 8.28073 4.89019 8.28806C4.71724 8.29847 4.64041 8.23825 4.64095 8.23841ZM4.97937 7.64073C4.94486 7.63819 4.90017 7.63695 4.84658 7.63695C4.77374 7.63695 4.70328 7.64601 4.63712 7.6638C4.5707 7.6817 4.51097 7.70941 4.45959 7.74613C4.40824 7.78281 4.36602 7.83081 4.33618 7.88641C4.30604 7.94253 4.29068 8.00847 4.29068 8.08238C4.29068 8.15781 4.30378 8.22315 4.32966 8.27653C4.35498 8.32944 4.39309 8.37521 4.44056 8.40969C4.48784 8.44409 4.54617 8.46932 4.61383 8.48474C4.68063 8.5 4.75633 8.50771 4.83903 8.50771C4.92637 8.50771 5.01322 8.50037 5.09738 8.48619C5.16907 8.47384 5.24048 8.45996 5.31158 8.44457C5.33994 8.43805 5.37121 8.42948 5.37121 8.42948C5.39223 8.42414 5.39061 8.40166 5.39061 8.40166L5.39013 7.62391C5.39013 7.45332 5.34463 7.32695 5.25497 7.24845C5.16574 7.17033 5.03436 7.13087 4.86437 7.13087C4.80053 7.13087 4.69799 7.1395 4.63642 7.15184C4.63642 7.15184 4.45075 7.18786 4.3743 7.24775C4.3743 7.24775 4.35748 7.2581 4.36664 7.28156L4.42686 7.4433C4.43436 7.46427 4.45479 7.4571 4.45479 7.4571C4.45479 7.4571 4.46121 7.45456 4.46875 7.45009C4.63233 7.36113 4.8393 7.36377 4.8393 7.36377C4.93117 7.36377 5.00195 7.38237 5.04951 7.41877C5.09593 7.4544 5.11949 7.50805 5.11949 7.62143V7.65739C5.04654 7.64682 4.97937 7.64073 4.97937 7.64073ZM11.839 7.20257C11.8402 7.19973 11.8409 7.19667 11.8409 7.19357C11.8409 7.19048 11.8403 7.18741 11.8391 7.18455C11.8379 7.1817 11.8362 7.17911 11.834 7.17694C11.8317 7.17478 11.8291 7.17308 11.8262 7.17195C11.8117 7.16645 11.7394 7.15119 11.6837 7.14774C11.5768 7.14106 11.5175 7.15907 11.4644 7.183C11.4116 7.20678 11.3533 7.24522 11.3207 7.28905L11.3206 7.18532C11.3206 7.17109 11.3105 7.15961 11.2962 7.15961H11.0781C11.064 7.15961 11.0538 7.17109 11.0538 7.18532V8.45401C11.0538 8.46085 11.0565 8.46741 11.0613 8.47225C11.0662 8.47709 11.0727 8.47982 11.0796 8.47983H11.3031C11.3099 8.47982 11.3165 8.47709 11.3213 8.47225C11.3261 8.46741 11.3288 8.46085 11.3288 8.45401V7.82026C11.3288 7.73513 11.3382 7.65032 11.3569 7.597C11.3754 7.54422 11.4004 7.50217 11.4315 7.47192C11.4609 7.44273 11.4969 7.42106 11.5365 7.40874C11.5736 7.39809 11.612 7.39269 11.6506 7.39267C11.6951 7.39267 11.744 7.4041 11.744 7.4041C11.7604 7.40593 11.7695 7.39591 11.7751 7.38113C11.7897 7.34226 11.8311 7.22576 11.839 7.20257Z" fill="#FFFFFE"/>
<path fill-rule="evenodd" clip-rule="evenodd" d="M9.74151 6.61475C9.71393 6.60641 9.68586 6.59975 9.65746 6.5948C9.61927 6.58843 9.58059 6.58543 9.54187 6.58585C9.38806 6.58585 9.26681 6.62931 9.18168 6.71514C9.09714 6.80032 9.03962 6.93009 9.01077 7.10083L9.00037 7.15847H8.80731C8.80731 7.15847 8.78375 7.1575 8.77879 7.18321L8.74709 7.36005C8.74487 7.37698 8.75215 7.38754 8.7748 7.38744H8.96274L8.77205 8.45184C8.75711 8.53757 8.74002 8.60808 8.7211 8.66151C8.70245 8.71424 8.68422 8.75376 8.66179 8.78244C8.64007 8.81021 8.61947 8.83064 8.58394 8.84255C8.55461 8.85242 8.52086 8.85695 8.48388 8.85695C8.46329 8.85695 8.4359 8.8535 8.41568 8.84945C8.39546 8.84546 8.38495 8.84094 8.3698 8.83457C8.3698 8.83457 8.34775 8.82616 8.33907 8.84827C8.33201 8.86633 8.28192 9.00408 8.27599 9.02111C8.26995 9.03793 8.27842 9.0512 8.28909 9.05503C8.31411 9.06397 8.33271 9.06969 8.36678 9.07772C8.41412 9.08888 8.45401 9.08958 8.49137 9.08958C8.56966 9.08958 8.64098 9.07859 8.70013 9.05724C8.75965 9.03572 8.81146 8.99825 8.85728 8.94752C8.90683 8.8928 8.93799 8.83549 8.96781 8.75732C8.9973 8.67984 9.02242 8.58366 9.04253 8.47158L9.23414 7.38744H9.51427C9.51427 7.38744 9.53788 7.3883 9.54279 7.36269L9.57449 7.18585C9.5767 7.16893 9.56948 7.15836 9.54673 7.15847H9.27484C9.27619 7.15232 9.28854 7.05668 9.31975 6.96664C9.33307 6.9282 9.35814 6.8972 9.37938 6.87591C9.39921 6.85563 9.42364 6.84042 9.4506 6.83159C9.48015 6.82246 9.51095 6.81802 9.54187 6.81844C9.56748 6.81844 9.59261 6.82151 9.61175 6.8255C9.63811 6.83111 9.64835 6.83407 9.65525 6.83612C9.68296 6.84458 9.68668 6.83639 9.69213 6.82296L9.75715 6.6444C9.76383 6.62521 9.74755 6.61712 9.74151 6.61475ZM5.94203 8.45411C5.94203 8.46834 5.9319 8.47993 5.91767 8.47993H5.69215C5.67786 8.47993 5.66772 8.46834 5.66772 8.45411V6.63896C5.66772 6.62478 5.67786 6.6133 5.69215 6.6133H5.91767C5.9319 6.6133 5.94203 6.62478 5.94203 6.63896V8.45411Z" fill="#FFFFFE"/>
</svg>
