<svg width="24" height="24" viewBox="0 0 24 24" fill="none" xmlns="http://www.w3.org/2000/svg">
<path d="M22.6908 7.32424C22.5939 7.39705 22.506 7.47953 22.4268 7.5717C22.4224 7.57679 22.4198 7.57603 22.419 7.56944L22.418 7.56264C22.4169 7.55426 22.4199 7.5478 22.427 7.54327C22.4383 7.53599 22.4479 7.52713 22.4557 7.51669C22.4601 7.51078 22.4654 7.50584 22.4718 7.50185C22.4946 7.48757 22.5038 7.46717 22.4996 7.44066C22.4986 7.43489 22.4952 7.43201 22.4895 7.43201H0.0780829C0.0728631 7.43201 0.0679867 7.43077 0.0634537 7.4283C0.0576845 7.42527 0.0523274 7.42466 0.0473823 7.42644C0.0417505 7.4285 0.0385224 7.43249 0.0376982 7.43839L0.0344015 7.46353C0.0339968 7.46541 0.032928 7.46709 0.0313902 7.46825C0.0298523 7.46942 0.0279479 7.46999 0.0260243 7.46986C0.0241007 7.46974 0.022286 7.46892 0.0209114 7.46757C0.0195368 7.46622 0.0186938 7.46442 0.0185361 7.4625L0.0012285 6.78812L0.000610352 6.00989C0.000610352 6.00859 0.000866153 6.00731 0.00136318 6.00611C0.0018602 6.00491 0.00258872 6.00382 0.0035071 6.0029C0.00442548 6.00198 0.00551576 6.00125 0.00671569 6.00075C0.00791561 6.00026 0.00920166 6 0.0105004 6H23.9882C23.9906 5.99998 23.9929 6.00067 23.9948 6.00197C23.9968 6.00328 23.9983 6.00513 23.9992 6.00731C24.0001 6.00948 24.0003 6.01187 23.9998 6.01417C23.9993 6.01646 23.9982 6.01856 23.9965 6.02019L22.6908 7.32424Z" fill="#02B3EE"/>
<path d="M0.0011527 6.78812L0.0184603 7.4625C0.018618 7.46442 0.019461 7.46622 0.0208356 7.46757C0.0222102 7.46892 0.0240249 7.46973 0.0259485 7.46986C0.0278721 7.46998 0.0297765 7.46941 0.0313144 7.46825C0.0328522 7.46709 0.033921 7.46541 0.0343257 7.46353L0.0376224 7.43839C0.0384466 7.43248 0.0416747 7.4285 0.0473065 7.42644C0.0522516 7.42465 0.0576087 7.42527 0.0633779 7.42829C0.0679109 7.43077 0.0727873 7.432 0.078007 7.432H22.4894C22.4952 7.432 22.4985 7.43489 22.4995 7.44066C22.5038 7.46717 22.4945 7.48757 22.4717 7.50185C22.4654 7.50584 22.46 7.51078 22.4556 7.51669C22.4478 7.52713 22.4382 7.53599 22.427 7.54327C22.4198 7.5478 22.4168 7.55426 22.4179 7.56264L22.4189 7.56943C22.4198 7.57603 22.4224 7.57678 22.4268 7.5717C22.5059 7.47953 22.5939 7.39704 22.6907 7.32424L21.2847 8.7309L21.2789 8.72493C21.2755 8.72136 21.272 8.72129 21.2686 8.72472L21.193 8.79972C21.1886 8.80398 21.1836 8.80728 21.1781 8.80961L21.141 8.82507C21.1353 8.82754 21.1304 8.8263 21.1264 8.82136C21.1079 8.79828 17.1912 8.81765 16.8084 8.81765C16.7974 8.81765 16.7913 8.82156 16.7902 8.82939C16.7897 8.83324 16.7882 8.83667 16.7857 8.8397C16.7777 8.84917 16.7696 8.8511 16.7614 8.84546C16.7589 8.84382 16.7579 8.84155 16.7585 8.83867L16.7595 8.83331C16.7609 8.82534 16.7579 8.81957 16.7507 8.816L16.7115 8.79643C16.7048 8.79313 16.6996 8.79471 16.6959 8.80116C16.6938 8.80474 16.6932 8.80851 16.6942 8.8125C15.9854 8.33035 15.071 8.23599 14.2122 8.23516C13.44 8.23448 12.6682 8.23489 11.8969 8.2364C11.8947 8.2364 11.8926 8.23725 11.8911 8.23875C11.8895 8.24026 11.8886 8.2423 11.8886 8.24443L11.888 8.95693C11.8689 8.91724 11.8603 8.87493 11.8621 8.83001C11.8623 8.82163 11.8583 8.81744 11.8499 8.81744L10.1115 8.81765C10.1055 8.81765 10.0998 8.81909 10.0944 8.82198C10.0855 8.82692 10.0781 8.82445 10.0724 8.81456C10.0676 8.80645 10.0631 8.80659 10.059 8.81497C10.0527 8.82774 10.0511 8.84237 10.0544 8.85886L9.82677 8.24505C9.82443 8.23873 9.8199 8.23557 9.81317 8.23557H7.78837C7.78109 8.23557 7.77622 8.23894 7.77375 8.24567L7.56214 8.80302C7.53824 8.81188 7.53185 8.81888 7.50465 8.81888L5.90781 8.81765L5.94202 8.75522C5.94572 8.74849 5.94414 8.7434 5.93728 8.73997C5.23693 8.38908 4.43563 8.19024 3.65781 8.12513C2.72959 8.04725 1.78014 8.23702 1.046 8.83908C1.04202 8.83592 1.04064 8.83248 1.04188 8.82877C1.04325 8.82479 1.04202 8.8217 1.03817 8.8195C1.00603 8.80137 0.981097 8.81785 0.952663 8.81785C0.653488 8.81758 0.353694 8.81751 0.0532818 8.81765C0.0445 8.81765 0.0360718 8.81419 0.0298237 8.80802C0.0235756 8.80185 0.0200111 8.79346 0.0199027 8.78468L0.0139274 8.30934C0.01379 8.30371 0.0123477 8.29842 0.00960049 8.29347C-0.00873741 8.26154 0.00568566 7.97575 0.0011527 7.86985V6.78812Z" fill="#04AAE8"/>
<path d="M0.0011527 7.86984C0.00568566 7.97575 -0.00873741 8.26153 0.00960049 8.29347C0.0123477 8.29841 0.01379 8.3037 0.0139274 8.30933L0.0199027 8.78468C0.0200111 8.79346 0.0235756 8.80184 0.0298237 8.80801C0.0360718 8.81418 0.0445 8.81765 0.0532818 8.81764C0.353694 8.81751 0.653488 8.81758 0.952663 8.81785C0.981097 8.81785 1.00603 8.80137 1.03817 8.8195C1.04202 8.8217 1.04325 8.82479 1.04188 8.82877C1.04064 8.83248 1.04202 8.83591 1.046 8.83907C0.473199 9.35885 0.247993 10.0097 0.370383 10.7918C0.407609 11.0302 0.490576 11.2513 0.619284 11.455L0.582402 11.4894C0.577595 11.4939 0.571894 11.4962 0.565301 11.4962C0.403076 11.4966 0.240988 11.4959 0.0790373 11.4942C0.0426362 11.4937 0.024779 11.4777 0.0254658 11.4461C0.0264274 11.3948 0.0240922 11.3483 0.0184603 11.3069C-0.0126523 11.0806 0.00692192 10.8348 0.0011527 10.6051V7.86984Z" fill="#0B98DD"/>
<path d="M5.90782 8.81764L5.13557 10.1637C5.13323 10.1678 5.12943 10.1708 5.12495 10.1721C5.12047 10.1735 5.11564 10.173 5.11146 10.1709C4.848 10.0366 4.57389 9.92787 4.28914 9.84477C3.97204 9.75226 3.67039 9.72217 3.3333 9.71022C3.12685 9.70281 2.93482 9.72492 2.75721 9.77657C2.50748 9.8491 2.21387 10.0745 2.37809 10.3533C2.44464 10.4662 2.5798 10.5665 2.69869 10.6368C3.05432 10.8468 3.45961 10.9846 3.85336 11.1039C4.7717 11.4222 5.81531 11.8154 6.01043 12.921C6.0106 12.9217 6.01096 12.9223 6.01147 12.9227C6.01199 12.9232 6.01263 12.9234 6.0133 12.9235C6.01398 12.9236 6.01466 12.9234 6.01526 12.9231C6.01585 12.9227 6.01632 12.9222 6.01661 12.9216L6.70192 11.0952L7.56215 8.80301L7.77376 8.24566C7.77623 8.23893 7.7811 8.23557 7.78838 8.23557H9.81318C9.81991 8.23557 9.82444 8.23873 9.82678 8.24505L10.0545 8.85885L10.7919 10.8686L11.2563 12.1349L11.8819 13.8414C11.8822 13.8422 11.8828 13.8429 11.8836 13.8433C11.8843 13.8437 11.8852 13.8439 11.8861 13.8437C11.8869 13.8436 11.8876 13.8432 11.8882 13.8425C11.8887 13.8418 11.8889 13.841 11.8889 13.8402L11.8882 11.9135V10.636L11.888 8.95693L11.8887 8.24443C11.8887 8.2423 11.8895 8.24025 11.8911 8.23875C11.8926 8.23724 11.8947 8.23639 11.8969 8.23639C12.6682 8.23488 13.44 8.23447 14.2122 8.23516C15.071 8.23598 15.9854 8.33035 16.6942 8.81249C17.4749 9.38488 17.6645 10.345 17.539 11.2541C17.4689 11.7442 17.2649 12.1681 16.9268 12.5256C16.5148 12.9315 15.9737 13.1617 15.4073 13.2531C14.8901 13.3368 14.3906 13.3131 13.8811 13.3152C13.8738 13.3152 13.8702 13.3188 13.8702 13.3261L13.8731 13.7884L13.8694 15.5687C13.8694 15.5803 13.8635 15.5862 13.8518 15.5862H10.3763C10.3704 15.5862 10.3665 15.5833 10.3646 15.5775L10.0254 14.5139C10.0245 14.511 10.0224 14.5085 10.0196 14.507C10.0169 14.5056 10.0136 14.5052 10.0106 14.5061C9.18474 14.7542 8.36022 14.7507 7.53701 14.4956C7.53028 14.4935 7.52582 14.4959 7.52362 14.5026L7.17005 15.5755C7.16771 15.5826 7.16284 15.5862 7.15542 15.5862H5.05418C5.0502 15.5862 5.04649 15.5872 5.04306 15.5893C5.03907 15.5919 5.03468 15.5923 5.02987 15.5905C5.02727 15.5894 5.02518 15.5874 5.02403 15.5849C5.02288 15.5824 5.02276 15.5795 5.02369 15.5769L5.25034 14.9691C5.25067 14.9683 5.25071 14.9674 5.25047 14.9666C5.25023 14.9658 5.24972 14.9651 5.24902 14.9646C5.24832 14.9641 5.24748 14.9639 5.24663 14.964C5.24578 14.964 5.24498 14.9644 5.24436 14.965C4.73832 15.3935 4.09175 15.6482 3.43591 15.6954C2.34443 15.7741 1.31517 15.5428 0.348142 15.0016C0.342372 14.9983 0.34093 14.9937 0.343815 14.9878L0.491342 14.6891L1.06147 13.5575C1.06504 13.5502 1.07033 13.5486 1.07733 13.5527C1.5945 13.8496 2.08962 14.0668 2.6956 14.101C3.12129 14.1251 3.82142 14.1276 3.93042 13.5826C4.01737 13.147 3.39182 12.9406 3.08111 12.8444C2.46874 12.6546 1.87616 12.4578 1.32417 12.1238C1.04107 11.9513 0.806108 11.7284 0.619295 11.455C0.490587 11.2513 0.40762 11.0302 0.370394 10.7917C0.248004 10.0097 0.47321 9.35885 1.04601 8.83907C1.78015 8.23701 2.7296 8.04724 3.65782 8.12513C4.43564 8.19024 5.23694 8.38907 5.93729 8.73996C5.94416 8.7434 5.94573 8.74848 5.94203 8.75521L5.90782 8.81764ZM13.8679 10.0075L13.8681 11.6753C13.8681 11.6779 13.8692 11.6804 13.871 11.6823C13.8729 11.6842 13.8754 11.6853 13.878 11.6854C14.4385 11.6961 15.3488 11.761 15.5773 11.0849C15.7172 10.6613 15.6228 10.1439 15.1841 9.93625C14.792 9.75061 14.3214 9.77224 13.8772 9.78234C13.8745 9.78239 13.872 9.78348 13.8702 9.78537C13.8683 9.78726 13.8673 9.78979 13.8673 9.79243L13.8679 10.0075ZM8.2524 12.2217L8.03502 12.9045C8.03296 12.9113 8.03529 12.9158 8.04203 12.9181C8.53158 13.0879 9.02218 13.0905 9.5138 12.9259C9.52479 12.9222 9.52856 12.9149 9.52513 12.9039L9.28179 12.1191L8.79779 10.5556C8.79743 10.5544 8.79683 10.5533 8.79601 10.5524C8.79519 10.5514 8.79418 10.5506 8.79304 10.5501C8.79189 10.5496 8.79065 10.5493 8.78937 10.5492C8.7881 10.5492 8.78683 10.5494 8.78564 10.5499C8.76524 10.5577 8.29999 12.0686 8.2524 12.2217Z" fill="white"/>
<path d="M21.2846 8.7309L18.7254 11.2902C18.7214 11.2741 18.719 11.2687 18.7015 11.2687C18.3304 11.2698 17.9592 11.2701 17.5876 11.2694C17.58 11.2692 17.5749 11.2657 17.5721 11.2587C17.5688 11.25 17.5614 11.2352 17.555 11.2543C17.5538 11.258 17.5512 11.2598 17.5472 11.2597C17.5427 11.2594 17.5399 11.2576 17.539 11.2541C17.6644 10.3451 17.4749 9.38489 16.6942 8.8125C16.6932 8.80851 16.6938 8.80474 16.6958 8.80117C16.6995 8.79471 16.7048 8.79313 16.7115 8.79643L16.7506 8.816C16.7579 8.81957 16.7609 8.82534 16.7595 8.83331L16.7585 8.83867C16.7579 8.84155 16.7589 8.84382 16.7614 8.84547C16.7696 8.8511 16.7777 8.84917 16.7857 8.8397C16.7881 8.83667 16.7897 8.83324 16.7902 8.82939C16.7913 8.82156 16.7973 8.81765 16.8083 8.81765C17.1912 8.81765 21.1078 8.79828 21.1264 8.82136C21.1304 8.8263 21.1353 8.82754 21.141 8.82507L21.1781 8.80961C21.1836 8.80728 21.1886 8.80398 21.1929 8.79972L21.2686 8.72472C21.272 8.72129 21.2754 8.72136 21.2789 8.72493L21.2846 8.7309ZM7.56211 8.80302L6.70188 11.0953C6.69543 11.0943 6.69179 11.091 6.69096 11.0854C6.69014 11.0793 6.68677 11.0771 6.68087 11.0788C6.66727 11.0826 6.65023 11.0845 6.62977 11.0843C6.19804 11.0831 5.28979 11.0833 3.90504 11.085C3.89831 11.085 3.89268 11.0874 3.88815 11.0922C3.88128 11.0992 3.8753 11.0995 3.87022 11.0932C3.86802 11.0905 3.86713 11.0874 3.86754 11.0839L3.86898 11.0744C3.87022 11.0643 3.86761 11.0632 3.86116 11.0712C3.85333 11.0805 3.85072 11.0914 3.85333 11.1039C3.45958 10.9846 3.05429 10.8468 2.69866 10.6368C2.57977 10.5665 2.4446 10.4662 2.37805 10.3533C2.21383 10.0745 2.50745 9.8491 2.75717 9.77658C2.93478 9.72493 3.12681 9.70281 3.33327 9.71023C3.67036 9.72218 3.97201 9.75226 4.28911 9.84478C4.57386 9.92788 4.84797 10.0366 5.11143 10.1709C5.11561 10.173 5.12043 10.1735 5.12491 10.1721C5.1294 10.1708 5.1332 10.1678 5.13554 10.1637L5.90779 8.81765L7.50463 8.81889C7.53183 8.81889 7.53821 8.81188 7.56211 8.80302ZM11.888 8.95693L11.8882 10.636C11.8849 10.6727 11.8909 10.8321 11.8726 10.8492C11.866 10.8553 11.8629 10.8538 11.8635 10.8449C11.8636 10.8422 11.863 10.8398 11.8616 10.8379C11.8582 10.8331 11.8544 10.8328 11.8503 10.8369L11.8431 10.8443C11.8376 10.8498 11.8309 10.8525 11.8231 10.8525L10.8304 10.8519C10.8276 10.8519 10.8256 10.8531 10.8242 10.8554L10.8191 10.8645C10.8149 10.8712 10.809 10.8735 10.8013 10.8713L10.7919 10.8686L10.0544 8.85886C10.0511 8.84237 10.0526 8.82775 10.059 8.81497C10.0631 8.80659 10.0675 8.80645 10.0723 8.81456C10.0781 8.82445 10.0855 8.82692 10.0944 8.82198C10.0998 8.81909 10.1055 8.81765 10.1115 8.81765L11.8499 8.81744C11.8583 8.81744 11.8623 8.82163 11.862 8.83001C11.8603 8.87493 11.8689 8.91724 11.888 8.95693ZM15.5772 11.085L13.9441 11.0845C13.939 11.0845 13.9343 11.0858 13.9299 11.0883L13.9223 11.093C13.9132 11.0982 13.9079 11.0957 13.9064 11.0854L13.9033 11.0635C13.9006 11.0453 13.8986 11.0452 13.8973 11.0633C13.8964 11.0754 13.8908 11.0817 13.8804 11.0821C13.8741 11.0825 13.871 11.0795 13.871 11.073L13.8679 10.0076L13.8673 9.79244C13.8673 9.7898 13.8683 9.78726 13.8701 9.78538C13.872 9.78349 13.8745 9.7824 13.8772 9.78235C14.3214 9.77225 14.792 9.75062 15.1841 9.93626C15.6228 10.144 15.7171 10.6613 15.5772 11.085Z" fill="#0B98DD"/>
<path d="M13.8679 10.0076L13.871 11.073C13.871 11.0795 13.8742 11.0825 13.8805 11.0821C13.8908 11.0817 13.8964 11.0754 13.8974 11.0633C13.8986 11.0452 13.9006 11.0453 13.9034 11.0635L13.9065 11.0854C13.908 11.0957 13.9133 11.0982 13.9223 11.093L13.9299 11.0883C13.9343 11.0858 13.9391 11.0846 13.9442 11.0846L15.5773 11.085C15.3488 11.761 14.4385 11.6961 13.878 11.6854C13.8754 11.6853 13.8729 11.6842 13.871 11.6824C13.8692 11.6805 13.8681 11.6779 13.8681 11.6753L13.8679 10.0076ZM9.2818 12.1191C9.24251 12.1381 9.20502 12.1471 9.1693 12.1463C8.88386 12.1394 8.59835 12.1387 8.31278 12.144C8.3103 12.144 8.30907 12.1428 8.30907 12.1403V12.1346C8.30879 12.1188 8.30598 12.1184 8.30062 12.1333L8.26909 12.2232C8.26731 12.228 8.26401 12.2294 8.2592 12.2275C8.25646 12.2264 8.25419 12.2245 8.25241 12.2217C8.3 12.0686 8.76525 10.5577 8.78565 10.5499C8.78684 10.5494 8.78811 10.5492 8.78938 10.5492C8.79066 10.5493 8.7919 10.5496 8.79305 10.5501C8.79419 10.5507 8.7952 10.5514 8.79602 10.5524C8.79684 10.5533 8.79744 10.5544 8.7978 10.5556L9.2818 12.1191ZM0.00117335 10.6051C0.00694258 10.8348 -0.0126316 11.0806 0.018481 11.3069C0.0241129 11.3484 0.026448 11.3948 0.0254865 11.4462C0.0247997 11.4778 0.0426568 11.4938 0.0790579 11.4942C0.241008 11.496 0.403096 11.4966 0.565321 11.4962C0.571915 11.4962 0.577615 11.494 0.582423 11.4894L0.619305 11.455C0.806118 11.7284 1.04108 11.9513 1.32418 12.1238C1.28352 12.138 1.24877 12.1449 1.21992 12.1447C0.923632 12.1418 0.627478 12.14 0.331462 12.1393C0.238742 12.1391 0.139841 12.1519 0.0460909 12.1422C0.0396348 12.1415 0.0364068 12.1444 0.0364068 12.151V12.1653C0.0364068 12.1664 0.0361321 12.1664 0.0355826 12.1655C0.0171761 12.1285 0.0082475 12.1012 0.00879695 12.0837C0.0141541 11.9253 0.0116129 11.7673 0.00117335 11.6096V10.6051ZM11.8883 10.636V11.9135L11.8845 12.2627C11.8843 12.2863 11.8825 12.2865 11.8792 12.2631C11.8748 12.2309 11.8747 12.1981 11.879 12.1648C11.8806 12.1521 11.875 12.1456 11.8621 12.1455L11.2903 12.1447C11.2889 12.1447 11.2882 12.1449 11.288 12.1455C11.2875 12.147 11.287 12.1487 11.2864 12.1506C11.2863 12.1512 11.2829 12.151 11.2763 12.15C11.2744 12.1497 11.2725 12.1493 11.2707 12.1486C11.2696 12.1482 11.2694 12.1475 11.2701 12.1465C11.2714 12.1444 11.2724 12.1426 11.2732 12.1409C11.2749 12.1372 11.2737 12.1353 11.2697 12.1352L11.2563 12.135L10.7919 10.8686L10.8014 10.8713C10.8091 10.8735 10.815 10.8712 10.8191 10.8645L10.8242 10.8554C10.8256 10.8531 10.8277 10.8519 10.8304 10.8519L11.8231 10.8526C11.831 10.8526 11.8376 10.8498 11.8431 10.8443L11.8503 10.8369C11.8545 10.8328 11.8582 10.8331 11.8617 10.8379C11.863 10.8398 11.8637 10.8422 11.8635 10.8449C11.863 10.8539 11.866 10.8553 11.8726 10.8493C11.8909 10.8322 11.885 10.6727 11.8883 10.636ZM6.70193 11.0953L6.01662 12.9216C6.01633 12.9223 6.01586 12.9228 6.01527 12.9231C6.01467 12.9234 6.01399 12.9236 6.01331 12.9235C6.01264 12.9235 6.012 12.9232 6.01148 12.9227C6.01097 12.9223 6.01061 12.9217 6.01044 12.921C5.81532 11.8154 4.77171 11.4223 3.85337 11.1039C3.85076 11.0914 3.85337 11.0805 3.8612 11.0712C3.86766 11.0632 3.87026 11.0643 3.86903 11.0745L3.86759 11.0839C3.86717 11.0874 3.86807 11.0905 3.87027 11.0932C3.87535 11.0995 3.88132 11.0992 3.88819 11.0922C3.89272 11.0874 3.89836 11.085 3.90509 11.085C5.28984 11.0833 6.19808 11.0831 6.62981 11.0844C6.65028 11.0845 6.66731 11.0826 6.68091 11.0788C6.68682 11.0771 6.69018 11.0793 6.69101 11.0854C6.69183 11.091 6.69547 11.0943 6.70193 11.0953ZM18.7254 11.2902L17.417 12.5986L17.4277 12.5594C17.4291 12.5543 17.4273 12.5524 17.4222 12.5537C17.3161 12.5804 17.1681 12.5609 17.0554 12.5658C16.9988 12.5683 16.956 12.5549 16.9269 12.5256C17.2649 12.1681 17.469 11.7442 17.539 11.2541C17.54 11.2576 17.5427 11.2594 17.5472 11.2597C17.5512 11.2598 17.5538 11.258 17.5551 11.2543C17.5615 11.2352 17.5689 11.25 17.5722 11.2587C17.5749 11.2657 17.5801 11.2692 17.5876 11.2694C17.9592 11.2701 18.3305 11.2699 18.7015 11.2688C18.719 11.2688 18.7215 11.2741 18.7254 11.2902Z" fill="#0E8ED7"/>
<path d="M0.00115967 11.6095C0.0115992 11.7672 0.0141404 11.9253 0.00878327 12.0836C0.00823382 12.1012 0.0171624 12.1285 0.035569 12.1654C0.0361184 12.1664 0.0363931 12.1663 0.0363931 12.1652V12.151C0.0363931 12.1444 0.0396212 12.1415 0.0460772 12.1422C0.139827 12.1518 0.238728 12.1391 0.331448 12.1393C0.627464 12.14 0.923618 12.1417 1.21991 12.1446C1.24876 12.1449 1.28351 12.138 1.32417 12.1238C1.87616 12.4578 2.46874 12.6546 3.0811 12.8443C3.39182 12.9406 4.01737 13.147 3.93042 13.5826C3.82142 14.1276 3.12128 14.1251 2.69559 14.101C2.08962 14.0668 1.5945 13.8496 1.07733 13.5527C1.07032 13.5486 1.06503 13.5502 1.06146 13.5575L0.491338 14.6891C0.351366 14.6838 0.212011 14.6824 0.073275 14.6847C0.0547311 14.6849 0.0466953 14.6783 0.0304179 14.6711C0.0271212 14.6698 0.0247173 14.6707 0.0232064 14.6738C0.0222448 14.676 0.0212833 14.6781 0.0203217 14.6802C0.0172997 14.6869 0.0157888 14.6866 0.0157888 14.6792V14.484C0.0157888 14.4766 0.0142091 14.4764 0.0110498 14.4832L0.00115967 14.5044V11.6095ZM11.8882 11.9134L11.8889 13.8402C11.8889 13.841 11.8887 13.8418 11.8882 13.8425C11.8876 13.8431 11.8869 13.8436 11.8861 13.8437C11.8852 13.8439 11.8843 13.8437 11.8836 13.8433C11.8828 13.8429 11.8822 13.8422 11.8819 13.8414L11.2563 12.1349L11.2697 12.1351C11.2737 12.1353 11.2748 12.1372 11.2732 12.1409C11.2724 12.1426 11.2713 12.1444 11.2701 12.1465C11.2694 12.1474 11.2696 12.1481 11.2707 12.1485C11.2725 12.1492 11.2744 12.1497 11.2763 12.15C11.2829 12.1509 11.2863 12.1511 11.2864 12.1506C11.2869 12.1487 11.2875 12.147 11.288 12.1454C11.2882 12.1449 11.2889 12.1446 11.2903 12.1446L11.8621 12.1454C11.875 12.1456 11.8806 12.152 11.879 12.1648C11.8747 12.1981 11.8748 12.2308 11.8792 12.2631C11.8825 12.2865 11.8843 12.2863 11.8845 12.2627L11.8882 11.9134ZM9.28179 12.1191L9.52512 12.9039C9.52856 12.9149 9.52478 12.9222 9.51379 12.9259C9.02217 13.0905 8.53158 13.0879 8.04202 12.9181C8.03529 12.9158 8.03296 12.9112 8.03502 12.9045L8.25239 12.2217C8.25418 12.2244 8.25644 12.2264 8.25919 12.2275C8.264 12.2294 8.26729 12.2279 8.26908 12.2231L8.30061 12.1333C8.30596 12.1183 8.30878 12.1187 8.30905 12.1345V12.1403C8.30905 12.1428 8.31029 12.144 8.31276 12.144C8.59834 12.1386 8.88385 12.1394 9.16929 12.1463C9.205 12.1471 9.2425 12.138 9.28179 12.1191ZM16.9268 12.5256C16.956 12.5549 16.9988 12.5682 17.0554 12.5658C17.1681 12.5608 17.3161 12.5804 17.4222 12.5536C17.4272 12.5524 17.4291 12.5543 17.4277 12.5594L17.417 12.5985L16.1387 13.882C16.1365 13.8821 16.1343 13.8818 16.1321 13.881C16.1269 13.8788 16.1263 13.8756 16.1303 13.8715L16.1373 13.8647C16.1402 13.8617 16.1395 13.8603 16.1354 13.8606C16.1023 13.863 15.9739 14.0077 15.9407 14.039C15.9356 14.0437 15.9297 14.0461 15.9228 14.0462C15.2702 14.0465 14.6176 14.0465 13.965 14.0464C13.9406 14.0464 13.9242 14.0487 13.9155 14.0532C13.9115 14.0553 13.9069 14.0562 13.9024 14.0557C13.8978 14.0551 13.8934 14.0533 13.8894 14.0503C13.8855 14.0473 13.8823 14.0432 13.88 14.0384C13.8777 14.0337 13.8764 14.0284 13.8764 14.0231L13.8731 13.7884L13.8702 13.3261C13.8702 13.3188 13.8738 13.3152 13.8811 13.3152C14.3906 13.3131 14.8901 13.3368 15.4073 13.2531C15.9737 13.1617 16.5148 12.9315 16.9268 12.5256Z" fill="#1184D1"/>
<path d="M13.8731 13.7885L13.8764 14.0231C13.8764 14.0284 13.8777 14.0337 13.88 14.0385C13.8823 14.0432 13.8855 14.0473 13.8894 14.0503C13.8934 14.0533 13.8978 14.0552 13.9024 14.0557C13.9069 14.0562 13.9115 14.0553 13.9155 14.0532C13.9242 14.0487 13.9406 14.0464 13.965 14.0464C14.6176 14.0466 15.2702 14.0465 15.9228 14.0462C15.9297 14.0461 15.9356 14.0437 15.9407 14.039C15.9739 14.0077 16.1023 13.863 16.1354 13.8606C16.1395 13.8603 16.1402 13.8617 16.1373 13.8647L16.1303 13.8715C16.1263 13.8756 16.1269 13.8788 16.1321 13.881C16.1343 13.8818 16.1365 13.8821 16.1387 13.882L13.5014 16.5194L13.4803 16.5138C13.4735 16.5119 13.472 16.508 13.4758 16.5021C13.5003 16.4652 13.5432 16.4617 13.5562 16.4097C13.5582 16.4019 13.5552 16.3979 13.5471 16.3978C12.6253 16.3792 11.7034 16.4011 10.7814 16.3924C9.76063 16.383 8.73907 16.3895 7.71812 16.3891C5.17059 16.3881 2.63131 16.391 0.0879041 16.3916C0.0770525 16.3916 0.0659261 16.3902 0.054525 16.3873C0.0469701 16.3855 0.0416816 16.3882 0.0386596 16.3953L0.0289756 16.4176C0.0284261 16.4187 0.0280827 16.4186 0.0279454 16.4174C0.027808 16.4154 0.0273272 16.4137 0.0265031 16.412C0.0207338 16.4001 0.0186734 16.4006 0.0203217 16.4137C0.0219701 16.4279 0.0216954 16.4422 0.0194976 16.4563C0.0175745 16.4684 0.0165443 16.4683 0.0164069 16.4559L0.00115967 15.5913V14.5045L0.0110498 14.4832C0.0142091 14.4764 0.0157888 14.4766 0.0157888 14.4841V14.6792C0.0157888 14.6866 0.0172997 14.6869 0.0203217 14.6802C0.0212833 14.6781 0.0222448 14.676 0.0232064 14.6738C0.0247173 14.6707 0.0271212 14.6698 0.0304179 14.6711C0.0466953 14.6784 0.0547311 14.6849 0.073275 14.6847C0.212011 14.6824 0.351366 14.6838 0.491338 14.6891L0.343811 14.9878C0.340926 14.9937 0.342368 14.9983 0.348138 15.0016C1.31517 15.5428 2.34443 15.7741 3.43591 15.6954C4.09175 15.6482 4.73831 15.3935 5.24436 14.965C5.24498 14.9644 5.24577 14.964 5.24662 14.964C5.24747 14.9639 5.24832 14.9641 5.24902 14.9646C5.24972 14.9651 5.25023 14.9658 5.25047 14.9666C5.25071 14.9674 5.25066 14.9683 5.25033 14.9691L5.02368 15.5769C5.02275 15.5795 5.02288 15.5824 5.02403 15.5849C5.02518 15.5874 5.02727 15.5894 5.02987 15.5905C5.03467 15.5923 5.03907 15.5919 5.04305 15.5893C5.04649 15.5872 5.0502 15.5862 5.05418 15.5862H7.15542C7.16283 15.5862 7.16771 15.5826 7.17004 15.5755L7.52362 14.5026C7.52581 14.4959 7.53028 14.4935 7.53701 14.4956C8.36022 14.7507 9.18474 14.7542 10.0106 14.5061C10.0136 14.5052 10.0169 14.5056 10.0196 14.507C10.0224 14.5085 10.0245 14.511 10.0254 14.5139L10.3645 15.5775C10.3665 15.5833 10.3704 15.5862 10.3763 15.5862H13.8518C13.8635 15.5862 13.8694 15.5803 13.8694 15.5687L13.8731 13.7885Z" fill="#196DC3"/>
<path d="M0.00116746 15.5913L0.0164147 16.4559C0.0165521 16.4683 0.0175823 16.4684 0.0195054 16.4563C0.0217032 16.4422 0.0219779 16.4279 0.0203295 16.4137C0.0186812 16.4006 0.0207416 16.4001 0.0265108 16.412C0.027335 16.4137 0.0278158 16.4154 0.0279531 16.4174C0.0280905 16.4186 0.0284339 16.4187 0.0289834 16.4176L0.0386674 16.3953C0.0416894 16.3882 0.0469778 16.3855 0.0545328 16.3873C0.0659339 16.3902 0.0770603 16.3916 0.0879119 16.3916C2.63132 16.391 5.1706 16.3881 7.71813 16.3891C8.73908 16.3896 9.76064 16.383 10.7814 16.3924C11.7034 16.4011 12.6253 16.3793 13.5471 16.3978C13.5552 16.3979 13.5582 16.4019 13.5562 16.4097C13.5432 16.4617 13.5003 16.4652 13.4758 16.5021C13.472 16.508 13.4735 16.5119 13.4804 16.5138L13.5014 16.5194L12.145 17.8774C12.1409 17.8815 12.136 17.8836 12.1304 17.8836H0.0106455C0.0079678 17.8836 0.00539978 17.8825 0.00350639 17.8806C0.00161299 17.8787 0.000549316 17.8762 0.000549316 17.8735L0.00116746 15.5913Z" fill="#1B66BF"/>
</svg>
