<svg width="13" height="13" viewBox="0 0 13 13" fill="none" xmlns="http://www.w3.org/2000/svg">
<path fill-rule="evenodd" clip-rule="evenodd" d="M9.43639 1.41797C10.069 1.41797 10.5818 1.93081 10.5818 2.56342V7.14524C10.5817 7.77777 10.0689 8.2907 9.43639 8.2907H8.29094V9.43615C8.29084 10.0687 7.77804 10.5816 7.14549 10.5816H2.56367C1.93111 10.5816 1.41831 10.0687 1.41821 9.43615V4.85433C1.41821 4.22172 1.93105 3.70888 2.56367 3.70888H3.70912V2.56342C3.70912 1.93081 4.22196 1.41797 4.85458 1.41797H9.43639ZM2.18185 6.76342V9.43615C2.18195 9.64694 2.35286 9.81797 2.56367 9.81797H7.14549C7.3563 9.81797 7.5272 9.64694 7.5273 9.43615V6.76342H2.18185ZM4.85458 2.18161C4.6437 2.18161 4.47276 2.35255 4.47276 2.56342V3.70888H7.14549C7.7781 3.70888 8.29094 4.22172 8.29094 4.85433V7.52706H9.43639C9.6472 7.52706 9.81811 7.35603 9.81821 7.14524V2.56342C9.81821 2.35255 9.64727 2.18161 9.43639 2.18161H4.85458ZM2.56367 4.47251C2.3528 4.47251 2.18185 4.64346 2.18185 4.85433V5.99979H7.5273V4.85433C7.5273 4.64346 7.35636 4.47251 7.14549 4.47251H2.56367Z" fill="#5D6A85"/>
</svg>
