<svg width="20" height="20" viewBox="0 0 20 20" xmlns="http://www.w3.org/2000/svg">
    <path fill-rule="evenodd" clip-rule="evenodd"
        d="M4.365 8.62885V16.1687H8.9325C9.18819 16.661 9.5222 17.1079 9.92124 17.4914H4.365C4.01189 17.4917 3.67243 17.354 3.4179 17.1074C3.16337 16.8607 3.01358 16.5243 3 16.1687V5.22491C3.00115 5.04541 3.03736 4.8679 3.10658 4.7025C3.1758 4.53711 3.27666 4.38707 3.40342 4.26097C3.53017 4.13486 3.68033 4.03515 3.84531 3.96753C4.0103 3.89991 4.18689 3.8657 4.365 3.86687H5.0475V2.5H6.42125V3.86687H13.255V2.5H14.62V3.86687H15.3112C15.6702 3.86684 16.0148 4.00935 16.2703 4.26354C16.5258 4.51773 16.6716 4.86312 16.6762 5.22491V10.1368C16.2647 9.79128 15.8047 9.50898 15.3112 9.29906V8.62885H4.365ZM15.3112 5.26901H4.365V7.2708H15.3112V5.26901ZM11.0193 10.4643C11.6425 10.0352 12.3778 9.8016 13.1325 9.79289C13.6369 9.78941 14.1371 9.88609 14.6045 10.0774C15.0718 10.2688 15.4972 10.551 15.8564 10.908C16.2155 11.2651 16.5013 11.6899 16.6976 12.1583C16.8938 12.6266 16.9965 13.1294 17 13.6378C17.0017 14.3984 16.7799 15.1426 16.3627 15.7765C15.9455 16.4104 15.3515 16.9057 14.6555 17.1999C13.9595 17.4942 13.1927 17.5743 12.4516 17.4302C11.7105 17.286 11.0283 16.924 10.491 16.3898C9.95365 15.8557 9.5852 15.1731 9.43205 14.4283C9.27889 13.6834 9.34789 12.9096 9.63034 12.2042C9.91279 11.4988 10.3961 10.8934 11.0193 10.4643ZM12.7125 13.7965L14.375 15.4544L14.9262 14.9517L13.5 13.5231V11.3273H12.7125V13.7965Z" />
</svg>
