<svg width="20" height="20" viewBox="0 0 20 20" xmlns="http://www.w3.org/2000/svg">
    <path fill-rule="evenodd" clip-rule="evenodd"
        d="M11.7368 3H17.2632C17.6684 3 18 3.35 18 3.77778V9.22222C18 9.65 17.6684 10 17.2632 10H11.7368C11.3316 10 11 9.65 11 9.22222V3.77778C11 3.35 11.3316 3 11.7368 3ZM16.5 8.5V4.5H12.5V8.5H16.5Z" />
    <path fill-rule="evenodd" clip-rule="evenodd"
        d="M2.73684 3H8.26316C8.66842 3 9 3.35 9 3.77778V9.22222C9 9.65 8.66842 10 8.26316 10H2.73684C2.33158 10 2 9.65 2 9.22222V3.77778C2 3.35 2.33158 3 2.73684 3ZM7.5 8.5V4.5H3.5V8.5H7.5Z" />
    <path fill-rule="evenodd" clip-rule="evenodd"
        d="M11.7368 12H17.2632C17.6684 12 18 12.35 18 12.7778V18.2222C18 18.65 17.6684 19 17.2632 19H11.7368C11.3316 19 11 18.65 11 18.2222V12.7778C11 12.35 11.3316 12 11.7368 12ZM16.5 17.5V13.5H12.5V17.5H16.5Z" />
    <rect x="8" y="5.75" width="4" height="1.5" />
    <rect x="5" y="14.75" width="7" height="1.5" />
    <rect x="4.75" y="9" width="1.5" height="7.25" />
</svg>
