<svg width="20" height="20" viewBox="0 0 20 20"
    xmlns="http://www.w3.org/2000/svg">
    <path d="M8.91437 15.3289C10.3375 15.3286 11.7197 14.8521 12.8408 13.9754L16.3655 17.5001L17.4992 16.3664L13.9745 12.8417C14.8517 11.7205 15.3284 10.338 15.3287 8.91449C15.3287 5.37777 12.4511 2.50012 8.91437 2.50012C5.37765 2.50012 2.5 5.37777 2.5 8.91449C2.5 12.4512 5.37765 15.3289 8.91437 15.3289ZM8.91437 4.10371C11.5675 4.10371 13.7251 6.26135 13.7251 8.91449C13.7251 11.5676 11.5675 13.7253 8.91437 13.7253C6.26122 13.7253 4.10359 11.5676 4.10359 8.91449C4.10359 6.26135 6.26122 4.10371 8.91437 4.10371Z" />
</svg>
