<svg width="16" height="16" viewBox="0 0 16 16" fill="none" xmlns="http://www.w3.org/2000/svg">
<path fill-rule="evenodd" clip-rule="evenodd" d="M10.3333 4.99992C11.0697 4.99992 11.6667 4.40296 11.6667 3.66659C11.6667 2.93021 11.0697 2.33325 10.3333 2.33325C9.59695 2.33325 9 2.93021 9 3.66659C9 4.40296 9.59695 4.99992 10.3333 4.99992ZM11.5597 5.652C12.2241 5.24075 12.6667 4.50535 12.6667 3.66659C12.6667 2.37792 11.622 1.33325 10.3333 1.33325C9.04467 1.33325 8 2.37792 8 3.66659C8 4.04349 8.08936 4.39952 8.24806 4.71465L4.73263 8.25715C4.41312 8.09278 4.05075 8 3.66671 8C2.37804 8 1.33337 9.04467 1.33337 10.3333C1.33337 11.622 2.37804 12.6667 3.66671 12.6667C4.47973 12.6667 5.19563 12.2509 5.61334 11.6203L10.0394 13.0957C10.2408 14.1794 11.1912 14.9999 12.3333 14.9999C13.622 14.9999 14.6667 13.9552 14.6667 12.6666C14.6667 11.5563 13.8911 10.6271 12.8522 10.3912L11.5597 5.652ZM10.6136 5.98326C10.5217 5.99426 10.4282 5.99992 10.3333 5.99992C9.78519 5.99992 9.2812 5.81091 8.88297 5.49451L5.50604 8.89744C5.81557 9.29338 6.00004 9.79181 6.00004 10.3333C6.00004 10.4533 5.99099 10.5712 5.97352 10.6863L10.0809 12.0554C10.3051 11.2271 10.974 10.5815 11.8156 10.3909L10.6136 5.98326ZM12.3333 13.9999C13.0697 13.9999 13.6667 13.403 13.6667 12.6666C13.6667 11.9302 13.0697 11.3333 12.3333 11.3333C11.597 11.3333 11 11.9302 11 12.6666C11 13.403 11.597 13.9999 12.3333 13.9999ZM5.00004 10.3333C5.00004 11.0697 4.40309 11.6667 3.66671 11.6667C2.93033 11.6667 2.33337 11.0697 2.33337 10.3333C2.33337 9.59695 2.93033 9 3.66671 9C4.40309 9 5.00004 9.59695 5.00004 10.3333Z" fill="currentColor"/>
</svg>
