<svg width="20" height="20" viewBox="0 0 20 20" xmlns="http://www.w3.org/2000/svg">
    <path
        d="M15.3734 10.7344C15.4047 10.5 15.4203 10.2578 15.4203 10C15.4203 9.75 15.4047 9.5 15.3656 9.26562L16.9516 8.03125C17.0922 7.92187 17.1313 7.71094 17.0453 7.55469L15.5453 4.96094C15.4516 4.78906 15.2563 4.73437 15.0844 4.78906L13.2172 5.53906C12.8266 5.24219 12.4125 4.99219 11.9516 4.80469L11.6703 2.82031C11.6391 2.63281 11.4828 2.5 11.2953 2.5H8.29531C8.10781 2.5 7.95937 2.63281 7.92812 2.82031L7.64687 4.80469C7.18594 4.99219 6.76406 5.25 6.38125 5.53906L4.51406 4.78906C4.34219 4.72656 4.14688 4.78906 4.05313 4.96094L2.56094 7.55469C2.46719 7.71875 2.49844 7.92187 2.65469 8.03125L4.24063 9.26562C4.20156 9.5 4.17031 9.75781 4.17031 10C4.17031 10.2422 4.18594 10.5 4.225 10.7344L2.63906 11.9688C2.49844 12.0781 2.45938 12.2891 2.54531 12.4453L4.04531 15.0391C4.13906 15.2109 4.33438 15.2656 4.50625 15.2109L6.37344 14.4609C6.76406 14.7578 7.17812 15.0078 7.63906 15.1953L7.92031 17.1797C7.95937 17.3672 8.10781 17.5 8.29531 17.5H11.2953C11.4828 17.5 11.6391 17.3672 11.6625 17.1797L11.9437 15.1953C12.4047 15.0078 12.8266 14.7578 13.2094 14.4609L15.0766 15.2109C15.2484 15.2734 15.4438 15.2109 15.5375 15.0391L17.0375 12.4453C17.1313 12.2734 17.0922 12.0781 16.9437 11.9688L15.3734 10.7344ZM9.79531 12.8125C8.24844 12.8125 6.98281 11.5469 6.98281 10C6.98281 8.45312 8.24844 7.1875 9.79531 7.1875C11.3422 7.1875 12.6078 8.45312 12.6078 10C12.6078 11.5469 11.3422 12.8125 9.79531 12.8125Z" />
</svg>
