<svg width="16" height="16" viewBox="0 0 16 16"
  xmlns="http://www.w3.org/2000/svg">
  <path d="M7.99996 6.66675C7.26663 6.66675 6.66663 7.26675 6.66663 8.00008C6.66663 8.73341 7.26663 9.33341 7.99996 9.33341C8.73329 9.33341 9.33329 8.73341 9.33329 8.00008C9.33329 7.26675 8.73329 6.66675 7.99996 6.66675ZM7.99996 2.66675C7.26663 2.66675 6.66663 3.26675 6.66663 4.00008C6.66663 4.73341 7.26663 5.33341 7.99996 5.33341C8.73329 5.33341 9.33329 4.73341 9.33329 4.00008C9.33329 3.26675 8.73329 2.66675 7.99996 2.66675ZM7.99996 10.6667C7.26663 10.6667 6.66663 11.2667 6.66663 12.0001C6.66663 12.7334 7.26663 13.3334 7.99996 13.3334C8.73329 13.3334 9.33329 12.7334 9.33329 12.0001C9.33329 11.2667 8.73329 10.6667 7.99996 10.6667Z" />
</svg>
