<svg width="20" height="20" viewBox="0 0 20 20" xmlns="http://www.w3.org/2000/svg">
    <path fill-rule="evenodd" clip-rule="evenodd"
        d="M8.11862 17.9619L7.57486 16.757C7.38112 16.327 7.05391 15.9686 6.64033 15.7334C6.2265 15.4982 5.74777 15.398 5.27265 15.4472L3.94219 15.5867C3.54618 15.6278 3.14659 15.5548 2.79177 15.3768C2.43694 15.1987 2.14209 14.9232 1.94288 14.5835C1.74361 14.2438 1.64867 13.8545 1.66959 13.4627C1.69051 13.0709 1.82638 12.6936 2.06073 12.3764L2.84846 11.31C3.12938 10.9293 3.28066 10.4708 3.28058 10.0002C3.28066 9.52954 3.12938 9.07098 2.84846 8.69035L2.06073 7.62396C1.82638 7.30677 1.69051 6.92939 1.66959 6.53761C1.64867 6.14583 1.74361 5.75649 1.94288 5.41683C2.14189 5.07696 2.43671 4.80128 2.79158 4.6232C3.14646 4.44513 3.54615 4.37232 3.94219 4.41359L5.27679 4.55313C5.75191 4.60229 6.23064 4.50211 6.64446 4.26692C7.05651 4.03106 7.3822 3.67274 7.57486 3.24331L8.11862 2.0384C8.28027 1.67974 8.54407 1.37498 8.87803 1.16111C9.21199 0.947238 9.60177 0.833432 10.0001 0.833496C10.3984 0.833432 10.7882 0.947238 11.1221 1.16111C11.4561 1.37498 11.7199 1.67974 11.8815 2.0384L12.4294 3.24331C12.6221 3.67274 12.9478 4.03106 13.3598 4.26692C13.7737 4.50211 14.2524 4.60229 14.7275 4.55313L16.058 4.41359C16.454 4.37232 16.8537 4.44513 17.2086 4.6232C17.5635 4.80128 17.8583 5.07696 18.0573 5.41683C18.2566 5.75649 18.3515 6.14583 18.3306 6.53761C18.3097 6.92939 18.1738 7.30677 17.9394 7.62396L17.1517 8.69035C16.8708 9.07098 16.7195 9.52954 16.7196 10.0002C16.7172 10.4721 16.8671 10.9325 17.1476 11.3151L17.9353 12.3815C18.1696 12.6986 18.3055 13.076 18.3264 13.4678C18.3474 13.8596 18.2524 14.2489 18.0532 14.5886C17.8541 14.9285 17.5593 15.2041 17.2044 15.3822C16.8496 15.5603 16.4499 15.6331 16.0538 15.5918L14.7234 15.4523C14.2483 15.4031 13.7695 15.5033 13.3557 15.7385C12.9445 15.973 12.6189 16.3295 12.4253 16.757L11.8815 17.9619C11.7199 18.3206 11.4561 18.6253 11.1221 18.8392C10.7882 19.0531 10.3984 19.1669 10.0001 19.1668C9.60177 19.1669 9.21199 19.0531 8.87803 18.8392C8.54407 18.6253 8.28027 18.3206 8.11862 17.9619ZM12.5001 10.0002C12.5001 11.3809 11.3808 12.5002 10.0001 12.5002C8.61937 12.5002 7.50008 11.3809 7.50008 10.0002C7.50008 8.61945 8.61937 7.50016 10.0001 7.50016C11.3808 7.50016 12.5001 8.61945 12.5001 10.0002Z" />
</svg>