<svg width="16" height="16" viewBox="0 0 16 16" xmlns="http://www.w3.org/2000/svg">
<path d="M8.01594 10.8C9.56014 10.8 10.8159 9.54415 10.8159 7.99995C10.8159 6.45575 9.56014 5.19995 8.01594 5.19995C6.47174 5.19995 5.21594 6.45575 5.21594 7.99995C5.21594 9.54415 6.47174 10.8 8.01594 10.8ZM8.01594 6.59995C8.77474 6.59995 9.41594 7.24115 9.41594 7.99995C9.41594 8.75875 8.77474 9.39995 8.01594 9.39995C7.25714 9.39995 6.61594 8.75875 6.61594 7.99995C6.61594 7.24115 7.25714 6.59995 8.01594 6.59995Z" />
<path d="M1.60746 10.8952L2.30746 12.1062C2.67916 12.7481 3.57376 12.9889 4.21846 12.6172L4.58876 12.403C4.99374 12.7216 5.44025 12.9834 5.91596 13.1814V13.6C5.91596 14.3721 6.54386 15 7.31596 15H8.71596C9.48806 15 10.116 14.3721 10.116 13.6V13.1814C10.5915 12.9834 11.038 12.7218 11.4432 12.4037L11.8135 12.6179C12.4596 12.9889 13.3521 12.7495 13.7252 12.1062L14.4245 10.8959C14.61 10.5744 14.6603 10.1924 14.5643 9.83381C14.4684 9.47524 14.234 9.16941 13.9128 8.9835L13.5593 8.7791C13.6344 8.26289 13.6344 7.73851 13.5593 7.2223L13.9128 7.0179C14.2339 6.83186 14.4681 6.52603 14.5641 6.16751C14.66 5.80899 14.6098 5.42705 14.4245 5.1055L13.7252 3.8952C13.3535 3.2512 12.4596 3.0097 11.8135 3.3828L11.4432 3.597C11.0382 3.27843 10.5917 3.01656 10.116 2.8186V2.4C10.116 1.6279 9.48806 1 8.71596 1H7.31596C6.54386 1 5.91596 1.6279 5.91596 2.4V2.8186C5.44041 3.01659 4.99394 3.27821 4.58876 3.5963L4.21846 3.3821C3.57166 3.0104 2.67846 3.2512 2.30676 3.8945L1.60746 5.1048C1.42195 5.42631 1.37164 5.80831 1.46759 6.16688C1.56353 6.52546 1.79788 6.83129 2.11916 7.0172L2.47266 7.2216C2.39723 7.73756 2.39723 8.26174 2.47266 8.7777L2.11916 8.9821C1.79798 9.16827 1.56373 9.47423 1.46781 9.83286C1.37188 10.1915 1.42211 10.5735 1.60746 10.8952ZM3.93566 8.9646C3.85662 8.64914 3.81642 8.32521 3.81596 8C3.81596 7.6766 3.85656 7.3518 3.93496 7.0354C3.97188 6.88793 3.95974 6.73244 3.90037 6.59249C3.84101 6.45254 3.73765 6.33575 3.60596 6.2598L2.81986 5.8048L3.51846 4.5945L4.31996 5.0579C4.45067 5.13353 4.60239 5.16473 4.75233 5.14681C4.90228 5.12889 5.04236 5.06281 5.15156 4.9585C5.62513 4.50809 6.19619 4.17297 6.82036 3.9792C6.96374 3.93543 7.08928 3.84678 7.17849 3.72631C7.26771 3.60584 7.3159 3.45991 7.31596 3.31V2.4H8.71596V3.31C8.71603 3.45991 8.76421 3.60584 8.85343 3.72631C8.94265 3.84678 9.06819 3.93543 9.21156 3.9792C9.83561 4.17325 10.4066 4.50833 10.8804 4.9585C10.9897 5.06261 11.1297 5.12855 11.2796 5.14646C11.4295 5.16438 11.5812 5.13331 11.712 5.0579L12.5128 4.5952L13.2128 5.8055L12.426 6.2598C12.2944 6.33583 12.1911 6.45264 12.1317 6.59256C12.0724 6.73249 12.0602 6.88793 12.097 7.0354C12.1754 7.3518 12.216 7.6766 12.216 8C12.216 8.3227 12.1754 8.6475 12.0963 8.9646C12.0595 9.11215 12.0718 9.26764 12.1313 9.40758C12.1908 9.54751 12.2942 9.66427 12.426 9.7402L13.2121 10.1945L12.5135 11.4048L11.712 10.9421C11.5813 10.8664 11.4295 10.8351 11.2796 10.853C11.1296 10.8709 10.9895 10.9371 10.8804 11.0415C10.4068 11.4919 9.83573 11.827 9.21156 12.0208C9.06819 12.0646 8.94265 12.1532 8.85343 12.2737C8.76421 12.3942 8.71603 12.5401 8.71596 12.69L8.71736 13.6H7.31596V12.69C7.3159 12.5401 7.26771 12.3942 7.17849 12.2737C7.08928 12.1532 6.96374 12.0646 6.82036 12.0208C6.19632 11.8268 5.62531 11.4917 5.15156 11.0415C5.04258 10.9368 4.9024 10.8705 4.75232 10.8527C4.60223 10.8349 4.45043 10.8665 4.31996 10.9428L3.51916 11.4062L2.81916 10.1959L3.60596 9.7402C3.7377 9.66427 3.84113 9.54751 3.90061 9.40758C3.9601 9.26764 3.9724 9.11215 3.93566 8.9646Z" />
</svg>
