<svg width="24" height="24" viewBox="0 0 24 24" fill="none" xmlns="http://www.w3.org/2000/svg">

<path d="M15.9423 18.4334C15.9423 19.4887 15.9423 20.3774 15.9423 21.2582C15.9497 21.5245 15.8619 21.7854 15.6933 21.9986C15.5246 22.2117 15.2849 22.3646 15.0131 22.4325C14.7624 22.5204 14.4871 22.5225 14.2349 22.4385C13.9827 22.3545 13.7694 22.1896 13.6318 21.9723C13.4603 21.7037 13.3651 21.3975 13.3556 21.0836C13.3556 19.4966 13.3556 17.9097 13.3556 16.3227C13.3257 16.0911 13.3669 15.8563 13.4742 15.6464C13.5815 15.4364 13.7504 15.2602 13.9605 15.1388C14.1707 15.0174 14.4134 14.956 14.6594 14.9619C14.9055 14.9679 15.1445 15.0408 15.3479 15.1722C16.8129 15.9657 18.2612 16.7591 19.6926 17.6161C19.9915 17.785 20.2093 18.0575 20.2999 18.3759C20.3905 18.6943 20.3469 19.0336 20.1782 19.3221C20.0977 19.4698 19.9855 19.6 19.8487 19.7041C19.712 19.8082 19.5537 19.8841 19.3841 19.9267C19.2146 19.9693 19.0374 19.9777 18.8642 19.9515C18.691 19.9253 18.5255 19.8649 18.3784 19.7744C17.6166 19.4094 16.838 18.965 15.9423 18.4334Z" fill="#28B2E1"/>
<path d="M8.39302 5.37622C8.39302 4.58355 8.39302 3.79088 8.39302 2.99821C8.39302 2.20554 8.99923 1.49214 9.81939 1.50007C10.6396 1.50799 11.1923 2.10249 11.1923 3.04577C11.1923 4.58355 11.1923 6.11341 11.1923 7.64326C11.1923 8.80848 10.1671 9.38713 9.04381 8.81641C7.51046 8.02374 5.98603 7.23107 4.4616 6.4384C4.28055 6.35485 4.12061 6.2393 3.99157 6.09884C3.86254 5.95837 3.76713 5.79595 3.7112 5.62154C3.65528 5.44712 3.64001 5.26437 3.66634 5.08452C3.69266 4.90467 3.76003 4.73151 3.86431 4.57563C3.96668 4.42748 4.10263 4.2999 4.26349 4.20103C4.42435 4.10216 4.6066 4.03416 4.79864 4.00135C4.99068 3.96854 5.1883 3.97165 5.37892 4.01047C5.56953 4.04929 5.74897 4.12299 5.9058 4.22685C6.66356 4.61526 7.40348 5.01952 8.16124 5.41586C8.23976 5.40933 8.31738 5.39606 8.39302 5.37622V5.37622Z" fill="#28B2E1"/>
<path d="M19.4326 11.9809L21.7132 13.3916C21.8827 13.4754 22.034 13.5938 22.1577 13.7396C22.2814 13.8854 22.375 14.0556 22.4328 14.2399C22.4906 14.4241 22.5115 14.6185 22.494 14.8113C22.4766 15.0041 22.4212 15.1913 22.3314 15.3613C22.2462 15.5252 22.1275 15.6681 21.9834 15.78C21.8393 15.8919 21.6733 15.9702 21.4969 16.0095C21.3204 16.0488 21.1378 16.0481 20.9617 16.0075C20.7855 15.9668 20.6201 15.8873 20.4768 15.7742C19.1068 14.9141 17.7284 14.1313 16.3584 13.2798C15.2055 12.5572 15.2222 11.3616 16.3584 10.6391C17.6866 9.77896 19.0232 9.02201 20.3599 8.22207C20.5089 8.10827 20.6802 8.02904 20.8618 7.98979C21.0434 7.95054 21.2312 7.95222 21.4121 7.99471C21.593 8.0372 21.7629 8.11949 21.91 8.23595C22.0572 8.3524 22.1781 8.50025 22.2645 8.66936C22.3496 8.83507 22.4011 9.01683 22.4159 9.20363C22.4307 9.39043 22.4086 9.57839 22.3508 9.75612C22.293 9.93385 22.2007 10.0976 22.0797 10.2376C21.9586 10.3775 21.8112 10.4907 21.6463 10.5703C20.9864 11.0176 20.2763 11.4563 19.4326 11.9809Z" fill="#28B2E1"/>
<path d="M4.6005 11.9987C3.78265 11.503 3.08748 11.0577 2.36777 10.5957C2.18929 10.5177 2.02966 10.4004 1.90014 10.2521C1.77063 10.1037 1.67439 9.92803 1.61823 9.73733C1.56207 9.54662 1.54735 9.34556 1.57512 9.14837C1.60288 8.95118 1.67246 8.76266 1.77892 8.59611C1.87628 8.43269 2.00691 8.29284 2.16186 8.1862C2.31681 8.07955 2.4924 8.00862 2.67656 7.97829C2.86072 7.94795 3.04909 7.95894 3.22873 8.01048C3.40836 8.06202 3.57501 8.15289 3.71722 8.27686C5.04213 9.117 6.37522 9.87314 7.69196 10.6881C7.92553 10.7954 8.12506 10.968 8.26779 11.1862C8.41052 11.4044 8.49072 11.6593 8.49924 11.9221C8.50777 12.1848 8.44428 12.4447 8.316 12.6721C8.18773 12.8996 7.99984 13.0854 7.77374 13.2085C6.34251 14.1327 4.87856 14.9896 3.40644 15.855C3.27305 15.9409 3.12414 15.9982 2.96865 16.0236C2.81316 16.049 2.65429 16.0418 2.50155 16.0026C2.34881 15.9634 2.20535 15.8929 2.07977 15.7953C1.9542 15.6978 1.84909 15.5752 1.77075 15.4349C1.67055 15.3145 1.59544 15.1743 1.55003 15.0229C1.50463 14.8715 1.48991 14.7122 1.50677 14.5547C1.52363 14.3973 1.57171 14.2451 1.64806 14.1075C1.72441 13.9698 1.8274 13.8497 1.95067 13.7546C2.47252 13.3344 3.01876 12.9472 3.58637 12.5952C3.92168 12.3936 4.22429 12.2255 4.6005 11.9987Z" fill="#28B2E1"/>
<path d="M8.38556 18.452C7.49517 18.9212 6.75615 19.3507 5.97261 19.7245C5.63569 19.9035 5.25164 19.9996 4.85962 20.0028C4.58229 19.9893 4.31859 19.8911 4.11271 19.7246C3.90683 19.558 3.7713 19.3334 3.72882 19.0882C3.63105 18.8415 3.62879 18.5726 3.72243 18.3246C3.81606 18.0766 4.00016 17.8638 4.24525 17.7203C5.91918 16.8137 7.60202 15.9151 9.31157 15.08C9.50969 14.9929 9.72949 14.9527 9.94998 14.9632C10.1705 14.9736 10.3843 15.0344 10.5709 15.1397C10.7576 15.245 10.911 15.3913 11.0163 15.5647C11.1216 15.738 11.1754 15.9326 11.1725 16.1298C11.217 17.8396 11.1725 19.5495 11.1725 21.2594C11.1727 21.5816 11.0325 21.8913 10.7815 22.1229C10.5306 22.3544 10.1886 22.4897 9.82799 22.5C9.45693 22.4981 9.10115 22.3678 8.83546 22.1364C8.56978 21.905 8.41489 21.5906 8.40337 21.2594C8.35885 20.5754 8.40337 19.8915 8.40337 19.2075L8.38556 18.452Z" fill="#28B2E1"/>
<path d="M16.0124 5.56178L18.23 4.32733C18.3738 4.21155 18.543 4.12724 18.7255 4.08047C18.9081 4.0337 19.0994 4.02564 19.2856 4.05688C19.4719 4.08812 19.6484 4.15788 19.8025 4.26112C19.9567 4.36435 20.0845 4.49849 20.1768 4.65385C20.2688 4.81603 20.3246 4.99412 20.341 5.17726C20.3575 5.36041 20.3341 5.54478 20.2723 5.71914C20.2105 5.89351 20.1117 6.05422 19.9817 6.19148C19.8518 6.32873 19.6936 6.43966 19.5166 6.51751C18.1623 7.26615 16.8165 8.01479 15.4537 8.75547C14.2518 9.40854 13.3461 8.89883 13.3461 7.56083C13.3461 6.03168 13.3461 4.49458 13.3461 2.95747C13.3461 2.0575 13.8455 1.5 14.6327 1.5C15.4199 1.5 15.9701 2.10528 15.9701 2.96543C15.9701 3.82557 15.9701 4.55829 15.9701 5.35471C15.9701 5.35471 15.9701 5.41842 16.0124 5.56178Z" fill="#28B2E1"/>
<path d="M12.3822 9.61705L14.4231 11.5643V12.4699C13.8864 12.9827 13.2928 13.5998 12.6505 14.1607C12.5743 14.2433 12.4814 14.3094 12.3778 14.3545C12.2742 14.3997 12.1621 14.4231 12.0488 14.4231C11.9355 14.4231 11.8234 14.3997 11.7198 14.3545C11.6162 14.3094 11.5233 14.2433 11.4471 14.1607C10.9023 13.6478 10.3738 13.1109 9.86155 12.558C9.77229 12.4828 9.70063 12.3894 9.65149 12.2842C9.60235 12.1791 9.5769 12.0647 9.5769 11.949C9.5769 11.8332 9.60235 11.7188 9.65149 11.6137C9.70063 11.5086 9.77229 11.4152 9.86155 11.3399C10.3644 10.7534 10.9077 10.2018 11.4878 9.68917C11.7805 9.45678 12.187 9.66513 12.3822 9.61705ZM12.0569 12.9346L13.057 12.0051L12.0569 11.0595L11.0162 11.8608L12.0569 12.9346Z" fill="#28B2E1"/>
</svg>
