<svg width="20" height="20" viewBox="0 0 20 20" xmlns="http://www.w3.org/2000/svg">
    <path
        d="M10.8 1C8.39998 1 5.89998 1.7 5.09998 2.9C3.89998 3.4 3.09998 4.1 3.09998 5.1V15.7C3.09998 17.6 5.69998 19 9.19998 19C11.7 19 13.8 18.2 14.7 17.1C16 16.5 16.9 15.6 16.9 14.5V3.9C16.9 2 13.8 1 10.8 1ZM13.5 15.7C13.5 16.4 11.8 17.3 9.09998 17.3C6.39998 17.3 4.69998 16.3 4.69998 15.7V7.1C5.89998 7.7 7.49998 8 9.19998 8C10.8 8 12.4 7.7 13.6 7.2V15.7H13.5ZM9.19998 6.3C6.39998 6.3 4.79998 5.4 4.79998 5.1C4.79998 4.8 6.39998 3.9 9.19998 3.9C12 3.9 13.6 4.8 13.6 5.1C13.5 5.4 12 6.3 9.19998 6.3ZM15.2 16.1C15.2 16.1 15.2 16 15.2 16.1C15.2 16 15.2 16.1 15.2 16.1Z"
         />
</svg>
