<svg width="20" height="20" viewBox="0 0 20 20"  xmlns="http://www.w3.org/2000/svg">
    <path d="M10 1C6.8 1 3.5 2.09392 3.5 4.08287V15.4199C3.5 17.4088 6.3 19 10 19C13.7 19 16.5 17.5083 16.5 15.4199V4.08287C16.5 2.09392 13.2 1 10 1ZM10 2.79006C13 2.79006 14.7 3.78453 14.7 4.08287C14.7 4.38122 13 5.37569 10 5.37569C7 5.37569 5.3 4.38122 5.3 4.08287C5.3 3.78453 7 2.79006 10 2.79006ZM10 17.1105C7.2 17.1105 5.3 16.0166 5.3 15.3204V6.27072C6.5 6.8674 8.3 7.16575 10 7.16575C11.7 7.16575 13.5 6.8674 14.7 6.27072V15.4199C14.7 16.0166 12.8 17.1105 10 17.1105Z" />
</svg>
