<svg width="20" height="20" viewBox="0 0 20 20" xmlns="http://www.w3.org/2000/svg">
    <path fill-rule="evenodd" clip-rule="evenodd"
        d="M2 3.61006V16.1887L10.8889 18V2L2 3.61006ZM5.55556 7.13208L6.24692 8.9434L6.93828 7.13208H7.92593L6.83951 9.84906L8.321 12.566H7.23458L6.34569 10.6541L5.4568 12.566H4.46914L5.75309 9.84906L4.5679 7.13208H5.55556ZM13.5555 4.51572V6.02516H11.4814V6.93082H13.5555V8.23899H11.4814V9.14465H13.5555V10.3522H11.4814V11.2579H13.5555V12.566H11.4814V13.4717H13.5555V14.9811H11.4814V15.9874H18V3.61006H11.4814V4.51572H13.5555ZM14.4444 10.4528V9.14465H16.9136V10.4528H14.4444ZM14.4444 11.2579H16.9136V12.566H14.4444V11.2579ZM16.9136 4.51572V6.02516H14.4444V4.51572H16.9136ZM16.9136 8.23899H14.4444V6.93082H16.9136V8.23899ZM16.9136 13.4717V14.9811H14.4444V13.4717H16.9136Z"
         />
</svg>
