<svg width="24" height="24" viewBox="0 0 24 24" fill="none" xmlns="http://www.w3.org/2000/svg">

<path d="M12.0221 0.75H11.342V5.37184H12.0221V0.75Z" fill="#6199A7"/>
<path d="M13.7935 3.42599V2.74597L9.57734 2.74597V3.42599L13.7935 3.42599Z" fill="#6199A7"/>
<path d="M3.18161 9.3139H2.50159V13.9357H3.18161V9.3139Z" fill="#629AA8"/>
<path d="M4.96613 11.892V11.2119H0.75001V11.892H4.96613Z" fill="#629AA8"/>
<path d="M12.022 17.6063H11.206V22.5H12.022V17.6063Z" fill="#576495"/>
<path d="M13.8266 20.3183V19.6383H9.33851V20.3183H13.8266Z" fill="#576495"/>
<path d="M20.5902 9.17813H19.7741V14.0718H20.5902V9.17813Z" fill="#576495"/>
<path d="M22.5002 11.9027V11.2227H18.0121V11.9027H22.5002Z" fill="#576495"/>
<path d="M17.7342 3.061H16.6461V9.72189H17.7342V3.061Z" fill="#47889D"/>
<path d="M20.3667 6.89078V5.93875L13.9745 5.93875V6.89078L20.3667 6.89078Z" fill="#47889D"/>
<path d="M12.1579 7.81876H10.9339V15.4312H12.1579V7.81876Z" fill="#FD6E00"/>
<path d="M15.2444 12.2665V11.0425L8.03622 11.0425V12.2665L15.2444 12.2665Z" fill="#FD6E00"/>
<path d="M6.4458 2.92484H5.49377V9.58573H6.4458V2.92484Z" fill="#FD8C00"/>
<path d="M9.18115 6.7628V5.94678L2.78898 5.94678V6.7628L9.18115 6.7628Z" fill="#FD8C00"/>
<path d="M6.4458 13.392H5.49377V20.0529H6.4458V13.392Z" fill="#DE002D"/>
<path d="M9.22552 17.1378V16.3217H2.83335V17.1378H9.22552Z" fill="#DE002D"/>
<path d="M17.734 13.392H16.782V20.0529H17.734V13.392Z" fill="#004381"/>
<path d="M20.4357 17.0798V16.2637H14.0436V17.0798H20.4357Z" fill="#004381"/>
</svg>
