<svg width="16" height="16" viewBox="0 0 16 16" xmlns="http://www.w3.org/2000/svg">
<path d="M14.2 1.9C14 1.7 13.7 1.5 13.4 1.5H5.49998C5.19998 1.5 4.89998 1.6 4.69998 1.9C4.39998 2.2 4.29998 2.5 4.29998 2.8V4.3H2.79998C2.49998 4.3 2.19998 4.4 1.99998 4.7C1.79998 5 1.59998 5.2 1.59998 5.5V13.2C1.59998 13.5 1.69998 13.8 1.89998 14C2.09998 14.2 2.39998 14.4 2.69998 14.4H10.6C10.9 14.4 11.2 14.3 11.4 14C11.6 13.8 11.7 13.5 11.7 13.2V11.7H13.3C13.6 11.7 13.9 11.6 14.1 11.3C14.3 11 14.4 10.8 14.4 10.5V2.8C14.5 2.5 14.4 2.1 14.2 1.9ZM2.89998 5.5H5.39998H6.59998H7.89998H9.09998H10.5V7H9.19998H7.89998H6.59998H5.29998H2.89998V5.5ZM4.19998 13.2H2.89998V8.2H4.19998V13.2ZM7.99998 13.2H5.39998V10V8.2H6.49998H7.79998H7.99998V10.7V13.2ZM10.6 13.2H9.19998V10.7V9.5V8.2H10.5V9.5V10.7V13.2H10.6ZM13.3 10.5H12V5.5H13.3V10.5ZM13.3 4.3H5.59998V2.8H13.3V4.3Z"/>
</svg>