<svg width="20" height="20" viewBox="0 0 20 20"  xmlns="http://www.w3.org/2000/svg">
<path  d="M18.5 6.34981V3.92981H17.56V3.08981C17.5397 2.85644 17.4311 2.6396 17.2565 2.48351C17.0818 2.32742 16.8542 2.24384 16.62 2.24981H4.24998C4.04135 2.2676 3.84744 2.36453 3.70799 2.52071C3.56853 2.6769 3.49411 2.88051 3.49998 3.08981V3.76981H2.49998C2.2905 3.79001 2.09651 3.88903 1.95727 4.04683C1.81803 4.20464 1.74393 4.40945 1.74998 4.61981V16.9098C1.76409 17.128 1.85713 17.3335 2.0117 17.4881C2.16628 17.6427 2.37183 17.7357 2.58998 17.7498H14.97C15.1881 17.7357 15.3937 17.6427 15.5483 17.4881C15.7028 17.3335 15.7959 17.128 15.81 16.9098V16.2198H16.75C16.9681 16.2057 17.1737 16.1127 17.3283 15.9581C17.4828 15.8035 17.5759 15.598 17.59 15.3798V14.5498H18.53V12.1198H17.59V10.4498H18.53V8.02981H17.59V6.34981H18.5ZM14.28 16.2498H3.27998V5.24981H14.28V16.2498ZM9.44 6.75977H8.13V12.9098H9.44V6.75977ZM10.66 8.52979H11.97V12.9098H10.66V8.52979ZM6.81 9.37012H5.5V12.9101H6.81V9.37012ZM4.75 13.5601H12.63V14.8601H4.75V13.5601Z" />
</svg>
