<svg width="20" height="20" viewBox="0 0 20 20"  xmlns="http://www.w3.org/2000/svg">
    <path
        d="M17.0186 6.29268V5.31707C17.0186 4.63415 16.5342 4.14634 15.8559 4.14634V3.17073C15.8559 2.4878 15.2745 2 14.6932 2H5.29441C4.71305 2 4.13168 2.58537 4.13168 3.17073V4.04878C3.45342 4.14634 2.96894 4.73171 2.96894 5.31707V6.19512C2.38758 6.39024 2 6.87805 2 7.46341V16.8293C2 17.5122 2.58137 18 3.16273 18H16.8249C17.5031 18 17.9876 17.4146 17.9876 16.8293V7.46341C18.0845 6.87805 17.6 6.39024 17.0186 6.29268ZM15.5652 5.60976V6.19512H4.42236V5.60976H15.5652ZM14.4994 3.46341V4.14634H5.5851V3.46341H14.4994ZM16.6311 16.5366H3.45342V7.65854H16.6311V16.5366Z"
        />
    <path d="M12.6584 9.41455H7.32922V10.878H12.6584V9.41455Z"  />
</svg>
