<svg width="16" height="16" viewBox="0 0 16 16" xmlns="http://www.w3.org/2000/svg">
<path fill-rule="evenodd" clip-rule="evenodd" d="M3.1 1H13.6C14.3 1 15 1.7 15 2.4875V12.725C15 13.4277 14.5124 14.0606 13.8479 14.1889C13.6204 14.6603 13.1593 15 12.6133 15H2.38667C1.60667 15 1 14.3933 1 13.6133V3.47333C1 2.93001 1.29436 2.42874 1.73662 2.17456C1.88918 1.5236 2.49459 1 3.1 1ZM12.6133 5.64V3.47333H2.4V5.64H12.6133ZM9.14667 13.6133H5.76667V7.11333H9.14667V13.6133ZM4.46667 7.11333H2.4V13.6133H4.46667V7.11333ZM10.62 13.6133V7.11333H12.7V13.6133H10.62Z" />
</svg>
