<svg width="20" height="20" viewBox="0 0 20 20" xmlns="http://www.w3.org/2000/svg">
    <path d="M12.9 7.59985H11.5V12.2999H12.9V7.59985Z"  />
    <path d="M10.2 5.69995H8.80005V12.3H10.2V5.69995Z"  />
    <path d="M7.4 8.5H6V12.3H7.4V8.5Z"  />
    <path d="M13.6 13H5.19995V14.4H13.6V13Z"  />
    <path
        d="M18 6.9V4.3H17V3.4C17 2.9 16.5 2.5 16 2.5H2.8C2.4 2.5 2 2.9 2 3.4V16.6C2 17 2.4 17.5 2.9 17.5H16.1C16.5 17.5 17 17.1 17 16.6V15.7H18V13.1H17V11.3H18V8.7H17V6.9H18ZM15.6 16.1H3.4V3.9H15.6V16.1Z"
         />
</svg>
