<svg width="16" height="16" viewBox="0 0 16 16" xmlns="http://www.w3.org/2000/svg">
<path fill-rule="evenodd" clip-rule="evenodd" d="M1.33331 1.99992C1.33331 1.63173 1.63179 1.33325 1.99998 1.33325H8.66665C8.84346 1.33325 9.01303 1.40349 9.13805 1.52851L15.1381 7.52851C15.3984 7.78886 15.3984 8.21097 15.1381 8.47132L8.47138 15.138C8.21103 15.3983 7.78892 15.3983 7.52858 15.138L1.52858 9.13799C1.40355 9.01297 1.33331 8.8434 1.33331 8.66659V1.99992ZM2.66665 2.66659V8.39044L7.99998 13.7238L13.7238 7.99992L8.3905 2.66659H2.66665Z"/>
<path fill-rule="evenodd" clip-rule="evenodd" d="M2 2V8.66667L8 14.6667L14.6667 8L8.66667 2H2ZM6.15833 5.04883C6.15833 5.66125 5.66186 6.15771 5.04944 6.15771C4.43702 6.15771 3.94055 5.66125 3.94055 5.04883C3.94055 4.43641 4.43702 3.93994 5.04944 3.93994C5.66186 3.93994 6.15833 4.43641 6.15833 5.04883Z"/>
</svg>
