<svg width="20" height="20" viewBox="0 0 20 20" fill="none"
  xmlns="http://www.w3.org/2000/svg">
  <path d="M18.9 9.4L18.3 4.2C18.3 3.8 17.9 3.5 17.5 3.4H17L17.5 7.8C17.5 8.5 17.5 9.1 17 9.7C17 9.7 8.99998 17.8 8.59998 18L8.99998 18.5C9.49998 19 10.3 19 10.8 18.5L18.5 10.7C18.9 10.2 19 9.9 18.9 9.4Z" fill="#979797"/>
  <path d="M8.80002 16.9L16.5 9.1C16.8 8.8 16.9 8.4 16.8 7.9L16.2 2.7C16.2 2.3 15.8 2 15.4 1.9L10.2 1.2C9.80002 1.2 9.40002 1.3 9.00002 1.6L1.40002 9.4C0.900024 9.9 0.900024 10.8 1.40002 11.3L7.00002 17C7.40002 17.4 8.30002 17.4 8.80002 16.9ZM10.8 5.6C11.3 5.1 12 5.1 12.5 5.6C13 6.1 13 6.9 12.5 7.4C12 7.9 11.3 7.9 10.8 7.4C10.3 6.8 10.4 6.1 10.8 5.6Z" fill="#AEB4BB"/>
</svg>
