<svg width="20" height="20" viewBox="0 0 20 20" xmlns="http://www.w3.org/2000/svg">
    <path
        d="M3.2602 15.5L13.7783 15.5C14.2194 15.5 14.5975 15.3133 14.7865 14.94L17.811 10.46C18.063 10.1489 18.063 9.71333 17.811 9.34L14.7865 4.86C14.5345 4.54889 14.1564 4.3 13.7153 4.3L3.2602 4.3C2.56709 4.3 2 4.86 2 5.54444L2 14.2556C2 14.94 2.56709 15.5 3.2602 15.5ZM12.2661 8.71778C12.9592 8.71778 13.4633 9.21555 13.4633 9.9C13.4633 10.5844 12.9592 11.0822 12.2661 11.0822C11.573 11.0822 11.0689 10.5844 11.0689 9.9C11.0689 9.21555 11.636 8.71778 12.2661 8.71778Z" />
</svg>