<svg width="16" height="16" viewBox="0 0 16 16" xmlns="http://www.w3.org/2000/svg">
<path fill-rule="evenodd" clip-rule="evenodd" d="M11.8388 9.94283C11.9264 9.60253 12.2733 9.39767 12.6136 9.48526C13.9855 9.83837 15 11.083 15 12.5662V13.8387C15 14.1901 14.7151 14.475 14.3638 14.475C14.0124 14.475 13.7275 14.1901 13.7275 13.8387V12.5662C13.7275 11.6777 13.1198 10.9295 12.2964 10.7176C11.9561 10.63 11.7512 10.2831 11.8388 9.94283Z"/>
<path fill-rule="evenodd" clip-rule="evenodd" d="M9.63836 2.33251C9.77021 2.0068 10.1411 1.84963 10.4669 1.98148C11.6315 2.45293 12.455 3.59516 12.455 4.93125C12.455 6.26733 11.6315 7.40956 10.4669 7.88102C10.1411 8.01286 9.77021 7.8557 9.63836 7.52998C9.50652 7.20426 9.66368 6.83333 9.9894 6.70149C10.6901 6.41786 11.1825 5.73129 11.1825 4.93125C11.1825 4.1312 10.6901 3.44464 9.9894 3.16101C9.66368 3.02916 9.50652 2.65823 9.63836 2.33251Z"/>
<path fill-rule="evenodd" clip-rule="evenodd" d="M4.93386 9.38497C5.91837 9.3853 6.90289 9.3853 7.8874 9.38497C8.58131 9.38475 9.05481 9.38459 9.46087 9.49339C10.5587 9.78755 11.4162 10.6451 11.7104 11.7429C11.8568 12.2896 11.8144 12.8739 11.8189 13.4341C11.8194 13.5022 11.8205 13.6397 11.7862 13.7676C11.698 14.097 11.4407 14.3542 11.1114 14.4425C10.9835 14.4767 10.8459 14.4756 10.7779 14.4751C7.86706 14.4519 4.95421 14.4519 2.04336 14.4751C1.97533 14.4756 1.83777 14.4767 1.70987 14.4425C1.38053 14.3542 1.12328 14.097 1.03503 13.7676C1.00076 13.6397 1.00186 13.5022 1.0024 13.4341C1.00685 12.8753 0.964642 12.2887 1.11091 11.7429C1.40507 10.6451 2.26257 9.78755 3.36039 9.49339C3.76645 9.38459 4.23995 9.38475 4.93386 9.38497Z"/>
<path fill-rule="evenodd" clip-rule="evenodd" d="M3.22938 4.93125C3.22938 3.17429 4.65368 1.75 6.41063 1.75C8.16759 1.75 9.59188 3.17429 9.59188 4.93125C9.59188 6.6882 8.16759 8.1125 6.41063 8.1125C4.65368 8.1125 3.22938 6.6882 3.22938 4.93125Z"/>
</svg>
