<svg width="16" height="16" viewBox="0 0 16 16" xmlns="http://www.w3.org/2000/svg">
<path d="M11.0693 7.36539C11.4754 6.67345 11.6507 5.87027 11.57 5.07206C11.4507 3.88273 10.7867 2.83139 9.70134 2.11206L8.96468 3.22273C9.71068 3.71739 10.1647 4.42206 10.2433 5.20539C10.2796 5.56946 10.2343 5.93703 10.1107 6.28138C9.98704 6.62573 9.78823 6.9382 9.52868 7.19606L8.73401 7.99073L9.81268 8.30739C12.634 9.13406 12.6667 11.9714 12.6667 12.0001H14C14 10.8074 13.3627 8.47673 11.0693 7.36539Z"/>
<path d="M6.33337 8.00008C7.80404 8.00008 9.00004 6.80408 9.00004 5.33341C9.00004 3.86275 7.80404 2.66675 6.33337 2.66675C4.86271 2.66675 3.66671 3.86275 3.66671 5.33341C3.66671 6.80408 4.86271 8.00008 6.33337 8.00008ZM6.33337 4.00008C7.06871 4.00008 7.66671 4.59808 7.66671 5.33341C7.66671 6.06875 7.06871 6.66675 6.33337 6.66675C5.59804 6.66675 5.00004 6.06875 5.00004 5.33341C5.00004 4.59808 5.59804 4.00008 6.33337 4.00008ZM7.33337 8.66675H5.33337C3.12737 8.66675 1.33337 10.4607 1.33337 12.6667V13.3334H2.66671V12.6667C2.66671 11.1961 3.86271 10.0001 5.33337 10.0001H7.33337C8.80404 10.0001 10 11.1961 10 12.6667V13.3334H11.3334V12.6667C11.3334 10.4607 9.53937 8.66675 7.33337 8.66675Z" />
</svg>
