<svg width="16" height="16" viewBox="0 0 16 16" xmlns="http://www.w3.org/2000/svg">
<path fill-rule="evenodd" clip-rule="evenodd" d="M3.44105 1.33325L3.76195 1.33325C4.48448 1.33325 5.06725 1.33324 5.53917 1.3718C6.02506 1.4115 6.45186 1.49537 6.84672 1.69656C7.30242 1.92876 7.69622 2.26144 8.00008 2.66658C8.30394 2.26144 8.69774 1.92876 9.15345 1.69656C9.54831 1.49537 9.9751 1.4115 10.461 1.3718C10.9329 1.33324 11.5157 1.33325 12.2382 1.33325L12.5591 1.33325C12.9105 1.33324 13.2137 1.33323 13.4634 1.35363C13.727 1.37517 13.9891 1.42271 14.2414 1.55124C14.6177 1.74299 14.9237 2.04895 15.1154 2.42527C15.244 2.67752 15.2915 2.93967 15.313 3.20323C15.3334 3.45295 15.3334 3.75612 15.3334 4.10754V9.8923C15.3334 10.2437 15.3334 10.5469 15.313 10.7966C15.2915 11.0602 15.244 11.3223 15.1154 11.5746C14.9237 11.9509 14.6177 12.2569 14.2414 12.4486C13.9891 12.5771 13.727 12.6247 13.4634 12.6462C13.2137 12.6666 12.9106 12.6666 12.5591 12.6666H11.6169C10.7405 12.6666 10.4412 12.6734 10.1794 12.7529C9.92782 12.8293 9.69378 12.9545 9.49065 13.1215C9.27927 13.2952 9.10761 13.5405 8.62149 14.2697L8.55478 14.3697C8.43114 14.5552 8.22298 14.6666 8.00008 14.6666C7.77718 14.6666 7.56903 14.5552 7.44538 14.3697L7.37868 14.2697C6.89256 13.5405 6.7209 13.2952 6.50951 13.1215C6.30639 12.9545 6.07234 12.8293 5.82076 12.7529C5.55895 12.6734 5.25966 12.6666 4.3833 12.6666H3.44104C3.08961 12.6666 2.78644 12.6666 2.53673 12.6462C2.27317 12.6247 2.01102 12.5771 1.75877 12.4486C1.38244 12.2569 1.07648 11.9509 0.884736 11.5746C0.756207 11.3223 0.708663 11.0602 0.687129 10.7966C0.666726 10.5469 0.666737 10.2437 0.666749 9.89228V4.10756C0.666737 3.75613 0.666726 3.45295 0.687129 3.20323C0.708663 2.93967 0.756207 2.67753 0.884736 2.42527C1.07648 2.04895 1.38244 1.74299 1.75877 1.55124C2.01102 1.42271 2.27317 1.37517 2.53673 1.35363C2.78645 1.33323 3.08962 1.33324 3.44105 1.33325ZM7.33342 6.26659C7.33342 5.50885 7.3329 4.98064 7.2993 4.56941C7.26634 4.16597 7.20489 3.93418 7.11543 3.75861C6.92368 3.38228 6.61772 3.07632 6.2414 2.88457C6.06583 2.79512 5.83403 2.73367 5.43059 2.7007C5.01936 2.6671 4.49115 2.66659 3.73342 2.66659H3.46675C3.08238 2.66659 2.8342 2.6671 2.64531 2.68254C2.4642 2.69734 2.39705 2.72245 2.36409 2.73925C2.23865 2.80316 2.13666 2.90515 2.07274 3.03059C2.05595 3.06356 2.03083 3.1307 2.01603 3.31181C2.0006 3.5007 2.00008 3.74888 2.00008 4.13325V9.86659C2.00008 10.251 2.0006 10.4991 2.01603 10.688C2.03083 10.8691 2.05595 10.9363 2.07274 10.9692C2.13666 11.0947 2.23865 11.1967 2.36409 11.2606C2.39705 11.2774 2.4642 11.3025 2.64531 11.3173C2.8342 11.3327 3.08238 11.3333 3.46675 11.3333H4.3833C4.41654 11.3333 4.44934 11.3332 4.4817 11.3332C5.22146 11.333 5.733 11.3328 6.20821 11.4771C6.61817 11.6016 7.00019 11.8039 7.33342 12.0729V6.26659ZM8.66675 12.0729C8.99998 11.8039 9.382 11.6016 9.79196 11.4771C10.2672 11.3328 10.7787 11.333 11.5185 11.3332C11.5508 11.3332 11.5836 11.3333 11.6169 11.3333H12.5334C12.9178 11.3333 13.166 11.3327 13.3549 11.3173C13.536 11.3025 13.6031 11.2774 13.6361 11.2606C13.7615 11.1967 13.8635 11.0947 13.9274 10.9692C13.9442 10.9363 13.9693 10.8691 13.9841 10.688C13.9996 10.4991 14.0001 10.251 14.0001 9.86659V4.13325C14.0001 3.74888 13.9996 3.5007 13.9841 3.31181C13.9693 3.1307 13.9442 3.06356 13.9274 3.03059C13.8635 2.90515 13.7615 2.80316 13.6361 2.73925C13.6031 2.72245 13.536 2.69734 13.3549 2.68254C13.166 2.6671 12.9178 2.66659 12.5334 2.66659H12.2667C11.509 2.66659 10.9808 2.6671 10.5696 2.7007C10.1661 2.73367 9.93434 2.79512 9.75877 2.88457C9.38244 3.07632 9.07648 3.38228 8.88474 3.75861C8.79528 3.93418 8.73383 4.16597 8.70087 4.56941C8.66727 4.98064 8.66675 5.50885 8.66675 6.26659V12.0729Z" />
</svg>
