<svg width="16" height="16" viewBox="0 0 16 16"  xmlns="http://www.w3.org/2000/svg">
  <path fill-rule="evenodd" clip-rule="evenodd" d="M6.61798 11.1479L7.1573 12.9163H9L10.7628 12.9163V12.2221C10.9729 12.4835 11.2383 12.6926 11.5391 12.8336C11.8602 12.9526 12.2004 13.0087 12.5418 12.9989C12.8723 13.0032 13.2009 12.9472 13.5121 12.8336C13.8003 12.7322 14.0609 12.5623 14.2722 12.3378C14.4534 12.1605 14.5966 11.9466 14.6927 11.7098C14.7968 11.4617 14.8675 11.2004 14.903 10.933C14.9529 10.6545 14.9854 10.3729 15 10.0901V8.487C14.9854 8.20421 14.9529 7.92267 14.903 7.64412C14.8674 7.38203 14.7967 7.1262 14.6927 6.88387C14.5969 6.64202 14.4539 6.42269 14.2722 6.23931C14.0599 6.01986 13.7993 5.85552 13.5121 5.76003C13.204 5.63304 12.8739 5.5712 12.5418 5.57823C12.2109 5.56815 11.8812 5.62429 11.5714 5.7435C11.2775 5.86563 11.0168 6.05839 10.8113 6.30542V3H9V12.9163L5.68914 3H4.29588L1 12.9163H2.8427L3.397 11.1479H6.61798ZM3.89139 9.49516L5.04494 5.85919L6.15356 9.49516H3.89139ZM12.9946 7.77634C13.0864 7.98518 13.1411 8.20901 13.1563 8.43742V8.42089C13.1746 8.70154 13.1746 8.98313 13.1563 9.26378C13.1734 9.54447 13.1734 9.82597 13.1563 10.1067C13.1411 10.3351 13.0864 10.5589 12.9946 10.7677C12.9275 10.9526 12.8024 11.1095 12.6388 11.214C12.4455 11.3225 12.2286 11.3794 12.0081 11.3794C11.7876 11.3794 11.5706 11.3225 11.3774 11.214C11.2138 11.1095 11.0887 10.9526 11.0216 10.7677C10.9242 10.56 10.864 10.3361 10.8437 10.1067V9.26378V8.43742C10.864 8.20799 10.9242 7.98411 11.0216 7.77634C11.0975 7.59684 11.2207 7.44238 11.3774 7.3301C11.5738 7.23223 11.7895 7.18136 12.0081 7.18136C12.2267 7.18136 12.4423 7.23223 12.6388 7.3301C12.7955 7.44238 12.9187 7.59684 12.9946 7.77634Z" />
</svg>
