<svg width="16" height="16" viewBox="0 0 16 16"  xmlns="http://www.w3.org/2000/svg">
    <path d="M8.48071 0.999892V7.46321H15.014C15.0104 6.60957 14.8384 5.76503 14.5079 4.97795C14.1774 4.19087 13.6949 3.47672 13.088 2.87636C12.4812 2.276 11.7619 1.80123 10.9713 1.47923C10.1807 1.15724 9.33434 0.994361 8.48071 0.999892Z" />
    <path d="M7.398 8.51794V2.31128C6.14478 2.32142 4.92262 2.70236 3.88559 3.40608C2.84857 4.1098 2.0431 5.10478 1.57073 6.26561C1.09837 7.42644 0.980253 8.70113 1.23129 9.92899C1.48232 11.1568 2.09126 12.2829 2.98133 13.1652C3.8714 14.0475 5.00277 14.6465 6.23278 14.8867C7.4628 15.1269 8.73641 14.9976 9.89304 14.5151C11.0497 14.0325 12.0375 13.2183 12.7321 12.1752C13.4267 11.132 13.7969 9.90652 13.796 8.65326C13.796 8.61593 13.796 8.5786 13.796 8.5366L7.398 8.51794Z" />
</svg>
