<svg width="16" height="16" viewBox="0 0 16 16" xmlns="http://www.w3.org/2000/svg">
    <path d="M13.88 1H2.11533C1.81952 1 1.53584 1.11751 1.32667 1.32667C1.11751 1.53584 1 1.81954 1 2.11534V3.93532H15V2.13867C15.0025 1.99002 14.9753 1.84238 14.9202 1.70433C14.865 1.56628 14.7829 1.44061 14.6786 1.33462C14.5744 1.22863 14.4501 1.14446 14.313 1.08702C14.1758 1.02957 14.0287 0.999979 13.88 1Z" />
    <path d="M1.04199 13.9921C1.04323 14.2599 1.15046 14.5163 1.34024 14.7052C1.53002 14.8941 1.78688 15.0001 2.05465 15.0001H4.04266V4.88745H1.04199V13.9921Z" />
    <path d="M9.53532 4.88257H5.09265V9.27857H9.53532V4.88257Z" />
    <path d="M15 4.88257H10.5574V9.27857H15V4.88257Z" />
    <path d="M9.53532 10.604H5.09265V15H9.53532V10.604Z" />
    <path d="M10.5573 15H13.6699C14.0214 15 14.3585 14.8604 14.6071 14.6118C14.8556 14.3633 14.9953 14.0262 14.9953 13.6746V10.604H10.5526L10.5573 15Z" />
</svg>
