<svg width="20" height="20" viewBox="0 0 20 20" xmlns="http://www.w3.org/2000/svg">
    <path
        d="M3 15.2273H5.54545V7.59091H3V15.2273ZM17 8.22727C17 7.52727 16.4273 6.95455 15.7273 6.95455H11.7118L12.3164 4.04636L12.3355 3.84273C12.3355 3.58182 12.2273 3.34 12.0555 3.16818L11.3809 2.5L7.19364 6.69364C6.95818 6.92273 6.81818 7.24091 6.81818 7.59091V13.9545C6.81818 14.6545 7.39091 15.2273 8.09091 15.2273H13.8182C14.3464 15.2273 14.7982 14.9091 14.9891 14.4509L16.9109 9.96455C16.9682 9.81818 17 9.66545 17 9.5V8.22727Z" />
</svg>
