<svg width="20" height="20" viewBox="0 0 20 20" xmlns="http://www.w3.org/2000/svg">
    <path
        d="M17 4.50271H14.4545V12.1391H17V4.50271ZM3 11.5027C3 12.2027 3.57273 12.7754 4.27273 12.7754H8.28818L7.68364 15.6836L7.66455 15.8873C7.66455 16.1482 7.77273 16.39 7.94455 16.5618L8.61909 17.23L12.8064 13.0363C13.0418 12.8073 13.1818 12.4891 13.1818 12.1391V5.77544C13.1818 5.07544 12.6091 4.50271 11.9091 4.50271H6.18182C5.65364 4.50271 5.20182 4.82089 5.01091 5.27907L3.08909 9.76544C3.03182 9.9118 3 10.0645 3 10.23V11.5027Z" />
</svg>
