<svg width="16" height="16" viewBox="0 0 16 16" xmlns="http://www.w3.org/2000/svg">
<path fill-rule="evenodd" clip-rule="evenodd" d="M12.7864 2.64773C12.6116 2.63384 12.382 2.63338 12.0265 2.63338H11.5497V7.9667C11.5524 7.9667 11.555 7.9667 11.5576 7.9667H12.0265C12.382 7.9667 12.6116 7.96623 12.7864 7.95234C12.9543 7.939 13.0159 7.91633 13.0452 7.9018C13.1596 7.8451 13.2493 7.75629 13.3045 7.65099C13.3163 7.62833 13.3386 7.57473 13.352 7.41519C13.3661 7.24774 13.3666 7.02681 13.3666 6.68004V3.92004C13.3666 3.57327 13.3661 3.35234 13.352 3.18488C13.3386 3.02535 13.3163 2.97175 13.3045 2.94908C13.2493 2.84379 13.1596 2.75497 13.0452 2.69827C13.0159 2.68374 12.9543 2.66108 12.7864 2.64773ZM10.2831 8.51253V2.63338H5.43877C4.97878 2.63338 4.66811 2.63378 4.42608 2.6517C4.19154 2.66907 4.06788 2.70053 3.9783 2.74002C3.76564 2.83377 3.58749 2.98348 3.46293 3.16922C3.4121 3.24501 3.36293 3.35417 3.31043 3.57371C3.25595 3.80148 3.20861 4.09798 3.13855 4.54103L2.81596 6.58103C2.72378 7.16398 2.66172 7.56018 2.64069 7.86701C2.6201 8.16736 2.64534 8.31364 2.68325 8.41035C2.78141 8.66074 2.96768 8.87412 3.21432 9.01057C3.31394 9.06568 3.46644 9.1133 3.77863 9.13951C4.09631 9.16618 4.51089 9.1667 5.11619 9.1667L5.63234 9.1667C5.788 9.16668 5.93956 9.16666 6.06792 9.17687C6.20858 9.18805 6.37541 9.21443 6.54398 9.29799C6.77772 9.41386 6.97102 9.60041 7.09325 9.83381C7.18221 10.0037 7.21032 10.1723 7.22213 10.313C7.2328 10.44 7.23278 10.5894 7.23276 10.7399L7.23276 12.5205C7.23276 12.9487 7.57584 13.3264 8.04396 13.3637L10.0799 8.90698C10.0863 8.89288 10.0929 8.87826 10.0997 8.86322C10.1472 8.75805 10.2042 8.63198 10.2831 8.51253ZM12.0502 1.3667C12.3753 1.36669 12.6558 1.36668 12.8868 1.38504C13.1303 1.4044 13.3733 1.44713 13.6078 1.56339C13.9576 1.73678 14.2452 2.01512 14.4266 2.36142C14.5491 2.59544 14.594 2.83821 14.6143 3.07888C14.6333 3.30573 14.6333 3.58043 14.6333 3.8954V6.70468C14.6333 7.01964 14.6333 7.29434 14.6143 7.5212C14.594 7.76187 14.5491 8.00463 14.4266 8.23866C14.2452 8.58496 13.9576 8.86329 13.6078 9.03669C13.3733 9.15295 13.1303 9.19568 12.8868 9.21503C12.6558 9.2334 12.3753 9.23339 12.0502 9.23338L11.5576 9.23338C11.435 9.23338 11.3711 9.23366 11.3249 9.23649C11.3048 9.27473 11.2793 9.32986 11.232 9.43331L9.15942 13.9703C8.972 14.3806 8.56097 14.6334 8.12013 14.6334C6.94699 14.6334 5.96608 13.7037 5.96608 12.5205V10.76C5.96608 10.5984 5.96565 10.5053 5.96138 10.4391C5.88991 10.4338 5.79038 10.4334 5.61268 10.4334H5.08863C4.51768 10.4334 4.04966 10.4334 3.67268 10.4017C3.28416 10.3691 2.92683 10.2991 2.60115 10.1189C2.10124 9.84238 1.71186 9.40297 1.50396 8.87267C1.36753 8.52466 1.35077 8.16279 1.37698 7.7804C1.4023 7.41088 1.47377 6.959 1.56033 6.41166L1.89118 4.31938C1.9565 3.90629 2.01115 3.56064 2.0785 3.27906C2.14911 2.98384 2.24338 2.71353 2.41091 2.46372C2.67125 2.0755 3.0384 1.77007 3.46734 1.58097C3.74174 1.46001 4.0254 1.41123 4.33252 1.38849C4.62688 1.36669 4.98464 1.36669 5.41559 1.3667L12.0502 1.3667Z" />
</svg>
