<svg width="16" height="16" viewBox="0 0 16 16" xmlns="http://www.w3.org/2000/svg">
  <path fill-rule="evenodd" clip-rule="evenodd" d="M7.11889 2.01136C7.32169 1.58979 7.75271 1.35059 8.19193 1.35059C9.38567 1.35059 10.4428 2.25628 10.4428 3.47953V5.55059H12.7179C14.2512 5.55059 15.5415 6.83526 15.2842 8.38041L14.5848 12.5804C14.3804 13.8076 13.2599 14.6495 12.0185 14.6495H3.29892C2.27226 14.6495 1.35059 13.8689 1.35059 12.8V8.60003C1.35059 7.53115 2.27226 6.75059 3.29892 6.75059H4.82519C4.83164 6.75059 4.83664 6.74951 4.84005 6.74838L7.11889 2.01136ZM5.89669 13.3506H12.0185C12.7004 13.3506 13.2155 12.8961 13.3036 12.3671L14.003 8.16705C14.1088 7.53147 13.5728 6.84947 12.7179 6.84947H10.4428C9.77482 6.84947 9.14391 6.33754 9.14391 5.60003V3.47953C9.14391 3.08318 8.7934 2.67927 8.25252 2.65104L6.0039 7.32526C5.97288 7.38975 5.93692 7.45039 5.89669 7.50699V13.3506ZM4.5978 8.04947V13.3506H3.29892C2.89086 13.3506 2.64947 13.0566 2.64947 12.8V8.60003C2.64947 8.34343 2.89086 8.04947 3.29892 8.04947H4.5978Z" />
</svg>
