<svg width="16" height="16" viewBox="0 0 16 16"  xmlns="http://www.w3.org/2000/svg">
<path d="M3.33333 13.3333C3.33333 13.6869 3.47381 14.026 3.72386 14.2761C3.97391 14.5261 4.31304 14.6666 4.66667 14.6666H11.3333C11.687 14.6666 12.0261 14.5261 12.2761 14.2761C12.5262 14.026 12.6667 13.6869 12.6667 13.3333V5.33325H14V3.99992H11.3333V2.66659C11.3333 2.31296 11.1929 1.97382 10.9428 1.72378C10.6928 1.47373 10.3536 1.33325 10 1.33325H6C5.64638 1.33325 5.30724 1.47373 5.05719 1.72378C4.80714 1.97382 4.66667 2.31296 4.66667 2.66659V3.99992H2V5.33325H3.33333V13.3333ZM6 2.66659H10V3.99992H6V2.66659ZM5.33333 5.33325H11.3333V13.3333H4.66667V5.33325H5.33333Z" />
<path d="M6 6.66675H7.33333V12.0001H6V6.66675ZM8.66667 6.66675H10V12.0001H8.66667V6.66675Z" />
</svg>
