<svg width="20" height="20" viewBox="0 0 20 20" xmlns="http://www.w3.org/2000/svg">
    <path
        d="M14.2253 14.8719V16.166H5.1665V14.8719H14.2253ZM12.2842 10.4816C12.2628 10.9087 12.1361 11.3238 11.9152 11.6899C11.6942 12.056 11.3861 12.3616 11.0182 12.5795C10.6503 12.7974 10.2342 12.9208 9.80696 12.9386C9.37975 12.9564 8.95478 12.8681 8.57003 12.6816C8.12656 12.4898 7.75047 12.1699 7.48994 11.7629C7.22941 11.356 7.09631 10.8805 7.10768 10.3975V5.16925H5.81356V10.4816C5.83545 11.0908 6.00047 11.6862 6.29524 12.2197C6.59002 12.7532 7.00628 13.2098 7.51033 13.5526C8.01437 13.8953 8.59204 14.1146 9.19656 14.1926C9.80109 14.2706 10.4155 14.2052 10.99 14.0016C11.7543 13.7469 12.4174 13.255 12.8828 12.5975C13.3483 11.94 13.5919 11.1512 13.5783 10.3457V5.16925H12.2842V10.4816ZM12.2842 5.16602H13.5783H12.2842ZM7.10768 5.16602H5.81356H7.10768Z" />
</svg>
