<svg width="24" height="24" viewBox="0 0 24 24" xmlns="http://www.w3.org/2000/svg">
    <path fill-rule="evenodd" clip-rule="evenodd"
        d="M17 8H18C19.1 8 20 8.9 20 10V20C20 21.1 19.1 22 18 22H6C4.9 22 4 21.1 4 20V10C4 8.9 4.9 8 6 8H15V6C15 4.34 13.66 3 12 3C11.0322 3 10.1732 3.45544 9.6251 4.1642C9.44612 4.39563 9.30028 4.65407 9.19463 4.93249L7.44623 3.9334C7.4637 3.89499 7.48165 3.85683 7.50006 3.81894C7.64083 3.52925 7.80875 3.25516 8.00051 3C8.91301 1.78579 10.3653 1 12 1C14.76 1 17 3.24 17 6V8ZM6 10V20H18V10H6ZM14 15C14 16.1 13.1 17 12 17C10.9 17 10 16.1 10 15C10 13.9 10.9 13 12 13C13.1 13 14 13.9 14 15Z" />
</svg>
