<svg width="16" height="16" viewBox="0 0 16 16" xmlns="http://www.w3.org/2000/svg">
<path fill-rule="evenodd" clip-rule="evenodd" d="M0.666656 8.00001C0.666656 4.34205 3.52844 1.33334 7.1111 1.33334C8.28888 1.33334 9.39365 1.66076 10.3433 2.23122C10.6589 2.42082 10.7611 2.83038 10.5715 3.146C10.3819 3.46162 9.97231 3.56378 9.65669 3.37418C8.90666 2.92363 8.03809 2.66668 7.1111 2.66668C4.3118 2.66668 1.99999 5.03055 1.99999 8.00001C1.99999 10.9695 4.3118 13.3333 7.1111 13.3333C8.03809 13.3333 8.90666 13.0764 9.65669 12.6258C9.97231 12.4362 10.3819 12.5384 10.5715 12.854C10.7611 13.1696 10.6589 13.5792 10.3433 13.7688C9.39365 14.3393 8.28888 14.6667 7.1111 14.6667C3.52844 14.6667 0.666656 11.658 0.666656 8.00001ZM11.5286 4.86194C11.7889 4.60159 12.211 4.60159 12.4714 4.86194L15.1381 7.52861C15.3984 7.78896 15.3984 8.21107 15.1381 8.47141L12.4714 11.1381C12.211 11.3984 11.7889 11.3984 11.5286 11.1381C11.2682 10.8777 11.2682 10.4556 11.5286 10.1953L13.0572 8.66668H5.99999C5.6318 8.66668 5.33332 8.3682 5.33332 8.00001C5.33332 7.63182 5.6318 7.33334 5.99999 7.33334H13.0572L11.5286 5.80475C11.2682 5.5444 11.2682 5.12229 11.5286 4.86194Z" />
</svg>
