<svg width="20" height="20" viewBox="0 0 20 20" xmlns="http://www.w3.org/2000/svg">
    <path
        d="M2.94996 8.74992C2.61844 8.74992 2.3005 8.88161 2.06608 9.11603C1.83166 9.35046 1.69996 9.6684 1.69996 9.99992C1.69996 10.3314 1.83166 10.6494 2.06608 10.8838C2.3005 11.1182 2.61844 11.2499 2.94996 11.2499C3.28148 11.2499 3.59942 11.1182 3.83384 10.8838C4.06826 10.6494 4.19996 10.3314 4.19996 9.99992C4.19996 9.6684 4.06826 9.35046 3.83384 9.11603C3.59942 8.88161 3.28148 8.74992 2.94996 8.74992ZM2.94996 4.58325C2.6153 4.58314 2.29383 4.71376 2.05409 4.94727C1.81435 5.18078 1.67532 5.4987 1.66663 5.83325C1.67506 6.16211 1.80947 6.47518 2.04208 6.70779C2.2747 6.94041 2.58776 7.07482 2.91663 7.08325C3.24549 7.07482 3.55855 6.94041 3.79117 6.70779C4.02379 6.47518 4.15819 6.16211 4.16663 5.83325C4.15866 5.50992 4.0289 5.20153 3.80332 4.96976C3.57773 4.738 3.27295 4.59996 2.94996 4.58325V4.58325ZM2.94996 12.9166C2.61844 12.9166 2.3005 13.0483 2.06608 13.2827C1.83166 13.5171 1.69996 13.8351 1.69996 14.1666C1.69996 14.4981 1.83166 14.816 2.06608 15.0505C2.3005 15.2849 2.61844 15.4166 2.94996 15.4166C3.28148 15.4166 3.59942 15.2849 3.83384 15.0505C4.06826 14.816 4.19996 14.4981 4.19996 14.1666C4.19996 13.8351 4.06826 13.5171 3.83384 13.2827C3.59942 13.0483 3.28148 12.9166 2.94996 12.9166ZM6.66663 4.99992V6.66659H18.25V4.99992H6.66663ZM6.66663 14.9999H18.25V13.3333H6.66663V14.9999ZM6.66663 10.8333H18.25V9.16658H6.66663V10.8333Z" />
</svg>
