<svg width="16" height="16" viewBox="0 0 16 16"
  xmlns="http://www.w3.org/2000/svg">
  <path d="M8.66671 12.6667V10.0001H10.6667L8.00004 6.66675L5.33337 10.0001H7.33337V12.6667H8.66671Z" />
  <path d="M4.66671 12.6666H6.00004V11.3333H4.66671C3.56404 11.3333 2.66671 10.4359 2.66671 9.33325C2.66671 8.39725 3.46604 7.49592 4.44871 7.32325L4.83604 7.25525L4.96404 6.88325C5.43271 5.51592 6.59671 4.66659 8.00004 4.66659C9.83804 4.66659 11.3334 6.16192 11.3334 7.99992V8.66659H12C12.7354 8.66659 13.3334 9.26459 13.3334 9.99992C13.3334 10.7353 12.7354 11.3333 12 11.3333H10V12.6666H12C13.4707 12.6666 14.6667 11.4706 14.6667 9.99992C14.6657 9.40232 14.4645 8.82231 14.0952 8.35247C13.7259 7.88264 13.2098 7.55009 12.6294 7.40792C12.338 5.11325 10.3734 3.33325 8.00004 3.33325C6.16271 3.33325 4.56671 4.40725 3.83804 6.09992C2.40604 6.52792 1.33337 7.87992 1.33337 9.33325C1.33337 11.1713 2.82871 12.6666 4.66671 12.6666Z" />
</svg>
