<svg width="20" height="20" viewBox="0 0 20 20" xmlns="http://www.w3.org/2000/svg">
    <path fill-rule="evenodd" clip-rule="evenodd"
        d="M10 1.25C8.26942 1.25 6.57769 1.76318 5.13876 2.72464C3.69983 3.6861 2.57832 5.05267 1.91606 6.65152C1.25379 8.25037 1.08051 10.0097 1.41813 11.707C1.75575 13.4044 2.58911 14.9635 3.81282 16.1872C5.03653 17.4109 6.59563 18.2442 8.29296 18.5819C9.9903 18.9195 11.7496 18.7462 13.3485 18.0839C14.9473 17.4217 16.3139 16.3002 17.2754 14.8612C18.2368 13.4223 18.75 11.7306 18.75 10C18.75 7.67935 17.8281 5.45376 16.1872 3.81281C14.5462 2.17187 12.3206 1.25 10 1.25ZM10 3C11.2735 3.00074 12.5227 3.34889 13.613 4.00695C14.7034 4.66502 15.5935 5.60807 16.1876 6.73453C16.7817 7.86099 17.0572 9.12819 16.9845 10.3996C16.9118 11.6711 16.4936 12.8986 15.775 13.95C15.4566 13.1449 14.9744 12.4147 14.359 11.8058C13.7436 11.1968 13.0084 10.7224 12.2 10.4125C12.7227 9.96325 13.0952 9.36476 13.2677 8.69748C13.4401 8.03021 13.4041 7.32614 13.1645 6.67992C12.925 6.03371 12.4933 5.47632 11.9276 5.0827C11.3619 4.68907 10.6892 4.47808 10 4.47808C9.31081 4.47808 8.63814 4.68907 8.07241 5.0827C7.50669 5.47632 7.07503 6.03371 6.83546 6.67992C6.5959 7.32614 6.55991 8.03021 6.73234 8.69748C6.90478 9.36476 7.27736 9.96325 7.8 10.4125C6.9916 10.7224 6.25638 11.1968 5.64098 11.8058C5.02557 12.4147 4.54339 13.1449 4.225 13.95C3.50637 12.8986 3.08818 11.6711 3.01548 10.3996C2.94277 9.12819 3.2183 7.86099 3.81239 6.73453C4.40649 5.60807 5.29663 4.66502 6.38696 4.00695C7.47729 3.34889 8.72648 3.00074 10 3ZM10 17C8.36996 16.9995 6.79139 16.4291 5.5375 15.3875C5.75224 14.3618 6.31259 13.4409 7.12486 12.7788C7.93713 12.1167 8.95208 11.7535 10 11.75H10.2C11.2132 11.798 12.1817 12.1814 12.9533 12.8398C13.7249 13.4982 14.2558 14.3944 14.4625 15.3875C13.2086 16.4291 11.6301 16.9995 10 17ZM10 9.625C9.65389 9.625 9.31554 9.52236 9.02776 9.33007C8.73997 9.13778 8.51567 8.86447 8.38321 8.5447C8.25076 8.22493 8.21611 7.87306 8.28363 7.53359C8.35115 7.19413 8.51783 6.8823 8.76257 6.63756C9.00731 6.39282 9.31913 6.22615 9.6586 6.15862C9.99806 6.0911 10.3499 6.12576 10.6697 6.25821C10.9895 6.39066 11.2628 6.61496 11.4551 6.90275C11.6474 7.19054 11.75 7.52888 11.75 7.875C11.75 8.33913 11.5656 8.78425 11.2374 9.11244C10.9093 9.44062 10.4641 9.625 10 9.625Z" />
</svg>