<svg width="16" height="16" xmlns="http://www.w3.org/2000/svg">
  <path
    d="M3.263.696c-.792.055-1.336.282-1.81.757-.49.489-.704 1.02-.76 1.876-.033.513-.033 8.829 0 9.342.014.215.049.499.078.631.167.768.65 1.374 1.402 1.761.26.134.604.207 1.146.244.494.034 8.868.034 9.362 0 .542-.037.886-.11 1.146-.244.748-.385 1.233-.991 1.401-1.752.1-.453.109-1.001.098-5.658-.011-4.659-.01-4.625-.127-5.084a2.594 2.594 0 0 0-.859-1.304C13.969.97 13.561.8 13.017.716 12.773.678 3.788.659 3.263.696m9.775 1.366c.449.121.786.462.901.913.045.174.048.475.048 4.998 0 3.982-.007 4.845-.037 4.996-.02.1-.045.172-.056.16a1.916 1.916 0 0 1-.093-.236 3.335 3.335 0 0 0-2.381-2.134c-.328-.077-.851-.09-3.42-.09s-3.092.013-3.42.09a3.333 3.333 0 0 0-2.381 2.134 1.916 1.916 0 0 1-.093.236c-.011.012-.036-.06-.056-.16-.03-.151-.037-1.014-.037-4.996 0-4.523.003-4.824.048-4.998.059-.231.165-.418.331-.583.229-.23.451-.327.835-.365.11-.011 2.324-.018 4.92-.016 4.392.004 4.732.008 4.891.051m-5.465.967c-.443.081-.784.188-1.08.339-1.212.619-1.937 1.934-1.802 3.269a3.28 3.28 0 0 0 1.121 2.198c.407.363.857.593 1.455.744.206.051.309.06.733.06.528 0 .726-.032 1.151-.185 1.397-.505 2.311-1.957 2.158-3.431a3.294 3.294 0 0 0-1.121-2.192c-.404-.359-.858-.592-1.441-.739-.174-.044-.329-.059-.667-.066a6.374 6.374 0 0 0-.507.003m.956 1.374c.327.082.596.242.871.517.27.27.407.485.512.8.064.193.071.252.071.613 0 .362-.007.421-.071.614-.105.315-.242.53-.512.8-.408.408-.818.577-1.4.577s-.992-.169-1.4-.577c-.27-.27-.407-.485-.512-.8-.064-.193-.071-.252-.071-.614 0-.361.007-.42.071-.613.104-.314.242-.53.512-.801a1.65 1.65 0 0 1 .453-.351 2.03 2.03 0 0 1 1.476-.165m2.442 7.625a2.01 2.01 0 0 1 1.578 1.302c.069.197.136.607.105.638-.024.024-9.284.024-9.308 0-.031-.031.036-.441.105-.638.232-.666.87-1.201 1.556-1.301.223-.033 5.738-.034 5.964-.001"
    fill-rule="evenodd" />
</svg>