<svg width="20" height="20" viewBox="0 0 20 20" xmlns="http://www.w3.org/2000/svg">
    <path
        d="M8.5 17V15.3441H6.72932C6.48086 15.3441 6.27096 15.324 6.0996 15.2839C5.92825 15.2437 5.79117 15.1685 5.68836 15.0581C5.58555 14.9477 5.51272 14.7946 5.46988 14.5989C5.42705 14.4032 5.40563 14.1498 5.40563 13.8387V12.1226C5.40563 11.4703 5.24927 10.971 4.93655 10.6247C4.62383 10.2785 4.2233 10.0853 3.73494 10.0452V9.89462C4.23186 9.84445 4.63454 9.66129 4.94298 9.34516C5.25141 9.02903 5.40563 8.53979 5.40563 7.87742V6.16129C5.40563 5.85018 5.42705 5.59677 5.46988 5.40108C5.51272 5.20538 5.58555 5.05233 5.68836 4.94194C5.79117 4.83154 5.92611 4.75627 6.09318 4.71613C6.26025 4.67599 6.46801 4.65591 6.71647 4.65591H8.5V3H5.81687C5.1486 3 4.64525 3.21577 4.30683 3.64731C3.96841 4.07885 3.7992 4.67599 3.7992 5.43871V7.36559C3.7992 8.02796 3.64712 8.50717 3.34297 8.80323C3.03882 9.09928 2.59117 9.24731 2 9.24731V10.7527C2.5826 10.7527 3.02811 10.8932 3.33655 11.1742C3.64498 11.4552 3.7992 11.962 3.7992 12.6946V14.5763C3.7992 15.3892 3.97484 15.9964 4.32611 16.3979C4.67738 16.7993 5.1743 17 5.81687 17H8.5Z" />
    <path
        d="M11.5 17V15.3441H13.2707C13.5191 15.3441 13.729 15.324 13.9004 15.2839C14.0717 15.2437 14.2088 15.1685 14.3116 15.0581C14.4145 14.9477 14.4873 14.7946 14.5301 14.5989C14.573 14.4032 14.5944 14.1498 14.5944 13.8387V12.1226C14.5944 11.4703 14.7507 10.971 15.0634 10.6247C15.3762 10.2785 15.7767 10.0853 16.2651 10.0452V9.89462C15.7681 9.84445 15.3655 9.66129 15.057 9.34516C14.7486 9.02903 14.5944 8.53979 14.5944 7.87742V6.16129C14.5944 5.85018 14.573 5.59677 14.5301 5.40108C14.4873 5.20538 14.4145 5.05233 14.3116 4.94194C14.2088 4.83154 14.0739 4.75627 13.9068 4.71613C13.7398 4.67599 13.532 4.65591 13.2835 4.65591H11.5V3H14.1831C14.8514 3 15.3547 3.21577 15.6932 3.64731C16.0316 4.07885 16.2008 4.67599 16.2008 5.43871V7.36559C16.2008 8.02796 16.3529 8.50717 16.657 8.80323C16.9612 9.09928 17.4088 9.24731 18 9.24731V10.7527C17.4174 10.7527 16.9719 10.8932 16.6635 11.1742C16.355 11.4552 16.2008 11.962 16.2008 12.6946V14.5763C16.2008 15.3892 16.0252 15.9964 15.6739 16.3979C15.3226 16.7993 14.8257 17 14.1831 17H11.5Z" />
</svg>
