<svg width="16" height="16" viewBox="0 0 16 16" xmlns="http://www.w3.org/2000/svg">
<path d="M8 6C7.47065 6.00349 6.96397 6.21533 6.58965 6.58965C6.21533 6.96397 6.00349 7.47065 6 8C6 9.09467 6.90533 10 8 10C9.094 10 10 9.09467 10 8C10 6.906 9.094 6 8 6Z" />
<path d="M7.99954 3.33325C2.91088 3.33325 1.38154 7.74459 1.36754 7.78925L1.29688 7.99992L1.36688 8.21059C1.38154 8.25525 2.91088 12.6666 7.99954 12.6666C13.0882 12.6666 14.6175 8.25525 14.6315 8.21059L14.7022 7.99992L14.6322 7.78925C14.6175 7.74459 13.0882 3.33325 7.99954 3.33325ZM7.99954 11.3333C4.43221 11.3333 3.05021 8.76925 2.71554 7.99992C3.05154 7.22792 4.43421 4.66659 7.99954 4.66659C11.5669 4.66659 12.9489 7.23059 13.2835 7.99992C12.9475 8.77192 11.5649 11.3333 7.99954 11.3333V11.3333Z" />
</svg>
