<svg width="20" height="20" viewBox="0 0 20 20" xmlns="http://www.w3.org/2000/svg">
    <path
        d="M15.7161 6.57143L16.4323 5.0019L18.0018 4.28571L16.4323 3.56952L15.7161 2L14.9999 3.56952L13.4304 4.28571L14.9999 5.0019L15.7161 6.57143Z" />
    <path
        d="M6.95429 6.57143L7.67048 5.0019L9.24001 4.28571L7.67048 3.56952L6.95429 2L6.2381 3.56952L4.66858 4.28571L6.2381 5.0019L6.95429 6.57143Z" />
    <path
        d="M15.7161 10.762L14.9999 12.3315L13.4304 13.0477L14.9999 13.7639L15.7161 15.3334L16.4323 13.7639L18.0018 13.0477L16.4323 12.3315L15.7161 10.762Z" />
    <path
        d="M13.9714 8.18671L11.8152 6.03052C11.6629 5.88576 11.4724 5.80957 11.2743 5.80957C11.0762 5.80957 10.8857 5.88576 10.7333 6.03052L2.22286 14.541C1.92571 14.8381 1.92571 15.3181 2.22286 15.6153L4.37905 17.7715C4.53143 17.9239 4.7219 18 4.92 18C5.1181 18 5.30857 17.9239 5.46095 17.7791L13.9714 9.26862C14.2686 8.97148 14.2686 8.48386 13.9714 8.18671ZM11.2743 7.65338L12.3486 8.72767L11.4571 9.61909L10.3829 8.54481L11.2743 7.65338ZM4.92 16.1639L3.84571 15.0896L9.30857 9.61909L10.3829 10.6934L4.92 16.1639Z" />
</svg>
