<svg width="14" height="14" viewBox="0 0 14 14" xmlns="http://www.w3.org/2000/svg">
<g clip-path="url(#clip0_24768_1920)">
<path d="M12.2503 7.00031C12.2503 4.10091 9.89965 1.75046 7.00029 1.75031C4.1008 1.75031 1.75029 4.10081 1.75029 7.00031C1.75044 9.89967 4.10089 12.2503 7.00029 12.2503C9.89956 12.2502 12.2501 9.89957 12.2503 7.00031ZM13.4167 7.00031C13.4165 10.5439 10.5439 13.4165 7.00029 13.4167C3.45656 13.4167 0.583208 10.544 0.583054 7.00031C0.583054 3.45648 3.45646 0.583069 7.00029 0.583069C10.544 0.583223 13.4167 3.45657 13.4167 7.00031Z" />
<path d="M6.41638 7.00031V4.66669C6.41638 4.34452 6.67783 4.08307 7 4.08307C7.32217 4.08307 7.58362 4.34452 7.58362 4.66669V7.00031C7.58346 7.32234 7.32207 7.58307 7 7.58307C6.67793 7.58307 6.41654 7.32234 6.41638 7.00031Z" />
<path d="M7.00684 8.74969C7.32888 8.74984 7.5896 9.01124 7.5896 9.33331C7.5896 9.65539 7.32888 9.91678 7.00684 9.91693H7C6.67783 9.91693 6.41638 9.65548 6.41638 9.33331C6.41638 9.01115 6.67783 8.74969 7 8.74969H7.00684Z" />
</g>
<defs>
<clipPath id="clip0_24768_1920">
<rect width="14" height="14" />
</clipPath>
</defs>
</svg>
