<svg width="14" height="15" viewBox="0 0 14 15" xmlns="http://www.w3.org/2000/svg">
<path d="M6.52605 1.43127C6.79016 1.31389 7.08692 1.29953 7.35918 1.38769L7.47368 1.43127L7.55742 1.474C7.74384 1.58034 7.87114 1.73612 7.9633 1.86621C8.07036 2.01735 8.18597 2.2171 8.31279 2.43616L13.1099 10.723C13.2372 10.9428 13.3541 11.1424 13.4321 11.3109C13.5087 11.4767 13.5919 11.7001 13.5654 11.9543C13.531 12.2832 13.3584 12.5818 13.0911 12.7764C12.8843 12.9267 12.6492 12.9665 12.4673 12.9832C12.2825 13.0001 12.0513 12.9994 11.7974 12.9994H2.20232C1.94841 12.9994 1.71727 13.0001 1.53239 12.9832C1.35054 12.9665 1.1154 12.9267 0.908615 12.7764C0.641284 12.5818 0.468713 12.2832 0.434372 11.9543C0.40786 11.7001 0.490994 11.4767 0.567673 11.3109C0.64565 11.1424 0.762571 10.9428 0.889817 10.723L5.68694 2.43616C5.81376 2.2171 5.92937 2.01735 6.03642 1.86621C6.14177 1.71751 6.2931 1.53485 6.52605 1.43127ZM6.98833 2.54041C6.91956 2.6375 6.83529 2.78167 6.69695 3.02063L1.89897 11.3075C1.76015 11.5473 1.67655 11.693 1.62639 11.8014C1.62359 11.8075 1.62105 11.8132 1.6187 11.8185C1.62482 11.8192 1.63126 11.8212 1.63835 11.8219C1.75733 11.8328 1.92525 11.833 2.20232 11.833H11.7974C12.0745 11.833 12.2424 11.8328 12.3614 11.8219C12.3681 11.8213 12.3743 11.8191 12.3802 11.8185C12.3779 11.8132 12.3761 11.8073 12.3733 11.8014C12.3232 11.693 12.2396 11.5473 12.1008 11.3075L7.30278 3.02063C7.16444 2.78168 7.08017 2.6375 7.0114 2.54041C7.00753 2.53494 7.00289 2.53058 6.99944 2.52588C6.99607 2.53047 6.99209 2.5351 6.98833 2.54041ZM7.00542 9.79163C7.32744 9.79163 7.58881 10.0524 7.58904 10.3744C7.58904 10.6966 7.32758 10.958 7.00542 10.958H6.99944C6.67747 10.9578 6.41667 10.6964 6.41667 10.3744C6.4169 10.0526 6.67761 9.79186 6.99944 9.79163H7.00542ZM6.41667 8.04163V5.70801C6.41675 5.38605 6.67751 5.12462 6.99944 5.12439C7.32156 5.12439 7.58298 5.3859 7.58305 5.70801V8.04163C7.58297 8.36372 7.32155 8.62439 6.99944 8.62439C6.67752 8.62416 6.41675 8.36358 6.41667 8.04163Z" />
</svg>
