<svg width="24" height="24" viewBox="0 0 24 24" fill="none" xmlns="http://www.w3.org/2000/svg">
<path d="M12 22C18.0751 22 23 17.299 23 11.5C23 5.70101 18.0751 1 12 1C5.92487 1 1 5.70101 1 11.5C1 17.299 5.92487 22 12 22Z" fill="#1565C0"/>
<path d="M17.1445 7.99963C16.9647 7.9996 16.7895 7.94736 16.6438 7.85032C16.498 7.75327 16.3891 7.61636 16.3324 7.45899C16.0294 6.62028 15.4479 5.89079 14.6704 5.37385C13.8928 4.85691 12.9587 4.57874 12.0002 4.57874C11.0418 4.57874 10.1076 4.85691 9.3301 5.37385C8.55258 5.89079 7.9711 6.62028 7.66805 7.45899C7.63268 7.55744 7.57661 7.64849 7.50307 7.72695C7.42952 7.8054 7.33994 7.86972 7.23943 7.91622C7.13892 7.96272 7.02946 7.99049 6.91731 7.99795C6.80516 8.00542 6.69251 7.99242 6.58581 7.9597C6.47911 7.92698 6.38044 7.87519 6.29545 7.80728C6.21046 7.73938 6.14081 7.65668 6.09049 7.56394C6.04017 7.47119 6.01015 7.3702 6.00216 7.26675C5.99417 7.16329 6.00837 7.0594 6.04393 6.96101C6.46035 5.80765 7.25973 4.80443 8.32877 4.0935C9.39782 3.38257 10.6823 3 12.0002 3C13.3182 3 14.6027 3.38257 15.6717 4.0935C16.7407 4.80443 17.5401 5.80765 17.9565 6.96101C17.9992 7.07966 18.0106 7.20594 17.9901 7.32948C17.9695 7.45302 17.9174 7.57029 17.8382 7.67167C17.7589 7.77305 17.6547 7.85563 17.5341 7.91264C17.4135 7.96966 17.28 7.99947 17.1445 7.99963Z" fill="#FFA726"/>
<path d="M6.00003 10.1734C6.03096 10.1248 6.07302 10.0843 6.12276 10.055C6.1725 10.0258 6.22852 10.0087 6.2862 10.0051C6.65047 10.0016 7.01581 9.99366 7.37981 10.0104C7.46694 10.0189 7.54839 10.0572 7.61025 10.1188C7.67211 10.1804 7.71052 10.2614 7.71894 10.348C8.07705 11.7953 8.42876 13.2447 8.78526 14.6925C8.88984 15.1396 9.01715 15.5821 9.08535 16.0369C9.15568 16.4454 9.1696 16.8601 9.23645 17.2694C9.31397 16.6826 9.42514 16.1007 9.56943 15.5266C10.0356 13.7986 10.5019 12.0709 10.9682 10.3435C10.9888 10.2478 11.0418 10.1621 11.1185 10.1007C11.1951 10.0393 11.2907 10.0061 11.3892 10.0065C11.7946 9.99632 12.2009 10.0033 12.6063 10.0033C12.7163 9.99402 12.8261 10.0225 12.9176 10.0839C13.009 10.1453 13.0765 10.236 13.1089 10.3408C13.4571 11.6005 13.8034 12.8612 14.1479 14.1232C14.3951 14.9305 14.5972 15.7507 14.7532 16.5802C14.786 16.8109 14.8181 17.0422 14.866 17.2713C15.0418 15.9628 15.2928 14.6655 15.6179 13.3856C15.8492 12.3601 16.0754 11.3336 16.3094 10.3081C16.3355 10.213 16.3948 10.1302 16.4767 10.0745C16.5586 10.0189 16.6577 9.99396 16.7564 10.0043C17.0843 10.0024 17.4127 9.99312 17.7401 10.0097C17.7847 10.0135 17.8279 10.0279 17.8659 10.0515C17.904 10.075 17.9359 10.1072 17.959 10.1454C17.9822 10.1835 17.996 10.2266 17.9992 10.2711C18.0025 10.3155 17.9952 10.3601 17.9778 10.4012C17.3199 12.8138 16.6627 15.227 16.0062 17.6407C15.989 17.7358 15.9396 17.8222 15.8662 17.8854C15.7928 17.9487 15.6997 17.985 15.6026 17.9884C15.0944 18.0049 14.5852 17.9924 14.0771 17.995C13.9869 18.0071 13.8954 17.9855 13.8203 17.9344C13.7451 17.8834 13.6917 17.8065 13.6702 17.7186C13.2153 16.0595 12.7695 14.3974 12.3188 12.737C12.1724 12.1557 12.0728 11.5636 12.0211 10.9665C11.9612 11.4997 11.8721 12.0293 11.7542 12.5528C11.2929 14.2624 10.8303 15.9724 10.3664 17.6827C10.3143 17.9597 9.99574 18.015 9.75878 17.9969C9.28619 17.9884 8.81361 18.0078 8.34155 17.9884C8.26167 17.9861 8.18512 17.9561 8.12518 17.9035C8.06524 17.851 8.0257 17.7793 8.0134 17.7008C7.35012 15.2977 6.68738 12.8944 6.02516 10.491C6.00787 10.386 5.99947 10.2798 6.00003 10.1734Z" fill="white"/>
</svg>
