<svg width="24" height="24" viewBox="0 0 24 24" fill="none" xmlns="http://www.w3.org/2000/svg">
<path d="M12 23C5.92487 23 1 18.0751 1 12C1 5.92487 5.92487 1 12 1C18.0751 1 23 5.92487 23 12C23 18.0751 18.0751 23 12 23Z" fill="#03363D"/>
<path d="M12.3811 10.1119V16H17L12.3811 10.1119ZM12.3811 8C12.3811 9.34762 13.4141 10.4381 14.6906 10.4381C15.9671 10.4381 17 9.34762 17 8H12.3811ZM11.6189 16C11.6189 14.6524 10.5859 13.5619 9.30943 13.5619C8.03293 13.5619 7 14.6524 7 16H11.6189ZM11.6189 13.8857V8H7L11.6189 13.8857Z" fill="white"/>
</svg>
